<svg xmlns="http://www.w3.org/2000/svg" width="25" height="20" viewBox="0 0 25 20"><g transform="translate(-1633 -4901)"><g transform="translate(1637.277 4908.22)"><path d="M7.323,10.5h-2.5a.75.75,0,0,1,0-1.5h2.5a.75.75,0,0,1,0,1.5Z" transform="translate(-4.073 -9)"/></g><g transform="translate(1644.811 4908.22)"><path d="M19.323,10.5h-7.5a.75.75,0,0,1,0-1.5h7.5a.75.75,0,0,1,0,1.5Z" transform="translate(-11.073 -9)" fill="#ffc107"/></g><g transform="translate(1637.277 4911.829)"><path d="M7.323,14.5h-2.5a.75.75,0,0,1,0-1.5h2.5a.75.75,0,0,1,0,1.5Z" transform="translate(-4.073 -13)" fill="#ffc107"/></g><g transform="translate(1644.811 4911.829)"><path d="M19.323,14.5h-7.5a.75.75,0,0,1,0-1.5h7.5a.75.75,0,1,1,0,1.5Z" transform="translate(-11.073 -13)"/></g><g transform="translate(1637.277 4915.439)"><path d="M7.323,18.5h-2.5a.75.75,0,0,1,0-1.5h2.5a.75.75,0,0,1,0,1.5Z" transform="translate(-4.073 -17)"/></g><g transform="translate(1644.811 4915.439)"><path d="M19.323,18.5h-7.5a.75.75,0,0,1,0-1.5h7.5a.75.75,0,1,1,0,1.5Z" transform="translate(-11.073 -17)" fill="#ffc107"/></g><g transform="translate(1633 4901)"><path d="M22.135,21H2.865A2.7,2.7,0,0,1,0,18.5V3.5A2.7,2.7,0,0,1,2.865,1H22.135A2.7,2.7,0,0,1,25,3.5v15A2.7,2.7,0,0,1,22.135,21ZM2.865,2.364A1.229,1.229,0,0,0,1.563,3.5v15a1.229,1.229,0,0,0,1.3,1.136H22.135a1.229,1.229,0,0,0,1.3-1.136V3.5a1.229,1.229,0,0,0-1.3-1.136Z" transform="translate(0 -1)"/></g><g transform="translate(1633 4904.159)"><path d="M24.219,6H.781a.751.751,0,1,1,0-1.5H24.219a.751.751,0,1,1,0,1.5Z" transform="translate(0 -4.5)"/></g></g></svg>