<svg xmlns="http://www.w3.org/2000/svg" width="25" height="20" viewBox="0 0 25 20"><g transform="translate(279 -2.333)"><g transform="translate(-279 2.333)"><path d="M22.4,85.333H2.6A2.9,2.9,0,0,0,0,88.458v13.75a2.9,2.9,0,0,0,2.6,3.125H22.4a2.9,2.9,0,0,0,2.6-3.125V88.458A2.9,2.9,0,0,0,22.4,85.333Zm1.562,16.875a1.742,1.742,0,0,1-1.562,1.875H2.6a1.742,1.742,0,0,1-1.562-1.875V88.458A1.742,1.742,0,0,1,2.6,86.583H22.4a1.742,1.742,0,0,1,1.562,1.875v13.75Z" transform="translate(0 -85.333)"/></g><g transform="translate(-279 6.083)"><path d="M24.479,149.333H.521a.58.58,0,0,0-.521.625v3.75a.58.58,0,0,0,.521.625H24.479a.58.58,0,0,0,.521-.625v-3.75A.58.58,0,0,0,24.479,149.333Zm-.521,3.75H1.042v-2.5H23.958v2.5Z" transform="translate(0 -149.333)"/></g><g transform="translate(-275.875 14.833)"><path d="M70.771,298.667h-6.25a.635.635,0,0,0,0,1.25h6.25a.635.635,0,0,0,0-1.25Z" transform="translate(-64 -298.667)" fill="#ffc107"/></g><g transform="translate(-275.875 17.333)"><path d="M70.771,341.333h-6.25a.635.635,0,0,0,0,1.25h6.25a.635.635,0,0,0,0-1.25Z" transform="translate(-64 -341.333)" fill="#ffc107"/></g><g transform="translate(-261.292 13.583)"><path d="M365.271,277.333h-1.042a1.742,1.742,0,0,0-1.562,1.875v1.25a1.742,1.742,0,0,0,1.563,1.875h1.042a1.742,1.742,0,0,0,1.563-1.875v-1.25A1.742,1.742,0,0,0,365.271,277.333Zm.521,3.125a.58.58,0,0,1-.521.625h-1.042a.58.58,0,0,1-.521-.625v-1.25a.58.58,0,0,1,.521-.625h1.042a.58.58,0,0,1,.521.625Z" transform="translate(-362.667 -277.333)" fill="#ffc107"/></g></g></svg>