<svg xmlns="http://www.w3.org/2000/svg" width="24.999" height="25" viewBox="0 0 24.999 25"><path d="M11.915,24.525a.526.526,0,0,1-.369-.152.52.52,0,0,1-.143-.47l.736-3.682a.511.511,0,0,1,.143-.267l8.1-8.1a1.565,1.565,0,0,1,2.209,0l1.473,1.473a1.564,1.564,0,0,1,0,2.209l-8.1,8.1a.518.518,0,0,1-.267.143l-3.682.736A.553.553,0,0,1,11.915,24.525Zm1.217-3.947-.552,2.761,2.761-.552L23.332,14.8a.521.521,0,0,0,0-.736l-1.473-1.473a.521.521,0,0,0-.736,0Zm2.466,2.69h.01Z" transform="translate(0.475 0.475)"/><path d="M9.9,21.75H2.6a2.606,2.606,0,0,1-2.6-2.6V5.6A2.606,2.606,0,0,1,2.6,3H4.687a.521.521,0,1,1,0,1.042H2.6A1.564,1.564,0,0,0,1.042,5.6V19.146A1.564,1.564,0,0,0,2.6,20.708H9.9a.521.521,0,1,1,0,1.042Z" transform="translate(0 0.125)"/><path d="M16.688,12.375a.521.521,0,0,1-.521-.521V5.6A1.564,1.564,0,0,0,14.6,4.042H12.521a.521.521,0,1,1,0-1.042H14.6a2.606,2.606,0,0,1,2.6,2.6v6.25A.521.521,0,0,1,16.688,12.375Z" transform="translate(0.5 0.125)"/><path d="M11.812,6.25H5.563A1.564,1.564,0,0,1,4,4.687V2.6a.521.521,0,0,1,.521-.521H6.135a2.6,2.6,0,0,1,5.1,0h1.615a.521.521,0,0,1,.521.521V4.687A1.564,1.564,0,0,1,11.812,6.25ZM5.042,3.125V4.687a.522.522,0,0,0,.521.521h6.25a.522.522,0,0,0,.521-.521V3.125H10.771A.521.521,0,0,1,10.25,2.6a1.562,1.562,0,1,0-3.125,0,.521.521,0,0,1-.521.521Z" transform="translate(0.167)"/><path d="M13.937,9.042H3.521A.521.521,0,1,1,3.521,8H13.937a.521.521,0,0,1,0,1.042Z" transform="translate(0.125 0.333)" fill="#ffc107"/><path d="M13.937,12.042H3.521a.521.521,0,1,1,0-1.042H13.937a.521.521,0,0,1,0,1.042Z" transform="translate(0.125 0.458)" fill="#ffc107"/><path d="M13.937,15.042H3.521a.521.521,0,0,1,0-1.042H13.937a.521.521,0,0,1,0,1.042Z" transform="translate(0.125 0.583)" fill="#ffc107"/></svg>