<svg xmlns="http://www.w3.org/2000/svg" width="25" height="25" viewBox="0 0 25 25"><path d="M12.5,0A12.5,12.5,0,1,0,25,12.5,12.493,12.493,0,0,0,12.5,0Zm0,23.047A10.547,10.547,0,1,1,23.047,12.5,10.541,10.541,0,0,1,12.5,23.047Z"/><g transform="translate(11.523 10.465)"><path d="M236.977,214.33a.977.977,0,0,0-.977.977V221.6a.977.977,0,1,0,1.953,0v-6.289A.977.977,0,0,0,236.977,214.33Z" transform="translate(-236 -214.33)" fill="#ffc107"/></g><g transform="translate(11.182 6.633)"><circle cx="1.318" cy="1.318" r="1.318"/></g></svg>