<svg xmlns="http://www.w3.org/2000/svg" width="25" height="25" viewBox="0 0 25 25"><g transform="translate(-9.668 0)"><g transform="translate(9.668 0)"><g transform="translate(0 0)"><path d="M34.469,8.909,31.254,6.345V2.706a.591.591,0,0,0-.622-.554H25.953L24.077.655a3.092,3.092,0,0,0-3.813.006L18.387,2.152H13.648a.591.591,0,0,0-.622.554V6.4L9.871,8.909a.554.554,0,0,0-.2.44H9.68v12.79A2.918,2.918,0,0,0,12.65,25H31.684a2.918,2.918,0,0,0,2.97-2.862V9.349h.012A.508.508,0,0,0,34.469,8.909ZM31.254,7.83l1.882,1.5-1.882,1.337ZM21.029,1.535a1.859,1.859,0,0,1,2.289.006l.759.611H20.258ZM14.222,3.294H30.059v8.22l-6.807,4.844a1.888,1.888,0,0,1-2.157,0l-6.873-4.89V3.294Zm-1.2,4.587v2.736L11.2,9.321ZM33.465,22.133a1.75,1.75,0,0,1-1.775,1.725H12.65a1.749,1.749,0,0,1-1.775-1.719V10.486l9.514,6.792a3.106,3.106,0,0,0,3.562,0l9.514-6.792Z" transform="translate(-9.668 0)"/></g></g><g transform="translate(17.867 7.864)"><path d="M150.7,137.663h-3.227a.572.572,0,1,0,0,1.142H150.7a.572.572,0,1,0,0-1.142Z" transform="translate(-146.873 -137.663)" fill="#ffc107"/></g><g transform="translate(17.867 10.72)"><path d="M154.881,187.663h-7.41a.572.572,0,1,0,0,1.142h7.41a.572.572,0,1,0,0-1.142Z" transform="translate(-146.873 -187.663)" fill="#ffc107"/></g></g></svg>