<svg xmlns="http://www.w3.org/2000/svg" width="25" height="25" viewBox="0 0 25 25"><g transform="translate(0 -0.008)"><path d="M288.009,209.57h-9.9a.781.781,0,0,1,0-1.562h9.9a.781.781,0,0,1,0,1.563Zm0,0" transform="translate(-263.791 -197.844)" fill="#ffc107"/><path d="M400.785,137.347a.782.782,0,0,1-.552-1.334l3.354-3.354-3.354-3.354a.781.781,0,1,1,1.105-1.105l3.906,3.906a.781.781,0,0,1,0,1.105l-3.906,3.906A.776.776,0,0,1,400.785,137.347Zm0,0" transform="translate(-380.473 -121.714)" fill="#ffc107"/><path d="M8.333,25.008a2.147,2.147,0,0,1-.646-.1L1.418,22.823A2.1,2.1,0,0,1,0,20.841V2.091A2.085,2.085,0,0,1,2.083.008a2.148,2.148,0,0,1,.646.1L9,2.193a2.1,2.1,0,0,1,1.419,1.981v18.75a2.085,2.085,0,0,1-2.083,2.083ZM2.083,1.571a.522.522,0,0,0-.521.521v18.75a.541.541,0,0,0,.361.5l6.239,2.079a.566.566,0,0,0,.17.023.522.522,0,0,0,.521-.521V4.175a.541.541,0,0,0-.361-.5L2.253,1.593a.565.565,0,0,0-.17-.023Zm0,0" transform="translate(0 0)"/><path d="M41.251,8.341a.782.782,0,0,1-.781-.781V2.873a1.3,1.3,0,0,0-1.3-1.3H27.449a.781.781,0,0,1,0-1.562H39.168a2.867,2.867,0,0,1,2.864,2.865V7.56A.782.782,0,0,1,41.251,8.341Zm0,0" transform="translate(-25.366)"/><path d="M186.28,285.673h-4.167a.781.781,0,0,1,0-1.562h4.167a1.3,1.3,0,0,0,1.3-1.3v-4.687a.781.781,0,1,1,1.562,0v4.688A2.867,2.867,0,0,1,186.28,285.673Zm0,0" transform="translate(-172.479 -263.79)"/></g></svg>