<svg xmlns="http://www.w3.org/2000/svg" width="25" height="25" viewBox="0 0 25 25"><g transform="translate(-2.949)"><path d="M115.562,3.275A11.6,11.6,0,0,0,107.428,0a.9.9,0,0,0-.911.886.9.9,0,0,0,.911.886,9.757,9.757,0,0,1,6.845,2.756,9.218,9.218,0,0,1,2.835,6.654.912.912,0,0,0,1.823,0A10.954,10.954,0,0,0,115.562,3.275Z" transform="translate(-90.982)" fill="#ffc107"/><path d="M111.813,49.612a.912.912,0,0,0,1.823,0,6.13,6.13,0,0,0-6.207-6.034h0a.886.886,0,1,0,0,1.772A4.33,4.33,0,0,1,111.813,49.612Z" transform="translate(-90.982 -38.43)" fill="#ffc107"/><path d="M18.814,43.775a2.759,2.759,0,0,0-2.436,1.417.871.871,0,0,0,.238,1.232.928.928,0,0,0,1.267-.231c.4-.57.583-.66.829-.648a11.727,11.727,0,0,1,4.207,3,.893.893,0,0,1-.009.647A3.077,3.077,0,0,1,21.348,51.1a3,3,0,0,1-2.342-.077,25.841,25.841,0,0,1-8.45-5.348l0,0a24.981,24.981,0,0,1-5.491-8.2,2.772,2.772,0,0,1-.079-2.278,3.127,3.127,0,0,1,1.966-1.518.967.967,0,0,1,.664-.009A11.459,11.459,0,0,1,10.7,37.744c.013.249-.08.425-.666.814a.871.871,0,0,0-.238,1.231.928.928,0,0,0,1.267.232,2.668,2.668,0,0,0,1.458-2.371C12.437,36.235,9.6,32.486,8.251,32a2.83,2.83,0,0,0-1.883-.011,4.872,4.872,0,0,0-3.043,2.459,4.445,4.445,0,0,0,.048,3.685,26.74,26.74,0,0,0,5.893,8.791l.019.018a27.663,27.663,0,0,0,9.033,5.719,5.541,5.541,0,0,0,2.035.413,4.279,4.279,0,0,0,1.755-.366,4.806,4.806,0,0,0,2.53-2.959,2.609,2.609,0,0,0-.009-1.826C24.128,46.605,20.272,43.852,18.814,43.775Z" transform="translate(0 -28.075)"/></g></svg>