<svg xmlns="http://www.w3.org/2000/svg" width="22.971" height="20" viewBox="0 0 22.971 20"><path d="M1018.4,1033.159l5.293,1.976,2.049,6.588a.623.623,0,0,0,.989.3l2.95-2.405a.879.879,0,0,1,1.073-.03l5.322,3.864a.623.623,0,0,0,.977-.378l3.9-18.751a.624.624,0,0,0-.835-.709l-21.722,8.38a.624.624,0,0,0,.006,1.167Zm7.012.924,10.344-6.371a.18.18,0,0,1,.218.285l-8.538,7.936a1.771,1.771,0,0,0-.548,1.058l-.29,2.155a.268.268,0,0,1-.522.038l-1.118-3.93a1.04,1.04,0,0,1,.455-1.172Zm0,0" transform="translate(-1017.991 -1023.57)" fill="#ffc107"/></svg>