<svg xmlns="http://www.w3.org/2000/svg" width="20" height="20" viewBox="0 0 20 20"><path d="M929.685,1026.184a7.331,7.331,0,0,1-2.362.8,4.97,4.97,0,0,0,1.8-2.789,7.343,7.343,0,0,1-2.6,1.222,3.8,3.8,0,0,0-2.995-1.6c-2.27,0-4.1,2.268-4.1,5.048a6.33,6.33,0,0,0,.1,1.15,11.07,11.07,0,0,1-8.452-5.278,6,6,0,0,0-.561,2.551,5.441,5.441,0,0,0,1.821,4.194,3.482,3.482,0,0,1-1.852-.622v.056c0,2.452,1.421,4.489,3.285,4.958a3.361,3.361,0,0,1-1.075.167,2.95,2.95,0,0,1-.776-.086,4.355,4.355,0,0,0,3.831,3.516,7.326,7.326,0,0,1-5.084,2.152,6.257,6.257,0,0,1-.981-.069,10.043,10.043,0,0,0,6.29,2.264c7.545,0,11.67-7.692,11.67-14.36,0-.224-.007-.438-.015-.652A9.465,9.465,0,0,0,929.685,1026.184Z" transform="translate(-909.685 -1023.816)" fill="#ffc107"/></svg>