<svg xmlns="http://www.w3.org/2000/svg" width="20" height="20" viewBox="0 0 20 20"><g transform="translate(0.001 0)"><path d="M196.566,109.848l-4.418-3.192a.64.64,0,0,0-.8.018,1.163,1.163,0,0,0-.4.922v6.329a1.165,1.165,0,0,0,.4.92.669.669,0,0,0,.416.153.661.661,0,0,0,.385-.129l4.419-3.137a1.257,1.257,0,0,0,.005-1.884Zm-4.448,3.281V108.4l3.3,2.386Zm0,0" transform="translate(-183.488 -101.03)" fill="#ffc107"/><path d="M19.852,4.72V4.708a7.352,7.352,0,0,0-.882-3.065A2.956,2.956,0,0,0,16.814.309l-.1-.016-.035,0C14.036.035,10.043,0,10,0H10c-.04,0-4.033.035-6.7.289l-.035,0L3.166.309A2.908,2.908,0,0,0,1.023,1.684,7.7,7.7,0,0,0,.149,4.693l0,.027C.14,4.809,0,6.914,0,9.028V11c0,2.114.141,4.219.147,4.308v.013a7.272,7.272,0,0,0,.878,3.027,2.992,2.992,0,0,0,2.228,1.316c.081.012.151.023.2.034l.046.008c1.527.192,6.313.286,6.516.29h.012c.04,0,4.033-.035,6.677-.289l.035,0,.112-.017a2.83,2.83,0,0,0,2.124-1.342,7.7,7.7,0,0,0,.874-3.009l0-.027C19.858,15.223,20,13.117,20,11V9.028c0-2.114-.141-4.219-.147-4.308ZM18.827,11c0,1.956-.129,3.971-.142,4.156a6,6,0,0,1-.575,2.144,1.755,1.755,0,0,1-1.383.847l-.125.019c-2.557.244-6.4.282-6.577.283-.2,0-4.915-.1-6.4-.281-.076-.016-.158-.029-.244-.042a1.953,1.953,0,0,1-1.5-.827l-.011-.015a5.441,5.441,0,0,1-.564-2.122c-.009-.14-.142-2.178-.142-4.162V9.028c0-1.954.129-3.967.142-4.155a5.872,5.872,0,0,1,.575-2.144A1.848,1.848,0,0,1,3.3,1.846l.1-.015C5.99,1.585,9.86,1.549,10,1.547s4.007.038,6.579.283l.1.016a1.9,1.9,0,0,1,1.435.858l0,.007a5.539,5.539,0,0,1,.564,2.153c.009.132.142,2.175.142,4.163Zm0,0" transform="translate(0)" fill="#ffc107"/></g></svg>