<svg xmlns="http://www.w3.org/2000/svg" width="9.365" height="9.326" viewBox="0 0 9.365 9.326"><g transform="translate(0 -0.652)"><g transform="translate(0 0.652)"><path d="M9.137,5.967a.329.329,0,0,0-.275.06A3.513,3.513,0,0,1,7.8,6.649a3.338,3.338,0,0,1-1.21.216A3.516,3.516,0,0,1,3.066,3.344a3.691,3.691,0,0,1,.192-1.162,3.216,3.216,0,0,1,.575-1.03A.306.306,0,0,0,3.784.721a.329.329,0,0,0-.275-.06A4.832,4.832,0,0,0,.97,2.362,4.742,4.742,0,1,0,9.353,6.338.291.291,0,0,0,9.137,5.967Z" transform="translate(0 -0.652)"/></g></g></svg>