<svg xmlns="http://www.w3.org/2000/svg" width="13" height="13" viewBox="0 0 13 13"><path d="M115.656,119.313a3.656,3.656,0,1,1,3.656-3.656A3.66,3.66,0,0,1,115.656,119.313Zm0-6.5a2.844,2.844,0,1,0,2.844,2.844A2.847,2.847,0,0,0,115.656,112.813Z" transform="translate(-109.156 -109.156)" fill="#fff"/><path d="M240.406,2.031A.406.406,0,0,1,240,1.625V.406a.406.406,0,0,1,.813,0V1.625A.406.406,0,0,1,240.406,2.031Z" transform="translate(-233.906)" fill="#fff"/><path d="M240.406,434.031a.406.406,0,0,1-.406-.406v-1.219a.406.406,0,0,1,.813,0v1.219A.406.406,0,0,1,240.406,434.031Z" transform="translate(-233.906 -421.031)" fill="#fff"/><path d="M433.625,240.813h-1.219a.406.406,0,0,1,0-.812h1.219a.406.406,0,0,1,0,.813Z" transform="translate(-421.031 -233.906)" fill="#fff"/><path d="M1.625,240.813H.406a.406.406,0,0,1,0-.812H1.625a.406.406,0,0,1,0,.813Z" transform="translate(0 -233.906)" fill="#fff"/><path d="M376.154,71.968a.407.407,0,0,1-.287-.694l.862-.862a.406.406,0,0,1,.575.575l-.862.862A.4.4,0,0,1,376.154,71.968Z" transform="translate(-366.207 -68.509)" fill="#fff"/><path d="M70.683,377.439a.407.407,0,0,1-.287-.694l.862-.862a.406.406,0,0,1,.575.575l-.862.862A.405.405,0,0,1,70.683,377.439Z" transform="translate(-68.492 -366.224)" fill="#fff"/><path d="M377.033,377.44a.405.405,0,0,1-.287-.119l-.862-.862a.406.406,0,0,1,.574-.575l.862.862A.407.407,0,0,1,377.033,377.44Z" transform="translate(-366.224 -366.224)" fill="#fff"/><path d="M71.561,71.969a.4.4,0,0,1-.287-.119l-.862-.862a.406.406,0,0,1,.575-.575l.862.862A.407.407,0,0,1,71.561,71.969Z" transform="translate(-68.508 -68.509)" fill="#fff"/></svg>