<?xml version="1.0" standalone="no"?>
<!DOCTYPE svg PUBLIC "-//W3C//DTD SVG 20010904//EN"
 "http://www.w3.org/TR/2001/REC-SVG-20010904/DTD/svg10.dtd">
<svg version="1.0" xmlns="http://www.w3.org/2000/svg"
 width="1216.000000pt" height="1216.000000pt" viewBox="0 0 1216.000000 1216.000000"
 preserveAspectRatio="xMidYMid meet">
<metadata>
Created by potrace 1.11, written by Peter Selinger 2001-2013
</metadata>
<g transform="translate(0.000000,1216.000000) scale(0.100000,-0.100000)"
fill="#000000" stroke="none">
<path d="M2299 10076 c-5 -5 -55 -13 -131 -22 -29 -4 -57 -9 -62 -12 -5 -3
-19 -6 -30 -8 -66 -9 -221 -53 -337 -95 -63 -23 -129 -46 -146 -53 -18 -6 -33
-14 -33 -18 0 -5 -6 -8 -14 -8 -15 0 -164 -74 -231 -115 -22 -13 -54 -32 -72
-41 -18 -8 -37 -22 -44 -30 -6 -8 -15 -14 -20 -14 -8 0 -85 -52 -129 -87 -147
-116 -178 -143 -279 -243 -189 -186 -361 -422 -480 -657 -45 -88 -93 -190 -96
-203 -1 -3 -6 -16 -12 -31 -21 -50 -82 -235 -87 -264 -3 -16 -10 -41 -15 -55
-5 -14 -14 -52 -21 -85 -6 -33 -14 -71 -17 -85 -9 -41 -17 -99 -30 -215 -10
-91 -10 -1045 0 -1110 4 -27 10 -68 13 -90 3 -22 8 -53 11 -70 3 -16 6 -37 8
-45 5 -39 27 -138 35 -160 5 -14 12 -37 14 -52 6 -36 82 -261 106 -313 53
-117 123 -257 155 -309 19 -32 35 -62 35 -67 0 -5 5 -9 10 -9 6 0 10 -5 10
-10 0 -9 36 -66 50 -80 3 -3 14 -18 24 -35 43 -67 177 -226 271 -320 133 -133
173 -169 280 -248 50 -37 95 -71 101 -76 43 -35 244 -150 342 -197 64 -30 125
-60 134 -65 10 -5 25 -9 33 -9 8 0 15 -4 15 -10 0 -5 3 -9 8 -9 4 1 9 0 12 -1
3 -1 12 -3 20 -5 8 -2 47 -15 85 -29 39 -14 78 -26 88 -26 9 0 17 -5 17 -11 0
-5 4 -8 8 -5 4 2 48 -6 97 -19 50 -13 106 -26 125 -29 19 -3 46 -8 60 -10 14
-2 47 -7 73 -11 27 -4 59 -8 70 -11 80 -15 729 -25 760 -11 9 4 17 4 17 0 0
-10 933 -9 948 1 7 4 12 4 12 -1 0 -4 74 -7 165 -7 117 1 165 -1 166 -10 1 -6
3 -414 4 -906 1 -492 5 -915 9 -939 11 -66 63 -164 115 -217 61 -62 167 -113
252 -120 215 -21 409 127 449 341 12 65 9 5259 -3 5325 -4 19 -9 53 -11 75 -5
39 -10 69 -23 130 -3 17 -7 39 -8 50 -6 46 -72 283 -94 340 -5 11 -19 47 -31
80 -29 76 -110 255 -124 275 -6 8 -22 37 -36 65 -14 27 -33 58 -42 69 -10 11
-18 24 -18 29 0 8 -132 199 -155 223 -5 7 -26 31 -45 55 -58 73 -218 240 -277
289 -106 89 -190 155 -248 195 -90 63 -265 166 -265 157 0 -4 -4 -2 -8 5 -4 6
-43 28 -87 48 -44 20 -89 40 -100 45 -50 23 -108 44 -205 76 -146 48 -162 52
-190 58 -14 3 -47 11 -75 17 -27 6 -63 13 -80 15 -16 3 -41 8 -55 10 -14 3
-41 8 -60 11 -40 7 -675 15 -681 9z m311 -837 c0 -4 16 -3 34 1 19 4 36 6 38
5 2 -2 35 -6 73 -10 39 -3 97 -10 130 -16 33 -6 69 -12 80 -14 94 -16 273 -72
337 -106 10 -5 24 -9 32 -9 7 0 19 -7 26 -15 7 -9 15 -13 18 -11 7 7 260 -140
282 -164 3 -3 37 -31 75 -62 212 -171 369 -371 492 -628 22 -47 46 -103 53
-125 7 -22 17 -46 23 -52 5 -7 7 -13 3 -13 -3 0 1 -17 9 -37 13 -36 39 -138
50 -203 11 -65 15 -87 21 -130 4 -25 7 -604 8 -1287 1 -1110 0 -1243 -14
-1244 -8 0 -420 -1 -915 -1 -801 0 -1010 3 -1080 16 -11 2 -45 7 -75 11 -30 4
-65 11 -78 16 -13 5 -36 11 -51 14 -159 28 -465 172 -621 292 -146 113 -258
224 -358 356 -76 100 -152 218 -152 238 0 5 -4 9 -9 9 -5 0 -12 10 -16 23 -10
30 -7 23 -43 101 -18 38 -32 75 -32 82 0 7 -4 16 -10 19 -5 3 -10 17 -10 30 0
13 -5 27 -10 30 -6 4 -8 11 -5 16 4 5 1 9 -5 9 -6 0 -9 4 -6 9 4 5 2 21 -4 35
-11 31 -21 73 -23 99 -1 9 -5 17 -10 17 -4 0 -6 3 -3 8 2 4 0 28 -4 53 -20
107 -23 174 -23 574 -1 460 0 472 49 715 14 67 80 244 128 344 172 356 458
644 812 820 82 41 235 103 274 111 8 2 44 11 80 20 36 10 75 19 87 20 11 2 29
5 40 8 32 10 126 20 190 21 35 1 63 3 63 6 0 3 11 5 25 5 14 0 25 -3 25 -6z"/>
<path d="M6067 10068 c-70 -15 -151 -61 -207 -117 -45 -45 -89 -110 -95 -141
-1 -3 -7 -25 -15 -50 -10 -37 -13 -512 -13 -2560 0 -1383 3 -2539 7 -2569 6
-55 60 -181 77 -181 5 0 9 -5 9 -12 0 -20 83 -86 145 -117 51 -25 118 -42 175
-45 8 -1 43 5 78 11 87 18 162 57 228 120 17 17 74 106 74 116 0 4 8 22 17 40
17 30 18 164 20 2592 2 1749 0 2573 -8 2600 -35 137 -136 248 -270 299 -51 19
-164 27 -222 14z"/>
<path d="M7935 10069 c-22 -4 -43 -5 -47 -2 -5 2 -8 -1 -8 -7 0 -6 -4 -9 -9
-5 -34 20 -378 -112 -431 -165 -3 -3 -23 -17 -45 -32 -22 -15 -58 -43 -79 -63
-22 -19 -44 -35 -49 -35 -6 0 -8 -2 -5 -5 3 -3 -12 -24 -34 -47 -21 -22 -51
-57 -66 -77 -15 -20 -29 -38 -32 -41 -20 -17 -128 -222 -134 -252 -1 -7 -11
-38 -20 -68 -34 -103 -53 -239 -50 -358 4 -145 9 -179 47 -307 12 -38 22 -72
22 -75 0 -3 13 -31 28 -64 15 -32 27 -62 27 -67 0 -5 3 -9 8 -9 4 0 13 -14 21
-31 17 -39 117 -172 170 -226 40 -41 157 -136 196 -160 106 -64 239 -126 294
-138 9 -2 45 -11 81 -19 102 -25 202 -28 1290 -31 564 -1 1045 -5 1070 -9 128
-19 307 -70 358 -102 12 -8 22 -12 22 -9 0 2 15 -4 33 -15 17 -11 42 -24 55
-30 32 -14 137 -85 197 -134 53 -43 205 -196 205 -208 0 -4 6 -13 13 -20 28
-28 95 -137 132 -213 21 -44 42 -88 47 -98 10 -20 51 -146 53 -162 0 -5 5 -28
9 -50 15 -69 16 -79 23 -135 12 -101 6 -301 -11 -380 -3 -14 -9 -41 -13 -60
-9 -46 -10 -50 -13 -52 -1 -2 -3 -10 -5 -18 -13 -64 -86 -233 -139 -323 -47
-81 -140 -196 -220 -273 -82 -78 -134 -124 -141 -124 -2 0 -31 -18 -65 -41
-93 -62 -271 -141 -366 -164 -97 -23 -164 -36 -212 -39 -31 -3 -57 -6 -57 -6
0 -1 -603 -2 -1340 -3 -848 -1 -1346 -6 -1355 -12 -8 -5 -19 -10 -25 -11 -33
-5 -113 -53 -154 -93 -90 -87 -134 -198 -127 -321 4 -85 12 -114 44 -175 73
-139 224 -227 385 -226 79 1 110 0 147 -3 14 -1 37 2 52 6 15 3 30 3 32 -1 6
-9 68 -7 84 3 7 4 12 3 12 -3 0 -6 11 -6 30 -1 16 5 32 5 34 1 3 -4 22 -6 43
-4 47 4 31 4 205 2 80 -1 151 2 156 5 6 3 13 3 16 -2 5 -8 79 -7 103 2 7 3 13
2 13 -2 0 -8 222 -7 244 1 8 3 18 3 20 -2 6 -9 68 -7 84 3 7 4 12 3 12 -3 0
-6 11 -6 30 -1 16 5 32 5 34 1 3 -4 22 -6 43 -4 47 4 31 4 205 2 80 -1 151 2
156 5 6 3 13 3 16 -2 5 -8 79 -7 103 2 7 3 13 2 13 -2 0 -8 222 -7 244 1 8 3
18 3 20 -2 6 -9 68 -7 84 3 7 4 12 3 12 -3 0 -6 11 -6 30 -1 16 5 32 5 34 1 3
-4 22 -6 43 -4 21 2 52 3 68 2 40 -1 34 -2 175 5 69 3 134 8 145 10 11 2 40 7
65 10 25 3 56 8 70 11 22 5 43 9 100 19 50 9 256 76 317 102 29 13 53 21 53
17 0 -3 9 2 21 13 12 10 23 18 25 16 6 -4 112 48 182 90 34 21 67 38 72 38 6
0 13 7 16 15 4 8 10 15 15 15 9 0 128 82 175 122 315 261 536 573 679 953 33
87 97 334 90 345 -3 5 -2 11 3 14 14 8 17 75 17 381 0 266 -5 363 -20 415 -2
8 -6 26 -9 40 -35 174 -117 400 -204 560 -20 36 -41 75 -46 87 -6 13 -14 23
-18 23 -5 0 -8 4 -8 10 0 22 -154 232 -234 319 -100 107 -268 261 -286 261 -5
0 -15 8 -22 18 -7 9 -21 22 -29 27 -9 6 -43 28 -75 49 -98 65 -221 132 -319
176 -84 37 -204 83 -230 89 -41 9 -61 15 -70 19 -5 4 -16 7 -25 8 -8 2 -44 9
-80 18 -84 19 -124 26 -185 32 -27 3 -69 9 -93 14 -24 4 -519 8 -1100 9 -581
0 -1068 2 -1082 4 -46 7 -115 43 -154 83 -149 148 -108 399 79 491 39 19 70
25 138 28 48 2 92 7 97 10 6 3 10 2 10 -2 0 -10 53 -9 69 2 6 3 11 3 11 -2 0
-9 122 -8 145 1 8 3 15 2 15 -2 0 -9 54 -7 69 3 6 3 11 3 11 -2 0 -9 562 -8
585 1 8 3 15 2 15 -3 0 -8 84 -6 107 3 7 3 13 2 13 -2 0 -9 42 -8 57 1 7 4 14
4 17 -1 6 -9 59 -8 75 3 6 3 11 3 11 -2 0 -9 122 -8 145 1 8 3 15 2 15 -2 0
-8 382 -7 404 1 9 4 17 3 20 -2 5 -8 99 -6 122 3 8 3 14 2 14 -2 0 -9 54 -7
69 3 6 3 11 3 11 -2 0 -9 122 -8 145 1 8 3 15 2 15 -2 0 -9 54 -7 69 3 6 3 11
3 11 -2 0 -8 533 -7 622 1 93 8 194 57 258 125 61 64 110 181 114 269 8 189
-100 342 -299 424 -23 9 -382 12 -1590 13 -858 1 -1578 -2 -1600 -6z"/>
<path d="M7532 7479 c-16 -3 -47 -16 -69 -29 -154 -86 -141 -319 20 -390 49
-22 137 -33 137 -18 0 5 5 6 12 2 17 -11 228 -11 228 -1 0 5 5 5 12 1 17 -11
228 -11 228 -1 0 5 5 5 12 1 17 -11 228 -11 228 -1 0 5 5 5 12 1 17 -11 228
-11 228 -1 0 5 5 5 12 1 17 -11 228 -11 228 -1 0 5 5 5 12 1 17 -11 228 -11
228 -1 0 5 5 5 12 1 17 -11 228 -11 228 -1 0 5 5 5 12 1 17 -11 228 -11 228
-1 0 5 5 5 12 1 17 -11 228 -11 228 -1 0 5 5 5 12 1 17 -11 228 -11 228 0 0 5
6 4 13 -1 6 -5 84 -8 172 -8 145 2 164 4 204 24 42 22 88 66 89 85 0 5 5 12
11 15 6 4 12 16 14 26 1 11 5 25 8 30 12 20 0 104 -19 141 -20 38 -92 116 -92
100 0 -5 -6 -4 -12 2 -7 5 -29 13 -48 18 -40 9 -2784 12 -2828 3z"/>
<path d="M7535 6675 c-78 -16 -128 -54 -160 -122 -52 -109 -1 -247 110 -299
39 -18 97 -18 1680 -18 902 1 1649 3 1660 5 11 3 26 8 33 12 6 5 12 5 12 2 0
-13 81 71 96 99 70 139 -27 314 -181 325 -22 2 -751 4 -1619 5 -1059 1 -1596
-2 -1631 -9z"/>
<path d="M7485 5876 c-82 -38 -123 -97 -129 -185 -7 -100 59 -201 148 -228 25
-8 470 -11 1448 -11 1398 0 1413 0 1453 20 143 73 173 256 58 365 -71 66 17
63 -1528 63 l-1400 0 -50 -24z"/>
<path d="M6050 4041 c-30 -9 -75 -27 -99 -40 -49 -26 -151 -125 -151 -147 0
-8 -4 -14 -8 -14 -9 0 -43 -95 -48 -136 -30 -220 110 -425 323 -475 46 -11
127 -13 169 -5 41 8 130 49 167 76 74 54 149 165 161 236 2 16 5 29 6 29 6 0
5 109 -3 149 -19 109 -100 228 -191 281 -100 58 -224 75 -326 46z"/>
<path d="M6035 2900 c-92 -32 -169 -89 -230 -171 -20 -26 -54 -116 -58 -151
-2 -19 -6 -39 -9 -44 -7 -12 9 -129 24 -174 42 -123 160 -231 290 -266 48 -12
161 -13 215 0 123 28 251 152 289 282 20 68 22 188 4 236 -51 137 -117 213
-229 266 -64 29 -86 34 -160 37 -61 2 -100 -3 -136 -15z"/>
</g>
</svg>
