<svg xmlns="http://www.w3.org/2000/svg"  viewBox="0 0 250 250"><g transform="translate(-18.884 -50.039)"><g transform="translate(18.884 155.522)"><path d="M54.73,343c47.8,28.222,125.293,28.222,173.085,0s47.8-74.006,0-102.2-125.287-28.222-173.085,0S6.938,314.789,54.73,343Z" transform="translate(-18.884 -219.654)" fill="#f5f5f5"/></g><g transform="translate(59.705 208.822)"><path d="M374.446,330.652c2.622,1.748,7.771,1.144,11.5-1.343l21.5-14.422c3.732-2.488,4.626-5.92,2-7.674s-7.765-1.132-11.5,1.356L376.46,323C372.728,325.472,371.829,328.9,374.446,330.652Z" transform="translate(-223.106 -305.683)" fill="#ebebeb"/><path d="M116.564,349.167,94.69,334.583,116.564,320Z" transform="translate(-94.69 -310.895)" fill="#ebebeb"/><path d="M219.906,352.357l-35.256-23.52,35.261-23.477Z" transform="translate(-136.207 -305.36)" fill="#ebebeb"/></g><g transform="translate(19.992 159.327)"><g transform="translate(0 16.013)"><path d="M52.938,289.176c.065-5.908-3.511-18.2-8.74-25.946s-13.532-13.47-19.456-11.213c-5.547,2.108-5.035,10.479,1.615,16.12S43,280.88,45.846,290.526L51.9,302.342Z" transform="translate(-20.942 -251.521)" fill="#ffc107"/><path d="M52.938,289.176c.065-5.908-3.511-18.2-8.74-25.946s-13.532-13.47-19.456-11.213c-5.547,2.108-5.035,10.479,1.615,16.12S43,280.88,45.846,290.526L51.9,302.342Z" transform="translate(-20.942 -251.521)" opacity="0.1"/><path d="M58.451,299.692a.4.4,0,0,1-.334-.354c-3.231-20.218-17.178-36.81-25.595-40.548a.416.416,0,0,1-.271-.338.471.471,0,0,1,.143-.43.336.336,0,0,1,.4-.041c8.578,3.812,22.795,20.678,26.058,41.2a.484.484,0,0,1-.057.323.372.372,0,0,1-.239.181Z" transform="translate(-26.158 -253.946)" fill="#fff"/><path d="M53.134,325.637c-.786-3.333-4.243-8.862-9.876-13.47-6.236-5.093-14.163-7.506-15.956-11.43-2.154-4.714,1.309-9.092,7.754-8.085s17.69,11.356,19.348,26.692Z" transform="translate(-23.582 -267.017)" fill="#ffc107"/><path d="M58.972,324.642a.39.39,0,0,1-.323-.286c-5.175-17.357-16.527-23.582-21.8-24.447a.424.424,0,0,1-.318-.485.386.386,0,0,1,.42-.367c5.837.958,17.13,7.3,22.412,25.013a.462.462,0,0,1-.232.553.348.348,0,0,1-.156.019Z" transform="translate(-28.133 -269.493)" fill="#fff"/></g><g transform="translate(218.808)"><path d="M431.533,262.606s.716-12.438,7.071-21.7,5.967-13.06,1.583-14.926-14.539,9.3-12.3,24.192S431.533,262.606,431.533,262.606Z" transform="translate(-427.408 -225.772)" fill="#ffc107"/><path d="M431.533,262.606s.716-12.438,7.071-21.7,5.967-13.06,1.583-14.926-14.539,9.3-12.3,24.192S431.533,262.606,431.533,262.606Z" transform="translate(-427.408 -225.772)" opacity="0.1"/><path d="M431.064,256.649a.271.271,0,0,1-.253-.267c-.738-13.719,7.647-24.975,10.77-27.525a.218.218,0,0,1,.185-.051.242.242,0,0,1,.16.119.322.322,0,0,1-.059.4c-3.08,2.488-11.308,13.539-10.576,27.015a.281.281,0,0,1-.232.3Z" transform="translate(-428.884 -226.918)" fill="#fff"/><path d="M429.667,285.092a50.512,50.512,0,0,0,8.767,2.438c4.922.9,7.1-1.822,7.1-1.822s-1.939-5.33-4.733-6.841a25.609,25.609,0,0,1,8.541,4.049s3,.056,4.2-5.243c0,0-1.777-3.19-7.754-4.913a17.123,17.123,0,0,1,8.874.485c.393.18,2.068-6.667,2.574-9.826s-.592-3.109-2.725-3.787-9.2-2.488-10.538-1.138-2.014,5.989-2.014,5.989a12.561,12.561,0,0,1-.2-5.871,7.141,7.141,0,0,0-4.9.137c-2.434.815-2.552,2.73-2.445,4.894a23.857,23.857,0,0,0,1.077,5.5s-1.9-2.811-1.96-8.912a12.879,12.879,0,0,0-5.837,8.582C427.2,271.914,426.538,281.013,429.667,285.092Z" transform="translate(-427.271 -237.96)" fill="#ffc107"/><path d="M433.224,286.033a.284.284,0,0,0,.253-.18c3.969-9.534,18.74-20.61,24.028-21.8a.275.275,0,0,0,.178-.133.357.357,0,0,0,.043-.24.29.29,0,0,0-.328-.255c-5.385,1.213-20.388,12.438-24.421,22.146a.347.347,0,0,0,.129.429A.283.283,0,0,0,433.224,286.033Z" transform="translate(-429.892 -240.008)" fill="#fff"/></g></g><g transform="translate(48.768 50.039)"><path d="M75.945,243.346c-.609,0-.975-.578-.975-1.555V137.182L185.917,63.22V167.406a5.78,5.78,0,0,1-2.154,4.353L76.828,243.029A1.629,1.629,0,0,1,75.945,243.346Z" transform="translate(-74.652 -55.023)" fill="#fafafa"/><path d="M185.311,63.462V167.021a5.462,5.462,0,0,1-2.019,4.036L76.4,242.326a1.36,1.36,0,0,1-.727.274c-.6,0-.662-.84-.662-1.194v-104.4l110.3-73.546m.63-1.244L74.38,136.585V241.406c0,1.244.539,1.922,1.292,1.922a1.914,1.914,0,0,0,1.039-.367l106.9-71.276a6.191,6.191,0,0,0,2.332-4.664V62.2Z" transform="translate(-74.38 -54.637)" fill="#e0e0e0"/><path d="M74.39,136.585v17.506L185.946,79.706V62.2Z" transform="translate(-74.385 -54.637)" fill="#ffc107"/><path d="M90.63,168.556v2.488c0,.51.318.721.7.466l34.3-22.867V144.29l-34.3,22.867a1.881,1.881,0,0,0-.7,1.4Z" transform="translate(-81.879 -85.676)" fill="#fafafa"/><path d="M159.3,140.282c.388-.261.7-.05.7.466v2.488a1.868,1.868,0,0,1-.7,1.4l-3.678,2.45v-4.353Z" transform="translate(-111.872 -84.118)" fill="#455a64"/><path d="M74.38,126.346a6.192,6.192,0,0,1,2.332-4.664l106.9-71.276c1.287-.858,2.332-.162,2.332,1.555V57.6L74.38,131.987Z" transform="translate(-74.38 -50.039)" fill="#455a64"/><path d="M257.6,66.034a2.894,2.894,0,0,0-1.077,2.183c0,.808.49,1.132,1.077.734a2.909,2.909,0,0,0,1.077-2.189C258.7,65.946,258.206,65.629,257.6,66.034Z" transform="translate(-158.438 -56.02)" fill="#ffc107"/><path d="M264.077,62.314A2.894,2.894,0,0,0,263,64.5c0,.808.49,1.132,1.077.734a2.922,2.922,0,0,0,1.077-2.189C265.154,62.233,264.659,61.91,264.077,62.314Z" transform="translate(-161.428 -54.615)" fill="#ffc107"/><path d="M270.467,58.594a2.894,2.894,0,0,0-1.077,2.183c0,.808.49,1.132,1.077.734a2.922,2.922,0,0,0,1.077-2.189C271.56,58.513,271.07,58.19,270.467,58.594Z" transform="translate(-164.377 -53.208)" fill="#ffc107"/><g transform="translate(63.236 21.488)" opacity="0.1"><path d="M214.506,108.442a6.35,6.35,0,0,0-2.386,4.789c0,1.76,1.077,2.488,2.386,1.592a6.333,6.333,0,0,0,2.391-4.782C216.9,108.281,215.825,107.565,214.506,108.442Z" transform="translate(-201.183 -93.468)"/><path d="M194.2,120.173a6.333,6.333,0,0,0-2.391,4.782c0,1.76,1.077,2.488,2.391,1.6a6.35,6.35,0,0,0,2.386-4.789C196.586,120.005,195.52,119.3,194.2,120.173Z" transform="translate(-191.81 -97.904)"/><path d="M234.816,96.758a6.335,6.335,0,0,0-2.386,4.782c0,1.76,1.077,2.488,2.386,1.592a6.327,6.327,0,0,0,2.391-4.782C237.206,96.559,236.14,95.844,234.816,96.758Z" transform="translate(-210.556 -89.041)"/><path d="M255.131,84.97a6.333,6.333,0,0,0-2.391,4.782c0,1.76,1.077,2.488,2.391,1.592a6.333,6.333,0,0,0,2.391-4.782C257.522,84.8,256.45,84.087,255.131,84.97Z" transform="translate(-219.929 -84.591)"/></g><path d="M93,201.4l25.961-17.314c1.287-.858,2.332-.162,2.332,1.555v28.788a6.191,6.191,0,0,1-2.332,4.664L93,236.4c-1.287.858-2.332.162-2.332-1.555V206.064A6.191,6.191,0,0,1,93,201.4Z" transform="translate(-81.898 -100.584)" fill="#e0e0e0"/><path d="M162,150.018l54.388-36.244c1.287-.864,2.332-.168,2.332,1.555V144.11a6.192,6.192,0,0,1-2.332,4.664L162,185.019c-1.287.858-2.332.162-2.332-1.555V154.683A6.192,6.192,0,0,1,162,150.018Z" transform="translate(-113.741 -73.997)" fill="#e0e0e0"/><path d="M93,265.532l41.271-27.519c1.292-.858,2.337-.249,2.337,1.362a5.967,5.967,0,0,1-2.332,4.471L93,271.366c-1.287.858-2.332.249-2.332-1.362A5.968,5.968,0,0,1,93,265.532Z" transform="translate(-81.898 -120.966)" fill="#e0e0e0"/><path d="M93,281.953l41.271-27.519c1.292-.858,2.337-.249,2.337,1.362a5.967,5.967,0,0,1-2.332,4.471L93,287.786c-1.287.858-2.332.249-2.332-1.362A5.967,5.967,0,0,1,93,281.953Z" transform="translate(-81.898 -127.174)" fill="#e0e0e0"/><path d="M93,298.362l41.271-27.519c1.292-.858,2.337-.249,2.337,1.362a5.967,5.967,0,0,1-2.332,4.471L93,304.2c-1.287.858-2.332.249-2.332-1.362A5.967,5.967,0,0,1,93,298.362Z" transform="translate(-81.898 -133.379)" fill="#e0e0e0"/></g><g transform="translate(79.393 129.504)"><path d="M131.25,228.721a3.729,3.729,0,0,1,1.4-2.8L204.222,178.2a2.725,2.725,0,0,1,2.8,0l1.578,1.051a3.711,3.711,0,0,1,1.395,2.8v63.359a3.724,3.724,0,0,1-1.395,2.8L137.039,295.93a2.725,2.725,0,0,1-2.8,0l-1.578-1.051a3.722,3.722,0,0,1-1.4-2.8Z" transform="translate(-131.25 -177.817)" fill="#ffc107"/><path d="M132,227.129l3.974,2.649,73.952-49.316a3.256,3.256,0,0,0-.985-1.213L207.39,178.2a2.706,2.706,0,0,0-2.789,0L133,225.923A3.192,3.192,0,0,0,132,227.129Z" transform="translate(-131.596 -177.817)" fill="#fff" opacity="0.4"/><path d="M131.25,258.7v63.359a3.722,3.722,0,0,0,1.4,2.8l1.578,1.051a1.938,1.938,0,0,0,.382.2,2.765,2.765,0,0,0,.576.156,2.993,2.993,0,0,0,1.1-.05,1.825,1.825,0,0,0,.275-.081l.167-.075a.747.747,0,0,1-.673,0,1.192,1.192,0,0,1-.425-1.063V261.625a1.461,1.461,0,0,1,.727-1.381l-.727-.485-3.98-2.649A3.7,3.7,0,0,0,131.25,258.7Z" transform="translate(-131.25 -207.798)" opacity="0.1"/><path d="M139.384,231.281l33.145,14.3a5.024,5.024,0,0,0,6.392-2.432l5.32-9.416L213.6,181.79l-28.3,52.3,28.444,12.855a3.715,3.715,0,0,1-.436,1.611l-28.083-14.3-6.2,11.412a5.016,5.016,0,0,1-6.742,2.388l-4.4-2.245L139.81,297.593a1.192,1.192,0,0,1-.425-1.063v-1.051l28.368-49.708Z" transform="translate(-135.001 -179.319)" opacity="0.2"/></g><g transform="translate(142.828 65.966)"><path d="M249.05,118.411V263.873c0,1.716,1.045,2.413,2.332,1.555l56.586-37.73a6.191,6.191,0,0,0,2.332-4.664V77.571c0-1.716-1.045-2.413-2.332-1.555l-56.586,37.73a6.178,6.178,0,0,0-2.332,4.664Z" transform="translate(-249.05 -75.649)" fill="#fafafa" stroke="#e0e0e0" stroke-miterlimit="10" stroke-width="1.17"/><path d="M255.14,145.4a1.528,1.528,0,0,1,.608-1.132l6.462-4.3c.334-.224.6-.075.6.33a1.524,1.524,0,0,1-.6,1.132l-6.462,4.3C255.415,145.949,255.14,145.8,255.14,145.4Z" transform="translate(-251.861 -99.928)" fill="#455a64"/><path d="M255.14,150.056a1.522,1.522,0,0,1,.608-1.132l6.462-4.3c.334-.224.6-.075.6.323a1.525,1.525,0,0,1-.6,1.138l-6.462,4.291C255.415,150.6,255.14,150.46,255.14,150.056Z" transform="translate(-251.861 -101.69)" fill="#455a64"/><path d="M255.14,154.715a1.522,1.522,0,0,1,.608-1.132l6.462-4.3c.334-.224.6-.081.6.323a1.511,1.511,0,0,1-.6,1.132l-6.462,4.3C255.415,155.287,255.14,155.119,255.14,154.715Z" transform="translate(-251.861 -103.451)" fill="#455a64"/><path d="M348.891,96.076V94.913a.085.085,0,0,0-.033-.071.062.062,0,0,0-.07,0l-.775.4a.081.081,0,0,1-.079,0,.1.1,0,0,1-.05-.07,2.065,2.065,0,0,0-.172-.442.277.277,0,0,1,0-.218l.539-1.206a.141.141,0,0,0-.048-.174l-.539-.373a.109.109,0,0,0-.151.044l-.646,1.119a.191.191,0,0,1-.167.093,1.67,1.67,0,0,0-.42.05.081.081,0,0,1-.079-.014.11.11,0,0,1-.04-.08L346.074,93c0-.068-.054-.1-.1-.062l-.872.578a.275.275,0,0,0-.1.187l-.086,1.119a.431.431,0,0,1-.092.211,5.41,5.41,0,0,0-.485.622.148.148,0,0,1-.172.056l-.539-.224a.127.127,0,0,0-.156.068l-.641,1.281a.181.181,0,0,0,.027.187l.452.448a.221.221,0,0,1,.043.2,7,7,0,0,0-.2.784.4.4,0,0,1-.108.193l-.8.622a.288.288,0,0,0-.092.2v1.157a.08.08,0,0,0,.029.078.058.058,0,0,0,.074,0l.775-.4a.085.085,0,0,1,.079,0,.11.11,0,0,1,.05.071,2.066,2.066,0,0,0,.172.442.276.276,0,0,1,0,.218l-.539,1.2a.155.155,0,0,0,.048.18l.539.373a.109.109,0,0,0,.151-.044l.646-1.119a.191.191,0,0,1,.167-.093,1.67,1.67,0,0,0,.42-.05.081.081,0,0,1,.079.014.11.11,0,0,1,.04.08l.086.976c0,.068.048.1.1.062l.872-.578a.3.3,0,0,0,.1-.193l.086-1.119a.389.389,0,0,1,.092-.205,5.4,5.4,0,0,0,.485-.622.148.148,0,0,1,.172-.056l.539.224a.127.127,0,0,0,.156-.068l.641-1.281a.18.18,0,0,0-.032-.193l-.447-.442a.221.221,0,0,1-.043-.2,7,7,0,0,0,.2-.784A.344.344,0,0,1,348,96.9l.8-.622A.3.3,0,0,0,348.891,96.076Zm-3.409,3.669c-.813.547-1.47.106-1.47-.976a3.878,3.878,0,0,1,1.47-2.948c.813-.541,1.47-.1,1.47.983A3.877,3.877,0,0,1,345.482,99.745Z" transform="translate(-292.014 -82.114)" fill="#37474f"/><path d="M295.661,143.052c6.613-4.409,11.971-.833,11.971,7.985s-5.358,19.534-11.971,23.943-11.971.833-11.971-7.979S289.048,147.461,295.661,143.052Z" transform="translate(-265.036 -100.42)" fill="#455a64"/><path d="M302.438,154.987c2.154-1.43,3.883-.274,3.883,2.587a10.3,10.3,0,0,1-3.883,7.761c-2.154,1.43-3.888.274-3.888-2.587a10.292,10.292,0,0,1,3.888-7.761Z" transform="translate(-271.894 -105.415)" fill="#ffc107"/><path d="M307.147,176.682c0-4.7-2.859-6.6-6.381-4.254l-2.235,1.468c-3.522,2.351-6.381,8.085-6.381,12.768v1.287a5.875,5.875,0,0,0,2.057.367,9.83,9.83,0,0,0,5.337-1.866,25.67,25.67,0,0,0,7.6-8.675Z" transform="translate(-268.941 -111.861)" fill="#ffc107"/><path d="M284.863,207.751l21.615-14.409c.641-.429,1.163-.124,1.163.684a2.988,2.988,0,0,1-1.163,2.233l-21.61,14.409c-.646.435-1.169.124-1.169-.678A2.982,2.982,0,0,1,284.863,207.751Z" transform="translate(-265.041 -120.076)" fill="#ffc107"/><path d="M280.549,222.426,306.8,204.882c.646-.429,1.169-.124,1.169.684A2.979,2.979,0,0,1,306.8,207.8l-26.246,17.544c-.646.429-1.169.124-1.169-.684A2.979,2.979,0,0,1,280.549,222.426Z" transform="translate(-263.047 -124.439)" fill="#455a64"/><path d="M330.99,224.679l7.351-4.9c.388-.255.7-.137.7.267a1.646,1.646,0,0,1-.7,1.194l-7.351,4.9c-.382.255-.7.137-.7-.261A1.667,1.667,0,0,1,330.99,224.679Z" transform="translate(-286.542 -130.094)" fill="#37474f"/><path d="M262.4,257.944l10.8-7.2c.641-.429,1.163-.081,1.163.777v8.557a3.1,3.1,0,0,1-1.163,2.332l-10.8,7.2c-.641.429-1.163.081-1.163-.777v-8.557A3.1,3.1,0,0,1,262.4,257.944Z" transform="translate(-254.676 -141.785)" fill="#ffc107"/><path d="M266,261.289l7.351-4.9c.388-.255.7-.137.7.261a1.648,1.648,0,0,1-.7,1.2L266,262.75c-.388.255-.7.137-.7-.261A1.648,1.648,0,0,1,266,261.289Z" transform="translate(-256.549 -143.936)" fill="#fafafa"/><path d="M265.3,267.393v2.488c0,.516.312.721.7.466l7.351-4.9a1.855,1.855,0,0,0,.7-1.4V261.56c0-.516-.312-.721-.7-.466L266,265.969A1.872,1.872,0,0,0,265.3,267.393Z" transform="translate(-256.549 -145.725)" fill="#fafafa"/><path d="M294.9,239.184l10.77-7.2c.646-.429,1.169-.081,1.169.777v8.557a3.088,3.088,0,0,1-1.169,2.332l-10.77,7.2c-.646.429-1.163.081-1.163-.777v-8.557A3.084,3.084,0,0,1,294.9,239.184Z" transform="translate(-269.674 -134.692)" fill="#ffc107"/><path d="M298.5,242.529l7.351-4.9c.382-.255.695-.137.695.261a1.663,1.663,0,0,1-.695,1.2l-7.351,4.9c-.388.255-.7.137-.7-.267A1.646,1.646,0,0,1,298.5,242.529Z" transform="translate(-271.548 -136.843)" fill="#fafafa"/><path d="M297.8,248.633v2.488c0,.516.312.721.7.466l7.35-4.9a1.87,1.87,0,0,0,.695-1.4V242.8c0-.516-.318-.721-.7-.466l-7.35,4.9A1.857,1.857,0,0,0,297.8,248.633Z" transform="translate(-271.548 -138.632)" fill="#fafafa"/><path d="M327.4,220.42l10.77-7.2c.641-.429,1.163-.081,1.163.777v8.564a3.1,3.1,0,0,1-1.163,2.332l-10.77,7.2c-.646.429-1.169.081-1.169-.777v-8.557a3.088,3.088,0,0,1,1.169-2.332Z" transform="translate(-284.669 -127.595)" fill="#ffc107"/><path d="M330.99,223.785l7.351-4.869c.388-.261.7-.143.7.261a1.627,1.627,0,0,1-.7,1.194l-7.351,4.9c-.382.261-.7.143-.7-.261A1.653,1.653,0,0,1,330.99,223.785Z" transform="translate(-286.542 -129.766)" fill="#fafafa"/><path d="M330.29,229.868v2.488c0,.51.318.721.7.466l7.351-4.907a1.848,1.848,0,0,0,.7-1.4v-2.488c0-.516-.312-.728-.7-.466l-7.351,4.9A1.862,1.862,0,0,0,330.29,229.868Z" transform="translate(-286.542 -131.533)" fill="#fafafa"/><path d="M263.572,276.148l43.457-28.974c1.292-.858,2.332-.249,2.332,1.362a5.948,5.948,0,0,1-2.332,4.471l-43.457,28.974c-1.287.858-2.332.249-2.332-1.362A5.968,5.968,0,0,1,263.572,276.148Z" transform="translate(-254.676 -140.356)" fill="#e0e0e0"/><path d="M263.572,294.918l43.457-28.974c1.292-.858,2.332-.249,2.332,1.362a5.948,5.948,0,0,1-2.332,4.471l-43.457,28.98c-1.287.858-2.332.249-2.332-1.368A5.967,5.967,0,0,1,263.572,294.918Z" transform="translate(-254.676 -147.453)" fill="#e0e0e0"/><path d="M290.839,314.8,306,304.688c.646-.429,1.169-.081,1.169.777v5.641A3.088,3.088,0,0,1,306,313.438L290.839,323.55c-.646.429-1.169.081-1.169-.777v-5.641a3.088,3.088,0,0,1,1.169-2.332Z" transform="translate(-267.796 -162.18)" fill="#ffc107"/><path d="M266.407,295.285a2.908,2.908,0,0,0-1.077,2.189c0,.8.49,1.132,1.077.728a2.909,2.909,0,0,0,1.077-2.189C267.5,295.21,267.01,294.881,266.407,295.285Z" transform="translate(-256.563 -158.629)" fill="#fafafa"/><path d="M272.847,291.562a2.9,2.9,0,0,0-1.077,2.189c0,.8.485,1.132,1.077.728a2.909,2.909,0,0,0,1.077-2.189C273.94,291.487,273.45,291.145,272.847,291.562Z" transform="translate(-259.535 -157.219)" fill="#fafafa"/><path d="M279.277,287.883a2.909,2.909,0,0,0-1.077,2.189c0,.8.49,1.132,1.077.728a2.908,2.908,0,0,0,1.077-2.189C280.37,287.777,279.88,287.448,279.277,287.883Z" transform="translate(-262.503 -155.823)" fill="#fafafa"/><path d="M285.717,284.125a2.9,2.9,0,0,0-1.077,2.189c0,.8.49,1.132,1.077.728a2.908,2.908,0,0,0,1.077-2.189C286.81,284.05,286.32,283.721,285.717,284.125Z" transform="translate(-265.475 -154.409)" fill="#fafafa"/><path d="M292.147,280.4a2.909,2.909,0,0,0-1.077,2.189c0,.8.49,1.132,1.077.728a2.909,2.909,0,0,0,1.077-2.189C293.24,280.33,292.75,280,292.147,280.4Z" transform="translate(-268.442 -153.003)" fill="#fafafa"/><path d="M298.577,276.685a2.908,2.908,0,0,0-1.077,2.189c0,.8.49,1.132,1.077.728a2.9,2.9,0,0,0,1.077-2.189C299.67,276.61,299.185,276.281,298.577,276.685Z" transform="translate(-271.41 -151.596)" fill="#fafafa"/><path d="M305.017,272.968a2.909,2.909,0,0,0-1.077,2.189c0,.8.49,1.132,1.077.728a2.908,2.908,0,0,0,1.077-2.189C306.126,272.925,305.62,272.564,305.017,272.968Z" transform="translate(-274.382 -150.193)" fill="#fafafa"/><path d="M266.407,314.067a2.922,2.922,0,0,0-1.077,2.189c0,.808.49,1.132,1.077.728a2.894,2.894,0,0,0,1.077-2.183C267.5,313.992,267.01,313.669,266.407,314.067Z" transform="translate(-256.563 -165.731)" fill="#fafafa"/><path d="M272.847,310.347a2.9,2.9,0,0,0-1.077,2.189c0,.808.485,1.132,1.077.728a2.894,2.894,0,0,0,1.077-2.183C273.94,310.272,273.45,309.949,272.847,310.347Z" transform="translate(-259.535 -164.325)" fill="#fafafa"/><path d="M279.277,306.625a2.922,2.922,0,0,0-1.077,2.189c0,.808.49,1.132,1.077.728a2.894,2.894,0,0,0,1.077-2.183C280.37,306.55,279.88,306.221,279.277,306.625Z" transform="translate(-262.503 -162.917)" fill="#fafafa"/><path d="M285.717,302.9a2.909,2.909,0,0,0-1.077,2.189c0,.808.49,1.132,1.077.728a2.894,2.894,0,0,0,1.077-2.183C286.81,302.829,286.32,302.5,285.717,302.9Z" transform="translate(-265.475 -161.508)" fill="#fafafa"/><path d="M292.147,299.185a2.909,2.909,0,0,0-1.077,2.189c0,.808.49,1.132,1.077.728a2.894,2.894,0,0,0,1.077-2.183C293.24,299.11,292.75,298.781,292.147,299.185Z" transform="translate(-268.442 -160.103)" fill="#fafafa"/><path d="M298.577,295.465a2.908,2.908,0,0,0-1.077,2.189c0,.808.49,1.132,1.077.728a2.882,2.882,0,0,0,1.077-2.189C299.67,295.39,299.185,295.061,298.577,295.465Z" transform="translate(-271.41 -158.697)" fill="#fafafa"/><path d="M305.017,291.745a2.909,2.909,0,0,0-1.077,2.189c0,.808.49,1.132,1.077.728a2.9,2.9,0,0,0,1.077-2.189C306.126,291.67,305.62,291.341,305.017,291.745Z" transform="translate(-274.382 -157.29)" fill="#fafafa"/></g><g transform="translate(210.652 105.574)"><path d="M386.411,303.373a9.411,9.411,0,0,1-5.3-1.617c-3.883-2.593-6.107-8-6.107-14.863,0-12.052,6.634-25.914,15.078-31.561,4.561-3.041,9.09-3.371,12.757-.927,3.877,2.587,6.107,8,6.107,14.857,0,12.052-6.634,25.921-15.1,31.568a13.6,13.6,0,0,1-7.426,2.544Zm11.125-41.9a7.247,7.247,0,0,0-3.689,1.4c-6.139,4.073-11.308,15.087-11.308,24.024,0,3.619.878,6.368,2.348,7.345,1.675,1.119,4.006-.1,5.24-.927,6.155-4.1,11.346-15.112,11.346-24.049,0-3.619-.878-6.362-2.348-7.345a2.737,2.737,0,0,0-1.589-.448Z" transform="translate(-375 -182.233)" fill="#455a64"/><path d="M411.242,276.742c0-6.772-3.694-9.272-3.694-9.272h0c1.47.983,2.348,3.731,2.348,7.345,0,8.937-5.191,19.95-11.346,24.049-1.233.827-3.559,2.046-5.24.927,0,0,3.118,2.239,7.426-.479C406.972,295.387,411.242,285.679,411.242,276.742Z" transform="translate(-383.45 -187.785)" fill="#37474f"/><path d="M408.951,143.662a3.907,3.907,0,1,0-7.771,0h0V215h0a2.258,2.258,0,0,0,1.136,1.866,5.368,5.368,0,0,0,5.493,0A2.25,2.25,0,0,0,408.951,215h0V143.674h0Z" transform="translate(-387.082 -139.339)" fill="#37474f"/><path d="M396.861,168.988a5.958,5.958,0,0,0-2.246-4.49,1.389,1.389,0,0,0-1.616-.162h0l-9.575,6.374-.232.155a.356.356,0,0,0-.1.068,3.512,3.512,0,0,0-.458.429,4.1,4.1,0,0,0-.31,4.783,2.916,2.916,0,0,0,4.052,1.05l.183-.124,9.645-6.412h0A1.947,1.947,0,0,0,396.861,168.988Z" transform="translate(-378.094 -148.72)" fill="#455a64"/><path d="M395.436,197.708a5.957,5.957,0,0,0-2.246-4.484,1.381,1.381,0,0,0-1.615-.168h0l-11.233,7.463-.232.155a.414.414,0,0,0-.1.068,3.2,3.2,0,0,0-.458.429,4.045,4.045,0,0,0-.907,3.122,3.723,3.723,0,0,0,1.618,2.711,2.891,2.891,0,0,0,1.519.435,2.835,2.835,0,0,0,1.513-.435c.065-.037.124-.087.183-.124l11.309-7.463h0A1.952,1.952,0,0,0,395.436,197.708Z" transform="translate(-376.669 -159.579)" fill="#455a64"/></g></g></svg>