<svg class="animated" id="freepik_stories-bibliophile" xmlns="http://www.w3.org/2000/svg" viewBox="0 0 500 500" version="1.1"><style>@keyframes fadeIn{0%{opacity:0}to{opacity:1}}@keyframes slideLeft{0%{opacity:0;transform:translateX(-30px)}to{opacity:1;transform:translateX(0)}}@keyframes zoomOut{0%{opacity:0;transform:scale(1.5)}to{opacity:1;transform:scale(1)}}@keyframes slideDown{0%{opacity:0;transform:translateY(-30px)}to{opacity:1;transform:translateY(0)}}@keyframes lightSpeedRight{60%{transform:skewX(10deg);opacity:1}80%{transform:skewX(-2deg)}}svg#freepik_stories-bibliophile:not(.animated)svg#freepik_stories-bibliophile.animated #freepik--book-shelf--inject-2{animation:1s 1 forwards cubic-bezier(.36,-.01,.5,1.38) slideLeft;animation-delay:0s}svg#freepik_stories-bibliophile.animated #freepik--speach-bubble--inject-2{animation:1s 1 forwards cubic-bezier(.36,-.01,.5,1.38) slideDown;animation-delay:0s}.animator-hidden{display:none}</style><g id="freepik--Floor--inject-2" class="animable" style="transform-origin:249.53px 342.46px;animation:1s 1 forwards cubic-bezier(.36,-.01,.5,1.38) fadeIn;animation-delay:0s"><ellipse id="freepik--floor--inject-2" cx="249.53" cy="342.46" rx="236.06" ry="140.05" style="transform-origin:249.53px 342.46px" class="animable" fill="#f5f5f5"/></g><g id="freepik--Shadows--inject-2" class="animable" style="transform-origin:237.67px 327.188px;animation:1s 1 forwards cubic-bezier(.36,-.01,.5,1.38) slideLeft;animation-delay:0s"><ellipse id="freepik--Shadow--inject-2" cx="316" cy="367.94" rx="94.34" ry="54.46" style="transform-origin:316px 367.94px" class="animable" fill="#e0e0e0"/><path id="freepik--shadow--inject-2" d="M175.08 396.27l-23.84-13.76-19.44 11.22 3.24-9.35-19.43 3.74L138.28 375l-72.42-41.78a1.26 1.26 0 010-2.39l171-98.36a4.6 4.6 0 014.15 0L350 295.3a1.26 1.26 0 010 2.39l-170.78 98.58a4.58 4.58 0 01-4.14 0z" style="transform-origin:207.93px 314.37px" class="animable" fill="#e0e0e0"/></g><g id="freepik--book-shelf--inject-2" class="animable animator-hidden" style="transform-origin:119.3px 108.405px"><g id="freepik--book-shelf--inject-2" class="animable" style="transform-origin:119.3px 108.405px"><g id="freepik--Shelf--inject-2" class="animable" style="transform-origin:119.3px 133.986px"><path d="M198.89 116.17v-6.47a2.2 2.2 0 00-1.29-1.7l-38.87-22.47a6.63 6.63 0 00-6 0L41 150.05a2.2 2.2 0 00-1.29 1.72v6.47A2.22 2.22 0 0041 160l38.87 22.44a6.61 6.61 0 006 0l111.73-64.55a2.19 2.19 0 001.28-1.72z" style="transform-origin:119.3px 133.986px" id="elhb2i4mkg2ls" class="animable" fill="#f0f0f0"/><path d="M41 153.5l38.87 22.44a6.61 6.61 0 006 0l111.73-64.52c1.65-1 1.65-2.5 0-3.45l-38.87-22.44a6.63 6.63 0 00-6 0L41 150.05c-1.64.95-1.64 2.49 0 3.45z" style="transform-origin:119.304px 130.736px" id="elapalo7zolt8" class="animable" fill="#fafafa"/><path d="M82.86 176.66v6.47a6.17 6.17 0 01-3-.72L41 160a2.18 2.18 0 01-1.28-1.72v-6.48a1.63 1.63 0 01.28-.8c-.46.84-.12 1.8 1 2.46l38.88 22.44a6 6 0 002.98.76z" style="transform-origin:61.29px 167.065px" id="elv6f1nj11rss" class="animable" fill="#e0e0e0"/></g><g id="freepik--Books--inject-2" class="animable" style="transform-origin:116.929px 99.0755px"><path style="transform-origin:160.72px 75.36px" id="el8wklixw6yar" class="animable" fill="#e0e0e0" d="M144.31 34.41l32.82 19.08v62.82l-32.82-19.07V34.41z"/><path d="M176.07 54.53l-31.76-18.34a13.36 13.36 0 01-7.27 4l31.5 18.27s2.03-.46 7.53-3.93z" style="transform-origin:156.555px 47.325px" id="elw23idluu2z" class="animable" fill="#fff"/><path d="M165.49 58.34a6.76 6.76 0 006.1 0l5.35-3.09c1.69-1 1.69-2.55 0-3.52l-31.31-18.08-1.32.76L175.1 52.3a1.12 1.12 0 010 2.12l-5 2.83a4.06 4.06 0 01-3.67 0l-30.75-17.86-1.5.87z" style="transform-origin:156.194px 46.3586px" id="el109slaftn2e9" class="animable" fill="#fafafa"/><path d="M134.18 40.26v62.82l31.31 18.08a6.76 6.76 0 006.1 0l5.35-3.09a2.14 2.14 0 001.26-1.76V53.48a2.14 2.14 0 01-1.26 1.77l-5.35 3.09a6.76 6.76 0 01-6.1 0z" style="transform-origin:156.19px 81.0736px" id="el7nx02v78s1a" class="animable" fill="#e0e0e0"/><path d="M168.54 59.07a6.2 6.2 0 003.05-.73l5.35-3.09a2.14 2.14 0 001.26-1.77v62.83a2.14 2.14 0 01-1.26 1.76l-5.35 3.09a6.31 6.31 0 01-3.05.73z" style="transform-origin:173.37px 87.6854px" id="el8668t6uluw7" class="animable" fill="#ebebeb"/><path style="transform-origin:147.295px 83.11px" id="elhjzgvmjylr" class="animable" fill="#ebebeb" d="M130.88 42.16l32.83 19.08v62.82l-32.83-19.07V42.16z"/><path d="M162.65 62.28l-31.77-18.34a13.36 13.36 0 01-7.26 4l31.5 18.26s2.03-.48 7.53-3.92z" style="transform-origin:143.135px 55.07px" id="el1k9mpidrp06" class="animable" fill="#fff"/><path d="M152.06 66.09a6.78 6.78 0 006.11 0l5.35-3.09c1.68-1 1.68-2.55 0-3.52L132.21 41.4l-1.33.76 30.79 17.89a1.12 1.12 0 010 2.12l-5 2.83a4 4 0 01-3.67 0l-30.74-17.85-1.5.86z" style="transform-origin:142.77px 54.1086px" id="elh2ncnsfn1j" class="animable" fill="#fafafa"/><path d="M120.76 48v62.83l31.3 18.07a6.78 6.78 0 006.11 0l5.35-3.09a2.13 2.13 0 001.26-1.76V61.24a2.14 2.14 0 01-1.26 1.76l-5.35 3.09a6.72 6.72 0 01-6.11 0z" style="transform-origin:142.77px 88.8136px" id="eld9z6i9k5mn6" class="animable" fill="#ebebeb"/><path d="M155.12 66.82a6.2 6.2 0 003-.73l5.4-3.09a2.14 2.14 0 001.26-1.76v62.82a2.13 2.13 0 01-1.26 1.76l-5.35 3.09a6.2 6.2 0 01-3 .73z" style="transform-origin:159.95px 95.4403px" id="elgy6mebl1yjs" class="animable" fill="#f0f0f0"/><path style="transform-origin:122.395px 85.57px" id="elv44qxb2rzkn" class="animable" fill="#e0e0e0" d="M119.97 82.74v3.19l4.85 2.47v-3.43l-4.85-2.23z"/><path style="transform-origin:117.405px 87.28px" id="el62uutki0rse" class="animable" fill="#fff" d="M124.15 86.11l-6.37-3.17-7.12 4.11 8.24 4.57 5.25-5.51z"/><path d="M114.45 92.71v26.63A3.35 3.35 0 00116 122l25.43 14.68a3.09 3.09 0 001.24.35L118.9 93.17a3 3 0 01-1.23-.35l-1.71-1c-.84-.47-1.51-.08-1.51.89z" style="transform-origin:128.56px 114.326px" id="elnfa0pgdwf0d" class="animable" fill="#ebebeb"/><path d="M120.71 92.82l3.89-4.29 3.45-2c.31-.5.69-.88.49-1.29l23.52 43.39v.05c.21.42.26 1.36-.31 1.68l-7.34 6.29a3.28 3.28 0 01-1.8.35L118.9 93.17a3.29 3.29 0 001.81-.35z" style="transform-origin:135.553px 111.127px" id="ely83fhk2tvza" class="animable" fill="#f0f0f0"/><path d="M128.05 84.78c.84.49.63 1 0 1.75l-7.34 6.29a3.33 3.33 0 01-3 0l-6.45-3.73c-.84-.48-1-1.18-.33-1.56a3 3 0 012.7.19l5.09 3a1.14 1.14 0 001 0l4.6-4.72a.31.31 0 000-.58l-5.16-2.65c-.84-.49-1-1.19-.33-1.56a3 3 0 012.7.19z" style="transform-origin:119.559px 87.0764px" id="elsws3uvrbzg9" class="animable" fill="#fafafa"/><path style="transform-origin:100.54px 103.52px" id="el9sg4h9gexo6" class="animable" fill="#e0e0e0" d="M82.1 57.52l36.88 21.43v70.57L82.1 128.1V57.52z"/><path d="M117.79 80.12L82.1 59.52A14.93 14.93 0 0173.94 64l35.39 20.51s2.28-.51 8.46-4.39z" style="transform-origin:95.865px 72.015px" id="el4pkqt1m52ft" class="animable" fill="#fff"/><path d="M105.9 84.4a7.6 7.6 0 006.86 0l6-3.47c1.9-1.09 1.9-2.86 0-4L83.59 56.67l-1.49.85 34.59 20.1a1.25 1.25 0 010 2.37l-5.58 3.19a4.53 4.53 0 01-4.12 0L72.41 63.12l-1.68 1z" style="transform-origin:95.4575px 70.944px" id="elotpk4ku8n8b" class="animable" fill="#fafafa"/><path d="M70.73 64.09v70.57L105.9 155a7.6 7.6 0 006.86 0l6-3.47a2.41 2.41 0 001.41-2V79a2.41 2.41 0 01-1.41 2l-6 3.48a7.6 7.6 0 01-6.86 0z" style="transform-origin:95.45px 109.954px" id="elr7jn3bxhhfd" class="animable" fill="#e0e0e0"/><path d="M109.33 85.22a7.09 7.09 0 003.43-.81l6-3.48a2.41 2.41 0 001.41-2v70.57a2.41 2.41 0 01-1.41 2l-6 3.47a7.1 7.1 0 01-3.43.82z" style="transform-origin:114.75px 117.36px" id="elmd52a7mrhsf" class="animable" fill="#ebebeb"/><path style="transform-origin:85.465px 112.23px" id="eldkal79lr50j" class="animable" fill="#ebebeb" d="M67.03 66.23l36.87 21.43v70.57l-36.87-21.42V66.23z"/><path d="M102.71 88.83L67 68.23a14.94 14.94 0 01-8.15 4.49l35.4 20.51s2.28-.53 8.46-4.4z" style="transform-origin:80.78px 80.73px" id="el0tky8ioozq3d" class="animable" fill="#fff"/><path d="M90.82 93.11a7.6 7.6 0 006.86 0l6-3.47c1.9-1.09 1.9-2.86 0-4L68.52 65.38l-1.5.85 34.59 20.1a1.25 1.25 0 010 2.37L96 91.89a4.56 4.56 0 01-4.12 0L57.34 71.83l-1.69 1z" style="transform-origin:80.3775px 79.654px" id="elchkjsqs5pj8" class="animable" fill="#fafafa"/><path d="M55.65 72.8v70.57l35.17 20.31a7.6 7.6 0 006.86 0l6-3.47a2.41 2.41 0 001.41-2V87.66a2.41 2.41 0 01-1.41 2l-6 3.47a7.54 7.54 0 01-6.86 0z" style="transform-origin:80.37px 118.649px" id="elk0090pczkg" class="animable" fill="#ebebeb"/><path d="M94.25 93.93a7 7 0 003.43-.82l6-3.47a2.41 2.41 0 001.41-2v70.57a2.41 2.41 0 01-1.41 2l-6 3.47a7.1 7.1 0 01-3.43.82z" style="transform-origin:99.67px 126.07px" id="el69bnyhuxeyd" class="animable" fill="#f0f0f0"/></g></g></g><g id="freepik--books--inject-2" class="animable" style="transform-origin:192.595px 277.306px;animation:1s 1 forwards reverse cubic-bezier(.36,-.01,.5,1.38) zoomOut;animation-delay:0s"><g id="freepik--big-books--inject-2" class="animable" style="transform-origin:192.595px 277.306px"><path d="M84.78 336.81l2.53-1.46-1.83-.82s-1.48.38-1.48.47a7.19 7.19 0 00.1 1z" style="transform-origin:85.655px 335.67px" id="eluuoi0b1xg5g" class="animable" fill="#ffc107"/><path d="M84.78 336.81l2.53-1.46-1.83-.82s-1.48.38-1.48.47a7.19 7.19 0 00.1 1z" style="transform-origin:85.655px 335.67px" class="animable" opacity=".5" id="el0c8e9ughjxro"/><path d="M181.17 385.37a8.18 8.18 0 01-7.4 0l-83.09-48 124.37-71.81 2.91-1.68 83.08 48c2 1.18 2 3.1 0 4.27z" style="transform-origin:196.61px 325.067px" id="el4yjjdjyrvgf" class="animable" fill="#ffc107"/><path d="M150 294.75l-29 16.68-18.76-10.83-21.82 12.61v15.72c0 1.91 2.14 4.62 2.92 4.18a21.4 21.4 0 014.17 1.48 31.49 31.49 0 016 4.45l66.57-38.43z" style="transform-origin:120.25px 316.895px" id="elpcg32ddf7n" class="animable" fill="#ffc107"/><path d="M150 294.75l-29 16.68-18.76-10.83-21.82 12.61v15.72c0 1.91 2.14 4.62 2.92 4.18a21.4 21.4 0 014.17 1.48 31.49 31.49 0 016 4.45l66.57-38.43z" style="transform-origin:120.25px 316.895px" class="animable" opacity=".15" id="elfywebt3v9r"/><path d="M80.42 328.93c0 1.79 1.87 4.28 2.75 4.22H83.34c.06 0 2.64-1.64 2.92-1.68l2.51-8.29s-.15-9.69 0-9.69a40.51 40.51 0 00-1.67-4.1l-6.68 3.86z" style="transform-origin:84.595px 321.271px" class="animable" opacity=".4" id="elotrujnd4px"/><path d="M173.76 385.37l-5-2.91L93.53 339a4.88 4.88 0 00-1-2.7 11.09 11.09 0 00-3.29-2.89 7.52 7.52 0 00-3.55-1.11 3.82 3.82 0 00-2.34.77 13 13 0 01-1.35-6.18h-2.9c0 3.93 1.3 7.87 2.89 8.78l1.44.84c.81.47 1.46.5 1.46.06v-.77c0-.85 1.29-.81 2.9.12s2.89 2.36 2.89 3.22v.76c0 .45 1.11 1.43 2.47 2.21l72.74 42 7.87 4.54a7.73 7.73 0 003.69.87v-3.29a7.51 7.51 0 01-3.69-.86z" style="transform-origin:128.275px 358.206px" id="elf97jj3rolo8" class="animable" fill="#ffc107"/><path d="M173.76 385.37l-5-2.91L93.53 339a4.88 4.88 0 00-1-2.7 11.09 11.09 0 00-3.29-2.89 7.52 7.52 0 00-3.55-1.11 3.82 3.82 0 00-2.34.77 13 13 0 01-1.35-6.18h-2.9c0 3.93 1.3 7.87 2.89 8.78l1.44.84c.81.47 1.46.5 1.46.06v-.77c0-.85 1.29-.81 2.9.12s2.89 2.36 2.89 3.22v.76c0 .45 1.11 1.43 2.47 2.21l72.74 42 7.87 4.54a7.73 7.73 0 003.69.87v-3.29a7.51 7.51 0 01-3.69-.86z" style="transform-origin:128.275px 358.206px" class="animable" opacity=".3" id="elpwmtjawp8d"/><path d="M302.56 314v3.34a2.54 2.54 0 01-1.46 2.11h-.06L189 384.12l-7.86 4.54a7.76 7.76 0 01-3.69.87v-3.29a7.47 7.47 0 003.7-.88l5-2.89L301 316.15a2.52 2.52 0 001.56-2.15z" style="transform-origin:240.005px 351.765px" id="elen80sxou92" class="animable" fill="#ffc107"/><path d="M302.56 314v3.34a2.54 2.54 0 01-1.46 2.11h-.06L189 384.12l-7.86 4.54a7.76 7.76 0 01-3.69.87v-3.29a7.47 7.47 0 003.7-.88l5-2.89L301 316.15a2.52 2.52 0 001.56-2.15z" style="transform-origin:240.005px 351.765px" class="animable" opacity=".2" id="ellxf2z46ik2p"/><path d="M177.47 364.08v19.2a4.93 4.93 0 01-2.47-.59l-9.11-5.25-69.42-40.09V317.3z" style="transform-origin:136.97px 350.291px" id="elngk9zl7cvu" class="animable" fill="#ebebeb"/><path d="M135.1 350.77L154.54 362s-2-2.1-9.72-6.5c-7.48-4.27-9.72-4.73-9.72-4.73z" style="transform-origin:144.82px 356.385px" class="animable" opacity=".15" id="elayodsrpdxsw"/><path d="M299 296.33v14.79a5.47 5.47 0 01-2.46 4.27L189 377.44l-9.1 5.25a4.92 4.92 0 01-2.46.59v-17.17z" style="transform-origin:238.22px 339.806px" id="el7lnedhn82zx" class="animable" fill="#f5f5f5"/><path d="M92.4 315v17a1.91 1.91 0 00-.27-.16 7.34 7.34 0 00-3.54-1.12 3.77 3.77 0 00-2.33.77v-20z" style="transform-origin:89.33px 321.745px" id="el6bzuc2yd9nh" class="animable" fill="#37474f"/><path d="M96.46 337.36a4.82 4.82 0 00-1-2.7 9.38 9.38 0 00-1-1.17l-.35-.33-.45-.39-.38-.28a7.83 7.83 0 00-.82-.55V315l4 2.35z" style="transform-origin:94.46px 326.18px" id="elkiw2d6g267s" class="animable" fill="#e0e0e0"/><path d="M215.05 242.15L90.68 314v1.66c0 .93-1.29 1.27-2.89.35s-2.9-2.08-2.9-3.68l-.16-1.58 126.72-73.15.51-.3a1.66 1.66 0 01.22.77v.77c0 .89 1.28 2.37 2.87 3.31z" style="transform-origin:149.89px 276.926px" id="elngfud1tz1mi" class="animable" fill="#ffc107"/><path d="M215.05 242.15L90.68 314v1.66c0 .93-1.29 1.27-2.89.35s-2.9-2.08-2.9-3.68l-.16-1.58 126.72-73.15.51-.3a1.66 1.66 0 01.22.77v.77c0 .89 1.28 2.37 2.87 3.31z" style="transform-origin:149.89px 276.926px" class="animable" opacity=".1" id="elsq29457210h"/><path d="M173.77 361.94L92.52 315c-1-.54-2-1-2.37-.77l.53-.29 124.37-71.82 1.46-.83c.8-.47 2.55-.21 3.92.58L301 288.44c2 1.19 2 3.11 0 4.28l-119.83 69.22a8.18 8.18 0 01-7.4 0z" style="transform-origin:196.325px 301.94px" id="el0bbhpxmvstkf" class="animable" fill="#ffc107"/><path d="M212 237.27l-.51.3-126.76 73.15a1 1 0 00-.27-.34l-.43-.24-.91-.53L82 309a1.14 1.14 0 00-1.43.13.45.45 0 00-.15.13 2.4 2.4 0 00-.38.53 3.57 3.57 0 00-.33.71c-.1.26-.18.54-.26.83s-.12.62-.18 1a3.81 3.81 0 00-.07.59v.47c0 .35-.05.72-.05 1.11v-3.56c0-2 1.67-4.52 3.71-5.7l119.88-69.22c2.05-1.18 5-1.38 6.6-.47l1.51.88c.1.07.36.21.64.37a1.2 1.2 0 01.51.47z" style="transform-origin:145.575px 274.741px" id="elgck48sk6124" class="animable" fill="#ffc107"/><path d="M173.79 362l-5-2.91-57.79-33.4L92.52 315c-1.31-.77-2.38-1-2.45-.65a.09.09 0 000 .05v.84c0 .92-1.3.92-2.9 0s-2.25-2-2.27-2.91v-.91a1.33 1.33 0 00-.43-1.08l-.43-.24-.91-.53L82 309a1.14 1.14 0 00-1.43.13.45.45 0 00-.15.13 1.42 1.42 0 00-.25.34.8.8 0 00-.13.19 3.57 3.57 0 00-.33.71c-.1.26-.18.54-.26.83s-.12.62-.18 1a3.81 3.81 0 00-.07.59v.47c0 .35-.05.72-.05 1.11v12.48H82v-12.57-.88l.07-.72a.11.11 0 010-.07c.25 2.27 2.42 4.29 4.3 5.36a7.12 7.12 0 003.47 1.08 3.82 3.82 0 002.55-.94l.26.14.5.3 72.74 42 7.87 4.54h.05a7.72 7.72 0 003.64.84v-3.29a7.61 7.61 0 01-3.66-.77z" style="transform-origin:128.3px 337.434px" id="el2b1o9rh2iy9" class="animable" fill="#ffc107"/><path d="M173.79 362l-5-2.91-57.79-33.4L92.52 315c-1.31-.77-2.38-1-2.45-.65a.09.09 0 000 .05v.84c0 .92-1.3.92-2.9 0s-2.25-2-2.27-2.91v-.91a1.33 1.33 0 00-.43-1.08l-.43-.24-.91-.53L82 309a1.14 1.14 0 00-1.43.13.45.45 0 00-.15.13 1.42 1.42 0 00-.25.34.8.8 0 00-.13.19 3.57 3.57 0 00-.33.71c-.1.26-.18.54-.26.83s-.12.62-.18 1a3.81 3.81 0 00-.07.59v.47c0 .35-.05.72-.05 1.11v12.48H82v-12.57-.88l.07-.72a.11.11 0 010-.07c.25 2.27 2.42 4.29 4.3 5.36a7.12 7.12 0 003.47 1.08 3.82 3.82 0 002.55-.94l.26.14.5.3 72.74 42 7.87 4.54h.05a7.72 7.72 0 003.64.84v-3.29a7.61 7.61 0 01-3.66-.77z" style="transform-origin:128.3px 337.434px" class="animable" opacity=".3" id="el7fqt8eaj8lx"/><path d="M220.43 241.9c-1.37-.79-3.12-1.05-3.92-.58l-1.45.83c-1.6-.94-2.88-2.42-2.88-3.34V238a1.66 1.66 0 00-.22-.77 1.2 1.2 0 00-.45-.51c-.28-.16-.54-.3-.64-.37l-1.51-.88c-1.6-.91-4.55-.71-6.6.47L82.81 305.15l-.13.09 84.7 48.9a5.45 5.45 0 004.93 0L293 283.79z" style="transform-origin:187.84px 294.815px" class="animable" opacity=".1" id="elufq71xt04l"/><path d="M302.56 290.54v3.35a2.56 2.56 0 01-1.46 2.11h-.06L189 360.69l-7.86 4.54a7.76 7.76 0 01-3.69.86v-3.29a7.47 7.47 0 003.7-.88l5-2.89L301 292.72a2.51 2.51 0 001.56-2.18z" style="transform-origin:240.005px 328.316px" id="elmpw6lkflj9f" class="animable" fill="#ffc107"/><path d="M302.56 290.54v3.35a2.56 2.56 0 01-1.46 2.11h-.06L189 360.69l-7.86 4.54a7.76 7.76 0 01-3.69.86v-3.29a7.47 7.47 0 003.7-.88l5-2.89L301 292.72a2.51 2.51 0 001.56-2.18z" style="transform-origin:240.005px 328.316px" class="animable" opacity=".2" id="elybv3eopzfum"/><path d="M160.6 347.08l3.21-1.85a5.21 5.21 0 00-2.69-.19c-.85.4-.52 2.04-.52 2.04z" id="eleop6gokpew8" class="animable" style="transform-origin:162.173px 346.012px"/><path d="M158.4 345.06a3.87 3.87 0 015.71 0c3.12 2.86 3.28 5.7 4.57 5.65s1.32-22.86 1.32-22.86l-12.29 11.43z" id="el5wi8kh4vja2" class="animable" style="transform-origin:163.855px 339.28px"/><path d="M287.19 262.08l.2-.11-2-1.14-84.81-49L77 291.84c-2 1.18-2.41 2.88-.81 3.8l2.89 1.66 79.28 45.79.56-.4z" style="transform-origin:181.298px 277.46px" id="el24bqmnodqr7" class="animable" fill="#455a64"/><path d="M169 317.05l-6.14-1.27v24.59c3.7 1.57 6.06 3.05 6.45 6.15z" style="transform-origin:166.085px 331.15px" id="elm52v2673fs" class="animable" fill="#ffc107"/><path d="M160.1 340.69l-78.53-45.34a5.47 5.47 0 01-2.47-4.28v-24.23L158.4 313s.94 3.43 3.75 4.51.67 2.17.67 2.17v20.67c-2.43-.27-2.72.34-2.72.34z" style="transform-origin:121.35px 303.765px" id="el8rgo97r6kkw" class="animable" fill="#ebebeb"/><path d="M167.35 316.21c-.82-.47-1.46-.5-1.46-.06v.77c0 .85-1.29.81-2.9-.12s-2.91-2.36-2.91-3.21v-.77c0-.45-1.09-1.43-2.45-2.21l127.78-73.21 2 1.14a1.88 1.88 0 01.48 1.06v.77c0 .86 1.3 2.29 2.9 3.22s2.9 1 2.9.11v-.76c0-.45.64-.42 1.45.05z" style="transform-origin:226.385px 277.464px" id="elkvr9wpqj81" class="animable" fill="#37474f"/><path d="M287.19 238.66l.2-.12-2-1.14-84.81-49L77 259.8c-2 1.18-2.41 2.88-.81 3.8l2.89 1.67L158.4 313z" style="transform-origin:181.298px 250.7px" id="elwdiyjjiwc2" class="animable" fill="#455a64"/><path d="M293.7 242.19L166 315.9l4.47 3.5 127.26-73.48a4.89 4.89 0 00-1.7-2.37z" style="transform-origin:231.865px 280.795px" id="el9joasql4yfp" class="animable" fill="#455a64"/><path d="M297.25 278.93a1.19 1.19 0 00.23-.16.45.45 0 00.15-.13 1.42 1.42 0 00.25-.34.8.8 0 00.13-.19 3.57 3.57 0 00.33-.71c.1-.26.18-.54.26-.83s.12-.62.18-1a3.81 3.81 0 00.07-.59v-.47c0-.35.05-.72.05-1.11v-21.05a17.35 17.35 0 00-1.19-6.43L170.49 319.4l-.54 33L297.21 279z" style="transform-origin:234.425px 299.16px" id="el2nj4l0mv0pg" class="animable" fill="#455a64"/><path d="M170.49 319.4s100.23-46.91 109.35-51.21c6-2.84 9 3.12 7.55 9.29-1.25 5.39-6.56 10.94-6.56 10.94l16.38-9.42a1.19 1.19 0 00.23-.16.45.45 0 00.15-.13 1.42 1.42 0 00.25-.34.8.8 0 00.13-.19 3.57 3.57 0 00.33-.71c.1-.26.18-.54.26-.83s.12-.62.18-1a3.81 3.81 0 00.07-.59v-.47c0-.35.05-.72.05-1.11v-21.12a17.35 17.35 0 00-1.19-6.43z" style="transform-origin:234.675px 282.66px" class="animable" opacity=".1" id="el01yx55lbmdnm"/><path d="M171.67 325.83h-2.85a13 13 0 00-1.38-6.22 3.82 3.82 0 01-2.34.77 7.44 7.44 0 01-3.54-1.11 10.85 10.85 0 01-3.29-2.89 2.85 2.85 0 01-.17-.26 4.65 4.65 0 01-.86-2.44L82 270.26l-2.55-1.49-3.26-1.88a1.72 1.72 0 01-1-1.46v-3.34a1.76 1.76 0 001 1.51l8.64 5 72.74 42c1.35.78 2.46 1.76 2.46 2.2v.77a2.34 2.34 0 00.67 1.36 8 8 0 002.3 1.87c1.61.93 2.91 1 2.91.12v-.77c0-.44.64-.42 1.45.05l1.44.84c1.57.96 2.87 4.86 2.87 8.79z" style="transform-origin:123.43px 293.96px" id="elvc5h7mf3xjp" class="animable" fill="#37474f"/><path d="M168.82 325.83v21.98l-.07.71a.17.17 0 010 .07c-.26-2.26-2.42-4.28-4.3-5.35a7.16 7.16 0 00-3.48-1.09 3.84 3.84 0 00-2.55.94l-.26-.14-.49-.3-72.74-42-4.18-2.41c-.38-.22-.8-.45-1.19-.69l-3.52-2a1.67 1.67 0 01-.79-1.37v3.33a1.63 1.63 0 00.73 1.29c.41.25.85.49 1.3.76l.81.47 1.39.81c.32.19.6.36.87.5l.61.36 1.07.62 57.79 33.35 18.44 10.65c1.31.77 2.38 1 2.45.64v-.88c0-.93 1.29-.93 2.89 0s2.25 2 2.28 2.9v.91a1.35 1.35 0 00.42 1.09l.43.24c.26.14.57.33.91.53l1.13.65a1.16 1.16 0 001.44-.13.53.53 0 00.14-.12 1.87 1.87 0 00.26-.35 1 1 0 00.12-.17 3.53 3.53 0 00.33-.71 7.29 7.29 0 00.26-.83c.07-.31.13-.63.18-1a2.71 2.71 0 00.07-.58v-.47-22.21z" style="transform-origin:123.41px 323.386px" id="elg6sk0rawrj" class="animable" fill="#37474f"/><path d="M297.75 245.91L176.8 315.75 85.37 263c-1.37-.78-1.37-2.06 0-2.85L205.06 191l80.34 46.4 2 1.15a1.87 1.87 0 01.48 1v.77c0 .86 1.3 2.3 2.89 3.22a1.58 1.58 0 00.26.13l2.66-1.54 1.27.73.17.08.94.54a5 5 0 011.68 2.43z" style="transform-origin:191.046px 253.375px" class="animable" opacity=".1" id="el5alxbpgisou"/><path d="M92.18 263.49l3.64-1.94-3.32-.8a2.52 2.52 0 00-.32 2.74z" style="transform-origin:93.8674px 262.12px" id="el56x6inf246r" class="animable" fill="#ffc107"/><path d="M92.18 263.49l3.64-1.94-3.32-.8a2.52 2.52 0 00-.32 2.74z" style="transform-origin:93.8674px 262.12px" class="animable" opacity=".5" id="el1iz05w4np95"/><path d="M188.58 312a8.18 8.18 0 01-7.4 0L98.1 264l124.37-70.65 2.91-1.68 83.08 46.81c2 1.18 2 3.1 0 4.27z" style="transform-origin:204.03px 252.277px" id="elpzcwyi33wj" class="animable" fill="#ffc107"/><path d="M157.39 222.59l-29 16.68-18.75-10.83L87.84 241v14.6c0 1.91 2.14 4.62 2.91 4.18a21.4 21.4 0 014.17 1.48 31.33 31.33 0 016 4.45l66.57-37.27z" style="transform-origin:127.665px 244.15px" id="elhky9d5cvkn4" class="animable" fill="#ffc107"/><path d="M157.39 222.59l-29 16.68-18.75-10.83L87.84 241v14.6c0 1.91 2.14 4.62 2.91 4.18a21.4 21.4 0 014.17 1.48 31.33 31.33 0 016 4.45l66.57-37.27z" style="transform-origin:127.665px 244.15px" class="animable" opacity=".15" id="el1y931nwc4he"/><path d="M99.81 242.79v15.81a2.56 2.56 0 00-.25-.16 7.52 7.52 0 00-3.56-1.11 3.68 3.68 0 00-2.34.55v-18.63z" style="transform-origin:96.735px 248.925px" id="eli1ctkj4vsgm" class="animable" fill="#37474f"/><path d="M103.89 264a5 5 0 00-1-2.7 9.29 9.29 0 00-1-1.17l-.35-.33-.46-.39-.38-.28a9.79 9.79 0 00-.82-.55v-15.71l4.06 2.35v-.08z" style="transform-origin:101.91px 253.435px" id="elpc2efsmc8rj" class="animable" fill="#e0e0e0"/><path d="M87.84 255.6c0 1.91 2.14 4.62 2.91 4.18l2.91-1.9v-12l-2.92-5-1.59-.56-1.32.76z" style="transform-origin:90.745px 250.074px" class="animable" opacity=".4" id="elpp9w7akbqu"/><path d="M184.88 291.91v18a4.92 4.92 0 01-2.46-.58l-9.12-5.26L103.88 264v-18.86z" style="transform-origin:144.38px 277.526px" id="elreugunb5dz" class="animable" fill="#ebebeb"/><path d="M109.13 257.22l19.43 11.22s-2-2.1-9.71-6.49c-7.49-4.27-9.72-4.73-9.72-4.73z" style="transform-origin:118.845px 262.83px" class="animable" opacity=".15" id="elag8blh6s9yw"/><path d="M306.38 224.17v13.62a5.45 5.45 0 01-2.47 4.27l-107.46 62-9.1 5.26a4.93 4.93 0 01-2.47.58V294z" style="transform-origin:245.63px 267.036px" id="eldfuyfu2ipc9" class="animable" fill="#f5f5f5"/><path d="M222.47 170L98.1 241.8v1.67c0 .93-1.3 1.27-2.89.34s-2.91-2.08-2.91-3.67l-.15-1.58 126.72-73.16.51-.3a1.71 1.71 0 01.21.77v.77c0 .93 1.29 2.41 2.88 3.36z" style="transform-origin:157.31px 204.73px" id="el3s0qu4xgze7" class="animable" fill="#ffc107"/><path d="M222.47 170L98.1 241.8v1.67c0 .93-1.3 1.27-2.89.34s-2.91-2.08-2.91-3.67l-.15-1.58 126.72-73.16.51-.3a1.71 1.71 0 01.21.77v.77c0 .93 1.29 2.41 2.88 3.36z" style="transform-origin:157.31px 204.73px" class="animable" opacity=".1" id="elv9b6mb2tyeb"/><path d="M181.18 289.77l-81.24-46.9c-1-.54-2-1-2.37-.77l.53-.3L222.47 170l1.45-.84c.81-.46 2.56-.2 3.92.58l80.62 46.55c2 1.18 2 3.1 0 4.27l-119.88 69.21a8.18 8.18 0 01-7.4 0z" style="transform-origin:203.765px 229.794px" id="elx9sg2ph99x" class="animable" fill="#ffc107"/><path d="M225.94 190l44.92 26c1.9 1.1 1.9 2.89 0 4l-6.05 3.49a7.65 7.65 0 01-6.91 0L213 197.51c-1.91-1.1-1.91-2.89 0-4l6-3.49a7.63 7.63 0 016.94-.02z" style="transform-origin:241.926px 206.745px" id="elsebtd1mvb5" class="animable" fill="#fff"/><path d="M178.11 281.44a.79.79 0 01-.4-.1l-61-35.13a.8.8 0 010-1.39 3.73 3.73 0 000-6.45.78.78 0 01-.4-.69.79.79 0 01.4-.69l101.88-58.82a.81.81 0 01.8 0 12.78 12.78 0 0012.76 0 .81.81 0 01.8 0l60.93 35.18a.82.82 0 01.4.69.8.8 0 01-.4.69 3.73 3.73 0 000 6.45.8.8 0 01.4.69.82.82 0 01-.4.69l-101.83 58.77a.81.81 0 01-.8 0 12.77 12.77 0 00-12.74 0 .82.82 0 01-.4.11zm-59.6-36l59.61 34.31a14.38 14.38 0 0113.52 0L292 221.78a5.33 5.33 0 010-7.65l-59.5-34.35a14.44 14.44 0 01-13.55 0l-100.44 58a5.33 5.33 0 010 7.65z" style="transform-origin:205.293px 229.752px" id="el3hiwj55qaia" class="animable" fill="#fff"/><path d="M219.38 165.1l-.51.3-126.72 73.16a1 1 0 00-.28-.35l-.42-.24-.91-.53c-.35-.19-.73-.42-1.13-.65a1.16 1.16 0 00-1.44.13.43.43 0 00-.14.13 2.33 2.33 0 00-.38.52 3.38 3.38 0 00-.33.72 6.55 6.55 0 00-.26.82c-.07.31-.13.63-.18 1a2.79 2.79 0 00-.07.58v1.58-3.56c0-2 1.67-4.51 3.7-5.69l119.89-69.23c2-1.18 5-1.38 6.59-.47l1.51.89h.06c.1.07.36.21.64.37a1.21 1.21 0 01.38.52z" style="transform-origin:152.995px 202.511px" id="elefps0z729se" class="animable" fill="#ffc107"/><path d="M181.18 312l-5-2.91L101 265.7a4.87 4.87 0 00-1-2.69 10.85 10.85 0 00-3.29-2.89 7.48 7.48 0 00-3.62-1.12 3.8 3.8 0 00-2.34.77 13 13 0 01-1.38-6.22h-2.85c0 3.93 1.3 7.87 2.89 8.78l1.44.84c.81.47 1.45.5 1.45.06v-.77c0-.85 1.3-.81 2.91.12s2.89 2.42 2.89 3.22v.77c0 .45 1.11 1.43 2.46 2.21l72.74 42 7.88 4.55a7.76 7.76 0 003.69.87v-3.29a7.47 7.47 0 01-3.69-.91z" style="transform-origin:135.695px 284.875px" id="elaj5mgpxgpy" class="animable" fill="#ffc107"/><path d="M181.18 312l-5-2.91L101 265.7a4.87 4.87 0 00-1-2.69 10.85 10.85 0 00-3.29-2.89 7.48 7.48 0 00-3.62-1.12 3.8 3.8 0 00-2.34.77 13 13 0 01-1.38-6.22h-2.85c0 3.93 1.3 7.87 2.89 8.78l1.44.84c.81.47 1.45.5 1.45.06v-.77c0-.85 1.3-.81 2.91.12s2.89 2.42 2.89 3.22v.77c0 .45 1.11 1.43 2.46 2.21l72.74 42 7.88 4.55a7.76 7.76 0 003.69.87v-3.29a7.47 7.47 0 01-3.69-.91z" style="transform-origin:135.695px 284.875px" class="animable" opacity=".3" id="elsmuy0n7vru"/><path d="M181.21 289.79l-5-2.9-57.79-33.34-18.48-10.68c-1.31-.77-2.38-1-2.45-.64v.84c0 .93-1.29.93-2.89 0s-2.25-2-2.28-2.9v-.91a1.32 1.32 0 00-.43-1.09l-.42-.24c-.26-.14-.57-.33-.91-.53s-.73-.42-1.13-.65a1.16 1.16 0 00-1.44.13.43.43 0 00-.14.13 1.46 1.46 0 00-.26.34.81.81 0 00-.12.18 3.38 3.38 0 00-.33.72 6.55 6.55 0 00-.26.82c-.07.31-.13.63-.18 1a2.79 2.79 0 00-.07.58v12.9h2.85v-11.31-.88l.07-.71a.17.17 0 010-.07c.26 2.26 2.42 4.29 4.3 5.35a7.16 7.16 0 003.41 1.07 3.84 3.84 0 002.55-.94l.25.14.5.3 72.74 42 7.88 4.54h.06a7.77 7.77 0 003.63.84v-3.29a7.65 7.65 0 01-3.66-.8z" style="transform-origin:135.75px 265.22px" id="elw7za1y4f1j" class="animable" fill="#ffc107"/><path d="M181.21 289.79l-5-2.9-57.79-33.34-18.48-10.68c-1.31-.77-2.38-1-2.45-.64v.84c0 .93-1.29.93-2.89 0s-2.25-2-2.28-2.9v-.91a1.32 1.32 0 00-.43-1.09l-.42-.24c-.26-.14-.57-.33-.91-.53s-.73-.42-1.13-.65a1.16 1.16 0 00-1.44.13.43.43 0 00-.14.13 1.46 1.46 0 00-.26.34.81.81 0 00-.12.18 3.38 3.38 0 00-.33.72 6.55 6.55 0 00-.26.82c-.07.31-.13.63-.18 1a2.79 2.79 0 00-.07.58v12.9h2.85v-11.31-.88l.07-.71a.17.17 0 010-.07c.26 2.26 2.42 4.29 4.3 5.35a7.16 7.16 0 003.41 1.07 3.84 3.84 0 002.55-.94l.25.14.5.3 72.74 42 7.88 4.54h.06a7.77 7.77 0 003.63.84v-3.29a7.65 7.65 0 01-3.66-.8z" style="transform-origin:135.75px 265.22px" class="animable" opacity=".3" id="elatko4ml9l2p"/><path d="M310 218.38v3.34a2.54 2.54 0 01-1.47 2.11h-.05l-112 64.66-7.86 4.55a7.73 7.73 0 01-3.69.87v-3.29a7.51 7.51 0 003.71-.88l5-2.89 114.86-66.34a2.53 2.53 0 001.5-2.13z" style="transform-origin:247.465px 256.146px" id="ellhpqeddvbvj" class="animable" fill="#ffc107"/><path d="M310 218.38v3.34a2.54 2.54 0 01-1.47 2.11h-.05l-112 64.66-7.86 4.55a7.73 7.73 0 01-3.69.87v-3.29a7.51 7.51 0 003.71-.88l5-2.89 114.86-66.34a2.53 2.53 0 001.5-2.13z" style="transform-origin:247.465px 256.146px" class="animable" opacity=".2" id="elv0zqqvwgcl"/><path d="M310 240.64V244a2.54 2.54 0 01-1.47 2.11h-.05l-112 64.66-7.86 4.55a7.73 7.73 0 01-3.69.87v-3.29a7.51 7.51 0 003.71-.88l5-2.89L308.5 242.8a2.54 2.54 0 001.5-2.16z" style="transform-origin:247.465px 278.416px" id="elcwlm574qqid" class="animable" fill="#ffc107"/><path d="M310 240.64V244a2.54 2.54 0 01-1.47 2.11h-.05l-112 64.66-7.86 4.55a7.73 7.73 0 01-3.69.87v-3.29a7.51 7.51 0 003.71-.88l5-2.89L308.5 242.8a2.54 2.54 0 001.5-2.16z" style="transform-origin:247.465px 278.416px" class="animable" opacity=".2" id="elpjy55k578wr"/><path style="transform-origin:118.85px 285.27px" id="eljflxbehfx2" class="animable" fill="#ffc107" d="M112.37 259.09v44.88l6.48-7.48 6.48 14.96v-44.88l-12.96-7.48z"/><path style="transform-origin:118.85px 285.27px" class="animable" opacity=".5" d="M112.37 259.09v44.88l6.48-7.48 6.48 14.96v-44.88l-12.96-7.48z" id="el2utv55i457"/><path d="M138.28 352.59v12.18a11.29 11.29 0 01-5.65 9.78l-17 9.83 16.19-1.87-3.24 9.35 17-9.83a11.31 11.31 0 005.65-9.78v-12.18z" style="transform-origin:133.43px 372.225px" id="elmo6fa3qf5u" class="animable" fill="#ffc107"/><path d="M138.28 352.59v12.18a11.29 11.29 0 01-5.65 9.78l-17 9.83 16.19-1.87-3.24 9.35 17-9.83a11.31 11.31 0 005.65-9.78v-12.18z" style="transform-origin:133.43px 372.225px" class="animable" opacity=".5" id="el80a5wfqnlu5"/></g></g><g id="freepik--speach-bubble--inject-2" class="animable animator-hidden" style="transform-origin:390.906px 151.876px"><g id="freepik--speach-bubble--inject-2" class="animable" style="transform-origin:390.906px 151.876px"><path d="M382.62 145.66v-10.94l-9.24-.81a.69.69 0 00-.38.08l-9.22 5.27a.68.68 0 00-.15 1l9.8 10.62z" style="transform-origin:373.047px 142.394px" id="eluoft8r7epeo" class="animable" fill="#ffc107"/><path d="M373.43 150.92l-9.8-10.62a.67.67 0 01.56-1.13l9.24.8z" style="transform-origin:368.436px 145.043px" id="elv4cspdt42c" class="animable" fill="#ffc107"/><path d="M382.62 134.72l-9.19 5.28-9.24-.81a.66.66 0 00-.32.05c.74-.44 8.79-5.05 9.13-5.23a.7.7 0 01.39-.08z" style="transform-origin:373.245px 136.964px" id="elifyfml3wz1k" class="animable" fill="#ffc107"/><path d="M382.62 134.72l-9.19 5.28-9.24-.81a.66.66 0 00-.32.05c.74-.44 8.79-5.05 9.13-5.23a.7.7 0 01.39-.08z" style="transform-origin:373.245px 136.964px" class="animable" fill="#fff" opacity=".5" id="elcn1iycrg9ap"/><path d="M373.44 127.63a7.36 7.36 0 013.33-5.77l2.71-1.56a7.31 7.31 0 016.66 0L415 137a7.35 7.35 0 013.33 5.77v33.38a7.38 7.38 0 01-3.33 5.75l-2.71 1.56a7.37 7.37 0 01-6.66 0l-8.53-4.92-11.09-6.41-9.28-5.35a7.36 7.36 0 01-3.33-5.77z" style="transform-origin:395.865px 151.876px" id="el720jole5gpa" class="animable" fill="#ffc107"/><path d="M402.35 157.09a16.41 16.41 0 00-1.35-6.38 11.11 11.11 0 00-4.07-5.21c-2.78-1.64-5.11 1.69-5.47 5.62-.33-4.34-2.61-10.38-5.4-12a3 3 0 00-4.1.41 7.22 7.22 0 00-1.41 4.76c0 6.64 4 12.67 7.31 19l3.52 6.66 3.57-2.49c3.35-2.41 7.37-3.72 7.4-10.37z" style="transform-origin:391.443px 154.222px" id="el3kvsa4sjq3t" class="animable" fill="#fafafa"/><path d="M418.37 176.13a7.38 7.38 0 01-3.37 5.77l-2.71 1.56a7.46 7.46 0 01-6.09.27c1.56.59 2.76-.29 2.76-2.19v-33.38a6.72 6.72 0 00-1-3.28l9.37-5.41a6.72 6.72 0 011 3.28z" style="transform-origin:412.285px 161.861px" class="animable" opacity=".2" id="eleo7o5mrfmps"/><path d="M373.55 126.68c.39-1.41 1.68-1.86 3.22-1l28.9 16.69a6.58 6.58 0 012.35 2.49l9.36-5.41A6.76 6.76 0 00415 137l-28.85-16.7a7.37 7.37 0 00-6.66 0l-2.72 1.57a7.36 7.36 0 00-3.22 4.81z" style="transform-origin:395.465px 132.182px" class="animable" fill="#fff" opacity=".5" id="elh70zgikgxwv"/></g></g><g id="freepik--Character--inject-2" class="animable" style="transform-origin:318.315px 261.432px;animation:1s 1 forwards cubic-bezier(.36,-.01,.5,1.38) lightSpeedRight;animation-delay:0s"><g id="freepik--character--inject-2" class="animable" style="transform-origin:318.315px 261.432px"><path d="M301.44 199.3c14.07-.47 21.05 6.76 29.57 19.06s32 46.4 32 46.4l-18.27 10.55-40-54.87z" style="transform-origin:332.225px 237.294px" id="elt8wfff5jlt" class="animable" fill="#ffa8a7"/><path d="M288.73 109.57c-30.55 1.52-42.91 25.79-38.67 48 3.68 19.26 18.16 29.68 37.89 29.68h2.47c21.47 0 35.76-22 38.4-33.86 6.18-27.54-13.01-45.16-40.09-43.82z" style="transform-origin:289.617px 148.374px" id="elu8w0jclgyyb" class="animable" fill="#37474f"/><path d="M364.07 396.47c.75 18.47-29.51 22.09-56.09 9.41-20.05-9.56-29-16.46-47.25-30.08-22.61-16.91-29.39-42.52-13.26-72.94l76.91-4C337.77 314.38 386 335 402 371.68c7.77 19.39-18.92 29.6-38 24.79z" style="transform-origin:320.998px 356.113px" id="elhhar54l8cwl" class="animable" fill="#455a64"/><path d="M364.07 396.47c-2-17.41-15.25-26-26.62-34.43S302.19 339 302.19 339s11.88 2.77 22.78-8.44a16.55 16.55 0 01-7.66 11.79s33.07 18.91 43 34.94a26.88 26.88 0 013.76 19.18z" style="transform-origin:333.344px 363.515px" id="eloco3ggx3b4" class="animable" fill="#37474f"/><path d="M282.81 199.3H274c-8.53.6-17 1.26-17 1.26-13.66 4.93-13.6 15.7-14.28 21.35-1 8 1.26 12.56 3.89 20.16l12.6 36.44s-4.88 10.88-11.73 24.35c31.62 17.64 70.07 11.75 79.57-1.13.4-2.73-1-31.63-2.54-45.58a21.71 21.71 0 003.91-29.93c-11.89-16.25-22.71-26.05-27-26.92z" style="transform-origin:287.589px 256.594px" id="el3brzu5o8561" class="animable" fill="#ffc107"/><path d="M282.81 199.3H274c-8.53.6-17 1.26-17 1.26-13.66 4.93-13.6 15.7-14.28 21.35-1 8 1.26 12.56 3.89 20.16l12.6 36.44s-4.88 10.88-11.73 24.35c31.62 17.64 70.07 11.75 79.57-1.13.4-2.73-1-31.63-2.54-45.58a21.71 21.71 0 003.91-29.93c-11.89-16.25-22.71-26.05-27-26.92z" style="transform-origin:287.589px 256.594px" class="animable" opacity=".3" id="el8pdiz4wx0s9"/><path d="M256.64 284.06c-1.08 2.32-2.48 5.27-4.11 8.61-.28.59-.57 1.19-.87 1.79-.37.76-.75 1.54-1.15 2.33-1 1.94-2 4-3 6.07 1.17.65 2.35 1.25 3.53 1.84 21.16 10.52 44.72 11.05 60.41 6.35a91.7 91.7 0 01-32-1.39 19.1 19.1 0 01-14.23-23.28 7.24 7.24 0 01.32-1c2-4.89 6.41-4.25 6.41-4.25a18.43 18.43 0 01-7.95-11.76l-1.66-5.07a59.43 59.43 0 01-.56-35.56l.09-.33-13.44-7.66-2.35 1.63a29.2 29.2 0 00-1.28 7.29v2.8c0 .54.06 1.07.11 1.6s.08.85.14 1.27.12.9.2 1.35.21 1.09.33 1.63c.08.34.14.69.23 1 .23.89.49 1.78.79 2.65l12.6 36.44s-.93 2.18-2.56 5.65z" style="transform-origin:278.125px 267.316px" class="animable" opacity=".15" id="elil1kwa59mq9"/><path d="M314.5 128.46c2 1 7.41 11.35 6.89 33.88-.44 19.1-6.63 23.81-9.74 25.17s-9.1.53-14.93-.44v11.46s8.06 9.36 7.55 14.61-11.63 6.5-19.16 1.37a48.83 48.83 0 01-12.37-12.95v-27.7s-3.18 3.49-9.62-.78-7.43-13.09-3.69-16.89 11.81-2.59 13.31 2.65c0 0 9.44 1.67 22.1-6.48 13.67-8.8 17.88-15.8 19.66-23.9z" style="transform-origin:289.34px 173.119px" id="els8ezvsgv08" class="animable" fill="#ffa8a7"/><path d="M317.62 149.81l-5.34-2.55a2.84 2.84 0 013.85-1.46 3.1 3.1 0 011.49 4.01z" style="transform-origin:315.076px 147.665px" id="elk0c88wie5s" class="animable" fill="#263238"/><path d="M293.8 146.76l-5 3.15a2.83 2.83 0 01.82-4 3.09 3.09 0 014.18.85z" style="transform-origin:291.05px 147.673px" id="elhrrs0lov5tn" class="animable" fill="#263238"/><path d="M272.52 153.58l.33 11.68a5.67 5.67 0 005.8-5.81 6.14 6.14 0 00-6.13-5.87z" style="transform-origin:275.586px 159.421px" id="eluvfqgbd5fe" class="animable" fill="#37474f"/><path d="M297.93 156.81a2.4 2.4 0 11-2.52-2.38 2.44 2.44 0 012.52 2.38z" style="transform-origin:295.53px 156.828px" id="eldipy7hz1q8d" class="animable" fill="#263238"/><path d="M300 173.71l6.33 2a3.26 3.26 0 01-4.12 2.27 3.47 3.47 0 01-2.21-4.27z" style="transform-origin:303.094px 175.919px" id="elslb8go0kcap" class="animable" fill="#f28f8f"/><path d="M316.5 155.81a2.4 2.4 0 11-2.52-2.38 2.44 2.44 0 012.52 2.38z" style="transform-origin:314.1px 155.828px" id="el1t63shfl2sc" class="animable" fill="#263238"/><path style="transform-origin:308.765px 161.66px" id="elwubcgjnm1nk" class="animable" fill="#f28f8f" d="M304.77 154.43l.39 14.46 7.6-2.36-7.99-12.1z"/><path d="M296.72 187.07c-6.14-.8-18.77-4.43-20.74-9.43 0 0 .66 3.14 4.43 6.38s16.31 6.88 16.31 6.88z" style="transform-origin:286.35px 184.27px" id="elnpcwn0bedfg" class="animable" fill="#f28f8f"/><path d="M386.29 239.75s-.24-3.52 4.4-6.95 10.7-6.18 12.68-14.7l6.39 3.69-10.76 18.1z" style="transform-origin:398.024px 228.995px" id="el4uvehroqs65" class="animable" fill="#ffc107"/><path d="M386.29 239.75s-.24-3.52 4.4-6.95 10.7-6.18 12.68-14.7l6.39 3.69-10.76 18.1z" style="transform-origin:398.024px 228.995px" class="animable" fill="#fff" opacity=".75" id="el35cztphdsh7"/><path d="M386.29 239.75s-7-3.5-22.29-.34-27.81 7.25-57.21 6.6l7.63 4.41 76.33-4.42z" style="transform-origin:348.77px 244.254px" id="elw1pn6jywv6" class="animable" fill="#ffc107"/><path d="M386.29 239.75s-7-3.5-22.29-.34-27.81 7.25-57.21 6.6l7.63 4.41 76.33-4.42z" style="transform-origin:348.77px 244.254px" class="animable" fill="#fff" opacity=".75" id="elu5zhn683d09"/><path style="transform-origin:296.96px 292.13px" id="elci5nw5r08h8" class="animable" fill="#ffc107" d="M306.79 246.01l-27.29 87.83 7.63 4.41 27.29-87.83-7.63-4.41z"/><path style="transform-origin:296.96px 292.13px" class="animable" fill="#fff" opacity=".8" d="M306.79 246.01l-27.29 87.83 7.63 4.41 27.29-87.83-7.63-4.41z" id="el5yl7lkoa3jo"/><path style="transform-origin:296.96px 292.13px" class="animable" opacity=".1" d="M306.79 246.01l-27.29 87.83 7.63 4.41 27.29-87.83-7.63-4.41z" id="el7j6g1n652rr"/><g style="transform-origin:369.775px 234.74px" class="animable" opacity=".1" id="elb3vernqy0g6"><path d="M403.36 222.82a15.11 15.11 0 01-3.14 4.94 45.4 45.4 0 01-4.38 4 30.33 30.33 0 00-4.3 3.91A10.7 10.7 0 00390 238a5.63 5.63 0 00-.55 2.59l-.93.14a6.35 6.35 0 01.74-3.08 11.45 11.45 0 011.72-2.5 30.77 30.77 0 014.54-3.81 47.56 47.56 0 004.5-3.75 15.13 15.13 0 003.34-4.77z" id="eli9r6gdgyrhb" class="animable" style="transform-origin:395.94px 231.775px"/><path d="M402.14 227.77a14.88 14.88 0 01-2.35 3c-.88.93-1.78 1.82-2.64 2.76a19.75 19.75 0 00-2.3 3 7.86 7.86 0 00-1.2 3.39l-.94-.12a8.93 8.93 0 011.55-3.66 20.27 20.27 0 012.56-2.9c.92-.89 1.88-1.73 2.8-2.6a14.82 14.82 0 002.52-2.87z" id="elobgpywd612s" class="animable" style="transform-origin:397.425px 233.845px"/><path d="M336.19 246.66a113.35 113.35 0 0012.44-1.83c4.12-.83 8.19-1.85 12.28-2.8a57.45 57.45 0 0112.52-1.63 45 45 0 016.35.25 20.33 20.33 0 013.15.6 7.83 7.83 0 013 1.48l-.65.68a7.05 7.05 0 00-2.59-1.32 21.14 21.14 0 00-3-.63 44.48 44.48 0 00-6.22-.36 56.61 56.61 0 00-12.47 1.39c-4.1.87-8.2 1.82-12.33 2.57a114.33 114.33 0 01-12.48 1.6z" id="eln4kdaj1y7ha" class="animable" style="transform-origin:361.06px 243.519px"/><path d="M356.37 246.28c2.37-.32 4.7-.81 7.05-1.26s4.7-.88 7.07-1.19a45.4 45.4 0 017.19-.48 19.91 19.91 0 017.16 1.32l-.38.86a19.11 19.11 0 00-6.81-1.48 45.56 45.56 0 00-7.1.24c-2.37.24-4.73.59-7.09 1s-4.71.71-7.09.99z" id="el20n5l8ivx96" class="animable" style="transform-origin:370.605px 244.813px"/></g><path style="transform-origin:390.75px 276.315px" id="elsaxw3cwepji" class="animable" fill="#ffc107" d="M409.78 217.4l-12.58 21.45-29.28 94.18 3.82 2.2 12.56-26.3 29.28-89.34-3.8-2.19z"/><path style="transform-origin:392.66px 277.41px" class="animable" opacity=".2" d="M401.01 241.06l12.57-21.47-29.28 89.34-12.56 26.3 29.27-94.17z" id="elifvq2fal35l"/><path style="transform-origin:334.275px 296.7px" id="elkiflre0r8jh" class="animable" fill="#ffc107" d="M384.65 246.1l-75.28 4.83-29.28 94.17 3.82 2.2 75.28-4.83 29.27-94.17-3.81-2.2z"/><path style="transform-origin:336.185px 297.8px" class="animable" opacity=".2" d="M313.18 253.13l-29.27 94.17 75.28-4.83 29.27-94.17-75.28 4.83z" id="eldeidcy6y94u"/><path d="M297.16 342.92a.49.49 0 01-.37-.18.5.5 0 01-.08-.43 4.85 4.85 0 00-4.94-6.28.49.49 0 01-.4-.18.45.45 0 01-.08-.43l22.27-71.63a.47.47 0 01.41-.33 10.22 10.22 0 009.07-7.13.47.47 0 01.42-.33l51.72-3.32a.49.49 0 01.4.18.47.47 0 01.08.43 4.79 4.79 0 00.82 4.44 4.73 4.73 0 004.12 1.84.46.46 0 01.4.18.45.45 0 01.08.43l-22.26 71.63a.48.48 0 01-.42.33 10.24 10.24 0 00-9.07 7.13.46.46 0 01-.42.33l-51.72 3.32zm-4.78-7.84a5.8 5.8 0 015.39 6.86l50.77-3.26a11.16 11.16 0 019.48-7.45l22-70.71a5.8 5.8 0 01-5.4-6.86l-50.76 3.26a11.18 11.18 0 01-9.48 7.45z" style="transform-origin:336.185px 297.8px" id="el4vc32sphn4p" class="animable" fill="#fafafa"/><path style="transform-origin:296.635px 299.115px" class="animable" opacity=".3" d="M309.37 250.93l3.81 2.2-29.27 94.17-3.82-2.2 29.28-94.17z" id="el4g7i9ak0cwh"/><path d="M388.46 248.3l12.54-7.24-29.27 94.17c-1.95 5.08-6.26 7.35-12.55 7.24z" style="transform-origin:380.09px 291.767px" id="el0rpm5fj8l5j" class="animable" fill="#ffc107"/><path d="M388.46 248.3l12.54-7.24-29.27 94.17c-2.19 5.37-6.62 7.42-12.55 7.24z" style="transform-origin:380.09px 291.77px" class="animable" opacity=".3" id="elv6bhhbx1beh"/><path d="M396.77 238.61c-2.33-1.37-7-.86-10.48 1.14s-4.38 4.72-2.05 6.09l4.22 2.46 12.54-7.24-3.81-2.21z" style="transform-origin:391.974px 243.071px" id="elelidi3jovft" class="animable" fill="#455a64"/><path d="M381.77 269.8c4.52.09 9.43-.48 11.62-4.22l2.91-9.32c-2.75 3.76-6.35 5.72-12 5.56z" style="transform-origin:389.035px 263.034px" id="eloklqgsrjcr" class="animable" fill="#e0e0e0"/><path d="M397.2 238.85c-.74 3.62-5.36 5.88-12.55 7.25l3.81 2.2c6.18-.71 10.26-3.21 12.55-7.24z" style="transform-origin:392.83px 243.575px" id="elseuwqsgb2n" class="animable" fill="#ffc107"/><path d="M257 200.56c-7.82.47-16.13 3.07-19.69 17.22s-13.25 61.62-14 68-.9 11.53 14.43 16.44c17.3 5.53 45.26 7.7 53.16 8.12 14.57.79 24.28-3.5 28.93-11.87s6-19.51-7.08-14.11c-13.88 5.74-19.7 5.88-19.7 5.88l2.66-8.56c-4.35 1.89-8 7.84-12.35 8.56-3.86.65-33.25-9.52-33.25-9.52l10-42.67s9.13-26.89-3.11-37.49z" style="transform-origin:273.084px 255.496px" id="elkgu3g1lm6vl" class="animable" fill="#ffa8a7"/><path d="M258.45 184.77a65.49 65.49 0 01-5.2 5.13c-3.51 3.42-6 6.41-7.63 11s-1.42 10.11 1.54 14 8 5.7 10.09 10c1 2.06 1.2 4.42 1.53 6.7.7 4.93 2.22 9.87 5.25 13.83 4.91 6.44 15.41 9.69 22.12 3.82a15.91 15.91 0 004.34-7.45 26.13 26.13 0 00-.37-17.58c-2-4.94-5.83-8.9-9.36-12.91-3.15-3.58-7.31-8.23-8-13.17 0 0-.13-9.19-.06-13.55 0-2.13 0-4.28-2.06-5.4a13.38 13.38 0 00-5.18-1.78c-2.82-.14-3.3.21-3.3.21a21.54 21.54 0 01-3.71 7.15z" style="transform-origin:268.22px 214.849px" id="elytywhwma41k" class="animable" fill="#37474f"/><path d="M398.94 264c-.91-3-4.28 2.63-5.76 11.22-1.41 8.22-3.35 16.81-3.35 16.81l-2.27 7s5.43-3.36 9.86-12.57 4.1-13.99 1.52-22.46z" style="transform-origin:394.194px 281.108px" id="elg6wuocin4xt" class="animable" fill="#ffa8a7"/></g></g><defs><filter id="active" height="200%"><feMorphology in="SourceAlpha" result="DILATED" operator="dilate" radius="2"/><feFlood flood-color="#32DFEC" flood-opacity="1" result="PINK"/><feComposite in="PINK" in2="DILATED" operator="in" result="OUTLINE"/><feMerge><feMergeNode in="OUTLINE"/><feMergeNode in="SourceGraphic"/></feMerge></filter><filter id="hover" height="200%"><feMorphology in="SourceAlpha" result="DILATED" operator="dilate" radius="2"/><feFlood flood-color="red" flood-opacity=".5" result="PINK"/><feComposite in="PINK" in2="DILATED" operator="in" result="OUTLINE"/><feMerge><feMergeNode in="OUTLINE"/><feMergeNode in="SourceGraphic"/></feMerge><feColorMatrix values="0 0 0 0 0 0 1 0 0 0 0 0 0 0 0 0 0 0 1 0"/></filter></defs></svg>