<svg class="animated" id="freepik_stories-bibliophile" xmlns="http://www.w3.org/2000/svg" viewBox="0 0 500 500" version="1.1"><style>@keyframes slideLeft{0%{opacity:0;transform:translateX(-30px)}to{opacity:1;transform:translateX(0)}}@keyframes slideDown{0%{opacity:0;transform:translateY(-30px)}to{opacity:1;transform:translateY(0)}}@keyframes zoomIn{0%{opacity:0;transform:scale(.5)}to{opacity:1;transform:scale(1)}}@keyframes slideRight{0%{opacity:0;transform:translateX(30px)}to{opacity:1;transform:translateX(0)}}@keyframes lightSpeedRight{60%{transform:skewX(10deg);opacity:1}80%{transform:skewX(-2deg)}}svg#freepik_stories-bibliophile:not(.animated)</style><g id="freepik--Floor--inject-15" class="animable" style="transform-origin:250px 391.075px;animation:1s 1 forwards cubic-bezier(.36,-.01,.5,1.38) slideLeft;animation-delay:0s"><path style="transform-origin:250px 391.075px" id="elvu118tbc6i" class="animable" fill="#263238" d="M29.7 391.07l55.08-.24 55.07-.09 110.15-.16 110.15.16 55.07.09 55.08.24-55.08.25-55.07.09-110.15.16-110.15-.16-55.07-.09-55.08-.25z"/></g><g id="freepik--Shadow--inject-15" class="animable" style="transform-origin:250px 440.28px;animation:1s 1 forwards cubic-bezier(.36,-.01,.5,1.38) slideDown;animation-delay:0s"><ellipse cx="250" cy="440.28" rx="204.27" ry="25.43" style="transform-origin:250px 440.28px" id="el4tfdq8amoe" class="animable" fill="#ebebeb"/></g><g id="freepik--Books--inject-15" class="animable" style="transform-origin:250.09px 330.387px;animation:1s 1 forwards cubic-bezier(.36,-.01,.5,1.38) zoomIn;animation-delay:0s"><path style="transform-origin:301.375px 358.675px" class="animable" fill="#ffc107" transform="rotate(180)" d="M198.52 338.38h205.71v40.59H198.52z" id="el5sbehfyktbh"/><path style="transform-origin:375.87px 358.675px" class="animable" fill="#37474f" transform="rotate(180)" d="M365.82 338.38h20.1v40.59h-20.1z" id="el7b4burjl7n"/><path style="transform-origin:354.175px 358.675px" class="animable" fill="#37474f" transform="rotate(180)" d="M349.98 338.38h8.39v40.59h-8.39z" id="elu61aukzihm8"/><path style="transform-origin:227.27px 358.675px" class="animable" fill="#37474f" transform="rotate(180)" d="M217.22 338.38h20.1v40.59h-20.1z" id="elovlrspykn0p"/><path style="transform-origin:153.695px 338.485px" class="animable" fill="#37474f" transform="rotate(-75.12)" d="M50.84 323.4h205.71v30.17H50.84z" id="elik3yz3ukb8h"/><path style="transform-origin:134.56px 410.485px" class="animable" fill="#ffc107" transform="rotate(-75.12)" d="M124.51 395.4h20.1v30.17h-20.1z" id="elmxl8wfw8bv"/><path style="transform-origin:172.73px 266.865px" class="animable" fill="#ffc107" transform="rotate(-75.12)" d="M162.68 251.78h20.1v30.17h-20.1z" id="el3w4wac32ncp"/><path style="transform-origin:274.095px 430.725px" class="animable" fill="#ffc107" transform="rotate(180)" d="M154.97 420.58h238.25v20.29H154.97z" id="el5euxcs6sl9t"/><path style="transform-origin:335.255px 430.725px" class="animable" fill="#a6a6a6" transform="rotate(180)" d="M330.4 420.58h9.71v20.29h-9.71z" id="el6lqtqf0yy92"/><path style="transform-origin:351.375px 430.725px" class="animable" fill="#a6a6a6" transform="rotate(180)" d="M346.52 420.58h9.71v20.29h-9.71z" id="elo711jb1otpd"/><path style="transform-origin:183.595px 430.725px" class="animable" fill="#a6a6a6" transform="rotate(180)" d="M178.74 420.58h9.71v20.29h-9.71z" id="elx2vs8a1jj5"/><path style="transform-origin:199.725px 430.725px" class="animable" fill="#a6a6a6" transform="rotate(180)" d="M194.87 420.58h9.71v20.29h-9.71z" id="el4j4bbfd1v1e"/><path style="transform-origin:248.79px 323.23px" id="elzbyhw86pcrq" class="animable" fill="#455a64" d="M177.44 308.09h142.7v30.28h-142.7z"/><path style="transform-origin:360.805px 323.23px" id="elex6hjszwik9" class="animable" fill="#455a64" d="M320.13 308.09h81.35v30.28h-81.35z"/><path style="transform-origin:248.79px 323.23px" id="elh45dfak22x6" class="animable" fill="#fff" d="M177.44 311.23h142.7v24h-142.7z"/><path d="M186.67 316.17q16.68-.26 33.37-.35l33.36-.11 33.37.11q16.68.09 33.36.35-16.68.25-33.36.36l-33.37.1-33.4-.11q-16.64-.09-33.33-.35z" style="transform-origin:253.4px 316.17px" id="elhguzidxpn7f" class="animable" fill="#dbdbdb"/><path d="M186.67 320.88q16.68-.25 33.37-.36l33.36-.1 33.37.1q16.68.11 33.36.36-16.68.25-33.36.35l-33.37.11-33.4-.11q-16.64-.09-33.33-.35z" style="transform-origin:253.4px 320.88px" id="elams46kz8ud" class="animable" fill="#dbdbdb"/><path d="M186.67 325.59q16.68-.25 33.37-.36l33.36-.1 33.37.1q16.68.09 33.36.36-16.68.26-33.36.35l-33.37.11-33.4-.11q-16.64-.09-33.33-.35z" style="transform-origin:253.4px 325.59px" id="el2ai4886qyq4" class="animable" fill="#dbdbdb"/><path d="M186.67 330.3q16.68-.26 33.37-.36l33.36-.11 33.37.11q16.68.09 33.36.36-16.68.26-33.36.35l-33.37.11-33.4-.11q-16.64-.09-33.33-.35z" style="transform-origin:253.4px 330.295px" id="el8bnb2u702vb" class="animable" fill="#dbdbdb"/><path style="transform-origin:249.735px 229.88px" id="eltpa4zrbjrm" class="animable" fill="#a6a6a6" d="M191.34 219.01h116.79v21.74H191.34z"/><path style="transform-origin:341.42px 229.88px" id="el0rvgbuun4sim" class="animable" fill="#a6a6a6" d="M308.13 219.01h66.58v21.74h-66.58z"/><path style="transform-origin:249.735px 229.885px" id="elfkgbdgw240h" class="animable" fill="#fff" d="M191.34 221.27h116.79v17.23H191.34z"/><path d="M198.9 224.81q13.66-.18 27.31-.25l27.31-.08 27.31.08q13.65.06 27.3.25-13.65.18-27.3.26l-27.31.07-27.31-.07q-13.65-.07-27.31-.26z" style="transform-origin:253.515px 224.81px" id="els27e6idz8re" class="animable" fill="#dbdbdb"/><path d="M198.9 228.19q13.66-.18 27.31-.25l27.31-.08 27.31.08q13.65.06 27.3.25-13.65.18-27.3.26l-27.31.07-27.31-.07q-13.65-.07-27.31-.26z" style="transform-origin:253.515px 228.19px" id="el90ee5zwi88a" class="animable" fill="#dbdbdb"/><path d="M198.9 231.57q13.66-.18 27.31-.25l27.31-.08 27.31.08q13.65.06 27.3.25-13.65.19-27.3.26l-27.31.07-27.31-.07q-13.65-.07-27.31-.26z" style="transform-origin:253.515px 231.57px" id="eld8kfkyvodke" class="animable" fill="#dbdbdb"/><path d="M198.9 235q13.66-.18 27.31-.25l27.31-.08 27.31.08q13.65.06 27.3.25-13.65.2-27.3.26l-27.31.07-27.31-.07q-13.65-.12-27.31-.26z" style="transform-origin:253.515px 235px" id="eljxzkf2yptwk" class="animable" fill="#dbdbdb"/><path style="transform-origin:125.485px 355.79px" id="eljtaniovgsx" class="animable" fill="#ffc107" d="M155.64 273.99L127.2 380.84l-16.22 60.92-15.65-4.17 16.22-60.92 28.44-106.85 15.65 4.17z"/><path style="transform-origin:125.485px 355.79px" class="animable" opacity=".1" d="M155.64 273.99L127.2 380.84l-16.22 60.92-15.65-4.17 16.22-60.92 28.44-106.85 15.65 4.17z" id="elftmbx311cgs"/><path style="transform-origin:133.595px 325.33px" class="animable" fill="#fff" transform="rotate(104.91)" d="M78.31 318.91h110.57v12.84H78.31z" id="elxmcim4s1su"/><path d="M149.62 279.79q-3.18 12.52-6.46 25l-6.6 25-6.7 25q-3.38 12.48-6.84 24.94 3.2-12.53 6.47-25l6.59-25 6.71-25q3.38-12.48 6.83-24.94z" style="transform-origin:136.32px 329.76px" id="elvu37632j9h8" class="animable" fill="#dbdbdb"/><path d="M147.19 279.14q-3.19 12.54-6.47 25l-6.59 25-6.71 25q-3.37 12.48-6.83 24.94 3.19-12.52 6.47-25l6.59-25 6.71-25q3.38-12.48 6.83-24.94z" style="transform-origin:133.89px 329.11px" id="elsvwlly0mubo" class="animable" fill="#dbdbdb"/><path d="M144.76 278.5q-3.19 12.53-6.47 25l-6.59 25-6.71 25q-3.37 12.48-6.83 24.93 3.18-12.53 6.46-25l6.6-25 6.7-25q3.37-12.43 6.84-24.93z" style="transform-origin:131.46px 328.465px" id="eli4o9daq97ug" class="animable" fill="#dbdbdb"/><path d="M142.32 277.85q-3.18 12.52-6.46 25l-6.6 25-6.7 25q-3.37 12.48-6.84 24.93 3.19-12.52 6.47-25l6.59-25 6.71-25q3.38-12.48 6.83-24.93z" style="transform-origin:129.02px 327.815px" id="el9fbg7a0rvvb" class="animable" fill="#dbdbdb"/><path style="transform-origin:317.045px 399.77px" class="animable" fill="#263238" transform="rotate(180)" d="M257.27 378.96h119.55v41.62H257.27z" id="el0k4jkhkhqlok"/><path style="transform-origin:215.285px 399.77px" class="animable" fill="#263238" transform="rotate(180)" d="M173.3 378.96h83.97v41.62H173.3z" id="elmrddh2y8srh"/><path style="transform-origin:317.045px 399.77px" class="animable" fill="#fff" transform="rotate(180)" d="M257.27 383.28h119.55v32.98H257.27z" id="elii7qg95y1p"/><path d="M369.08 409.48q-14 .25-27.95.35l-27.95.11-28-.11q-14-.09-28-.35 14-.25 28-.36l28-.1 27.95.1q13.98.11 27.95.36z" style="transform-origin:313.13px 409.48px" id="elquz2rynnplj" class="animable" fill="#dbdbdb"/><path d="M369.08 403q-14 .25-27.95.35l-27.95.11-28-.11q-14-.09-28-.35 14-.25 28-.36l28-.1 27.95.1q13.98.1 27.95.36z" style="transform-origin:313.13px 403px" id="eleolhj4pbkpc" class="animable" fill="#dbdbdb"/><path d="M369.08 396.54q-14 .25-27.95.35l-27.95.11-28-.11q-14-.09-28-.35 14-.26 28-.36l28-.11 27.95.11q13.98.09 27.95.36z" style="transform-origin:313.13px 396.535px" id="eltrg9kpmauo" class="animable" fill="#dbdbdb"/><path d="M369.08 390.07q-14 .26-27.95.35l-27.95.11-28-.11q-14-.09-28-.35 14-.27 28-.36l28-.11 27.95.11q13.98.09 27.95.36z" style="transform-origin:313.13px 390.065px" id="elj3h6jvbevl" class="animable" fill="#dbdbdb"/><path style="transform-origin:295.14px 294.03px" id="elw4y09z1ucv" class="animable" fill="#c7c7c7" d="M185.43 279.85h219.42v28.36H185.43z"/><path style="transform-origin:248.255px 294.15px" id="elaqeknls987h" class="animable" fill="#fff" d="M206.06 285.64h84.39v17.02h-84.39z"/><path style="transform-origin:350.43px 286.955px" id="el5bwr8aojp4g" class="animable" fill="#fff" d="M310.82 285.64h79.22v2.63h-79.22z"/><path style="transform-origin:350.43px 294.035px" id="elybl6ql1ghfs" class="animable" fill="#fff" d="M310.82 292.72h79.22v2.63h-79.22z"/><path style="transform-origin:350.43px 301.105px" id="el6naysyndk7e" class="animable" fill="#fff" d="M310.82 299.79h79.22v2.63h-79.22z"/><path style="transform-origin:281.5px 260.235px" id="elqgb8avjws6" class="animable" fill="#ffc107" d="M200.6 240.75h161.8v38.97H200.6z"/><path style="transform-origin:337.7px 260.235px" id="elvup996ri5b" class="animable" fill="#263238" d="M330.16 240.75h15.08v38.97h-15.08z"/><path style="transform-origin:317.345px 260.235px" id="elcs8tk1i6it9" class="animable" fill="#263238" d="M314.42 240.75h5.85v38.97h-5.85z"/></g><g id="freepik--Plant--inject-15" class="animable" style="transform-origin:74.3778px 366.9px;animation:1s 1 forwards cubic-bezier(.36,-.01,.5,1.38) zoomIn;animation-delay:0s"><path d="M78.08 364.13c6.35-13.06 17.46-19.76 30-16.05s14.46 21.16 5.12 25.57-18.7-8.47-23.64-11.11-11.48 1.59-11.48 1.59z" style="transform-origin:98.5685px 360.813px" id="elmtyl3qjprs9" class="animable" fill="#ffc107"/><path d="M71.93 398.87c0-1.58.1-3.15.15-4.72.11-3.14.22-6.29.34-9.43.21-5.74.83-11.38 3.21-16.68a25.83 25.83 0 0110.07-11.61 21.39 21.39 0 015.3-2.28 12.28 12.28 0 016.17-3.39 25.08 25.08 0 018.81-.22c.11 0 .1.17 0 .16a21.35 21.35 0 00-8.34.59 17.77 17.77 0 00-3.35 1.31 16.76 16.76 0 00-1.94 1.23 18 18 0 017.65.08 17.48 17.48 0 012.65.87 8.21 8.21 0 012.09-.18 12.39 12.39 0 012.71.39 20.55 20.55 0 015.15 2.25c.1.05 0 .19-.08.14a19.22 19.22 0 00-5-1.89 16.06 16.06 0 00-2.58-.38 13.79 13.79 0 00-1.44 0 16.58 16.58 0 018.09 8.07c0 .1-.1.18-.14.08A15.2 15.2 0 00101.1 355c-.28-.07-.56-.11-.84-.17.1.41.08.87.14 1.27.08.63.19 1.26.31 1.89a33.6 33.6 0 001 3.82 30.72 30.72 0 001.52 3.71 17.61 17.61 0 002.12 3.57c.07.09-.07.2-.13.1-.76-1.18-1.63-2.27-2.32-3.49a27.35 27.35 0 01-1.7-3.64 25.37 25.37 0 01-1.11-3.92c-.14-.7-.25-1.41-.33-2.12a4.67 4.67 0 01-.08-1.29 17 17 0 00-4.45-.1c.56 3.12 1.16 6.36 2.9 9.07.06.09-.1.17-.15.08a38.12 38.12 0 01-2.15-4.46 17.13 17.13 0 01-1.07-4.63 20.42 20.42 0 00-7.35 2.46 24.22 24.22 0 00-9.79 10.71A40.25 40.25 0 0074 383.21c-.42 6.67-.5 13.38-1.17 20 0 .43-.73.58-.81.09a22.92 22.92 0 01-.09-4.43z" style="transform-origin:92.2525px 376.929px" id="ellngnu7a0jie" class="animable" fill="#263238"/><path d="M86.61 355.39a7 7 0 011.44-1.33c.52-.43 1-.85 1.61-1.23a12 12 0 013.61-1.67c.1 0 .14.14 0 .16a9.41 9.41 0 00-3.56 1.75c-.53.39-1 .81-1.54 1.24a9.5 9.5 0 01-1.45 1.24c-.06.05-.18-.07-.11-.16z" style="transform-origin:89.9747px 353.361px" id="elxpdvlsyix6" class="animable" fill="#263238"/><path d="M106.87 360.12a37.37 37.37 0 012.91 3.85 23.12 23.12 0 012.17 4.3s0 .07-.08 0a50.94 50.94 0 00-5.12-8.07c-.07-.05.05-.2.12-.08z" style="transform-origin:109.339px 364.188px" id="elbxi5n8uacd" class="animable" fill="#263238"/><path d="M93.21 358.83a9.33 9.33 0 00.72 2.36 15.54 15.54 0 001.21 2.09s0 .09-.07.05a8.49 8.49 0 01-2-4.46c-.07-.11.12-.15.14-.04z" style="transform-origin:94.0973px 361.053px" id="eldq8vfaw4s7o" class="animable" fill="#263238"/><path d="M72.82 364.45s-9-11.3-26.34-7.3C30 361 22.37 391.2 39 394.82s13.73-24.37 19.8-29.12c4.5-3.48 10.91-2.7 14.02-1.25z" style="transform-origin:51.2593px 375.718px" id="el3e64tcojzo5" class="animable" fill="#ffc107"/><path d="M33.07 373.67a33.91 33.91 0 013.58-2.74 15.25 15.25 0 013.81-1.9 22 22 0 012.26-2.91 22.37 22.37 0 015.28-4.18h-3.28a15.27 15.27 0 00-5.35 1.34c-.1 0-.17-.11-.07-.15a23.82 23.82 0 015.34-1.61 14.53 14.53 0 012.71-.24c.49 0 1 0 1.46.09h.28a23.24 23.24 0 015-1.84l-.48-.13A22.55 22.55 0 0051 359a19.69 19.69 0 00-5.2.08c-.1 0-.13-.15 0-.17a32.94 32.94 0 015.25-.21 22.47 22.47 0 014.37.57 22.15 22.15 0 013.16-.36c6-.26 12.65 2 16.37 7s4.46 11.62 5.12 17.63a134.55 134.55 0 01.66 25.22c0 .5-.74.4-.75-.07-.23-7.13-.48-14.26-1.16-21.37-.32-3.29-.67-6.59-1.22-9.85a28.75 28.75 0 00-2.39-8.12 14.82 14.82 0 00-5.88-6.35 19.68 19.68 0 00-8.33-2.53 22.44 22.44 0 00-7.79.72 5.3 5.3 0 010 1.54 9.55 9.55 0 01-.38 1.9 10.41 10.41 0 01-.73 1.68c-.32.6-.72 1.13-1.08 1.7-.06.09-.2 0-.14-.1a7.91 7.91 0 001.35-3.42 13.15 13.15 0 00.21-1.77v-1.34a22.89 22.89 0 00-7.57 4c-.43.34-.83.7-1.23 1.06a8.65 8.65 0 011.47 1.81 17.61 17.61 0 011.63 2.75 23.27 23.27 0 011.61 6 .09.09 0 01-.17 0 17.43 17.43 0 00-2-5.72 23.52 23.52 0 00-1.54-2.54c-.29-.42-.59-.83-.91-1.23-.17-.21-.36-.43-.52-.66a23.89 23.89 0 00-4.92 6.93 11.88 11.88 0 012 2.92 28.16 28.16 0 011.71 3.55 57.82 57.82 0 012.07 7.07c0 .11-.14.14-.16 0a30 30 0 00-2.46-7 80.78 80.78 0 00-1.64-3.21 27.78 27.78 0 01-1.63-3 22.06 22.06 0 00-2 8c0 .11-.18.09-.17 0a28 28 0 013.9-12.34c-1.06.45-2.13.89-3.15 1.44a17.42 17.42 0 00-3.61 2.54c-.05.12-.15-.01-.08-.08z" style="transform-origin:57.0422px 383.883px" id="eluxeymz0cpuo" class="animable" fill="#263238"/><path d="M45.8 374.31c.52 1.71 1.18 3.38 1.65 5.11a19.55 19.55 0 01.76 5.1c0 .05-.07.05-.08 0a49.29 49.29 0 00-2.49-10.16.08.08 0 11.16-.05z" style="transform-origin:46.923px 379.404px" id="ellq2ng6cm4vl" class="animable" fill="#263238"/><path d="M34.81 370.06a9.35 9.35 0 012.3-1.64 15.56 15.56 0 012.66-.94c.1 0 .13.14 0 .16a10.22 10.22 0 00-2.56 1.05 20.15 20.15 0 00-2.36 1.45.05.05 0 11-.04-.08z" style="transform-origin:37.3083px 368.82px" id="elinhthwju1w" class="animable" fill="#263238"/><path d="M64.27 349.36s-1.65-20.3-16.75-26.88c-12.6-5.5-19.81 8.66-10.9 17.33 7.2 7.01 18.76 3.85 27.65 9.55z" style="transform-origin:48.4656px 335.303px" id="eltruqipee2uq" class="animable" fill="#ffc107"/><path d="M39.41 326.41a62.28 62.28 0 016.71 3.18 48.51 48.51 0 015.21 3.46c-.25-.52-.47-1.06-.72-1.56-.4-.78-.82-1.55-1.28-2.29A21.51 21.51 0 0046 325c-.07-.07 0-.19.12-.11a32.26 32.26 0 013.5 4.07 24.65 24.65 0 011.44 2.3 9.45 9.45 0 011 2.33c0 .05.11.08.17.13a49 49 0 017.2 7.05c0-.2-.08-.4-.13-.58-.28-1-.59-2-.92-2.95a25 25 0 00-2.72-5.92.08.08 0 11.14-.08A45.48 45.48 0 0159 337a21.29 21.29 0 011 3 12.42 12.42 0 01.5 2c.65.83 1.3 1.67 1.91 2.54 6.48 9.22 9.73 20.38 10.51 31.54a98.1 98.1 0 01.17 10 62.55 62.55 0 01-.89 10c0 .21-.37.14-.36-.06.07-2.94.38-5.86.43-8.79a86.34 86.34 0 00-.27-8.73 81.9 81.9 0 00-3.29-17.28A62 62 0 0061 345c-.64-.13-1.27-.3-1.9-.46l-2.25-.6a23.32 23.32 0 01-4.21-1.54c-.1-.05 0-.2.09-.15a13.41 13.41 0 004.27 1.47c1.18.23 2.41.39 3.59.66a54.35 54.35 0 00-3.51-4.61 26.38 26.38 0 01-8.58-.65 33.29 33.29 0 01-4.39-1.36c-1.52-.59-3-1.33-4.44-2-.11 0 0-.21.07-.15a25.1 25.1 0 008.7 2.85 52.89 52.89 0 008.14.67 53.61 53.61 0 00-3.36-3.55c-4-3.78-8.67-7.24-13.89-9.05-.07 0-.02-.16.08-.12z" style="transform-origin:56.222px 360.536px" id="el7vzt0cl4j63" class="animable" fill="#263238"/><path d="M51.69 326.47a24 24 0 011.85 2.71 14.32 14.32 0 011.33 3.15s0 .05-.06 0c-.5-1-.93-2-1.44-3a15.06 15.06 0 00-1.8-2.74c-.07-.09.05-.2.12-.12z" style="transform-origin:53.2094px 329.397px" id="elmape88lq2ps" class="animable" fill="#263238"/><path d="M37.66 333.23a15.52 15.52 0 003.09 1.29 30.45 30.45 0 003.15.85v.09a15.92 15.92 0 01-3.27-.72 28.7 28.7 0 01-3-1.37c-.16-.05-.07-.2.03-.14z" style="transform-origin:40.7213px 334.338px" id="elmh9f5yl1etc" class="animable" fill="#263238"/><path d="M76 345.7c.09.88 2.28-7.37 15-14.69 11.59-6.65 25.42-23.94 14.06-34.87-9.12-8.81-33.29 10.41-29.06 49.56z" style="transform-origin:92.4014px 319.898px" id="elqwzxk6niydn" class="animable" fill="#ffc107"/><path d="M67.22 393a224.62 224.62 0 012-25.65 115.34 115.34 0 015.39-23c1-2.68 2-5.32 3.21-7.92a19.23 19.23 0 01.05-3c.06-1.3.18-2.59.3-3.89s.25-2.59.41-3.88.43-2.58.48-3.87a.08.08 0 11.16 0 28.4 28.4 0 00-.46 4.11c-.09 1.25-.17 2.51-.2 3.76s0 2.51 0 3.77v1.42c1.2-2.54 2.49-5 3.88-7.47-.86-5.29.26-10.82 1.34-16 0-.1.18-.06.16.05a45.08 45.08 0 00-.84 8.2c0 2.17.05 4.34.06 6.51.31-.52.61-1 .92-1.55q2.49-4.06 5.3-7.92a12.54 12.54 0 01.13-3.77 28.86 28.86 0 01.92-4.12c.41-1.35.88-2.68 1.42-4s1.28-2.62 1.82-4a.08.08 0 11.15.07 19 19 0 00-1.6 4 34.07 34.07 0 00-1 4c-.27 1.34-.49 2.69-.68 4-.13.9-.21 1.83-.36 2.74a97.34 97.34 0 018.93-10.4.09.09 0 01.12.12 117.89 117.89 0 00-13 17.65l-.41.71c.71-.44 1.51-.79 2.17-1.16 1.24-.68 2.48-1.37 3.73-2s2.41-1.31 3.61-2c.62-.34 1.23-.7 1.86-1a15.66 15.66 0 002.16-1.2c.1-.07.2.08.1.13-1.23.68-2.31 1.68-3.5 2.44s-2.41 1.49-3.64 2.18c-2.27 1.27-4.74 2.18-7 3.49-1.55 2.71-3 5.49-4.29 8.32 1.35-.87 2.74-1.69 4.14-2.48.91-.5 1.81-1 2.73-1.49a12.92 12.92 0 002.57-1.55c.08-.07.19.05.11.12a23.48 23.48 0 01-4.9 3.41c-1.64 1-3.29 1.89-5 2.72-1.36 3-2.6 6-3.69 9.13-5.37 15.21-7.35 31.35-8.29 47.39-.28 4.78-.42 9.56-.48 14.34s.19 9.56.18 14.34c0 .14-.23.17-.25 0-.58-4.24-.68-8.55-.86-12.82s-.15-8.65-.06-12.98z" style="transform-origin:83.3199px 359.824px" id="eliq3vahoi5y" class="animable" fill="#263238"/><path d="M90.41 324.14a64.92 64.92 0 006.78-3.51 74.28 74.28 0 006.43-4.09s.08 0 0 .06a53.86 53.86 0 01-6.18 4.32 61.57 61.57 0 01-7 3.36c-.05.04-.13-.1-.03-.14z" style="transform-origin:97.0089px 320.414px" id="elz4hzb2k4xud" class="animable" fill="#263238"/><path d="M86.71 306.94c.19-.74.42-1.47.67-2.19v-.08c.16-.42.33-.82.5-1.23l.06-.15.09-.23-.12.42a2.17 2.17 0 01-.07.24 60.75 60.75 0 00-1.84 8.67c0 .09-.16.1-.15 0a28.84 28.84 0 01.86-5.45z" style="transform-origin:86.9398px 307.761px" id="elmfl9geqpp4" class="animable" fill="#263238"/><path style="transform-origin:72.365px 417.92px" id="elgrfm9pydsl6" class="animable" fill="#455a64" d="M53.74 396.07l.91 10.79 2.79 32.91H87.3l2.78-32.91.91-10.79H53.74z"/><path style="transform-origin:72.365px 401.465px" id="elgc9om0v1tqt" class="animable" fill="#263238" d="M53.74 396.07l.91 10.79h35.43l.91-10.79H53.74z"/><path style="transform-origin:72.365px 396.915px" class="animable" fill="#455a64" transform="rotate(180)" d="M50.81 391.74h43.11v10.35H50.81z" id="el1zjfs5s52l7"/></g><g id="freepik--Character--inject-15" class="animable" style="transform-origin:281.335px 148.477px;animation:1s 1 forwards cubic-bezier(.36,-.01,.5,1.38) slideRight;animation-delay:0s"><path d="M393.67 218.25c-2.1.76-64.19 2-66.53.56-.28-.15-1.29-20.69-1.29-20.69.08-.29-1-2.27-2.54-5-4.43-7.73-13.09-21.57-13.09-21.57l36.86-11.14 15.14 30.32 3.86 7.74s8.46 3.31 15.85 6.61a89.2 89.2 0 019.42 4.57c2.4 1.83 4.42 7.86 2.32 8.6z" style="transform-origin:352.384px 189.942px" id="elc04zpfdmz5g" class="animable" fill="#d3766a"/><path d="M393.67 218.25c-2.1.76-64.19 2-66.53.56-.28-.15-1.29-20.69-1.29-20.69.08-.29-1-2.27-2.54-5l38.91-2.39 3.86 7.74s8.46 3.31 15.85 6.61a89.2 89.2 0 019.42 4.57c2.4 1.83 4.42 7.86 2.32 8.6z" style="transform-origin:358.929px 205.102px" id="elou1dmikvoy" class="animable" fill="#fff"/><path d="M393.93 218.48c-2.16.77-64.34 1.83-66.74.38-.91-.55-2-10.12-1.34-20.74l40.09-.64s23.22 10.26 25.68 12.14 4.47 8.1 2.31 8.86z" style="transform-origin:360.248px 208.53px" id="elny2w6tmz819" class="animable" fill="#ffc107"/><path d="M343.46 219.56c-8.85 0-15.51-.25-16.27-.7-.91-.55-2-10.12-1.34-20.74h1z" style="transform-origin:334.554px 208.84px" class="animable" opacity=".1" id="el6czccp91zfg"/><path d="M393 216c-10.42-.08-52.49.6-62.8 1.31-.08 0-.08.07 0 .07 10.33.3 52.39-.71 62.81-1.21.21 0 .21-.17-.01-.17z" style="transform-origin:361.653px 216.714px" id="elmr4e5wtqwie" class="animable" fill="#263238"/><path d="M387.58 207.46a8.33 8.33 0 00-6.19 2.65 8.1 8.1 0 00-2.24 5.6c0 .06.12.06.13 0a9.65 9.65 0 018.3-8.12c.08-.01.08-.13 0-.13z" style="transform-origin:383.395px 211.607px" id="elqhrfkuct6v" class="animable" fill="#263238"/><path d="M369.23 198.47c-4.17 0-9 1.57-11.52 5-.1.13.1.27.22.2a57.76 57.76 0 0111.38-4.67.26.26 0 00-.08-.53z" style="transform-origin:363.61px 201.078px" id="elywm47hvhmd9" class="animable" fill="#263238"/><path d="M372.47 199.67c-4.17 0-9 1.57-11.52 5-.09.13.1.27.22.2a57.76 57.76 0 0111.38-4.72.26.26 0 00-.08-.48z" style="transform-origin:366.803px 202.279px" id="elvbg1qnqww1" class="animable" fill="#263238"/><path d="M375.71 200.87c-4.17 0-9 1.57-11.51 5-.1.13.09.27.21.2a57.6 57.6 0 0111.39-4.72.26.26 0 00-.09-.48z" style="transform-origin:370.05px 203.479px" id="elv6in7nhjuwg" class="animable" fill="#263238"/><path d="M379 202.07c-4.18 0-9 1.57-11.52 5-.1.13.09.27.21.2a57.6 57.6 0 0111.31-4.69.26.26 0 000-.51z" style="transform-origin:373.331px 204.679px" id="elcf948fh07q" class="animable" fill="#263238"/><path d="M332.67 207.38c-4.68.09-4.54 7.36.15 7.27s4.54-7.37-.15-7.27z" style="transform-origin:332.747px 211.015px" id="elvw54ybllc1" class="animable" fill="#263238"/><path d="M373.55 187.26c-2.14-1.71-4.78 0-6.05 1.88a22 22 0 00-3.6 10.74c0 .08.06.12.13.11a.5.5 0 00.75.33c2.94-2.11 6.34-4 8.54-6.94 1.28-1.72 2.25-4.5.23-6.12zm-5 9c-1.42 1.08-2.88 2.07-4.26 3.19a65.94 65.94 0 012.25-6.22 25.44 25.44 0 011.47-2.84c.89-1.39 4.92-5 5.41-.42.31 2.45-3.15 4.97-4.84 6.24z" style="transform-origin:369.306px 193.474px" id="elxtwtwwyqw4q" class="animable" fill="#263238"/><path d="M353.56 201.6c3.64.5 7.37-.6 10.93-1.22a.51.51 0 00.3-.76.12.12 0 000-.18 22 22 0 00-10.18-5c-2.21-.38-5.3.26-5.58 3s2.4 3.87 4.53 4.16zm-2.56-2.33c-2.89-3.53 2.48-3.91 4.09-3.56a21.64 21.64 0 013.06.94 65.28 65.28 0 016 2.76c-1.77.2-3.5.54-5.26.8-2.08.31-6.3 1.01-7.89-.94z" style="transform-origin:356.938px 198.033px" id="eljteq4tzyva" class="animable" fill="#263238"/><path d="M320.5 192.7l43.73-6.63s-21-41.89-34-64.62c-7.23-12.64-27-13.26-36.65 1.89C280.7 143.57 270.72 162.52 265 173l-9.92.85 2.14 16.2 33 7.38c12.63 1.52 21.49-21 21.7-20.58 1.55 2.98 8.58 15.85 8.58 15.85z" style="transform-origin:309.655px 154.736px" id="el0ke2ash8nlkk" class="animable" fill="#37474f"/><path d="M312.11 177c-1.25-2.55-2.22-5.25-3.32-7.86l-3.21-7.57c-2.14-5.11-4.36-10.2-6.44-15.33-1.17-2.88-2.24-5.8-3.33-8.71 0-.07-.14 0-.12 0 .85 2.75 1.73 5.5 2.65 8.22-.25-.47-.49-.94-.75-1.4-.7-1.25-1.42-2.49-2.15-3.73h-.07c.67 1.25 1.34 2.49 2 3.72.34.62.72 1.22 1.09 1.83a190.6 190.6 0 009.07 22.41c1.39 2.85 3 5.58 4.41 8.43.06.14.21.06.17-.01z" style="transform-origin:303.743px 157.293px" id="eld46xzg52gwu" class="animable" fill="#263238"/><path d="M321.48 184.92c-2.11-3.25-7.13-13.09-8.93-16.5-3.63-6.88-7-13.91-10.11-21-1.78-4-3.44-8.08-5.09-12.16 0 0-.05 0 0 0a231.38 231.38 0 008.63 21.6c3.2 7.07 13.55 26.11 15.41 28.17.03.05.15-.03.09-.11z" style="transform-origin:309.412px 160.153px" id="elfkshd8met7j" class="animable" fill="#263238"/><path d="M294.34 140.67c-3.77 6.73-7.62 13.41-11.4 20.13-1.91 3.39-3.83 6.79-5.72 10.19-.89 1.61-1.75 3.23-2.68 4.81a9 9 0 01-3.45 3.59 27 27 0 01-5.48 1.91c-2.13.62-4.24 1.29-6.38 1.88-.1 0-.05.17 0 .15 1.9-.51 3.82-1 5.74-1.42a49.46 49.46 0 005.21-1.41 8.29 8.29 0 003.86-2.67 31.16 31.16 0 002.71-4.51Q282.47 163 288 152.53c2.12-3.95 4.21-7.91 6.34-11.84.04-.02.01-.04 0-.02z" style="transform-origin:276.766px 161.997px" id="elp8dowm8e3" class="animable" fill="#263238"/><path d="M319.51 186.56c2.62-.48 5.3-.7 7.94-1l7.95-1c5.28-.69 23.27-3.56 24.63-4a.09.09 0 000-.17c-1.29 0-13.07 1.53-15.71 1.92-5.28.78-10.53 1.71-15.8 2.6-1.5.25-3 .54-4.5.81s-3 .59-4.5.78a.07.07 0 10-.01.06z" style="transform-origin:339.737px 183.49px" id="elmp3724ycgxp" class="animable" fill="#263238"/><path d="M345.73 232c-.7-2.11-38.18-51.64-40.74-52.59-.3-.13-17.05 11.8-17.05 11.8-.69.92-32.54-5.81-32.54-5.81l-.32 38.42 58-1.23s7.83 4.6 15 8.36a86.39 86.39 0 009.43 4.57c2.95.71 8.93-1.45 8.22-3.52z" style="transform-origin:300.434px 207.533px" id="elnaso1akoauj" class="animable" fill="#d3766a"/><path d="M337.56 235.48a82.57 82.57 0 01-9.43-4.57c-7.16-3.75-15-8.37-15-8.37l-12.91.28L280 190.2c4.43.79 7.74 1.26 8 1 0 0 16.75-11.92 17.05-11.79 2.56.95 40 50.47 40.74 52.59s-5.33 4.23-8.23 3.48z" style="transform-origin:312.926px 207.522px" id="elnlvvfg3090l" class="animable" fill="#fff"/><path d="M346.07 232c-.74-2.17-38.39-51.66-41-52.65-1-.37-9.19 4.69-17.11 11.79l24.31 31.88s22.43 11.88 25.43 12.65 9.11-1.47 8.37-3.67z" style="transform-origin:317.046px 207.578px" id="elncphexpqg8j" class="animable" fill="#ffc107"/><path d="M343.55 232.82c-6.52-8.14-32-41.59-37.85-50.13 0-.07 0-.11.06 0 6.63 7.93 31.87 41.58 37.93 50.07.12.14 0 .24-.14.06z" style="transform-origin:324.72px 207.769px" id="elodrvehfljy" class="animable" fill="#263238"/><path d="M333.48 233.87a8.35 8.35 0 01-1.75-6.51 8.07 8.07 0 013-5.22c.05 0 .12.05.07.1a9.69 9.69 0 00-1.24 11.55.06.06 0 01-.08.08z" style="transform-origin:333.225px 228.008px" id="elff7ig08wldb" class="animable" fill="#263238"/><path d="M315.06 225c-2.57-3.29-4.33-8-3.18-12.16 0-.16.27-.09.3 0a57.61 57.61 0 003.33 11.86.26.26 0 01-.45.3z" style="transform-origin:313.538px 218.932px" id="elxazhfbx6m1a" class="animable" fill="#263238"/><path d="M318 226.82c-2.57-3.28-4.33-8-3.18-12.16 0-.16.27-.09.29.05a58.27 58.27 0 003.34 11.86.26.26 0 01-.45.25z" style="transform-origin:316.464px 220.746px" id="elz36z52dsw2n" class="animable" fill="#263238"/><path d="M321 228.62c-2.57-3.28-4.33-8-3.18-12.15 0-.16.27-.1.29 0a58.27 58.27 0 003.34 11.86.26.26 0 01-.45.29z" style="transform-origin:319.476px 222.556px" id="elji9c1cadj" class="animable" fill="#263238"/><path d="M323.91 230.43c-2.57-3.29-4.33-8-3.18-12.16 0-.16.27-.09.29 0a58.27 58.27 0 003.34 11.86.26.26 0 01-.45.3z" style="transform-origin:322.388px 224.362px" id="elgtphs8lmyko" class="animable" fill="#263238"/><path d="M299.43 190.79c-2.82-3.73 3-8.12 5.8-4.38s-2.97 8.12-5.8 4.38z" style="transform-origin:302.328px 188.601px" id="elm804gqugdtj" class="animable" fill="#263238"/><path d="M313.6 231.38c.95-3.55.32-7.39.16-11a.51.51 0 00-.76-.38.1.1 0 00-.17 0 21.79 21.79 0 00-6.2 9.48c-.66 2.13-.41 5.29 2.26 5.91s4.11-1.94 4.71-4.01zm-2.6 2.25c-3.86 2.41-3.57-3-3-4.51a25.56 25.56 0 011.32-2.92 64.9 64.9 0 013.5-5.61c0 1.77.09 3.54.13 5.31-.02 2.1.14 6.39-1.95 7.73z" style="transform-origin:310.218px 227.708px" id="elp67piclz3nd" class="animable" fill="#263238"/><path d="M301.78 209.78c-2 1.91-.56 4.74 1.11 6.23a21.88 21.88 0 0010.19 4.93.11.11 0 00.13-.12.51.51 0 00.42-.71c-1.72-3.18-3.17-6.79-5.81-9.34-1.54-1.49-4.18-2.77-6.04-.99zm8.26 6.05c.88 1.54 1.68 3.11 2.62 4.62-2-1-4-1.84-5.89-3a23.76 23.76 0 01-2.63-1.83c-1.27-1.05-4.29-5.5.27-5.42 2.51.05 4.59 3.8 5.59 5.63z" style="transform-origin:307.239px 214.928px" id="elqahm11fbseb" class="animable" fill="#263238"/><path d="M272.05 176.48s-63.57-11.16-81.65-7.48c-25.22 5.11-29.86 34.94-11.15 46C203 229.12 298.4 226.39 298.4 226.39l-22.8-38.63s-35.07-7.39-66.87-6.32l63.6 9.72z" style="transform-origin:233.111px 197.429px" id="elafsnkbq4kvl" class="animable" fill="#37474f"/><path d="M277.12 190.25a.73.73 0 01-.05-.2v-.16c0-.05-.07-.25-.1-.38a7.51 7.51 0 00-.27-.75 7.87 7.87 0 00-.32-.74 4.79 4.79 0 00-.42-.68h-.18c-3.85-.72-30.06-4.46-33.95-4.91s-7.87-.81-11.81-1.14a233.34 233.34 0 00-23.65-.85l-2.22.06c-.15 0-.32-.08-.48-.12-.38-.09-.76-.18-1.14-.25-.71-.14-1.43-.24-2.14-.35-1.5-.23-3-.39-4.48-.67a.07.07 0 000 .14c1.49.33 3 .76 4.45 1.09l1.29.27c-2.89.16-5.77.38-8.66.64-.09 0-.09.15 0 .14 3.93-.23 7.88-.26 11.82-.19s7.81.15 11.71.38c7.89.45 15.77 1.16 23.63 2 4.41.46 31.13 4.36 35.56 4.54 0 .1.07.2.12.3s.25.48.38.71.25.45.39.67l.22.32.11.16a.74.74 0 01.12.17c-.05-.05.12-.11.07-.2z" style="transform-origin:235.026px 184.78px" id="elvaryoefffc9" class="animable" fill="#263238"/><path d="M290.17 224c-1.41-2.25-2.61-4.66-3.9-7l-3.9-7c-2.59-4.66-11.9-20.31-12.82-21.41-.06-.07-.18 0-.15.09.44 1.22 6.25 11.58 7.59 13.89 2.67 4.62 5.48 9.15 8.25 13.72.8 1.3 1.62 2.58 2.42 3.88s1.65 2.57 2.39 3.9c.04.13.17.05.12-.07z" style="transform-origin:279.788px 206.349px" id="el58qyfs7yufa" class="animable" fill="#263238"/><path d="M269.29 192.54c-2.33-.56-4.71-.92-7.07-1.37l-7.07-1.33q-7.07-1.31-14.17-2.51c-9.44-1.59-18.91-2.9-28.44-3.82-5.37-.51-10.76-.85-16.15-1.25-.11 0-.11.18 0 .18 9.6.43 19.18 1.73 28.68 3.1s18.79 2.83 28.17 4.41l7.93 1.36c2.69.47 5.37 1 8.08 1.38.1.02.14-.13.04-.15z" style="transform-origin:232.828px 187.476px" id="elszkpgrikgx" class="animable" fill="#263238"/><path d="M261.39 116.88c1.84 11.47 11.6 47.09 22 50.89 6.79 2.49 42.24.44 48-5.58 2.53-2.63-.53-25.05-4.42-24.77s-31.47 4.94-34.14 3.75-15.27-24.55-22.1-33.31c-10.52-13.49-10.73 0-9.34 9.02z" style="transform-origin:296.549px 135.48px" id="elbqy4za0rsv" class="animable" fill="#d3766a"/><path d="M265.52 138.32L285 126.94s-8-12.61-14.4-20.07-11.91-9.21-10.3 6.13a121.12 121.12 0 005.22 25.32z" style="transform-origin:272.509px 119.812px" id="el6z7oqnov0qa" class="animable" fill="#263238"/><path d="M276.81 176c-1.05.86-59.91-5.17-60.16-5.58-.68-1.11 11.58-37.41 19.51-50.87 10.16-17.26 14.78-18.35 17.55-19.1 3.54-1 9.34-.2 12 1.72 1.48 1.06 5.46 9.77 6.81 16.65 2.72 13.79 5.2 56.39 4.29 57.18z" style="transform-origin:246.812px 138.051px" id="els5had603hlr" class="animable" fill="#ffc107"/><path d="M264.25 110.36c-3.36.81-9.15-4.3-11.44-8.45-.16-.29.27-3.3.61-7 .2-2.23.37-4.73.36-7 0-.47 14.35 3.42 14.35 3.42a36.48 36.48 0 00-1.35 8.78 5.64 5.64 0 00.1.94.61.61 0 010 .15c.32 1.8.61 8.37-2.63 9.16z" style="transform-origin:260.453px 99.158px" id="elsgh1541rbv" class="animable" fill="#d3766a"/><path d="M254.66 88c.68 3.86 3.12 13.18 10.77 13.32a9.66 9.66 0 001.47-.08.63.63 0 000-.16 5.5 5.5 0 01-.11-.94 36.15 36.15 0 011.36-8.78s-10.38-2.83-13.49-3.36z" style="transform-origin:261.405px 94.6612px" id="elsorte76bsd" class="animable" fill="#263238"/><path d="M254.54 69c-2.52 4.68-2.77 19.6.13 23.52 4.2 5.69 12.53 7.82 17.72 2.43 5-5.21 5-24.67 1.64-28.38-4.97-5.49-15.77-4.51-19.49 2.43z" style="transform-origin:264.474px 80.549px" id="el4mln8ebllha" class="animable" fill="#d3766a"/><path d="M254.34 92.28h0" style="transform-origin:254.34px 92.28px" id="el7kmcylvhvaf" class="animable" fill="none" stroke="#f5a79e" stroke-linecap="round" stroke-linejoin="round" stroke-width="0"/><path d="M265.87 82.31s-.08 0-.08.09c0 1-.15 2.16-1.06 2.47v.06c1.12-.13 1.27-1.67 1.14-2.62z" style="transform-origin:265.32px 83.62px" id="elpdv3y3zm4g" class="animable" fill="#263238"/><path d="M265 81.24c-1.61-.16-1.81 3.08-.31 3.23s1.66-3.09.31-3.23z" style="transform-origin:264.796px 82.8547px" id="el70d3fb0n5tw" class="animable" fill="#263238"/><path d="M271.48 82.68s.08.06.08.1c-.1 1 0 2.16.85 2.55v.06c-1.11-.23-1.17-1.77-.93-2.71z" style="transform-origin:271.888px 84.035px" id="elziktfgeq2fb" class="animable" fill="#263238"/><path d="M272.44 81.69c1.63 0 1.55 3.22.05 3.24s-1.4-3.22-.05-3.24z" style="transform-origin:272.517px 83.31px" id="elwf0ti5we3yk" class="animable" fill="#263238"/><path d="M263.66 78.59a9.85 9.85 0 001.32-.14 2.15 2.15 0 001.33-.39.68.68 0 00.09-.83 1.7 1.7 0 00-1.63-.58 2.53 2.53 0 00-1.65.71.74.74 0 00.54 1.23z" style="transform-origin:264.718px 77.6044px" id="el3gil0e46r3d" class="animable" fill="#263238"/><path d="M274.07 79.42a11.63 11.63 0 01-1.26-.42 2.1 2.1 0 01-1.21-.66.68.68 0 01.09-.84 1.69 1.69 0 011.71-.21 2.5 2.5 0 011.46 1 .74.74 0 01-.79 1.13z" style="transform-origin:273.24px 78.2945px" id="el2acqrjx31jw" class="animable" fill="#263238"/><path d="M263.63 91.53c.22.25.44.59.8.64a2.77 2.77 0 001.1-.18v.05a1.36 1.36 0 01-1.31.47 1.06 1.06 0 01-.73-.94c.02-.06.1-.07.14-.04z" style="transform-origin:264.51px 92.0244px" id="eldcf4ieff5ur" class="animable" fill="#263238"/><path d="M264.86 88.59a3.4 3.4 0 002.19 1.66 3.87 3.87 0 001.23.13.87.87 0 00.23 0h.22a.25.25 0 00.22-.21v-.26c.07-.77.07-2 .07-2 .27.16 1.67.9 1.67.49a51.4 51.4 0 00-.69-10.35.1.1 0 00-.19 0c-.13 3.23.31 6.45.23 9.69a6.21 6.21 0 00-1.59-.59c-.11 0 .05 2.28 0 2.63a4.72 4.72 0 01-3.45-1.27c-.11-.06-.19 0-.14.08z" style="transform-origin:267.783px 84.1844px" id="el0mgpp0uu1xsr" class="animable" fill="#263238"/><path d="M267.84 90a4 4 0 01-1.7 1.16 1.83 1.83 0 01-1.11 0c-.79-.26-.76-1-.58-1.62a4.86 4.86 0 01.42-.94 5.3 5.3 0 002.97 1.4z" style="transform-origin:266.092px 89.9231px" id="el1vr6wpi5t6l" class="animable" fill="#263238"/><path d="M266.14 91.12a1.83 1.83 0 01-1.11 0c-.79-.26-.76-1-.58-1.62a1.87 1.87 0 011.69 1.62z" style="transform-origin:265.242px 90.3531px" id="elz8tro57k1u" class="animable" fill="#ff98b9"/><path d="M253.16 82.36c3.1.89 6.25-12.46 6.25-12.46a20.56 20.56 0 005.28 3.32 28.5 28.5 0 006.15 1.43c.47 0-4.31-3.64-4.31-3.64a23.73 23.73 0 009.31 1.86c2.39-.14 2.26-1.16 2.36-1.94s-2.95-8.84-12.62-9.77a11.87 11.87 0 00-10.25 4.59s-4.45 3-4.91 5.22c-.63 2.96-.53 10.45 2.74 11.39z" style="transform-origin:264.159px 71.766px" id="ellmkbxpb06ol" class="animable" fill="#263238"/><path d="M270.92 83.15c.16-2.28 1.52-4 3-3.93s2.6 2 2.44 4.32-1.52 4-3 3.92-2.6-2.04-2.44-4.31zm.55 0c-.14 2 .72 3.64 1.92 3.72s2.29-1.45 2.43-3.41-.72-3.64-1.92-3.73-2.28 1.49-2.43 3.46z" style="transform-origin:273.64px 83.3403px" id="elk8xb9xd4lf" class="animable" fill="#455a64"/><path d="M260.56 82.41a3.87 3.87 0 113.55 4.39 4 4 0 01-3.55-4.39zm.55 0a3.31 3.31 0 103.55-3.33 3.46 3.46 0 00-3.55 3.36z" style="transform-origin:264.401px 82.9404px" id="elphen4kcvojl" class="animable" fill="#455a64"/><path d="M268.1 82.57c2.11-.58 3 .17 3 .17l.37-.41s-1.09-1-3.53-.29z" style="transform-origin:269.705px 82.2627px" id="elhc9zrx4bm5h" class="animable" fill="#455a64"/><path d="M260.86 82.06l.14-.53c-.35-.09-8.66-2.25-9.57-2.36s-3.3 1-3.56 1.1l.24.5a10.45 10.45 0 013.21-1.06c.74.1 6.56 1.58 9.54 2.35z" style="transform-origin:254.435px 80.6112px" id="el68ka0zd8cpl" class="animable" fill="#455a64"/><path d="M255.27 81.32s-2.43-5.26-4.76-4.47-1.09 8 1.23 9.37a2.58 2.58 0 003.64-.75z" style="transform-origin:252.322px 81.7206px" id="el5mfiscrvq8j" class="animable" fill="#d3766a"/><path d="M250.91 78.9v.07c1.62 1 2.25 2.8 2.59 4.6a1.42 1.42 0 00-2-.76c-.06 0 0 .1 0 .1a1.58 1.58 0 011.61.85 7.48 7.48 0 01.57 1.54c.06.17.35.13.33-.06.42-2.24-.75-5.68-3.1-6.34z" style="transform-origin:252.502px 82.1538px" id="el9wlf3t5ttr5" class="animable" fill="#263238"/><path d="M289.4 154.9c0 3.69-10.46 2.76-13.07 3.08s-3 1-1.68 1.76a4.45 4.45 0 00.85.3c-4.06-.84-17.48-5.52-17.48-5.52s8.06-2.67 12.33-3.53 19.06.2 19.05 3.91z" style="transform-origin:273.71px 155.374px" id="eljou2pkqc49g" class="animable" fill="#d3766a"/><path d="M314.49 135.92a38.59 38.59 0 016.84-4.94c3.26-1.67 10.53-4.67 11.77-5.58l2.26-.51-7.36 49.45-19.36 8.66-35.1-3.64 4.93-46.68 2.29-.55s4.48.64 8.13.8 15.94-1.42 25.6 2.99z" style="transform-origin:304.45px 153.945px" id="el9dyfi9fwsqd" class="animable" fill="#fff"/><path style="transform-origin:291.815px 158.545px" id="elzlvosuj38i" class="animable" fill="#ffc107" d="M305.84 184.67l6.04-47.47-34.93-4.78-5.2 48.28 34.09 3.97z"/><path style="transform-origin:291.815px 158.545px" class="animable" opacity=".1" d="M305.84 184.67l6.04-47.47-34.93-4.78-5.2 48.28 34.09 3.97z" id="el7518tpa48lh"/><path style="transform-origin:311.33px 160.66px" id="eln7pl9kgtolb" class="animable" fill="#ffc107" d="M305.84 184.67l4.89-.55 6.09-47.47-4.94.55-6.04 47.47z"/><path style="transform-origin:323.505px 154.215px" id="elwi7beo7il4" class="animable" fill="#ffc107" d="M310.73 184.12l6.09-47.47 19.46-12.34-7.63 50.38-17.92 9.43z"/><path style="transform-origin:323.505px 154.215px" class="animable" opacity=".1" d="M310.73 184.12l6.09-47.47 19.46-12.34-7.63 50.38-17.92 9.43z" id="eljdk2lkd4q"/><path d="M237.34 112.47c-7.37 8.25-31.07 42.68-27.9 53.25 2.08 6.93 40.72 16.58 49 17.62 3.62.45 8.37-24.43 5.82-27.37s-25.83-3-26.47-5.89 11.42-28.8 13.4-38.52c3.47-16.92-9.19-4.33-13.85.91z" style="transform-origin:237.066px 143.188px" id="elc2jbtk9j8q5" class="animable" fill="#d3766a"/><path d="M297.41 169.55c-.17 3.26-5.23 4.35-5.58 4.41.31 0 4.81-.48 4.41 2.76s-4.85 5.08-4.85 5.08 1.49.77.14 3c-1.95 3.2-10 4.17-14.29 3.69s-19.76-5.44-22.11-6.25l2.87-27.72s13.42 4.68 17.48 5.52h.06a71.39 71.39 0 008.51 1.46c4.55.32 10.81-3 11.57.3.69 2.95-3.88 4.83-3.88 4.83s5.85-.45 5.67 2.92z" style="transform-origin:276.272px 171.563px" id="elstepmfbxjrm" class="animable" fill="#d3766a"/><path d="M291.51 166.62c-6.54 2.18-9.78 2-16.36.37a.11.11 0 00-.07.2c6.3 2.18 10.33 3 16.55-.26.3-.16.19-.41-.12-.31z" style="transform-origin:283.42px 167.851px" id="el2i6i4k2m7fo" class="animable" fill="#263238"/><path d="M292.08 173.81c-7 1.67-10.5 1.5-17.52.31-.1 0-.14.15 0 .17 6.79 1.75 10.83 2.47 17.59-.11.26-.12.25-.45-.07-.37z" style="transform-origin:283.401px 174.832px" id="elty5idhhmzme" class="animable" fill="#263238"/><path d="M291.3 181.76c-6.88 1.13-10.74 1.11-17.41-.92a.13.13 0 00-.08.24c6.59 2.73 11.4 2.79 17.5.89.41-.12.42-.28-.01-.21z" style="transform-origin:282.684px 182.06px" id="elo4hmzdtj41e" class="animable" fill="#263238"/><path d="M335.93 138.05c2.19 3.12 7 6.64 7.77 9.36a3.24 3.24 0 01-1.2 3.68s3 .91 3.33 3.5c.17 1.33-1.81 2.77-1.81 2.77a3.86 3.86 0 012.52 3.15c.12 1.84-1.88 3-1.88 3s1.91 1.85 1.42 3.77c-1 3.9-16.63 6.57-20 1.22-1.58-2.5 2.28-2.94 2.28-2.94s-5.71-.7-6.34-3.91 4.41-3.49 4.41-3.49-5.52-.73-5.84-4.13 4.76-2.95 4.76-2.95-3.88-1.76-3.53-4.42c.58-4.39 8.06-.27 11.36-1.68l.93-6z" style="transform-origin:333.56px 154.778px" id="elzoesk8i95z8" class="animable" fill="#d3766a"/><path d="M339.91 142.44c-1.82-3.13 1.62-8 .31-11.22-1.77-4.4-6.14.95-6.15 7.77l.93 5.3z" style="transform-origin:337.298px 136.954px" id="elqd1gtphmasn" class="animable" fill="#d3766a"/><path d="M344.37 163.74c.05 0 .08.06 0 .08a27.52 27.52 0 01-16.29 1.8c-.17 0-.19-.34 0-.33a56.26 56.26 0 0016.29-1.55z" style="transform-origin:336.182px 164.934px" id="elro6cfv5yj6" class="animable" fill="#100e3a"/><path d="M344.1 157.38c.06 0 .09.08 0 .11a25.83 25.83 0 01-17.9.85c-.2-.07-.31-.34-.07-.28 4.07 1.08 13 .61 17.97-.68z" style="transform-origin:335.075px 158.463px" id="elhu87rikgmru" class="animable" fill="#100e3a"/><path d="M324.93 150.81c5.76 1.76 11.5 1.5 17.37.38.07 0 .09.1 0 .13-2.72 1.33-6.53 1.65-9.52 1.65a15.9 15.9 0 01-7.94-2c-.07.03-.03-.2.09-.16z" style="transform-origin:333.583px 151.888px" id="elrh8s3mns39g" class="animable" fill="#100e3a"/><path d="M223.63 127.27l20.87 8.65s5.21-14 7.26-23.61.11-15.08-11.17-4.49a121.51 121.51 0 00-16.96 19.45z" style="transform-origin:238.053px 118.985px" id="el74mef97djy" class="animable" fill="#263238"/></g><g id="freepik--Hearts--inject-15" class="animable" style="transform-origin:293.83px 61.1121px;animation:1s 1 forwards cubic-bezier(.36,-.01,.5,1.38) lightSpeedRight;animation-delay:0s"><path d="M307.43 61.73c-.72 4.49-4.59 8.24-4.59 8.24s-5.32-.88-8.46-4.18c-2.63-2.74-2.7-6.57-.4-8.13 3.3-2.24 6.21 3.81 6.21 3.81s-1.05-6.63 2.94-6.67c2.78-.02 4.87 3.2 4.3 6.93z" style="transform-origin:299.926px 62.385px" id="elf17d7r7bkdh" class="animable" fill="#ffc107"/><path d="M289.4 81.06a12.47 12.47 0 01-6.34 2.6 12.48 12.48 0 01-2.9-6.2c-.25-2.74 1.44-4.95 3.45-4.79 2.88.22 1.8 5 1.8 5s2.41-4.23 4.68-2.45c1.59 1.22 1.34 3.98-.69 5.84z" style="transform-origin:285.63px 78.1609px" id="elpqk7rnphlk" class="animable" fill="#ffc107"/><path d="M286.86 42a7.45 7.45 0 01-2.78 3 7.48 7.48 0 01-3.16-2.62c-.84-1.43-.48-3.07.65-3.5 1.62-.61 2.25 2.25 2.25 2.25s.23-2.92 1.92-2.53c1.18.26 1.76 1.83 1.12 3.4z" style="transform-origin:283.791px 41.7821px" id="eluzs15zvhc2c" class="animable" fill="#ffc107"/></g><defs><filter id="active" height="200%"><feMorphology in="SourceAlpha" result="DILATED" operator="dilate" radius="2"/><feFlood flood-color="#32DFEC" flood-opacity="1" result="PINK"/><feComposite in="PINK" in2="DILATED" operator="in" result="OUTLINE"/><feMerge><feMergeNode in="OUTLINE"/><feMergeNode in="SourceGraphic"/></feMerge></filter><filter id="hover" height="200%"><feMorphology in="SourceAlpha" result="DILATED" operator="dilate" radius="2"/><feFlood flood-color="red" flood-opacity=".5" result="PINK"/><feComposite in="PINK" in2="DILATED" operator="in" result="OUTLINE"/><feMerge><feMergeNode in="OUTLINE"/><feMergeNode in="SourceGraphic"/></feMerge><feColorMatrix values="0 0 0 0 0 0 1 0 0 0 0 0 0 0 0 0 0 0 1 0"/></filter></defs></svg>