<svg class="animated" id="freepik_stories-bibliophile" xmlns="http://www.w3.org/2000/svg" viewBox="0 0 500 500" version="1.1"><style>@keyframes zoomOut{0%{opacity:0;transform:scale(1.5)}to{opacity:1;transform:scale(1)}}@keyframes fadeIn{0%{opacity:0}to{opacity:1}}@keyframes slideLeft{0%{opacity:0;transform:translateX(-30px)}to{opacity:1;transform:translateX(0)}}svg#freepik_stories-bibliophile:not(.animated)</style><g id="freepik--Shadow--inject-2" class="animable" style="transform-origin:250px 416.24px;animation:1s 1 forwards cubic-bezier(.36,-.01,.5,1.38) zoomOut;animation-delay:0s"><ellipse id="freepik--path--inject-2" cx="250" cy="416.24" rx="193.89" ry="11.32" style="transform-origin:250px 416.24px" class="animable" fill="#f5f5f5"/></g><g id="freepik--Books--inject-2" class="animable" style="transform-origin:257.96px 321.625px;animation:1s 1 forwards cubic-bezier(.36,-.01,.5,1.38) fadeIn;animation-delay:0s"><path d="M191.56 366.35H391.5v50.14H191.56a3.88 3.88 0 01-3.88-3.88v-42.38a3.88 3.88 0 013.88-3.88z" style="transform-origin:289.59px 391.42px" class="animable" fill="#ffc107" transform="rotate(180)" id="elbnzdm7ey53s"/><path d="M191.56 366.35H391.5v50.14H191.56a3.88 3.88 0 01-3.88-3.88v-42.38a3.88 3.88 0 013.88-3.88z" style="transform-origin:289.59px 391.42px" class="animable" opacity=".2" transform="rotate(180)" id="elx8053dhfjae"/><path style="transform-origin:251.995px 391.42px" class="animable" opacity=".2" transform="rotate(180)" d="M236.7 366.35h30.59v50.14H236.7z" id="el92g9s6xkn54"/><path style="transform-origin:288.195px 391.42px" class="animable" opacity=".2" transform="rotate(180)" d="M280.44 366.35h15.51v50.14h-15.51z" id="el77pdcba1lzf"/><path d="M121.46 366.35h66.22v50.14h-66.22a3.9 3.9 0 01-3.9-3.9v-42.34a3.9 3.9 0 013.9-3.9z" style="transform-origin:152.62px 391.42px" id="elge6haec6mrl" class="animable" fill="#ffc107"/><path d="M117.56 371.74h57.93a5.09 5.09 0 015.09 5.09V406a5.09 5.09 0 01-5.09 5.09h-57.93v-39.35z" style="transform-origin:149.07px 391.415px" class="animable" fill="#fff" opacity=".9" id="el3qy7qf2gcde"/><circle cx="363.49" cy="391.42" r="14.34" style="transform-origin:363.49px 391.42px" class="animable" opacity=".2" id="el066cpqq2h12p"/><path d="M206 330h200v36.39H206a3.88 3.88 0 01-3.88-3.88v-28.67A3.88 3.88 0 01206 330z" style="transform-origin:304.06px 348.195px" class="animable" fill="#263238" transform="rotate(180)" id="ell9gj044pvo"/><path d="M206 330h200v36.39H206a3.88 3.88 0 01-3.88-3.88v-28.67A3.88 3.88 0 01206 330z" style="transform-origin:304.06px 348.195px" class="animable" opacity=".2" transform="rotate(180)" id="elhha07sjle67"/><path d="M135.93 330h66.22v36.39h-66.22a3.9 3.9 0 01-3.9-3.9v-28.63a3.9 3.9 0 013.9-3.86z" style="transform-origin:167.09px 348.195px" id="el2exr9w95x28" class="animable" fill="#263238"/><path d="M132 335.35h58a5.09 5.09 0 015.09 5.09v15.45A5.09 5.09 0 01190 361h-58v-25.65z" style="transform-origin:163.545px 348.175px" class="animable" fill="#fff" opacity=".9" id="elg18dky7qner"/><rect x="239.83" y="338.58" width="148.28" height="19.16" rx="4.19" style="transform-origin:313.97px 348.16px" class="animable" fill="#ffc107" opacity=".3" transform="rotate(180)" id="el7knsmgzjzdh"/><path style="transform-origin:212.395px 348.155px" class="animable" fill="#ffc107" opacity=".3" transform="rotate(180)" d="M209.74 329.96h5.31v36.39h-5.31z" id="elpswpllru5uh"/><path style="transform-origin:222.095px 348.155px" class="animable" fill="#ffc107" opacity=".3" transform="rotate(180)" d="M219.44 329.96h5.31v36.39h-5.31z" id="elmmtg9pdxrp"/><path d="M183.92 292.42h199.93V330H183.92a3.88 3.88 0 01-3.88-3.88V296.3a3.88 3.88 0 013.88-3.88z" style="transform-origin:281.945px 311.21px" class="animable" fill="#ffc107" transform="rotate(180)" id="elagvokid8djh"/><path d="M183.92 292.42h199.93V330H183.92a3.88 3.88 0 01-3.88-3.88V296.3a3.88 3.88 0 013.88-3.88z" style="transform-origin:281.945px 311.21px" class="animable" opacity=".3" transform="rotate(180)" id="elb9y8c3629gp"/><path style="transform-origin:263.76px 311.19px" class="animable" fill="#fff" opacity=".9" transform="rotate(180)" d="M229.05 292.42h69.42v37.54h-69.42z" id="elcbbany1660g"/><path style="transform-origin:345.89px 311.19px" class="animable" fill="#fff" opacity=".9" transform="rotate(180)" d="M328.29 292.42h35.2v37.54h-35.2z" id="el31443y3jadz"/><path d="M113.82 292.42H180V330h-66.18a3.9 3.9 0 01-3.9-3.9v-29.78a3.9 3.9 0 013.9-3.9z" style="transform-origin:144.96px 311.21px" id="eltgub6etbyd9" class="animable" fill="#ffc107"/><path d="M109.92 297.8h57.93a5.09 5.09 0 015.09 5.09v16.59a5.09 5.09 0 01-5.09 5.09h-57.93V297.8z" style="transform-origin:141.43px 311.185px" class="animable" fill="#fff" opacity=".9" id="el7g2n1e2w6l6"/><path d="M198.38 267.52h199.93v24.9H198.38a3.88 3.88 0 01-3.88-3.88V271.4a3.88 3.88 0 013.88-3.88z" style="transform-origin:296.405px 279.97px" class="animable" fill="#ffc107" transform="rotate(180)" id="el1uxs86ktvrp"/><path d="M198.38 267.52h199.93v24.9H198.38a3.88 3.88 0 01-3.88-3.88V271.4a3.88 3.88 0 013.88-3.88z" style="transform-origin:296.405px 279.97px" class="animable" fill="#fff" opacity=".3" transform="rotate(180)" id="elw079kreqdo"/><path d="M198.38 267.52h199.93v24.9H198.38a3.88 3.88 0 01-3.88-3.88V271.4a3.88 3.88 0 013.88-3.88z" style="transform-origin:296.405px 279.97px" class="animable" opacity=".2" transform="rotate(180)" id="el9zawxo0paer"/><path d="M128.28 267.52h66.22v24.9h-66.22a3.9 3.9 0 01-3.9-3.9v-17.1a3.9 3.9 0 013.9-3.9z" style="transform-origin:159.44px 279.97px" id="elwq62mfzjab" class="animable" fill="#ffc107"/><path d="M128.28 267.52h66.22v24.9h-66.22a3.9 3.9 0 01-3.9-3.9v-17.1a3.9 3.9 0 013.9-3.9z" style="transform-origin:159.44px 279.97px" class="animable" fill="#fff" opacity=".3" id="elwbxymm5vpun"/><path d="M124.38 272.91h57.92a5.09 5.09 0 015.09 5.09v4a5.09 5.09 0 01-5.09 5h-57.92v-14.09z" style="transform-origin:155.885px 279.955px" class="animable" fill="#fff" opacity=".9" id="elb5v09hwfgn7"/><path style="transform-origin:257.71px 279.965px" class="animable" fill="#263238" opacity=".4" transform="rotate(180)" d="M212.4 274.08h90.62v11.77H212.4z" id="el07cegx4y9qn6"/><path d="M228.9 259.28h28.59v8.25H228.9a.64.64 0 01-.64-.64v-7a.64.64 0 01.64-.61z" style="transform-origin:242.875px 263.405px" id="el60k9mv0rmku" class="animable" fill="#ffc107"/><path d="M228.9 259.28h28.59v8.25H228.9a.64.64 0 01-.64-.64v-7a.64.64 0 01.64-.61z" style="transform-origin:242.875px 263.405px" class="animable" opacity=".2" id="elz0j2ptq35g"/><path d="M258.14 259.28H269v8.25h-10.9a.64.64 0 01-.64-.64v-7a.64.64 0 01.68-.61z" style="transform-origin:263.23px 263.404px" class="animable" fill="#ffc107" transform="rotate(180)" id="el4shsbrygocm"/><path d="M258.66 260.17h9.53a.84.84 0 01.84.84v4.8a.84.84 0 01-.84.84h-9.53v-6.48z" style="transform-origin:263.845px 263.41px" class="animable" fill="#fff" opacity=".9" transform="rotate(180)" id="elzar7q5nlmd"/><path d="M226.52 253.29h28.59v6h-28.59a.64.64 0 01-.64-.64v-4.71a.64.64 0 01.64-.65z" style="transform-origin:240.495px 256.29px" id="elxla3olppze" class="animable" fill="#263238"/><path d="M226.52 253.29h28.59v6h-28.59a.64.64 0 01-.64-.64v-4.71a.64.64 0 01.64-.65z" style="transform-origin:240.495px 256.29px" class="animable" opacity=".2" id="elsihc0eue52j"/><path d="M255.76 253.29h10.9v6h-10.9a.64.64 0 01-.64-.64v-4.71a.64.64 0 01.64-.65z" style="transform-origin:260.89px 256.29px" class="animable" fill="#263238" transform="rotate(180)" id="ela6xs8ys4vj"/><path d="M256.28 254.18h9.53a.84.84 0 01.84.84v2.54a.84.84 0 01-.84.84h-9.53v-4.22z" style="transform-origin:261.465px 256.29px" class="animable" fill="#fff" opacity=".9" transform="rotate(180)" id="elde8lobt8mup"/><path d="M230.16 247.12h28.59v6.18h-28.59a.64.64 0 01-.64-.64v-4.9a.64.64 0 01.64-.64z" style="transform-origin:244.135px 250.21px" id="elzqun7iy8y7g" class="animable" fill="#ffc107"/><path d="M230.16 247.12h28.59v6.18h-28.59a.64.64 0 01-.64-.64v-4.9a.64.64 0 01.64-.64z" style="transform-origin:244.135px 250.21px" class="animable" opacity=".3" id="elm8nmzpngsf"/><path d="M259.39 247.12h10.9v6.18h-10.9a.64.64 0 01-.64-.64v-4.89a.64.64 0 01.64-.65z" style="transform-origin:264.52px 250.21px" class="animable" fill="#ffc107" transform="rotate(180)" id="el3sfyqm57aue"/><path d="M259.92 248h9.53a.84.84 0 01.84.84v2.73a.84.84 0 01-.84.84h-9.53V248z" style="transform-origin:265.105px 250.205px" class="animable" fill="#fff" opacity=".9" transform="rotate(180)" id="elgrkm8zxxy36"/><path d="M227.78 243h28.59v4.1h-28.59a.64.64 0 01-.64-.64v-2.82a.64.64 0 01.64-.64z" style="transform-origin:241.755px 245.05px" id="elj6ykdiq246s" class="animable" fill="#ffc107"/><path d="M227.78 243h28.59v4.1h-28.59a.64.64 0 01-.64-.64v-2.82a.64.64 0 01.64-.64z" style="transform-origin:241.755px 245.05px" class="animable" fill="#fff" opacity=".3" id="ela4d1xyrwiev"/><path d="M227.78 243h28.59v4.1h-28.59a.64.64 0 01-.64-.64v-2.82a.64.64 0 01.64-.64z" style="transform-origin:241.755px 245.05px" class="animable" opacity=".2" id="elzz35axr6fma"/><path d="M257 243h10.9v4.1H257a.64.64 0 01-.64-.64v-2.81a.64.64 0 01.64-.65z" style="transform-origin:262.13px 245.05px" class="animable" fill="#ffc107" transform="rotate(180)" id="el58yrqmr3mlf"/><path d="M257 243h10.9v4.1H257a.64.64 0 01-.64-.64v-2.81a.64.64 0 01.64-.65z" style="transform-origin:262.13px 245.05px" class="animable" fill="#fff" opacity=".3" transform="rotate(180)" id="elni7f0rxeh3"/><path d="M257.54 243.91h9.53a.84.84 0 01.84.84v.65a.84.84 0 01-.84.84h-9.53v-2.32-.01z" style="transform-origin:262.725px 245.075px" class="animable" fill="#fff" opacity=".9" transform="rotate(180)" id="el23tbqaapsso"/><path d="M226.52 237h28.59v6h-28.59a.64.64 0 01-.64-.64v-4.71a.64.64 0 01.64-.65z" style="transform-origin:240.495px 240px" id="elwlym2ntydj" class="animable" fill="#263238"/><path d="M226.52 237h28.59v6h-28.59a.64.64 0 01-.64-.64v-4.71a.64.64 0 01.64-.65z" style="transform-origin:240.495px 240px" class="animable" opacity=".2" id="elbabg9rx57md"/><path d="M255.76 237H263v6h-7.27a.64.64 0 01-.64-.64v-4.71a.64.64 0 01.67-.65z" style="transform-origin:259.045px 240px" class="animable" fill="#263238" transform="rotate(180)" id="el0syev4tsmhpf"/><path d="M256.28 237.92h5.9a.84.84 0 01.84.84v2.54a.84.84 0 01-.84.84h-5.9v-4.22z" style="transform-origin:259.65px 240.03px" class="animable" fill="#fff" opacity=".9" transform="rotate(180)" id="el5h1r4dleqeu"/><path d="M230.16 230.85h28.59V237h-28.59a.64.64 0 01-.64-.64v-4.9a.64.64 0 01.64-.61z" style="transform-origin:244.135px 233.925px" id="elt7iombtv1jj" class="animable" fill="#ffc107"/><path d="M230.16 230.85h28.59V237h-28.59a.64.64 0 01-.64-.64v-4.9a.64.64 0 01.64-.61z" style="transform-origin:244.135px 233.925px" class="animable" opacity=".3" id="elfd2s5h92gf"/><path d="M259.39 230.85h7.27V237h-7.27a.64.64 0 01-.64-.64v-4.89a.64.64 0 01.64-.62z" style="transform-origin:262.705px 233.925px" class="animable" fill="#ffc107" transform="rotate(180)" id="elhrwoy023kks"/><path d="M259.92 231.74h5.9a.84.84 0 01.84.84v2.73a.84.84 0 01-.84.84h-5.9v-4.41z" style="transform-origin:263.29px 233.945px" class="animable" fill="#fff" opacity=".9" transform="rotate(180)" id="ele353lhbcq5n"/><path d="M227.78 226.76h28.59v4.1h-28.59a.64.64 0 01-.64-.64v-2.82a.64.64 0 01.64-.64z" style="transform-origin:241.755px 228.81px" id="el199navy33ui" class="animable" fill="#ffc107"/><path d="M227.78 226.76h28.59v4.1h-28.59a.64.64 0 01-.64-.64v-2.82a.64.64 0 01.64-.64z" style="transform-origin:241.755px 228.81px" class="animable" fill="#fff" opacity=".3" id="el4exeuv5ydoq"/><path d="M227.78 226.76h28.59v4.1h-28.59a.64.64 0 01-.64-.64v-2.82a.64.64 0 01.64-.64z" style="transform-origin:241.755px 228.81px" class="animable" opacity=".2" id="el0mg1836anvio"/><path d="M257 226.76h7.27v4.1H257a.64.64 0 01-.64-.64v-2.82a.64.64 0 01.64-.64z" style="transform-origin:260.315px 228.81px" class="animable" fill="#ffc107" transform="rotate(180)" id="el826xly1hygu"/><path d="M257 226.76h7.27v4.1H257a.64.64 0 01-.64-.64v-2.82a.64.64 0 01.64-.64z" style="transform-origin:260.315px 228.81px" class="animable" fill="#fff" opacity=".3" transform="rotate(180)" id="elh1llkia4jqj"/><path d="M257.54 227.64h5.9a.84.84 0 01.84.84v.65a.84.84 0 01-.84.84h-5.9v-2.32-.01z" style="transform-origin:260.91px 228.805px" class="animable" fill="#fff" opacity=".9" transform="rotate(180)" id="el2xv8m6auteb"/></g><g id="freepik--Character--inject-2" class="animable" style="transform-origin:145.075px 235.788px;animation:1s 1 forwards cubic-bezier(.36,-.01,.5,1.38) slideLeft;animation-delay:0s"><path style="transform-origin:106.13px 326.645px" id="eldoea5rjg6j" class="animable" fill="#ffc3bd" d="M106.75 336.5l-6.6-3.31 5.36-16.4 6.6 3.31-5.36 16.4z"/><path d="M100.73 330.61l8.1 1.7a.54.54 0 01.44.61l-1 6.49a1.3 1.3 0 01-1.53 1c-2.81-.64-4.13-1.09-7.69-1.84-2.19-.46-9.76-2-12.68-3s-1.85-3.87-.52-3.7c6 .74 11.13.07 13.5-1.1a2.1 2.1 0 011.38-.16z" style="transform-origin:96.8927px 335.497px" id="el59hp1qkjc43" class="animable" fill="#263238"/><path style="transform-origin:107.275px 322.68px" class="animable" opacity=".2" d="M112.11 320.11l-6.6-3.31-3.07 9.41 6.91 2.35 2.76-8.45z" id="elxy5ee5a8zms"/><path d="M179 237.43s-56.59 5.48-61.32 26.09c-6.81 29.61-16 57.75-16 57.75l12.66 2.23c1.94-8.43 16.37-38 23.14-57.93 15.33-2.29 56.31 6.41 62.45-5.25a44.31 44.31 0 004.89-19.11z" style="transform-origin:153.25px 280.465px" id="elrvqnlys1d7" class="animable" fill="#ffc107"/><path d="M179 237.43s-56.59 5.48-61.32 26.09c-6.81 29.61-16 57.75-16 57.75l12.66 2.23c1.94-8.43 16.37-38 23.14-57.93 15.33-2.29 56.31 6.41 62.45-5.25a44.31 44.31 0 004.89-19.11z" style="transform-origin:153.25px 280.465px" class="animable" opacity=".3" id="elpi16m77b8rq"/><path style="transform-origin:108.39px 322.325px" id="ela21r230upwo" class="animable" fill="#ffc107" d="M115.09 327.98l-14.8-5.36.71-5.95 15.49 4.08-1.4 7.23z"/><path d="M97.91 331.33a8.61 8.61 0 002 .14.18.18 0 00.16-.1.19.19 0 000-.18c-.2-.21-2-2-2.9-1.88a.67.67 0 00-.5.4.94.94 0 000 1 2 2 0 001.24.62zm1.56-.2c-1.34 0-2.28-.25-2.55-.66a.6.6 0 010-.62.29.29 0 01.23-.2c.53-.09 1.6.77 2.32 1.48z" style="transform-origin:98.3093px 330.392px" id="elfwg32bu8685" class="animable" fill="#ffc107"/><path d="M99.85 331.47h.08a.17.17 0 00.11-.12c0-.08.63-2.13 0-3a.85.85 0 00-.67-.38.64.64 0 00-.71.38c-.33.75.43 2.48 1.05 3.06zm-.38-3.13a.51.51 0 01.33.22 3.82 3.82 0 010 2.39 3.44 3.44 0 01-.8-2.45c0-.09.12-.19.37-.17z" style="transform-origin:99.4501px 329.714px" id="el254te68rcne" class="animable" fill="#ffc107"/><path d="M185.1 185.62c-.34 3.72-.88 7.22-1.46 10.81s-1.34 7.13-2.27 10.7a76.32 76.32 0 01-3.52 10.73 35.07 35.07 0 01-2.81 5.47 19.69 19.69 0 01-2.11 2.79 13.77 13.77 0 01-3.27 2.7l-.42.24-.23.08a11.49 11.49 0 01-6.73.22 20.47 20.47 0 01-4.72-1.86 30.8 30.8 0 01-3.86-2.5c-.6-.45-1.16-.94-1.72-1.43a21.7 21.7 0 01-1.66-1.56l3.14-4.55c1.17.38 2.43.87 3.64 1.23s2.41.75 3.56 1a15 15 0 003.14.44c.89 0 1.52-.24 1.36-.31l-.65.32a8.05 8.05 0 001.65-2.22 29.25 29.25 0 001.79-4 81.14 81.14 0 002.67-9.4c.73-3.27 1.36-6.6 1.91-10s1-6.8 1.46-10.06z" style="transform-origin:167.71px 207.11px" id="el2wdwv8yl9ns" class="animable" fill="#ffc3bd"/><path d="M175.22 180.14c-6.88 6-6.5 20.6-6.5 20.6l18.18 6.56c3.85-6 5.74-17.46 5.4-22.38-.53-7.56-8.92-11.92-17.08-4.78z" style="transform-origin:180.528px 191.906px" id="el8ks8e0ql89w" class="animable" fill="#263238"/><path d="M192.31 185.2c-3.27-1.57-7.74-1.07-12.16 2.79-4 3.49-5.55 9.92-6.13 14.67l12.88 4.64c3.78-5.9 5.67-17.05 5.41-22.1z" style="transform-origin:183.177px 195.834px" class="animable" opacity=".2" id="el10atwd0h6u9r"/><path style="transform-origin:87.215px 311.35px" id="elsz147xaby9f" class="animable" fill="#ffc3bd" d="M80.67 319.02l-2.2-7.04 15.3-8.3 2.19 7.04-15.29 8.3z"/><path d="M79 311.32l5.54 6.15a.52.52 0 010 .74l-4.6 4.69a1.3 1.3 0 01-1.84-.08c-1.89-2.17-2.69-3.31-5.13-6-1.5-1.66-6.77-7.15-8.84-9.45s.26-4.28 1.34-3.49c4.86 3.53 9.73 6.36 12.34 6.81a2.14 2.14 0 011.19.63z" style="transform-origin:73.998px 313.473px" id="el47wblnj9awu" class="animable" fill="#263238"/><path style="transform-origin:89.285px 309.565px" class="animable" opacity=".2" d="M95.96 310.72l-2.19-7.04-11.16 6.06 4.65 5.71 8.7-4.73z" id="elyxdos2rjqsa"/><path d="M191.8 239.5s-38.8 5.2-46.8 15.82c-13.93 18.49-58 49-58 49l4 12.89s60.06-25.33 70.74-46.51c19.62-1.51 51.54 4.95 56.57-7.23 3.35-8.11 1.71-20.22 1.71-20.22z" style="transform-origin:153.711px 278.355px" id="elgznsltgdd8v" class="animable" fill="#ffc107"/><path d="M191.8 239.5s-38.8 5.2-46.8 15.82c-13.93 18.49-58 49-58 49l4 12.89s60.06-25.33 70.74-46.51c19.62-1.51 51.54 4.95 56.57-7.23 3.35-8.11 1.71-20.22 1.71-20.22z" style="transform-origin:153.711px 278.355px" class="animable" opacity=".2" id="els67iydtvy9t"/><path style="transform-origin:90.08px 309.95px" id="el8rqbtpaqc3b" class="animable" fill="#ffc107" d="M91.78 319.08l-8.54-13.77 5.46-4.49 8.22 14.82-5.14 3.44z"/><path d="M76.24 310.24a9.35 9.35 0 001.51 1.28.17.17 0 00.19 0 .16.16 0 00.08-.17c0-.28-.37-2.79-1.24-3.22a.65.65 0 00-.63 0 1 1 0 00-.55.78 2 2 0 00.64 1.33zm1.38.77c-1.08-.81-1.7-1.55-1.67-2a.62.62 0 01.37-.5.31.31 0 01.31 0c.46.17.82 1.49.99 2.49z" style="transform-origin:76.8114px 309.799px" id="el809r4vmpbbs" class="animable" fill="#ffc107"/><path d="M77.72 311.5h.07a.13.13 0 00.16 0c.08 0 1.76-1.35 1.8-2.38a.92.92 0 00-.31-.71.68.68 0 00-.81-.11c-.71.41-1.11 2.26-.95 3.1a.2.2 0 00.04.1zm1.55-2.75a.51.51 0 01.13.37c0 .62-.88 1.48-1.41 1.93a3.47 3.47 0 01.81-2.43.33.33 0 01.41.07z" style="transform-origin:78.6976px 309.871px" id="el3gy2nt15a52" class="animable" fill="#ffc107"/><path d="M155.39 218.84l-5.88-5.68-4.08 8s7.14 3.91 8.93 2.12z" style="transform-origin:150.41px 218.455px" id="el2lz57gu149t" class="animable" fill="#ffc3bd"/><path style="transform-origin:145.075px 217.105px" id="el163py1ghfp3" class="animable" fill="#ffc3bd" d="M141.7 213.1l-1.06 6.56 4.79 1.45 4.08-7.95-7.81-.06z"/><path d="M219.62 175.2c-.74-1.95-2.06-3.88-4.15-3.85-.43 0-3 0-3.46.06-2.4.06-5.4.22-8.3.59a145.81 145.81 0 00-16.51 2.87c-2.5.68-4.9 1.53-6.82 2.26h-.07a5.37 5.37 0 00-3.39 5.53c1 10.57 3.48 39.92 2 55.12l41 5.4c2.46-7.82 3.44-25.73 3.46-40.33.08-8.77-.71-19.68-3.76-27.65z" style="transform-origin:200.14px 207.265px" id="elyqqo11ohyv8" class="animable" fill="#263238"/><path d="M223.24 195.34l-.81.06-5.2 4.5-5.38 18.53-18.48 3.23c4.49 2.27 17.55 2.73 25.27.68a6.15 6.15 0 004.52-5.72c.19-4.63.28-9.33.28-13.74 0-2.39-.05-4.94-.2-7.54z" style="transform-origin:208.405px 209.494px" class="animable" opacity=".2" id="elyz0rr4l8a2"/><path d="M156.89 201.39s3.61-2 10.38-.06a17.46 17.46 0 0011.53-.33l2.53 4.74-23 .8z" style="transform-origin:169.11px 203.512px" id="elvnz046pdwdn" class="animable" fill="#ffc107"/><path d="M156.89 201.39s3.61-2 10.38-.06a17.46 17.46 0 0011.53-.33l2.53 4.74-23 .8z" style="transform-origin:169.11px 203.512px" class="animable" fill="#fff" opacity=".8" id="eltwdnc0yugv"/><path d="M156.89 201.39s-.15-1.45-4.52-1.6c-8.79-.29-12.5-2.54-12.5-2.54l-.36 2.27 18.81 7z" style="transform-origin:148.915px 201.885px" id="el6rc1ajusdxu" class="animable" fill="#ffc107"/><path d="M156.89 201.39s-.15-1.45-4.52-1.6c-8.79-.29-12.5-2.54-12.5-2.54l-.36 2.27 18.81 7z" style="transform-origin:148.915px 201.885px" class="animable" fill="#fff" opacity=".8" id="elrotdp6vrbw"/><path d="M164.28 235.13L148 230.49a1.31 1.31 0 01-.86-.87l-8.33-30.16a.79.79 0 011-1l15.51 4.43z" style="transform-origin:151.525px 216.775px" id="el8ychjj03iea" class="animable" fill="#ffc107"/><path d="M189.61 236.54l-21.4-1.19-8.91-32.26 21.7 1.21a1.21 1.21 0 011.06.88l8.38 30.32a.77.77 0 01-.83 1.04z" style="transform-origin:174.896px 219.819px" id="el55bigmuj8ol" class="animable" fill="#ffc107"/><path style="transform-origin:161.79px 219.11px" id="el52hxm1c0p6w" class="animable" fill="#ffc107" d="M164.28 235.13l3.93.22-8.91-32.26-3.93-.22 8.91 32.26z"/><path style="transform-origin:161.79px 219.11px" class="animable" opacity=".3" d="M164.28 235.13l3.93.22-8.91-32.26-3.93-.22 8.91 32.26z" id="ele38uqft4y98"/><path d="M221.63 182.53c.21 1.44.35 2.66.45 4s.17 2.58.23 3.88c.09 2.58.07 5.17-.09 7.77a59.5 59.5 0 01-2.89 15.69c0 .09-.18.52-.3.84a10.3 10.3 0 01-.47.94 9.54 9.54 0 01-1.12 1.57 10.65 10.65 0 01-2.47 2.05 18 18 0 01-4.54 1.92 38.28 38.28 0 01-8.12 1.23 74.74 74.74 0 01-15.28-.85l.26-5.53a139.57 139.57 0 0014-2 35.18 35.18 0 006.2-1.77 8.37 8.37 0 002.08-1.15c.21-.18.31-.33.29-.35s-.05 0-.08.07a1 1 0 00-.08.11s-.06.18 0 0a57.06 57.06 0 001.1-6.45c.21-2.22.36-4.47.39-6.75s0-4.58-.1-6.88c-.05-1.15-.11-2.3-.2-3.44l-.14-1.71-.15-1.6z" style="transform-origin:204.697px 202.516px" id="elq9ps6cez7r" class="animable" fill="#ffc3bd"/><path d="M221.63 173.69c-4.86-3.71-11.57-3.6-14.32 6.17-1.8 6.4-.84 19.28-.84 19.28l19.41-.39c2.17-10.24.67-21.3-4.25-25.06z" style="transform-origin:216.532px 185.288px" id="elhtq9yk6kvop" class="animable" fill="#263238"/><path d="M201.8 155.68l-4.08 4.79-5.56 6.53a19.82 19.82 0 01.87 2.56c1 3.46-2.15 4.16-5 5.91 0 0-4.27 5.65 6 4s11.73-7 11.73-7c-4.61-3.13-4.28-10.81-3.96-16.79z" style="transform-origin:196.455px 167.726px" id="elte46htaxqx9" class="animable" fill="#ffc3bd"/><path d="M197.12 178.8a25.65 25.65 0 01-3.15.69 17.18 17.18 0 01-4.16.25l-.24 1.19c-.37.26-.46 1.65 1.88 3.3 2.47-.51 6.3-2.62 5.67-5.43z" style="transform-origin:193.28px 181.515px" id="eliio9qbr2xz" class="animable" fill="#ffc107"/><path d="M203.94 170.75s-1.94 5.19-9 7.09c1 2.75-.64 5.88-.64 5.88s9.85-3.37 11.9-6.74 1.17-5.34 1.17-5.34a8.51 8.51 0 00-3.43-.89z" style="transform-origin:200.929px 177.235px" id="eljps7hg2ijf" class="animable" fill="#263238"/><path d="M190 183.49s.07-4.3 1.33-5.74c-.66-1.94-.31-3 .71-4.69a8.49 8.49 0 00-5.31 3.46c-1.35 2.25-.41 7.03 3.27 6.97z" style="transform-origin:189.092px 178.275px" id="elig0iinwmw4" class="animable" fill="#263238"/><path d="M192.16 167a19.82 19.82 0 01.87 2.56c2.34-.91 5.13-4.06 5-6.6a11.54 11.54 0 00-.35-2.49z" style="transform-origin:195.097px 165.015px" class="animable" opacity=".2" id="elw9fcvfy4qx"/><path d="M178.61 144.2c-1.93 4.05-.27 13.67 8.88 9.84s-5.74-16.41-8.88-9.84z" style="transform-origin:184.159px 148.628px" id="elqi4g1foyzp" class="animable" fill="#263238"/><path d="M198.69 152.61c-.84 1.75-.12 5.91 3.83 4.26s-2.52-7.1-3.83-4.26z" style="transform-origin:201.08px 154.527px" id="elvw090rdekc8" class="animable" fill="#263238"/><path d="M199.8 155.41c-1.28 1.46-1.71 5.66 2.55 5.13s-.48-7.54-2.55-5.13z" style="transform-origin:201.494px 157.747px" id="el3fwe5vgvpoq" class="animable" fill="#263238"/><path d="M200.8 144.49c1.66 7.75 3 12.18.31 17.29a10.3 10.3 0 01-18.24.12c-3.52-6.32-5.65-17.93.87-23.29a10.43 10.43 0 0117.06 5.88z" style="transform-origin:191.084px 151.71px" id="el49u1n5ljq8w" class="animable" fill="#ffc3bd"/><path d="M199.42 135.48c-1.58-6.88-10.8-4.49-15.5-.33s-5.91 7.43-9.87 9.89c7.31 1 17.66-1.9 19.6-4.36a7.72 7.72 0 003.16 6.26 51 51 0 000 6.47l3.34-1.7 3.89-1.56c5.74-9.7 2.35-15.69-4.62-14.67z" style="transform-origin:190.5px 142.275px" id="elocb1nmevvd" class="animable" fill="#263238"/><path d="M191.09 149.82a.26.26 0 01-.26-.22.26.26 0 01.21-.31l10.84-1.85a.27.27 0 01.31.22.26.26 0 01-.22.3l-10.84 1.85z" style="transform-origin:196.509px 148.628px" id="elvggqn31nna" class="animable" fill="#fff"/><path d="M189.64 156.25c-2 0-4.2-2.15-4.91-4.76a4.43 4.43 0 01.45-3.89 2.41 2.41 0 012-1c2 0 4.21 2.15 4.92 4.76a4.49 4.49 0 01-.46 3.9 2.4 2.4 0 01-2 .99zm-2.51-9.08a1.9 1.9 0 00-1.55.75 4 4 0 00-.36 3.43c.65 2.4 2.63 4.36 4.41 4.37a1.8 1.8 0 001.56-.75 4 4 0 00.37-3.43c-.65-2.4-2.63-4.36-4.41-4.37z" style="transform-origin:188.411px 151.425px" id="els7mz4rz2sjn" class="animable" fill="#fff"/><path d="M183.45 153a.32.32 0 01-.14 0 .26.26 0 01-.09-.37 2 2 0 012-.73.28.28 0 01.2.32.27.27 0 01-.32.2s-1-.22-1.47.49a.25.25 0 01-.18.09z" style="transform-origin:184.301px 152.432px" id="el35irjdiq9zv" class="animable" fill="#fff"/><path d="M205.45 150.42a8.37 8.37 0 01-3.29 4.91c-2.17 1.48-3.87-.36-3.78-2.94.08-2.32 1.3-5.88 3.73-6.33s3.89 1.94 3.34 4.36z" style="transform-origin:201.971px 150.931px" id="elumwoyh8sx8" class="animable" fill="#ffc3bd"/><path d="M188.44 151c.29.57.22 1.2-.15 1.4s-.9-.1-1.19-.68-.21-1.2.15-1.4.9.1 1.19.68z" style="transform-origin:187.772px 151.36px" id="el480s6f3jwo7" class="animable" fill="#263238"/><path d="M182.1 153.6c.26.59.16 1.21-.22 1.39s-.9-.15-1.15-.74-.15-1.22.23-1.39.89.14 1.14.74z" style="transform-origin:181.419px 153.926px" id="elweekskgebj8" class="animable" fill="#263238"/><path d="M178.9 150.07a.38.38 0 00.26-.25 3.15 3.15 0 011.88-2 .38.38 0 00.25-.47.36.36 0 00-.46-.25 3.85 3.85 0 00-2.39 2.54.36.36 0 00.24.47.34.34 0 00.22-.04z" style="transform-origin:179.862px 148.598px" id="eldl9m3ez29mu" class="animable" fill="#263238"/><path d="M181.93 158.31c-1.82 0-3.83-2-4.48-4.34a4.08 4.08 0 01.42-3.56 2.19 2.19 0 011.8-.87c1.83 0 3.84 2 4.49 4.34a4.08 4.08 0 01-.42 3.55 2.19 2.19 0 01-1.81.88zm-2.28-8.25a1.67 1.67 0 00-1.38.68 3.56 3.56 0 00-.33 3.09c.59 2.17 2.37 3.94 4 3.95a1.69 1.69 0 001.39-.67 3.6 3.6 0 00.33-3.09c-.59-2.17-2.38-3.94-4-4z" style="transform-origin:180.804px 153.925px" id="elufldc17e3t" class="animable" fill="#fff"/><path d="M184.2 152.68a20.37 20.37 0 01-.88 5.36 3.12 3.12 0 002.6-.49z" style="transform-origin:184.62px 155.409px" id="el3lnmg4utoy1" class="animable" fill="#ed847e"/><path d="M187.22 159.85a5.53 5.53 0 003.38-2.72.19.19 0 00-.1-.25.2.2 0 00-.25.09 5.27 5.27 0 01-3.82 2.68.2.2 0 00-.16.22.19.19 0 00.22.15 5.2 5.2 0 00.73-.17z" style="transform-origin:188.442px 158.444px" id="el6lkyo17shll" class="animable" fill="#263238"/><path d="M189.36 146.32a.33.33 0 00.13-.13.38.38 0 00-.13-.52 3.64 3.64 0 00-3.4-.21.37.37 0 00-.16.51.38.38 0 00.51.16 2.88 2.88 0 012.67.19.35.35 0 00.38 0z" style="transform-origin:187.649px 145.756px" id="elvg5dh5qe51s" class="animable" fill="#263238"/><path d="M189.27 216.35l-6.27-2.66.21 8s6.21 2.51 7.24-.8z" style="transform-origin:186.725px 218.146px" id="elzi5hpzzmvqp" class="animable" fill="#ffc3bd"/><path style="transform-origin:179.215px 217.675px" id="elunf7p6p4p0f" class="animable" fill="#ffc3bd" d="M175.21 215.48l1.38 5.69 6.63.49-.21-7.97-7.8 1.79z"/></g><defs><filter id="active" height="200%"><feMorphology in="SourceAlpha" result="DILATED" operator="dilate" radius="2"/><feFlood flood-color="#32DFEC" flood-opacity="1" result="PINK"/><feComposite in="PINK" in2="DILATED" operator="in" result="OUTLINE"/><feMerge><feMergeNode in="OUTLINE"/><feMergeNode in="SourceGraphic"/></feMerge></filter><filter id="hover" height="200%"><feMorphology in="SourceAlpha" result="DILATED" operator="dilate" radius="2"/><feFlood flood-color="red" flood-opacity=".5" result="PINK"/><feComposite in="PINK" in2="DILATED" operator="in" result="OUTLINE"/><feMerge><feMergeNode in="OUTLINE"/><feMergeNode in="SourceGraphic"/></feMerge><feColorMatrix values="0 0 0 0 0 0 1 0 0 0 0 0 0 0 0 0 0 0 1 0"/></filter></defs></svg>