<svg class="animated" id="freepik_stories-invite" xmlns="http://www.w3.org/2000/svg" viewBox="0 0 500 500" version="1.1"><style>@keyframes slideLeft{0%{opacity:0;transform:translateX(-30px)}to{opacity:1;transform:translateX(0)}}@keyframes slideUp{0%{opacity:0;transform:translateY(30px)}to{opacity:1;transform:inherit}}@keyframes slideRight{0%{opacity:0;transform:translateX(30px)}to{opacity:1;transform:translateX(0)}}@keyframes lightSpeedRight{60%{transform:skewX(10deg);opacity:1}80%{transform:skewX(-2deg)}}</style><g id="freepik--Floor--inject-2" class="animable" style="transform-origin:247.017px 352.778px;animation:1s 1 forwards cubic-bezier(.36,-.01,.5,1.38) slideLeft;animation-delay:0s"><path id="freepik--floor--inject-2" d="M81.86 441c91.21 48.72 239.1 48.72 330.32 0s91.22-127.71 0-176.44-239.11-48.72-330.33 0-91.21 127.73.01 176.44z" style="transform-origin:247.017px 352.778px" class="animable" fill="#f0f0f0"/></g><g id="freepik--Shadows--inject-2" class="animable" style="transform-origin:292.54px 376.75px;animation:1s 1 forwards cubic-bezier(.36,-.01,.5,1.38) slideUp;animation-delay:0s"><ellipse id="freepik--Shadow--inject-2" cx="415.59" cy="374.7" rx="39.87" ry="23.02" style="transform-origin:415.59px 374.7px" class="animable" fill="#e0e0e0"/><ellipse id="freepik--shadow--inject-2" cx="169.49" cy="378.8" rx="39.87" ry="23.02" style="transform-origin:169.49px 378.8px" class="animable" fill="#e0e0e0"/></g><g id="freepik--Envelope--inject-2" class="animable" style="transform-origin:136.675px 217.46px;animation:1s 1 forwards cubic-bezier(.36,-.01,.5,1.38) slideRight;animation-delay:0s"><g id="freepik--Letter--inject-2" class="animable" style="transform-origin:136.66px 217.46px"><path d="M37.65 221.86a7.77 7.77 0 013.51-6.1l180-103.94a7.8 7.8 0 017 0l4 2.29a7.78 7.78 0 013.52 6.09v138a7.83 7.83 0 01-3.52 6.1l-180 103.94a7.86 7.86 0 01-7 0l-4-2.29a7.8 7.8 0 01-3.52-6.1z" style="transform-origin:136.66px 240.026px" id="el5799o1pzsn8" class="animable" fill="#ffc107"/><path d="M228.23 111.82l-88.94-44.6a9.24 9.24 0 00-12.92 3.38l-87.7 147.79 4.65 2.68L232.8 114.52z" style="transform-origin:135.735px 143.459px" id="elsyjhm97m279" class="animable" fill="#ffc107"/><path d="M228.23 111.82l-88.94-44.6a9.24 9.24 0 00-12.92 3.38l-87.7 147.79 4.65 2.68L232.8 114.52z" style="transform-origin:135.735px 143.459px" class="animable" opacity=".1" id="el0ziv41qo81l"/><path d="M37.64 221.85v138a7.77 7.77 0 003.53 6.09l4 2.3a6.61 6.61 0 001 .43 7.15 7.15 0 001.45.33 8.37 8.37 0 002.78-.1c.23 0 .46-.11.68-.18a2.52 2.52 0 00.41-.17 2.07 2.07 0 01-1.68 0 2.44 2.44 0 01-1.08-2.31v-138a3.09 3.09 0 011.83-3l-1.83-1.06-10-5.76a7.27 7.27 0 00-1.09 3.43z" style="transform-origin:44.565px 293.746px" class="animable" opacity=".1" id="el596cif4j7fr"/><path d="M234.89 117.1l-81.13 129.83-4-.78a16.37 16.37 0 00-16.38 6.45l-4.92 6.78-78-34.17-7.17-4.14 189.52-106.55a8 8 0 012.08 2.58z" style="transform-origin:139.09px 186.95px" class="animable" opacity=".1" id="el4g9mwzf0sd9"/></g><path d="M232.8 114.52a12.87 12.87 0 00-1.53-1L144 69.9a9.24 9.24 0 00-13 3.38L43.32 221.07z" style="transform-origin:138.06px 144.781px" id="elo5hh2c5dh6" class="animable" fill="#ffc107"/><path d="M234.06 262.59a7.71 7.71 0 001.65-4.31l-82-11.35z" style="transform-origin:194.71px 254.76px" class="animable" opacity=".2" id="elh8g4hkehsgs"/><path d="M128.47 259.38l-79 108.91a2.64 2.64 0 01-.76-2.08v-1.5z" style="transform-origin:88.5855px 313.835px" class="animable" opacity=".2" id="elgleye165klu"/></g><g id="freepik--Clouds--inject-2" class="animable" style="transform-origin:409.915px 62.797px;animation:1s 1 forwards cubic-bezier(.36,-.01,.5,1.38) slideRight;animation-delay:0s"><path d="M405.55 43.49l7 4a7.22 7.22 0 01-.06-.92v-2c0-3.58 2.51-5 5.62-3.25a11 11 0 013.35 3.23c.51-4.51 4-6.19 8.34-3.71 4.64 2.68 8.4 9.2 8.4 14.56v3a7.93 7.93 0 01-.71 3.5l5.78 3.33a6.88 6.88 0 013.11 5.4c0 2-1.39 2.79-3.11 1.8l-37.72-21.74a6.89 6.89 0 01-3.11-5.4c0-1.99 1.39-2.79 3.11-1.8z" style="transform-origin:424.41px 56.2746px" id="el55fu3e0626c" class="animable" fill="#ebebeb"/><path d="M375.8 63.74l5.25 3V64.56c0-2.71 1.9-3.8 4.24-2.45a8.32 8.32 0 012.53 2.43c.38-3.4 3.05-4.67 6.29-2.8a14.05 14.05 0 016.34 11V75a6 6 0 01-.53 2.63l4.36 2.52a5.21 5.21 0 012.35 4.07c0 1.5-1.06 2.11-2.35 1.36l-28.48-16.4a5.23 5.23 0 01-2.35-4.08c0-1.5 1.06-2.1 2.35-1.36z" style="transform-origin:390.04px 73.3884px" id="ell90wtakyahj" class="animable" fill="#ebebeb"/></g><g id="freepik--character-2--inject-2" class="animable" style="transform-origin:403.265px 260.926px;animation:1s 1 forwards cubic-bezier(.36,-.01,.5,1.38) lightSpeedRight;animation-delay:0s"><g id="freepik--Character--inject-2" class="animable" style="transform-origin:403.265px 260.926px"><path d="M395.11 219.17c12.23-10.51 23.66-34.45 20.4-41.92-5.63-.29-9.75 1.85-13.37 8.51 0 0-10.28 20-16.05 25.89a41.68 41.68 0 01-18 11.22 12.06 12.06 0 01-4.52-.09c-2.55-.78-4-.11-6.43-.23-1.93-.09-2.93-.72-3.15-.3a2.19 2.19 0 001.08 2.78 11.33 11.33 0 002.92 1.09 22.33 22.33 0 01-6.18 1c-5 .15-7.12 1.8-2.76 6.47 2.15 2.3 7.84 3.7 15.57 1.63a85.77 85.77 0 009.65-3.79 87.14 87.14 0 0020.84-12.26z" style="transform-origin:381.381px 206.727px" id="elnjme7jjk0se" class="animable" fill="#ffa8a7"/><path d="M434.35 365.63v-1.26c-.5 1.48-2.79 7.81-6.27 11-2.77 2.52-6.55 5.44-7.51 8.25s5.26 3.91 7.84 3.45c3-.53 6.89-2.23 9-4.83 1.49-1.83 2.43-4 3.5-5.43s3.51-3.05 4.08-4.71c.32-.91-.06-2.91-.5-4.6s-.85-3.26-1.38-3.12v1a6.86 6.86 0 01-4.38 1.48c-1.28 0-4.39-.25-4.38-1.23z" style="transform-origin:432.79px 375.771px" id="eltvg6lcygtn" class="animable" fill="#263238"/><path d="M425.57 377.58l2.51-2.23c2.43-2.22 4.28-6 5.35-8.55a12 12 0 00.92-4.62v-5h8.77V365.54c-.42 1.83-4.45 6.68-6.74 9.84-1.53 2.12-4.45 4.82-7.93 5.28-3.34.46-5.02-.58-2.88-3.08z" style="transform-origin:433.868px 368.973px" id="elhaxtdh83tya" class="animable" fill="#ffa8a7"/><path d="M400.12 357v-1.26c-.49 1.48-2.79 7.81-6.27 11-2.77 2.52-6.54 5.44-7.5 8.25s5.25 3.91 7.84 3.45c3-.53 6.89-2.23 9-4.83 1.48-1.83 2.43-4 3.49-5.43s3.51-3 4.09-4.71c.31-.91-.06-2.91-.5-4.6s-.85-3.26-1.38-3.12v1a6.89 6.89 0 01-4.39 1.48c-1.27-.02-4.39-.23-4.38-1.23z" style="transform-origin:398.567px 367.141px" id="elo4o25spnwr9" class="animable" fill="#263238"/><path d="M391.35 368.93c.85-.77 1.72-1.52 2.5-2.23 2.43-2.22 4.29-6 5.35-8.55a12 12 0 00.92-4.62v-5h8.78V356.89c-.42 1.83-4.44 6.68-6.73 9.84-1.54 2.12-4.45 4.82-7.93 5.28-3.35.46-5.04-.58-2.89-3.08z" style="transform-origin:399.646px 360.323px" id="elynjazmjdviq" class="animable" fill="#ffa8a7"/><path d="M441.38 229.27c6.8 14.85-.25 67.19-.25 67.19.21 2.41 3 7.15 4 17.77 1.21 12.53-1.9 44-1.9 44a9.52 9.52 0 01-8.87.35s-8.36-47.42-9.94-59.88c-1.37-10.88-4-34.8-4-34.8l-7.49 34.74a64.63 64.63 0 012.37 10.74c.71 7.33-6.39 41.47-6.39 41.47s-3 1.11-8.78.26c0 0-2.51-45.3-3.17-54.14-1.11-14.83 2.83-61.12 5.55-69.9z" style="transform-origin:421.089px 293.29px" id="el2t61xvy240v" class="animable" fill="#ffc107"/><path d="M420.41 263.92l-2.21-13.8s-9.34-1.94-13.58-5.92c0 0 4.44 5.53 11.05 7.34l2.48 10.62-4.34 32.17z" style="transform-origin:412.515px 269.265px" class="animable" opacity=".15" id="elzad6crn83ls"/><path d="M429.38 177.65c8.72.6 9.33 4.81 11.51 9.42a15 15 0 01.42 11.24l-6.08 17.58s2.84 6.88 6.15 13.38c-15.25 8.51-34.3 4-38.88-2.18-.2-1.32 1-11.62 1.71-18.34-2.69-6.74-3.4-11-2.26-15.47 2.1-8.26 10.27-16.32 13.88-16z" style="transform-origin:421.815px 205.615px" id="elu2rey8df7v" class="animable" fill="#f0f0f0"/><path d="M409.39 134.68h31.81v22.58a17.92 17.92 0 01-17.92 17.92h-3.19a17.92 17.92 0 01-17.92-17.92V141.9a7.22 7.22 0 017.22-7.22z" style="transform-origin:421.685px 154.93px" class="animable" fill="#263238" transform="rotate(180)" id="elxah1e8d2nrc"/><path d="M438.6 137l-2.6 4.24a2.43 2.43 0 003.44-.7 2.63 2.63 0 00-.84-3.54z" style="transform-origin:437.901px 139.337px" id="elim2cln2066n" class="animable" fill="#263238"/><path d="M442.24 140.88l-4.94.74a2.42 2.42 0 002.76 2.16 2.63 2.63 0 002.18-2.9z" style="transform-origin:439.779px 142.343px" id="elaw42e416mzw" class="animable" fill="#263238"/><path d="M409.58 142.57c-2.06 1.22-4.61 6.4-4.36 17.27.22 9.22 3.2 11.49 4.7 12.15s4.39.25 7.2-.21v5.53s-3.88 4.51-3.64 7 5.61 3.14 9.25.66a23.73 23.73 0 006-6.25V165.4s1.89 2.53 5 .47 3.22-7.16 1.41-9-5.69-1.25-6.41 1.28c0 0-4.49.16-10.46-3.12a16.79 16.79 0 01-8.69-12.46z" style="transform-origin:420.764px 164.553px" id="elm241udt4ylq" class="animable" fill="#ffa8a7"/><path d="M416.54 157.53a1.16 1.16 0 102.31.11 1.17 1.17 0 00-1.09-1.26 1.19 1.19 0 00-1.22 1.15z" style="transform-origin:417.692px 157.609px" id="elzb5nbi2u0qh" class="animable" fill="#263238"/><path d="M415.2 165.34l-2.69.86a1.38 1.38 0 001.75 1 1.48 1.48 0 00.94-1.86z" style="transform-origin:413.891px 166.301px" id="el5gqcf3fp1jk" class="animable" fill="#f28f8f"/><path d="M407 154l2.35-1.62a1.37 1.37 0 00-1.95-.4 1.49 1.49 0 00-.4 2.02z" style="transform-origin:408.058px 152.866px" id="elcyz137r8z25" class="animable" fill="#263238"/><path d="M407.58 156.69a1.16 1.16 0 102.32.11 1.16 1.16 0 10-2.32-.11z" style="transform-origin:408.74px 156.745px" id="el2wmbeu1mo71" class="animable" fill="#263238"/><path style="transform-origin:411.31px 159.515px" id="elqzblswam9m" class="animable" fill="#f28f8f" d="M413.24 156.03l-.18 6.97-3.68-1.13 3.86-5.84z"/><path d="M417.12 171.78c3-.39 9.06-2.14 10-4.55a6.26 6.26 0 01-2.12 3.07c-1.82 1.56-7.87 3.32-7.87 3.32z" style="transform-origin:422.12px 170.425px" id="elmvsus558tx" class="animable" fill="#f28f8f"/><path d="M425.48 230.92a9.2 9.2 0 006.86-11.23 4.68 4.68 0 00-.15-.48 3 3 0 00-3.09-2.05 8.92 8.92 0 003.81-5.68l1.85-11a12.75 12.75 0 00-.47-5.35l6.13-7.09 1.14.79a15.36 15.36 0 01-.25 9.5l-6.08 17.58s2.84 6.88 6.15 13.38a39.45 39.45 0 01-32.59 2.16 44.81 44.81 0 0016.69-.53z" style="transform-origin:425.492px 211.014px" id="ellx65nptab7l" class="animable" fill="#e6e6e6"/><path d="M457 221.41c-7.92-32.36-13.78-43.15-23.4-43-2.8 3.36-2 13.5 2.41 19.65 0 0 9.89 20.87 11.47 28.29 1.39 6.52 3 14.72 2.86 20.33a4.06 4.06 0 01-1.1 2.66c-1.8 2-1.81 3.54-3 5.71-.92 1.69-1.92 2.33-1.64 2.71a2.19 2.19 0 003 .22 11.42 11.42 0 002.26-2.16 22.51 22.51 0 01-1.79 6c-2 4.58-1.54 6.92 4.65 5.29 3.87-1 6.3-4.25 6.88-13.56a71.22 71.22 0 00.1-10.31c-.84-8.86-1.44-16.62-2.7-21.83z" style="transform-origin:445.904px 223.018px" id="elphdb96q600s" class="animable" fill="#ffa8a7"/></g></g><g id="freepik--character-1--inject-2" class="animable" style="transform-origin:241.15px 234.438px;animation:1s 1 forwards cubic-bezier(.36,-.01,.5,1.38) slideUp;animation-delay:0s"><g id="freepik--character-boy--inject-2" class="animable" style="transform-origin:194.26px 265.789px"><path d="M233.6 199.07c-1.52 1.26-3.26 1.9-5.26 3.85a11.81 11.81 0 01-4.65 3.23c-2.31.91-4.48.64-10.88-.38-7.84-1.26-11.21-2.57-14.59-5.46-3.95-3.37-12.78-13.53-17.06-17.53-4.51-4.22-10.73-2.59-10.73-2.59a64.87 64.87 0 008.48 17.59c3.42 4.87 9.81 9.53 12.71 11.94 4.62 3.85 7.08 5.37 17.25 6.13 7.67.58 8.69.77 15 .58 2.27-.07 3.69-.09 7.4-.4a21.36 21.36 0 004.77-.83 17.68 17.68 0 005-2 13.46 13.46 0 004.74-5.33 8.37 8.37 0 00.88-3.83 5.59 5.59 0 00-1.38-3.63 1.49 1.49 0 00-.64-.47 1.87 1.87 0 00-1.38.29c-2.41 1.24-4.83 2.93-7.34 3.9-2.13.82-3.74 1.1-3.59.67s1.44-.82 2.76-2.31 1.65-3.56.8-4.2-.76-.48-2.29.78z" style="transform-origin:208.545px 198.191px" id="elx2bvoz7pkpj" class="animable" fill="#b16668"/><path d="M168.61 180.16a11.71 11.71 0 017.77-.84c4 1.13 7.13 3.72 10.9 7.76s10.13 10.6 10.13 10.6-3.13 7.93-10.17 10.74l-14.76-13.65z" style="transform-origin:183.01px 193.712px" id="el2dkpqzm8chy" class="animable" fill="#455a64"/><g id="freepik--character-boy--inject-2" class="animable" style="transform-origin:171.929px 265.789px"><path style="transform-origin:151.405px 369.03px" class="animable" fill="#b16668" transform="rotate(180)" d="M146.93 361.37h8.95v15.32h-8.95z" id="elnz372cjrx4"/><path style="transform-origin:176.385px 357.27px" id="ely4bkj16jyn" class="animable" fill="#b16668" d="M171.69 365.22l8.94.31.45-16.21-9.39-.31v16.21z"/><path d="M143.12 247c0 8.54 1.51 58.24 1.51 58.24-.21 2.46-2.58 6.83-2.76 15.69-.27 12.84 4.68 48.1 4.68 48.1a11.76 11.76 0 0010 .2s4.06-47.8 5.66-60.51c1.4-11.1 3.77-41.24 3.77-41.24l4.22 36.22a50.89 50.89 0 00-1.11 14.22c.42 5.88 2.07 42.29 2.07 42.29a12.2 12.2 0 0010.33.79s6.31-51.9 6.42-57.3c.12-6.15-2.34-68.93-2.34-68.93z" style="transform-origin:164.887px 302.509px" id="elnmubaddhwjl" class="animable" fill="#37474f"/><path d="M149 184.13a8.23 8.23 0 00-4.32 4.49 21.08 21.08 0 00-1.31 7.73v17.54l-.25 33.1c12.84 6.77 29.17 7.22 42.87-2.78 0 0-.77-42.61-.77-49.58v-1c-.5-10-10.3-16.79-19.95-14.31l-8.11 2.09-8.16 2.72z" style="transform-origin:164.555px 215.363px" id="elouo359aksaq" class="animable" fill="#f0f0f0"/><circle cx="171.97" cy="151.52" r="12.3" style="transform-origin:171.97px 151.52px" class="animable" fill="#263238" transform="rotate(-76.72)" id="el6vudpmrw0rc"/><path d="M150.71 160.27s2 9.36 2.8 10.9a4.18 4.18 0 002.45 2l-.14-6.58z" style="transform-origin:153.335px 166.72px" id="elc5njp5miuv" class="animable" fill="#263238"/><path d="M153.21 146.86a4.59 4.59 0 00-3.81 1.34c-1.64 1.68-.73 6.93 1.31 12.07l3.76.43z" style="transform-origin:151.512px 153.764px" id="elkl6klk8q87d" class="animable" fill="#263238"/><path d="M155.59 160.7c-.75.45-1.82-1-2.75-2s-4-2.29-5.47.89 1.33 7.53 3.72 8.28c4.11 1.29 4.73-1.34 4.73-1.34l.3 15.28c5.11 6.55 19.3 6 13.39-.85v-4.51a25.94 25.94 0 005.55.29c3-.47 4.92-2.86 5.84-6.13 1.47-5.26 2-9.5.78-19.84-1.37-11.33-14.55-11.45-21.66-7s-4.43 16.93-4.43 16.93z" style="transform-origin:164.66px 163.732px" id="elhq8hh0hactj" class="animable" fill="#b16668"/><path d="M155.59 162c-.38 0-1.81-2.38-2.75-3.24-1.3-1.18.37-11.87.37-11.87a5.08 5.08 0 011.26-5.41c1.78-2 3.71-3.2 8.84-3.47a104.18 104.18 0 0110.5.49c5.07.34 6.93-.9 9.84-1.72 2.23-.62 2.48 7.41-3.14 10.07 0 0-1.83 1.18-6.65 1.77a71 71 0 01-13.34-.25c-1.39-.19-1.69 1.16-2.45 4.86-.66 3.21-1.2 8.71-2.48 8.77z" style="transform-origin:168.736px 149.373px" id="eln3soimd801m" class="animable" fill="#263238"/><path d="M153.22 147.69l-4.55-2.45a2.51 2.51 0 013.45-1.13 2.71 2.71 0 011.1 3.58z" style="transform-origin:151.089px 145.751px" id="el73c2m1l7w79" class="animable" fill="#263238"/><path d="M169.49 176.48s-6.74-1.36-9.1-2.61a7.87 7.87 0 01-3.27-3.23 10.79 10.79 0 001.86 3.81c1.72 2.2 10.51 3.83 10.51 3.83z" style="transform-origin:163.305px 174.46px" id="elvsi18ngowhk" class="animable" fill="#9a4a4d"/><path d="M169.16 159a1.35 1.35 0 11-2.7 0 1.35 1.35 0 112.7 0z" style="transform-origin:167.81px 159px" id="elgwlkxsgy2m8" class="animable" fill="#263238"/><path d="M167.73 153.91l-2.89 1.6a1.73 1.73 0 01.67-2.31 1.62 1.62 0 012.22.71z" style="transform-origin:166.185px 154.258px" id="elo16sb42wdy" class="animable" fill="#263238"/><path d="M168.88 168.36l3.09 1.15a1.62 1.62 0 01-2.1 1 1.73 1.73 0 01-.99-2.15z" style="transform-origin:170.381px 169.486px" id="ell787a9cs6vs" class="animable" fill="#9a4a4d"/><path d="M180.83 155l-2.64-2a1.61 1.61 0 012.3-.35 1.74 1.74 0 01.34 2.35z" style="transform-origin:179.666px 153.658px" id="elszo7crk2ris" class="animable" fill="#263238"/><path d="M180 158.63a1.36 1.36 0 11-1.35-1.41 1.37 1.37 0 011.35 1.41z" style="transform-origin:178.641px 158.58px" id="elfo0qos0qoh7" class="animable" fill="#263238"/><path style="transform-origin:175.475px 161.415px" id="elff0zgja6gz8" class="animable" fill="#9a4a4d" d="M173.13 157.35l.44 8.13 4.25-1.45-4.69-6.68z"/><path d="M155.88 372.27V371c.85.37 2.84 8 6.39 11.2 2.82 2.57 6.67 5.54 7.65 8.41s-5.36 4.64-8 4.17c-3.06-.54-8.37-2.7-9.7-4.7s-2-4.95-3-6.41-3.58-3.11-4.17-4.8c-.32-.93.06-3 .51-4.7s.87-3.32 1.41-3.17v1a7 7 0 004.47 1.51c1.27.01 4.45-.24 4.44-1.24z" style="transform-origin:157.477px 382.923px" id="elmis5vcka0j" class="animable" fill="#263238"/><path d="M180.73 362.77c.46 0 .84.67 1.86 1.78a19.6 19.6 0 005.27 3.79c3.35 1.68 9.86 4.26 12.81 5.58 1.84.83 1.75 3.06-.15 4.32s-6.5 2.18-12 .95c-3-.67-6.92-3.45-9.4-3.3s-7.11.11-8.94-1.15-1.09-3.95-.58-6.26c.57-2.53 1.27-6.46 2.11-6.29v.87c1.07 1.63 6.62 2.29 9 1.09z" style="transform-origin:185.505px 370.978px" id="el9tcot84h4iw" class="animable" fill="#263238"/><path d="M165.94 267.47a33.1 33.1 0 0012.46-7.14s-2.4 4.5-9.55 8.69l1 31.63z" style="transform-origin:172.17px 280.49px" id="el9s74jjvoy4s" class="animable" fill="#263238"/></g></g><path d="M340.42 77.92c-.15-1.12-1.06-1.53-2.14-.9l-117.53 67.87a4.52 4.52 0 00-1.53 1.62l-4.06-2.35a4.4 4.4 0 011.53-1.61l117.53-67.87a4 4 0 016.2 3.24z" style="transform-origin:277.79px 110.265px" id="el7302drpxv9k" class="animable" fill="#fafafa"/><path d="M220.34 360.85a5.78 5.78 0 01-1.27.31 4.28 4.28 0 01-2.52-.43 4.65 4.65 0 01-2-3.67V146.3a2.26 2.26 0 010-.26 5.07 5.07 0 01.09-.54 5.46 5.46 0 01.54-1.34l4.06 2.35a4.43 4.43 0 00-.63 2.13V359.4c0 1 .49 1.55 1.19 1.55a1.33 1.33 0 00.28 0 1.43 1.43 0 00.26-.1z" style="transform-origin:217.443px 252.679px" id="el8cg4i7asr3" class="animable" fill="#e0e0e0"/><path d="M218.59 148.65v210.76c0 1.38 1 1.94 2.16 1.24l117.53-67.86a4.8 4.8 0 002.16-3.75V78.28c0-1.38-1-1.94-2.16-1.25L220.75 144.9a4.75 4.75 0 00-2.16 3.75z" style="transform-origin:279.515px 218.843px" id="elf42zfs9b40w" class="animable" fill="#fafafa"/><path d="M240.86 175.76a1.45 1.45 0 01-.25-1v-21.17a3 3 0 01.25-1.32 1.89 1.89 0 01.8-.86l1.73-1q.59-.33.81-.09a1.58 1.58 0 01.24 1.06v21.15a3 3 0 01-.24 1.29 1.88 1.88 0 01-.81.85l-1.73 1c-.37.21-.66.24-.8.09z" style="transform-origin:242.526px 163.036px" id="el4eg9vj7i8v6" class="animable" fill="#ffc107"/><path d="M247.62 171.85a1.47 1.47 0 01-.24-1v-21.21a3.11 3.11 0 01.24-1.3 2 2 0 01.82-.85l1.44-.82a.6.6 0 011 .19l6.49 10.35V143.9a3.24 3.24 0 01.24-1.32 1.87 1.87 0 01.8-.85l1.74-1c.38-.23.65-.26.81-.1a1.68 1.68 0 01.23 1.06v21.16a3.2 3.2 0 01-.23 1.29 1.92 1.92 0 01-.81.84l-1.46.84a.6.6 0 01-1-.21l-6.51-10.29v13.3a3.22 3.22 0 01-.23 1.3 1.87 1.87 0 01-.81.84l-1.74 1c-.35.24-.62.24-.78.09z" style="transform-origin:254.285px 156.241px" id="elcwrpsz3qkxe" class="animable" fill="#ffc107"/><path d="M270 159.1a1.15 1.15 0 01-.35-.62l-5.86-18.66a2.67 2.67 0 01-.07-.53.89.89 0 01.42-.85l2.78-1.61c.22-.12.38-.15.5-.07a.8.8 0 01.26.45l3.71 13.17 3.71-17.45a1.72 1.72 0 01.79-1.27l2.78-1.61c.27-.16.41 0 .41.37a3.07 3.07 0 01-.07.61l-5.83 25.41a3.84 3.84 0 01-.36 1 1.49 1.49 0 01-.57.54l-1.69 1c-.26.15-.45.19-.56.12z" style="transform-origin:271.398px 144.561px" id="elbcetswphr66" class="animable" fill="#ffc107"/><path d="M281.82 152.11a1.5 1.5 0 01-.25-1v-21.17a3.17 3.17 0 01.25-1.32 1.89 1.89 0 01.8-.86l1.73-1c.39-.22.66-.25.82-.09a1.66 1.66 0 01.23 1.06v21.15a3.14 3.14 0 01-.23 1.29 2 2 0 01-.82.85l-1.73 1c-.37.21-.62.24-.8.09z" style="transform-origin:283.487px 139.386px" id="elmojehohlhw" class="animable" fill="#ffc107"/><path d="M292.43 146a1.47 1.47 0 01-.24-1v-18.41l-3.8 2.2c-.37.21-.63.24-.77.1a1.67 1.67 0 01-.21-1v-1.32a3.29 3.29 0 01.21-1.3 1.79 1.79 0 01.77-.8l11.44-6.6c.37-.22.63-.25.78-.1a1.74 1.74 0 01.22 1.06v1.31a3.18 3.18 0 01-.22 1.27 1.84 1.84 0 01-.78.81l-3.8 2.19v18.37a3 3 0 01-.24 1.3 1.91 1.91 0 01-.82.85l-1.72 1c-.39.17-.66.21-.82.07z" style="transform-origin:294.121px 131.881px" id="el9rn2jlnyd0t" class="animable" fill="#ffc107"/><path d="M303.09 139.83a1.45 1.45 0 01-.25-1v-21.17a3 3 0 01.25-1.32 1.82 1.82 0 01.8-.85l9.61-5.56c.37-.21.63-.24.77-.1a1.76 1.76 0 01.2 1v1.32a3.51 3.51 0 01-.2 1.3 1.79 1.79 0 01-.77.8l-6.83 3.94v5.64l4.77-2.76c.37-.21.62-.25.76-.1a1.67 1.67 0 01.21 1v1.25a3.24 3.24 0 01-.21 1.29 1.71 1.71 0 01-.76.8l-4.77 2.76v5.67l6.81-3.93c.37-.22.62-.24.76-.09a1.76 1.76 0 01.21 1.06v1.28a3.12 3.12 0 01-.21 1.28 1.72 1.72 0 01-.76.78l-9.59 5.54c-.37.34-.64.34-.8.17z" style="transform-origin:308.654px 124.843px" id="elhgzmbwbqhio" class="animable" fill="#ffc107"/><path d="M241.06 193.63l76.94-44.4c1.2-.7 2.17-.14 2.17 1.25v2a4.81 4.81 0 01-2.17 3.75l-76.91 44.41c-1.2.69-2.17.13-2.17-1.25v-2a4.78 4.78 0 012.14-3.76z" style="transform-origin:279.545px 174.932px" id="el18idp8jwkss" class="animable" fill="#e0e0e0"/><path d="M253.25 208.79l52.53-30.33c1.2-.69 2.17-.13 2.17 1.25v2a4.78 4.78 0 01-2.17 3.75l-52.53 30.32c-1.2.69-2.17.13-2.17-1.25v-2a4.78 4.78 0 012.17-3.74z" style="transform-origin:279.515px 197.12px" id="eln7rzn67qq2" class="animable" fill="#e6e6e6"/><path d="M253.25 223.05l52.53-30.32C307 192 308 192.6 308 194v2a4.78 4.78 0 01-2.17 3.75l-52.53 30.33c-1.2.69-2.17.13-2.17-1.25v-2a4.78 4.78 0 012.12-3.78z" style="transform-origin:279.565px 211.396px" id="ely0b9vvahahk" class="animable" fill="#e6e6e6"/><path d="M253.25 237.32L305.78 207c1.2-.69 2.17-.13 2.17 1.25v2a4.78 4.78 0 01-2.17 3.75l-52.53 30.32c-1.2.69-2.17.13-2.17-1.25v-2a4.78 4.78 0 012.17-3.75z" style="transform-origin:279.515px 225.66px" id="elnd7iep7x12i" class="animable" fill="#e6e6e6"/><path d="M241.06 266.85L318 222.44c1.2-.69 2.17-.13 2.17 1.25v2a4.81 4.81 0 01-2.17 3.75l-76.91 44.41c-1.2.69-2.17.13-2.17-1.25v-2a4.78 4.78 0 012.14-3.75z" style="transform-origin:279.545px 248.145px" id="eln65n3mcc07c" class="animable" fill="#e0e0e0"/><path d="M253.25 282.07l52.53-30.33c1.2-.69 2.17-.13 2.17 1.25v2a4.78 4.78 0 01-2.17 3.75l-52.53 30.36c-1.2.69-2.17.13-2.17-1.25v-2a4.78 4.78 0 012.17-3.78z" style="transform-origin:279.515px 270.42px" id="el8nbhpp3ldyo" class="animable" fill="#e6e6e6"/><path d="M253.25 296.33L305.78 266c1.2-.69 2.17-.14 2.17 1.25v2a4.78 4.78 0 01-2.17 3.75l-52.53 30.33c-1.2.69-2.17.13-2.17-1.25v-2a4.78 4.78 0 012.17-3.75z" style="transform-origin:279.515px 284.664px" id="elavjyb8q4ael" class="animable" fill="#e6e6e6"/><path d="M253.25 310.6l52.53-30.33c1.2-.69 2.17-.13 2.17 1.25v2a4.78 4.78 0 01-2.17 3.75l-52.53 30.32c-1.2.69-2.17.13-2.17-1.25v-2a4.78 4.78 0 012.17-3.74z" style="transform-origin:279.515px 298.93px" id="elliv1f4n502" class="animable" fill="#e6e6e6"/><path d="M213.07 221.56c-1.68 1-3.5 1.43-5.75 3.08-2 1.45-2.86 1.46-5.09 2-2.41.59-21.52-5.06-24.86-8-5.2-4.54-14.41-20.92-17.85-24.85-2.83-3.24-6.76-7.63-10.25-7.65-5.77 1.75-4.46 10.33.36 18.05 4 6.39 12.22 19.15 20.8 24.78 4.16 2.73 24.5 7.54 30.87 7.95 1.93.13 5.36 1 8.4 1.16a17 17 0 008.7-1.49 13.46 13.46 0 005.44-4.61 8.64 8.64 0 001.41-3.68 5.68 5.68 0 00-.87-3.79 1.58 1.58 0 00-.57-.55 1.88 1.88 0 00-1.41.1c-2.55.89-5.18 2.23-7.81 2.84-2.22.51-3.86.57-3.64.17s1.54-.62 3.05-1.91a4.89 4.89 0 00.52-.5v-4a15 15 0 00-1.45.9z" style="transform-origin:185.374px 212.147px" id="el6h2lomfu40n" class="animable" fill="#b16668"/><path d="M148.91 184.14c-4.27 2.08-6 5.26-4.1 12.35 1.7 6.36 8.22 17.2 13.35 22.51 0 0 8.77-4.16 13.45-9.56-4.63-7.08-6.85-11.24-11.2-17.23s-8.9-8.79-11.5-8.07z" style="transform-origin:157.827px 201.515px" id="elz4bhr3pl92o" class="animable" fill="#455a64"/></g><defs><filter id="active" height="200%"><feMorphology in="SourceAlpha" result="DILATED" operator="dilate" radius="2"/><feFlood flood-color="#32DFEC" flood-opacity="1" result="PINK"/><feComposite in="PINK" in2="DILATED" operator="in" result="OUTLINE"/><feMerge><feMergeNode in="OUTLINE"/><feMergeNode in="SourceGraphic"/></feMerge></filter><filter id="hover" height="200%"><feMorphology in="SourceAlpha" result="DILATED" operator="dilate" radius="2"/><feFlood flood-color="red" flood-opacity=".5" result="PINK"/><feComposite in="PINK" in2="DILATED" operator="in" result="OUTLINE"/><feMerge><feMergeNode in="OUTLINE"/><feMergeNode in="SourceGraphic"/></feMerge><feColorMatrix values="0 0 0 0 0 0 1 0 0 0 0 0 0 0 0 0 0 0 1 0"/></filter></defs></svg>