<svg xmlns="http://www.w3.org/2000/svg" width="283.019" height="249.417" viewBox="0 0 283.019 249.417"><g transform="translate(-13.44 -65.849)"><g transform="translate(13.44 164.095)"><path d="M54.891,357.049c55.258,29.516,144.855,29.516,200.119,0s55.264-77.371,0-106.893-144.861-29.516-200.125,0S-.373,327.539,54.891,357.049Z" transform="translate(-13.44 -228.016)" fill="#f0f0f0"/></g><g transform="translate(83.826 239.015)"><ellipse cx="24.155" cy="13.946" rx="24.155" ry="13.946" transform="translate(149.096)" fill="#e0e0e0"/><ellipse cx="24.155" cy="13.946" rx="24.155" ry="13.946" transform="translate(0 2.484)" fill="#e0e0e0"/></g><g transform="translate(28.101 65.849)"><g transform="translate(0)"><path d="M37.646,178.159a4.707,4.707,0,0,1,2.126-3.7l109.05-62.97a4.725,4.725,0,0,1,4.241,0l2.423,1.387a4.713,4.713,0,0,1,2.133,3.69v83.605a4.744,4.744,0,0,1-2.133,3.7L46.437,266.841a4.762,4.762,0,0,1-4.241,0l-2.423-1.387a4.726,4.726,0,0,1-2.133-3.7Z" transform="translate(-37.64 -83.642)" fill="#ffc107"/><path d="M153.512,93.7,99.629,66.679A5.6,5.6,0,0,0,91.8,68.727L38.67,158.264l2.817,1.624L156.281,95.335Z" transform="translate(-38.046 -65.849)" fill="#ffc107"/><path d="M153.512,93.7,99.629,66.679A5.6,5.6,0,0,0,91.8,68.727L38.67,158.264l2.817,1.624L156.281,95.335Z" transform="translate(-38.046 -65.849)" opacity="0.1"/><path d="M37.64,220.5V304.1a4.707,4.707,0,0,0,2.139,3.69l2.423,1.393a4,4,0,0,0,.606.261,4.33,4.33,0,0,0,.878.2,5.07,5.07,0,0,0,1.684-.061,1.429,1.429,0,0,0,.412-.109,1.526,1.526,0,0,0,.248-.1,1.254,1.254,0,0,1-1.018,0,1.478,1.478,0,0,1-.654-1.4V224.369a1.872,1.872,0,0,1,1.109-1.817l-1.109-.642L38.3,218.42A4.4,4.4,0,0,0,37.64,220.5Z" transform="translate(-37.64 -125.987)" opacity="0.1"/><path d="M159.368,116.083l-49.151,78.655-2.423-.473a9.918,9.918,0,0,0-9.924,3.908l-2.981,4.108-47.255-20.7-4.344-2.508L158.108,114.52A4.847,4.847,0,0,1,159.368,116.083Z" transform="translate(-39.867 -85.033)" opacity="0.1"/></g><path d="M158.114,96.377a7.8,7.8,0,0,0-.927-.606L104.315,69.345a5.6,5.6,0,0,0-7.876,2.048L43.32,160.929Z" transform="translate(-39.879 -66.891)" fill="#ffc107"/><path d="M202.389,256.417a4.671,4.671,0,0,0,1-2.611L153.71,246.93Z" transform="translate(-83.391 -137.225)" opacity="0.2"/><path d="M97.028,259.38,49.167,325.361a1.6,1.6,0,0,1-.46-1.26v-.909Z" transform="translate(-42 -142.132)" opacity="0.2"/></g><g transform="translate(215.334 107.543)"><g transform="translate(0 0)"><path d="M376.024,202.637c7.409-6.367,14.334-20.871,12.359-25.4-3.411-.176-5.907,1.121-8.1,5.156,0,0-6.228,12.117-9.724,15.685a25.251,25.251,0,0,1-10.9,6.8,7.306,7.306,0,0,1-2.738-.055c-1.545-.473-2.423-.067-3.9-.139-1.169-.055-1.775-.436-1.908-.182a1.327,1.327,0,0,0,.654,1.684,6.864,6.864,0,0,0,1.769.66,13.529,13.529,0,0,1-3.744.606c-3.029.091-4.314,1.09-1.672,3.92,1.3,1.393,4.75,2.242,9.433.988a51.968,51.968,0,0,0,5.846-2.3,52.792,52.792,0,0,0,12.626-7.428Z" transform="translate(-346.689 -151.443)" fill="#ffa8a7"/><path d="M428.879,365.133v-.763c-.3.9-1.69,4.732-3.8,6.664-1.678,1.527-3.968,3.3-4.55,5s3.187,2.369,4.75,2.09a9.639,9.639,0,0,0,5.453-2.926c.9-1.109,1.472-2.423,2.12-3.29s2.127-1.848,2.472-2.853a6.4,6.4,0,0,0-.3-2.787c-.267-1.024-.515-1.975-.836-1.89v.606a4.156,4.156,0,0,1-2.654.9C430.757,365.878,428.873,365.727,428.879,365.133Z" transform="translate(-375.771 -225.21)" fill="#263238"/><path d="M425.194,369.539l1.521-1.351a15.607,15.607,0,0,0,3.241-5.18,7.271,7.271,0,0,0,.557-2.8V357.18h5.313v4.931h0v.133h0c-.254,1.109-2.7,4.047-4.083,5.961a7.7,7.7,0,0,1-4.8,3.2C424.915,371.684,423.9,371.054,425.194,369.539Z" transform="translate(-377.405 -222.376)" fill="#ffa8a7"/><path d="M394.653,356.5v-.763c-.3.9-1.69,4.732-3.8,6.664-1.678,1.527-3.962,3.3-4.544,5s3.181,2.369,4.75,2.09a9.638,9.638,0,0,0,5.452-2.926c.9-1.109,1.472-2.423,2.114-3.29s2.126-1.818,2.478-2.853a6.49,6.49,0,0,0-.3-2.787c-.267-1.024-.515-1.975-.836-1.89v.606a4.174,4.174,0,0,1-2.66.9C396.537,357.236,394.647,357.109,394.653,356.5Z" transform="translate(-362.283 -221.808)" fill="#263238"/><path d="M390.973,360.889c.515-.467,1.042-.921,1.515-1.351a15.5,15.5,0,0,0,3.241-5.18,7.269,7.269,0,0,0,.557-2.8V348.53H401.6v4.932h0v.133h0c-.254,1.109-2.69,4.047-4.077,5.961a7.719,7.719,0,0,1-4.8,3.2C390.694,363.034,389.67,362.4,390.973,360.889Z" transform="translate(-363.915 -218.966)" fill="#ffa8a7"/><path d="M423.8,228.4c4.12,9-.151,40.706-.151,40.706.127,1.46,1.818,4.332,2.423,10.766.733,7.591-1.151,26.657-1.151,26.657a5.767,5.767,0,0,1-5.374.212s-5.065-28.729-6.022-36.277c-.83-6.591-2.423-21.083-2.423-21.083l-4.538,21.047A39.156,39.156,0,0,1,408,276.936c.43,4.441-3.871,25.124-3.871,25.124a11.772,11.772,0,0,1-5.319.157s-1.521-27.444-1.92-32.8c-.672-8.985,1.714-37.029,3.362-42.348Z" transform="translate(-366.428 -171.091)" fill="#ffc107"/><path d="M414.186,256.147l-1.339-8.361s-5.659-1.175-8.227-3.587a14.613,14.613,0,0,0,6.694,4.447l1.5,6.434-2.629,19.49Z" transform="translate(-369.523 -177.843)" opacity="0.15"/><path d="M418.362,177.5h0c5.283.363,5.652,2.914,6.973,5.707a9.087,9.087,0,0,1,.255,6.81l-3.683,10.651s1.721,4.168,3.726,8.106c-9.239,5.156-20.78,2.423-23.555-1.321-.121-.8.606-7.04,1.036-11.111-1.63-4.083-2.06-6.664-1.369-9.372,1.272-5,6.222-9.887,8.409-9.693Z" transform="translate(-368.265 -151.462)" fill="#f0f0f0"/><path d="M4.374,0H23.646V13.68A10.856,10.856,0,0,1,12.789,24.536H10.857A10.857,10.857,0,0,1,0,13.68V4.374A4.374,4.374,0,0,1,4.374,0Z" transform="translate(57.258 24.536) rotate(180)" fill="#263238"/><path d="M437.575,137,436,139.569a1.472,1.472,0,0,0,2.084-.424,1.593,1.593,0,0,0-.509-2.145Z" transform="translate(-381.892 -135.588)" fill="#263238"/><path d="M440.293,140.88l-2.993.448a1.466,1.466,0,0,0,1.672,1.309,1.593,1.593,0,0,0,1.321-1.757Z" transform="translate(-382.405 -137.118)" fill="#263238"/><path d="M407.855,142.57c-1.248.739-2.793,3.877-2.641,10.463.133,5.586,1.939,6.961,2.847,7.361s2.66.151,4.362-.127v3.35s-2.351,2.732-2.205,4.241,3.4,1.9,5.6.4a14.377,14.377,0,0,0,3.635-3.786V156.4a2.136,2.136,0,0,0,3.029.285c1.884-1.248,1.951-4.338.854-5.453s-3.447-.757-3.883.775a13.49,13.49,0,0,1-6.337-1.89,10.172,10.172,0,0,1-5.265-7.549Z" transform="translate(-369.753 -137.784)" fill="#ffa8a7"/><path d="M416.536,157.077a.7.7,0,1,0,.739-.7A.721.721,0,0,0,416.536,157.077Z" transform="translate(-374.218 -143.227)" fill="#263238"/><path d="M414.14,165.34l-1.63.521a.836.836,0,0,0,1.06.606A.9.9,0,0,0,414.14,165.34Z" transform="translate(-372.633 -146.759)" fill="#f28f8f"/><path d="M406.908,153.106l1.424-.981a.83.83,0,0,0-1.181-.242.9.9,0,0,0-.242,1.224Z" transform="translate(-370.369 -141.395)" fill="#263238"/><path d="M407.579,156.254a.7.7,0,1,0,.736-.669A.7.7,0,0,0,407.579,156.254Z" transform="translate(-370.69 -142.913)" fill="#263238"/><path d="M411.719,156.03l-.109,4.223-2.229-.685Z" transform="translate(-371.4 -143.089)" fill="#f28f8f"/><path d="M417.12,169.987c1.817-.236,5.489-1.3,6.058-2.757a3.793,3.793,0,0,1-1.284,1.86c-1.1.945-4.768,2.011-4.768,2.011Z" transform="translate(-374.45 -147.504)" fill="#f28f8f"/><path d="M418.9,214.018a5.574,5.574,0,0,0,4.156-6.8,2.826,2.826,0,0,0-.091-.291,1.817,1.817,0,0,0-1.872-1.242h0a5.4,5.4,0,0,0,2.308-3.441l1.121-6.664a7.724,7.724,0,0,0-.285-3.241l3.714-4.3.691.479a9.305,9.305,0,0,1-.151,5.755l-3.683,10.651s1.721,4.168,3.726,8.106a23.9,23.9,0,0,1-19.744,1.309A27.146,27.146,0,0,0,418.9,214.018Z" transform="translate(-371.167 -155.707)" fill="#e6e6e6"/><path d="M447.133,204.46c-4.8-19.6-8.348-26.142-14.177-26.051-1.7,2.036-1.212,8.179,1.46,11.9,0,0,5.992,12.644,6.949,17.139.842,3.95,1.818,8.918,1.733,12.317a2.46,2.46,0,0,1-.666,1.612c-1.09,1.212-1.1,2.145-1.818,3.459-.557,1.024-1.163,1.412-.994,1.642a1.327,1.327,0,0,0,1.818.133,6.918,6.918,0,0,0,1.369-1.309,13.637,13.637,0,0,1-1.084,3.635c-1.212,2.775-.933,4.192,2.817,3.2,2.345-.606,3.817-2.575,4.168-8.215a43.16,43.16,0,0,0,.061-6.246C448.26,212.318,447.9,207.617,447.133,204.46Z" transform="translate(-380.303 -151.91)" fill="#ffa8a7"/></g></g><g transform="translate(91.241 70.799)"><g transform="translate(0 37.984)"><path d="M208.7,191.506a31.165,31.165,0,0,0-3.187,2.332A7.154,7.154,0,0,1,202.7,195.8c-1.4.551-2.714.388-6.592-.23-4.75-.763-6.791-1.557-8.839-3.308-2.393-2.042-7.743-8.2-10.336-10.62a7.452,7.452,0,0,0-6.5-1.569,39.3,39.3,0,0,0,5.137,10.657c2.072,2.95,5.943,5.774,7.7,7.234,2.8,2.332,4.289,3.253,10.451,3.714a63.252,63.252,0,0,0,9.088.351c1.375-.042,2.236-.055,4.483-.242a12.941,12.941,0,0,0,2.89-.5,10.711,10.711,0,0,0,3.029-1.212,8.154,8.154,0,0,0,2.872-3.229,5.071,5.071,0,0,0,.533-2.32,3.386,3.386,0,0,0-.836-2.2.9.9,0,0,0-.388-.285,1.133,1.133,0,0,0-.836.176,48.926,48.926,0,0,1-4.447,2.363c-1.29.5-2.266.666-2.175.406s.872-.5,1.672-1.4,1-2.157.485-2.545S209.628,190.743,208.7,191.506Z" transform="translate(-153.121 -153.731)" fill="#b16668"/><path d="M168.61,179.7a7.094,7.094,0,0,1,4.707-.509c2.423.685,4.32,2.254,6.6,4.7s6.137,6.422,6.137,6.422-1.9,4.8-6.161,6.507l-8.942-8.27Z" transform="translate(-152.404 -153.386)" fill="#455a64"/><g transform="translate(0 0)"><rect width="5.422" height="9.281" transform="translate(8.488 145.378) rotate(180)" fill="#b16668"/><path d="M171.69,358.831l5.416.188.273-9.821-5.689-.188Z" transform="translate(-153.618 -220.396)" fill="#b16668"/><path d="M142.623,242.179c0,5.174.915,35.284.915,35.284-.127,1.49-1.563,4.138-1.672,9.506-.164,7.779,2.835,29.141,2.835,29.141a7.124,7.124,0,0,0,6.058.121s2.46-28.959,3.429-36.659c.848-6.725,2.284-24.985,2.284-24.985l2.557,21.943a30.83,30.83,0,0,0-.673,8.615c.254,3.562,1.254,25.621,1.254,25.621a7.391,7.391,0,0,0,6.258.479s3.823-31.443,3.889-34.714c.073-3.726-1.418-41.76-1.418-41.76Z" transform="translate(-141.859 -175.366)" fill="#37474f"/><path d="M146.682,182.032a4.986,4.986,0,0,0-2.617,2.72,12.771,12.771,0,0,0-.794,4.683v10.626l-.151,20.053a24.218,24.218,0,0,0,25.972-1.684s-.467-25.815-.467-30.037v-.606a9.624,9.624,0,0,0-12.086-8.669l-4.913,1.266Z" transform="translate(-142.356 -153.308)" fill="#f0f0f0"/><circle cx="7.452" cy="7.452" r="7.452" transform="translate(9.273 14.505) rotate(-76.72)" fill="#263238"/><path d="M150.71,160.27a64.518,64.518,0,0,0,1.7,6.6,2.532,2.532,0,0,0,1.484,1.212l-.085-3.986Z" transform="translate(-145.348 -146.001)" fill="#263238"/><path d="M151.375,146.848a2.781,2.781,0,0,0-2.308.812c-.994,1.018-.442,4.2.794,7.312l2.278.261Z" transform="translate(-144.498 -140.703)" fill="#263238"/><path d="M152.189,152.951c-.454.273-1.1-.606-1.666-1.212a1.973,1.973,0,0,0-3.314.539c-.891,1.927.806,4.562,2.254,5.016,2.49.782,2.866-.812,2.866-.812l.182,9.257h0c3.1,3.968,11.693,3.635,8.112-.515v-2.732a15.716,15.716,0,0,0,3.362.176c1.818-.285,2.981-1.733,3.538-3.714.891-3.187,1.212-5.755.473-12.02-.83-6.864-8.815-6.937-13.122-4.241S152.189,152.951,152.189,152.951Z" transform="translate(-143.871 -138.422)" fill="#b16668"/><path d="M154.311,152.046c-.23,0-1.1-1.442-1.666-1.963-.788-.715.224-7.191.224-7.191a3.078,3.078,0,0,1,.763-3.278c1.078-1.212,2.248-1.939,5.356-2.1a63.117,63.117,0,0,1,6.361.3c3.072.206,4.2-.545,5.961-1.042,1.351-.376,1.5,4.489-1.9,6.1a10.491,10.491,0,0,1-4.029,1.072,43.011,43.011,0,0,1-8.082-.151c-.842-.115-1.024.7-1.484,2.944C155.413,148.677,155.086,152.009,154.311,152.046Z" transform="translate(-145.992 -136.729)" fill="#263238"/><path d="M151.427,146.162l-2.757-1.484a1.521,1.521,0,0,1,2.09-.685A1.642,1.642,0,0,1,151.427,146.162Z" transform="translate(-144.544 -139.514)" fill="#263238"/><path d="M164.614,174.178A31.513,31.513,0,0,1,159.1,172.6a4.768,4.768,0,0,1-1.981-1.957,6.538,6.538,0,0,0,1.127,2.308c1.042,1.333,6.367,2.32,6.367,2.32Z" transform="translate(-147.875 -150.089)" fill="#9a4a4d"/><path d="M168.1,158.468a.818.818,0,1,1-.818-.818A.818.818,0,0,1,168.1,158.468Z" transform="translate(-151.556 -144.968)" fill="#263238"/><path d="M166.512,153.554l-1.751.969a1.048,1.048,0,0,1,.406-1.4.981.981,0,0,1,1.345.43Z" transform="translate(-150.838 -143.138)" fill="#263238"/><path d="M168.845,168.36l1.872.7a.981.981,0,0,1-1.272.606A1.048,1.048,0,0,1,168.845,168.36Z" transform="translate(-152.475 -149.19)" fill="#9a4a4d"/><path d="M179.789,153.942l-1.6-1.212a.975.975,0,0,1,1.393-.212A1.054,1.054,0,0,1,179.789,153.942Z" transform="translate(-156.18 -142.866)" fill="#263238"/><path d="M178.928,158.074a.83.83,0,1,1-.23-.6A.824.824,0,0,1,178.928,158.074Z" transform="translate(-155.821 -144.799)" fill="#263238"/><path d="M173.13,157.35l.267,4.925,2.575-.878Z" transform="translate(-154.185 -144.85)" fill="#9a4a4d"/><path d="M151.564,371.766V371c.515.224,1.721,4.847,3.871,6.785,1.708,1.557,4.041,3.356,4.635,5.1s-3.247,2.811-4.847,2.526c-1.854-.327-5.071-1.636-5.877-2.847s-1.212-3-1.817-3.883-2.169-1.884-2.526-2.908a6.574,6.574,0,0,1,.309-2.847c.273-1.03.527-2.011.854-1.921v.606a4.241,4.241,0,0,0,2.708.915C149.644,372.523,151.57,372.371,151.564,371.766Z" transform="translate(-143.07 -229.06)" fill="#263238"/><path d="M176.111,362.539c.279,0,.509.406,1.127,1.078a11.875,11.875,0,0,0,3.193,2.3c2.03,1.018,5.974,2.581,7.761,3.381,1.115.5,1.06,1.854-.091,2.617s-3.938,1.321-7.27.576c-1.818-.406-4.192-2.09-5.695-2s-4.307.067-5.416-.7-.66-2.393-.351-3.792c.345-1.533.769-3.914,1.278-3.811v.527c.648.988,4.011,1.387,5.452.66Z" transform="translate(-152.562 -225.589)" fill="#263238"/><path d="M165.94,264.656a20.053,20.053,0,0,0,7.549-4.326s-1.454,2.726-5.786,5.265l.606,19.163Z" transform="translate(-151.351 -185.441)" fill="#263238"/></g></g><path d="M291.047,76.383c-.091-.679-.642-.927-1.3-.545l-71.2,41.118a2.738,2.738,0,0,0-.927.981l-2.46-1.424a2.665,2.665,0,0,1,.927-.975l71.2-41.118a2.423,2.423,0,0,1,3.756,1.963Z" transform="translate(-170.752 -74.02)" fill="#fafafa"/><path d="M218.056,275.438a3.5,3.5,0,0,1-.769.188,2.593,2.593,0,0,1-1.527-.26,2.817,2.817,0,0,1-1.212-2.223V145.456a1.377,1.377,0,0,1,0-.158,3.082,3.082,0,0,1,.055-.327,3.309,3.309,0,0,1,.327-.812l2.46,1.424a2.684,2.684,0,0,0-.382,1.29V274.56c0,.606.3.939.721.939a.8.8,0,0,0,.17,0,.866.866,0,0,0,.158-.061Z" transform="translate(-170.51 -101.667)" fill="#e0e0e0"/><path d="M218.59,120.3V247.989c0,.836.606,1.175,1.309.751l71.2-41.112a2.908,2.908,0,0,0,1.309-2.272V77.671c0-.836-.606-1.175-1.309-.757l-71.2,41.118A2.878,2.878,0,0,0,218.59,120.3Z" transform="translate(-172.104 -75.09)" fill="#fafafa"/><path d="M240.757,165.693a.878.878,0,0,1-.151-.606V152.261a1.818,1.818,0,0,1,.151-.8,1.145,1.145,0,0,1,.485-.521l1.048-.606q.357-.2.491-.055a.957.957,0,0,1,.145.642v12.813a1.818,1.818,0,0,1-.145.781,1.139,1.139,0,0,1-.491.515l-1.048.606C241.018,165.765,240.842,165.783,240.757,165.693Z" transform="translate(-180.779 -104.055)" fill="#ffc107"/><path d="M247.521,159.5a.891.891,0,0,1-.145-.606v-12.85a1.884,1.884,0,0,1,.145-.788,1.212,1.212,0,0,1,.5-.515l.872-.5a.364.364,0,0,1,.606.115l3.932,6.27v-8.064a1.963,1.963,0,0,1,.145-.8,1.133,1.133,0,0,1,.485-.515l1.054-.606c.23-.139.394-.158.491-.061a1.018,1.018,0,0,1,.139.642v12.819a1.939,1.939,0,0,1-.139.781,1.163,1.163,0,0,1-.491.509l-.884.509a.364.364,0,0,1-.606-.127l-3.944-6.234v8.058a1.951,1.951,0,0,1-.139.788,1.133,1.133,0,0,1-.491.509l-1.054.606C247.782,159.6,247.618,159.6,247.521,159.5Z" transform="translate(-183.448 -100.236)" fill="#ffc107"/><path d="M267.523,147.625a.7.7,0,0,1-.212-.376l-3.55-11.3a1.615,1.615,0,0,1-.042-.321.539.539,0,0,1,.254-.515l1.684-.975c.133-.073.23-.091.3-.042a.485.485,0,0,1,.158.273l2.248,7.979,2.248-10.572a1.042,1.042,0,0,1,.479-.769l1.684-.975c.164-.1.248,0,.248.224a1.858,1.858,0,0,1-.042.37l-3.532,15.394a2.324,2.324,0,0,1-.218.606.9.9,0,0,1-.345.327l-1.024.606C267.7,147.643,267.589,147.668,267.523,147.625Z" transform="translate(-189.891 -96.081)" fill="#ffc107"/><path d="M281.718,142.043a.908.908,0,0,1-.151-.606V128.611a1.922,1.922,0,0,1,.152-.8,1.145,1.145,0,0,1,.485-.521l1.048-.606c.236-.133.4-.151.5-.055a1.006,1.006,0,0,1,.139.642v12.813a1.9,1.9,0,0,1-.139.782,1.211,1.211,0,0,1-.5.515l-1.048.606C281.979,142.115,281.827,142.133,281.718,142.043Z" transform="translate(-196.925 -94.733)" fill="#ffc107"/><path d="M290.448,134.836a.89.89,0,0,1-.145-.606V123.077L288,124.41c-.224.127-.382.145-.467.061a1.012,1.012,0,0,1-.127-.606v-.8a1.992,1.992,0,0,1,.127-.788,1.085,1.085,0,0,1,.467-.485l6.931-4c.224-.133.382-.151.473-.061a1.054,1.054,0,0,1,.133.642v.794a1.927,1.927,0,0,1-.133.769,1.115,1.115,0,0,1-.473.491l-2.3,1.327v11.129a1.817,1.817,0,0,1-.145.788,1.157,1.157,0,0,1-.5.515l-1.042.606C290.708,134.9,290.545,134.921,290.448,134.836Z" transform="translate(-199.227 -91.228)" fill="#ffc107"/><path d="M302.987,127.971a.878.878,0,0,1-.151-.606V114.54a1.817,1.817,0,0,1,.151-.8,1.1,1.1,0,0,1,.485-.515l5.822-3.368c.224-.127.382-.145.466-.061a1.067,1.067,0,0,1,.121.606v.8a2.127,2.127,0,0,1-.121.788,1.085,1.085,0,0,1-.466.485l-4.138,2.387v3.417l2.89-1.672c.224-.127.376-.151.46-.061a1.012,1.012,0,0,1,.127.606v.757a1.962,1.962,0,0,1-.127.782,1.036,1.036,0,0,1-.46.485l-2.89,1.672v3.435l4.126-2.381c.224-.133.376-.145.46-.055a1.066,1.066,0,0,1,.127.642v.775a1.889,1.889,0,0,1-.127.775,1.042,1.042,0,0,1-.46.473l-5.81,3.356C303.248,128.074,303.084,128.074,302.987,127.971Z" transform="translate(-205.308 -88.101)" fill="#ffc107"/><path d="M240.216,176.01l46.613-26.9c.727-.424,1.315-.085,1.315.757v1.212a2.914,2.914,0,0,1-1.315,2.272l-46.595,26.905c-.727.418-1.315.079-1.315-.757v-1.212A2.9,2.9,0,0,1,240.216,176.01Z" transform="translate(-180.117 -103.546)" fill="#e0e0e0"/><path d="M252.395,196.718l31.824-18.375c.727-.418,1.315-.079,1.315.757v1.212a2.9,2.9,0,0,1-1.315,2.272l-31.825,18.369c-.727.418-1.315.079-1.315-.757v-1.212A2.9,2.9,0,0,1,252.395,196.718Z" transform="translate(-184.91 -115.07)" fill="#e6e6e6"/><path d="M252.414,210.976l31.824-18.369c.739-.442,1.345-.079,1.345.769v1.212a2.9,2.9,0,0,1-1.315,2.272l-31.825,18.375c-.727.418-1.315.079-1.315-.757v-1.212a2.9,2.9,0,0,1,1.284-2.29Z" transform="translate(-184.93 -120.688)" fill="#e6e6e6"/><path d="M252.395,225.252l31.824-18.369c.727-.418,1.315-.079,1.315.757v1.212a2.9,2.9,0,0,1-1.315,2.272l-31.825,18.369c-.727.418-1.315.079-1.315-.757v-1.212A2.9,2.9,0,0,1,252.395,225.252Z" transform="translate(-184.91 -126.32)" fill="#e6e6e6"/><path d="M240.216,249.229l46.613-26.905c.727-.418,1.315-.079,1.315.757v1.212a2.914,2.914,0,0,1-1.315,2.272L240.235,253.47c-.727.418-1.315.079-1.315-.757V251.5A2.9,2.9,0,0,1,240.216,249.229Z" transform="translate(-180.117 -132.405)" fill="#e0e0e0"/><path d="M252.395,270l31.824-18.375c.727-.418,1.315-.079,1.315.757v1.212a2.9,2.9,0,0,1-1.315,2.272l-31.824,18.393c-.727.418-1.315.079-1.315-.757v-1.212A2.9,2.9,0,0,1,252.395,270Z" transform="translate(-184.91 -143.954)" fill="#e6e6e6"/><path d="M252.395,284.258l31.824-18.375c.727-.418,1.315-.085,1.315.757v1.212a2.9,2.9,0,0,1-1.315,2.272L252.395,288.5c-.727.418-1.315.079-1.315-.757V286.53A2.9,2.9,0,0,1,252.395,284.258Z" transform="translate(-184.91 -149.575)" fill="#e6e6e6"/><path d="M252.395,298.528l31.824-18.375c.727-.418,1.315-.079,1.315.757v1.212a2.9,2.9,0,0,1-1.315,2.272l-31.824,18.369c-.727.418-1.315.079-1.315-.757v-1.212A2.9,2.9,0,0,1,252.395,298.528Z" transform="translate(-184.91 -155.2)" fill="#e6e6e6"/><path d="M186.418,207.6a28.072,28.072,0,0,0-3.484,1.866,6.591,6.591,0,0,1-3.084,1.212c-1.46.357-13.038-3.066-15.061-4.847-3.15-2.751-8.73-12.674-10.814-15.055-1.715-1.963-4.1-4.622-6.21-4.635-3.5,1.06-2.7,6.258.218,10.935,2.423,3.871,7.4,11.6,12.6,15.013,2.52,1.654,14.843,4.568,18.7,4.816,1.169.079,3.247.606,5.089.7a10.3,10.3,0,0,0,5.271-.9,8.154,8.154,0,0,0,3.3-2.793,5.234,5.234,0,0,0,.854-2.229,3.441,3.441,0,0,0-.527-2.3.957.957,0,0,0-.345-.333,1.139,1.139,0,0,0-.854.061,48.041,48.041,0,0,1-4.732,1.721c-1.345.309-2.338.345-2.205.1s.933-.376,1.848-1.157a2.961,2.961,0,0,0,.315-.3v-2.423a9.093,9.093,0,0,0-.878.545Z" transform="translate(-143.276 -118.214)" fill="#b16668"/><path d="M146.992,184.1c-2.587,1.26-3.635,3.187-2.484,7.482,1.03,3.853,4.98,10.42,8.088,13.637,0,0,5.313-2.52,8.148-5.792-2.805-4.289-4.15-6.81-6.785-10.439S148.567,183.66,146.992,184.1Z" transform="translate(-142.72 -117.382)" fill="#455a64"/></g></g></svg>