<svg xmlns="http://www.w3.org/2000/svg" width="200" height="250" viewBox="0 0 200 250"><g transform="translate(-25 -65.3)"><g transform="translate(25 314.138)"><path d="M225,452.907c0,.1-44.774.167-100,.167s-100-.064-100-.167,44.769-.167,100.009-.167S225,452.823,225,452.907Z" transform="translate(-25 -452.74)" fill="#263238"/></g><g transform="translate(77.779 65.3)"><rect width="117.22" height="205.292" transform="translate(0.11 0.141)" fill="#f5f5f5"/><path d="M139.849,65.441l117.22-.141h.1V270.894H139.72v-.148c.064-121.991.106-203.976.106-205.286,0,1.285.046,83.295.11,205.286l-.11-.148h117.22l-.12.167h0V65.5l.1.135Z" transform="translate(-139.72 -65.3)" fill="#263238"/><path d="M238.12,90.86H239.3v7.457h3.312V99.7h-4.49Z" transform="translate(-192.849 -74.444)"/><path d="M248.7,97.3a3.906,3.906,0,0,1,1.523-3.418,2.06,2.06,0,0,1,2.84.694,4.666,4.666,0,0,1,.6,3.937,2.739,2.739,0,0,1-2.391,2.249,2.1,2.1,0,0,1-1.828-.946A4.17,4.17,0,0,1,248.7,97.3Zm4.012,0c-.043-1.09-.7-1.931-1.483-1.893s-1.4.942-1.385,2.033.647,1.969,1.429,1.974a1.242,1.242,0,0,0,1.058-.608A2.465,2.465,0,0,0,252.71,97.3Z" transform="translate(-198.56 -75.413)"/><path d="M266.587,94.07v5.7c0,2.447-.92,3.565-2.609,3.565a3.126,3.126,0,0,1-2.351-.963l.506-1.188a2.416,2.416,0,0,0,1.785.809c1.067,0,1.537-.681,1.537-2.049v-.353a1.865,1.865,0,0,1-1.619.9,2.275,2.275,0,0,1-2.11-1.587,4.4,4.4,0,0,1,0-3.346,2.275,2.275,0,0,1,2.11-1.587,1.861,1.861,0,0,1,1.675.976v-.9Zm-1.113,3.173a2.266,2.266,0,0,0-.843-1.989,1.172,1.172,0,0,0-1.635.363,2.657,2.657,0,0,0-.36,2.256,1.57,1.57,0,0,0,1.37,1.3,1.179,1.179,0,0,0,1.033-.519A2.345,2.345,0,0,0,265.473,97.243Z" transform="translate(-205.416 -75.554)"/><path d="M275.57,90.393a1.166,1.166,0,0,1,.218-.685.592.592,0,0,1,.5-.259.569.569,0,0,1,.5.237,1.128,1.128,0,0,1,.226.669c-.022.529-.332.945-.712.956s-.7-.389-.737-.917Zm.152,2.062h1.132V99.2h-1.132Z" transform="translate(-213.07 -73.938)"/><path d="M286.347,96.958v3.854h-1.132V97.151c0-1.2-.423-1.779-1.146-1.779-.805,0-1.353.681-1.353,2.03v3.41H281.59V94.081h1.077v.873A1.849,1.849,0,0,1,284.332,94C285.487,94,286.347,94.929,286.347,96.958Z" transform="translate(-216.32 -75.565)"/><path d="M304.858,83.606a4.51,4.51,0,0,1,.17,2.569,6.561,6.561,0,0,1-.989,2.274,7.171,7.171,0,0,1-3.3,2.569,9.079,9.079,0,0,1,.851-4.791c.658-1.522,2.517-3.712,3.266-2.62" transform="translate(-226.619 -71.744)" fill="#ffc107"/><path d="M300.329,99.477a2.172,2.172,0,0,1,1.684-1.631,2.284,2.284,0,0,1,1.964.938,1.818,1.818,0,0,1,.46,1.156,1.292,1.292,0,0,1-.506,1,1.376,1.376,0,0,1-.92.186,3.152,3.152,0,0,1-2.691-1.651" transform="translate(-226.433 -76.94)" fill="#ffc107"/><path d="M294.57,102.411a4.645,4.645,0,0,1,.584-.79,3.928,3.928,0,0,1,.741-.681,7.194,7.194,0,0,1,.989-.642,2.991,2.991,0,0,1,1.955-.315,2.115,2.115,0,0,1,.58.212.614.614,0,0,1,.2.141,3.17,3.17,0,0,0-.791-.218,3.242,3.242,0,0,0-1.9.36,8.6,8.6,0,0,0-.975.6,4.108,4.108,0,0,0-.741.642A6.652,6.652,0,0,1,294.57,102.411Z" transform="translate(-223.329 -77.69)" fill="#263238"/><path d="M299.727,86.64a4.24,4.24,0,0,1-.212.5c-.143.308-.35.758-.612,1.285-.525,1.1-1.265,2.6-2.107,4.239s-1.642,3.089-2.231,4.123c-.294.52-.538.931-.709,1.214a3.469,3.469,0,0,1-.276.424,3.05,3.05,0,0,1,.235-.469l.672-1.285c.57-1.053,1.353-2.511,2.195-4.149l2.153-4.149.653-1.285a3.41,3.41,0,0,1,.239-.45Z" transform="translate(-222.794 -72.934)" fill="#263238"/><path d="M294.468,95.472a8.859,8.859,0,0,0-.635-5.973c-.225-.43-.57-.861-.92-.732s-.534.739-.58,1.285a6.439,6.439,0,0,0,2.084,5.549" transform="translate(-222.109 -73.687)" fill="#ffc107"/><path d="M294.949,92.26a2.411,2.411,0,0,1,.124.25c.074.167.166.411.276.726a9.839,9.839,0,0,1,.52,2.614,6.571,6.571,0,0,1-.1,1.5,5.318,5.318,0,0,1-.359,1.163,4.712,4.712,0,0,1-.35.642,1.18,1.18,0,0,1-.152.212c-.023,0,.179-.353.419-.951a6.107,6.107,0,0,0,.308-1.1,6.628,6.628,0,0,0,.087-1.445,11.146,11.146,0,0,0-.488-2.569Q295.073,92.791,294.949,92.26Z" transform="translate(-223.51 -74.945)" fill="#263238"/><path d="M163.188,134.381v.469H160.57v-5.17h2.54v.475h-2.148v1.837h1.914v.462h-1.914v1.927Z" transform="translate(-150.978 -88.331)" fill="#263238"/><path d="M172.714,133.275v2.254h-.373v-2.2c0-.816-.3-1.24-.8-1.24a.83.83,0,0,0-.684.418,1.631,1.631,0,0,0-.237.988v2.036h-.373v-2.2c0-.816-.3-1.24-.805-1.24a.83.83,0,0,0-.684.418,1.631,1.631,0,0,0-.237.988v2.036h-.373v-3.886h.359v.713a1.074,1.074,0,0,1,1.021-.739,1.009,1.009,0,0,1,.989.816,1.177,1.177,0,0,1,1.1-.816.927.927,0,0,1,.826.469A1.869,1.869,0,0,1,172.714,133.275Z" transform="translate(-155.07 -89.023)" fill="#263238"/><path d="M182.117,133.153v2.408h-.363v-.6a.978.978,0,0,1-.957.642,1.009,1.009,0,0,1-1.017-1.13c0-.674.276-1.1,1.077-1.1h.865v-.238c0-.642-.271-1.028-.791-1.028a1.219,1.219,0,0,0-.92.456l-.17-.392a1.488,1.488,0,0,1,1.132-.52.821.821,0,0,1,.839.356,1.717,1.717,0,0,1,.307,1.147Zm-.4,1.22v-.642h-.874a.621.621,0,0,0-.713.694.687.687,0,0,0,.7.732c.385.033.741-.283.883-.784Z" transform="translate(-161.35 -89.029)" fill="#263238"/><path d="M186.89,129.546a.452.452,0,0,1,.083-.264.231.231,0,0,1,.193-.1.227.227,0,0,1,.19.1.444.444,0,0,1,.082.259.469.469,0,0,1-.078.272.241.241,0,0,1-.194.113.238.238,0,0,1-.195-.109A.464.464,0,0,1,186.89,129.546Zm.083,1.227h.377v3.886h-.377Z" transform="translate(-165.189 -88.152)" fill="#263238"/><path d="M190.17,129.18h.382v5.478h-.373Z" transform="translate(-166.96 -88.152)" fill="#263238"/><path d="M198.1,133.154v2.408h-.359v-.6a.981.981,0,0,1-.962.642,1.009,1.009,0,0,1-1.012-1.13c0-.674.271-1.1,1.072-1.1h.874v-.238c0-.642-.267-1.028-.787-1.028a1.211,1.211,0,0,0-.92.456l-.17-.392a1.481,1.481,0,0,1,1.132-.52.826.826,0,0,1,.829.365,1.72,1.72,0,0,1,.3,1.138Zm-.386,1.22v-.642h-.874a.621.621,0,0,0-.713.694.687.687,0,0,0,.7.732c.385.032.741-.284.883-.784Z" transform="translate(-169.983 -89.031)" fill="#263238"/><path d="M205.347,129.18v5.478h-.359v-.764a1.169,1.169,0,0,1-1.077.8c-.75-.06-1.336-.926-1.336-1.975s.586-1.915,1.336-1.975a1.171,1.171,0,0,1,1.063.764V129.18Zm-.368,3.539c-.028-.788-.5-1.4-1.067-1.374s-1.01.678-1,1.467.469,1.422,1.034,1.423a.908.908,0,0,0,.755-.442A1.788,1.788,0,0,0,204.979,132.719Z" transform="translate(-173.658 -88.152)" fill="#263238"/><path d="M213.147,129.18v5.478h-.359v-.764a1.182,1.182,0,0,1-1.077.8c-.75-.06-1.336-.926-1.336-1.975s.586-1.915,1.336-1.975a1.16,1.16,0,0,1,1.058.764V129.18Zm-.373,3.539c-.028-.789-.5-1.4-1.069-1.374s-1.011.682-1,1.471.473,1.421,1.038,1.418a.9.9,0,0,0,.754-.442A1.783,1.783,0,0,0,212.775,132.719Z" transform="translate(-177.869 -88.152)" fill="#263238"/><path d="M220.095,131.617v.507h-.087a.832.832,0,0,0-.691.427,1.64,1.64,0,0,0-.229,1.005v1.978h-.377v-3.886h.363v.764A1.034,1.034,0,0,1,220.095,131.617Z" transform="translate(-182.369 -89.022)" fill="#263238"/><path d="M225.228,133.734H222.9a1.709,1.709,0,0,0,.345,1,.87.87,0,0,0,.75.359.991.991,0,0,0,.856-.514l.212.34a1.2,1.2,0,0,1-1.586.5,2.126,2.126,0,0,1-.949-1.843,2.172,2.172,0,0,1,.654-1.732,1.039,1.039,0,0,1,1.4,0,2.172,2.172,0,0,1,.654,1.732C225.237,133.618,225.228,133.676,225.228,133.734Zm-2.328-.392h1.974c-.035-.724-.467-1.287-.987-1.287S222.935,132.618,222.9,133.342Z" transform="translate(-184.429 -89.007)" fill="#263238"/><path d="M229.24,135.064l.17-.411a1.378,1.378,0,0,0,.989.437c.529,0,.745-.25.745-.642,0-1.015-1.8-.218-1.8-1.753a1.027,1.027,0,0,1,1.1-1.1,1.46,1.46,0,0,1,.985.36l-.161.424a1.161,1.161,0,0,0-.824-.334c-.5,0-.722.27-.722.642,0,1.047,1.8.257,1.8,1.753a1.057,1.057,0,0,1-1.15,1.1A1.5,1.5,0,0,1,229.24,135.064Z" transform="translate(-188.055 -89.014)" fill="#263238"/><path d="M234.86,135.064l.17-.411a1.389,1.389,0,0,0,.989.437c.529,0,.75-.25.75-.642,0-1.015-1.808-.218-1.808-1.753a1.028,1.028,0,0,1,1.1-1.1,1.484,1.484,0,0,1,.985.36l-.166.424a1.147,1.147,0,0,0-.819-.334c-.506,0-.727.27-.727.642,0,1.047,1.8.257,1.8,1.753a1.056,1.056,0,0,1-1.146,1.1A1.518,1.518,0,0,1,234.86,135.064Z" transform="translate(-191.089 -89.014)" fill="#263238"/><path d="M172.363,158.068h-2.328a1.705,1.705,0,0,0,.347.992.869.869,0,0,0,.748.357.977.977,0,0,0,.851-.507l.212.34a1.2,1.2,0,0,1-1.586.5,2.126,2.126,0,0,1-.949-1.843,2.341,2.341,0,0,1,.379-1.412,1.148,1.148,0,0,1,1.986.011,2.33,2.33,0,0,1,.363,1.4A.44.44,0,0,0,172.363,158.068Zm-2.328-.392h1.974c-.035-.724-.467-1.287-.987-1.287s-.951.562-.987,1.287Z" transform="translate(-155.883 -97.721)" fill="#e0e0e0"/><path d="M178.325,159.818l-.874-1.606-.9,1.606h-.423l1.1-1.991-1.049-1.927h.423l.837,1.522.837-1.458h.409l-1.044,1.927,1.109,1.991Z" transform="translate(-159.379 -97.711)" fill="#e0e0e0"/><path d="M184.9,157.422v2.389h-.359v-.6a.985.985,0,0,1-.962.642,1.006,1.006,0,0,1-1.012-1.13c0-.674.271-1.1,1.072-1.1h.883v-.238c0-.642-.271-1.028-.787-1.028a1.208,1.208,0,0,0-.92.456l-.166-.392a1.466,1.466,0,0,1,1.132-.527.839.839,0,0,1,.826.384A1.739,1.739,0,0,1,184.9,157.422Zm-.377,1.24v-.642h-.874a.623.623,0,0,0-.713.7.684.684,0,0,0,.7.732c.386.034.744-.286.883-.79Z" transform="translate(-162.856 -97.704)" fill="#e0e0e0"/><path d="M194.468,157.6v2.235h-.386V157.65c0-.816-.3-1.24-.8-1.24a.829.829,0,0,0-.684.418,1.631,1.631,0,0,0-.237.988v2.017h-.373V157.65c0-.816-.3-1.24-.805-1.24a.829.829,0,0,0-.684.418,1.631,1.631,0,0,0-.237.988v2.017h-.373V155.98h.359v.706a1.082,1.082,0,0,1,1.021-.739,1.017,1.017,0,0,1,.989.822,1.18,1.18,0,0,1,1.1-.822.926.926,0,0,1,.832.462,1.87,1.87,0,0,1,.277,1.189Z" transform="translate(-166.808 -97.727)" fill="#e0e0e0"/><path d="M204.891,157.908a2.347,2.347,0,0,1-.381,1.41,1.189,1.189,0,0,1-1,.568,1.167,1.167,0,0,1-1.058-.771v2.164h-.373v-5.3h.359v.771a1.171,1.171,0,0,1,1.072-.8,1.192,1.192,0,0,1,.993.564,2.345,2.345,0,0,1,.387,1.4Zm-.377,0c-.023-.794-.5-1.415-1.068-1.393s-1.02.679-1.011,1.474.474,1.432,1.043,1.429a.913.913,0,0,0,.752-.442,1.792,1.792,0,0,0,.283-1.068Z" transform="translate(-173.39 -97.728)" fill="#e0e0e0"/><path d="M209.85,153.5h.377v5.459h-.377Z" transform="translate(-177.586 -96.853)" fill="#e0e0e0"/><path d="M215.042,158.054H212.71c.037.8.529,1.4,1.1,1.349a.981.981,0,0,0,.851-.507l.212.34a1.2,1.2,0,0,1-1.586.5,2.126,2.126,0,0,1-.949-1.843,2.172,2.172,0,0,1,.654-1.732,1.039,1.039,0,0,1,1.4,0,2.172,2.172,0,0,1,.654,1.732C215.047,157.938,215.042,158,215.042,158.054Zm-2.333-.392h1.978c0-.763-.443-1.381-.989-1.381S212.71,156.9,212.71,157.662Z" transform="translate(-178.927 -97.707)" fill="#e0e0e0"/><path d="M224.365,157.175c0,1.285-.331,2-.879,2a.487.487,0,0,1-.425-.219.969.969,0,0,1-.174-.584,1.15,1.15,0,0,1-1.058.8,2.127,2.127,0,0,1,0-3.815,1.148,1.148,0,0,1,1.049.777v-.758h.345v2.8c0,.411.147.559.327.559.327,0,.538-.565.538-1.567a3.451,3.451,0,0,0-.625-2.117,1.718,1.718,0,0,0-1.546-.766,2.071,2.071,0,0,0-1.927,1.444,4.008,4.008,0,0,0,0,3.053,2.071,2.071,0,0,0,1.927,1.444,1.785,1.785,0,0,0,1.017-.328l.087.36a1.963,1.963,0,0,1-1.1.34c-1.324,0-2.4-1.5-2.4-3.346s1.073-3.346,2.4-3.346a1.972,1.972,0,0,1,1.738.884A3.936,3.936,0,0,1,224.365,157.175Zm-1.481.083c-.03-.765-.494-1.356-1.042-1.329s-.981.664-.971,1.43.457,1.381,1.006,1.382a.875.875,0,0,0,.744-.433,1.736,1.736,0,0,0,.263-1.064Z" transform="translate(-182.807 -96.996)" fill="#e0e0e0"/><path d="M234,155.973v3.417c0,1.336-.46,1.927-1.38,1.927a1.618,1.618,0,0,1-1.3-.6l.189-.4a1.4,1.4,0,0,0,1.1.533c.7,0,1.026-.456,1.026-1.413v-.495a1.185,1.185,0,0,1-1.086.751,1.307,1.307,0,0,1-1.237-.909,2.544,2.544,0,0,1,0-1.951,1.307,1.307,0,0,1,1.237-.909,1.2,1.2,0,0,1,1.1.777v-.732Zm-.368,1.85a1.6,1.6,0,0,0-.627-1.4.846.846,0,0,0-1.165.287,1.916,1.916,0,0,0-.246,1.616,1.126,1.126,0,0,0,.981.924.855.855,0,0,0,.759-.39,1.712,1.712,0,0,0,.3-1.048Z" transform="translate(-189.069 -97.72)" fill="#e0e0e0"/><path d="M244.278,157.6v2.235H243.9V157.65c0-.816-.294-1.24-.8-1.24a.83.83,0,0,0-.684.418,1.631,1.631,0,0,0-.237.988v2.017H241.8V157.65c0-.816-.294-1.24-.805-1.24a.83.83,0,0,0-.684.418,1.631,1.631,0,0,0-.237.988v2.017H239.7V155.98h.359v.706a1.086,1.086,0,0,1,1.021-.739,1.02,1.02,0,0,1,.994.822,1.176,1.176,0,0,1,1.1-.822.928.928,0,0,1,.829.465A1.871,1.871,0,0,1,244.278,157.6Z" transform="translate(-193.703 -97.727)" fill="#e0e0e0"/><path d="M253.693,157.421v2.389h-.359v-.6a.978.978,0,0,1-.957.642,1.009,1.009,0,0,1-1.017-1.13c0-.674.271-1.1,1.072-1.1h.883v-.238c0-.642-.267-1.028-.787-1.028a1.189,1.189,0,0,0-.92.456l-.17-.392a1.467,1.467,0,0,1,1.132-.527.837.837,0,0,1,.829.381A1.738,1.738,0,0,1,253.693,157.421Zm-.377,1.24v-.642h-.874a.623.623,0,0,0-.713.7.686.686,0,0,0,.7.732c.386.034.744-.286.883-.79Z" transform="translate(-199.998 -97.704)" fill="#e0e0e0"/><path d="M258.46,153.866c0-.207.128-.37.276-.366a.23.23,0,0,1,.191.1.449.449,0,0,1,.085.26.467.467,0,0,1-.079.274.239.239,0,0,1-.2.111c-.151,0-.274-.169-.276-.379Zm.087,1.227h.373v3.866h-.373Z" transform="translate(-203.832 -96.852)" fill="#e0e0e0"/><path d="M261.74,153.5h.377v5.459h-.377Z" transform="translate(-205.603 -96.853)" fill="#e0e0e0"/><path d="M264.3,161.238a.484.484,0,0,1,.081-.281.235.235,0,0,1,.4,0,.488.488,0,0,1,.085.284c0,.223-.13.4-.29.4s-.283-.185-.281-.4Z" transform="translate(-206.985 -99.478)" fill="#e0e0e0"/><path d="M266.489,157.9a2.377,2.377,0,0,1,.41-1.424,1.2,1.2,0,0,1,1.025-.554,1.169,1.169,0,0,1,1.09.771l-.281.27a.908.908,0,0,0-.81-.578,1.634,1.634,0,0,0,0,3.025.872.872,0,0,0,.81-.565l.281.263a1.169,1.169,0,0,1-1.09.771,1.2,1.2,0,0,1-1.025-.554A2.377,2.377,0,0,1,266.489,157.9Z" transform="translate(-208.167 -97.717)" fill="#e0e0e0"/><path d="M272.859,157.9c0-1.093.634-1.978,1.417-1.978s1.417.886,1.417,1.978-.634,1.978-1.417,1.978a1.21,1.21,0,0,1-1.013-.564A2.381,2.381,0,0,1,272.859,157.9Zm2.452,0c-.025-.789-.5-1.4-1.064-1.38s-1.013.675-1,1.465.468,1.424,1.034,1.425a.9.9,0,0,0,.755-.437,1.78,1.78,0,0,0,.28-1.072Z" transform="translate(-211.606 -97.718)" fill="#e0e0e0"/><path d="M285.3,157.6v2.235h-.377V157.65c0-.816-.294-1.24-.8-1.24a.829.829,0,0,0-.684.418,1.631,1.631,0,0,0-.237.988v2.017h-.377V157.65c0-.816-.294-1.24-.805-1.24a.829.829,0,0,0-.684.418,1.631,1.631,0,0,0-.237.988v2.017h-.377V155.98h.359v.706a1.086,1.086,0,0,1,1.021-.739,1.012,1.012,0,0,1,.989.822,1.187,1.187,0,0,1,1.1-.822.928.928,0,0,1,.829.465A1.871,1.871,0,0,1,285.3,157.6Z" transform="translate(-215.851 -97.727)" fill="#e0e0e0"/><path d="M257.82,162.8a.723.723,0,0,0,.511-.3c.336-.366.193-1.233.221-2.248,0-2.068,0-5.138-.023-9.03v-3.931a4.761,4.761,0,0,0-.037-.822.939.939,0,0,0-.373-.578.992.992,0,0,0-.6-.09H238.4l-78.524.045a.61.61,0,0,0-.52.366,1.664,1.664,0,0,0-.124.861v14.8a.9.9,0,0,0,.34.642.472.472,0,0,0,.281.1h30.134l35.3.039,23.8.051,6.469.032h0l-6.469.032-23.8.051-35.3.039H159.849c-.421,0-.78-.424-.856-1-.032-.379,0-.642,0-1V147.131q-.01-.263,0-.527a1.434,1.434,0,0,1,.156-.527.835.835,0,0,1,.713-.507l78.524.051h19.12a.9.9,0,0,1,1.077.751,4.663,4.663,0,0,1,.041.867v3.931c0,3.918,0,6.962-.023,9.03v1.368a1.4,1.4,0,0,1-.239.976A.587.587,0,0,1,257.82,162.8Z" transform="translate(-150.119 -94.016)" fill="#e0e0e0"/><path d="M163.468,191.87c0,1.1-.57,1.766-1.514,1.766h-.994v1.631h-.391v-5.138h1.38C162.9,190.1,163.468,190.759,163.468,191.87Zm-.391,0c0-.829-.391-1.285-1.132-1.285h-.985v2.569h.985c.741,0,1.123-.475,1.123-1.285Z" transform="translate(-150.978 -109.956)" fill="#263238"/><path d="M170.307,193.531v2.408h-.363v-.6a.978.978,0,0,1-.957.642,1.013,1.013,0,0,1-1.017-1.13c0-.668.276-1.1,1.077-1.1h.883v-.238c0-.642-.271-1.021-.791-1.021a1.2,1.2,0,0,0-.92.456l-.17-.392a1.474,1.474,0,0,1,1.132-.527.828.828,0,0,1,.828.37,1.723,1.723,0,0,1,.3,1.14Zm-.377,1.24v-.642h-.874a.621.621,0,0,0-.713.694.687.687,0,0,0,.7.732c.386.037.743-.281.883-.784Z" transform="translate(-154.973 -110.628)" fill="#263238"/><path d="M174.42,195.5l.17-.411a1.4,1.4,0,0,0,.989.43c.529,0,.745-.25.745-.642,0-1.008-1.8-.212-1.8-1.747a1.031,1.031,0,0,1,1.1-1.111,1.464,1.464,0,0,1,.985.366l-.161.417a1.15,1.15,0,0,0-.824-.334c-.5,0-.722.276-.722.642,0,1.053,1.8.263,1.8,1.753a1.062,1.062,0,0,1-1.15,1.111A1.5,1.5,0,0,1,174.42,195.5Z" transform="translate(-158.456 -110.632)" fill="#263238"/><path d="M180.05,195.5l.166-.411a1.413,1.413,0,0,0,.994.43c.529,0,.745-.25.745-.642,0-1.008-1.808-.212-1.808-1.747a1.035,1.035,0,0,1,1.1-1.111,1.489,1.489,0,0,1,.985.366l-.166.417a1.147,1.147,0,0,0-.819-.334c-.506,0-.727.276-.727.642,0,1.053,1.8.263,1.8,1.753a1.061,1.061,0,0,1-1.146,1.111A1.5,1.5,0,0,1,180.05,195.5Z" transform="translate(-161.496 -110.633)" fill="#263238"/><path d="M189.918,192.08l-1.054,3.854h-.354l-.879-3.211-.879,3.211H186.4l-1.049-3.854h.359l.874,3.3.893-3.3h.322l.893,3.3.883-3.3Z" transform="translate(-164.357 -110.654)" fill="#263238"/><path d="M195.719,194c0-1.092.638-1.974,1.42-1.972s1.415.889,1.414,1.98-.635,1.976-1.417,1.976a1.21,1.21,0,0,1-1.015-.566,2.385,2.385,0,0,1-.4-1.419Zm2.452,0c-.028-.788-.5-1.4-1.067-1.374s-1.01.678-1,1.467.469,1.422,1.034,1.423a.9.9,0,0,0,.757-.44,1.782,1.782,0,0,0,.279-1.076Z" transform="translate(-169.956 -110.636)" fill="#263238"/><path d="M204.959,192v.514h-.092a.833.833,0,0,0-.693.429,1.643,1.643,0,0,0-.227,1.01v1.978h-.377v-3.854h.359v.758A1.058,1.058,0,0,1,204.959,192Z" transform="translate(-174.195 -110.623)" fill="#263238"/><path d="M210.178,189.59v5.485h-.359V194.3a1.17,1.17,0,0,1-1.072.809c-.783,0-1.417-.886-1.417-1.978s.634-1.978,1.417-1.978a1.176,1.176,0,0,1,1.058.771V189.59Zm-.368,3.539c-.028-.789-.5-1.4-1.069-1.374s-1.011.682-1,1.471.473,1.421,1.038,1.418a.9.9,0,0,0,.754-.442A1.783,1.783,0,0,0,209.81,193.129Z" transform="translate(-176.225 -109.763)" fill="#263238"/><path d="M173.062,219.851v.475H170.44V215.15H173v.475h-2.162v1.843h1.914v.462h-1.914v1.927Z" transform="translate(-156.307 -118.907)" fill="#e0e0e0"/><path d="M180.544,218.772v2.254h-.373v-2.2a1.384,1.384,0,0,0-.2-.9.676.676,0,0,0-.634-.337.8.8,0,0,0-.719.386,1.616,1.616,0,0,0-.257,1.014v2.042H178V217.14h.359v.713a1.112,1.112,0,0,1,1.058-.745.929.929,0,0,1,.845.461A1.884,1.884,0,0,1,180.544,218.772Z" transform="translate(-160.389 -119.606)" fill="#e0e0e0"/><path d="M186.71,220.332a.747.747,0,0,1-.589.276.627.627,0,0,1-.6-.292,1.29,1.29,0,0,1-.213-.838v-2.351h-.5v-.443h.5v-.854h.377v.854h.847v.443h-.847v2.319a.817.817,0,0,0,.117.5.415.415,0,0,0,.343.21.515.515,0,0,0,.414-.2Z" transform="translate(-164.066 -119.15)" fill="#e0e0e0"/><path d="M192.293,219.242h-2.328a1.709,1.709,0,0,0,.345,1,.87.87,0,0,0,.75.359.977.977,0,0,0,.851-.507l.212.34a1.2,1.2,0,0,1-1.588.5,2.13,2.13,0,0,1-.947-1.848,2.332,2.332,0,0,1,.379-1.41,1.152,1.152,0,0,1,1.985.011,2.321,2.321,0,0,1,.364,1.4A.441.441,0,0,0,192.293,219.242Zm-2.328-.385h1.974c-.035-.724-.467-1.287-.987-1.287S190,218.132,189.965,218.856Z" transform="translate(-166.644 -119.608)" fill="#e0e0e0"/><path d="M198.575,217.107v.507h-.092a.832.832,0,0,0-.691.427,1.64,1.64,0,0,0-.229,1.005v1.985h-.373v-3.886h.359v.758A1.041,1.041,0,0,1,198.575,217.107Z" transform="translate(-170.75 -119.606)" fill="#e0e0e0"/><path d="M207.6,219.081a2.356,2.356,0,0,1-.38,1.412,1.2,1.2,0,0,1-1,.572,1.167,1.167,0,0,1-1.058-.771v2.164h-.377v-5.318h.359v.764a1.142,1.142,0,0,1,2.074-.23,2.345,2.345,0,0,1,.382,1.406Zm-.373,0a1.669,1.669,0,0,0-.5-1.337.8.8,0,0,0-1.079,0,2.045,2.045,0,0,0,0,2.674.8.8,0,0,0,1.079,0,1.669,1.669,0,0,0,.5-1.337Z" transform="translate(-174.848 -119.608)" fill="#e0e0e0"/><path d="M214.363,218.59V221H214v-.642a.974.974,0,0,1-.957.642,1.013,1.013,0,0,1-1.017-1.13c0-.668.276-1.1,1.072-1.1h.883v-.238c0-.642-.267-1.028-.787-1.028a1.2,1.2,0,0,0-.92.462l-.17-.392a1.466,1.466,0,0,1,1.132-.527.834.834,0,0,1,.837.384A1.74,1.74,0,0,1,214.363,218.59Zm-.377,1.24v-.642h-.87c-.543,0-.718.3-.718.694a.69.69,0,0,0,.7.732C213.487,220.645,213.843,220.329,213.985,219.829Z" transform="translate(-178.763 -119.579)" fill="#e0e0e0"/><path d="M218.48,220.581l.17-.417a1.378,1.378,0,0,0,.989.437c.529,0,.745-.25.745-.642,0-1.008-1.8-.212-1.8-1.747a1.031,1.031,0,0,1,1.1-1.111,1.52,1.52,0,0,1,.985.36l-.166.424a1.147,1.147,0,0,0-.819-.334c-.5,0-.727.276-.727.642,0,1.053,1.808.263,1.808,1.753a1.046,1.046,0,0,1-1.15,1.111,1.527,1.527,0,0,1-1.132-.475Z" transform="translate(-182.245 -119.605)" fill="#e0e0e0"/><path d="M224.1,220.581l.17-.417a1.378,1.378,0,0,0,.989.437c.529,0,.745-.25.745-.642,0-1.008-1.8-.212-1.8-1.747a1.031,1.031,0,0,1,1.1-1.111,1.5,1.5,0,0,1,.985.36l-.161.424a1.161,1.161,0,0,0-.824-.334c-.5,0-.722.276-.722.642,0,1.053,1.8.263,1.8,1.753a1.046,1.046,0,0,1-1.15,1.111A1.534,1.534,0,0,1,224.1,220.581Z" transform="translate(-185.28 -119.605)" fill="#e0e0e0"/><path d="M233.947,217.16l-1.072,3.886h-.354l-.879-3.211-.879,3.211h-.354l-1.049-3.886h.363l.87,3.3.9-3.3h.322l.888,3.3.883-3.3Z" transform="translate(-188.12 -119.626)" fill="#e0e0e0"/><path d="M239.779,219.082c0-1.092.638-1.974,1.42-1.972s1.415.889,1.414,1.98-.635,1.976-1.417,1.976a1.21,1.21,0,0,1-1.015-.566A2.384,2.384,0,0,1,239.779,219.082Zm2.448,0c-.028-.789-.5-1.4-1.069-1.374s-1.011.682-1,1.471.473,1.421,1.038,1.418a.9.9,0,0,0,.754-.442,1.783,1.783,0,0,0,.277-1.074Z" transform="translate(-193.745 -119.608)" fill="#e0e0e0"/><path d="M249.025,217.107v.507h-.092a.832.832,0,0,0-.691.427,1.64,1.64,0,0,0-.229,1.005v1.985h-.373v-3.886H248v.758A1.041,1.041,0,0,1,249.025,217.107Z" transform="translate(-197.99 -119.606)" fill="#e0e0e0"/><path d="M254.232,214.666v5.485h-.359v-.777a1.177,1.177,0,0,1-1.077.809c-.783,0-1.417-.886-1.417-1.978s.634-1.978,1.417-1.978a1.159,1.159,0,0,1,1.058.771V214.66Zm-.368,3.539c-.028-.788-.5-1.4-1.067-1.374s-1.01.678-1,1.467.469,1.422,1.034,1.423a.908.908,0,0,0,.755-.442A1.788,1.788,0,0,0,253.864,218.205Z" transform="translate(-200.009 -118.732)" fill="#e0e0e0"/><path d="M324.536,215.625v2.03h1.914v.475h-1.914v2.2h-.4V215.15h2.544v.475Z" transform="translate(-239.295 -118.907)" fill="#ffc107"/><path d="M330.449,219.082c0-1.091.637-1.973,1.419-1.972s1.415.885,1.415,1.976-.631,1.977-1.412,1.98a1.208,1.208,0,0,1-1.018-.563,2.383,2.383,0,0,1-.4-1.421Zm2.452,0c-.028-.789-.5-1.4-1.069-1.374s-1.011.682-1,1.471.473,1.421,1.038,1.418a.9.9,0,0,0,.754-.442,1.783,1.783,0,0,0,.277-1.074Z" transform="translate(-242.701 -119.608)" fill="#ffc107"/><path d="M339.695,217.107v.507h-.087a.832.832,0,0,0-.691.427,1.641,1.641,0,0,0-.229,1.005v1.985h-.377v-3.886h.363v.758A1.042,1.042,0,0,1,339.695,217.107Z" transform="translate(-246.945 -119.606)" fill="#ffc107"/><path d="M344.959,217.13v3.41c0,1.336-.46,1.927-1.38,1.927a1.644,1.644,0,0,1-1.3-.6l.193-.4a1.39,1.39,0,0,0,1.095.533c.7,0,1.026-.45,1.026-1.407v-.5a1.176,1.176,0,0,1-1.086.758,1.307,1.307,0,0,1-1.237-.909,2.544,2.544,0,0,1,0-1.951,1.307,1.307,0,0,1,1.237-.909,1.193,1.193,0,0,1,1.1.777v-.745Zm-.363,1.843a1.6,1.6,0,0,0-.626-1.4.846.846,0,0,0-1.165.284,1.915,1.915,0,0,0-.249,1.613,1.13,1.13,0,0,0,.977.929.859.859,0,0,0,.762-.392,1.72,1.72,0,0,0,.3-1.053Z" transform="translate(-248.98 -119.596)" fill="#ffc107"/><path d="M350,219.082c0-1.092.638-1.974,1.42-1.972s1.415.889,1.414,1.98-.635,1.976-1.417,1.976a1.21,1.21,0,0,1-1.015-.566,2.384,2.384,0,0,1-.4-1.419Zm2.448,0c-.028-.789-.5-1.4-1.069-1.374s-1.011.682-1,1.471.473,1.421,1.038,1.418a.9.9,0,0,0,.76-.437,1.781,1.781,0,0,0,.28-1.078Z" transform="translate(-253.257 -119.608)" fill="#ffc107"/><path d="M358.77,220.332a.739.739,0,0,1-.589.276.632.632,0,0,1-.6-.3,1.3,1.3,0,0,1-.215-.835v-2.351h-.5v-.443h.52v-.854h.377v.854h.847v.443h-.847v2.319a.816.816,0,0,0,.117.5.415.415,0,0,0,.343.21.513.513,0,0,0,.409-.2Z" transform="translate(-256.967 -119.15)" fill="#ffc107"/><path d="M363.484,216.449a.821.821,0,0,0-.856-.9,1.1,1.1,0,0,0-1.008.6l-.281-.3a1.435,1.435,0,0,1,1.316-.764,1.169,1.169,0,0,1,1.219,1.285c0,1.285-.971,1.323-.971,2.376h-.391C362.5,217.528,363.484,217.419,363.484,216.449Zm-1.049,3.507a.458.458,0,0,1,.08-.272.232.232,0,0,1,.2-.107.236.236,0,0,1,.2.106.463.463,0,0,1,.083.273c0,.214-.127.385-.281.385a.237.237,0,0,1-.2-.106.47.47,0,0,1-.086-.28Z" transform="translate(-259.38 -118.883)" fill="#ffc107"/><path d="M257.82,223.961a.723.723,0,0,0,.511-.308c.336-.36.193-1.233.221-2.241,0-2.075,0-5.138-.023-9.037v-3.931a4.687,4.687,0,0,0-.037-.816.975.975,0,0,0-.373-.584,1.042,1.042,0,0,0-.6-.09H238.4l-78.524.051a.6.6,0,0,0-.52.366,1.655,1.655,0,0,0-.124.861v14.836a.923.923,0,0,0,.34.642.518.518,0,0,0,.281.1h65.435l23.8.051h0l-23.8.051-35.3.039H159.849c-.419,0-.778-.42-.856-1-.032-.385,0-.642,0-1.008V208.271q-.01-.263,0-.527a1.462,1.462,0,0,1,.156-.533.827.827,0,0,1,.713-.5l78.524.045h19.12a1.115,1.115,0,0,1,.649.109,1.1,1.1,0,0,1,.428.681,4.594,4.594,0,0,1,.041.861v3.931c0,3.918,0,6.962-.023,9.037v1.362a1.369,1.369,0,0,1-.248.906.644.644,0,0,1-.534.321Z" transform="translate(-150.119 -115.888)" fill="#e0e0e0"/><path d="M245.69,327.453l.156-.424a1.549,1.549,0,0,0,1.219.642.877.877,0,0,0,1-.912c0-1.419-2.3-.552-2.3-2.466a1.3,1.3,0,0,1,1.38-1.413,1.667,1.667,0,0,1,1.146.456l-.129.437a1.564,1.564,0,0,0-1.017-.43.883.883,0,0,0-.98.938c0,1.419,2.3.565,2.3,2.447a1.3,1.3,0,0,1-1.38,1.413A1.712,1.712,0,0,1,245.69,327.453Z" transform="translate(-196.937 -157.446)" fill="#263238"/><path d="M253.18,322.792c0-.209.126-.376.276-.372s.261.177.258.381-.124.366-.27.364-.264-.168-.264-.372Zm.083,1.227h.377v3.854h-.377Z" transform="translate(-200.981 -157.282)" fill="#263238"/><path d="M259,326.513v2.28h-.373v-2.2a1.384,1.384,0,0,0-.2-.9.676.676,0,0,0-.634-.337.8.8,0,0,0-.719.386,1.616,1.616,0,0,0-.257,1.014v2.042h-.373V324.94h.359v.642a1.116,1.116,0,0,1,1.058-.745.924.924,0,0,1,.858.457A1.886,1.886,0,0,1,259,326.513Z" transform="translate(-202.741 -158.145)" fill="#263238"/><path d="M266.489,324.88v3.41c0,1.336-.46,1.927-1.38,1.927a1.644,1.644,0,0,1-1.3-.6l.193-.4a1.39,1.39,0,0,0,1.095.533c.7,0,1.026-.45,1.026-1.407v-.495a1.185,1.185,0,0,1-1.086.751,1.307,1.307,0,0,1-1.237-.909,2.544,2.544,0,0,1,0-1.952,1.307,1.307,0,0,1,1.237-.909,1.2,1.2,0,0,1,1.1.777v-.745Zm-.368,1.843a1.6,1.6,0,0,0-.627-1.4.846.846,0,0,0-1.165.287,1.916,1.916,0,0,0-.246,1.616,1.126,1.126,0,0,0,.981.924.853.853,0,0,0,.755-.386A1.706,1.706,0,0,0,266.121,326.723Z" transform="translate(-206.612 -158.142)" fill="#263238"/><path d="M277.637,324.892v3.854h-.359v-.713a1.082,1.082,0,0,1-1,.751.932.932,0,0,1-.871-.446,1.9,1.9,0,0,1-.3-1.224V324.86h.377v2.2c0,.822.3,1.246.833,1.246a.816.816,0,0,0,.7-.406,1.627,1.627,0,0,0,.244-1.007V324.86Z" transform="translate(-212.814 -158.155)" fill="#263238"/><path d="M285.7,326.831a2.357,2.357,0,0,1-.38,1.412,1.2,1.2,0,0,1-1,.572,1.176,1.176,0,0,1-1.058-.771v2.164h-.377v-5.318h.363v.764a1.172,1.172,0,0,1,1.072-.8,1.188,1.188,0,0,1,1,.566,2.345,2.345,0,0,1,.382,1.406Zm-.377,0c-.025-.793-.5-1.411-1.071-1.387s-1.017.682-1.008,1.476.474,1.429,1.043,1.427a.9.9,0,0,0,.766-.434,1.791,1.791,0,0,0,.288-1.081Z" transform="translate(-217.017 -158.154)" fill="#263238"/><path d="M257.831,331.271a.723.723,0,0,0,.511-.3c.336-.366.193-1.24.221-2.248,0-2.074,0-5.138-.023-9.037v-3.931a4.687,4.687,0,0,0-.037-.816.975.975,0,0,0-.373-.584,1.042,1.042,0,0,0-.6-.09h-19.12l-78.524.051a.61.61,0,0,0-.52.366,1.655,1.655,0,0,0-.124.861v14.83a.909.909,0,0,0,.34.642.472.472,0,0,0,.281.1h30.134l35.3.032,23.8.058h6.469l-6.469.032-23.8.051-35.3.039H159.86a.721.721,0,0,1-.386-.135,1.233,1.233,0,0,1-.46-.867c-.032-.385,0-.642,0-1.008V315.581q-.01-.263,0-.527a1.462,1.462,0,0,1,.156-.533.827.827,0,0,1,.713-.5l78.524.045h19.12a1.115,1.115,0,0,1,.649.109,1.1,1.1,0,0,1,.428.681,4.594,4.594,0,0,1,.041.861v3.931c0,3.918,0,6.962-.023,9.037v1.362a1.361,1.361,0,0,1-.248.906.641.641,0,0,1-.543.321Z" transform="translate(-150.129 -154.277)" fill="#263238"/><rect width="99.471" height="17.084" rx="8.542" transform="translate(8.985 128.08)" fill="#ffc107"/><path d="M250.83,273.29h.391v4.7H253.3v.475H250.83Z" transform="translate(-199.712 -139.706)" fill="#fff"/><path d="M256.729,277.218c0-1.092.633-1.977,1.415-1.978s1.417.882,1.419,1.974-.63,1.979-1.412,1.982a1.207,1.207,0,0,1-1.016-.561,2.381,2.381,0,0,1-.405-1.417Zm2.452,0c-.028-.789-.5-1.4-1.069-1.374s-1.011.682-1,1.471.473,1.421,1.038,1.418a.9.9,0,0,0,.754-.442,1.784,1.784,0,0,0,.277-1.074Z" transform="translate(-202.897 -140.404)" fill="#fff"/><path d="M266.877,275.267v3.417c0,1.336-.46,1.927-1.38,1.927a1.618,1.618,0,0,1-1.3-.6l.193-.4a1.382,1.382,0,0,0,1.095.533c.7,0,1.026-.45,1.026-1.413v-.495a1.185,1.185,0,0,1-1.086.751c-.744,0-1.348-.842-1.348-1.882s.6-1.882,1.348-1.882a1.186,1.186,0,0,1,1.1.777v-.751Zm-.368,1.85a1.6,1.6,0,0,0-.627-1.4.846.846,0,0,0-1.165.287,1.916,1.916,0,0,0-.246,1.616,1.126,1.126,0,0,0,.981.924.853.853,0,0,0,.755-.386,1.706,1.706,0,0,0,.3-1.04Z" transform="translate(-206.866 -140.399)" fill="#fff"/><path d="M275.27,273.165c0-.213.124-.385.276-.385s.276.173.276.385-.124.385-.276.385S275.27,273.378,275.27,273.165Zm.083,1.227h.377v3.892h-.377Z" transform="translate(-212.908 -139.524)" fill="#fff"/><path d="M281.113,276.911v2.254h-.377v-2.2a1.393,1.393,0,0,0-.2-.9.682.682,0,0,0-.634-.341.8.8,0,0,0-.721.388,1.618,1.618,0,0,0-.255,1.018v2.042h-.373v-3.892h.359v.719a1.107,1.107,0,0,1,1.058-.745.927.927,0,0,1,.855.453,1.887,1.887,0,0,1,.29,1.211Z" transform="translate(-214.679 -140.405)" fill="#fff"/></g><g transform="translate(32.656 105.774)"><path d="M45.9,440.83l-.593,4.721.5.154c2.245.642,11.442,3.154,13.024,2.839,1.767-.353-4.96-4.046-4.96-4.046l.212-2Z" transform="translate(-43.622 -240.116)" fill="#ffc107"/><g transform="translate(1.693 202.05)" opacity="0.5"><path d="M48.3,446.821a4.942,4.942,0,0,0-.778-2.665,2.565,2.565,0,0,0-1.84-1.246l-.359,3.211Z" transform="translate(-45.32 -442.91)" fill="#fff"/></g><g transform="translate(1.674 205.184)" opacity="0.5"><path d="M57.113,448.959s2.333,1.516,1.969,2.01-9.73-1.529-13.8-2.929l.041-.25,10.9,2.492S56.653,448.888,57.113,448.959Z" transform="translate(-45.28 -447.79)" fill="#fff"/></g><path d="M45.12,447.73a.4.4,0,0,0,.138.051l.4.122,1.481.411c1.251.34,2.986.771,4.9,1.188s3.681.739,4.937.951l1.5.238.409.058h.143l-.143-.039-.4-.077-1.5-.283c-1.265-.238-3.009-.578-4.927-1s-3.681-.835-4.909-1.143l-1.486-.366-.4-.1Z" transform="translate(-43.519 -242.584)" fill="#263238"/><path d="M69.05,451.038a5.73,5.73,0,0,1,.391-.931,3.992,3.992,0,0,1,.593-.687,1.136,1.136,0,0,0-.672.6A1.95,1.95,0,0,0,69.05,451.038Z" transform="translate(-56.44 -243.189)" fill="#263238"/><path d="M64.206,447.979a2.231,2.231,0,0,0,.308-.385,1.325,1.325,0,0,0,.23-.475c-.018-.026-.161.148-.308.385A1.326,1.326,0,0,0,64.206,447.979Z" transform="translate(-53.823 -242.365)" fill="#263238"/><path d="M62.879,447.173a1.065,1.065,0,0,0,.322-.206c.161-.148.276-.289.262-.321s-.156.058-.317.206S62.865,447.141,62.879,447.173Z" transform="translate(-53.107 -242.194)" fill="#263238"/><path d="M62.1,444.41a.779.779,0,0,0,.46.3.613.613,0,0,0,.506,0,2.367,2.367,0,0,0-.46-.154,2.3,2.3,0,0,0-.506-.148Z" transform="translate(-52.687 -241.397)" fill="#263238"/><path d="M65.05,446.545a1.28,1.28,0,0,0,.529.109,2.414,2.414,0,0,0,.58-.051,1.288,1.288,0,0,0,.34-.116.36.36,0,0,0,.156-.2.385.385,0,0,0-.046-.315.782.782,0,0,0-1.238.135,1.483,1.483,0,0,0-.23.456.489.489,0,0,0-.032.2,2.123,2.123,0,0,1,.308-.578.876.876,0,0,1,.5-.308.638.638,0,0,1,.621.193.217.217,0,0,1-.078.289,1.121,1.121,0,0,1-.313.116,2.465,2.465,0,0,1-.566.077C65.257,446.545,65.055,446.545,65.05,446.545Z" transform="translate(-54.28 -241.868)" fill="#263238"/><path d="M64.681,446.245a1.036,1.036,0,0,0,.12-.495,1.647,1.647,0,0,0-.087-.572.628.628,0,0,0-.4-.469.19.19,0,0,0-.144.094.363.363,0,0,0-.054.208,1.17,1.17,0,0,0,.051.353,2.711,2.711,0,0,0,.2.495c.143.263.262.379.271.366s-.092-.154-.212-.417a3.3,3.3,0,0,1-.17-.495c-.055-.167-.074-.456.06-.462s.248.225.313.385a1.7,1.7,0,0,1,.1.514A3.486,3.486,0,0,1,64.681,446.245Z" transform="translate(-53.778 -241.504)" fill="#263238"/><path d="M46.24,442.9a1.675,1.675,0,0,1,.6.161,2.7,2.7,0,0,1,1.238,1.047,4.51,4.51,0,0,1,.644,1.811c.069.514.046.848.064.848a1.008,1.008,0,0,0,.028-.231,4.756,4.756,0,0,0-.023-.642A4.3,4.3,0,0,0,48.154,444a2.577,2.577,0,0,0-1.3-1.047,1.6,1.6,0,0,0-.46-.077A.335.335,0,0,0,46.24,442.9Z" transform="translate(-44.124 -240.848)" fill="#263238"/><path d="M54.3,447.647a3.931,3.931,0,0,0,1.178.424,3.333,3.333,0,0,0,1.215.122c0-.039-.538-.109-1.2-.263A10.918,10.918,0,0,0,54.3,447.647Z" transform="translate(-48.476 -242.553)" fill="#263238"/><path d="M50.8,447.1a1.54,1.54,0,0,0,.06.353,1.044,1.044,0,0,0,.078.347c.028.006.064-.173,0-.385S50.822,447.073,50.8,447.1Z" transform="translate(-46.585 -242.357)" fill="#263238"/><path d="M49.75,445.258a.592.592,0,0,0,.087.289c.087.135.147.231.17.212s0-.154-.087-.3S49.773,445.232,49.75,445.258Z" transform="translate(-46.019 -241.698)" fill="#263238"/><path d="M48,444.2c0,.039.11.058.225.148s.189.193.212.173,0-.2-.166-.3S48,444.157,48,444.2Z" transform="translate(-45.074 -241.304)" fill="#263238"/><path d="M46.69,443.649a.339.339,0,0,0,.092.154c.064.051.129.064.143.032s-.028-.1-.092-.154S46.7,443.61,46.69,443.649Z" transform="translate(-44.367 -241.117)" fill="#263238"/><path d="M140.4,446.352l.308,4.778.515-.032c2.3-.18,11.63-1.13,13.1-2.01,1.638-.983-5.521-2.094-5.521-2.094l-.17-2Z" transform="translate(-94.964 -241.604)" fill="#ffc107"/><g transform="translate(45.482 206.078)" opacity="0.5"><path d="M143.743,452.077a4.139,4.139,0,0,0-1.247-2.293,2.168,2.168,0,0,0-2-.539l.258,3.211Z" transform="translate(-140.5 -449.181)" fill="#fff"/></g><g transform="translate(45.744 206.103)" opacity="0.5"><path d="M152.668,449.22s2.535.6,2.273,1.22-9.661,2.068-13.871,2.2v-.257l11.009-1.574S152.19,449.323,152.668,449.22Z" transform="translate(-141.07 -449.22)" fill="#fff"/></g><path d="M140.77,452.961h.143l.409-.032,1.509-.141c1.27-.135,3.023-.347,4.96-.642s3.681-.642,4.941-.88l1.486-.34.4-.1a.836.836,0,0,0,.138-.039h-.143l-.4.135-1.5.276c-1.261.231-3.009.539-4.941.835s-3.681.527-4.955.687l-1.486.128-.409.051Z" transform="translate(-95.164 -243.679)" fill="#263238"/><path d="M164.967,450.93a5.968,5.968,0,0,1,.2-1.04,5.172,5.172,0,0,1,.46-.88,1.509,1.509,0,0,0-.538.822A2.028,2.028,0,0,0,164.967,450.93Z" transform="translate(-108.214 -243.042)" fill="#263238"/><path d="M159.382,449.318a1.609,1.609,0,0,0,.225-.488,1.647,1.647,0,0,0,.133-.539,2.765,2.765,0,0,0-.225.482A1.451,1.451,0,0,0,159.382,449.318Z" transform="translate(-105.209 -242.785)" fill="#263238"/><path d="M157.847,448.874a.985.985,0,0,0,.271-.315,1.019,1.019,0,0,0,.193-.411c-.018-.026-.143.116-.271.315A1.019,1.019,0,0,0,157.847,448.874Z" transform="translate(-104.383 -242.733)" fill="#263238"/><path d="M156.75,447.6a.668.668,0,0,0,.437,0,.741.741,0,0,0,.423-.128.669.669,0,0,0-.46,0A.745.745,0,0,0,156.75,447.6Z" transform="translate(-103.792 -242.476)" fill="#263238"/><path d="M156.3,446.5a.9.9,0,0,0,.985-.051,1.991,1.991,0,0,0-.492.032A1.9,1.9,0,0,0,156.3,446.5Z" transform="translate(-103.549 -242.125)" fill="#263238"/><path d="M159.82,447.584a1.085,1.085,0,0,0,.529-.083,2.409,2.409,0,0,0,.552-.263,1.493,1.493,0,0,0,.308-.231.45.45,0,0,0,.115-.25.364.364,0,0,0-.106-.289c-.44-.216-.927.028-1.169.584a1.546,1.546,0,0,0-.133.52.605.605,0,0,0,0,.206,2.585,2.585,0,0,1,.193-.642,1.071,1.071,0,0,1,.419-.482.613.613,0,0,1,.635-.039.227.227,0,0,1,0,.308,1.507,1.507,0,0,1-.281.225,3.071,3.071,0,0,1-.534.283C160.022,447.533,159.82,447.565,159.82,447.584Z" transform="translate(-105.45 -242.105)" fill="#263238"/><path d="M159.2,447.528a1.024,1.024,0,0,0,0-.527,1.327,1.327,0,0,0-.189-.514.486.486,0,0,0-.46-.308.337.337,0,0,0-.138.366,1.01,1.01,0,0,0,.12.315,2.072,2.072,0,0,0,.285.411.766.766,0,0,0,.327.25,4,4,0,0,1-.281-.328,2.547,2.547,0,0,1-.258-.411c-.087-.141-.156-.417-.028-.469s.281.122.373.257a1.425,1.425,0,0,1,.189.456A4.067,4.067,0,0,1,159.2,447.528Z" transform="translate(-104.684 -242.029)" fill="#263238"/><path d="M140.59,449.129a2.546,2.546,0,0,1,.612-.064,2.688,2.688,0,0,1,2.351,2.068c.166.475.2.809.221.8s0-.09,0-.238a3.54,3.54,0,0,0-.138-.6,2.611,2.611,0,0,0-2.415-2.126,1.429,1.429,0,0,0-.46.083A.489.489,0,0,0,140.59,449.129Z" transform="translate(-95.067 -243.026)" fill="#263238"/><path d="M149.61,451.506a3.515,3.515,0,0,0,1.219,0,3.766,3.766,0,0,0,1.2-.321,11.526,11.526,0,0,0-1.205.18C150.157,451.455,149.61,451.461,149.61,451.506Z" transform="translate(-99.937 -243.817)" fill="#263238"/><path d="M146.1,452.064a2.014,2.014,0,0,0,.124.315c.069.161.11.315.143.308s.028-.186-.055-.379S146.114,452.019,146.1,452.064Z" transform="translate(-98.042 -244.131)" fill="#263238"/><path d="M144.59,450.565a.561.561,0,0,0,.143.25c.1.109.184.167.2.141s-.046-.141-.138-.25S144.608,450.533,144.59,450.565Z" transform="translate(-97.226 -243.596)" fill="#263238"/><path d="M142.619,449.952c0,.039.115,0,.244.058s.221.122.239.09-.064-.18-.221-.225A.25.25,0,0,0,142.619,449.952Z" transform="translate(-96.161 -243.348)" fill="#263238"/><path d="M141.23,449.806c0,.039.046.09.115.116a.244.244,0,0,0,.143,0,.219.219,0,0,0-.115-.116C141.3,449.781,141.235,449.768,141.23,449.806Z" transform="translate(-95.412 -243.318)" fill="#263238"/><path d="M127.5,152.684c-.658-4.913-4.545-7.643-6.064-12.2-.593-1.76-.805-3.744-1.454-5.466-1.53-3.75-4.783-5.4-7.679-3.886l-.244.527c1.573,4.611,3.142,7.778,4.711,12.383a21.208,21.208,0,0,1,1.251,5.042,6.951,6.951,0,0,1-1.182,4.875c-.791.912-1.84,1.188-2.714,1.985a7.464,7.464,0,0,0-1.734,5.742,12.356,12.356,0,0,0,2.047,5.78c1.012,1.548,2.613,2.871,3.947,1.927a7.718,7.718,0,0,0,1.592-2.242,23.914,23.914,0,0,1,3.681-3.963A13.093,13.093,0,0,0,127.5,152.684Z" transform="translate(-79.662 -129.124)" fill="#263238"/><path d="M206.882,195.814c-.883,1.124-5.691,6.763-5.691,6.763l-4.771-6.063c.124-.495,1.293-3.295,1.426-3.995a7.361,7.361,0,0,0,.12-1.856,11.583,11.583,0,0,0-.294-2.286c-.212-.642.258-1.323.663-1s1.012,2.107.994,4.406,6.441-2.98,7.361-1.689Z" transform="translate(-125.211 -149.416)" fill="#ffbe9d"/><path d="M130,186.47l15.826,26.442,14.538-18.343,6.34,8.632s-18.242,28.022-21.025,27.823-12.238-8.927-12.238-8.927Z" transform="translate(-89.349 -149.121)" fill="#ffc107"/><path d="M202.607,180.33c-.131-.061-.273.032-.322.212l-4.32,15.145a.677.677,0,0,0,.207.732l5.107,3.4a.308.308,0,0,0,.323.017.517.517,0,0,0,.233-.313l4.835-15.7a.791.791,0,0,0,0-.459.508.508,0,0,0-.241-.312Z" transform="translate(-126.029 -146.918)" fill="#263238"/><path d="M203.147,182.04l-3.957,13.513,5.351,3.385,4.053-14.329Z" transform="translate(-126.707 -147.537)" fill="#f5f5f5"/><path d="M196.568,213.57a7.689,7.689,0,0,1-1.127-1.111c-.667-.739-1.56-1.8-2.494-3.07s-1.716-2.492-2.264-3.4a9.507,9.507,0,0,1-.824-1.535,13.171,13.171,0,0,1,.952,1.381c.575.867,1.38,2.055,2.3,3.314s1.794,2.351,2.434,3.128A12.239,12.239,0,0,1,196.568,213.57Z" transform="translate(-121.669 -155.554)" fill="#263238"/><path d="M194.2,202.921a2.031,2.031,0,0,0-.143.726,1.068,1.068,0,0,0,.235.642.458.458,0,0,0,.616.024.938.938,0,0,0,.3-.749,1.016,1.016,0,0,0-.29-.642.842.842,0,0,0-.524-.193.257.257,0,0,1,.152-.109.506.506,0,0,1,.46.1,1.13,1.13,0,0,1,.423.777,1.276,1.276,0,0,1-.4,1.068.615.615,0,0,1-.86-.06,1.32,1.32,0,0,1-.271-.9,1.2,1.2,0,0,1,.17-.6C194.133,202.934,194.2,202.908,194.2,202.921Z" transform="translate(-123.854 -154.891)" fill="#263238"/><path d="M162.669,235.295a4.385,4.385,0,0,1-.235-1.15,14.347,14.347,0,0,1,.46-5.658,3.728,3.728,0,0,1,.414-1.047,30.891,30.891,0,0,0-.686,3.854A32.624,32.624,0,0,0,162.669,235.295Z" transform="translate(-106.808 -163.778)" fill="#263238"/><path d="M166.009,234.986A3.566,3.566,0,0,1,165.5,234a16.1,16.1,0,0,1-1.169-5.626,4.838,4.838,0,0,1,.051-1.22c.114,1.36.288,2.709.52,4.04q.469,1.945,1.109,3.8Z" transform="translate(-107.875 -163.674)" fill="#263238"/><path d="M204.918,185.96l-2.618,9.088,3.92,2.241L208.953,188Z" transform="translate(-128.386 -148.939)" fill="#ebebeb"/><path d="M.579.8l2.66.354a.55.55,0,0,1,.4.5l.016.154c.026.248-.112.428-.308.4L.69,1.857a.55.55,0,0,1-.4-.5L.271,1.207C.245.959.383.779.579.8Z" transform="translate(75.09 43.662) rotate(22.68)" fill="#ffc107"/><path d="M.2.763l3.258.406.059.607L.262,1.371Z" transform="translate(76.903 37.722) rotate(20.63)" fill="#455a64"/><path d="M.277.862l3.6.448.116,1.2-3.6-.448Z" transform="translate(76.165 39.492) rotate(20.63)" fill="#e0e0e0"/><path d="M.277.862l3.6.448.116,1.2-3.6-.448Z" transform="translate(75.633 41.352) rotate(20.63)" fill="#e0e0e0"/><path d="M214.529,191.65c-.741.167-1.642.27-2.383.443a1.139,1.139,0,0,0-.6.276.812.812,0,0,0-.143.79c.115.289.409.315.649.308l1.633-.077a6.44,6.44,0,0,0-2.056.482,1.03,1.03,0,0,0-.653.88.757.757,0,0,0,.543.758,4.874,4.874,0,0,0,.856,0s1.118,0,1.164.231a19.719,19.719,0,0,0-2.3.289c-.193,0-.281.385-.327.642a.72.72,0,0,0,.2.681.459.459,0,0,0,.276.039l2.705-.116" transform="translate(-133.028 -150.974)" fill="#ffbe9d"/><path d="M106.026,183.966a7.288,7.288,0,0,1,5.6,1.58c2.084,1.927,9.4,31.175,9.114,39.859s.511,23.995,1.79,30.3,2.245,61.015-7.821,87.078L95.96,339.11l5.861-70.283-.6-63.757Z" transform="translate(-70.969 -148.204)" fill="#ffc107"/><g transform="translate(25.524 35.701)" opacity="0.3"><path d="M105.571,183.966a7.3,7.3,0,0,1,5.6,1.58c2.084,1.927,9.395,31.175,9.114,39.859s.506,23.995,1.79,30.3,2.245,61.015-7.821,87.078L97.12,339.11l4.251-70.283-.626-63.751Z" transform="translate(-97.12 -183.904)"/></g><path d="M91.095,181.9s-10.31-1.548-7.554,19.024l2.65,21.644,16.834,14.22c2.273.854.34-14.772,3.763-22a11.612,11.612,0,0,0,1.284-5.973c.327-4.721-2.383-7.662-2.76-12.434-.423-6.911-.4-10.739-2.558-11.516L91.1,181.9" transform="translate(-64.011 -147.475)" fill="#455a64"/><path d="M131.533,201.89a8.751,8.751,0,0,0,0,3.031,15.185,15.185,0,0,0,.92,3.07,31.969,31.969,0,0,1,1.316,3.712,16.3,16.3,0,0,1,.069,7.457,13.2,13.2,0,0,1-.653,2.087,3.738,3.738,0,0,1-.34.694,24.234,24.234,0,0,0,.833-2.852,16.748,16.748,0,0,0-.133-7.27,34.762,34.762,0,0,0-1.284-3.68,14.726,14.726,0,0,1-.874-3.166,7.957,7.957,0,0,1-.028-2.286,4.553,4.553,0,0,1,.124-.6C131.5,201.96,131.524,201.883,131.533,201.89Z" transform="translate(-90.045 -154.638)" fill="#263238"/><path d="M106.923,166.379c-.244-3.539-.46-7.27-.46-7.27s3.22-1.207,3.469-7.251c.244-5.78-1-15.8-1-15.8v-.507c-4.891-2.03-10.678-1.927-13.659,3.764h0l2.3,28.709c.271,3.333,2.535,5.671,5.088,5.241h0C105.267,172.834,107.154,169.751,106.923,166.379Z" transform="translate(-70.597 -130.475)" fill="#ffbe9d"/><path d="M123.738,148.014a.767.767,0,0,1-.46.841.413.413,0,0,1-.4-.125.812.812,0,0,1-.214-.485.767.767,0,0,1,.46-.841.413.413,0,0,1,.4.125.812.812,0,0,1,.214.485Z" transform="translate(-85.387 -135.142)" fill="#263238"/><path d="M122.435,146.679c-.064.109-.506-.257-1.095-.18s-.989.559-1.063.462,0-.225.2-.443a1.329,1.329,0,0,1,.842-.495,1.117,1.117,0,0,1,.879.27A.762.762,0,0,1,122.435,146.679Z" transform="translate(-84.084 -134.649)" fill="#263238"/><path d="M110.418,149.726a.767.767,0,0,1-.46.841.417.417,0,0,1-.406-.136.832.832,0,0,1-.206-.506.767.767,0,0,1,.46-.841.417.417,0,0,1,.406.136A.832.832,0,0,1,110.418,149.726Z" transform="translate(-78.195 -135.743)" fill="#263238"/><path d="M109.114,148.459c-.06.109-.506-.263-1.09-.18s-.989.552-1.063.462.023-.231.2-.45A1.324,1.324,0,0,1,108,147.8a1.121,1.121,0,0,1,.879.263C109.072,148.241,109.146,148.408,109.114,148.459Z" transform="translate(-76.896 -135.285)" fill="#263238"/><path d="M116.343,154.062a3.128,3.128,0,0,1,.92-.366c.147-.045.285-.109.3-.25a1.294,1.294,0,0,0-.143-.61l-.557-1.535a34.67,34.67,0,0,1-1.293-4.04,31.8,31.8,0,0,1,1.523,3.886l.538,1.548a1.605,1.605,0,0,1,.138.809.49.49,0,0,1-.225.34.669.669,0,0,1-.253.084A2.605,2.605,0,0,1,116.343,154.062Z" transform="translate(-81.557 -135.094)" fill="#263238"/><path d="M112.747,172.152a8.242,8.242,0,0,1-5.857-1.342,4.947,4.947,0,0,0,5.9,2.749Z" transform="translate(-76.871 -143.519)" fill="#eb996e"/><path d="M114.965,160.749a.887.887,0,0,0-.989-.417,1.019,1.019,0,0,0-.635.591,1.149,1.149,0,0,0,0,.983.572.572,0,0,0,.791.167,2.473,2.473,0,0,0,.708-.732.943.943,0,0,0,.152-.263.376.376,0,0,0-.023-.308" transform="translate(-80.294 -139.758)" fill="#ffc107"/><path d="M113.488,159.11c.1,0,.161.867.75,1.426s1.265.366,1.279.488-.138.2-.428.244a1.242,1.242,0,0,1-1.063-.353,2.129,2.129,0,0,1-.589-1.207C113.387,159.341,113.446,159.11,113.488,159.11Z" transform="translate(-80.395 -139.334)" fill="#263238"/><path d="M59.3,310.17l-6.538,37.611S44.971,392.816,44.714,394l-.244,1.4,10.982,1.156L74.48,313.022Z" transform="translate(-43.168 -193.374)" fill="#263238"/><path d="M95.7,312.651c1.776,11.991,8.281,62.3,8.281,62.3l11.138-1.6-6.335-64.168a28.5,28.5,0,0,0-.727-4.92L97.645,260.686,78.065,243.3c-.193,0-3.17,11.233-2.76,19.017a25.317,25.317,0,0,0,2.517,9.692c1.247,2.537,2.981,6.076,3.368,6.9C81.81,280.217,95.7,312.651,95.7,312.651Z" transform="translate(-59.796 -169.452)" fill="#263238"/><path d="M55.272,235.8q-.8,4.066-1.325,8.221c-1.251,10.077-4.435,34.6-6.5,41.1-2.618,8.221-6.869,39.274-5.562,44.958S71.655,341.5,71.655,341.5s1.633-37.219,3.271-46.577,5.061-29.917,5.558-42.017.327-33.109-2.452-46.121S68.858,180.1,68.858,180.1s-5.466,2.107-7.329,5.138a18.039,18.039,0,0,0-2.3,7.6c-.028,3.706-1.261,21.323-2.084,31.561C56.887,227.319,55.962,232.322,55.272,235.8Z" transform="translate(-41.64 -146.843)" fill="#ffc107"/><path d="M112.436,256.29a.759.759,0,0,1,0-.186v-.546c0-.5-.041-1.2-.074-2.094q-.106-3.872-.529-7.707a34.169,34.169,0,0,0-1-5.138,22.542,22.542,0,0,0-2.195-5.228c-.943-1.689-2.061-3.327-3.147-5.138a32,32,0,0,1-1.56-2.864,19.655,19.655,0,0,1-1.21-3.308,14.827,14.827,0,0,1-.285-7.225,16.843,16.843,0,0,1,1.2-3.044,7.19,7.19,0,0,0,.46-1.477,3.06,3.06,0,0,0,.041-.764,1.95,1.95,0,0,0-.184-.687,1.8,1.8,0,0,0-.856-.861,11.672,11.672,0,0,1-1.054-.539,2.4,2.4,0,0,1-.86-1,4.555,4.555,0,0,1-.368-1.419,13.2,13.2,0,0,1,.051-2.807c.092-.88.179-1.728.262-2.531.34-3.211.612-5.819.805-7.643.1-.886.175-1.58.23-2.081l.069-.533q.01-.094.028-.186a.813.813,0,0,1,0,.186,2.824,2.824,0,0,1-.041.546c-.046.5-.106,1.195-.189,2.081-.175,1.837-.423,4.444-.727,7.662-.078.809-.161,1.657-.248,2.537a13.088,13.088,0,0,0-.041,2.723,4.188,4.188,0,0,0,.345,1.285,2.093,2.093,0,0,0,.782.9c.317.206.676.334,1.04.52a2.054,2.054,0,0,1,.966.976,2.442,2.442,0,0,1,.216.816,3.452,3.452,0,0,1-.046.873,7.027,7.027,0,0,1-.5,1.567,16.856,16.856,0,0,0-1.178,2.993,14.438,14.438,0,0,0,.29,7,22.734,22.734,0,0,0,2.724,6.076c1.077,1.8,2.195,3.443,3.142,5.138a23.3,23.3,0,0,1,2.195,5.4,34.066,34.066,0,0,1,.98,5.177c.272,2.553.425,5.127.46,7.707q0,1.342.028,2.1v.546C112.441,256.225,112.436,256.29,112.436,256.29Z" transform="translate(-73.565 -150.842)" fill="#263238"/><path d="M117.879,300.223a.447.447,0,0,1,.133-.206.588.588,0,0,1,.538-.128.9.9,0,0,1,.616.758,1.39,1.39,0,0,1-.348,1.325.654.654,0,0,1-1-.156,1.344,1.344,0,0,1-.2-1.111,1.1,1.1,0,0,1,.34-.6c.115-.083.189-.083.193-.064a1.454,1.454,0,0,0-.368.732,1,1,0,0,0,.184.816.479.479,0,0,0,.732.1,1.022,1.022,0,0,0,.257-.962.729.729,0,0,0-.437-.6A.792.792,0,0,0,117.879,300.223Z" transform="translate(-82.638 -189.689)" fill="#263238"/><path d="M111.26,334.682a.45.45,0,0,1,.138-.2.57.57,0,0,1,.538-.135.912.912,0,0,1,.617.758,1.39,1.39,0,0,1-.348,1.325.654.654,0,0,1-1-.156,1.356,1.356,0,0,1-.234-.9,1.186,1.186,0,0,1,.367-.808c.115-.09.193-.09.193-.071a1.545,1.545,0,0,0-.368.732,1.016,1.016,0,0,0,.189.816.512.512,0,0,0,.731.1,1.125,1.125,0,0,0,.258-.963.712.712,0,0,0-.46-.6.811.811,0,0,0-.616.1Z" transform="translate(-79.069 -202.016)" fill="#263238"/><path d="M91.387,291.77a.983.983,0,0,1,0,.212q0,.244-.041.642c-.041.572-.106,1.381-.189,2.415-.175,2.1-.46,5.138-.842,8.876-.2,1.869-.46,3.911-.768,6.089a26.269,26.269,0,0,1-.662,3.34,4.41,4.41,0,0,1-.143.424,1.566,1.566,0,0,1-.23.366,2.508,2.508,0,0,1-.57.514,5.807,5.807,0,0,1-1.27.61,22.038,22.038,0,0,1-5.59.873,41.446,41.446,0,0,1-6.036-.1l-.258-.045a.406.406,0,0,1-.276-.276,2.664,2.664,0,0,1-.143-.732,13.112,13.112,0,0,1-.028-1.407c0-.925.083-1.83.156-2.723.152-1.792.35-3.532.557-5.222.414-3.378.87-6.557,1.32-9.467v-.109h.106a48.49,48.49,0,0,0,10.89-2.64c1.293-.475,2.3-.906,2.986-1.195l.8-.34a1.672,1.672,0,0,1,.258-.1l-.069.039-.2.1c-.179.1-.423.225-.764.385-.676.321-1.684.771-2.972,1.285a46.176,46.176,0,0,1-10.922,2.749l.092-.116c-.46,2.909-.888,6.089-1.3,9.461-.2,1.689-.4,3.43-.543,5.209-.074.886-.138,1.792-.156,2.7a12.078,12.078,0,0,0,.028,1.355,2.563,2.563,0,0,0,.11.6c.041.077.055.1.106.116l.244.039a41.053,41.053,0,0,0,6.008.1,21.8,21.8,0,0,0,5.521-.854,5.438,5.438,0,0,0,1.233-.584,1.783,1.783,0,0,0,.842-1.15,25.946,25.946,0,0,0,.662-3.276c.331-2.164.58-4.207.791-6.069.428-3.732.718-6.757.92-8.85.1-1.034.179-1.843.235-2.415.028-.257.046-.469.064-.642S91.387,291.77,91.387,291.77Z" transform="translate(-59.293 -186.791)" fill="#263238"/><path d="M92.807,299.06a2.611,2.611,0,0,1-.547.4c-.359.238-.893.546-1.555.893a22,22,0,0,1-10.9,2.524,10.088,10.088,0,0,1-1.679-.148,2.458,2.458,0,0,1-.612-.122,1.983,1.983,0,0,1,.616,0c.4,0,.966.039,1.675.039a25.125,25.125,0,0,0,10.844-2.518c.672-.321,1.21-.6,1.578-.8A2.542,2.542,0,0,1,92.807,299.06Z" transform="translate(-61.008 -189.399)" fill="#263238"/><path d="M54.64,239.859l.041-.3c.032-.218.078-.507.138-.886.133-.784.327-1.927.57-3.378.506-2.929,1.274-7.155,2.273-12.357l1.652-8.5c.6-3.057,1.228-6.326,1.978-9.737a100.074,100.074,0,0,1,2.839-10.462q.9-2.683,2.038-5.2a19.962,19.962,0,0,1,1.274-2.473,6.185,6.185,0,0,1,1.734-1.927,2.236,2.236,0,0,1,2.227-.244,4.213,4.213,0,0,1,1.776,1.818,13.735,13.735,0,0,1,1.284,5.645c.235,3.854.46,7.592.676,11.143.423,7.1.805,13.487,1.127,18.857s.566,9.7.741,12.717c.083,1.49.147,2.653.189,3.462,0,.385.032.681.046.9q.006.154,0,.308a2.126,2.126,0,0,0-.032-.3c-.032-.2-.037-.52-.064-.9l-.235-3.455c-.193-3.019-.46-7.354-.814-12.71s-.736-11.76-1.182-18.85c-.221-3.552-.46-7.277-.69-11.137a13.369,13.369,0,0,0-1.233-5.472,3.962,3.962,0,0,0-1.661-1.7,2.038,2.038,0,0,0-2.047.225,6.013,6.013,0,0,0-1.661,1.863,19.157,19.157,0,0,0-1.251,2.408q-1.125,2.481-2.029,5.138A100.649,100.649,0,0,0,61.5,204.759c-.755,3.4-1.38,6.667-2,9.717s-1.169,5.9-1.679,8.491c-1.021,5.2-1.813,9.416-2.346,12.331-.267,1.452-.46,2.569-.612,3.365-.074.372-.124.642-.166.873S54.64,239.859,54.64,239.859Z" transform="translate(-48.659 -148.31)" fill="#455a64"/><path d="M48.054,267.41c-.179,1-3.524,27.572-3.524,27.572l24.885,1.124,3.427-27.553Z" transform="translate(-43.201 -178.077)" fill="#263238"/><path d="M76.921,269.292a1.669,1.669,0,0,1-.225.238c-.147.148-.377.353-.672.642-.584.527-1.449,1.285-2.535,2.126s-2.4,1.85-3.892,2.839a24.337,24.337,0,0,1-2.388,1.439,6.148,6.148,0,0,1-2.76.565,10.287,10.287,0,0,1-5.245-1.914,20.021,20.021,0,0,1-3.681-3.365c-.971-1.1-1.707-2.074-2.208-2.749-.248-.34-.46-.61-.57-.8a2.168,2.168,0,0,1-.184-.3,1.577,1.577,0,0,1,.221.244c.152.2.354.443.6.751.52.642,1.27,1.586,2.25,2.659a20.1,20.1,0,0,0,3.681,3.25,10.235,10.235,0,0,0,5.116,1.824,6.054,6.054,0,0,0,2.7-.54A27.529,27.529,0,0,0,69.5,274.8c1.491-.976,2.806-1.927,3.9-2.768s1.969-1.541,2.572-2.03l.695-.565a.874.874,0,0,1,.258-.148Z" transform="translate(-47.536 -178.295)" fill="#455a64"/><path d="M98.421,271.82c.064,0-.6,5.78-1.491,12.929s-1.661,12.877-1.725,12.877.6-5.78,1.491-12.922S98.356,271.807,98.421,271.82Z" transform="translate(-70.559 -179.654)" fill="#455a64"/><path d="M76.492,280.436c-.069.861-.133,1.728-.2,2.569a3.225,3.225,0,0,0,0,.816.717.717,0,0,0,.386.572.548.548,0,0,0,.552-.443,3.069,3.069,0,0,0,.133-.931c.032-.925.069-1.85.106-2.768h-.81" transform="translate(-60.335 -182.67)" fill="#455a64"/><path d="M74.506,185.475c2.024-.951,3.713,2.71,3.943,5.671a88.573,88.573,0,0,1,.138,10.276,79.237,79.237,0,0,1-3.644,19.8l20.813,4.355-.764,11.175-26.32-3.943a6.333,6.333,0,0,1-4.546-3.861,11.7,11.7,0,0,1-.758-7.353c2.351-10.706,6.192-26.1,7.044-28.651C71.59,189.508,71.723,186.772,74.506,185.475Z" transform="translate(-53.224 -148.71)" fill="#ffc107"/><path d="M73.06,241.657H73.2l.4.077,1.523.321c1.334.257,3.271.642,5.7,1.034,4.868.8,11.7,1.753,19.557,2.569l-.124.148c.244-3.552.5-7.3.764-11.156h0l.1.18-20.809-4.374H80.2l.037-.148c1.353-5.845,2.388-10.681,3-14.085.313-1.7.529-3.038.663-3.95l.152-1.04c.037-.231.06-.353.06-.353a3.5,3.5,0,0,1-.028.36c-.028.238-.064.591-.129,1.053-.115.918-.317,2.261-.612,3.969-.584,3.417-1.592,8.272-2.926,14.13l-.083-.173,20.823,4.31h.11v.161h0c-.262,3.854-.52,7.6-.764,11.156v.161h-.11c-7.858-.861-14.695-1.856-19.562-2.717-2.429-.424-4.366-.835-5.7-1.13l-1.55-.372-.391-.1Z" transform="translate(-58.605 -157.854)" fill="#263238"/><path d="M123.52,258.181c.006-1.932.093-3.862.262-5.78q.129-2.909.506-5.78-.017,2.9-.267,5.78-.132,2.908-.5,5.78Z" transform="translate(-85.85 -170.639)" fill="#263238"/><path d="M128.4,249.462a.152.152,0,0,1,.156,0,.621.621,0,0,1,.359.34,1.116,1.116,0,0,1,.037.918.643.643,0,0,1-.731.469.891.891,0,0,1-.553-.816,1.163,1.163,0,0,1,.216-.861c.3-.353.561-.231.547-.2a.955.955,0,0,0-.428.366.906.906,0,0,0-.12.642.68.68,0,0,0,.382.552.472.472,0,0,0,.5-.308.867.867,0,0,0,0-.642C128.625,249.532,128.4,249.513,128.4,249.462Z" transform="translate(-88.084 -171.587)" fill="#263238"/><path d="M143.84,242.87l.948,13.764H149.6l1.15-13.764Z" transform="translate(-96.821 -169.298)" fill="#ebebeb"/><path d="M143.3,240.1a3.647,3.647,0,0,0-.46,1.818h7.821a2.528,2.528,0,0,0-.46-1.818Z" transform="translate(-96.281 -168.307)" fill="#455a64"/><path d="M145.462,238.123l-.262,1.362,5.893.064-.391-1.439Z" transform="translate(-97.556 -167.595)" fill="#455a64"/><path d="M143.62,248.23c0,.128.575,6.93.575,6.93h5.875l.557-6.93Z" transform="translate(-96.703 -171.215)" fill="#455a64"/><path d="M138.033,246.317l-.152,2.306,5.686.186s0,2.678-.575,3.481c0,0,.575,1.606-.064,2.5s-1.021.642-1.021.642.258,1.785-.382,2.235-8.934-.244-8.934-.244l.511-7.469,1.84-.225C135.019,247.255,136.85,246.028,138.033,246.317Z" transform="translate(-90.747 -170.516)" fill="#ffbe9d"/><path d="M103.813,133.958a6,6,0,0,0-1.808-3.211,2.452,2.452,0,0,0-1.928-.552h0V130a2.448,2.448,0,0,0-3.1-1.586c-1.261.3-2.5,1.58-3.625,2.415-1.518,1.13-2.967,2.421-4.421,3.712a13.272,13.272,0,0,0-3.271,3.809,10.489,10.489,0,0,0-.952,5.973c.3,2.254,1.293,4.534.7,6.673-.4,1.419-1.38,2.312-2.052,3.532a7.606,7.606,0,0,0-.087,6.654,10.591,10.591,0,0,0,2.636,2.877,44.964,44.964,0,0,0,4.417,4.188c1.6,1.1,3.63,1.452,5.1.051s2.006-4.335,1.734-6.872a41.068,41.068,0,0,0-1.84-7.219,52.861,52.861,0,0,1-1.891-9.634,8.817,8.817,0,0,1,.239-3.911,7.555,7.555,0,0,1,1.84-2.447,19.966,19.966,0,0,0,3.947-6.294,8.524,8.524,0,0,0,1.578,3.083,15.46,15.46,0,0,0,3.1,3.057,13.762,13.762,0,0,0-.317-4.1Z" transform="translate(-63.728 -128.318)" fill="#263238"/></g></g></svg>