<svg xmlns="http://www.w3.org/2000/svg" viewBox="0 0 200 250"><path d="M200 249.005c0 .1-44.774.167-100 .167s-100-.064-100-.167 44.769-.167 100.009-.167 99.991.083 99.991.167z" fill="#263238"/><g transform="translate(52.779)"><path fill="#f5f5f5" d="M.11.141h117.22v205.292H.11z"/><path d="M.129.141L117.349 0h.1v205.594H0v-.148C.064 83.455.106 1.47.106.16c0 1.285.046 83.295.11 205.286l-.11-.148h117.22l-.12.167V.2l.1.135z" fill="#263238"/><path d="M45.271 16.416h1.18v7.457h3.312v1.383h-4.49zM50.14 21.887a3.906 3.906 0 011.523-3.418 2.06 2.06 0 012.84.694 4.666 4.666 0 01.6 3.937 2.739 2.739 0 01-2.391 2.249 2.1 2.1 0 01-1.828-.946 4.17 4.17 0 01-.744-2.516zm4.012 0c-.043-1.09-.7-1.931-1.483-1.893s-1.4.942-1.385 2.033.647 1.969 1.429 1.974a1.242 1.242 0 001.058-.608 2.465 2.465 0 00.379-1.506zM61.171 18.516v5.7c0 2.447-.92 3.565-2.609 3.565a3.126 3.126 0 01-2.351-.963l.506-1.188a2.416 2.416 0 001.785.809c1.067 0 1.537-.681 1.537-2.049v-.353a1.865 1.865 0 01-1.619.9 2.275 2.275 0 01-2.11-1.587 4.4 4.4 0 010-3.346 2.275 2.275 0 012.11-1.587 1.861 1.861 0 011.675.976v-.9zm-1.113 3.173a2.266 2.266 0 00-.843-1.989 1.172 1.172 0 00-1.635.363 2.657 2.657 0 00-.36 2.256 1.57 1.57 0 001.37 1.3 1.179 1.179 0 001.033-.519 2.345 2.345 0 00.434-1.411zM62.5 16.455a1.166 1.166 0 01.218-.685.592.592 0 01.5-.259.569.569 0 01.5.237 1.128 1.128 0 01.226.669c-.022.529-.332.945-.712.956s-.7-.389-.737-.917zm.152 2.062h1.132v6.745h-1.132zM70.027 21.393v3.854h-1.132v-3.661c0-1.2-.423-1.779-1.146-1.779-.805 0-1.353.681-1.353 2.03v3.41H65.27v-6.731h1.077v.873a1.849 1.849 0 011.665-.954c1.155 0 2.015.929 2.015 2.958z"/><path d="M78.239 11.862a4.51 4.51 0 01.17 2.569 6.561 6.561 0 01-.989 2.274 7.171 7.171 0 01-3.3 2.569 9.079 9.079 0 01.851-4.791c.658-1.522 2.517-3.712 3.266-2.62M73.896 22.537a2.172 2.172 0 011.684-1.631 2.284 2.284 0 011.964.938 1.818 1.818 0 01.46 1.156 1.292 1.292 0 01-.506 1 1.376 1.376 0 01-.92.186 3.152 3.152 0 01-2.691-1.651" fill="#ffc107"/><path d="M71.241 24.721a4.645 4.645 0 01.584-.79 3.928 3.928 0 01.741-.681 7.194 7.194 0 01.989-.642 2.991 2.991 0 011.955-.315 2.115 2.115 0 01.58.212.614.614 0 01.2.141 3.17 3.17 0 00-.791-.218 3.242 3.242 0 00-1.9.36 8.6 8.6 0 00-.975.6 4.108 4.108 0 00-.741.642 6.652 6.652 0 01-.642.691z" fill="#263238"/><path d="M76.933 13.706a4.24 4.24 0 01-.212.5c-.143.308-.35.758-.612 1.285-.525 1.1-1.265 2.6-2.107 4.239s-1.642 3.089-2.231 4.123c-.294.52-.538.931-.709 1.214a3.469 3.469 0 01-.276.424 3.05 3.05 0 01.235-.469l.672-1.285c.57-1.053 1.353-2.511 2.195-4.149l2.153-4.149.653-1.285a3.41 3.41 0 01.239-.45z" fill="#263238"/><path d="M72.359 21.785a8.859 8.859 0 00-.635-5.973c-.225-.43-.57-.861-.92-.732s-.534.739-.58 1.285a6.439 6.439 0 002.084 5.549" fill="#ffc107"/><path d="M71.439 17.315a2.411 2.411 0 01.124.25c.074.167.166.411.276.726a9.839 9.839 0 01.52 2.614 6.571 6.571 0 01-.1 1.5 5.318 5.318 0 01-.359 1.163 4.712 4.712 0 01-.35.642 1.18 1.18 0 01-.152.212c-.023 0 .179-.353.419-.951a6.107 6.107 0 00.308-1.1 6.628 6.628 0 00.087-1.445 11.146 11.146 0 00-.488-2.569q-.161-.511-.285-1.042zM12.21 46.05v.469H9.592v-5.17h2.54v.475H9.984v1.837h1.914v.462H9.984v1.927zM17.644 44.252v2.254h-.373v-2.2c0-.816-.3-1.24-.8-1.24a.83.83 0 00-.684.418 1.631 1.631 0 00-.237.988v2.036h-.373v-2.2c0-.816-.3-1.24-.805-1.24a.83.83 0 00-.684.418 1.631 1.631 0 00-.237.988v2.036h-.373v-3.886h.359v.713a1.074 1.074 0 011.021-.739 1.009 1.009 0 01.989.816 1.177 1.177 0 011.1-.816.927.927 0 01.826.469 1.869 1.869 0 01.271 1.185zM20.767 44.124v2.408h-.363v-.6a.978.978 0 01-.957.642 1.009 1.009 0 01-1.017-1.13c0-.674.276-1.1 1.077-1.1h.865v-.238c0-.642-.271-1.028-.791-1.028a1.219 1.219 0 00-.92.456l-.17-.392a1.488 1.488 0 011.132-.52.821.821 0 01.839.356 1.717 1.717 0 01.307 1.147zm-.4 1.22v-.642h-.874a.621.621 0 00-.713.694.687.687 0 00.7.732c.385.033.741-.283.883-.784zM21.701 41.394a.452.452 0 01.083-.264.231.231 0 01.193-.1.227.227 0 01.19.1.444.444 0 01.082.259.469.469 0 01-.078.272.241.241 0 01-.194.113.238.238 0 01-.195-.109.464.464 0 01-.081-.271zm.083 1.227h.377v3.886h-.377zM23.21 41.028h.382v5.478h-.373zM28.117 44.123v2.408h-.359v-.6a.981.981 0 01-.962.642 1.009 1.009 0 01-1.012-1.13c0-.674.271-1.1 1.072-1.1h.874v-.238c0-.642-.267-1.028-.787-1.028a1.211 1.211 0 00-.92.456l-.17-.392a1.481 1.481 0 011.132-.52.826.826 0 01.829.365 1.72 1.72 0 01.3 1.138zm-.386 1.22v-.642h-.874a.621.621 0 00-.713.694.687.687 0 00.7.732c.385.032.741-.284.883-.784zM31.689 41.028v5.478h-.359v-.764a1.169 1.169 0 01-1.077.8c-.75-.06-1.336-.926-1.336-1.975s.586-1.915 1.336-1.975a1.171 1.171 0 011.063.764v-2.328zm-.368 3.539c-.028-.788-.5-1.4-1.067-1.374s-1.01.678-1 1.467.469 1.422 1.034 1.423a.908.908 0 00.755-.442 1.788 1.788 0 00.278-1.074zM35.278 41.028v5.478h-.359v-.764a1.182 1.182 0 01-1.077.8c-.75-.06-1.336-.926-1.336-1.975s.586-1.915 1.336-1.975a1.16 1.16 0 011.058.764v-2.328zm-.373 3.539c-.028-.789-.5-1.4-1.069-1.374s-1.011.682-1 1.471.473 1.421 1.038 1.418a.9.9 0 00.754-.442 1.783 1.783 0 00.278-1.073zM37.726 42.595v.507h-.087a.832.832 0 00-.691.427 1.64 1.64 0 00-.229 1.005v1.978h-.377v-3.886h.363v.764a1.034 1.034 0 011.021-.795zM40.799 44.727h-2.328a1.709 1.709 0 00.345 1 .87.87 0 00.75.359.991.991 0 00.856-.514l.212.34a1.2 1.2 0 01-1.586.5 2.126 2.126 0 01-.949-1.843 2.172 2.172 0 01.654-1.732 1.039 1.039 0 011.4 0 2.172 2.172 0 01.654 1.732c.001.042-.008.1-.008.158zm-2.328-.392h1.974c-.035-.724-.467-1.287-.987-1.287s-.952.563-.987 1.287zM41.185 46.05l.17-.411a1.378 1.378 0 00.989.437c.529 0 .745-.25.745-.642 0-1.015-1.8-.218-1.8-1.753a1.027 1.027 0 011.1-1.1 1.46 1.46 0 01.985.36l-.161.424a1.161 1.161 0 00-.824-.334c-.5 0-.722.27-.722.642 0 1.047 1.8.257 1.8 1.753a1.057 1.057 0 01-1.15 1.1 1.5 1.5 0 01-1.132-.476zM43.771 46.05l.17-.411a1.389 1.389 0 00.989.437c.529 0 .75-.25.75-.642 0-1.015-1.808-.218-1.808-1.753a1.028 1.028 0 011.1-1.1 1.484 1.484 0 01.985.36l-.166.424a1.147 1.147 0 00-.819-.334c-.506 0-.727.27-.727.642 0 1.047 1.8.257 1.8 1.753a1.056 1.056 0 01-1.146 1.1 1.518 1.518 0 01-1.128-.476z" fill="#263238"/><path d="M16.48 60.347h-2.328a1.705 1.705 0 00.347.992.869.869 0 00.748.357.977.977 0 00.851-.507l.212.34a1.2 1.2 0 01-1.586.5 2.126 2.126 0 01-.949-1.843 2.341 2.341 0 01.379-1.412 1.148 1.148 0 011.986.011 2.33 2.33 0 01.363 1.4.44.44 0 00-.023.162zm-2.328-.392h1.974c-.035-.724-.467-1.287-.987-1.287s-.951.562-.987 1.287zM18.946 62.107l-.874-1.606-.9 1.606h-.423l1.1-1.991-1.049-1.927h.423l.837 1.522.837-1.458h.409l-1.044 1.927 1.109 1.991zM22.044 59.718v2.389h-.359v-.6a.985.985 0 01-.962.642 1.006 1.006 0 01-1.012-1.13c0-.674.271-1.1 1.072-1.1h.883v-.238c0-.642-.271-1.028-.787-1.028a1.208 1.208 0 00-.92.456l-.166-.392a1.466 1.466 0 011.132-.527.839.839 0 01.826.384 1.739 1.739 0 01.293 1.144zm-.377 1.24v-.642h-.874a.623.623 0 00-.713.7.684.684 0 00.7.732c.386.034.744-.286.883-.79zM27.66 59.873v2.235h-.386v-2.185c0-.816-.3-1.24-.8-1.24a.829.829 0 00-.684.418 1.631 1.631 0 00-.237.988v2.017h-.373v-2.183c0-.816-.3-1.24-.805-1.24a.829.829 0 00-.684.418 1.631 1.631 0 00-.237.988v2.017h-.373v-3.853h.359v.706a1.082 1.082 0 011.021-.739 1.017 1.017 0 01.989.822 1.18 1.18 0 011.1-.822.926.926 0 01.832.462 1.87 1.87 0 01.277 1.189zM31.501 60.18a2.347 2.347 0 01-.381 1.41 1.189 1.189 0 01-1 .568 1.167 1.167 0 01-1.058-.771v2.164h-.373v-5.3h.359v.771a1.171 1.171 0 011.072-.8 1.192 1.192 0 01.993.564 2.345 2.345 0 01.387 1.4zm-.377 0c-.023-.794-.5-1.415-1.068-1.393s-1.02.679-1.011 1.474.474 1.432 1.043 1.429a.913.913 0 00.752-.442 1.792 1.792 0 00.283-1.068zM32.264 56.647h.377v5.459h-.377zM36.115 60.347h-2.332c.037.8.529 1.4 1.1 1.349a.981.981 0 00.851-.507l.212.34a1.2 1.2 0 01-1.586.5 2.126 2.126 0 01-.949-1.843 2.172 2.172 0 01.654-1.732 1.039 1.039 0 011.4 0 2.172 2.172 0 01.654 1.732c.001.045-.004.107-.004.161zm-2.333-.392h1.978c0-.763-.443-1.381-.989-1.381s-.988.619-.988 1.381zM41.558 60.179c0 1.285-.331 2-.879 2a.487.487 0 01-.425-.219.969.969 0 01-.174-.584 1.15 1.15 0 01-1.058.8 2.127 2.127 0 010-3.815 1.148 1.148 0 011.049.777v-.758h.345v2.8c0 .411.147.559.327.559.327 0 .538-.565.538-1.567a3.451 3.451 0 00-.625-2.117 1.718 1.718 0 00-1.546-.766 2.071 2.071 0 00-1.927 1.444 4.008 4.008 0 000 3.053 2.071 2.071 0 001.927 1.444 1.785 1.785 0 001.017-.328l.087.36a1.963 1.963 0 01-1.1.34c-1.324 0-2.4-1.5-2.4-3.346s1.073-3.346 2.4-3.346a1.972 1.972 0 011.738.884 3.936 3.936 0 01.706 2.385zm-1.481.083c-.03-.765-.494-1.356-1.042-1.329s-.981.664-.971 1.43.457 1.381 1.006 1.382a.875.875 0 00.744-.433 1.736 1.736 0 00.263-1.064zM44.931 58.253v3.417c0 1.336-.46 1.927-1.38 1.927a1.618 1.618 0 01-1.3-.6l.189-.4a1.4 1.4 0 001.1.533c.7 0 1.026-.456 1.026-1.413v-.495a1.185 1.185 0 01-1.086.751 1.307 1.307 0 01-1.237-.909 2.544 2.544 0 010-1.951 1.307 1.307 0 011.237-.909 1.2 1.2 0 011.1.777v-.732zm-.368 1.85a1.6 1.6 0 00-.627-1.4.846.846 0 00-1.165.287 1.916 1.916 0 00-.246 1.616 1.126 1.126 0 00.981.924.855.855 0 00.759-.39 1.712 1.712 0 00.3-1.048zM50.575 59.873v2.235h-.378v-2.185c0-.816-.294-1.24-.8-1.24a.83.83 0 00-.684.418 1.631 1.631 0 00-.237.988v2.017h-.379v-2.183c0-.816-.294-1.24-.805-1.24a.83.83 0 00-.684.418 1.631 1.631 0 00-.237.988v2.017h-.374v-3.853h.359v.706a1.086 1.086 0 011.021-.739 1.02 1.02 0 01.994.822 1.176 1.176 0 011.1-.822.928.928 0 01.829.465 1.871 1.871 0 01.275 1.188zM53.695 59.717v2.389h-.359v-.6a.978.978 0 01-.957.642 1.009 1.009 0 01-1.017-1.13c0-.674.271-1.1 1.072-1.1h.883v-.238c0-.642-.267-1.028-.787-1.028a1.189 1.189 0 00-.92.456l-.17-.392a1.467 1.467 0 011.132-.527.837.837 0 01.829.381 1.738 1.738 0 01.294 1.147zm-.377 1.24v-.642h-.874a.623.623 0 00-.713.7.686.686 0 00.7.732c.386.034.744-.286.883-.79zM54.628 57.014c0-.207.128-.37.276-.366a.23.23 0 01.191.1.449.449 0 01.085.26.467.467 0 01-.079.274.239.239 0 01-.2.111c-.151 0-.274-.169-.276-.379zm.087 1.227h.373v3.866h-.373zM56.137 56.647h.377v5.459h-.377zM57.315 61.76a.484.484 0 01.081-.281.235.235 0 01.4 0 .488.488 0 01.085.284c0 .223-.13.4-.29.4s-.283-.185-.281-.4zM58.322 60.183a2.377 2.377 0 01.41-1.424 1.2 1.2 0 011.025-.554 1.169 1.169 0 011.09.771l-.281.27a.908.908 0 00-.81-.578 1.634 1.634 0 000 3.025.872.872 0 00.81-.565l.281.263a1.169 1.169 0 01-1.09.771 1.2 1.2 0 01-1.025-.554 2.377 2.377 0 01-.41-1.425zM61.253 60.182c0-1.093.634-1.978 1.417-1.978s1.417.886 1.417 1.978-.634 1.978-1.417 1.978a1.21 1.21 0 01-1.013-.564 2.381 2.381 0 01-.404-1.414zm2.452 0c-.025-.789-.5-1.4-1.064-1.38s-1.013.675-1 1.465.468 1.424 1.034 1.425a.9.9 0 00.755-.437 1.78 1.78 0 00.28-1.072zM69.449 59.873v2.235h-.377v-2.185c0-.816-.294-1.24-.8-1.24a.829.829 0 00-.684.418 1.631 1.631 0 00-.237.988v2.017h-.377v-2.183c0-.816-.294-1.24-.805-1.24a.829.829 0 00-.684.418 1.631 1.631 0 00-.237.988v2.017h-.377v-3.853h.359v.706a1.086 1.086 0 011.021-.739 1.012 1.012 0 01.989.822 1.187 1.187 0 011.1-.822.928.928 0 01.829.465 1.871 1.871 0 01.28 1.188z" fill="#e0e0e0"/><path d="M107.701 68.784a.723.723 0 00.511-.3c.336-.366.193-1.233.221-2.248 0-2.068 0-5.138-.023-9.03v-3.931a4.761 4.761 0 00-.037-.822.939.939 0 00-.373-.578.992.992 0 00-.6-.09H88.281l-78.524.045a.61.61 0 00-.52.366 1.664 1.664 0 00-.124.861v14.8a.9.9 0 00.34.642.472.472 0 00.281.1h30.134l35.3.039 23.8.051 6.469.032-6.469.032-23.8.051-35.3.039H9.73c-.421 0-.78-.424-.856-1-.032-.379 0-.642 0-1V53.115q-.01-.263 0-.527a1.434 1.434 0 01.156-.527.835.835 0 01.713-.507l78.524.051h19.12a.9.9 0 011.077.751 4.663 4.663 0 01.041.867v3.931c0 3.918 0 6.962-.023 9.03v1.368a1.4 1.4 0 01-.239.976.587.587 0 01-.542.256z" fill="#e0e0e0"/><path d="M12.49 81.914c0 1.1-.57 1.766-1.514 1.766h-.994v1.631h-.391v-5.138h1.38c.951-.029 1.519.63 1.519 1.741zm-.391 0c0-.829-.391-1.285-1.132-1.285h-.985v2.569h.985c.741 0 1.123-.475 1.123-1.285zM15.334 82.903v2.408h-.363v-.6a.978.978 0 01-.957.642 1.013 1.013 0 01-1.017-1.13c0-.668.276-1.1 1.077-1.1h.883v-.238c0-.642-.271-1.021-.791-1.021a1.2 1.2 0 00-.92.456l-.17-.392a1.474 1.474 0 011.132-.527.828.828 0 01.828.37 1.723 1.723 0 01.3 1.14zm-.377 1.24v-.642h-.874a.621.621 0 00-.713.694.687.687 0 00.7.732c.386.037.743-.281.883-.784zM15.964 84.868l.17-.411a1.4 1.4 0 00.989.43c.529 0 .745-.25.745-.642 0-1.008-1.8-.212-1.8-1.747a1.031 1.031 0 011.1-1.111 1.464 1.464 0 01.985.366l-.161.417a1.15 1.15 0 00-.824-.334c-.5 0-.722.276-.722.642 0 1.053 1.8.263 1.8 1.753a1.062 1.062 0 01-1.15 1.111 1.5 1.5 0 01-1.132-.474zM18.554 84.867l.166-.411a1.413 1.413 0 00.994.43c.529 0 .745-.25.745-.642 0-1.008-1.808-.212-1.808-1.747a1.035 1.035 0 011.1-1.111 1.489 1.489 0 01.985.366l-.166.417a1.147 1.147 0 00-.819-.334c-.506 0-.727.276-.727.642 0 1.053 1.8.263 1.8 1.753a1.061 1.061 0 01-1.146 1.111 1.5 1.5 0 01-1.124-.474zM25.561 81.426l-1.054 3.854h-.354l-.879-3.211-.879 3.211h-.352l-1.049-3.854h.359l.874 3.3.893-3.3h.322l.893 3.3.883-3.3zM25.763 83.364c0-1.092.638-1.974 1.42-1.972s1.415.889 1.414 1.98-.635 1.976-1.417 1.976a1.21 1.21 0 01-1.015-.566 2.385 2.385 0 01-.4-1.419zm2.452 0c-.028-.788-.5-1.4-1.067-1.374s-1.01.678-1 1.467.469 1.422 1.034 1.423a.9.9 0 00.757-.44 1.782 1.782 0 00.279-1.076zM30.764 81.377v.514h-.092a.833.833 0 00-.693.429 1.643 1.643 0 00-.227 1.01v1.978h-.377v-3.854h.359v.758a1.058 1.058 0 011.03-.835zM33.953 79.827v5.485h-.359v-.775a1.17 1.17 0 01-1.072.809c-.783 0-1.417-.886-1.417-1.978s.634-1.978 1.417-1.978a1.176 1.176 0 011.058.771v-2.334zm-.368 3.539c-.028-.789-.5-1.4-1.069-1.374s-1.011.682-1 1.471.473 1.421 1.038 1.418a.9.9 0 00.754-.442 1.783 1.783 0 00.277-1.073z" fill="#263238"/><path d="M16.755 100.944v.475h-2.622v-5.176h2.56v.475h-2.162v1.843h1.914v.462h-1.914v1.927zM20.155 99.166v2.254h-.373v-2.2a1.384 1.384 0 00-.2-.9.676.676 0 00-.634-.337.8.8 0 00-.719.386 1.616 1.616 0 00-.257 1.014v2.042h-.361v-3.891h.359v.713a1.112 1.112 0 011.058-.745.929.929 0 01.845.461 1.884 1.884 0 01.282 1.203zM22.644 101.182a.747.747 0 01-.589.276.627.627 0 01-.6-.292 1.29 1.29 0 01-.213-.838v-2.351h-.5v-.443h.5v-.854h.377v.854h.847v.443h-.847v2.319a.817.817 0 00.117.5.415.415 0 00.343.21.515.515 0 00.414-.2zM25.649 99.634h-2.328a1.709 1.709 0 00.345 1 .87.87 0 00.75.359.977.977 0 00.851-.507l.212.34a1.2 1.2 0 01-1.588.5 2.13 2.13 0 01-.947-1.848 2.332 2.332 0 01.379-1.41 1.152 1.152 0 011.985.011 2.321 2.321 0 01.364 1.4.441.441 0 00-.023.155zm-2.328-.385h1.974c-.035-.724-.467-1.287-.987-1.287s-.952.562-.987 1.286zM27.825 97.501v.507h-.092a.832.832 0 00-.691.427 1.64 1.64 0 00-.229 1.005v1.985h-.373v-3.886h.359v.758a1.041 1.041 0 011.026-.796zM32.752 99.473a2.356 2.356 0 01-.38 1.412 1.2 1.2 0 01-1 .572 1.167 1.167 0 01-1.058-.771v2.164h-.377v-5.318h.359v.764a1.142 1.142 0 012.074-.23 2.345 2.345 0 01.382 1.406zm-.373 0a1.669 1.669 0 00-.5-1.337.8.8 0 00-1.079 0 2.045 2.045 0 000 2.674.8.8 0 001.079 0 1.669 1.669 0 00.5-1.337zM35.6 99.011v2.41h-.363v-.642a.974.974 0 01-.957.642 1.013 1.013 0 01-1.017-1.13c0-.668.276-1.1 1.072-1.1h.883v-.238c0-.642-.267-1.028-.787-1.028a1.2 1.2 0 00-.92.462l-.17-.392a1.466 1.466 0 011.132-.527.834.834 0 01.837.384 1.74 1.74 0 01.29 1.159zm-.377 1.24v-.642h-.87c-.543 0-.718.3-.718.694a.69.69 0 00.7.732c.389.031.745-.285.887-.785zM36.235 100.976l.17-.417a1.378 1.378 0 00.989.437c.529 0 .745-.25.745-.642 0-1.008-1.8-.212-1.8-1.747a1.031 1.031 0 011.1-1.111 1.52 1.52 0 01.985.36l-.166.424a1.147 1.147 0 00-.819-.334c-.5 0-.727.276-.727.642 0 1.053 1.808.263 1.808 1.753a1.046 1.046 0 01-1.15 1.111 1.527 1.527 0 01-1.132-.475zM38.82 100.976l.17-.417a1.378 1.378 0 00.989.437c.529 0 .745-.25.745-.642 0-1.008-1.8-.212-1.8-1.747a1.031 1.031 0 011.1-1.111 1.5 1.5 0 01.985.36l-.161.424a1.161 1.161 0 00-.824-.334c-.5 0-.722.276-.722.642 0 1.053 1.8.263 1.8 1.753a1.046 1.046 0 01-1.15 1.111 1.534 1.534 0 01-1.132-.476zM45.827 97.534l-1.072 3.886h-.354l-.879-3.211-.879 3.211h-.354l-1.049-3.886h.363l.87 3.3.9-3.3h.322l.888 3.3.883-3.3zM46.034 99.474c0-1.092.638-1.974 1.42-1.972s1.415.889 1.414 1.98-.635 1.976-1.417 1.976a1.21 1.21 0 01-1.015-.566 2.384 2.384 0 01-.402-1.418zm2.448 0c-.028-.789-.5-1.4-1.069-1.374s-1.011.682-1 1.471.473 1.421 1.038 1.418a.9.9 0 00.754-.442 1.783 1.783 0 00.277-1.074zM51.035 97.501v.507h-.092a.832.832 0 00-.691.427 1.64 1.64 0 00-.229 1.005v1.985h-.373v-3.886h.36v.758a1.041 1.041 0 011.025-.796zM54.223 95.934v5.485h-.359v-.777a1.177 1.177 0 01-1.077.809c-.783 0-1.417-.886-1.417-1.978s.634-1.978 1.417-1.978a1.159 1.159 0 011.058.771v-2.338zm-.368 3.539c-.028-.788-.5-1.4-1.067-1.374s-1.01.678-1 1.467.469 1.422 1.034 1.423a.908.908 0 00.755-.442 1.788 1.788 0 00.278-1.074z" fill="#e0e0e0"/><path d="M85.241 96.718v2.03h1.914v.475h-1.914v2.2h-.4v-5.18h2.544v.475zM87.748 99.474c0-1.091.637-1.973 1.419-1.972s1.415.885 1.415 1.976-.631 1.977-1.412 1.98a1.208 1.208 0 01-1.018-.563 2.383 2.383 0 01-.4-1.421zm2.452 0c-.028-.789-.5-1.4-1.069-1.374s-1.011.682-1 1.471.473 1.421 1.038 1.418a.9.9 0 00.754-.442 1.783 1.783 0 00.277-1.074zM92.75 97.501v.507h-.087a.832.832 0 00-.691.427 1.641 1.641 0 00-.229 1.005v1.985h-.377v-3.886h.363v.758a1.042 1.042 0 011.021-.796zM95.979 97.534v3.41c0 1.336-.46 1.927-1.38 1.927a1.644 1.644 0 01-1.3-.6l.193-.4a1.39 1.39 0 001.095.533c.7 0 1.026-.45 1.026-1.407v-.5a1.176 1.176 0 01-1.086.758 1.307 1.307 0 01-1.237-.909 2.544 2.544 0 010-1.951 1.307 1.307 0 011.237-.909 1.193 1.193 0 011.1.777v-.745zm-.363 1.843a1.6 1.6 0 00-.626-1.4.846.846 0 00-1.165.284 1.915 1.915 0 00-.249 1.613 1.13 1.13 0 00.977.929.859.859 0 00.762-.392 1.72 1.72 0 00.3-1.053zM96.743 99.474c0-1.092.638-1.974 1.42-1.972s1.415.889 1.414 1.98-.635 1.976-1.417 1.976a1.21 1.21 0 01-1.015-.566 2.384 2.384 0 01-.4-1.419zm2.448 0c-.028-.789-.5-1.4-1.069-1.374s-1.011.682-1 1.471.473 1.421 1.038 1.418a.9.9 0 00.76-.437 1.781 1.781 0 00.28-1.078zM101.803 101.182a.739.739 0 01-.589.276.632.632 0 01-.6-.3 1.3 1.3 0 01-.215-.835v-2.351h-.5v-.443h.52v-.854h.377v.854h.847v.443h-.847v2.319a.816.816 0 00.117.5.415.415 0 00.343.21.513.513 0 00.409-.2zM104.104 97.566a.821.821 0 00-.856-.9 1.1 1.1 0 00-1.008.6l-.281-.3a1.435 1.435 0 011.316-.764 1.169 1.169 0 011.219 1.285c0 1.285-.971 1.323-.971 2.376h-.391c-.012-1.218.972-1.327.972-2.297zm-1.049 3.507a.458.458 0 01.08-.272.232.232 0 01.2-.107.236.236 0 01.2.106.463.463 0 01.083.273c0 .214-.127.385-.281.385a.237.237 0 01-.2-.106.47.47 0 01-.086-.28z" fill="#ffc107"/><path d="M107.701 108.073a.723.723 0 00.511-.308c.336-.36.193-1.233.221-2.241 0-2.075 0-5.138-.023-9.037v-3.931a4.687 4.687 0 00-.037-.816.975.975 0 00-.373-.584 1.042 1.042 0 00-.6-.09H88.281l-78.524.051a.6.6 0 00-.52.366 1.655 1.655 0 00-.124.861v14.836a.923.923 0 00.34.642.518.518 0 00.281.1h65.435l23.8.051-23.8.051-35.3.039H9.73c-.419 0-.778-.42-.856-1-.032-.385 0-.642 0-1.008V92.383q-.01-.263 0-.527a1.462 1.462 0 01.156-.533.827.827 0 01.713-.5l78.524.045h19.12a1.115 1.115 0 01.649.109 1.1 1.1 0 01.428.681 4.594 4.594 0 01.041.861v3.931c0 3.918 0 6.962-.023 9.037v1.362a1.369 1.369 0 01-.248.906.644.644 0 01-.534.321z" fill="#e0e0e0"/><path d="M48.753 170.007l.156-.424a1.549 1.549 0 001.219.642.877.877 0 001-.912c0-1.419-2.3-.552-2.3-2.466a1.3 1.3 0 011.38-1.413 1.667 1.667 0 011.146.456l-.129.437a1.564 1.564 0 00-1.017-.43.883.883 0 00-.98.938c0 1.419 2.3.565 2.3 2.447a1.3 1.3 0 01-1.38 1.413 1.712 1.712 0 01-1.395-.688zM52.199 165.51c0-.209.126-.376.276-.372s.261.177.258.381-.124.366-.27.364-.264-.168-.264-.372zm.083 1.227h.377v3.854h-.377zM56.259 168.368v2.28h-.373v-2.2a1.384 1.384 0 00-.2-.9.676.676 0 00-.634-.337.8.8 0 00-.719.386 1.616 1.616 0 00-.257 1.014v2.042h-.373v-3.858h.359v.642a1.116 1.116 0 011.058-.745.924.924 0 01.858.457 1.886 1.886 0 01.281 1.219zM59.877 166.738v3.41c0 1.336-.46 1.927-1.38 1.927a1.644 1.644 0 01-1.3-.6l.193-.4a1.39 1.39 0 001.095.533c.7 0 1.026-.45 1.026-1.407v-.495a1.185 1.185 0 01-1.086.751 1.307 1.307 0 01-1.237-.909 2.544 2.544 0 010-1.952 1.307 1.307 0 011.237-.909 1.2 1.2 0 011.1.777v-.745zm-.368 1.843a1.6 1.6 0 00-.627-1.4.846.846 0 00-1.165.287 1.916 1.916 0 00-.246 1.616 1.126 1.126 0 00.981.924.853.853 0 00.755-.386 1.706 1.706 0 00.302-1.041zM64.823 166.737v3.854h-.359v-.713a1.082 1.082 0 01-1 .751.932.932 0 01-.871-.446 1.9 1.9 0 01-.3-1.224v-2.254h.377v2.2c0 .822.3 1.246.833 1.246a.816.816 0 00.7-.406 1.627 1.627 0 00.244-1.007v-2.033zM68.683 168.677a2.357 2.357 0 01-.38 1.412 1.2 1.2 0 01-1 .572 1.176 1.176 0 01-1.058-.771v2.164h-.377v-5.318h.363v.764a1.172 1.172 0 011.072-.8 1.188 1.188 0 011 .566 2.345 2.345 0 01.382 1.406zm-.377 0c-.025-.793-.5-1.411-1.071-1.387s-1.017.682-1.008 1.476.474 1.429 1.043 1.427a.9.9 0 00.766-.434 1.791 1.791 0 00.288-1.081z" fill="#263238"/><path d="M107.702 176.994a.723.723 0 00.511-.3c.336-.366.193-1.24.221-2.248 0-2.074 0-5.138-.023-9.037v-3.931a4.687 4.687 0 00-.037-.816.975.975 0 00-.373-.584 1.042 1.042 0 00-.6-.09h-19.12l-78.524.051a.61.61 0 00-.52.366 1.655 1.655 0 00-.124.861v14.83a.909.909 0 00.34.642.472.472 0 00.281.1h30.134l35.3.032 23.8.058h6.469l-6.469.032-23.8.051-35.3.039H9.731a.721.721 0 01-.386-.135 1.233 1.233 0 01-.46-.867c-.032-.385 0-.642 0-1.008v-13.736q-.01-.263 0-.527a1.462 1.462 0 01.156-.533.827.827 0 01.713-.5l78.524.045h19.12a1.115 1.115 0 01.649.109 1.1 1.1 0 01.428.681 4.594 4.594 0 01.041.861v3.931c0 3.918 0 6.962-.023 9.037v1.362a1.361 1.361 0 01-.248.906.641.641 0 01-.543.321z" fill="#263238"/><rect width="99.471" height="17.084" rx="8.542" transform="translate(8.985 128.08)" fill="#ffc107"/><path d="M51.118 133.584h.391v4.7h2.079v.475h-2.47zM53.832 136.814c0-1.092.633-1.977 1.415-1.978s1.417.882 1.419 1.974-.63 1.979-1.412 1.982a1.207 1.207 0 01-1.016-.561 2.381 2.381 0 01-.405-1.417zm2.452 0c-.028-.789-.5-1.4-1.069-1.374s-1.011.682-1 1.471.473 1.421 1.038 1.418a.9.9 0 00.754-.442 1.784 1.784 0 00.277-1.074zM60.011 134.868v3.417c0 1.336-.46 1.927-1.38 1.927a1.618 1.618 0 01-1.3-.6l.193-.4a1.382 1.382 0 001.095.533c.7 0 1.026-.45 1.026-1.413v-.495a1.185 1.185 0 01-1.086.751c-.744 0-1.348-.842-1.348-1.882s.6-1.882 1.348-1.882a1.186 1.186 0 011.1.777v-.751zm-.368 1.85a1.6 1.6 0 00-.627-1.4.846.846 0 00-1.165.287 1.916 1.916 0 00-.246 1.616 1.126 1.126 0 00.981.924.853.853 0 00.755-.386 1.706 1.706 0 00.3-1.04zM62.362 133.641c0-.213.124-.385.276-.385s.276.173.276.385-.124.385-.276.385-.276-.172-.276-.385zm.083 1.227h.377v3.892h-.377zM66.434 136.506v2.254h-.377v-2.2a1.393 1.393 0 00-.2-.9.682.682 0 00-.634-.341.8.8 0 00-.721.388 1.618 1.618 0 00-.255 1.018v2.042h-.373v-3.892h.359v.719a1.107 1.107 0 011.058-.745.927.927 0 01.855.453 1.887 1.887 0 01.29 1.211z" fill="#fff"/></g><path d="M9.934 241.188l-.593 4.721.5.154c2.245.642 11.442 3.154 13.024 2.839 1.767-.353-4.96-4.046-4.96-4.046l.212-2z" fill="#ffc107"/><path d="M12.329 246.435a4.942 4.942 0 00-.778-2.665 2.565 2.565 0 00-1.84-1.246l-.359 3.211z" fill="#fff" opacity=".5"/><path d="M21.163 246.827s2.333 1.516 1.969 2.01-9.73-1.529-13.8-2.929l.041-.25 10.9 2.492s.43-1.394.89-1.323z" fill="#fff" opacity=".5"/><path d="M9.257 245.62a.4.4 0 00.138.051l.4.122 1.481.411c1.251.34 2.986.771 4.9 1.188s3.681.739 4.937.951l1.5.238.409.058h.143l-.143-.039-.4-.077-1.5-.283c-1.265-.238-3.009-.578-4.927-1s-3.681-.835-4.909-1.143l-1.486-.366-.4-.1z" fill="#263238"/><path d="M20.266 248.323a5.73 5.73 0 01.391-.931 3.992 3.992 0 01.593-.687 1.136 1.136 0 00-.672.6 1.95 1.95 0 00-.312 1.018zM18.039 246.088a2.231 2.231 0 00.308-.385 1.325 1.325 0 00.23-.475c-.018-.026-.161.148-.308.385a1.326 1.326 0 00-.23.475zM17.428 245.453a1.065 1.065 0 00.322-.206c.161-.148.276-.289.262-.321s-.156.058-.317.206-.281.289-.267.321zM17.069 243.487a.779.779 0 00.46.3.613.613 0 00.506 0 2.367 2.367 0 00-.46-.154 2.3 2.3 0 00-.506-.148z" fill="#263238"/><path d="M18.426 245.151a1.28 1.28 0 00.529.109 2.414 2.414 0 00.58-.051 1.288 1.288 0 00.34-.116.36.36 0 00.156-.2.385.385 0 00-.046-.315.782.782 0 00-1.238.135 1.483 1.483 0 00-.23.456.489.489 0 00-.032.2 2.123 2.123 0 01.308-.578.876.876 0 01.5-.308.638.638 0 01.621.193.217.217 0 01-.078.289 1.121 1.121 0 01-.313.116 2.465 2.465 0 01-.566.077c-.324-.007-.526-.007-.531-.007z" fill="#263238"/><path d="M18.559 245.215a1.036 1.036 0 00.12-.495 1.647 1.647 0 00-.087-.572.628.628 0 00-.4-.469.19.19 0 00-.144.094.363.363 0 00-.054.208 1.17 1.17 0 00.051.353 2.711 2.711 0 00.2.495c.143.263.262.379.271.366s-.092-.154-.212-.417a3.3 3.3 0 01-.17-.495c-.055-.167-.074-.456.06-.462s.248.225.313.385a1.7 1.7 0 01.1.514 3.486 3.486 0 01-.048.495zM9.772 242.526a1.675 1.675 0 01.6.161 2.7 2.7 0 011.238 1.047 4.51 4.51 0 01.644 1.811c.069.514.046.848.064.848a1.008 1.008 0 00.028-.231 4.756 4.756 0 00-.023-.642 4.3 4.3 0 00-.637-1.894 2.577 2.577 0 00-1.3-1.047 1.6 1.6 0 00-.46-.077.335.335 0 00-.154.024zM13.48 245.568a3.931 3.931 0 001.178.424 3.333 3.333 0 001.215.122c0-.039-.538-.109-1.2-.263a10.918 10.918 0 00-1.193-.283z" fill="#263238"/><path d="M11.871 245.217a1.54 1.54 0 00.06.353 1.044 1.044 0 00.078.347c.028.006.064-.173 0-.385s-.116-.342-.138-.315zM11.387 244.034a.592.592 0 00.087.289c.087.135.147.231.17.212s0-.154-.087-.3-.147-.227-.17-.201zM10.582 243.37c0 .039.11.058.225.148s.189.193.212.173 0-.2-.166-.3-.271-.064-.271-.021zM9.979 243.006a.339.339 0 00.092.154c.064.051.129.064.143.032s-.028-.1-.092-.154-.133-.071-.143-.032z" fill="#263238"/><path d="M53.092 245.222L53.4 250l.515-.032c2.3-.18 11.63-1.13 13.1-2.01 1.638-.983-5.521-2.094-5.521-2.094l-.17-2z" fill="#ffc107"/><path d="M56.381 249.448a4.139 4.139 0 00-1.247-2.293 2.168 2.168 0 00-2-.539l.258 3.211z" fill="#fff" opacity=".5"/><path d="M64.998 246.577s2.535.6 2.273 1.22-9.661 2.068-13.871 2.2v-.257l11.009-1.574s.111-1.486.589-1.589z" fill="#fff" opacity=".5"/><path d="M53.262 249.756h.143l.409-.032 1.509-.141c1.27-.135 3.023-.347 4.96-.642s3.681-.642 4.941-.88l1.486-.34.4-.1a.836.836 0 00.138-.039h-.143l-.4.135-1.5.276c-1.261.231-3.009.539-4.941.835s-3.681.527-4.955.687l-1.486.128-.409.051z" fill="#263238"/><path d="M64.409 248.362a5.968 5.968 0 01.2-1.04 5.172 5.172 0 01.46-.88 1.509 1.509 0 00-.538.822 2.028 2.028 0 00-.122 1.098zM61.829 247.007a1.609 1.609 0 00.225-.488 1.647 1.647 0 00.133-.539 2.765 2.765 0 00-.225.482 1.451 1.451 0 00-.133.545zM61.12 246.615a.985.985 0 00.271-.315 1.019 1.019 0 00.193-.411c-.018-.026-.143.116-.271.315a1.019 1.019 0 00-.193.411zM60.614 245.598a.668.668 0 00.437 0 .741.741 0 00.423-.128.669.669 0 00-.46 0 .745.745 0 00-.4.128zM60.407 244.849a.9.9 0 00.985-.051 1.991 1.991 0 00-.492.032 1.9 1.9 0 00-.493.019z" fill="#263238"/><path d="M62.026 245.953a1.085 1.085 0 00.529-.083 2.409 2.409 0 00.552-.263 1.493 1.493 0 00.308-.231.45.45 0 00.115-.25.364.364 0 00-.106-.289c-.44-.216-.927.028-1.169.584a1.546 1.546 0 00-.133.52.605.605 0 000 .206 2.585 2.585 0 01.193-.642 1.071 1.071 0 01.419-.482.613.613 0 01.635-.039.227.227 0 010 .308 1.507 1.507 0 01-.281.225 3.071 3.071 0 01-.534.283c-.326.102-.528.134-.528.153z" fill="#263238"/><path d="M62.172 245.973a1.024 1.024 0 000-.527 1.327 1.327 0 00-.189-.514.486.486 0 00-.46-.308.337.337 0 00-.138.366 1.01 1.01 0 00.12.315 2.072 2.072 0 00.285.411.766.766 0 00.327.25 4 4 0 01-.281-.328 2.547 2.547 0 01-.258-.411c-.087-.141-.156-.417-.028-.469s.281.122.373.257a1.425 1.425 0 01.189.456 4.067 4.067 0 01.06.502zM53.179 246.577a2.546 2.546 0 01.612-.064 2.688 2.688 0 012.351 2.068c.166.475.2.809.221.8s0-.09 0-.238a3.54 3.54 0 00-.138-.6 2.611 2.611 0 00-2.415-2.126 1.429 1.429 0 00-.46.083.489.489 0 00-.171.077zM57.329 248.163a3.515 3.515 0 001.219 0 3.766 3.766 0 001.2-.321 11.526 11.526 0 00-1.205.18c-.667.09-1.214.096-1.214.141z" fill="#263238"/><path d="M55.714 248.407a2.014 2.014 0 00.124.315c.069.161.11.315.143.308s.028-.186-.055-.379-.198-.289-.212-.244zM55.02 247.443a.561.561 0 00.143.25c.1.109.184.167.2.141s-.046-.141-.138-.25-.187-.173-.205-.141zM54.114 247.078c0 .039.115 0 .244.058s.221.122.239.09-.064-.18-.221-.225a.25.25 0 00-.262.077zM53.474 246.962c0 .039.046.09.115.116a.244.244 0 00.143 0 .219.219 0 00-.115-.116c-.073-.025-.138-.038-.143 0zM55.494 64.034c-.658-4.913-4.545-7.643-6.064-12.2-.593-1.76-.805-3.744-1.454-5.466-1.53-3.75-4.783-5.4-7.679-3.886l-.244.527c1.573 4.611 3.142 7.778 4.711 12.383a21.208 21.208 0 011.251 5.042 6.951 6.951 0 01-1.182 4.875c-.791.912-1.84 1.188-2.714 1.985a7.464 7.464 0 00-1.734 5.742 12.356 12.356 0 002.047 5.78c1.012 1.548 2.613 2.871 3.947 1.927a7.718 7.718 0 001.592-2.242 23.914 23.914 0 013.681-3.963 13.093 13.093 0 003.842-10.504z" fill="#263238"/><path d="M89.327 86.872c-.883 1.124-5.691 6.763-5.691 6.763l-4.771-6.063c.124-.495 1.293-3.295 1.426-3.995a7.361 7.361 0 00.12-1.856 11.583 11.583 0 00-.294-2.286c-.212-.642.258-1.323.663-1s1.012 2.107.994 4.406 6.441-2.98 7.361-1.689z" fill="#ffbe9d"/><path d="M48.307 77.823l15.826 26.442 14.538-18.343 6.34 8.632s-18.242 28.022-21.025 27.823-12.238-8.927-12.238-8.927z" fill="#ffc107"/><path d="M84.234 73.886c-.131-.061-.273.032-.322.212l-4.32 15.145a.677.677 0 00.207.732l5.107 3.4a.308.308 0 00.323.017.517.517 0 00.233-.313l4.835-15.7a.791.791 0 000-.459.508.508 0 00-.241-.312z" fill="#263238"/><path d="M84.096 74.977L80.139 88.49l5.351 3.385 4.053-14.329z" fill="#f5f5f5"/><path d="M82.555 98.49a7.689 7.689 0 01-1.127-1.111c-.667-.739-1.56-1.8-2.494-3.07s-1.716-2.492-2.264-3.4a9.507 9.507 0 01-.824-1.535 13.171 13.171 0 01.952 1.381c.575.867 1.38 2.055 2.3 3.314s1.794 2.351 2.434 3.128a12.239 12.239 0 011.023 1.293zM78.002 88.504a2.031 2.031 0 00-.143.726 1.068 1.068 0 00.235.642.458.458 0 00.616.024.938.938 0 00.3-.749 1.016 1.016 0 00-.29-.642.842.842 0 00-.524-.193.257.257 0 01.152-.109.506.506 0 01.46.1 1.13 1.13 0 01.423.777 1.276 1.276 0 01-.4 1.068.615.615 0 01-.86-.06 1.32 1.32 0 01-.271-.9 1.2 1.2 0 01.17-.6c.065-.071.132-.097.132-.084zM63.517 111.991a4.385 4.385 0 01-.235-1.15 14.347 14.347 0 01.46-5.658 3.728 3.728 0 01.414-1.047 30.891 30.891 0 00-.686 3.854 32.624 32.624 0 00.047 4.001z" fill="#263238"/><path d="M65.79 111.786a3.566 3.566 0 01-.509-.986 16.1 16.1 0 01-1.169-5.626 4.838 4.838 0 01.051-1.22 45.83 45.83 0 00.52 4.04q.469 1.945 1.109 3.8z" fill="#263238"/><path d="M84.188 77.495l-2.618 9.088 3.92 2.241 2.733-9.289z" fill="#ebebeb"/><path d="M82.972 85.097l2.318 1.353a.55.55 0 01.176.615l-.045.149c-.071.238-.268.351-.438.25l-2.316-1.349a.55.55 0 01-.177-.615l.04-.146c.072-.239.269-.352.442-.257z" fill="#ffc107"/><path d="M84.477 78.98l2.906 1.528-.158.59-2.904-1.527z" fill="#455a64"/><path d="M83.777 80.87l3.21 1.688-.313 1.164-3.212-1.688zM83.245 82.73l3.21 1.688-.313 1.164-3.212-1.688z" fill="#e0e0e0"/><path d="M89.157 81.15c-.741.167-1.642.27-2.383.443a1.139 1.139 0 00-.6.276.812.812 0 00-.143.79c.115.289.409.315.649.308l1.633-.077a6.44 6.44 0 00-2.056.482 1.03 1.03 0 00-.653.88.757.757 0 00.543.758 4.874 4.874 0 00.856 0s1.118 0 1.164.231a19.719 19.719 0 00-2.3.289c-.193 0-.281.385-.327.642a.72.72 0 00.2.681.459.459 0 00.276.039l2.705-.116" fill="#ffbe9d"/><path d="M42.713 76.236a7.288 7.288 0 015.6 1.58c2.084 1.927 9.4 31.175 9.114 39.859s.511 23.995 1.79 30.3 2.245 61.015-7.821 87.078l-18.749-3.673 5.861-70.283-.6-63.757z" fill="#ffc107"/><path d="M41.631 76.237a7.3 7.3 0 015.6 1.58c2.084 1.927 9.395 31.175 9.114 39.859s.506 23.995 1.79 30.3 2.245 61.015-7.821 87.078l-17.134-3.673 4.251-70.283-.626-63.751z" opacity=".3"/><path d="M34.74 74.899s-10.31-1.548-7.554 19.024l2.65 21.644 16.834 14.22c2.273.854.34-14.772 3.763-22a11.612 11.612 0 001.284-5.973c.327-4.721-2.383-7.662-2.76-12.434-.423-6.911-.4-10.739-2.558-11.516l-11.654-2.965" fill="#455a64"/><path d="M49.144 87.726a8.751 8.751 0 000 3.031 15.185 15.185 0 00.92 3.07 31.969 31.969 0 011.316 3.712 16.3 16.3 0 01.069 7.457 13.2 13.2 0 01-.653 2.087 3.738 3.738 0 01-.34.694 24.234 24.234 0 00.833-2.852 16.748 16.748 0 00-.133-7.27 34.762 34.762 0 00-1.284-3.68 14.726 14.726 0 01-.874-3.166 7.957 7.957 0 01-.028-2.286 4.553 4.553 0 01.124-.6c.017-.127.041-.204.05-.197z" fill="#263238"/><path d="M43.982 76.378c-.244-3.539-.46-7.27-.46-7.27s3.22-1.207 3.469-7.251c.244-5.78-1-15.8-1-15.8v-.507c-4.891-2.03-10.678-1.927-13.659 3.764l2.3 28.709c.271 3.333 2.535 5.671 5.088 5.241 2.606-.431 4.493-3.514 4.262-6.886z" fill="#ffbe9d"/><path d="M46.007 53.346a.767.767 0 01-.46.841.413.413 0 01-.4-.125.812.812 0 01-.214-.485.767.767 0 01.46-.841.413.413 0 01.4.125.812.812 0 01.214.485zM46.007 52.504c-.064.109-.506-.257-1.095-.18s-.989.559-1.063.462 0-.225.2-.443a1.329 1.329 0 01.842-.495 1.117 1.117 0 01.879.27.762.762 0 01.237.386zM39.879 54.457a.767.767 0 01-.46.841.417.417 0 01-.406-.136.832.832 0 01-.206-.506.767.767 0 01.46-.841.417.417 0 01.406.136.832.832 0 01.206.506zM39.874 53.648c-.06.109-.506-.263-1.09-.18s-.989.552-1.063.462.023-.231.2-.45a1.324 1.324 0 01.839-.491 1.121 1.121 0 01.879.263c.193.178.267.345.235.396zM42.442 59.442a3.128 3.128 0 01.92-.366c.147-.045.285-.109.3-.25a1.294 1.294 0 00-.143-.61l-.557-1.535a34.67 34.67 0 01-1.293-4.04 31.8 31.8 0 011.523 3.886l.538 1.548a1.605 1.605 0 01.138.809.49.49 0 01-.225.34.669.669 0 01-.253.084 2.605 2.605 0 01-.948.134z" fill="#263238"/><path d="M43.532 69.107a8.242 8.242 0 01-5.857-1.342 4.947 4.947 0 005.9 2.749z" fill="#eb996e"/><path d="M42.327 61.465a.887.887 0 00-.989-.417 1.019 1.019 0 00-.635.591 1.149 1.149 0 000 .983.572.572 0 00.791.167 2.473 2.473 0 00.708-.732.943.943 0 00.152-.263.376.376 0 00-.023-.308" fill="#ffc107"/><path d="M40.749 60.25c.1 0 .161.867.75 1.426s1.265.366 1.279.488-.138.2-.428.244a1.242 1.242 0 01-1.063-.353 2.129 2.129 0 01-.589-1.207c-.05-.367.009-.598.051-.598zM23.788 157.27l-6.538 37.611S9.459 239.916 9.202 241.1l-.244 1.4 10.982 1.156 19.028-83.534z" fill="#263238"/><path d="M43.56 183.673c1.776 11.991 8.281 62.3 8.281 62.3l11.138-1.6-6.335-64.168a28.5 28.5 0 00-.727-4.92l-10.412-43.577-19.58-17.386c-.193 0-3.17 11.233-2.76 19.017a25.317 25.317 0 002.517 9.692c1.247 2.537 2.981 6.076 3.368 6.9.62 1.308 14.51 33.742 14.51 33.742z" fill="#263238"/><path d="M21.288 129.431q-.8 4.066-1.325 8.221c-1.251 10.077-4.435 34.6-6.5 41.1-2.618 8.221-6.869 39.274-5.562 44.958s29.77 11.421 29.77 11.421 1.633-37.219 3.271-46.577 5.061-29.917 5.558-42.017.327-33.109-2.452-46.121-9.174-26.685-9.174-26.685-5.466 2.107-7.329 5.138a18.039 18.039 0 00-2.3 7.6c-.028 3.706-1.261 21.323-2.084 31.561-.258 2.92-1.183 7.923-1.873 11.401z" fill="#ffc107"/><path d="M46.527 145.922a.759.759 0 010-.186v-.546c0-.5-.041-1.2-.074-2.094q-.106-3.872-.529-7.707a34.169 34.169 0 00-1-5.138 22.542 22.542 0 00-2.195-5.228c-.943-1.689-2.061-3.327-3.147-5.138a32 32 0 01-1.56-2.864 19.655 19.655 0 01-1.21-3.308 14.827 14.827 0 01-.285-7.225 16.843 16.843 0 011.2-3.044 7.19 7.19 0 00.46-1.477 3.06 3.06 0 00.041-.764 1.95 1.95 0 00-.184-.687 1.8 1.8 0 00-.856-.861 11.672 11.672 0 01-1.054-.539 2.4 2.4 0 01-.86-1 4.555 4.555 0 01-.368-1.419 13.2 13.2 0 01.051-2.807l.262-2.531c.34-3.211.612-5.819.805-7.643.1-.886.175-1.58.23-2.081l.069-.533q.01-.094.028-.186a.813.813 0 010 .186 2.824 2.824 0 01-.041.546c-.046.5-.106 1.195-.189 2.081a9570.14 9570.14 0 00-.727 7.662c-.078.809-.161 1.657-.248 2.537a13.088 13.088 0 00-.041 2.723 4.188 4.188 0 00.345 1.285 2.093 2.093 0 00.782.9c.317.206.676.334 1.04.52a2.054 2.054 0 01.966.976 2.442 2.442 0 01.216.816 3.452 3.452 0 01-.046.873 7.027 7.027 0 01-.5 1.567 16.856 16.856 0 00-1.178 2.993 14.438 14.438 0 00.29 7 22.734 22.734 0 002.724 6.076c1.077 1.8 2.195 3.443 3.142 5.138a23.3 23.3 0 012.195 5.4 34.066 34.066 0 01.98 5.177c.272 2.553.425 5.127.46 7.707q0 1.342.028 2.1v.546c-.017.132-.022.197-.022.197zM42.897 151.008a.447.447 0 01.133-.206.588.588 0 01.538-.128.9.9 0 01.616.758 1.39 1.39 0 01-.348 1.325.654.654 0 01-1-.156 1.344 1.344 0 01-.2-1.111 1.1 1.1 0 01.34-.6c.115-.083.189-.083.193-.064a1.454 1.454 0 00-.368.732 1 1 0 00.184.816.479.479 0 00.732.1 1.022 1.022 0 00.257-.962.729.729 0 00-.437-.6.792.792 0 00-.64.096zM39.847 173.14a.45.45 0 01.138-.2.57.57 0 01.538-.135.912.912 0 01.617.758 1.39 1.39 0 01-.348 1.325.654.654 0 01-1-.156 1.356 1.356 0 01-.234-.9 1.186 1.186 0 01.367-.808c.115-.09.193-.09.193-.071a1.545 1.545 0 00-.368.732 1.016 1.016 0 00.189.816.512.512 0 00.731.1 1.125 1.125 0 00.258-.963.712.712 0 00-.46-.6.811.811 0 00-.616.1zM39.75 145.453a.983.983 0 010 .212q0 .244-.041.642c-.041.572-.106 1.381-.189 2.415-.175 2.1-.46 5.138-.842 8.876-.2 1.869-.46 3.911-.768 6.089a26.269 26.269 0 01-.662 3.34 4.41 4.41 0 01-.143.424 1.566 1.566 0 01-.23.366 2.508 2.508 0 01-.57.514 5.807 5.807 0 01-1.27.61 22.038 22.038 0 01-5.59.873 41.446 41.446 0 01-6.036-.1l-.258-.045a.406.406 0 01-.276-.276 2.664 2.664 0 01-.143-.732 13.112 13.112 0 01-.028-1.407c0-.925.083-1.83.156-2.723.152-1.792.35-3.532.557-5.222.414-3.378.87-6.557 1.32-9.467v-.109h.106a48.49 48.49 0 0010.89-2.64c1.293-.475 2.3-.906 2.986-1.195l.8-.34a1.672 1.672 0 01.258-.1l-.069.039-.2.1c-.179.1-.423.225-.764.385-.676.321-1.684.771-2.972 1.285a46.176 46.176 0 01-10.922 2.749l.092-.116a274.59 274.59 0 00-1.3 9.461c-.2 1.689-.4 3.43-.543 5.209a42.652 42.652 0 00-.156 2.7 12.078 12.078 0 00.028 1.355 2.563 2.563 0 00.11.6c.041.077.055.1.106.116l.244.039a41.053 41.053 0 006.008.1 21.8 21.8 0 005.521-.854 5.438 5.438 0 001.233-.584 1.783 1.783 0 00.842-1.15 25.946 25.946 0 00.662-3.276c.331-2.164.58-4.207.791-6.069.428-3.732.718-6.757.92-8.85l.235-2.415c.028-.257.046-.469.064-.642s.043-.187.043-.187z" fill="#263238"/><path d="M39.455 150.135a2.611 2.611 0 01-.547.4 18.69 18.69 0 01-1.555.893 22 22 0 01-10.9 2.524 10.088 10.088 0 01-1.679-.148 2.458 2.458 0 01-.612-.122 1.983 1.983 0 01.616 0c.4 0 .966.039 1.675.039a25.125 25.125 0 0010.844-2.518c.672-.321 1.21-.6 1.578-.8a2.542 2.542 0 01.58-.268z" fill="#263238"/><path d="M13.637 132.023l.041-.3c.032-.218.078-.507.138-.886.133-.784.327-1.927.57-3.378a700.642 700.642 0 012.273-12.357l1.652-8.5c.6-3.057 1.228-6.326 1.978-9.737a100.074 100.074 0 012.839-10.462q.9-2.683 2.038-5.2a19.962 19.962 0 011.274-2.473 6.185 6.185 0 011.734-1.927 2.236 2.236 0 012.227-.244 4.213 4.213 0 011.776 1.818 13.735 13.735 0 011.284 5.645c.235 3.854.46 7.592.676 11.143.423 7.1.805 13.487 1.127 18.857s.566 9.7.741 12.717c.083 1.49.147 2.653.189 3.462 0 .385.032.681.046.9q.006.154 0 .308a2.126 2.126 0 00-.032-.3c-.032-.2-.037-.52-.064-.9l-.235-3.455c-.193-3.019-.46-7.354-.814-12.71s-.736-11.76-1.182-18.85c-.221-3.552-.46-7.277-.69-11.137a13.369 13.369 0 00-1.233-5.472 3.962 3.962 0 00-1.661-1.7 2.038 2.038 0 00-2.047.225 6.013 6.013 0 00-1.661 1.863 19.157 19.157 0 00-1.251 2.408q-1.125 2.481-2.029 5.138a100.649 100.649 0 00-2.844 10.404c-.755 3.4-1.38 6.667-2 9.717s-1.169 5.9-1.679 8.491a983.98 983.98 0 00-2.346 12.331c-.267 1.452-.46 2.569-.612 3.365-.074.372-.124.642-.166.873s-.057.323-.057.323z" fill="#455a64"/><path d="M12.509 129.807c-.179 1-3.524 27.572-3.524 27.572l24.885 1.124 3.427-27.553z" fill="#263238"/><path d="M37.041 131.471a1.669 1.669 0 01-.225.238c-.147.148-.377.353-.672.642-.584.527-1.449 1.285-2.535 2.126s-2.4 1.85-3.892 2.839a24.337 24.337 0 01-2.388 1.439 6.148 6.148 0 01-2.76.565 10.287 10.287 0 01-5.245-1.914 20.021 20.021 0 01-3.681-3.365 40.607 40.607 0 01-2.208-2.749c-.248-.34-.46-.61-.57-.8a2.168 2.168 0 01-.184-.3 1.577 1.577 0 01.221.244c.152.2.354.443.6.751.52.642 1.27 1.586 2.25 2.659a20.1 20.1 0 003.681 3.25 10.235 10.235 0 005.116 1.824 6.054 6.054 0 002.7-.54 27.529 27.529 0 002.371-1.401c1.491-.976 2.806-1.927 3.9-2.768s1.969-1.541 2.572-2.03l.695-.565a.874.874 0 01.258-.148z" fill="#455a64"/><path d="M35.518 132.64c.064 0-.6 5.78-1.491 12.929s-1.661 12.877-1.725 12.877.6-5.78 1.491-12.922 1.66-12.897 1.725-12.884zM23.813 138.24c-.069.861-.133 1.728-.2 2.569a3.225 3.225 0 000 .816.717.717 0 00.386.572.548.548 0 00.552-.443 3.069 3.069 0 00.133-.931c.032-.925.069-1.85.106-2.768h-.81" fill="#455a64"/><path d="M28.938 77.239c2.024-.951 3.713 2.71 3.943 5.671a88.573 88.573 0 01.138 10.276 79.237 79.237 0 01-3.644 19.8l20.813 4.355-.764 11.175-26.32-3.943a6.333 6.333 0 01-4.546-3.861 11.7 11.7 0 01-.758-7.353c2.351-10.706 6.192-26.1 7.044-28.651 1.178-3.436 1.311-6.172 4.094-7.469z" fill="#ffc107"/><path d="M22.111 124.277h.14l.4.077 1.523.321c1.334.257 3.271.642 5.7 1.034 4.868.8 11.7 1.753 19.557 2.569l-.124.148.764-11.156.1.18-20.809-4.374h-.111l.037-.148c1.353-5.845 2.388-10.681 3-14.085.313-1.7.529-3.038.663-3.95l.152-1.04c.037-.231.06-.353.06-.353a3.5 3.5 0 01-.028.36c-.028.238-.064.591-.129 1.053a91.364 91.364 0 01-.612 3.969c-.584 3.417-1.592 8.272-2.926 14.13l-.083-.173 20.823 4.31h.11v.161c-.262 3.854-.52 7.6-.764 11.156v.161h-.11c-7.858-.861-14.695-1.856-19.562-2.717a127.672 127.672 0 01-5.7-1.13l-1.55-.372-.391-.1z" fill="#263238"/><path d="M45.326 128.016c.006-1.932.093-3.862.262-5.78q.129-2.909.506-5.78-.017 2.9-.267 5.78-.132 2.908-.5 5.78zM47.972 118.349a.152.152 0 01.156 0 .621.621 0 01.359.34 1.116 1.116 0 01.037.918.643.643 0 01-.731.469.891.891 0 01-.553-.816 1.163 1.163 0 01.216-.861c.3-.353.561-.231.547-.2a.955.955 0 00-.428.366.906.906 0 00-.12.642.68.68 0 00.382.552.472.472 0 00.5-.308.867.867 0 000-.642c-.14-.39-.365-.409-.365-.46z" fill="#263238"/><path d="M54.675 114.046l.948 13.764h4.812l1.15-13.764z" fill="#ebebeb"/><path d="M54.675 112.267a3.647 3.647 0 00-.46 1.818h7.821a2.528 2.528 0 00-.46-1.818z" fill="#455a64"/><path d="M55.562 111.002l-.262 1.362 5.893.064-.391-1.439zM54.573 117.489c0 .128.575 6.93.575 6.93h5.875l.557-6.93z" fill="#455a64"/><path d="M54.942 116.275l-.152 2.306 5.686.186s0 2.678-.575 3.481c0 0 .575 1.606-.064 2.5s-1.021.642-1.021.642.258 1.785-.382 2.235-8.934-.244-8.934-.244l.511-7.469 1.84-.225c.077-2.474 1.908-3.701 3.091-3.412z" fill="#ffbe9d"/><path d="M47.741 46.114a6 6 0 00-1.808-3.211 2.452 2.452 0 00-1.928-.552v-.195a2.448 2.448 0 00-3.1-1.586c-1.261.3-2.5 1.58-3.625 2.415-1.518 1.13-2.967 2.421-4.421 3.712a13.272 13.272 0 00-3.271 3.809 10.489 10.489 0 00-.952 5.973c.3 2.254 1.293 4.534.7 6.673-.4 1.419-1.38 2.312-2.052 3.532a7.606 7.606 0 00-.087 6.654 10.591 10.591 0 002.636 2.877 44.964 44.964 0 004.417 4.188c1.6 1.1 3.63 1.452 5.1.051s2.006-4.335 1.734-6.872a41.068 41.068 0 00-1.84-7.219 52.861 52.861 0 01-1.891-9.634 8.817 8.817 0 01.239-3.911 7.555 7.555 0 011.84-2.447 19.966 19.966 0 003.947-6.294 8.524 8.524 0 001.578 3.083 15.46 15.46 0 003.1 3.057 13.762 13.762 0 00-.317-4.1z" fill="#263238"/></svg>