<svg xmlns="http://www.w3.org/2000/svg" width="67.956" height="26.861" viewBox="0 0 67.956 26.861">
  <g id="logo-rtl" transform="translate(-8 -6.639)">
    <g id="ketabq" transform="translate(7.998 6.683)">
      <path id="Path_4903" data-name="Path 4903" d="M149.342,259.176a13.57,13.57,0,0,1-11.965-.058,13.222,13.222,0,0,1-4.224-3.371,13.43,13.43,0,0,1-.288-16.923,13.479,13.479,0,0,1,17.714-3.123,13.448,13.448,0,0,1,3.563,3.269,12.949,12.949,0,0,1,2.712,7.659,13.367,13.367,0,0,1-1.7,7.04c-.143.26-.219.2-.378.03q-1.549-1.686-3.113-3.354a.493.493,0,0,1-.12-.56,8.57,8.57,0,0,0-12.38-10.1,8.288,8.288,0,0,0-4.236,6.588,8.086,8.086,0,0,0,.844,4.615,8.647,8.647,0,0,0,9.784,4.509c.126-.028.246-.1.372.041C147.054,256.671,148.183,257.905,149.342,259.176ZM143.363,238a9.26,9.26,0,0,1,2.392.3,8.923,8.923,0,0,1,5.945,4.946,8.624,8.624,0,0,1,.469,6.409.522.522,0,0,0,.136.572q1.173,1.248,2.322,2.519c.2.224.3.22.438-.069A12.9,12.9,0,0,0,132.672,240a12.652,12.652,0,0,0-2.119,7.21,12.447,12.447,0,0,0,1.88,6.6,13.194,13.194,0,0,0,3.56,3.793,12.714,12.714,0,0,0,6.188,2.322,12.863,12.863,0,0,0,5.845-.768c.381-.139.39-.154.1-.468-.773-.84-1.552-1.675-2.322-2.518a.4.4,0,0,0-.447-.149,8.475,8.475,0,0,1-2.106.2,9.19,9.19,0,0,1-5.193-1.763,9.013,9.013,0,0,1-2.772-3.29,9.144,9.144,0,0,1,.834-9.465,9.056,9.056,0,0,1,7.247-3.7Z" transform="translate(-130 -233.72)" fill="#ffc107"/>
      <path id="Path_4904" data-name="Path 4904" d="M321.158,426.155a3.332,3.332,0,0,1-4.21,3.413,1.043,1.043,0,0,1-.493-.314q-3.694-4.009-7.4-8.015c-.244-.263-.241-.49,0-.7s.457-.156.67.075c2.336,2.538,4.692,5.057,7,7.617a1.529,1.529,0,0,0,1.558.5,2.385,2.385,0,0,0,1.937-2.641.946.946,0,0,0-.29-.542q-3.562-3.853-7.122-7.71c-.173-.186-.307-.363-.145-.62a.49.49,0,0,1,.808-.039c1.386,1.539,2.8,3.052,4.208,4.574.968,1.049,1.916,2.116,2.911,3.138A1.769,1.769,0,0,1,321.158,426.155Z" transform="translate(-295.554 -403.365)"/>
      <path id="Path_4905" data-name="Path 4905" d="M349.444,446.27c.165.012.244.131.334.23q3.267,3.538,6.532,7.08c.149.164.3.329.456.491.128.134.241.283.074.447s-.315.037-.439-.1l-2.071-2.236-4.9-5.308a.917.917,0,0,1-.188-.227C349.158,446.448,349.238,446.317,349.444,446.27Z" transform="translate(-332.882 -430.47)" fill="#ffc107"/>
      <path id="Path_4906" data-name="Path 4906" d="M339.394,455.64a.381.381,0,0,1,.282.158q3.522,3.819,7.045,7.632c.128.139.229.3.057.451s-.317.019-.439-.114l-7.023-7.6c-.1-.11-.212-.224-.132-.392A.237.237,0,0,1,339.394,455.64Z" transform="translate(-323.576 -439.142)" fill="#ffc107"/>
      <path id="Path_4907" data-name="Path 4907" d="M362.176,440.065a.237.237,0,0,1-.372.2,1.323,1.323,0,0,1-.24-.231l-6.838-7.4c-.051-.054-.1-.11-.149-.168a.251.251,0,1,1,.381-.327c.274.287.543.578.812.87l6.178,6.695C362.045,439.805,362.177,439.895,362.176,440.065Z" transform="translate(-337.779 -417.293)" fill="#ffc107"/>
      <path id="Path_4908" data-name="Path 4908" d="M332.021,467.749a.254.254,0,0,1-.144.275.249.249,0,0,1-.3-.074q-.348-.362-.687-.732-3.128-3.387-6.251-6.777c-.143-.156-.455-.332-.2-.574.283-.269.428.086.577.246q3.4,3.665,6.788,7.342C331.892,467.553,332.011,467.635,332.021,467.749Z" transform="translate(-309.863 -442.963)" fill="#ffc107"/>
    </g>
    <g id="Group_495" data-name="Group 495" transform="translate(-167 -1667.629)">
      <path id="Path_4915" data-name="Path 4915" d="M256.981,113.816a.542.542,0,0,1,.315.109,1.026,1.026,0,0,1,.331.778,1.213,1.213,0,0,1-.084.449.792.792,0,0,1-.242.333.537.537,0,0,1-.321.116H256.3a3.732,3.732,0,0,1-1.314,2.124,2.288,2.288,0,0,1-.678.362,1.449,1.449,0,0,1-.72.054.893.893,0,0,1-.329-.134.452.452,0,0,1-.226-.329.432.432,0,0,1,.131-.326,1.346,1.346,0,0,1,.308-.246c.116-.065.205-.109.263-.137a2.3,2.3,0,0,0,1.233-1.375,1.482,1.482,0,0,1-1.007-.434,2.7,2.7,0,0,1-.039-3.462,1.438,1.438,0,0,1,.944-.506,1.309,1.309,0,0,1,1.314.673,2.965,2.965,0,0,1,.376,1.472v.481Zm-1.84.5a.516.516,0,0,0,.5-.434,1.087,1.087,0,0,0-.095-.767.661.661,0,0,0-.654-.362.529.529,0,0,0-.389.26.981.981,0,0,0-.126.615.769.769,0,0,0,.263.488.735.735,0,0,0,.5.2Z" transform="translate(-44.002 1576.894)"/>
      <path id="Path_4916" data-name="Path 4916" d="M266.722,127.049a2.008,2.008,0,0,1,.938.315c.2.152.247.307.137.463a1.492,1.492,0,0,1-.915.362c-.263.047-.591.1-.98.156a7.266,7.266,0,0,1-1.051.087h-.1a.869.869,0,0,1-.415-.069c-.105-.054-.158-.2-.158-.441a.765.765,0,0,1,.342-.644,1.547,1.547,0,0,1,.733-.232,6.446,6.446,0,0,1,.77-.029h.473A1.483,1.483,0,0,0,266.722,127.049Z" transform="translate(-52.221 1566.783)" fill="#ffc107"/>
      <path id="Path_4917" data-name="Path 4917" d="M270.184,112.66a.537.537,0,0,1,.321.112.748.748,0,0,1,.242.333,1.17,1.17,0,0,1,0,.89.789.789,0,0,1-.239.333.544.544,0,0,1-.326.116h-.394a2.363,2.363,0,0,1-1.193-.3,2.072,2.072,0,0,1-.9-1.06,2.215,2.215,0,0,1-.555.984,1.215,1.215,0,0,1-.765.362.172.172,0,0,1-.063,0h-.018a.548.548,0,0,1-.3-.116.789.789,0,0,1-.239-.333,1.186,1.186,0,0,1,0-.89.765.765,0,0,1,.244-.336.564.564,0,0,1,.3-.109h.034a.914.914,0,0,0,.6-.166.9.9,0,0,0,.284-.409,1.7,1.7,0,0,0,.095-.51c.009-.2.009-.405,0-.608a7.639,7.639,0,0,1,.024-.912.862.862,0,0,1,.284-.611.306.306,0,0,1,.447.069,1.728,1.728,0,0,1,.281.984q.011.155.034.307c.016.141.029.279.039.409a1.926,1.926,0,0,0,.263.695,1.491,1.491,0,0,0,.555.539A1.9,1.9,0,0,0,270.184,112.66Z" transform="translate(-53.312 1578.05)"/>
      <path id="Path_4918" data-name="Path 4918" d="M281.05,97.821h.1a1.437,1.437,0,0,0,.881-.268.976.976,0,0,0,.36-.655,4.075,4.075,0,0,0-.137-1.342c-.126-.532-.263-1.056-.431-1.574-.076-.253-.145-.488-.21-.724a1.21,1.21,0,0,1,.16-.865.481.481,0,0,1,.623-.156.911.911,0,0,1,.444.637c.068.246.145.5.229.763.145.459.263.926.389,1.4a6.517,6.517,0,0,1,.189,1.367,3.617,3.617,0,0,1-.789,2.326,2.215,2.215,0,0,1-1.808.857.537.537,0,0,1-.321-.116.788.788,0,0,1-.239-.333,1.185,1.185,0,0,1,0-.89.745.745,0,0,1,.239-.333A.521.521,0,0,1,281.05,97.821Zm1.577-7.959a7.557,7.557,0,0,0,.707-.514l1.446-1.107,1.488-1.187.828-.651c.389-.264.633-.362.733-.242s.1.289-.013.575a3.065,3.065,0,0,1-.544.872q-.526.611-1.577,1.642a22,22,0,0,1-2.121,1.841,2.838,2.838,0,0,1-1.669.76c-.365-.087-.444-.362-.234-.807a3.52,3.52,0,0,1,.962-1.176Z" transform="translate(-64.178 1592.889)"/>
      <path id="Path_4919" data-name="Path 4919" d="M308.36,107.366a3.826,3.826,0,0,1-.413,2.109,3.967,3.967,0,0,1-1.251,1.382,4.919,4.919,0,0,1-1.551.7,5.8,5.8,0,0,1-3.43-.134,4.632,4.632,0,0,1-.844-.47,3.644,3.644,0,0,1-1.133-1.252,2.992,2.992,0,0,1-.371-1.548,2.892,2.892,0,0,1,.526-1.588,3.12,3.12,0,0,1,1.154-.955,4.471,4.471,0,0,1,1.4-.43,4.661,4.661,0,0,1,1.288,0,2.7,2.7,0,0,1,.789.232c.184.1.21.2.074.3a2.893,2.893,0,0,1-1.109.253,4.943,4.943,0,0,0-2.445.839,1.465,1.465,0,0,0-.633,1.31,1.862,1.862,0,0,0,.768,1.248,3.129,3.129,0,0,0,1.343.528,6.546,6.546,0,0,0,1.8.072,5.25,5.25,0,0,0,1.722-.449,1.97,1.97,0,0,0,1.312-1.841,2.641,2.641,0,0,1,.029-.3.959.959,0,0,1,.287-.572.337.337,0,0,1,.415-.065C308.236,106.809,308.323,107.022,308.36,107.366Z" transform="translate(-78.158 1580.746)"/>
      <path id="Path_4920" data-name="Path 4920" d="M313.059,125.586a.8.8,0,0,1,.789.094,1.148,1.148,0,0,1,.455.724,1.408,1.408,0,0,1-.155.973,1.1,1.1,0,0,1-.563.488.812.812,0,0,1-.928-.307,1.474,1.474,0,0,1-.281-1.06A1.142,1.142,0,0,1,313.059,125.586Z" transform="translate(-87.742 1567.735)" fill="#ffc107"/>
      <path id="Path_4921" data-name="Path 4921" d="M338.87,105.939v0a.9.9,0,0,0,.628-.159.952.952,0,0,0,.292-.423,3.142,3.142,0,0,0,.1-1.118,8.169,8.169,0,0,1,.016-.912.894.894,0,0,1,.289-.615.314.314,0,0,1,.45.072,1.752,1.752,0,0,1,.279.991c0,.1.018.2.029.3.026.21.045.409.058.6a4.833,4.833,0,0,0,.068.644.913.913,0,0,0,.2.452.538.538,0,0,0,.426.17v1.783a1.427,1.427,0,0,1-1.5-1.393,2.382,2.382,0,0,1-.507.988,1.13,1.13,0,0,1-.789.405h-.315a1.627,1.627,0,0,1-1.164-.383,2.143,2.143,0,0,1-.589-1.031,6.6,6.6,0,0,1-.213-1.447c-.021-.539-.029-1.085-.021-1.682v-.119l.021-3.281a1.119,1.119,0,0,1,.323-.828.42.42,0,0,1,.586,0q.292.228.308,1.085l-.05,4.649a1.588,1.588,0,0,0,.3,1.027.861.861,0,0,0,.652.264Z" transform="translate(-105.604 1584.771)"/>
      <path id="Path_4922" data-name="Path 4922" d="M344.994,103.9a2.005,2.005,0,0,1,.938.318c.2.156.247.311.139.47s-.415.271-.917.362c-.263.051-.594.1-.983.159a7.2,7.2,0,0,1-1.051.087h-.1a.758.758,0,0,1-.415-.069c-.105-.054-.158-.2-.158-.441a.744.744,0,0,1,.339-.644,1.738,1.738,0,0,1,.736-.232,6.131,6.131,0,0,1,.773-.022h.263a1.132,1.132,0,0,1,.2,0A1.263,1.263,0,0,1,344.994,103.9Z" transform="translate(-109.917 1581.543)" fill="#ffc107"/>
      <path id="Path_4923" data-name="Path 4923" d="M354.172,118.48a.541.541,0,0,1,.318.112.748.748,0,0,1,.242.333,1.186,1.186,0,0,1,0,.89.789.789,0,0,1-.239.333.509.509,0,0,1-.647,0,.766.766,0,0,1-.239-.333,1.168,1.168,0,0,1-.087-.449,1.11,1.11,0,0,1,.089-.441.748.748,0,0,1,.242-.333A.531.531,0,0,1,354.172,118.48Z" transform="translate(-118.077 1572.23)"/>
      <path id="Path_4924" data-name="Path 4924" d="M354.18,97.821h.1a1.437,1.437,0,0,0,.881-.268.976.976,0,0,0,.36-.655,4.131,4.131,0,0,0-.134-1.342q-.195-.8-.434-1.574c-.076-.253-.145-.488-.21-.724a1.21,1.21,0,0,1,.16-.865.481.481,0,0,1,.623-.156.9.9,0,0,1,.444.637c.071.246.147.5.229.763.145.459.276.926.389,1.4a6.352,6.352,0,0,1,.189,1.367,3.6,3.6,0,0,1-.789,2.326,2.214,2.214,0,0,1-1.808.857.537.537,0,0,1-.321-.116.79.79,0,0,1-.239-.333,1.186,1.186,0,0,1,0-.89.745.745,0,0,1,.239-.333A.521.521,0,0,1,354.18,97.821Zm1.577-7.959a7.566,7.566,0,0,0,.707-.514l1.459-1.107,1.485-1.187.828-.651c.389-.264.633-.362.733-.242s.1.289-.013.575a3.065,3.065,0,0,1-.544.872q-.526.611-1.577,1.642a21.7,21.7,0,0,1-2.121,1.841,2.838,2.838,0,0,1-1.669.76c-.365-.087-.444-.362-.234-.807a3.553,3.553,0,0,1,.962-1.176Z" transform="translate(-118.085 1592.889)"/>
    </g>
  </g>
</svg>
