<svg xmlns="http://www.w3.org/2000/svg" width="200" height="250" viewBox="0 0 200 250"><g transform="translate(-86.21 -38.719)"><g transform="translate(86.21 87.053)"><path d="M258.209,126.42c-23.058-19.292-54.271,0-84.6,40.6s-44.744,23.513-70.522,41.406-32.673,91.193,58.149,84.067S318.487,176.785,258.209,126.42Z" transform="translate(-86.21 -118.89)" fill="#f0f0f0"/></g><g transform="translate(90.907 288.406)"><path d="M288.973,453.027c0,.084-43.724.157-97.642.157s-97.661-.072-97.661-.157,43.718-.157,97.661-.157S288.973,452.948,288.973,453.027Z" transform="translate(-93.67 -452.87)" fill="#263238"/></g><g transform="translate(232.018 150.528)"><path d="M329.364,288.4c-9.728-6.505-11.932-18.581-11.548-29.439.063-1.809-.145-3.726.756-5.311s3-2.677,4.7-1.917c1.4.633,2.015,2.2,2.8,3.5a10.866,10.866,0,0,0,4.439,4.057,4.368,4.368,0,0,0,3.885.338c1.637-.862,1.826-3.014,1.813-4.823q0-5.046-.063-10.08a16.1,16.1,0,0,1,.567-5.354,5.718,5.718,0,0,1,3.671-3.78c1.782-.482,4,.512,4.408,2.273a16.633,16.633,0,0,1,.057,2.243A1.942,1.942,0,0,0,346,241.914a2.3,2.3,0,0,0,2.072-.826,23.765,23.765,0,0,0,4.49-6.493,32.894,32.894,0,0,1,4.194-6.7,10.325,10.325,0,0,1,6.926-3.708c2.726-.151,5.566,1.453,6.246,3.985s-.863,5.119-2.519,7.174a41.383,41.383,0,0,1-8.746,7.988,3.342,3.342,0,0,0-1.467,1.5c-.409,1.206.781,2.412,2.021,2.791a23.133,23.133,0,0,0,4.408.476c1.48.169,3.054.784,3.614,2.11.768,1.845-.844,3.774-2.424,5.04a36.55,36.55,0,0,1-10.654,5.89,12.413,12.413,0,0,0-3.961,1.839,3.244,3.244,0,0,0-1.115,3.822c.674,1.272,2.405,1.676,3.86,1.417a25.8,25.8,0,0,0,4.131-1.507c2.588-.934,5.925-.766,7.556,1.375a5.5,5.5,0,0,1,.63,5.046,13.079,13.079,0,0,1-2.852,4.455,36.336,36.336,0,0,1-15.527,10.388c-6,1.99-11.561,2.532-17.524.44" transform="translate(-317.775 -224.174)" fill="#ffc107"/><path d="M373.714,226.66s-.057.06-.183.169l-.56.476c-.491.422-1.215,1.037-2.128,1.851a68.517,68.517,0,0,0-7.191,7.434c-1.4,1.67-2.859,3.563-4.408,5.619s-3.148,4.274-4.735,6.632a80.981,80.981,0,0,0-4.641,7.7c-.73,1.381-1.373,2.822-2.034,4.293l-1.952,4.492a161.282,161.282,0,0,0-6.712,17.345,77.785,77.785,0,0,0-3.148,14.789,56.316,56.316,0,0,0-.176,10.183c.1,1.206.2,2.128.283,2.755.038.3.063.543.088.717v.247a1.212,1.212,0,0,1-.057-.241c-.031-.175-.069-.41-.12-.711-.113-.6-.233-1.555-.346-2.761a53.653,53.653,0,0,1,.063-10.213,76.5,76.5,0,0,1,3.079-14.855A157.466,157.466,0,0,1,345.53,265.2l2-4.473c.661-1.465,1.31-2.918,2.046-4.3a79.975,79.975,0,0,1,4.678-7.723c1.612-2.412,3.236-4.594,4.767-6.632s3.01-3.943,4.408-5.607a65.349,65.349,0,0,1,7.285-7.379c.932-.8,1.675-1.4,2.179-1.809l.586-.452a1.375,1.375,0,0,1,.233-.157Z" transform="translate(-324.332 -225.161)" fill="#263238"/><path d="M356.385,262.939a3.6,3.6,0,0,1-.183-.766c-.1-.5-.214-1.206-.346-2.122-.271-1.809-.548-4.287-.844-7.03s-.63-5.227-.907-7.018c-.145-.892-.271-1.61-.359-2.11a3.125,3.125,0,0,1-.107-.784,3.226,3.226,0,0,1,.233.754c.139.494.3,1.206.472,2.1.359,1.809.712,4.268,1.007,7.018s.548,5.161.743,7.036c.094.844.176,1.562.239,2.134a3.2,3.2,0,0,1,.05.784Z" transform="translate(-331.057 -231.694)" fill="#263238"/><path d="M382.281,268.793a5.252,5.252,0,0,1-.932.108c-.63.054-1.524.127-2.632.247-2.216.229-5.264.651-8.608,1.254s-6.347,1.284-8.507,1.809c-1.077.265-1.946.506-2.519.669a4.761,4.761,0,0,1-.944.217,5.632,5.632,0,0,1,.907-.344c.592-.2,1.448-.476,2.519-.772,2.147-.6,5.151-1.32,8.507-1.935q4.264-.781,8.595-1.145c1.115-.09,2.015-.127,2.645-.139A5.056,5.056,0,0,1,382.281,268.793Z" transform="translate(-332.724 -241.876)" fill="#263238"/><path d="M334.134,299.222a1.24,1.24,0,0,1-.164-.283l-.416-.838c-.359-.729-.844-1.809-1.423-3.129-1.171-2.653-2.664-6.366-4.25-10.49s-3.048-7.838-4.156-10.52c-.542-1.3-.989-2.369-1.322-3.165l-.353-.862a1.127,1.127,0,0,1-.1-.314,1.24,1.24,0,0,1,.164.283l.416.838c.353.729.844,1.809,1.423,3.129,1.171,2.653,2.663,6.366,4.25,10.49s3.048,7.838,4.156,10.52c.542,1.3.989,2.369,1.316,3.165.145.344.264.6.359.862A1.13,1.13,0,0,1,334.134,299.222Z" transform="translate(-319.321 -242.221)" fill="#263238"/><path d="M373.459,302.25a1.37,1.37,0,0,1-.321.127l-.932.3-3.444,1.067c-2.909.9-6.926,2.195-11.334,3.617s-8.444,2.689-11.372,3.533c-1.461.428-2.651.754-3.476.971l-.951.235a1.7,1.7,0,0,1-.34.066,1.37,1.37,0,0,1,.321-.127l.932-.3,3.444-1.067c2.909-.9,6.926-2.194,11.334-3.617s8.438-2.689,11.365-3.533c1.467-.428,2.651-.754,3.482-.971l.951-.235A1.691,1.691,0,0,1,373.459,302.25Z" transform="translate(-326.483 -255.179)" fill="#263238"/></g><g transform="translate(228.961 38.719)"><path d="M349.831,51.356l-3.243,1.109L345.2,48.408a14.326,14.326,0,1,0-27.107,9.284l1.392,4.057-3.255,1.115a4.9,4.9,0,0,0-3.035,6.2l9.023,26.4a4.714,4.714,0,0,0,2.423,2.8,5.063,5.063,0,0,0,3.786.281l33.605-11.509a4.923,4.923,0,0,0,3.066-6.258l-9.029-26.4a4.707,4.707,0,0,0-2.447-2.778A5.051,5.051,0,0,0,349.831,51.356Zm-25.615,4.22A7.862,7.862,0,0,1,329.1,45.6a8.1,8.1,0,0,1,6.068.418,7.542,7.542,0,0,1,3.9,4.471l1.385,4.057L325.6,59.634ZM343.106,79l2.3,6.74a.544.544,0,0,1-.359.675l-3.23,1.1a.521.521,0,0,1-.63-.326l-2.323-6.71A6.253,6.253,0,0,1,337.1,68.322a6.452,6.452,0,0,1,4.833.334,6.01,6.01,0,0,1,3.107,3.56,6.262,6.262,0,0,1-1.927,6.807Z" transform="translate(-312.921 -38.719)" fill="#ffc107"/><path d="M350.217,61.4c0,.084-6.013,2.249-13.494,4.823S323.141,70.864,323.11,70.8s6.013-2.243,13.5-4.823S350.185,61.32,350.217,61.4Z" transform="translate(-316.694 -47.725)" fill="#263238"/><path d="M362.894,63.24a1.024,1.024,0,0,1,.069.163c.05.121.107.277.183.47.164.44.39,1.049.674,1.809l2.418,6.74c1.007,2.858,2.21,6.246,3.545,10.008.63,1.887,1.373,3.852,2.065,5.92a8.686,8.686,0,0,1,.472,3.31,4.3,4.3,0,0,1-.51,1.67,4.664,4.664,0,0,1-1.19,1.344,11.53,11.53,0,0,1-3.2,1.561l-3.243,1.115-6.139,2.1L347.643,103l-7.021,2.363-1.889.6-.5.157a.554.554,0,0,1-.17.042.339.339,0,0,0,.157-.072l.491-.187,1.889-.681,6.983-2.46,10.377-3.617,6.127-2.122,3.243-1.121a10.972,10.972,0,0,0,3.1-1.513,4.341,4.341,0,0,0,1.108-1.248,3.842,3.842,0,0,0,.472-1.549,8.333,8.333,0,0,0-.453-3.189c-.68-2.05-1.4-4.033-2.046-5.92-1.31-3.768-2.519-7.168-3.476-10.026s-1.763-5.155-2.317-6.77c-.265-.79-.466-1.4-.63-1.851l-.151-.482a.545.545,0,0,1-.044-.115Z" transform="translate(-322.231 -48.457)" fill="#263238"/><path d="M341.452,48.685s-.334-.157-.951-.4a8.712,8.712,0,0,0-2.752-.531,9.813,9.813,0,0,0-4.068.736,8.984,8.984,0,0,0-3.847,3.081,7.91,7.91,0,0,0-1.48,4.576,13.549,13.549,0,0,0,.63,3.949c.327,1.1.667,1.971.894,2.58a6.532,6.532,0,0,1,.327.953,5.2,5.2,0,0,1-.447-.91c-.258-.6-.63-1.459-.995-2.562a13.187,13.187,0,0,1-.724-4.009,8.019,8.019,0,0,1,1.511-4.751,9.132,9.132,0,0,1,4-3.171,9.741,9.741,0,0,1,4.187-.687,8.22,8.22,0,0,1,2.789.633,5.272,5.272,0,0,1,.68.362.946.946,0,0,1,.246.151Z" transform="translate(-318.52 -42.216)" fill="#263238"/><path d="M347.581,88.083a2.208,2.208,0,0,1,.315-.151,6.434,6.434,0,0,1,.976-.332,7.266,7.266,0,0,1,1.631-.265,5.753,5.753,0,0,1,2.21.32,6.638,6.638,0,0,1,3.822,4.22,5.829,5.829,0,0,1,0,3.461,7.778,7.778,0,0,1-2.028,3.25l.038-.163c.837,2.2,1.75,4.588,2.695,7.078l.057.151-.157.054-1.442.458-3.148,1.007-.157.048-.05-.151c-.863-2.5-1.807-4.823-2.519-7.108l.139.1a6.458,6.458,0,0,1-3.375-1.272,7.381,7.381,0,0,1-2.109-2.412,5.321,5.321,0,0,1-.668-2.713,6.46,6.46,0,0,1,2.638-4.98,4.052,4.052,0,0,1,1.089-.6,12.191,12.191,0,0,0-1.033.657,6.418,6.418,0,0,0-1.946,2.647,5.485,5.485,0,0,0,.2,4.865,7.17,7.17,0,0,0,2.059,2.315,6.149,6.149,0,0,0,3.218,1.206h.107l.031.09c.693,2.243,1.643,4.588,2.519,7.1l-.208-.1,3.148-1.007,1.436-.464-.1.2c-.938-2.49-1.845-4.883-2.676-7.084v-.09l.076-.072a7.633,7.633,0,0,0,1.99-3.117,5.592,5.592,0,0,0,0-3.31,6.467,6.467,0,0,0-3.639-4.106,5.626,5.626,0,0,0-2.135-.344,7.518,7.518,0,0,0-1.612.211C348.028,87.908,347.587,88.113,347.581,88.083Z" transform="translate(-324.359 -58.022)" fill="#263238"/></g><g transform="translate(156.191 65.373)"><path d="M273.879,260.414l-62.9-.277c-7.563-.04-13.664-5.937-13.632-13.179l.667-150.969c.031-7.247,6.2-13.1,13.764-13.059l62.891.277c7.563.037,13.666,5.931,13.638,13.173l-.667,150.963C287.612,254.592,281.45,260.444,273.879,260.414Z" transform="translate(-197.35 -82.93)" fill="#455a64"/><path d="M277.041,91.865h-12.19a2.961,2.961,0,0,0-2.972,2.954v2.116A2.828,2.828,0,0,1,261.031,99a3.087,3.087,0,0,1-2.125.884l-23.764-.1A2.964,2.964,0,0,1,232.19,96.8V94.686a2.964,2.964,0,0,0-2.947-2.978h-4.288l-10.673-.048a9.406,9.406,0,0,0-9.653,9.1L204,248.115a9.388,9.388,0,0,0,9.546,9.224l62.765.277a9.4,9.4,0,0,0,9.64-9.146l.63-147.358A9.4,9.4,0,0,0,277.041,91.865Z" transform="translate(-199.813 -86.396)" fill="#fff"/><path d="M278.63,325.016l-46.671-.193a1.014,1.014,0,0,1-.869-1.121l.05-11.69a1.036,1.036,0,0,1,.882-1.121l46.671.2a1.02,1.02,0,0,1,.869,1.127l-.044,11.678A1.018,1.018,0,0,1,278.63,325.016Z" transform="translate(-209.845 -173.455)" fill="#ffc107"/><text transform="translate(36.783 146.088)" fill="#fff" font-size="4" font-family="Montserrat-SemiBold, Montserrat" font-weight="600"><tspan x="0" y="0">SING UP</tspan></text><path d="M0,0,16.195,0V2.843L0,2.846Z" transform="translate(15.228 48.716) rotate(0.26)" fill="#ffc107"/><path d="M0,0,16.195,0V2.843L0,2.846Z" transform="translate(15.228 48.716) rotate(0.26)" opacity="0.1"/><path d="M285.074,185.833a1.5,1.5,0,0,0,.371-.084.958.958,0,0,0,.63-.814v-8.006a1.13,1.13,0,0,0-.176-.79.958.958,0,0,0-.749-.368H275.069l-52.665-.187a.85.85,0,0,0-.693.332,1.111,1.111,0,0,0-.164.79v7.235a4.555,4.555,0,0,0,0,.844.826.826,0,0,0,.491.543,1.021,1.021,0,0,0,.39.066h3.205l13.985.072,23.675.139,15.962.121,4.338.048h-20.3l-23.675-.072-13.985-.054h-3.205a1.31,1.31,0,0,1-.516-.084,1.15,1.15,0,0,1-.68-.754,1.635,1.635,0,0,1-.038-.482v-7.681a3.237,3.237,0,0,1,0-.482,1,1,0,0,1,.208-.488,1.176,1.176,0,0,1,.957-.464l52.665.277,9.1.06h.982a1.091,1.091,0,0,1,.882.44,1.241,1.241,0,0,1,.2.886v3.852c0,1.809-.044,3.2-.057,4.16a.983.983,0,0,1-.661.838A.78.78,0,0,1,285.074,185.833Z" transform="translate(-206.177 -119.575)" fill="#e0e0e0"/><rect width="29.619" height="2.659" transform="translate(20.093 59.035)" fill="#ffc107"/><rect width="29.619" height="2.659" transform="translate(20.093 59.035)" fill="#fff" opacity="0.2"/><path d="M0,0,16.195,0V2.843L0,2.846Z" transform="translate(15.117 74.676) rotate(0.26)" fill="#ffc107"/><path d="M0,0,16.195,0V2.843L0,2.846Z" transform="translate(15.117 74.676) rotate(0.26)" opacity="0.1"/><path d="M284.579,228.937a3.385,3.385,0,0,0,.378-.066,1.272,1.272,0,0,0,.793-.687,1.624,1.624,0,0,0,.113-.766v-7.192a1.252,1.252,0,0,0-.183-.8,1.215,1.215,0,0,0-.686-.512,4.027,4.027,0,0,0-.951-.048h-9.061l-52.482-.187a1.149,1.149,0,0,0-1.152.971c0,.573,0,1.206,0,1.809v5.426a3.316,3.316,0,0,0,.038.844,1.15,1.15,0,0,0,.46.6,1.355,1.355,0,0,0,.781.193h2.7l13.934.066,23.593.139,15.905.121,4.326.048H262.849l-23.606-.024-13.934-.048H222.57a1.634,1.634,0,0,1-.963-.247,1.451,1.451,0,0,1-.592-.79,3.638,3.638,0,0,1-.05-.928v-7.235a1.472,1.472,0,0,1,1.48-1.248l52.482.277,9.061.066a4.067,4.067,0,0,1,1.007.066,1.381,1.381,0,0,1,.774.6,1.4,1.4,0,0,1,.2.88V227.5a1.618,1.618,0,0,1-.132.79,1.321,1.321,0,0,1-.85.687A1.234,1.234,0,0,1,284.579,228.937Z" transform="translate(-206.091 -136.719)" fill="#e0e0e0"/><path d="M0,0,16.195,0V2.843L0,2.846Z" transform="translate(14.995 101.763) rotate(0.26)" fill="#ffc107"/><path d="M0,0,16.195,0V2.843L0,2.846Z" transform="translate(14.995 101.763) rotate(0.26)" opacity="0.1"/><path d="M284.412,273.795a3.134,3.134,0,0,0,.378-.066,1.279,1.279,0,0,0,.793-.681,1.634,1.634,0,0,0,.113-.766c0-.3,0-.6,0-.959v-6.24a1.2,1.2,0,0,0-.869-1.3,4.016,4.016,0,0,0-.951-.054h-9.061l-52.482-.187a1.149,1.149,0,0,0-1.152.971q0,.9,0,1.809v5.426a3.271,3.271,0,0,0,.038.838,1.108,1.108,0,0,0,.46.6,1.3,1.3,0,0,0,.781.193H225.2l13.934.072,23.594.139,15.905.121,4.326.048H262.727l-23.593-.066-13.934-.054H222.46a1.6,1.6,0,0,1-.963-.247,1.451,1.451,0,0,1-.592-.79,3.639,3.639,0,0,1-.05-.928v-7.265a1.465,1.465,0,0,1,1.473-1.248l52.482.277,9.061.066a4.067,4.067,0,0,1,1.007.066,1.381,1.381,0,0,1,.775.6,1.4,1.4,0,0,1,.2.88v7.223a1.589,1.589,0,0,1-.132.79,1.321,1.321,0,0,1-.85.687A1.037,1.037,0,0,1,284.412,273.795Z" transform="translate(-206.051 -154.501)" fill="#e0e0e0"/><path d="M0,0,29.619-.006V2.653L0,2.659Z" transform="translate(19.46 85.619) rotate(0.26)" fill="#ffc107"/><path d="M0,0,29.619-.006V2.653L0,2.659Z" transform="translate(19.46 85.619) rotate(0.26)" fill="#fff" opacity="0.2"/><path d="M230.986,271.762a1.279,1.279,0,0,1-1.368,1.149,1.242,1.242,0,1,1,.109-2.481A1.3,1.3,0,0,1,230.986,271.762Z" transform="translate(-208.847 -157.388)" fill="#ffc107"/><path d="M237.356,271.795a1.228,1.228,0,0,1-.619,1.147,1.347,1.347,0,0,1-1.349,0,1.372,1.372,0,0,1,0-2.295,1.346,1.346,0,0,1,1.349,0,1.228,1.228,0,0,1,.62,1.147Z" transform="translate(-211.206 -157.403)" fill="#ffc107"/><path d="M243.736,271.822a1.279,1.279,0,0,1-1.368,1.149,1.242,1.242,0,1,1,.109-2.481A1.307,1.307,0,0,1,243.736,271.822Z" transform="translate(-213.569 -157.412)" fill="#ffc107"/><path d="M250.106,271.852A1.279,1.279,0,0,1,248.738,273a1.242,1.242,0,1,1,.109-2.481A1.307,1.307,0,0,1,250.106,271.852Z" transform="translate(-215.928 -157.424)" fill="#ffc107"/><path d="M256.476,271.876a1.279,1.279,0,0,1-1.365,1.155,1.242,1.242,0,1,1,.105-2.482A1.307,1.307,0,0,1,256.476,271.876Z" transform="translate(-218.287 -157.436)" fill="#ffc107"/><path d="M262.856,271.906a1.3,1.3,0,1,1-1.291-1.326,1.309,1.309,0,0,1,1.291,1.326Z" transform="translate(-220.65 -157.448)" fill="#ffc107"/><path d="M269.226,271.935a1.228,1.228,0,0,1-.62,1.147,1.347,1.347,0,0,1-1.349,0,1.372,1.372,0,0,1,0-2.295,1.347,1.347,0,0,1,1.349,0A1.228,1.228,0,0,1,269.226,271.935Z" transform="translate(-223.009 -157.458)" fill="#ffc107"/><path d="M275.6,271.966a1.3,1.3,0,1,1-1.291-1.326A1.309,1.309,0,0,1,275.6,271.966Z" transform="translate(-225.368 -157.472)" fill="#ffc107"/><path d="M281.966,272a1.279,1.279,0,0,1-1.365,1.155,1.242,1.242,0,1,1,.105-2.482A1.307,1.307,0,0,1,281.966,272Z" transform="translate(-227.727 -157.483)" fill="#ffc107"/><g transform="translate(19.548 113.041)" opacity="0.2"><path d="M230.986,271.762a1.279,1.279,0,0,1-1.368,1.149,1.242,1.242,0,1,1,.109-2.481A1.3,1.3,0,0,1,230.986,271.762Z" transform="translate(-228.395 -270.429)" fill="#fff"/><path d="M237.356,271.795a1.228,1.228,0,0,1-.619,1.147,1.347,1.347,0,0,1-1.349,0,1.372,1.372,0,0,1,0-2.295,1.346,1.346,0,0,1,1.349,0,1.228,1.228,0,0,1,.62,1.147Z" transform="translate(-230.754 -270.444)" fill="#fff"/><path d="M243.736,271.822a1.279,1.279,0,0,1-1.368,1.149,1.242,1.242,0,1,1,.109-2.481A1.307,1.307,0,0,1,243.736,271.822Z" transform="translate(-233.117 -270.453)" fill="#fff"/><path d="M250.106,271.852A1.279,1.279,0,0,1,248.738,273a1.242,1.242,0,1,1,.109-2.481A1.307,1.307,0,0,1,250.106,271.852Z" transform="translate(-235.476 -270.465)" fill="#fff"/><path d="M256.476,271.876a1.279,1.279,0,0,1-1.365,1.155,1.242,1.242,0,1,1,.105-2.482A1.307,1.307,0,0,1,256.476,271.876Z" transform="translate(-237.835 -270.477)" fill="#fff"/><path d="M262.856,271.906a1.3,1.3,0,1,1-1.291-1.326,1.309,1.309,0,0,1,1.291,1.326Z" transform="translate(-240.198 -270.489)" fill="#fff"/><path d="M269.226,271.935a1.228,1.228,0,0,1-.62,1.147,1.347,1.347,0,0,1-1.349,0,1.372,1.372,0,0,1,0-2.295,1.347,1.347,0,0,1,1.349,0A1.228,1.228,0,0,1,269.226,271.935Z" transform="translate(-242.557 -270.5)" fill="#fff"/><path d="M275.6,271.966a1.3,1.3,0,1,1-1.291-1.326A1.309,1.309,0,0,1,275.6,271.966Z" transform="translate(-244.916 -270.513)" fill="#fff"/><path d="M281.966,272a1.279,1.279,0,0,1-1.365,1.155,1.242,1.242,0,1,1,.105-2.482A1.307,1.307,0,0,1,281.966,272Z" transform="translate(-247.275 -270.525)" fill="#fff"/></g><path d="M271.48,125.563a2.33,2.33,0,0,0,1.454-2.164,2.172,2.172,0,0,0-1.108-2,2.379,2.379,0,0,0-2.361,0,2.172,2.172,0,0,0-1.108,2,2.335,2.335,0,0,0,1.461,2.188c-3.526.506-3.369,4.172-3.369,4.172l8.337.036S274.981,126.063,271.48,125.563Z" transform="translate(-222.939 -98.083)" fill="#ffc107"/><path d="M271.48,125.563a2.33,2.33,0,0,0,1.454-2.164,2.172,2.172,0,0,0-1.108-2,2.379,2.379,0,0,0-2.361,0,2.172,2.172,0,0,0-1.108,2,2.335,2.335,0,0,0,1.461,2.188c-3.526.506-3.369,4.172-3.369,4.172l8.337.036S274.981,126.063,271.48,125.563Z" transform="translate(-222.939 -98.083)" opacity="0.1"/><path d="M0,0,29.714-.006v3.4L0,3.4Z" transform="translate(32.374 33.948) rotate(0.26)" fill="#ffc107"/><path d="M0,0,29.714-.006v3.4L0,3.4Z" transform="translate(32.374 33.948) rotate(0.26)" fill="#fff" opacity="0.2"/></g><g transform="translate(109.035 120.655)"><path d="M165.425,444.9v-5.155l-9.653-.066-.082,7.8.6.042c2.663.163,13.55.4,15.339-.127C173.617,446.8,165.425,444.9,165.425,444.9Z" transform="translate(-134.766 -279.881)" fill="#ffc107"/><path d="M171.872,451.567c0,.084-3.614.157-8.066.157s-8.066-.072-8.066-.157,3.614-.157,8.066-.157S171.872,451.482,171.872,451.567Z" transform="translate(-134.785 -284.539)" fill="#263238"/><path d="M171.4,449.453c-.082-.042,0-.314.2-.6s.46-.41.523-.35-.069.289-.258.537S171.483,449.495,171.4,449.453Z" transform="translate(-140.573 -283.378)" fill="#263238"/><path d="M172.374,449.907c-.088,0-.044-.338.145-.657s.441-.512.51-.464-.044.32-.22.6S172.456,449.937,172.374,449.907Z" transform="translate(-140.929 -283.494)" fill="#263238"/><path d="M158.722,450.438a1.212,1.212,0,0,1-.39-.338,6.116,6.116,0,0,0-.844-.808,2.272,2.272,0,0,0-1.045-.44c-.3-.036-.485,0-.5-.036s.164-.163.51-.187a2,2,0,0,1,1.259.41,3.444,3.444,0,0,1,.831.934C158.685,450.239,158.76,450.414,158.722,450.438Z" transform="translate(-134.858 -283.435)" fill="#263238"/><path d="M170.922,448.46c.044.072-.12.253-.4.35s-.523.06-.535,0,.183-.187.422-.271S170.871,448.387,170.922,448.46Z" transform="translate(-140.062 -283.355)" fill="#263238"/><path d="M170.548,447.55c0,.09-.252.163-.579.169s-.586-.066-.579-.151.264-.163.579-.169S170.536,447.466,170.548,447.55Z" transform="translate(-139.84 -282.947)" fill="#263238"/><path d="M203.175,444.9v-5.155l-9.653-.066-.082,7.717.6.042c2.663.163,13.557.482,15.339-.048C211.367,446.8,203.175,444.9,203.175,444.9Z" transform="translate(-148.746 -279.881)" fill="#ffc107"/><path d="M209.626,451.587c0,.084-3.608.157-8.066.157s-8.06-.072-8.06-.157,3.608-.157,8.06-.157S209.626,451.5,209.626,451.587Z" transform="translate(-148.769 -284.547)" fill="#263238"/><path d="M209.153,449.453c-.076-.042,0-.314.2-.6s.46-.41.523-.35-.069.289-.258.537S209.235,449.495,209.153,449.453Z" transform="translate(-154.555 -283.378)" fill="#263238"/><path d="M210.126,449.907c-.082,0-.044-.338.151-.657s.441-.512.51-.464-.05.32-.227.6S210.214,449.937,210.126,449.907Z" transform="translate(-154.911 -283.494)" fill="#263238"/><path d="M196.472,450.438c-.038,0-.176-.109-.39-.338a6.115,6.115,0,0,0-.844-.808,2.271,2.271,0,0,0-1.045-.44c-.29-.036-.485,0-.5-.036s.164-.163.51-.187a2,2,0,0,1,1.259.41,3.34,3.34,0,0,1,.831.935C196.435,450.239,196.51,450.414,196.472,450.438Z" transform="translate(-148.838 -283.435)" fill="#263238"/><path d="M208.672,448.46c.044.072-.12.253-.4.35s-.523.06-.535,0,.183-.187.422-.271S208.621,448.387,208.672,448.46Z" transform="translate(-154.042 -283.355)" fill="#263238"/><path d="M208.322,447.55c0,.09-.252.163-.579.169s-.579-.066-.573-.151.258-.163.573-.169S208.322,447.466,208.322,447.55Z" transform="translate(-153.831 -282.947)" fill="#263238"/><path d="M212.452,189.087c-.252-.247-.875-.127-.875-.127a2.957,2.957,0,0,0,0-1.049c-.113-.338-.907-.271-.907-.271a3.355,3.355,0,0,1,0-.856.305.305,0,0,0-.183-.307,3.023,3.023,0,0,0-1.184-.2c-.485-.332,1.48-2.966,2.21-3.81s.6-1.5-.05-1.5c-.447,0-2.739,2.532-3.444,3.382s-2.575,3.213-2.638,1.326-.856-3.31-1.354-3.551a.6.6,0,0,0-.756.85,6.506,6.506,0,0,1,.441,1.857,4.253,4.253,0,0,1-.069,1.519,17.642,17.642,0,0,1-.85,2.725h-.05S189,201.687,188.008,202.586c-.888.808-18.745-.959-22.328-1.32a25.031,25.031,0,0,0-3.677-.241c-1.555.066-1.832.277-3.381.3a79.9,79.9,0,0,0-11.674.983,9.56,9.56,0,0,0-7.594,6.306c-3.608,10.792-11.781,36.336-13.223,50.685a59.812,59.812,0,0,0-2.947,5.83c-1.014,2.641-.768,2.731-.428,2.791.919.163,1.965-4.576,2.355-3.43s-1.983,5.649-1.02,5.782c1.259.169,2.26-4.823,2.38-5.221s.743-.271.63.1c-.183.531-1.952,6.155-.718,6.336.68.1.756-1.091.756-1.091s1.259-5.384,1.832-5.275-.038,3.286-.327,4.347.113,1.6.705,1.338c.4-.181,1.366-3.406,1.631-4.455s.926-3.955,1.813-2.273,2.235,2.659,2.789,2.683a.622.622,0,0,0,.535-.44.589.589,0,0,0-.227-.639,6.876,6.876,0,0,1-1.215-1.507,4.346,4.346,0,0,1-.63-1.411,14.687,14.687,0,0,1-.441-3.051l-.1-.6c1.41-6.686,5.472-26.31,11.334-38.844L147.244,225l1.045,3.509-6.41,15.151,27.34-.344-4.08-15.036,4.955-15.675h0c5.358.115,19.117.307,21.409-.687,2.884-1.206,17.8-19.244,17.8-19.244h0a34.076,34.076,0,0,0,2.789-2.315S213,189.63,212.452,189.087Z" transform="translate(-122.46 -177.141)" fill="#ffa8a7"/><path d="M146.383,244.863c.793-2.592,4.867-15.41,4.867-15.41s2,10.448,1.473,11.708A22,22,0,0,1,151,244.272c-4.622,6.734-4.017,10.1-4.017,10.1l27.926-.814c.063-3.738-2.248-12.432-2.726-13.818s1.115-5.926,1.115-5.926,3.148-3.069,3.035-4.648a24.521,24.521,0,0,0-.548-4.22l17,.6-.535-11.033-24.418-2.339c-.85,2.3-8.538,1.17-8.538,1.17-8.3.265-8.815,1.724-12.266,4.293s-9.162,24.61-9.162,24.61Z" transform="translate(-128.167 -189.538)" fill="#ffc107"/><path d="M171.755,261.429a6.13,6.13,0,0,1-1.467.072c-.913,0-2.166-.06-3.545-.193s-2.626-.32-3.514-.488a6.276,6.276,0,0,1-1.429-.35,8.21,8.21,0,0,1,1.467.133c.894.109,2.135.259,3.507.392s2.619.223,3.52.283A8.1,8.1,0,0,1,171.755,261.429Z" transform="translate(-137.029 -208.715)" fill="#263238"/><path d="M174.284,258.29a6.654,6.654,0,0,1-1.524.5,29.176,29.176,0,0,1-7.7.874,6.628,6.628,0,0,1-1.6-.145,11.232,11.232,0,0,1,1.6-.078c.989-.03,2.349-.1,3.847-.265s2.833-.41,3.778-.6A10.861,10.861,0,0,1,174.284,258.29Z" transform="translate(-137.644 -207.849)" fill="#263238"/><path d="M194.2,241.47a6.025,6.025,0,0,1-.2,1.363c-.164.838-.416,1.983-.737,3.237s-.63,2.412-.907,3.2a5.864,5.864,0,0,1-.491,1.3,5.9,5.9,0,0,1,.264-1.35c.239-.941.51-2.026.812-3.213s.592-2.273.831-3.213A5.574,5.574,0,0,1,194.2,241.47Z" transform="translate(-148.165 -201.17)" fill="#263238"/><path d="M146.849,262.375a30.373,30.373,0,0,1-4.3-.959,30.848,30.848,0,0,1-4.219-1.266,31.422,31.422,0,0,1,4.3.959A30.516,30.516,0,0,1,146.849,262.375Z" transform="translate(-128.337 -208.588)" fill="#263238"/><path d="M194,225.233a2.208,2.208,0,0,1-.718,0,7.941,7.941,0,0,1-6.479-4.727,7.491,7.491,0,0,1-.56-3.394,5.117,5.117,0,0,1,.863-2.689A2.909,2.909,0,0,1,188.7,213.3a2.008,2.008,0,0,1,.535-.066h.189a2.119,2.119,0,0,0-.686.163,2.842,2.842,0,0,0-1.442,1.127,6.619,6.619,0,0,0-.183,5.848,7.365,7.365,0,0,0,1.946,2.725,8.318,8.318,0,0,0,2.386,1.471A12.554,12.554,0,0,0,194,225.233Z" transform="translate(-146.073 -189.955)" fill="#263238"/><path d="M221.778,226.681a48.1,48.1,0,0,1-.151-5.559,47.633,47.633,0,0,1,.176-5.553,47.943,47.943,0,0,1,.151,5.553,46.2,46.2,0,0,1-.176,5.559Z" transform="translate(-159.177 -190.885)" fill="#263238"/><path d="M179.678,199.389c.069-1.344.214-2.864.214-2.864a4.137,4.137,0,0,0,3.684-3.8c.208-3.436,0-11.364,0-11.364l-6.3-3.087-6.989,5.263,1.077,17.182,6.41.392a1.819,1.819,0,0,0,1.9-1.718Z" transform="translate(-140.173 -176.072)" fill="#ffa8a7"/><path d="M185.346,196.439a.272.272,0,0,1-.057.145.475.475,0,0,1-.4.169c-.4,0-.793-.446-.932-.965a1.509,1.509,0,0,1,0-.766.665.665,0,0,1,.378-.518.361.361,0,0,1,.264,0,.315.315,0,0,1,.145.139.164.164,0,0,1,0,.163.173.173,0,0,0-.063-.121.233.233,0,0,0-.3-.06.509.509,0,0,0-.258.428,1.479,1.479,0,0,0,0,.681,1.159,1.159,0,0,0,.768.886.448.448,0,0,0,.334-.09C185.308,196.481,185.334,196.433,185.346,196.439Z" transform="translate(-145.218 -182.509)" fill="#eb996e"/><path d="M176.052,178.052c-.485-1.58-2.242-2.363-3.841-2.8a12.613,12.613,0,0,0-7.449-.115c-2.38.838-5.239,2.309-5.239,4.823-1.4-.109-2.21,1.067-2.764,2.526a9.123,9.123,0,0,0-.63,2.773h0c-.176,3.292-1.14,7.838-3.369,10.249-1.259,1.344-3,2.273-3.721,3.949-.63,1.453-.3,3.177-.888,4.648-.523,1.3-1.675,2.219-2.519,3.346a8.643,8.643,0,0,0-.6,8.676,11.342,11.342,0,0,0,6.857,5.667,16.721,16.721,0,0,0,9.036.084,15.385,15.385,0,0,0,6.057-2.876,9.621,9.621,0,0,0,3.514-5.571c.447-2.46-.271-4.962-.806-7.409-1.675-7.735-1.2-8.139.919-15.319.05-.127.076-.259.113-.386s.057-.187.082-.283h0a4.36,4.36,0,0,0,.094-.862,1.788,1.788,0,0,1-1.82-.374,1.753,1.753,0,0,1-.428-1.809,2.7,2.7,0,0,1,1.625-1.465c.7-.277,1.448-.422,2.135-.73a6.927,6.927,0,0,0,3.148-3.479A4.6,4.6,0,0,0,176.052,178.052Z" transform="translate(-130.49 -174.625)" fill="#263238"/><path d="M185.96,198a2.9,2.9,0,0,1,.327.6c.189.38.441.916.718,1.537l.05.115h-.132l-.63.054c-.434,0-.8.078-1.228.072a.224.224,0,0,1-.164-.139.26.26,0,0,1,0-.169,2.33,2.33,0,0,1,.057-.241l.113-.428a3.954,3.954,0,0,1,.264-.832,3.909,3.909,0,0,1-.132.862l-.088.428c-.031.145-.088.368,0,.35.315,0,.762-.066,1.177-.09l.63-.054-.082.133c-.271-.6-.5-1.17-.63-1.561a2.29,2.29,0,0,1-.252-.639Z" transform="translate(-145.579 -183.907)" fill="#ffc107"/><path d="M151.557,281.634l27.926-.814,12.152,45.422-2.235,52.1H174.634l1.807-50.992-10.8-31.621,1.662,84.633-14.923.211-1.568-79.551c-.069-2.213-.825-7.2-.542-9.393Z" transform="translate(-132.737 -216.796)" fill="#263238"/><path d="M175.265,305.453a5.836,5.836,0,0,1-1.366-.078c-.844-.1-2-.265-3.262-.506s-2.4-.518-3.218-.742a5.346,5.346,0,0,1-1.259-.434c0-.09,2.053.38,4.571.868S175.278,305.363,175.265,305.453Z" transform="translate(-138.644 -225.875)" fill="#455a64"/><path d="M203.422,437.737c0,.084-3.344.157-7.468.157s-7.474-.072-7.474-.157,3.344-.157,7.474-.157S203.422,437.646,203.422,437.737Z" transform="translate(-146.91 -279.047)" fill="#455a64"/><path d="M168.621,442.177c0,.09-3.249.157-7.254.157s-7.247-.066-7.247-.157,3.249-.157,7.247-.157S168.621,442.092,168.621,442.177Z" transform="translate(-134.185 -280.81)" fill="#455a64"/><path d="M173.243,387.508c-.088,0-.479-18.491-.875-41.3s-.63-41.31-.548-41.31.485,18.485.875,41.3S173.338,387.508,173.243,387.508Z" transform="translate(-140.734 -226.359)" fill="#455a64"/><path d="M203.138,376.022a1.473,1.473,0,0,1,0-.247v-.723c0-.651.05-1.586.088-2.773.088-2.412.214-5.914.371-10.207.34-8.633.819-20.534,1.341-33.671v-.313c-3.306-12.661-6.3-24.152-8.469-32.466l-2.519-9.833c-.29-1.152-.51-2.05-.667-2.677-.076-.3-.126-.525-.17-.7a1,1,0,0,1-.044-.241,1.293,1.293,0,0,1,.076.235c.05.169.113.4.2.687.17.6.416,1.519.73,2.665.63,2.327,1.517,5.679,2.626,9.809,2.191,8.308,5.214,19.769,8.563,32.447v.4c-.56,13.137-1.07,25.032-1.442,33.665-.2,4.3-.359,7.777-.472,10.2-.063,1.206-.113,2.122-.145,2.773,0,.307-.038.549-.044.723A1.1,1.1,0,0,1,203.138,376.022Z" transform="translate(-148.609 -217.332)" fill="#455a64"/><path d="M197.466,356.5a17.51,17.51,0,0,1-3.262.693c-1.36.223-2.519.38-3.041.4v-.121c.17.048.258.078.258.1s-.107,0-.283,0h-.378l.378-.108c.491-.139,1.65-.368,3.01-.6a17.721,17.721,0,0,1,3.318-.368Z" transform="translate(-147.754 -246.849)" fill="#455a64"/><path d="M197.548,359.045a16.97,16.97,0,0,1-2.941-.127,17.322,17.322,0,0,1-2.928-.307,19.447,19.447,0,0,1,5.868.434Z" transform="translate(-148.095 -247.664)" fill="#455a64"/><path d="M152.16,282.592a3.881,3.881,0,0,0,2.758,1.4,12.969,12.969,0,0,0,3.381-.06c7.21-.766,14.847-1.471,21.906-3.117-9.136.488-18.789.326-27.926.814l-.094.748" transform="translate(-133.459 -216.796)" opacity="0.2"/><g transform="translate(28.114 78.125)" opacity="0.2"><path d="M167.11,304.21l5.151,19.136-.359-18.328Z" transform="translate(-167.11 -304.21)"/></g></g></g></svg>