<svg xmlns="http://www.w3.org/2000/svg" width="285" height="280.062" viewBox="0 0 285 280.062"><g transform="translate(-53.681 -80.058)"><g transform="translate(145.292 81.569)"><path d="M297.48,359.678l-94.128-.432a20.5,20.5,0,0,1-20.412-20.624l.992-236.012a20.511,20.511,0,0,1,20.6-20.419l94.136.439a20.5,20.5,0,0,1,20.391,20.632l-1,236.012A20.511,20.511,0,0,1,297.48,359.678Z" transform="translate(-182.939 -82.19)" fill="#263238"/><path d="M301.065,94.191l-18.25-.085a4.529,4.529,0,0,0-4.451,4.614v3.31a4.543,4.543,0,0,1-4.451,4.614l-35.579-.17a4.529,4.529,0,0,1-4.408-4.649v-3.31a4.55,4.55,0,0,0-4.415-4.656h-6.421l-15.968-.078a14.366,14.366,0,0,0-14.43,14.3l-.971,230.342a14.359,14.359,0,0,0,14.3,14.416l93.944.439a14.373,14.373,0,0,0,14.43-14.3l.971-230.342a14.359,14.359,0,0,0-14.3-14.444Z" transform="translate(-185.497 -85.565)" fill="#fafafa"/><path d="M351.478,129.863a.709.709,0,1,1-.666-.673A.673.673,0,0,1,351.478,129.863Z" transform="translate(-231.614 -95.878)" fill="#263238"/><path d="M351.5,133.283a.673.673,0,1,1-.673-.673.673.673,0,0,1,.673.673Z" transform="translate(-231.64 -96.875)" fill="#263238"/><path d="M351.508,136.738a.6.6,0,1,1-.709-.638A.709.709,0,0,1,351.508,136.738Z" transform="translate(-231.688 -97.891)" fill="#263238"/><rect width="100.139" height="63.532" rx="4.3" transform="translate(23.928 70.322)" fill="#f5f5f5"/><rect width="100.139" height="63.532" rx="4.3" transform="translate(21.178 66.197)" fill="#e0e0e0"/><path d="M319.173,156.726h-.957l-.177.439h-.489l.914-2.055h.475l.921,2.055h-.5Zm-.149-.361-.326-.787-.326.787Z" transform="translate(-222.145 -103.428)" fill="#263238"/><path d="M321.11,155.107h.936a1.035,1.035,0,1,1,0,2.055h-.936Zm.914,1.666a.638.638,0,0,0,0-1.276h-.432v1.276Z" transform="translate(-223.182 -103.425)" fill="#263238"/><path d="M324.55,155.107h.936a1.035,1.035,0,1,1,0,2.055h-.936Zm.907,1.666a.638.638,0,0,0,0-1.276h-.432v1.276Z" transform="translate(-224.184 -103.425)" fill="#263238"/><path d="M331.031,157.155v-1.233l-.61,1.013h-.213l-.6-.985v1.2h-.447V155.1h.39l.773,1.276.758-1.276h.39v2.055Z" transform="translate(-225.527 -103.425)" fill="#263238"/><path d="M332.939,156.071a1.127,1.127,0,1,1,1.127,1.063,1.07,1.07,0,0,1-1.127-1.063Zm1.772,0a.645.645,0,1,0-.645.659.631.631,0,0,0,.645-.659Z" transform="translate(-226.627 -103.361)" fill="#263238"/><path d="M337.951,157.155l-.4-.574h-.439v.574h-.475V155.1h.886c.553,0,.893.283.893.709a.709.709,0,0,1-.418.652l.461.659Zm-.447-1.673h-.39v.709h.39c.291,0,.432-.135.432-.361s-.142-.34-.432-.34Z" transform="translate(-227.706 -103.425)" fill="#263238"/><path d="M341.285,156.78v.376H339.69V155.1h1.559v.383h-1.084v.447h.957v.369h-.957v.475Z" transform="translate(-228.594 -103.425)" fill="#263238"/><path d="M343.7,156.458h-.517v.5h-.4v-.5h-.51V156.1h.51v-.5h.376v.5h.517Z" transform="translate(-229.348 -103.571)" fill="#263238"/><path d="M208.16,133.231a2.587,2.587,0,0,1,4.486-1.595l-.709.645a1.481,1.481,0,0,0-1.177-.553,1.5,1.5,0,1,0,0,3.005,1.481,1.481,0,0,0,1.177-.553l.709.645a2.587,2.587,0,0,1-4.486-1.595Z" transform="translate(-190.285 -96.348)" fill="#263238"/><path d="M218.47,133.987v2.062h-.978V135.6a1.169,1.169,0,0,1-1.1.5c-.85,0-1.354-.468-1.354-1.091s.454-1.084,1.552-1.084h.836c0-.447-.269-.709-.836-.709a1.758,1.758,0,0,0-1.042.333l-.376-.709a2.778,2.778,0,0,1,1.559-.439C217.847,132.378,218.47,132.9,218.47,133.987Zm-1.042.921v-.369h-.709c-.489,0-.645.177-.645.418s.227.439.6.439a.78.78,0,0,0,.758-.489Z" transform="translate(-192.289 -96.813)" fill="#263238"/><path d="M223.46,132.368v.971h-.234a.893.893,0,0,0-.964,1.006v1.708H221.22v-3.615h1v.475A1.453,1.453,0,0,1,223.46,132.368Z" transform="translate(-194.089 -96.803)" fill="#263238"/><path d="M228.81,130.52v4.961h-.992v-.369a1.375,1.375,0,0,1-1.127.468,1.864,1.864,0,0,1,0-3.721,1.418,1.418,0,0,1,1.084.439v-1.751Zm-.992,3.175a.921.921,0,1,0-.914,1,.907.907,0,0,0,.914-1Z" transform="translate(-195.173 -96.266)" fill="#263238"/><path d="M231.27,135.714l.347-.758a2.452,2.452,0,0,0,1.262.354c.482,0,.659-.128.659-.333,0-.588-2.183,0-2.183-1.417,0-.709.624-1.169,1.673-1.169a3,3,0,0,1,1.417.319l-.347.744a2.126,2.126,0,0,0-1.042-.269c-.468,0-.666.149-.666.34,0,.617,2.176,0,2.176,1.417,0,.673-.624,1.148-1.7,1.148A3.126,3.126,0,0,1,231.27,135.714Z" transform="translate(-197.016 -96.81)" fill="#263238"/><path d="M266.429,348.426H265.21v-.886h3.544v.886h-1.212V351.5h-1.12Z" transform="translate(-206.901 -159.474)" fill="#263238"/><path d="M270.438,349.36a2.211,2.211,0,1,1,2.2,2.062,2.077,2.077,0,0,1-2.2-2.062Zm3.274,0a1.063,1.063,0,1,0-.288.8A1.07,1.07,0,0,0,273.712,349.36Z" transform="translate(-208.422 -159.317)" fill="#263238"/><path d="M278.1,348.426H276.88v-.886h3.544v.886h-1.212V351.5H278.1Z" transform="translate(-210.3 -159.474)" fill="#263238"/><path d="M284.713,350.736h-1.68l-.312.765H281.58l1.751-3.962h1.106l1.751,3.962h-1.162Zm-.333-.829-.51-1.269-.51,1.269Z" transform="translate(-211.669 -159.474)" fill="#263238"/><path d="M288.48,347.54h1.12v3.076h1.892v.886H288.48Z" transform="translate(-213.679 -159.474)" fill="#263238"/><path d="M252.83,371.015v1.226H252.3v-1.212a4.012,4.012,0,0,1-2.559-.978l.312-.609a3.65,3.65,0,0,0,2.247.9v-2.835c-1.177-.291-2.374-.652-2.374-2.062,0-1.028.709-1.914,2.374-2.041V362.17h.532v1.219a4.252,4.252,0,0,1,2.169.666l-.269.631a3.94,3.94,0,0,0-1.9-.624V366.9c1.2.284,2.481.624,2.481,2.062C255.311,370.023,254.531,370.916,252.83,371.015Zm-.532-4.252v-2.672c-1.106.1-1.595.666-1.595,1.34,0,.829.716,1.127,1.595,1.354Zm2.233,2.247c0-.85-.78-1.134-1.7-1.361v2.672c1.177-.064,1.7-.609,1.7-1.29Z" transform="translate(-202.395 -163.735)" fill="#263238"/><path d="M264.957,364v7.477h-.773v-6.768H262.42V364Z" transform="translate(-206.089 -164.268)" fill="#263238"/><path d="M274.2,369.394c0,1.318-1.12,2.126-2.906,2.126s-2.885-.829-2.885-2.126a1.878,1.878,0,0,1,1.417-1.843,1.687,1.687,0,0,1-1.177-1.644c0-1.219,1.035-1.977,2.615-1.977s2.644.758,2.644,1.977a1.694,1.694,0,0,1-1.2,1.644A1.885,1.885,0,0,1,274.2,369.394Zm-.787,0c0-.921-.794-1.5-2.126-1.5s-2.126.574-2.126,1.5.78,1.51,2.126,1.51,2.126-.6,2.126-1.524Zm-2.126-2.126c1.169,0,1.864-.524,1.864-1.34s-.709-1.354-1.864-1.354-1.85.51-1.85,1.347.695,1.354,1.857,1.354Z" transform="translate(-207.833 -164.248)" fill="#263238"/><path d="M278.09,367.736c0-2.381,1.247-3.806,2.977-3.806s2.991,1.417,2.991,3.806-1.262,3.806-2.991,3.806S278.09,370.117,278.09,367.736Zm5.181,0c0-2-.9-3.1-2.2-3.1s-2.2,1.1-2.2,3.1.893,3.1,2.2,3.1S283.271,369.735,283.271,367.736Z" transform="translate(-210.653 -164.248)" fill="#263238"/><path d="M289.068,373.584a1.779,1.779,0,0,1-.149.624l-.447,1.474h-.482l.362-1.552a.539.539,0,0,1-.383-.546.553.553,0,0,1,.56-.574A.56.56,0,0,1,289.068,373.584Z" transform="translate(-213.53 -166.892)" fill="#263238"/><path d="M296.19,370.791v.709h-5.28v-.539l3.111-3.048c.843-.836,1.006-1.34,1.006-1.85,0-.865-.61-1.418-1.751-1.418a2.53,2.53,0,0,0-2.041.829l-.546-.468a3.338,3.338,0,0,1,2.651-1.07c1.517,0,2.474.773,2.474,2.02a3.077,3.077,0,0,1-1.226,2.339l-2.544,2.5Z" transform="translate(-214.322 -164.248)" fill="#263238"/><path d="M299.74,367.736c0-2.381,1.247-3.806,2.977-3.806s3,1.417,3,3.806-1.262,3.806-3,3.806S299.74,370.117,299.74,367.736Zm5.181,0c0-2-.9-3.1-2.2-3.1s-2.2,1.1-2.2,3.1.9,3.1,2.2,3.1S304.921,369.735,304.921,367.736Z" transform="translate(-216.958 -164.248)" fill="#263238"/><rect width="95.751" height="25.132" rx="12.566" transform="translate(23.913 218.698)" fill="#ffc107"/><g transform="translate(23.913 218.698)" opacity="0.3"><rect width="95.751" height="25.132" rx="12.566"/></g><rect width="95.751" height="25.132" rx="12.566" transform="translate(20.193 218.698)" fill="#ffc107"/><path d="M272.951,405.69c0,1.29-.928,2.07-2.474,2.07H269v1.8h-.843V403.62h2.318C272.023,403.62,272.951,404.4,272.951,405.69Zm-.843,0c0-.85-.574-1.332-1.658-1.332h-1.417v2.665h1.417C271.534,407.022,272.108,406.54,272.108,405.69Z" transform="translate(-207.76 -175.808)" fill="#fff"/><path d="M279.685,408.078h-3.161l-.652,1.481H275l2.693-5.939h.85l2.7,5.939h-.893Zm-.3-.709-1.283-2.913-1.283,2.977Z" transform="translate(-209.753 -175.808)" fill="#fff"/><path d="M286.424,407.5v2.055h-.843v-2.07l-2.36-3.87h.907l1.907,3.133,1.907-3.133h.843Z" transform="translate(-212.147 -175.808)" fill="#fff"/><path d="M284.825,318.87a6.876,6.876,0,0,0,1.325-.227,4.877,4.877,0,0,0,2.835-2.4,5.02,5.02,0,0,0,.432-1.24,7.4,7.4,0,0,0,.078-1.453v-3.338c0-2.4,0-5.131-.057-8.143s-.035-6.322-.057-9.873v-2.707a4.777,4.777,0,0,0-.631-2.594,4.621,4.621,0,0,0-2-1.864,5.563,5.563,0,0,0-2.835-.461l-25.961.1a4.656,4.656,0,0,0-3.026,1.141,4.571,4.571,0,0,0-1.531,2.8,10.484,10.484,0,0,0-.057,1.644v23.3a5.351,5.351,0,0,0,.475,2.651,4.586,4.586,0,0,0,1.736,1.914c1.474.992,3.289.638,4.919.709h22.914l-3.884.05-14.3.106h-7.258a4.962,4.962,0,0,1-2.559-.709,4.883,4.883,0,0,1-1.857-2.041,5.606,5.606,0,0,1-.517-2.785v-5.826c0-3.99-.035-8.179-.05-12.524v-4.947a12.557,12.557,0,0,1,.057-1.7,4.961,4.961,0,0,1,1.658-3.019,5.039,5.039,0,0,1,3.267-1.233l25.954-.071a5.812,5.812,0,0,1,2.956.5,4.961,4.961,0,0,1,2.126,2,5.1,5.1,0,0,1,.659,2.757v24.062a7.3,7.3,0,0,1-.1,1.488,5.59,5.59,0,0,1-.461,1.269,4.89,4.89,0,0,1-2.977,2.41,4.544,4.544,0,0,1-1,.156Z" transform="translate(-203.333 -140.996)" fill="#ffc107"/><path d="M280.528,311.311h-.95l-2.6.035-8.753.078h-.071v-.071c-.071-.461-.142-.95-.213-1.417-.61-4.252-1.148-8.023-1.5-10.5l.057.043H263.54a.77.77,0,0,1-.22,0h.836l2.332-.043h.043v.05c.369,2.466.928,6.251,1.559,10.489.071.5.142.985.213,1.417l-.085-.071H280.28Z" transform="translate(-206.351 -145.465)" fill="#ffc107"/><path d="M269.394,309.607h.95l2.637-.043,9.079-.078-.078.064c.262-1.531.539-3.182.829-4.9.156-.879.3-1.743.439-2.566l.085.092-10.7.035h-3.175l3.168-.043,10.7-.092h.092v.092c-.142.829-.283,1.694-.439,2.573-.291,1.715-.574,3.367-.836,4.9v.064H269.458Z" transform="translate(-207.889 -146.234)" fill="#ffc107"/><path d="M273.559,320.462a.906.906,0,0,0-.071-.291,1.276,1.276,0,0,0-.454-.638,1.162,1.162,0,1,0-1.091,2.027,1.191,1.191,0,0,0,1.1-.163,1.212,1.212,0,0,0,.447-.638c.057-.184.057-.3.071-.3a.667.667,0,0,1,0,.312,1.212,1.212,0,0,1-.439.709,1.276,1.276,0,0,1-1.219.213,1.318,1.318,0,0,1-.9-1.233,1.3,1.3,0,0,1,.865-1.226,1.254,1.254,0,0,1,1.673.907.631.631,0,0,1,.021.319Z" transform="translate(-208.588 -151.207)" fill="#ffc107"/><path d="M284.726,320.382a.923.923,0,0,0-.071-.3,1.233,1.233,0,0,0-.454-.631,1.184,1.184,0,0,0-1.106-.149,1.169,1.169,0,0,0-.744,1.092,1.155,1.155,0,0,0,.758,1.077,1.169,1.169,0,0,0,1.1-.156,1.318,1.318,0,0,0,.454-.645c.05-.184.05-.291.064-.291a.631.631,0,0,1,0,.3,1.212,1.212,0,0,1-.439.709,1.3,1.3,0,0,1-2.126-1.013,1.311,1.311,0,0,1,.865-1.233,1.276,1.276,0,0,1,1.226.2,1.233,1.233,0,0,1,.446.709.666.666,0,0,1,.028.326Z" transform="translate(-211.838 -151.183)" fill="#ffc107"/><path d="M290.458,298.854a3.544,3.544,0,1,1-3.544-3.494,3.544,3.544,0,0,1,3.544,3.494Z" transform="translate(-212.19 -144.277)" fill="#ffc107"/><path d="M288.528,298.41v2.665h-.617v-2.169h-.532v-.5Z" transform="translate(-213.358 -145.165)" fill="#fff"/><rect width="100.139" height="63.532" rx="4.3" transform="translate(18.002 62.767)" fill="#ffc107"/><path d="M229.829,189.826c0,.815-.645,1.283-1.878,1.283H225.52v-4.7h2.3c1.177,0,1.779.489,1.779,1.219a1.127,1.127,0,0,1-.624,1.035,1.162,1.162,0,0,1,.858,1.162Zm-3.225-2.6v1.113h1.077c.532,0,.822-.191.822-.56s-.291-.553-.822-.553Zm2.126,2.488c0-.4-.3-.588-.865-.588H226.6v1.162h1.269c.567,0,.872-.17.872-.574Z" transform="translate(-195.341 -112.544)" fill="#fff"/><path d="M235.6,190.1h-2.183L233,191.109H231.89l2.126-4.7h1.07l2.126,4.7h-1.141Zm-.34-.829-.744-1.8-.709,1.8Z" transform="translate(-197.197 -112.544)" fill="#fff"/><path d="M244.323,186.4v4.671h-.893l-2.346-2.835v2.835H240v-4.7h.9l2.332,2.835V186.37Z" transform="translate(-199.559 -112.533)" fill="#fff"/><path d="M249.378,189.247l-.631.659v1.162H247.67v-4.7h1.077v2.19l2.084-2.19h1.2l-1.942,2.126,2.062,2.573h-1.276Z" transform="translate(-201.793 -112.533)" fill="#fff"/><path d="M228.822,217.514h-.865v1.134h-.439v-1.134H225.08v-.319l2.289-2.835h.5l-2.211,2.785h1.878v-1h.425v1h.865Z" transform="translate(-195.213 -120.685)" fill="#fff"/><path d="M233.548,217.4c0,.709-.524,1.276-1.566,1.276a2.233,2.233,0,0,1-1.552-.553l.22-.354a1.878,1.878,0,0,0,1.332.5c.709,0,1.113-.333,1.113-.872s-.369-.858-1.169-.858h-.3v-.319l1.2-1.5h-2.211v-.4h2.778v.319l-1.219,1.531C233.088,216.222,233.548,216.711,233.548,217.4Z" transform="translate(-196.771 -120.676)" fill="#fff"/><path d="M238.478,217.368c0,.709-.517,1.3-1.566,1.3a2.233,2.233,0,0,1-1.552-.553l.22-.354a1.857,1.857,0,0,0,1.325.5c.709,0,1.12-.361,1.12-.886s-.347-.9-1.417-.9h-.914l.22-2.162h2.36v.4H236.3l-.149,1.375h.553C237.982,216.092,238.478,216.6,238.478,217.368Z" transform="translate(-198.207 -120.673)" fill="#fff"/><path d="M243.789,217.343a1.347,1.347,0,0,1-1.474,1.325c-1.148,0-1.765-.794-1.765-2.126a2.047,2.047,0,0,1,2.991-2l-.177.354a1.56,1.56,0,0,0-.836-.2c-.936,0-1.531.6-1.531,1.765a3.381,3.381,0,0,0,0,.354,1.368,1.368,0,0,1,1.318-.709,1.3,1.3,0,0,1,1.474,1.233Zm-.439,0c0-.567-.418-.928-1.084-.928a.992.992,0,0,0-1.106.943c0,.475.39.921,1.134.921a.943.943,0,0,0,1.056-.921Z" transform="translate(-199.719 -120.67)" fill="#fff"/><path d="M257.229,219.079l-1.035-1.354-1.035,1.354h-.489l1.283-1.666-1.226-1.573h.5l.971,1.269.978-1.269h.482l-1.226,1.573,1.3,1.666Z" transform="translate(-203.831 -121.116)" fill="#fff"/><path d="M261.866,219.079l-1.028-1.354-1.042,1.354h-.5l1.283-1.666-1.219-1.573h.5l.971,1.269.971-1.269h.482l-1.219,1.573,1.3,1.666Z" transform="translate(-205.18 -121.116)" fill="#fff"/><path d="M266.53,219.079l-1.035-1.354-1.035,1.354H264l1.283-1.666L264,215.84h.5l.971,1.269.978-1.269h.482l-1.226,1.573,1.3,1.666Z" transform="translate(-206.549 -121.116)" fill="#fff"/><path d="M271.159,219.079l-1.028-1.354-1.035,1.354h-.5l1.283-1.666-1.219-1.573h.489l.978,1.269.971-1.269h.482l-1.219,1.573,1.29,1.666Z" transform="translate(-207.889 -121.116)" fill="#fff"/><path d="M287.2,219.079l-1.035-1.354-1.035,1.354h-.489l1.283-1.666L284.7,215.84h.5l.971,1.269.978-1.269h.482l-1.226,1.573,1.3,1.666Z" transform="translate(-212.56 -121.116)" fill="#fff"/><path d="M291.844,219.079l-1.028-1.354-1.021,1.354h-.5l1.283-1.666-1.219-1.573h.489l.978,1.269.971-1.269h.482l-1.219,1.573,1.29,1.666Z" transform="translate(-213.917 -121.116)" fill="#fff"/><path d="M296.479,219.079l-1.028-1.354-1.035,1.354h-.5l1.283-1.666-1.226-1.573h.5l.971,1.269.978-1.269h.475l-1.219,1.573,1.3,1.666Z" transform="translate(-215.263 -121.116)" fill="#fff"/><path d="M301.129,219.079l-1.028-1.354-1.042,1.354h-.489l1.283-1.666-1.226-1.573h.5l.978,1.269.971-1.269h.482l-1.219,1.573,1.29,1.666Z" transform="translate(-216.617 -121.116)" fill="#fff"/><path d="M315.995,214.32v4.316h-.411v-3.919H314.57v-.4Z" transform="translate(-221.278 -120.673)" fill="#fff"/><path d="M320.778,217.4c0,.709-.524,1.276-1.566,1.276a2.233,2.233,0,0,1-1.552-.553l.213-.354a1.892,1.892,0,0,0,1.34.5c.709,0,1.106-.333,1.106-.872s-.361-.858-1.162-.858h-.3v-.319l1.191-1.5h-2.2v-.4h2.771v.319l-1.219,1.531C320.318,216.222,320.778,216.711,320.778,217.4Z" transform="translate(-222.177 -120.676)" fill="#fff"/><path d="M326.572,217.514h-.865v1.134h-.439v-1.134H322.83v-.319l2.289-2.835h.489l-2.2,2.785h1.871v-1h.432v1h.865Z" transform="translate(-223.683 -120.685)" fill="#fff"/><path d="M331.511,218.232v.4h-3.026v-.291l1.793-1.758c.489-.482.581-.773.581-1.07,0-.5-.354-.808-1.013-.808a1.467,1.467,0,0,0-1.177.482l-.319-.269a1.935,1.935,0,0,1,1.531-.617c.879,0,1.418.447,1.418,1.162a1.765,1.765,0,0,1-.709,1.354l-1.467,1.417Z" transform="translate(-225.291 -120.666)" fill="#fff"/><path d="M222,232.606a1.127,1.127,0,0,1,1.963-.709l-.3.284a.645.645,0,0,0-.517-.241.659.659,0,1,0,0,1.318.652.652,0,0,0,.517-.248l.3.283a1.042,1.042,0,0,1-.85.369A1.056,1.056,0,0,1,222,232.606Z" transform="translate(-194.316 -125.684)" fill="#fff"/><path d="M226.33,233.213h-.957l-.184.439H224.7l.921-2.062h.468l.921,2.062h-.5Zm-.156-.361-.326-.794-.326.794Z" transform="translate(-195.102 -125.703)" fill="#fff"/><path d="M229.627,233.652l-.4-.574H228.8v.574h-.475V231.59h.886c.553,0,.9.291.9.751a.709.709,0,0,1-.425.652l.461.659Zm-.447-1.673H228.8v.709h.39c.291,0,.439-.135.439-.354S229.471,231.98,229.181,231.98Z" transform="translate(-196.16 -125.703)" fill="#fff"/><path d="M231.13,233.432l.163-.354a1.212,1.212,0,0,0,.709.213c.283,0,.4-.092.4-.22,0-.39-1.2-.12-1.2-.886,0-.354.283-.645.872-.645a1.354,1.354,0,0,1,.709.184l-.142.361a1.2,1.2,0,0,0-.574-.163c-.283,0-.39.106-.39.241,0,.376,1.2.113,1.2.872,0,.34-.283.638-.872.638A1.488,1.488,0,0,1,231.13,233.432Z" transform="translate(-196.975 -125.689)" fill="#fff"/><path d="M237.075,231.59v2.062H236.6v-.843h-.936v.843h-.475V231.59h.475v.815h.936v-.815Z" transform="translate(-198.158 -125.703)" fill="#fff"/><path d="M238.369,232.561a1.127,1.127,0,1,1,1.127,1.063,1.063,1.063,0,0,1-1.127-1.063Zm1.765,0a.645.645,0,1,0-.638.659.624.624,0,0,0,.638-.659Z" transform="translate(-199.083 -125.639)" fill="#fff"/><path d="M242.06,231.59h.475V233.3h1.035v.39h-1.51Z" transform="translate(-200.159 -125.703)" fill="#fff"/><path d="M244.57,231.589h.936a1.035,1.035,0,1,1,0,2.062h-.936Zm.907,1.673a.638.638,0,0,0,0-1.276h-.432V233.3Z" transform="translate(-200.89 -125.702)" fill="#fff"/><path d="M249.595,233.31v.383H248V231.63h1.559v.383h-1.084v.447h.943v.376h-.957v.475Z" transform="translate(-201.889 -125.715)" fill="#fff"/><path d="M252.1,233.652l-.4-.574h-.439v.574h-.475V231.59h.893c.546,0,.893.291.893.751a.709.709,0,0,1-.425.652l.461.659Zm-.447-1.673h-.39v.709h.383c.291,0,.439-.135.439-.354s-.142-.354-.439-.354Z" transform="translate(-202.701 -125.703)" fill="#fff"/><path d="M221.66,242.99l.51-.61a.9.9,0,0,0,.709.432c.369,0,.56-.22.56-.652v-1.892h-1.417v-.709h2.3v2.573a1.283,1.283,0,0,1-1.417,1.467,1.6,1.6,0,0,1-1.247-.609Z" transform="translate(-194.217 -128.025)" fill="#fff"/><path d="M226.33,244.176a.549.549,0,1,1,1.1,0,.539.539,0,0,1-.553.553.532.532,0,0,1-.546-.553Z" transform="translate(-195.577 -129.21)" fill="#fff"/><path d="M234.393,239.52l-1.3,3.969H232.1l-.872-2.686-.9,2.686h-.978l-1.3-3.969H229l.9,2.792.936-2.792h.843l.907,2.835.928-2.835Z" transform="translate(-196.078 -128.013)" fill="#fff"/><path d="M237.52,239.319a.553.553,0,1,1,.549.49.553.553,0,0,1-.549-.49Zm.106.921h.886v3.048h-.886Z" transform="translate(-198.836 -127.811)" fill="#fff"/><path d="M240.08,239.19h.879v4.2h-.879Z" transform="translate(-199.582 -127.917)" fill="#fff"/><path d="M242.48,239.19h.886v4.2h-.886Z" transform="translate(-200.281 -127.917)" fill="#fff"/><path d="M244.73,239.318a.5.5,0,0,1,.553-.489.5.5,0,0,1,.546.475.553.553,0,0,1-1.1,0Zm.106.921h.886v3.048h-.886Z" transform="translate(-200.936 -127.811)" fill="#fff"/><path d="M249.9,242.111v1.736h-.822v-.383a.992.992,0,0,1-.928.425c-.709,0-1.141-.4-1.141-.921s.376-.914,1.3-.914h.709c0-.376-.227-.6-.709-.6a1.418,1.418,0,0,0-.872.283l-.319-.624a2.374,2.374,0,0,1,1.311-.369C249.363,240.75,249.9,241.182,249.9,242.111Zm-.879.773v-.312h-.6c-.411,0-.546.156-.546.361s.191.369.5.369a.666.666,0,0,0,.645-.418Z" transform="translate(-201.6 -128.371)" fill="#fff"/><path d="M257.366,242.115v1.744h-.879v-1.609c0-.5-.227-.709-.581-.709s-.673.255-.673.8v1.531h-.886v-1.609c0-.5-.206-.709-.574-.709s-.673.255-.673.8v1.531h-.879v-3.048h.843v.347a1.254,1.254,0,0,1,.957-.4,1.134,1.134,0,0,1,1,.5,1.417,1.417,0,0,1,1.106-.5,1.184,1.184,0,0,1,1.24,1.325Z" transform="translate(-203.118 -128.382)" fill="#fff"/><path d="M260.18,243.564l.3-.631a2.126,2.126,0,0,0,1.056.291c.411,0,.56-.106.56-.276,0-.5-1.843,0-1.843-1.2,0-.581.524-.992,1.417-.992a2.5,2.5,0,0,1,1.169.269l-.3.631a1.722,1.722,0,0,0-.872-.227c-.4,0-.567.12-.567.283,0,.517,1.836,0,1.836,1.219,0,.567-.524.964-1.418.964a2.651,2.651,0,0,1-1.34-.326Z" transform="translate(-205.436 -128.371)" fill="#fff"/><path d="M310.36,241.648c0-1.311.709-2.048,1.7-2.048s1.7.709,1.7,2.048-.709,2.055-1.7,2.055S310.36,242.959,310.36,241.648Zm2.474,0c0-.9-.312-1.276-.773-1.276s-.773.376-.773,1.276.319,1.276.773,1.276.773-.376.773-1.276Z" transform="translate(-220.051 -128.036)" fill="#fff"/><path d="M319.05,242.38a1.361,1.361,0,0,1-1.5,1.325,1.723,1.723,0,0,1-1.779-1.97,1.935,1.935,0,0,1,2.027-2.126,2.126,2.126,0,0,1,1.106.269l-.34.709a1.3,1.3,0,0,0-.744-.2,1.056,1.056,0,0,0-1.12,1.155,1.34,1.34,0,0,1,.985-.354,1.254,1.254,0,0,1,1.361,1.191Zm-.886.05a.6.6,0,0,0-.673-.6.624.624,0,0,0-.709.6c0,.34.255.588.709.588a.6.6,0,0,0,.673-.588Z" transform="translate(-221.626 -128.038)" fill="#fff"/><path d="M322.234,238.56h.794l-1.871,5.337h-.787Z" transform="translate(-222.967 -127.733)" fill="#fff"/><path d="M326.946,242.912v.751h-3.019v-.6l1.531-1.417c.354-.333.418-.539.418-.709,0-.312-.22-.5-.638-.5a.978.978,0,0,0-.822.4l-.666-.425a1.821,1.821,0,0,1,1.573-.709c.886,0,1.474.454,1.474,1.169a1.58,1.58,0,0,1-.659,1.254l-.914.858Z" transform="translate(-223.951 -128.066)" fill="#fff"/><path d="M332.334,242.823h-.645v.836H330.8v-.836H328.67v-.617l1.871-2.516h.964l-1.736,2.388h1.07v-.751h.865v.744h.645Z" transform="translate(-225.384 -128.062)" fill="#fff"/><g transform="translate(78.159 75.89)" opacity="0.2"><path d="M305.389,193.812a6.209,6.209,0,0,0-6.528-4.522,7.8,7.8,0,0,0-2.644.624,4.853,4.853,0,0,0-2.835,5.521c.56,1.758,2.268,2.878,3.962,3.615s3.848,1.283,5.6.461a4.869,4.869,0,0,0,2.58-4.6A5.78,5.78,0,0,0,305.389,193.812Z" transform="translate(-293.218 -189.266)" fill="#fff"/></g><g transform="translate(17.988 62.767)" opacity="0.2"><path d="M305.191,170.75H211.637a3.317,3.317,0,0,0-3.317,3.324v16.769c5.9,4.125,14.019,4.848,21.22,3.345,8.5-1.779,16.166-6.116,24.1-9.674s16.592-6.379,25.132-4.961c8.066,1.382,14.94,6.379,22.226,10.121a43.148,43.148,0,0,0,7.484,3.019V174.074a3.324,3.324,0,0,0-3.289-3.324Z" transform="translate(-208.32 -170.75)" fill="#fff"/></g></g><g transform="translate(53.681 80.058)"><path d="M57.667,90.874v.213c.17,1.014,1.417,5.309,2.013,5.344s2.02-.709,1.963-1.3-1.736-5.365-1.736-5.365-.319-.709-1.651-.56C57.426,89.322,57.667,90.874,57.667,90.874Z" transform="translate(-54.832 -82.715)" fill="#ffbe9d"/><path d="M60.706,87.673a.411.411,0,0,0,0,.213c.177,1.021,1.417,5.309,2.013,5.351s2.027-.709,1.97-1.3-1.751-5.351-1.751-5.351-.319-.709-1.651-.56C60.465,86.128,60.706,87.673,60.706,87.673Z" transform="translate(-55.718 -81.789)" fill="#ffbe9d"/><path d="M63.986,85.59V85.8c.17,1.014,1.417,5.309,2.013,5.344s2.027-.709,1.97-1.3-1.758-5.351-1.758-5.351-.312-.709-1.651-.56C63.738,84.038,63.986,85.59,63.986,85.59Z" transform="translate(-56.672 -81.18)" fill="#ffbe9d"/><path d="M67.236,83.571a.411.411,0,0,0,0,.213c.17,1.021,1.417,5.308,2.013,5.351s2.027-.709,1.97-1.3-1.751-5.351-1.751-5.351-.319-.709-1.658-.567C67,82.026,67.236,83.571,67.236,83.571Z" transform="translate(-57.619 -80.593)" fill="#ffbe9d"/><path d="M62.311,94.1a8.5,8.5,0,0,1-.787-2.041A8.625,8.625,0,0,1,61,90a8.505,8.505,0,0,1,.787,2.041,8.625,8.625,0,0,1,.524,2.062Z" transform="translate(-55.813 -82.954)" fill="#eb996e"/><path d="M65.668,92.378a17.385,17.385,0,0,1-1.077-2.913,16.839,16.839,0,0,1-.8-3.005,17.718,17.718,0,0,1,1.07,2.92A17.9,17.9,0,0,1,65.668,92.378Z" transform="translate(-56.625 -81.923)" fill="#eb996e"/><g transform="translate(9.688 3.602)" opacity="0.78"><path d="M69.228,91.058a16.4,16.4,0,0,1-1.077-2.913,16.676,16.676,0,0,1-.8-3.005,17.719,17.719,0,0,1,1.07,2.92,17.9,17.9,0,0,1,.808,3Z" transform="translate(-67.35 -85.14)" fill="#eb996e"/></g><path d="M59.972,99.511c-.071-.255-2.332-8.951-2.332-8.951H68.626c.411.709,1.155,7.669,1.155,7.669l-.546,2.282s-7.584,3.367-7.8,3.381A34.543,34.543,0,0,1,59.972,99.511Z" transform="translate(-54.834 -83.117)" fill="#ffbe9d"/><path d="M68.364,98.046l1.325-3.437a6.279,6.279,0,0,0-.071-4.678l-.475-1.141L60.78,91.625s1.581,2.835,3.756,1.6L62.665,96.1Z" transform="translate(-55.749 -82.601)" fill="#ffbe9d"/><path d="M63.179,96.49a7.454,7.454,0,0,1,.227-1.091,3.99,3.99,0,0,1,1.751-2.247l.8-.475-.914.156-2.126.369h.043a2.4,2.4,0,0,1-2.169-1.318,2,2,0,0,1-.064-.191l-.142.234c2.4-.709,4.55-1.354,6.081-1.921.758-.284,1.375-.524,1.786-.709a2.31,2.31,0,0,0,.631-.326,23.687,23.687,0,0,0-2.516.765c-1.538.489-3.7,1.106-6.1,1.793l-.184.057.043.184a1.58,1.58,0,0,0,.092.276,2.417,2.417,0,0,0,1.084,1.2,3.4,3.4,0,0,0,1.417.354h.043l2.126-.411-.113-.319a4.047,4.047,0,0,0-1.758,2.5,2.048,2.048,0,0,0-.035,1.12Z" transform="translate(-55.603 -82.654)" fill="#eb996e"/><path d="M60.843,93.305c-.078,0,0,.439-.17,1.006a.765.765,0,0,1-.709.546,1.141,1.141,0,0,1-.865-.709c-.4-.893-.815-1.722-1.056-2.311s-.347-.992-.411-.978a2.126,2.126,0,0,0,.135,1.07,19.889,19.889,0,0,0,.964,2.41,1.481,1.481,0,0,0,1.283.872,1.049,1.049,0,0,0,.971-.829,1.765,1.765,0,0,0,0-.822C60.914,93.4,60.871,93.3,60.843,93.305Z" transform="translate(-54.827 -83.204)" fill="#eb996e"/><path d="M148.428,188.184c-.071,0-.532-1.347-1.6-3.4a10.631,10.631,0,0,0-2.445-3.168,6.555,6.555,0,0,0-2.027-1.162,11.566,11.566,0,0,0-2.488-.546,18.508,18.508,0,0,1-4.961-.971,6.648,6.648,0,0,1-3.912-5.351,3.941,3.941,0,0,1,0-.751c0-.177,0-.262.035-.262s0,.361.12,1a6.839,6.839,0,0,0,.95,2.523,6.421,6.421,0,0,0,2.977,2.566,18.525,18.525,0,0,0,4.855.914,11.737,11.737,0,0,1,2.566.574,6.854,6.854,0,0,1,2.126,1.24,10.568,10.568,0,0,1,2.459,3.31,22.535,22.535,0,0,1,1.07,2.551,5.117,5.117,0,0,1,.276.936Z" transform="translate(-76.193 -107.003)" fill="#263238"/><path d="M112.85,133.887a12.672,12.672,0,0,1,14.593,2.771c1.793,1.984,2.97,4.564,5.16,6.1,2.693,1.878,6.244,1.729,9.526,1.829s6.988.773,8.774,3.544a16.585,16.585,0,0,1,1.552,4.316,5.9,5.9,0,0,0,2.523,3.7,9.525,9.525,0,0,0,3.324.709,3.938,3.938,0,0,1,2.948,1.474,38.152,38.152,0,0,1-6.889,12.141l-2.3-1.184c.057.907.12,1.821.177,2.736a20.553,20.553,0,0,0-5.535,4.5q-2.126-2.594-4.252-5.2a13.243,13.243,0,0,0-4.338-3.9,17.169,17.169,0,0,0-5.337-1.014,7.844,7.844,0,0,1-4.961-1.992c-1-1.084-1.417-2.594-2.289-3.785a5.883,5.883,0,0,0-5.273-2.311" transform="translate(-70.914 -95.387)" fill="#263238"/><path d="M125.035,166.751a3.189,3.189,0,0,0,1.992,3.4,9.561,9.561,0,0,0,4.182.581,9.015,9.015,0,0,1,4.174.631c2.126,1.049,3.118,3.544,4.961,5a6.279,6.279,0,0,0,10.093-4.011,6.308,6.308,0,0,1-7.612.043c-1.722-1.347-2.7-3.586-4.664-4.536s-4.252-.333-6.379-.149-4.8-.425-5.436-2.488l-.461.078Z" transform="translate(-74.446 -104.862)" fill="#ffc107"/><g transform="translate(51.095 60.259)" opacity="0.3"><path d="M125.778,168.886c-.106.163,1.488,1.417,1.481,1.226,0,0,1.077-.6,1.247-1.2a2.07,2.07,0,0,0-.312-1.892,2.906,2.906,0,0,1-1.566-1.935h-.482l-.369,3.806" transform="translate(-125.773 -165.08)"/></g><path d="M131.62,168.65a4.061,4.061,0,0,1-.163,1.545,7.746,7.746,0,0,1-.447,1.5,9.158,9.158,0,0,1,.3-1.524C131.513,169.337,131.591,168.65,131.62,168.65Z" transform="translate(-76.203 -105.861)" fill="#fafafa"/><path d="M140.438,168.29a14.538,14.538,0,0,0-1.233,1.637,10.311,10.311,0,0,0-.765,1.9,1.6,1.6,0,0,1,.085-.6,5.152,5.152,0,0,1,.553-1.368,6.082,6.082,0,0,1,.893-1.177A2.19,2.19,0,0,1,140.438,168.29Z" transform="translate(-78.367 -105.756)" fill="#fafafa"/><path d="M148.065,175.12a2.083,2.083,0,0,1-.39.524,7.406,7.406,0,0,1-1.162,1.063,7.314,7.314,0,0,1-1.354.8,1.92,1.92,0,0,1-.61.22,19.461,19.461,0,0,0,1.878-1.141,17.942,17.942,0,0,0,1.637-1.467Z" transform="translate(-80.147 -107.745)" fill="#fafafa"/><path d="M155.925,180.49c-.043,0,.043-.773.05-1.715a15.041,15.041,0,0,1,0-1.715,7.534,7.534,0,0,1,.121,1.715,5.557,5.557,0,0,1-.17,1.715Z" transform="translate(-83.457 -108.31)" fill="#fafafa"/><path d="M185.615,345.614l26-9.781L208,324.33l-28.137,6.513Z" transform="translate(-90.431 -151.204)" fill="#ffbe9d"/><path d="M218.229,336.263l.765-.227s9.164,11.425,11.673,10.815l-7.952-25.791-8.5,3a15.444,15.444,0,0,1,4.019,12.2Z" transform="translate(-100.436 -150.251)" fill="#ffc107"/><g transform="translate(117.348 174.472)" opacity="0.6"><path d="M219.258,327.328a1.113,1.113,0,0,1,.978-1.1,1.063,1.063,0,0,1,1.1.964,1.155,1.155,0,0,1-1.042,1.155,1.085,1.085,0,0,1-1.028-1.127" transform="translate(-219.252 -326.229)" fill="#fff"/></g><g transform="translate(120.245 170.809)" opacity="0.6"><path d="M225.374,321.06l-2.034.709L231.7,346.22s.858.992,1.623.617Z" transform="translate(-223.34 -321.06)" fill="#fff"/></g><path d="M220.969,341.141c.128-.043,0-.709.206-1.417s.638-1.24.553-1.34-.751.312-1,1.219A1.528,1.528,0,0,0,220.969,341.141Z" transform="translate(-102.312 -155.293)" fill="#263238"/><path d="M223.805,344.678c.128,0,.177-.617.574-1.212s.928-.886.886-1.014-.78,0-1.269.765S223.685,344.713,223.805,344.678Z" transform="translate(-103.192 -156.469)" fill="#263238"/><path d="M228.312,346.345c0-.12-.709-.106-1.276.432s-.709,1.212-.567,1.233.383-.461.872-.893S228.34,346.472,228.312,346.345Z" transform="translate(-103.991 -157.597)" fill="#263238"/><path d="M103.3,424.281l7.584,26.734,11.758-2.651-4.153-28.584Z" transform="translate(-68.133 -179.004)" fill="#ffbe9d"/><path d="M107.687,457.693l.163.787S95.7,466.658,96.106,469.21l26.358-5.783-2.282-8.7A15.429,15.429,0,0,1,107.687,457.693Z" transform="translate(-66.035 -189.183)" fill="#ffc107"/><g transform="translate(50.994 268.942)" opacity="0.6"><path d="M126.729,459.52a1.106,1.106,0,0,1,1.014,1.07,1.07,1.07,0,0,1-1.049,1.013,1.155,1.155,0,0,1-1.063-1.134,1.091,1.091,0,0,1,1.2-.936" transform="translate(-125.63 -459.52)" fill="#fff"/></g><g transform="translate(30.034 272.152)" opacity="0.6"><path d="M122.453,466.141l-.553-2.091-25.061,6.343s-1.063.773-.709,1.566Z" transform="translate(-96.058 -464.05)" fill="#fff"/></g><path d="M112.579,460.051c0,.128.709.05,1.417.319s1.177.709,1.29.666-.248-.78-1.134-1.091S112.522,459.945,112.579,460.051Z" transform="translate(-70.834 -190.663)" fill="#263238"/><path d="M109,462.585c0,.135.6.227,1.162.709s.808.992.936.957.05-.78-.659-1.318S109,462.465,109,462.585Z" transform="translate(-69.793 -191.446)" fill="#263238"/><path d="M107.222,466.953c.12,0,.156-.709-.326-1.318s-1.148-.78-1.177-.659.418.411.815.936S107.087,466.967,107.222,466.953Z" transform="translate(-68.837 -192.157)" fill="#263238"/><path d="M83.969,262.122S83,313.152,88,347.64l11.51,37.379,15.592-3.147s-5.982-38.7-6.818-54.5-.248-73.71-.248-73.71Z" transform="translate(-62.48 -130.621)" fill="#263238"/><path d="M98.6,257.164l15.125,58.351a21.78,21.78,0,0,0,27.294,15.415l34.537-10.27-4.961-14.884-32.312,5.415-4.33-33.672s-6.01-25.146-14.019-25.139C118.2,252.38,98.6,257.164,98.6,257.164Z" transform="translate(-66.764 -130.248)" fill="#263238"/><path d="M67.963,103.85l-.064,3.168s-1.283,24.494-1.212,28.158,12.361,24.686,12.361,24.686l-7.5,12.283L54.61,141.669a6.7,6.7,0,0,1-.8-4.1l4.047-32.56.106-.858" transform="translate(-53.703 -86.988)" fill="#ffbe9d"/><path d="M67.832,149.1l13.19,17.456c2.488,3.289,6.769,5.153,10.574,6.726h0c9.462.461,20.943-.787,25.657,6.9a5.266,5.266,0,0,1,.56,4.3c-2.041,6.7-8.788,28.995-9.044,31.844,0,0,2.941,3.033,2.282,4.9s-3.161,1.07-3.161,1.07l-31.114,9.214s-1.417-.709-1.269-1.744a49.887,49.887,0,0,1,2.233-6.726,23.481,23.481,0,0,0,.652-14.756,52.318,52.318,0,0,1-1.417-5.89l-.765-11.113c-4.323-7.194-14-17.719-18.959-32.383Z" transform="translate(-54.72 -100.167)" fill="#ffc107"/><path d="M119.068,146.715a10.858,10.858,0,0,0-9.759-12.155,11.078,11.078,0,0,0-11.8,9.5c-.758,5.039-1.417,10.128-1.417,11.971.071,5.571,3.331,7.74,4.656,8.392a7.228,7.228,0,0,0,1.46.369h0a.042.042,0,0,1,0,.043l-1.24,6.379c-.56,4.189,1.779,7.931,5.961,8.54s7.484-2.608,8.122-6.8Z" transform="translate(-66.033 -95.918)" fill="#ffbe9d"/><path d="M99.446,152.3c.092.128.829-.269,1.772-.128s1.566.709,1.68.61,0-.262-.291-.524a2.374,2.374,0,0,0-1.325-.631,2.3,2.3,0,0,0-1.417.241C99.531,152.048,99.4,152.239,99.446,152.3Z" transform="translate(-67.007 -100.896)" fill="#263238"/><path d="M111.286,154.864c.092.128.829-.262,1.772-.12s1.559.709,1.68.61,0-.269-.291-.532a2.424,2.424,0,0,0-1.325-.631,2.4,2.4,0,0,0-1.417.241C111.371,154.616,111.236,154.807,111.286,154.864Z" transform="translate(-70.456 -101.643)" fill="#263238"/><path d="M105.735,158.23a6.314,6.314,0,0,0-1.488-.5c-.241-.064-.461-.142-.475-.312a1.269,1.269,0,0,1,.262-.709l.978-1.729a31.426,31.426,0,0,0,2.3-4.564,33.064,33.064,0,0,0-2.665,4.373c-.326.61-.645,1.184-.95,1.744a1.418,1.418,0,0,0-.262.928.624.624,0,0,0,.347.4,1.878,1.878,0,0,0,.4.12,5.932,5.932,0,0,0,1.552.241Z" transform="translate(-68.172 -100.551)" fill="#263238"/><path d="M104.683,176.737a15.158,15.158,0,0,0,8.547-1.247s-2.126,4.607-8.881,2.97Z" transform="translate(-68.439 -107.853)" fill="#eb996e"/><path d="M106.728,164.538a1.722,1.722,0,0,1,1.616-.411,1.566,1.566,0,0,1,.985.709,1.013,1.013,0,0,1-.085,1.141,1.162,1.162,0,0,1-1.283.128,3.615,3.615,0,0,1-1.106-.893,1.248,1.248,0,0,1-.227-.319.333.333,0,0,1,.057-.354" transform="translate(-69.094 -104.527)" fill="#ffc107"/><path d="M109.083,162.93c-.156,0-.3.992-1.29,1.595s-2.055.326-2.084.468.213.234.709.312a2.53,2.53,0,0,0,1.729-.333,2.225,2.225,0,0,0,1.013-1.34C109.224,163.206,109.154,162.937,109.083,162.93Z" transform="translate(-68.834 -104.195)" fill="#263238"/><path d="M112.2,150.622c.057.269,1.021.283,2.126.581s1.935.709,2.126.517c.078-.1-.043-.361-.361-.666a3.664,3.664,0,0,0-1.517-.787,3.593,3.593,0,0,0-1.7-.05C112.412,150.324,112.178,150.494,112.2,150.622Z" transform="translate(-70.724 -100.469)" fill="#263238"/><path d="M100.784,148.166c.135.241.822.113,1.6.22s1.417.354,1.609.149c.078-.1,0-.326-.255-.574a2.24,2.24,0,0,0-1.24-.539,2.183,2.183,0,0,0-1.34.248C100.848,147.826,100.728,148.053,100.784,148.166Z" transform="translate(-67.396 -99.672)" fill="#263238"/><path d="M97.3,222.355a7.8,7.8,0,0,1-7.8-7.86,44.927,44.927,0,0,1,1.46-9.71l12.049,2.672h0l3.189-5.273s6.719-13.055,13.083-13.913c5.741-.78,8.93,3.338,7.718,9.051s-9.71,16.811-17.01,21.319A24.842,24.842,0,0,1,97.3,222.355Z" transform="translate(-64.113 -111.548)" fill="#ffc107"/><path d="M119.78,216.171a2.29,2.29,0,0,1-.255.432q-.276.425-.829,1.191A39.444,39.444,0,0,1,115.3,221.9a29.059,29.059,0,0,1-6.124,5,21.581,21.581,0,0,1-9.157,3.076,17.173,17.173,0,0,1-5.032-.312,9.554,9.554,0,0,1-4.252-1.985,7.576,7.576,0,0,1-2.254-3.607,10.752,10.752,0,0,1-.383-3.685,20.716,20.716,0,0,1,1.141-5.209c.206-.6.376-1.049.489-1.361a2.757,2.757,0,0,1,.2-.468,2.544,2.544,0,0,1-.128.489c-.106.354-.248.815-.418,1.417a21.971,21.971,0,0,0-1.028,5.174,10.78,10.78,0,0,0,.425,3.586,7.229,7.229,0,0,0,2.176,3.437,9.433,9.433,0,0,0,4.111,1.892,17.136,17.136,0,0,0,4.919.291,21.489,21.489,0,0,0,9.015-3,29.931,29.931,0,0,0,6.116-4.89,47.846,47.846,0,0,0,3.466-4.012l.879-1.148A2.835,2.835,0,0,1,119.78,216.171Z" transform="translate(-63.698 -118.88)" fill="#263238"/><path d="M133.109,217.838a3.487,3.487,0,0,1-1.453,1.715,3.544,3.544,0,0,1-2.126.822c0-.106.914-.425,1.885-1.127S133.017,217.775,133.109,217.838Z" transform="translate(-75.772 -120.186)" fill="#263238"/><path d="M107.1,220.4a5.748,5.748,0,0,1,.106-2.4,5.826,5.826,0,0,1,.709-2.3,12.475,12.475,0,0,1-.383,2.36,12.262,12.262,0,0,1-.432,2.339Z" transform="translate(-69.216 -119.564)" fill="#263238"/><path d="M109.569,221.141a8.236,8.236,0,0,1-1.51-5.741c.106,0,.156,1.34.574,2.92S109.668,221.091,109.569,221.141Z" transform="translate(-69.504 -119.477)" fill="#263238"/><path d="M116.094,198a13.247,13.247,0,0,1-1.056,1.9c-.709,1.148-1.666,2.722-2.757,4.444s-2.126,3.281-2.835,4.394a13.884,13.884,0,0,1-1.276,1.765,12.679,12.679,0,0,1,1.049-1.9c.709-1.155,1.666-2.729,2.764-4.451s2.126-3.281,2.835-4.394A12.808,12.808,0,0,1,116.094,198Z" transform="translate(-69.551 -114.409)" fill="#263238"/><path d="M86,219.714a3.16,3.16,0,0,1-.347-.709,20.555,20.555,0,0,1-.709-2.126A26.684,26.684,0,0,1,85,202.385a19.49,19.49,0,0,1,.709-2.126,4.1,4.1,0,0,1,.347-.709c.064,0-.354,1.106-.815,2.906a29.533,29.533,0,0,0-.057,14.359C85.65,218.637,86.068,219.714,86,219.714Z" transform="translate(-62.503 -114.861)" fill="#263238"/><path d="M113.179,241.319a4.435,4.435,0,0,1-.524.709,20.651,20.651,0,0,1-1.63,1.807,26.487,26.487,0,0,1-2.722,2.381,31.058,31.058,0,0,1-3.728,2.4,31.447,31.447,0,0,1-4.068,1.765,26.931,26.931,0,0,1-3.494.936,19.461,19.461,0,0,1-2.41.347,3.889,3.889,0,0,1-.893,0c0-.071,1.262-.177,3.246-.631a31.341,31.341,0,0,0,3.437-1,29.766,29.766,0,0,0,7.7-4.111,31.043,31.043,0,0,0,2.743-2.3C112.343,242.262,113.123,241.277,113.179,241.319Z" transform="translate(-65.34 -127.026)" fill="#263238"/><path d="M127.51,237.74a9.42,9.42,0,0,1,1.219,2.3,9.292,9.292,0,0,1,.879,2.459,9.391,9.391,0,0,1-1.219-2.311A9.511,9.511,0,0,1,127.51,237.74Z" transform="translate(-75.184 -125.984)" fill="#263238"/><path d="M114.6,319.353c-.1,0-2.452-9.575-5.259-21.432s-5-21.489-4.9-21.51,2.452,9.568,5.259,21.425S114.7,319.353,114.6,319.353Z" transform="translate(-68.463 -137.247)" fill="#455a64"/><path d="M132.408,259.148a2.127,2.127,0,0,1-.425.454,9.774,9.774,0,0,1-1.361,1.028,10.993,10.993,0,0,1-10.794.482,9.483,9.483,0,0,1-1.417-.9c-.319-.241-.475-.4-.461-.418a17.919,17.919,0,0,0,2.02,1.084,11.517,11.517,0,0,0,10.546-.475C131.713,259.708,132.358,259.092,132.408,259.148Z" transform="translate(-72.399 -132.218)" fill="#455a64"/><path d="M104.364,282.551a2.381,2.381,0,0,1-.673-.574,7.7,7.7,0,0,1-1.3-2.034,28.244,28.244,0,0,1-1.184-3.359l-1.283-4.146c-.907-2.955-1.7-5.627-2.261-7.569-.255-.914-.475-1.687-.645-2.3a3.814,3.814,0,0,1-.184-.865,4.394,4.394,0,0,1,.319.822c.206.6.461,1.368.758,2.268.624,1.921,1.46,4.586,2.367,7.534.439,1.474.865,2.878,1.254,4.16a32.078,32.078,0,0,0,1.106,3.352A9.044,9.044,0,0,0,104.364,282.551Z" transform="translate(-66.248 -132.962)" fill="#455a64"/><path d="M101.08,263.048c-.043,0,.142-.347.652-.319a.928.928,0,0,1,.709.425A.957.957,0,0,1,101.3,264.5a.921.921,0,0,1-.539-.666.629.629,0,0,1,.213-.709,1.177,1.177,0,0,0,0,.624.766.766,0,0,0,.411.418.588.588,0,0,0,.617-.213.6.6,0,0,0,.113-.645.709.709,0,0,0-.482-.34C101.328,262.921,101.115,263.091,101.08,263.048Z" transform="translate(-67.387 -133.262)" fill="#455a64"/><path d="M103.54,267.372a.321.321,0,0,1,.227-.128.8.8,0,0,1,.673.234.858.858,0,0,1,.078,1.07,1.056,1.056,0,0,1-1.24.411,1.283,1.283,0,0,1-.829-1,1.332,1.332,0,0,1,.206-1.028.709.709,0,0,1,.631-.333c.191,0,.234.142.22.149a1.934,1.934,0,0,1-.22,0,.666.666,0,0,0-.418.34,1.113,1.113,0,0,0,.532,1.524.709.709,0,0,0,.836-.248.56.56,0,0,0,0-.709.709.709,0,0,0-.468-.269C103.611,267.372,103.54,267.4,103.54,267.372Z" transform="translate(-67.876 -134.389)" fill="#455a64"/><path d="M87.375,266.15a3.756,3.756,0,0,1,.418,1.453,8.4,8.4,0,0,1-.3,3.629,8.5,8.5,0,0,1-1.8,3.168,3.665,3.665,0,0,1-1.169.957c-.043-.05.4-.418.971-1.127a9.632,9.632,0,0,0,1.644-3.1,9.4,9.4,0,0,0,.4-3.494C87.467,266.752,87.311,266.171,87.375,266.15Z" transform="translate(-62.662 -134.258)" fill="#455a64"/><path d="M153.54,334.69a22.583,22.583,0,0,1-2.7,2.963,21.655,21.655,0,0,1-2.97,2.707,22.364,22.364,0,0,1,2.707-2.963A21.859,21.859,0,0,1,153.54,334.69Z" transform="translate(-81.114 -154.221)" fill="#455a64"/><path d="M152.51,341.58a23.63,23.63,0,0,1,1.417-5.67,11.8,11.8,0,0,1-.517,2.885,11.632,11.632,0,0,1-.9,2.785Z" transform="translate(-82.465 -154.576)" fill="#455a64"/><g transform="translate(27.045 105.399)" opacity="0.3"><path d="M91.953,232.037a7.463,7.463,0,0,0,3.813,4.692,10.943,10.943,0,0,0,6.081,1.07,14.515,14.515,0,0,0,11.942-9.029,31.976,31.976,0,0,1-10.44,5.167,15.118,15.118,0,0,1-11.51-1.68" transform="translate(-91.84 -228.77)"/></g><path d="M121.86,187.252l2.353-2.126a.879.879,0,0,1,.709-.326c.354.05.5.482.51.836a3.168,3.168,0,0,1-1.12,2.509" transform="translate(-73.538 -110.565)" fill="#ffbe9d"/><path d="M124.3,188.048c-.043-.043.3-.333.61-.95a3.232,3.232,0,0,0,.326-1.141,2.127,2.127,0,0,0,0-.673c-.05-.22-.177-.4-.34-.4a.932.932,0,0,0-.546.312l-.553.489-.95.815a6.985,6.985,0,0,1-.936.709,4.9,4.9,0,0,1,.758-.872l.9-.872.539-.51a1.148,1.148,0,0,1,.815-.411.659.659,0,0,1,.475.262,1.2,1.2,0,0,1,.191.425,2.126,2.126,0,0,1,0,.794,3.119,3.119,0,0,1-.425,1.226C124.744,187.857,124.319,188.084,124.3,188.048Z" transform="translate(-73.552 -110.489)" fill="#eb996e"/><path d="M102.594,190.118l-10.5,14.473,11.638,2.516,4.763-13.275,8.214,1.049,5.223-1.644-4.479-4.033-6.563-1.921a7.591,7.591,0,0,0-8.292,2.835Z" transform="translate(-64.868 -111.198)" fill="#ffbe9d"/><path d="M117.443,189.159a1.2,1.2,0,0,1-.34-.071l-.95-.269c-.822-.241-2.013-.6-3.494-1a23.942,23.942,0,0,0-2.431-.546,9.4,9.4,0,0,0-2.835,0,6.506,6.506,0,0,0-2.835,1.155,9.922,9.922,0,0,0-2.233,2.481,98.757,98.757,0,0,1-6.932,9.795c-.971,1.191-1.786,2.126-2.367,2.771a5.478,5.478,0,0,1-.709.709,1.36,1.36,0,0,1-.248.234,9.75,9.75,0,0,1,.815-1.049c.539-.666,1.325-1.63,2.268-2.835a117.064,117.064,0,0,0,6.832-9.837,10.085,10.085,0,0,1,2.325-2.566,6.839,6.839,0,0,1,3.005-1.2,9.561,9.561,0,0,1,2.92,0,20.71,20.71,0,0,1,2.452.6c1.474.432,2.658.829,3.466,1.113l.928.333A2.055,2.055,0,0,1,117.443,189.159Z" transform="translate(-64.862 -111.154)" fill="#eb996e"/><path d="M115.132,195.26a8.575,8.575,0,0,1-.532,1.914,8.753,8.753,0,0,1-.631,1.878A6.442,6.442,0,0,1,115.132,195.26Z" transform="translate(-71.24 -113.611)" fill="#eb996e"/><path d="M123.921,197.743a15.967,15.967,0,0,1-4.493-.057,12.362,12.362,0,0,0-3.1-.255,3.692,3.692,0,0,0-1.162.475c-.05,0,.269-.517,1.113-.709a10.7,10.7,0,0,1,3.189.142C121.915,197.58,123.914,197.608,123.921,197.743Z" transform="translate(-71.588 -114.152)" fill="#eb996e"/><path d="M129.451,184.76a1.744,1.744,0,0,0,0,2c.709,1,1.269,1.063,1.269,1.063l-.269,1.134,1.666.6.8-2.4Z" transform="translate(-75.658 -110.553)" fill="#ffbe9d"/><path d="M129.407,184.76a5.236,5.236,0,0,1,.978.567c.624.4,1.531.978,2.587,1.694l.106.071-.043.12-.787,2.4-.057.184-.177-.064h0l-1.658-.6-.156-.057.043-.149c.092-.4.184-.773.276-1.134l.142.206a1.751,1.751,0,0,1-.773-.468,4.111,4.111,0,0,1-.5-.574,1.772,1.772,0,0,1-.4-1.2,1.375,1.375,0,0,1,.425-.992,3.459,3.459,0,0,0-.22,1,1.6,1.6,0,0,0,.411,1.021,4.159,4.159,0,0,0,.489.517,1.559,1.559,0,0,0,.61.361l.177.043-.035.163c-.085.361-.17.744-.255,1.134l-.113-.206,1.666.588h0l-.234.113.808-2.4.071.191c-.985-.709-1.807-1.311-2.41-1.765a9.923,9.923,0,0,1-.971-.773Z" transform="translate(-75.614 -110.553)" fill="#eb996e"/><path d="M136.959,199.43a9.184,9.184,0,0,1,2.218,1c.22.333-1.113,40.88-1.113,40.88l-3.445-4Z" transform="translate(-77.255 -114.826)" fill="#263238"/><path d="M126.322,196.61,114.5,233.153l14.26,3.338,2.339-37.882-2.112.333Z" transform="translate(-71.395 -114.004)" fill="#455a64"/><path d="M132.147,248.858a6.377,6.377,0,0,1-.794-.928c-.475-.6-1.141-1.481-1.935-2.537l.092.064-4.493-.829c-2.438-.461-4.635-.9-6.23-1.233-.794-.17-1.417-.312-1.878-.418a2.524,2.524,0,0,1-.709-.206,2.934,2.934,0,0,1,.709.064c.447.064,1.1.163,1.9.3,1.6.276,3.813.673,6.251,1.134l4.486.879h.064l.035.05c.765,1.077,1.417,1.977,1.836,2.615A5.593,5.593,0,0,1,132.147,248.858Z" transform="translate(-71.89 -127.448)" fill="#fafafa"/><path d="M133.227,236.7a4.025,4.025,0,0,1-.624-.709c-.369-.489-.886-1.2-1.5-2.055l.1.064-3.948-.709c-2.041-.39-3.884-.758-5.216-1.049a12.574,12.574,0,0,1-2.126-.539,13.332,13.332,0,0,1,2.183.283c1.347.22,3.2.553,5.238.936l3.934.78h.064l.035.05c.588.879,1.07,1.609,1.417,2.126a3.742,3.742,0,0,1,.447.822Z" transform="translate(-72.971 -124.225)" fill="#fafafa"/><path d="M134.215,223.24a12.659,12.659,0,0,1-1.538-1.843l.1.064c-.943-.156-2.126-.369-3.367-.6-1.573-.3-3-.6-4.026-.822a7.8,7.8,0,0,1-1.644-.447,8,8,0,0,1,1.694.191c1.042.163,2.474.411,4.047.709,1.254.234,2.417.468,3.345.666h.064v.05A12.757,12.757,0,0,1,134.215,223.24Z" transform="translate(-74.086 -120.697)" fill="#fafafa"/><path d="M135.3,211.24a7.364,7.364,0,0,1-1.134-1.3l.092.057c-.751-.113-1.708-.283-2.75-.482a27.351,27.351,0,0,1-4.4-1.021,28.351,28.351,0,0,1,4.465.659c1.049.2,2,.4,2.743.56h.057v.043a6.9,6.9,0,0,1,.928,1.488Z" transform="translate(-75.068 -117.465)" fill="#fafafa"/><path d="M128.76,251.508a73.064,73.064,0,0,1-7.172-1.488,72.858,72.858,0,0,1-7.087-1.85,72.482,72.482,0,0,1,7.18,1.488,71.672,71.672,0,0,1,7.08,1.85Z" transform="translate(-71.395 -129.022)" fill="#263238"/><path d="M118.8,253.138l-4.3-4.968,14.26,3.338,3.445,4Z" transform="translate(-71.395 -129.022)" fill="#455a64"/><path d="M153.251,239.393l-14.551,2V199.71l1.666.8Z" transform="translate(-78.443 -114.907)" fill="#ffc107"/><g transform="translate(60.257 84.803)" opacity="0.4"><path d="M153.251,239.393l-14.551,2V199.71l1.666.8Z" transform="translate(-138.7 -199.71)"/></g><path d="M148.487,238.39a8,8,0,0,1-.893.262,9.554,9.554,0,0,0-2.289,1.021,6.18,6.18,0,0,0-2.424,2.707,4.869,4.869,0,0,0,.05,4.295,1.843,1.843,0,0,0,.78.751.709.709,0,0,0,.85-.177,1.375,1.375,0,0,0,.2-.957,2.884,2.884,0,0,0-.333-.964,3.381,3.381,0,0,0-2.963-1.751,3.048,3.048,0,0,0-2.126,1.028c-.4.432-.553.709-.581.709s0-.078.085-.227a3.545,3.545,0,0,1,.39-.588,3.119,3.119,0,0,1,2.261-1.191,3.643,3.643,0,0,1,3.267,1.85,2.176,2.176,0,0,1,.12,2.3,1.056,1.056,0,0,1-1.283.3,2.176,2.176,0,0,1-.95-.907,5.152,5.152,0,0,1-.043-4.621,6.379,6.379,0,0,1,2.6-2.785,8.215,8.215,0,0,1,2.4-.936A3.041,3.041,0,0,1,148.487,238.39Z" transform="translate(-78.456 -126.173)" fill="#fafafa"/><path d="M145.7,229.474a2.275,2.275,0,0,1-.928.666,5.634,5.634,0,0,1-5.323-.3c-.6-.39-.872-.709-.843-.765a7.939,7.939,0,0,1,.971.539,6.591,6.591,0,0,0,2.516.709,6.485,6.485,0,0,0,2.573-.39A8.394,8.394,0,0,1,145.7,229.474Z" transform="translate(-78.416 -123.459)" fill="#fafafa"/><path d="M141.934,215.379A8.28,8.28,0,0,0,141,216.8a3.912,3.912,0,0,0-.369,1.751,1.056,1.056,0,0,0,.411.815.843.843,0,0,0,.921-.057.886.886,0,0,0,.383-.865,1.3,1.3,0,0,0-.432-.858,1.963,1.963,0,0,0-1.644-.354,3.777,3.777,0,0,0-1.141.461c-.255.149-.4.234-.418.213s.1-.142.34-.333a3.253,3.253,0,0,1,1.155-.6,2.183,2.183,0,0,1,1.928.354,1.651,1.651,0,0,1,.574,1.077,1.262,1.262,0,0,1-.532,1.2,1.2,1.2,0,0,1-1.332.057,1.354,1.354,0,0,1-.539-1.106,3.8,3.8,0,0,1,.468-1.885,3.934,3.934,0,0,1,.78-1.042C141.75,215.442,141.92,215.357,141.934,215.379Z" transform="translate(-78.445 -119.47)" fill="#fafafa"/><path d="M166.249,231.09l-13,7.328L138.7,201.762l4.33-2.332Z" transform="translate(-78.443 -114.826)" fill="#ffc107"/><path d="M170.58,226.824l-2.551,3.445-23.219-31.66,2.948-2Z" transform="translate(-80.223 -114.004)" fill="#ffc107"/><path d="M150.031,207.752a.616.616,0,0,1,.191-.177,1.7,1.7,0,0,1,.709-.255,3.92,3.92,0,0,1,2.587.617,5.812,5.812,0,0,1,2.417,3.111,4.912,4.912,0,0,1,.262,2.36,2.729,2.729,0,0,1-1.488,2.07,3.43,3.43,0,0,1-2.559.177,4.628,4.628,0,0,1-1.963-1.34,5.84,5.84,0,0,1-1.467-3.664,3.87,3.87,0,0,1,.872-2.509,2.836,2.836,0,0,1,.532-.5c.142-.092.22-.135.227-.12a7.864,7.864,0,0,0-.645.709,3.884,3.884,0,0,0-.709,2.417,5.67,5.67,0,0,0,1.46,3.445,4.189,4.189,0,0,0,1.821,1.219,3.033,3.033,0,0,0,2.275-.163,2.353,2.353,0,0,0,1.3-1.8,4.741,4.741,0,0,0-.227-2.19,5.72,5.72,0,0,0-2.24-3,3.955,3.955,0,0,0-2.424-.709A2.466,2.466,0,0,0,150.031,207.752Z" transform="translate(-81.361 -117.117)" fill="#fafafa"/><path d="M177.034,234.577a1.273,1.273,0,0,1-.3.461,2.75,2.75,0,0,1-1.3.709,3.4,3.4,0,0,1-2.211-.184,4.869,4.869,0,0,1-2.055-1.765,5.818,5.818,0,0,1-.992-2.516,4.16,4.16,0,0,1,.291-2.2,3.274,3.274,0,0,1,.872-1.2c.269-.234.447-.312.461-.291a4.671,4.671,0,0,0-1.091,1.595,4.04,4.04,0,0,0-.2,2.048,5.79,5.79,0,0,0,.95,2.389,4.663,4.663,0,0,0,1.892,1.658,3.211,3.211,0,0,0,2.013.241,3.388,3.388,0,0,0,1.673-.943Z" transform="translate(-87.599 -123.026)" fill="#fafafa"/><path d="M153.6,230.61a.769.769,0,0,1,.184-.177,1.687,1.687,0,0,1,.709-.262,3.976,3.976,0,0,1,2.587.624,5.826,5.826,0,0,1,2.417,3.1,4.961,4.961,0,0,1,.262,2.36,2.743,2.743,0,0,1-1.488,2.077,3.423,3.423,0,0,1-2.559.17,4.564,4.564,0,0,1-1.963-1.34,5.8,5.8,0,0,1-1.467-3.657,3.905,3.905,0,0,1,.872-2.516,2.763,2.763,0,0,1,.532-.489c.142-.1.22-.135.227-.128a8.859,8.859,0,0,0-.645.709,3.855,3.855,0,0,0-.709,2.417,5.67,5.67,0,0,0,1.46,3.437,4.2,4.2,0,0,0,1.821,1.226,3.062,3.062,0,0,0,2.275-.163,2.374,2.374,0,0,0,1.3-1.8,4.727,4.727,0,0,0-.227-2.19,5.67,5.67,0,0,0-2.24-3,4.019,4.019,0,0,0-2.424-.709,2.459,2.459,0,0,0-.928.3Z" transform="translate(-82.398 -123.773)" fill="#fafafa"/><g transform="translate(64.587 82.606)" opacity="0.2"><path d="M170.58,226.824l-2.551,3.445-23.219-31.66,2.948-2Z" transform="translate(-144.81 -196.61)"/></g><path d="M129.4,189.856a1.368,1.368,0,0,1,1.361-.276,4.11,4.11,0,0,1,1.255.709l8.363,6.237-2.048,1.169a9.214,9.214,0,0,0-4.635-4.252" transform="translate(-75.735 -111.935)" fill="#455a64"/><path d="M132.624,196.953a7.087,7.087,0,0,0-2.495-4.508,12.219,12.219,0,0,1-2.311-1.935.921.921,0,0,1-.206-.9.709.709,0,0,1,.709-.333,2.034,2.034,0,0,1,.787.333,17.138,17.138,0,0,1,3.99,2.927,5.854,5.854,0,0,1,1.722,4.493" transform="translate(-75.202 -111.866)" fill="#263238"/><path d="M103.632,135.109c-3.1.808-7.031,4-5.571,8.6,3.813-.936,7.258-3.693,10.355-6.109a23.841,23.841,0,0,0,2.892,8.569c.709,1.254,6.492,6.336,7.314,6.733s1.254-3.466.489-4.961C119.111,147.965,115.475,132.04,103.632,135.109Z" transform="translate(-66.515 -95.978)" fill="#263238"/><path d="M106.044,134.652a17.01,17.01,0,0,1,10.284,5.564,24.253,24.253,0,0,1,4.819,11.51c3.409-4.3,2.126-12.127-1.417-15.592s-9.384-3.848-13.7-1.488" transform="translate(-68.928 -95.521)" fill="#ffc107"/><path d="M147.394,141.712a1.17,1.17,0,0,1,.17.376,2.261,2.261,0,0,1,0,1.177,3.1,3.1,0,0,1-1.014,1.566,5.67,5.67,0,0,1-2.233,1.056,20.843,20.843,0,0,1-2.934.5,10.915,10.915,0,0,1-3.43-.163,7.087,7.087,0,0,1-3.374-1.751,8.313,8.313,0,0,1-1.97-3.544,33.606,33.606,0,0,0-1.262-3.8,6.769,6.769,0,0,0-2.282-2.8,10.461,10.461,0,0,0-5.9-1.765,28.753,28.753,0,0,0-4.252.312l-1.155.156a1.737,1.737,0,0,1-.4,0,1.616,1.616,0,0,1,.39-.106l1.148-.22a23.907,23.907,0,0,1,4.252-.432,10.674,10.674,0,0,1,6.1,1.743,7.045,7.045,0,0,1,2.41,2.934,31.615,31.615,0,0,1,1.29,3.834,8.058,8.058,0,0,0,1.871,3.423,6.747,6.747,0,0,0,3.2,1.673,14.565,14.565,0,0,0,6.223-.262,5.507,5.507,0,0,0,2.169-.957,2.984,2.984,0,0,0,1-1.453,2.488,2.488,0,0,0-.007-1.5Z" transform="translate(-72.225 -95.267)" fill="#263238"/><path d="M120.936,152.662a11.481,11.481,0,0,0,1.942,6.882,6.379,6.379,0,0,0,6.343,2.644l-1.864-2.041a4.415,4.415,0,0,0,4.557-.276,16.528,16.528,0,0,1-10.369-8.03" transform="translate(-73.266 -100.965)" fill="#263238"/><path d="M123.56,142.16a6.478,6.478,0,0,1,.928,1.517,18.37,18.37,0,0,1,1.467,4.033,18.576,18.576,0,0,1,.517,4.252,6.421,6.421,0,0,1-.142,1.772,37.259,37.259,0,0,0-.709-5.953,38.456,38.456,0,0,0-2.062-5.62Z" transform="translate(-74.034 -98.146)" fill="#263238"/><path d="M127.639,144.1a5.153,5.153,0,0,1,.326,1.481,24.319,24.319,0,0,1,.248,3.657,24.822,24.822,0,0,1-.27,3.655,5.606,5.606,0,0,1-.332,1.477c-.113,0,.234-2.3.234-5.138S127.526,144.114,127.639,144.1Z" transform="translate(-75.207 -98.711)" fill="#263238"/><path d="M124.681,139.3a5.06,5.06,0,0,1-.8.184c-.5.1-1.177.255-1.914.475s-1.417.454-1.864.638a5.573,5.573,0,0,1-.773.283,3.5,3.5,0,0,1,.709-.383,15.493,15.493,0,0,1,1.864-.709,15.324,15.324,0,0,1,1.935-.439,4.819,4.819,0,0,1,.843-.05Z" transform="translate(-72.802 -97.312)" fill="#fafafa"/><path d="M119.123,134.715a9.018,9.018,0,0,1-.893.163,14.841,14.841,0,0,0-2.126.56,15.252,15.252,0,0,0-2.006.858,7.2,7.2,0,0,1-.808.418,1.362,1.362,0,0,1,.191-.149c.128-.085.326-.22.567-.361a11.931,11.931,0,0,1,2.006-.907,11.469,11.469,0,0,1,2.126-.517,6.328,6.328,0,0,1,.666-.071C119.038,134.7,119.123,134.7,119.123,134.715Z" transform="translate(-71.042 -95.974)" fill="#fafafa"/><path d="M111.012,133.27c0,.043-.822.319-1.836.709a13.741,13.741,0,0,0-1.269.574,3.337,3.337,0,0,1-.517.262,5.046,5.046,0,0,1,1.729-.971c.51-.206.985-.361,1.325-.468A2.126,2.126,0,0,1,111.012,133.27Z" transform="translate(-69.324 -95.556)" fill="#fafafa"/><path d="M124.9,147.207a1.63,1.63,0,0,1-.751.206,1.758,1.758,0,0,1-.78-.035,3.1,3.1,0,0,1,.765-.113A2.678,2.678,0,0,1,124.9,147.207Z" transform="translate(-73.978 -99.614)" fill="#fafafa"/><path d="M127.5,148.876a1.014,1.014,0,0,1-.5.085c-.284,0-.51,0-.51-.057s.227-.078.5-.085S127.5,148.834,127.5,148.876Z" transform="translate(-74.887 -100.085)" fill="#fafafa"/><path d="M129.364,146.8a1.545,1.545,0,0,1-.638,0,1.481,1.481,0,0,1-.617-.135,1.311,1.311,0,0,1,.631,0A1.417,1.417,0,0,1,129.364,146.8Z" transform="translate(-75.359 -99.446)" fill="#fafafa"/><g transform="translate(50.867 46.123)" opacity="0.3"><path d="M126.868,154.962a22.68,22.68,0,0,0-1.269-8.5,1.226,1.226,0,0,1-.05-1.063.822.822,0,0,1,1.262.078,2.332,2.332,0,0,1,.369,1.417.936.936,0,0,1,.454-.787,9.051,9.051,0,0,1-.709,8.555" transform="translate(-125.452 -145.136)"/></g><rect width="21.432" height="10.454" rx="2.24" transform="translate(0 10.059) rotate(-27.99)" fill="#263238"/><path d="M76.732,88.633l-.659-1.247a.354.354,0,0,0-.482-.135l-.227.12a.354.354,0,0,1-.475-.135l-1.318-2.431a.354.354,0,0,1,.156-.475l.227-.12a.354.354,0,0,0,.156-.468L73.9,83.31l-.581-1.091a1.12,1.12,0,0,0-1.5-.461L56.087,90.121a1.106,1.106,0,0,0-.461,1.5l3.409,6.421a1.106,1.106,0,0,0,1.5.461l15.734-8.37a1.106,1.106,0,0,0,.461-1.5Z" transform="translate(-54.209 -80.516)" fill="#fafafa"/><path d="M83.206,93.195a.057.057,0,0,1-.071,0,.064.064,0,0,1,0-.071.05.05,0,1,1,.071.071Z" transform="translate(-62.257 -83.859)" fill="#263238"/><path d="M82.966,93.316a.05.05,0,0,1-.071,0,.05.05,0,1,1,.071-.071.05.05,0,0,1,0,.071Z" transform="translate(-62.186 -83.895)" fill="#263238"/><path d="M82.745,93.445a.057.057,0,0,1-.071,0,.05.05,0,1,1,.071-.071.057.057,0,0,1,0,.071Z" transform="translate(-62.121 -83.932)" fill="#263238"/><path d="M80.207,91.974V91.91h.177l-.106.142v-.035Zm0,0,.043-.05H80.2Z" transform="translate(-61.405 -83.51)" fill="#263238"/><path d="M80.349,92v.064a.092.092,0,0,1,0,.12.085.085,0,0,1-.113-.043l-.035-.064Zm-.078.128a.043.043,0,0,0,.064,0,.05.05,0,0,0,0-.071h0l-.092.05Z" transform="translate(-61.405 -83.536)" fill="#263238"/><path d="M80.5,92.27v.064a.078.078,0,0,1,0,.113.071.071,0,0,1-.106-.043v-.064Zm-.085.12a.05.05,0,0,0,.071,0,.035.035,0,0,0,0-.064h0l-.085.05Z" transform="translate(-61.46 -83.615)" fill="#263238"/><path d="M80.583,92.8l.085-.05h-.092l.05-.078-.085.043h0l.135-.078h0l-.057.1h.113l-.135.078Z" transform="translate(-61.504 -83.723)" fill="#263238"/><path d="M80.719,92.886a.1.1,0,0,1,.113.156.1.1,0,1,1-.113-.156Zm.071.12a.057.057,0,0,0,0-.064.052.052,0,1,0-.092.05.057.057,0,0,0,.092.014Z" transform="translate(-61.541 -83.791)" fill="#263238"/><path d="M80.833,93.27v-.043H80.79l.142-.078v.064a.053.053,0,0,1-.064.085v.057Zm.1-.092h-.05s.057.021.057,0Z" transform="translate(-61.577 -83.871)" fill="#263238"/><path d="M80.977,93.464h0l-.057-.106.142-.078.057.106h0v-.078h0v.064h0v-.064h0Z" transform="translate(-61.614 -83.909)" fill="#263238"/><path d="M81.125,93.665V93.63h0Z" transform="translate(-61.664 -84.011)" fill="#263238"/><path d="M77.654,83.561a.2.2,0,0,1,.276.248H77.86a.113.113,0,0,0,0-.106.106.106,0,0,0-.156-.043.113.113,0,0,0-.05.156.142.142,0,0,0,.085.057v.071a.177.177,0,0,1-.128-.1.191.191,0,0,1,.043-.283Z" transform="translate(-60.638 -81.072)" fill="#263238"/><path d="M77.983,84.269l-.142.078-.035-.064h0a.1.1,0,0,1-.078-.057.085.085,0,0,1,0-.128.123.123,0,0,1,.128.064v-.028a.213.213,0,0,0-.057-.057L77.912,84a.2.2,0,0,1,.085.085C78.068,84.17,78.054,84.234,77.983,84.269Zm-.106,0h0v-.05h-.05a.035.035,0,0,0,0,.057.05.05,0,0,0,.085-.043Z" transform="translate(-60.676 -81.206)" fill="#263238"/><path d="M78.294,84.555H78.23a.078.078,0,0,0-.106,0l-.113.064v-.071l.241-.128.043.064h0a.078.078,0,0,1,0,.071Z" transform="translate(-60.767 -81.329)" fill="#263238"/><path d="M78.583,84.937l-.34.184V85.05h0a.113.113,0,0,1-.071-.057.135.135,0,0,1,.057-.191.149.149,0,0,1,.2.05.142.142,0,0,1,0,.092l.12-.064Zm-.255,0c.043,0,.057-.064,0-.1a.07.07,0,1,0,0,.1Z" transform="translate(-60.808 -81.434)" fill="#263238"/><path d="M78.344,85.216h.064a.156.156,0,0,0,0,.1c0,.035,0,.043.043.035s-.078-.149,0-.2.1,0,.142.071a.262.262,0,0,1,0,.106h-.064a.142.142,0,0,0,0-.078.037.037,0,0,0-.05-.035c-.014.007.085.149,0,.206s-.1,0-.142-.078A.213.213,0,0,1,78.344,85.216Z" transform="translate(-60.86 -81.536)" fill="#263238"/><path d="M65.138,95.405,65.1,95.32h.064l.128.241h-.064l-.043-.085-.2.113-.043-.078Z" transform="translate(-56.96 -84.503)" fill="#263238"/><path d="M65.214,95.722a.156.156,0,0,1,.22.078.163.163,0,0,1-.057.227.17.17,0,0,1-.227-.078.163.163,0,0,1,.064-.227Zm.12.227a.092.092,0,0,0,0-.12.078.078,0,0,0-.113,0,.085.085,0,0,0-.043.113.092.092,0,0,0,.156.007Z" transform="translate(-57.015 -84.615)" fill="#263238"/><path d="M65.58,96.2l-.043-.085h.057l.135.241h-.064l-.043-.085-.213.113V96.3Z" transform="translate(-57.097 -84.733)" fill="#263238"/><path d="M65.63,96.771l-.064-.113H65.5l-.043-.078h.333l.043.078-.206.22-.043-.078Zm.043-.05.071-.085h-.106Z" transform="translate(-57.112 -84.87)" fill="#263238"/><path d="M65.989,96.86l.043.078-.213.106.071.135h-.064l-.106-.206Z" transform="translate(-57.187 -84.952)" fill="#263238"/><path d="M62.965,95.351l-.085.043h0l.078-.043a.333.333,0,0,1,0-.213h.007a.291.291,0,0,0,0,.184l.191-.1c0-.092-.043-.184.05-.241a.163.163,0,0,1,.227.092l.085-.05h0l-.085.05a.284.284,0,0,1,.035.17h-.007a.362.362,0,0,0,0-.156l-.191.106c0,.092.043.191-.05.241A.178.178,0,0,1,62.965,95.351Zm.269-.191.184-.1c-.05-.071-.106-.085-.149-.057a.143.143,0,0,0-.043.156Zm-.071.234c.057,0,.05-.092,0-.163l-.177.092c.071.078.128.092.17.071Z" transform="translate(-56.36 -84.4)" fill="#263238"/><path d="M63.94,95.869l-.51.269v-.05l.468-.248-.071-.12h.05Z" transform="translate(-56.52 -84.62)" fill="#263238"/><path d="M63.878,96.7c-.092.05-.184,0-.255-.12s-.05-.227.043-.276a.142.142,0,0,1,.177,0,.135.135,0,0,1,.071-.142c.085-.043.17,0,.234.106s.043.206-.043.248a.128.128,0,0,1-.156,0A.142.142,0,0,1,63.878,96.7Zm0-.057c.064,0,.071-.106,0-.2s-.12-.12-.184-.085-.071.106,0,.2S63.8,96.681,63.878,96.645Zm.064-.22c.043.078.106.106.163.078s.064-.1,0-.177-.1-.106-.156-.078-.071.1-.021.177Z" transform="translate(-56.564 -84.744)" fill="#263238"/><path d="M64.165,96.979c.156-.092.3-.057.361.064a.263.263,0,0,1-.149.34.254.254,0,0,1-.369-.064A.238.238,0,0,1,64.165,96.979Zm.184.354c.142-.078.177-.177.135-.269s-.156-.106-.291,0-.184.177-.135.262.156.043.291-.028Z" transform="translate(-56.681 -84.971)" fill="#263238"/><path d="M64.28,97.865h-.05v-.05a.043.043,0,0,1,.057,0,.035.035,0,0,1-.007.05Z" transform="translate(-56.718 -85.227)" fill="#263238"/><path d="M64.591,98.251h-.05L64.35,97.9h.035l.326.1a.206.206,0,0,0,.163,0c.057,0,.071-.092,0-.17a.206.206,0,0,0-.135-.113v-.05a.255.255,0,0,1,.17.142c.057.1.043.2-.05.241a.213.213,0,0,1-.2,0l-.269-.078Z" transform="translate(-56.788 -85.188)" fill="#263238"/><path d="M64.929,98.4c.163-.085.3-.05.369.064s0,.255-.149.347a.254.254,0,0,1-.369-.064C64.717,98.635,64.787,98.493,64.929,98.4Zm.191.354c.135-.071.177-.177.128-.262s-.156-.113-.291,0-.177.17-.135.262.177.057.319,0Z" transform="translate(-56.907 -85.387)" fill="#263238"/><rect width="7.406" height="1.942" rx="0.971" transform="translate(4.849 9.561) rotate(61.74)" fill="#ffc107"/><g transform="translate(3.138 9.561)" opacity="0.3"><rect width="7.406" height="1.942" rx="0.971" transform="translate(1.71 0) rotate(61.74)"/></g><rect width="7.406" height="1.942" rx="0.971" transform="translate(4.719 9.308) rotate(61.74)" fill="#ffc107"/><path d="M61.414,97.934a.17.17,0,0,1-.234-.1l-.05-.1-.12.071v-.064l.4-.213.085.156A.215.215,0,0,1,61.414,97.934Zm0-.064c.057,0,.071-.085,0-.156l-.05-.1-.184.1.05.092c.043.057.1.1.156.057Z" transform="translate(-55.816 -85.147)" fill="#fff"/><path d="M61.5,98.559l-.12-.213h-.12V98.29h.5v.057l-.312.4v-.064Zm0-.043.149-.191H61.4Z" transform="translate(-55.888 -85.368)" fill="#fff"/><path d="M61.822,98.911l-.142.078v-.057l.135-.078.177-.3.035.064-.142.248h.284v.057Z" transform="translate(-56.011 -85.444)" fill="#fff"/><path d="M66.977,95.607l.064.085a.4.4,0,0,0,.262.12.361.361,0,0,0,.206,0l.227-.128.553-.3.666-.361.177-.1a.5.5,0,0,0,.163-.135.39.39,0,0,0,0-.411c-.291-.546-.617-1.134-.95-1.758a.4.4,0,0,0-.432-.2.4.4,0,0,0-.113.05l-.113.057-.22.12-.85.461-.4.213a.482.482,0,0,0-.163.128.468.468,0,0,0-.078.184.446.446,0,0,0,0,.191c0,.057.057.113.085.17l.177.319c.213.411.39.709.517.971l.142.262v.071h0v-.064L66.75,95.3l-.524-.964-.177-.319a1.36,1.36,0,0,1-.085-.177.34.34,0,0,1,0-.206.383.383,0,0,1,.078-.191.411.411,0,0,1,.177-.135l.39-.22.85-.454.22-.12.113-.064a.361.361,0,0,1,.12-.05.439.439,0,0,1,.468.213c.333.624.652,1.212.95,1.758a.425.425,0,0,1,0,.439.468.468,0,0,1-.17.142l-.184.1-.666.361-.553.291a2.39,2.39,0,0,1-.227.12.34.34,0,0,1-.213.043.4.4,0,0,1-.262-.128A.368.368,0,0,1,66.977,95.607Z" transform="translate(-57.254 -83.649)" fill="#ffc107"/><path d="M68.008,95h0v-.05l-.142-.191-.326-.588h0l.092-.064.666-.489h0l-.085-.163V93.41h0v.043l.085.156h0l-.659.489-.085.071h0c.128.234.241.439.319.6l.1.177v.05Z" transform="translate(-57.717 -83.947)" fill="#ffc107"/><path d="M67.79,94.163h0v.043l.1.177.333.617h0l.369-.12a1.012,1.012,0,0,1,.191-.064h0l-.39-.709-.12-.213V93.83h0l.035.057.12.22.4.709h0l-.191.064-.361.128h0l-.333-.6-.1-.177v-.05h0Z" transform="translate(-57.79 -84.069)" fill="#ffc107"/><path d="M67.339,94.872h0a.106.106,0,0,0,0-.057.078.078,0,0,0,0-.078.1.1,0,0,0-.1,0,.092.092,0,0,0-.05.092.106.106,0,0,0,.05.071h.085a.106.106,0,0,1-.064,0,.078.078,0,0,1-.057-.078.092.092,0,0,1,.05-.1.1.1,0,0,1,.113,0,.106.106,0,0,1,0,.085.085.085,0,0,1,0,.057Z" transform="translate(-57.615 -84.324)" fill="#ffc107"/><path d="M67.747,95.631h0a.205.205,0,0,0,0-.057.1.1,0,0,0,0-.078.093.093,0,0,0-.142.092.092.092,0,0,0,.05.071h.057a.064.064,0,0,1-.064,0,.1.1,0,0,1,0-.177.092.092,0,0,1,.113,0,.085.085,0,0,1,0,.092.085.085,0,0,1,0,.057Z" transform="translate(-57.733 -84.545)" fill="#ffc107"/><path d="M69.336,95.252a.269.269,0,1,1,.106-.369A.276.276,0,0,1,69.336,95.252Z" transform="translate(-58.125 -84.336)" fill="#ffc107"/><path d="M69.394,95.088l-.184.092v-.043l.149-.078h0Z" transform="translate(-58.204 -84.428)" fill="#fff"/><rect width="7.747" height="4.919" rx="1.6" transform="translate(15.266 3.45) rotate(61.74)" fill="#ffc107"/><path d="M74.568,87.088A.143.143,0,0,1,74.412,87l-.092-.163.319-.17.085.156c.043.078,0,.135,0,.163a.085.085,0,0,1-.092,0,.092.092,0,0,1-.064.1Zm.057-.319-.078.043.043.071s.043.05.071,0,0,0,0-.071Zm-.092.241v-.085l-.043-.085-.078.043.043.085C74.483,87.01,74.5,87.024,74.533,87.01Z" transform="translate(-59.692 -81.984)" fill="#fff"/><path d="M74.773,87.557l-.078-.149H74.61V87.33h.4V87.4l-.241.319-.043-.078Zm.05-.057.092-.113h-.149Z" transform="translate(-59.777 -82.176)" fill="#fff"/><path d="M75.347,87.948l-.319.17v-.064l.106-.262-.191.106-.043-.071.326-.177v.064l-.106.262.191-.106Z" transform="translate(-59.861 -82.269)" fill="#fff"/><path d="M75.321,88.406H75.25l-.078.043-.043-.071.326-.177v.078l-.149.078.227.064.043.078-.213-.05-.1.234-.05-.085Z" transform="translate(-59.928 -82.43)" fill="#fff"/><path d="M72.7,88.1v-.057l-.078.043H72.7l-.092-.17h0l.276.05v.035l-.269-.05.064.128.071-.035h-.064V88.1Z" transform="translate(-59.194 -82.348)" fill="#fff"/><path d="M72.853,88.358a.127.127,0,0,1-.149-.184h0a.17.17,0,0,0,0,.113.078.078,0,0,0,.1.043.086.086,0,0,0,0-.113h.149l-.043-.156h0l.1.191h-.149C72.91,88.287,72.91,88.336,72.853,88.358Z" transform="translate(-59.218 -82.389)" fill="#fff"/><path d="M73.033,88.691a.127.127,0,0,1-.149-.184h0a.149.149,0,0,0,0,.106q.043.078.106.043a.116.116,0,0,0,0-.128v-.064l.156-.064.085.163h0l-.071-.135h-.1v.043C73.1,88.613,73.083,88.669,73.033,88.691Z" transform="translate(-59.27 -82.488)" fill="#fff"/><path d="M73.235,89.064a.1.1,0,0,1-.142-.05c-.043-.078,0-.149.078-.2a.149.149,0,0,1,.227.05.184.184,0,0,1,0,.078h0a.071.071,0,0,0,0-.064.12.12,0,0,0-.177-.043h0a.12.12,0,0,1,.1.064.106.106,0,0,1-.085.163Zm0,0a.071.071,0,0,0,0-.106c0-.05-.071-.064-.106-.043s-.05.057,0,.113a.071.071,0,0,0,.085.007Z" transform="translate(-59.33 -82.599)" fill="#fff"/><path d="M73.628,90.035l.05-.12h.035l.064-.135h0l-.05.113.142.043H73.72l-.071.149Z" transform="translate(-59.468 -82.89)" fill="#fff"/><path d="M73.8,90.338l.05-.12H73.72v-.035h.163l.064-.142h0l-.05.113h-.021l-.071.149Z" transform="translate(-59.517 -82.965)" fill="#fff"/><path d="M73.968,90.672l.05-.12h.035l.064-.142h0l-.05.113h.128v.035h-.149l-.071.149Z" transform="translate(-59.567 -83.073)" fill="#fff"/><path d="M74.138,90.985l.05-.12h.035l.064-.135h0l-.057.113h-.021l-.071.149Z" transform="translate(-59.616 -83.166)" fill="#fff"/><path d="M74.721,92.082l.057-.12h.035l.064-.142h0l-.05.106h-.035l-.064.149Z" transform="translate(-59.788 -83.484)" fill="#fff"/><path d="M74.891,92.392l.057-.12h.035l.064-.142h0l-.05.113h-.035l-.064.149Z" transform="translate(-59.838 -83.574)" fill="#fff"/><path d="M75.061,92.7l.057-.12H74.99v-.035h.163l.064-.142h0l-.05.113h-.035l-.064.149Z" transform="translate(-59.887 -83.653)" fill="#fff"/><path d="M75.231,93.025l.057-.113h.035l.064-.142h0l-.05.106h.12v.035H75.3l-.064.149Z" transform="translate(-59.937 -83.761)" fill="#fff"/><path d="M76.088,93.855l-.3.163v-.035l.269-.142-.043-.071h0Z" transform="translate(-60.12 -84.052)" fill="#fff"/><path d="M76.048,94.3a.106.106,0,0,1-.142-.064.213.213,0,0,1,0-.128h.035a.121.121,0,0,0,0,.106.071.071,0,0,0,.1.043.088.088,0,0,0,0-.106h.142L76.126,94h0l.1.191h-.149A.1.1,0,0,1,76.048,94.3Z" transform="translate(-60.151 -84.119)" fill="#fff"/><path d="M76.282,94.747V94.69l-.078.043h0l.078-.043-.092-.17h0l.276.05h0l-.269-.05.064.128h.007V94.7Z" transform="translate(-60.237 -84.27)" fill="#fff"/><path d="M76.373,95.072h0l-.113-.206h0l.184.057a.128.128,0,0,0,.092,0,.071.071,0,0,0,0-.1.113.113,0,0,0-.078-.064h0a.135.135,0,0,1,.1.078.092.092,0,0,1,0,.142.12.12,0,0,1-.113,0l-.156-.05Z" transform="translate(-60.257 -84.34)" fill="#fff"/><path d="M71.469,88.126a.085.085,0,0,1,.113.035s0,.05,0,.071h0a.042.042,0,0,0,0-.043.05.05,0,0,0-.071,0,.043.043,0,0,0,0,.064.05.05,0,0,0,.035,0h0a.092.092,0,0,1-.057-.05.085.085,0,0,1-.021-.078Z" transform="translate(-58.861 -82.405)" fill="#fff"/><path d="M71.573,88.484V88.42H71.7l-.106.142h0Zm0,0,.043-.05h-.064Z" transform="translate(-58.88 -82.494)" fill="#fff"/><path d="M71.653,88.69v-.043H71.61l.142-.078v.064a.053.053,0,0,1-.064.085v.057Zm.092-.092h-.007C71.773,88.6,71.759,88.62,71.745,88.6Z" transform="translate(-58.903 -82.537)" fill="#fff"/><path d="M71.718,88.769h0a.135.135,0,0,0,0,.05h0v-.113c0-.028.057,0,.078.035a.135.135,0,0,1,0,.057h0a.1.1,0,0,0,0-.043v.113c0,.028-.057,0-.078,0a.262.262,0,0,1,0-.1Z" transform="translate(-58.933 -82.573)" fill="#fff"/><path d="M72.083,89.108l-.142.078h.064l-.028-.128H71.92l.142-.078h-.05v.064h.057Z" transform="translate(-58.993 -82.657)" fill="#fff"/><path d="M72.061,89.241a.085.085,0,0,1,.113,0,.092.092,0,0,1,0,.12.088.088,0,0,1-.113-.12Zm.064.12a.05.05,0,0,0,0-.071.057.057,0,0,0-.071,0,.043.043,0,0,0,0,.064.05.05,0,0,0,.071.007Z" transform="translate(-59.028 -82.726)" fill="#fff"/><path d="M72.245,89.45h0l-.12.064.043.071h0l-.057-.106Z" transform="translate(-59.049 -82.794)" fill="#fff"/><path d="M72.343,89.62v.064a.078.078,0,0,1,0,.113.085.085,0,0,1-.113-.035V89.7Zm-.078.12a.05.05,0,1,0,.085-.043h0l-.085.05Z" transform="translate(-59.083 -82.843)" fill="#fff"/><path d="M72.405,90.032h0l-.085-.064.142-.078.057.106h0v-.071h-.035l.035.064h0v-.064h-.035Z" transform="translate(-59.11 -82.922)" fill="#fff"/><path d="M72.49,90.228v-.05h0l.142-.078v.064a.057.057,0,0,1,0,.085.043.043,0,0,1-.057,0v.05Zm.1-.092Z" transform="translate(-59.159 -82.983)" fill="#fff"/><path d="M70.676,88.5h.064a.085.085,0,0,0,0,.071.043.043,0,0,0,.064,0l.135-.071L70.9,88.43h.05l.085.156-.17.092a.1.1,0,0,1-.156-.043A.113.113,0,0,1,70.676,88.5Z" transform="translate(-58.628 -82.497)" fill="#fff"/><path d="M70.846,88.836a.043.043,0,0,1,.057,0,.04.04,0,1,1-.057.057A.05.05,0,0,1,70.846,88.836Z" transform="translate(-58.678 -82.611)" fill="#fff"/><path d="M71.4,89.212l-.312.057-.043-.064.156-.163-.22.043v-.071l.227-.234v.064l-.156.163h.227v.057l-.156.163h.227Z" transform="translate(-58.719 -82.598)" fill="#fff"/><path d="M71.479,89.43h.057v.05a.035.035,0,0,1-.057,0,.05.05,0,0,1,0-.05Zm-.057.043v.057l-.213.113v-.064Z" transform="translate(-58.786 -82.788)" fill="#fff"/><path d="M71.605,89.59l.035.064-.291.149v-.057Z" transform="translate(-58.827 -82.834)" fill="#fff"/><path d="M71.684,89.75v.064l-.284.156v-.064Z" transform="translate(-58.842 -82.881)" fill="#fff"/><path d="M71.752,89.916a.035.035,0,0,1,.05,0,.043.043,0,0,1,0,.057.05.05,0,0,1-.057,0,.035.035,0,0,1,.007-.057Zm-.057.043v.057l-.206.113v-.057Z" transform="translate(-58.868 -82.926)" fill="#fff"/><path d="M71.8,90.383l-.12.064V90.39h0a.074.074,0,0,1-.064-.05.171.171,0,0,1,0-.106c0-.014.078,0,.113.05v-.021a.191.191,0,0,0-.057-.05V90.17a.156.156,0,0,1,.071.078C71.885,90.3,71.885,90.347,71.8,90.383Zm-.085,0h0V90.34h-.05c-.014,0,0,0,0,.043s.021-.028.05-.035Z" transform="translate(-58.902 -83.003)" fill="#fff"/><path d="M72.078,90.849l-.113.064v-.057l.113-.064a.05.05,0,0,0,0-.064.067.067,0,0,0-.085,0l-.1.057v-.064l.113-.057a.05.05,0,0,0,0-.071h-.078l-.1.057v-.057l.206-.113v.057h0a.094.094,0,0,1,.064.135.113.113,0,0,1,.071.057C72.156,90.792,72.142,90.849,72.078,90.849Z" transform="translate(-58.967 -83.094)" fill="#fff"/><path d="M72.07,91.118h.057a.128.128,0,0,0,0,.085h.043c.043,0-.071-.128,0-.17s.085,0,.12.057a.22.22,0,0,1,0,.092h-.05a.085.085,0,0,0,0-.064h0s.064.12,0,.17-.085,0-.113-.064A.22.22,0,0,1,72.07,91.118Z" transform="translate(-59.037 -83.25)" fill="#fff"/><path d="M74.021,94.489a.135.135,0,0,1,.2.043c.043.064,0,.142-.071.191a.169.169,0,0,1-.206-.043C73.908,94.638,73.929,94.539,74.021,94.489Zm.092.17c.057,0,.071-.071.057-.1s-.057-.043-.113,0-.078.071-.064.1.057.035.12,0Z" transform="translate(-59.578 -84.253)" fill="#fff"/><path d="M74.292,95.108a.106.106,0,0,1-.149-.05.135.135,0,0,1,.071-.191.142.142,0,0,1,.22.057.191.191,0,0,1,0,.085h-.057a.17.17,0,0,0,0-.057.085.085,0,0,0-.12,0s.043,0,.064.057a.092.092,0,0,1-.028.1Zm0-.057a.05.05,0,0,0,0-.064s-.043-.043-.064,0,0,0,0,.071a.042.042,0,0,0,.028-.007Z" transform="translate(-59.636 -84.362)" fill="#fff"/><path d="M74.612,95.22v.057l-.432.064v-.05Z" transform="translate(-59.651 -84.474)" fill="#fff"/><path d="M74.533,95.662h-.057l-.106-.2h.043l.156.05h.064c.014,0,0,0,0-.064a.085.085,0,0,0-.057-.043V95.35a.128.128,0,0,1,.106.078v.142c0,.021-.05,0-.106,0h-.092Z" transform="translate(-59.707 -84.512)" fill="#fff"/><path d="M74.778,96.061v-.043h-.057v-.057h.057L74.7,95.82h.283v.064h-.227v.078h.05v.057h-.05v.043Z" transform="translate(-59.803 -84.649)" fill="#fff"/><g transform="translate(16.047 8.167)" opacity="0.2"><path d="M76.98,92.438a.482.482,0,0,0,.071-.61.432.432,0,0,0-.142-.156.354.354,0,0,0-.475,0,.532.532,0,0,0-.106.4.546.546,0,0,0,.177.4.361.361,0,0,0,.4,0Z" transform="translate(-76.322 -91.581)" fill="#fff"/></g><g transform="translate(13.887 3.529)" opacity="0.2"><path d="M78.2,91.552l-3.43-6.379a.255.255,0,0,0-.347-.106l-1.141.652a2.126,2.126,0,0,0,.553,1.566,8.994,8.994,0,0,0,1.538,1.269,3.381,3.381,0,0,1,1.254,1.524,6.209,6.209,0,0,1,.128,1.885,3.545,3.545,0,0,0,.071.617l1.269-.709a.262.262,0,0,0,.106-.319Z" transform="translate(-73.274 -85.037)" fill="#fff"/></g><path d="M68.227,104.444,71.1,102.1a6.258,6.258,0,0,0,2.282-4.082l.128-1.212L64.9,95.06s-.808,2.615,2.445,3.267c-2.885,1.247-3.962,3.863-4.749,6.691Z" transform="translate(-56.279 -84.428)" fill="#ffbe9d"/><path d="M65.438,100.447a9.182,9.182,0,0,1,.751-.836,4,4,0,0,1,2.637-1.063h.928l-.872-.319L66.87,97.52h.043a2.4,2.4,0,0,1-1.254-2.24,1.3,1.3,0,0,1,.043-.206l-.248.135c2.424.6,4.621,1.106,6.23,1.417.8.135,1.417.234,1.907.284a2.127,2.127,0,0,0,.709,0,24.8,24.8,0,0,0-2.551-.6c-1.588-.347-3.763-.893-6.187-1.5l-.184-.05-.057.184a1.417,1.417,0,0,0-.064.276,2.417,2.417,0,0,0,.376,1.581,3.274,3.274,0,0,0,1.077,1.042h0l2.027.709.057-.326A4.047,4.047,0,0,0,66.012,99.5a2.218,2.218,0,0,0-.574.95Z" transform="translate(-57.047 -84.343)" fill="#eb996e"/></g><g transform="translate(255.488 202.155)"><path d="M389.925,376.608a26.493,26.493,0,0,0-8.845-25.061s-2.055-.751-1.878,1.545c.106,1.375-1.212,3.317-2.311,2.474-1.907-1.467-1.3-4.458-2.126-6.719-.957-2.651-3.778-4.061-6.379-5.188-4.763-2.091-9.6-4.111-14.721-5.039s-10.574-.709-15.245,1.609q1.7,3.423,3.395,6.839a2.388,2.388,0,0,0,3.033,1.517l6.194-.454c.9-.064,2.07.043,2.325.9.3.978-.872,1.708-1.829,2.048l-6.5,2.332a20.922,20.922,0,0,0,8.6,7.165,62.791,62.791,0,0,0,10.709,3.678,6.329,6.329,0,0,0,3.544.269c1.892-.61,3.2-2.977,5.174-2.686a8.257,8.257,0,0,1-3.048,5.592c7.662,3.005,13.005,6.684,19.845,9.214" transform="translate(-338.42 -277.313)" fill="#ffc107"/><path d="M404.734,414.141a.591.591,0,0,0-.057-.2l-.128-.588c-.113-.539-.276-1.3-.475-2.261-.4-1.992-.971-4.827-1.673-8.328-.347-1.758-.709-3.685-1.141-5.748-.2-1.035-.411-2.126-.631-3.211l-.326-1.673c-.085-.574-.163-1.155-.248-1.743-.709-4.664-1.559-9.866-3.834-14.827s-5.982-8.788-9.49-11.921a80.351,80.351,0,0,0-10.1-7.47c-3.019-1.928-5.528-3.374-7.258-4.394L367.39,350.6l-.517-.312c-.113-.071-.17-.113-.163-.12l.184.085.532.283,2.02,1.113c1.751.985,4.288,2.4,7.328,4.3a79.021,79.021,0,0,1,10.185,7.435,50.1,50.1,0,0,1,5.245,5.294,30.555,30.555,0,0,1,4.359,6.726c2.3,5.025,3.133,10.263,3.827,14.933.085.588.163,1.162.241,1.736s.22,1.127.319,1.68l.617,3.2c.39,2.07.758,4,1.091,5.762.652,3.5,1.184,6.379,1.559,8.349.17.964.3,1.722.4,2.268.043.248.071.439.1.6A.9.9,0,0,1,404.734,414.141Z" transform="translate(-346.659 -280.826)" fill="#263238"/><path d="M423.6,299.78c-1.673,2.452-6.343,1.262-6.634-1.694s4.061-5.032,6.18-2.941a70.018,70.018,0,0,0-2.608-25.763,13.466,13.466,0,0,1-2.417,4.706,4.585,4.585,0,0,1-4.791,1.5c-2.247-.843-2.913-3.926-1.977-6.138s2.963-3.742,4.9-5.167a24.154,24.154,0,0,0-14.983-11.949c-2.495,4.04-5.025,8.158-6.145,12.757s-.617,9.866,2.459,13.466c1.311,1.531,3.041,2.729,4.054,4.472s.943,4.415-.843,5.351c-2.126,1.106-4.472-.978-5.67-3.026s-2.41-4.578-4.756-4.961a45.6,45.6,0,0,0,21.043,41.816l-.241-.227A65.508,65.508,0,0,0,423.6,299.78Zm-10.773-18.116a11.3,11.3,0,0,1,4.359-2.495,1.673,1.673,0,0,1,1.878.5,2.466,2.466,0,0,1,.475,1.956,4.649,4.649,0,0,1-.829,1.885,6.223,6.223,0,0,1-2.516,2.218,3.87,3.87,0,0,1-3.289,0,2.261,2.261,0,0,1-1.318-1.843,3.09,3.09,0,0,1,1.24-2.218Z" transform="translate(-353.505 -252.33)" fill="#ffc107"/><path d="M421.662,399.517a1.173,1.173,0,0,1,0-.255,6.431,6.431,0,0,0-.035-.758c0-.709-.064-1.666-.113-2.906-.1-2.551-.241-6.194-.425-10.695-.4-9.029-1.028-21.5-2.048-35.246s-2.19-26.181-3.175-35.161c-.475-4.493-.921-8.122-1.226-10.631-.142-1.24-.255-2.211-.333-2.892l-.078-.751a1.459,1.459,0,0,1,0-.262,1.078,1.078,0,0,1,.057.255,6.52,6.52,0,0,0,.113.751c.092.709.227,1.644.4,2.878.347,2.509.829,6.131,1.34,10.631,1.056,8.973,2.289,21.4,3.289,35.161s1.609,26.224,1.942,35.26c.163,4.522.262,8.172.312,10.7,0,1.247,0,2.225.035,2.913v.751a1.036,1.036,0,0,1-.05.255Z" transform="translate(-360.498 -266.202)" fill="#263238"/><path d="M387.38,418.98l6.6,27.988h34.58l7.314-27.988Z" transform="translate(-352.68 -300.868)" fill="#455a64"/><path d="M402.72,450.17c0,.532,2.679,16.578,2.679,16.578h21.036l2.318-16.578Z" transform="translate(-357.148 -309.952)" fill="#455a64"/><path d="M430.278,458.214c0,.1-7.548.184-16.854.184s-16.854-.085-16.854-.184,7.541-.184,16.854-.184S430.278,458.108,430.278,458.214Z" transform="translate(-355.356 -312.241)" fill="#263238"/><path d="M432.885,442.294c0,.1-8.9.184-19.845.184s-19.88-.085-19.88-.184,8.9-.184,19.88-.184S432.885,442.188,432.885,442.294Z" transform="translate(-354.363 -307.604)" fill="#263238"/><path d="M431.622,447.794c0,.1-8.377.184-18.711.184s-18.711-.085-18.711-.184,8.377-.184,18.711-.184S431.622,447.688,431.622,447.794Z" transform="translate(-354.666 -309.206)" fill="#263238"/><path d="M432.022,453.294c0,.1-8.08.184-18.038.184s-18.045-.085-18.045-.184,8.08-.184,18.045-.184S432.022,453.188,432.022,453.294Z" transform="translate(-355.173 -310.808)" fill="#263238"/><path d="M433.547,436.921c0,.1-9.3.184-20.766.184s-20.78-.064-20.78-.184,9.3-.191,20.773-.191S433.547,436.836,433.547,436.921Z" transform="translate(-354.025 -306.037)" fill="#263238"/><path d="M434.172,432.554c0,.1-9.469.184-21.156.184s-21.156-.085-21.156-.184,9.469-.184,21.156-.184S434.172,432.448,434.172,432.554Z" transform="translate(-353.985 -304.768)" fill="#263238"/></g></g></svg>