<svg class="animated" id="freepik_stories-mobile-payments" xmlns="http://www.w3.org/2000/svg" viewBox="0 0 500 500" version="1.1"><style>@keyframes slideDown{0%{opacity:0;transform:translateY(-30px)}to{opacity:1;transform:translateY(0)}}@keyframes zoomOut{0%{opacity:0;transform:scale(1.5)}to{opacity:1;transform:scale(1)}}@keyframes slideUp{0%{opacity:0;transform:translateY(30px)}to{opacity:1;transform:inherit}}@keyframes lightSpeedRight{60%{transform:skewX(10deg);opacity:1}80%{transform:skewX(-2deg)}}</style><g id="freepik--background-complete--inject-12" class="animable" style="transform-origin:252.215px 282.86px;animation:1s 1 forwards cubic-bezier(.36,-.01,.5,1.38) slideDown;animation-delay:0s"><path style="transform-origin:422.74px 196.225px" id="ellt97q6q8uch" class="animable" fill="#e0e0e0" d="M401.72 174.31h42.04v43.83h-42.04z"/><path style="transform-origin:419.89px 196.225px" id="elglol2qptyfq" class="animable" fill="#fafafa" d="M398.87 174.31h42.04v43.83h-42.04z"/><path d="M440.93 218.15h-42.07V174.3h42.07zm-42 0h42v-43.82h-42z" style="transform-origin:419.895px 196.225px" id="ele87d7kt8efk" class="animable" fill="#e0e0e0"/><path style="transform-origin:419.89px 196.22px" id="el9pe66ozbczi" class="animable" fill="#fafafa" d="M404.52 180.2h30.74v32.04h-30.74z"/><path d="M404.52 212.46a4.53 4.53 0 01-.75.88c-.5.52-1.19 1.22-2 2s-1.48 1.44-2 1.92a4.54 4.54 0 01-.88.74 4.69 4.69 0 01.75-.87c.49-.52 1.18-1.22 2-2s1.49-1.44 2-1.92a4.54 4.54 0 01.88-.75z" style="transform-origin:401.705px 215.23px" id="elsfoi4j9kxyn" class="animable" fill="#e0e0e0"/><path d="M435.26 212.38a5.24 5.24 0 01.89.76c.51.49 1.21 1.18 2 2s1.44 1.49 1.92 2a4.88 4.88 0 01.74.89 4.53 4.53 0 01-.88-.75c-.52-.5-1.22-1.19-2-2s-1.45-1.49-1.93-2a4.88 4.88 0 01-.74-.9z" style="transform-origin:438.035px 215.205px" id="elq6tfl1qnxyi" class="animable" fill="#e0e0e0"/><path d="M435.18 180.29a5.46 5.46 0 01.76-.88c.49-.52 1.18-1.22 1.95-2s1.49-1.44 2-1.93a5 5 0 01.89-.74 5.46 5.46 0 01-.76.88c-.49.52-1.18 1.22-1.95 2s-1.49 1.44-2 1.92a5.07 5.07 0 01-.89.75z" style="transform-origin:437.98px 177.515px" id="elp4vxunipv7" class="animable" fill="#e0e0e0"/><path d="M404.44 180.37a5.46 5.46 0 01-.88-.76c-.52-.49-1.22-1.18-2-2s-1.44-1.49-1.92-2a4.74 4.74 0 01-.74-.89 4.69 4.69 0 01.87.75c.52.49 1.22 1.19 2 2s1.44 1.49 1.92 2a4.39 4.39 0 01.75.9z" style="transform-origin:401.67px 177.545px" id="el80l5vizj5q" class="animable" fill="#e0e0e0"/><path d="M435.18 212.25a1.26 1.26 0 010-.16v-.45-1.73-6.53c0-5.61 0-13.6-.06-23.18l.12.12h-30.65l.14-.14v32.05l-.12-.12 22.2.06h6.24-6.21l-22.27.06h-.11v-.11-32.18h30.84v.12c0 9.61-.05 17.63-.06 23.26v8.64c-.06.24-.06.29-.06.29z" style="transform-origin:419.88px 196.095px" id="el3edbzjtx1cq" class="animable" fill="#e0e0e0"/><path style="transform-origin:419.9px 196.23px" id="el2ghdkprl7eu" class="animable" fill="#ebebeb" d="M414.77 191.1h10.26v10.26h-10.26z"/><path style="transform-origin:445.86px 124.63px" id="ell3cootdfmca" class="animable" fill="#e0e0e0" d="M414.96 92.42h61.8v64.42h-61.8z"/><path style="transform-origin:441.68px 124.63px" id="elrpf3lvbxncc" class="animable" fill="#fafafa" d="M410.78 92.42h61.8v64.42h-61.8z"/><path d="M472.6 156.86h-61.84V92.4h61.84zm-61.8 0h61.76V92.44H410.8z" style="transform-origin:441.68px 124.63px" id="elb0qiy1aum0m" class="animable" fill="#e0e0e0"/><path style="transform-origin:441.685px 124.63px" id="elchvykuel1h" class="animable" fill="#fafafa" d="M419.09 101.08h45.19v47.1h-45.19z"/><path d="M419.09 148.5a8.21 8.21 0 01-1.12 1.29c-.72.76-1.73 1.79-2.87 2.91s-2.18 2.12-3 2.83a7 7 0 01-1.31 1.09 7.19 7.19 0 011.11-1.29c.72-.76 1.74-1.8 2.88-2.92s2.19-2.12 3-2.83a6.36 6.36 0 011.31-1.08z" style="transform-origin:414.94px 152.56px" id="elfkcodjz0wil" class="animable" fill="#e0e0e0"/><path d="M464.27 148.38a6.87 6.87 0 011.3 1.12c.76.72 1.79 1.73 2.91 2.87s2.12 2.18 2.83 2.95a7.16 7.16 0 011.08 1.31 7.76 7.76 0 01-1.29-1.11c-.76-.72-1.79-1.74-2.91-2.88s-2.13-2.19-2.84-3a7.35 7.35 0 01-1.08-1.26z" style="transform-origin:468.33px 152.505px" id="elpatohd3gcmf" class="animable" fill="#e0e0e0"/><path d="M464.15 101.21a6.65 6.65 0 011.11-1.3c.73-.76 1.74-1.79 2.88-2.91s2.18-2.12 2.95-2.83a8.28 8.28 0 011.3-1.09 6.89 6.89 0 01-1.11 1.3c-.72.76-1.73 1.79-2.87 2.91s-2.19 2.13-3 2.83a7.62 7.62 0 01-1.26 1.09z" style="transform-origin:468.27px 97.145px" id="elugewv49emm" class="animable" fill="#e0e0e0"/><path d="M419 101.32a7.19 7.19 0 01-1.29-1.11c-.77-.72-1.8-1.74-2.92-2.88s-2.11-2.18-2.82-3a7.18 7.18 0 01-1.09-1.3 6.69 6.69 0 011.29 1.11c.76.72 1.8 1.73 2.92 2.87s2.12 2.19 2.83 3a7.2 7.2 0 011.08 1.31z" style="transform-origin:414.94px 97.175px" id="elj9eyrh2pew" class="animable" fill="#e0e0e0"/><path d="M464.15 148.18a2.07 2.07 0 010-.23v-.65-2.55c0-2.23 0-5.47-.05-9.6 0-8.25-.05-20-.09-34.07l.18.17h-45.06l.2-.2v47.1l-.17-.17 32.62.09h11.59-2.39l-9.13.05-32.73.08h-.18v-.18V100.72H464.37v.17c0 14.12-.06 25.91-.09 34.19V147.78a1.31 1.31 0 01-.13.4z" style="transform-origin:441.655px 124.46px" id="elybaolhfzo19" class="animable" fill="#e0e0e0"/><path style="transform-origin:441.68px 124.63px" id="elu3415bb7szn" class="animable" fill="#ebebeb" d="M434.14 117.09h15.08v15.08h-15.08z"/><path d="M84.38 376.44c5.15-2.66 11.21-3 16.93-2.06 3.07.51 6.27 1.43 8.36 3.74s2.49 6.36.09 8.35c-1.43 1.18-3.42 1.36-5.27 1.33-4.48-.05-9.45-.84-13 1.86-2 1.53-3.4 4.09-5.84 4.84s-5.08-.67-6.34-2.82a9.82 9.82 0 01-.72-7.27 11.11 11.11 0 015.79-7.97z" style="transform-origin:94.8024px 384.304px" id="el010ewkrv5270i" class="animable" fill="#ebebeb"/><path d="M72.58 353.67c3.15 4.49 9.27 3 12.11.26s4-6.72 5.13-10.52c2.49-8.67 5-17.76 3.15-26.59a14.7 14.7 0 00-3.4-7.23 7.7 7.7 0 00-7.31-2.43c-3.08.81-5 3.84-6.39 6.71a63.42 63.42 0 00-6.26 27.2c0 4.38.5 9 3 12.6" style="transform-origin:81.6096px 331.766px" id="elvo3skd8prr" class="animable" fill="#ebebeb"/><path d="M63.93 360.12c3.42-4.06 4.07-10 2.55-15.06s-5-9.41-8.92-12.94a47.87 47.87 0 00-16-9.42 17.11 17.11 0 00-7.18-1.22 7.54 7.54 0 00-6 3.64c-1.68 3.21-.07 7.1 1.67 10.27a121.5 121.5 0 0010.49 16c3.15 4.05 6.75 8.05 11.54 9.88s9.77 1.62 12.31-1.71" style="transform-origin:47.4627px 341.94px" id="eltrxhidhpp7" class="animable" fill="#ebebeb"/><path d="M72.37 421.51a10.11 10.11 0 00.28-2.05c.15-1.48.33-3.35.55-5.57a80.83 80.83 0 011.25-8.18 63.88 63.88 0 013-9.66 36 36 0 014.93-8.73 18.45 18.45 0 016.24-5.19 17.14 17.14 0 015.25-1.63 9 9 0 002-.3 11 11 0 00-2.07 0 15.88 15.88 0 00-5.47 1.43 18.26 18.26 0 00-6.58 5.22 34.93 34.93 0 00-5.11 8.92 58.69 58.69 0 00-3 9.81 70 70 0 00-1.09 8.28c-.18 2.37-.24 4.29-.28 5.61a9.9 9.9 0 00.1 2.04z" style="transform-origin:84.0627px 400.831px" id="eljthho5zm1hd" class="animable" fill="#e0e0e0"/><path d="M72.75 417.22a3.92 3.92 0 00.06-1v-2.71c0-2.36 0-5.76.12-10 .21-8.41.93-17.46 2.33-30.22 1.33-12 3.1-26 5-35.05.4-2.06.81-3.92 1.19-5.55s.67-3 1-4.17L83 326a4 4 0 00.16-.93 3.92 3.92 0 00-.33.89c-.2.68-.46 1.54-.78 2.6s-.68 2.44-1.05 4.1-.87 3.48-1.31 5.54a306.28 306.28 0 00-5.24 32.52c-1.4 12.79-2 24.43-2.09 32.86 0 4.22 0 7.63.15 10 .07 1.11.12 2 .17 2.71a3.82 3.82 0 00.07.93z" style="transform-origin:77.76px 371.145px" id="elnxme1rgvlnk" class="animable" fill="#e0e0e0"/><path d="M72.81 394.76a17.52 17.52 0 000-2.83c-.11-1.82-.36-4.45-.87-7.68a101.27 101.27 0 00-2.49-11.18 92.57 92.57 0 00-4.68-13.23A70.59 70.59 0 0051 338.46a34.12 34.12 0 00-3.23-3c-.5-.42-.94-.84-1.38-1.17l-1.25-.86a17.14 17.14 0 00-2.39-1.53c-.14.18 3.38 2.25 7.82 7A74.26 74.26 0 0164 360.18a105.05 105.05 0 014.7 13.1c1.22 4.11 2 7.89 2.65 11.07s.93 5.8 1.13 7.6a18 18 0 00.33 2.81z" style="transform-origin:57.8066px 363.33px" id="elofp1duf0pn" class="animable" fill="#e0e0e0"/><path style="transform-origin:73.155px 449.785px" id="elfcd8p11svt4" class="animable" fill="#e0e0e0" d="M51.1 434.37l2.25 30.83h39.61l2.25-30.83H51.1z"/><path style="transform-origin:73.61px 428.295px" id="eldg6oh06lrut" class="animable" fill="#e0e0e0" d="M47.28 422.22h52.66v12.15H47.28z"/><path style="transform-origin:73.17px 465.705px" id="el77g8ujn0qcu" class="animable" fill="#ebebeb" d="M47.28 464.02v3.37h51.78v-3.37H47.28z"/><path style="transform-origin:73.465px 470.355px" id="elvdhcqi51h7b" class="animable" fill="#e0e0e0" d="M52.18 473.32l-2.43-5.93h47.43l-2.83 5.93H52.18z"/><path d="M94.47 444.45s0 .1-.18.28l-.59.79-2.31 3-.1.13-.1-.14-5.67-7.84h.33l-5.59 7.91-.17.24-.2-.23-6.61-7.87h.38l-.37.46-5.92 7.42-.19.25-.18-.26-5.59-7.9h.33l-6.88 7.84-.12.14-.1-.16c-.9-1.52-1.62-2.74-2.15-3.62l-.55-1a2 2 0 01-.17-.34s.09.09.23.3l.61.93 2.26 3.55h-.21c1.76-2.06 4.06-4.75 6.76-7.93l.17-.2.16.22 5.63 7.86H67l5.91-7.43.36-.45.19-.24.19.23 6.6 7.89h-.37l5.64-7.87.16-.23.17.23 5.54 7.93h-.2c1-1.21 1.82-2.17 2.4-2.88l.65-.74c.14-.2.22-.28.23-.27z" style="transform-origin:73.12px 444.505px" id="elquuwy6pjqa" class="animable" fill="#f5f5f5"/><path d="M95.76 434.17c0 .14-9.92.25-22.16.25s-22.17-.11-22.17-.25 9.92-.25 22.17-.25 22.16.08 22.16.25z" style="transform-origin:73.595px 434.17px" id="eli5tb2o74vf" class="animable" fill="#f5f5f5"/><path d="M97.76 467.72c0 .14-10.78.25-24.09.25s-24.09-.11-24.09-.25 10.79-.24 24.09-.24 24.09.11 24.09.24z" style="transform-origin:73.67px 467.725px" id="elrkqj3wm6ewk" class="animable" fill="#f5f5f5"/></g><g id="freepik--Floor--inject-12" class="animable" style="transform-origin:250px 473.32px;animation:1s 1 forwards cubic-bezier(.36,-.01,.5,1.38) zoomOut;animation-delay:0s"><path d="M470.4 473.32c0 .14-98.68.26-220.39.26s-220.41-.12-220.41-.26 98.66-.26 220.41-.26 220.39.12 220.39.26z" style="transform-origin:250px 473.32px" id="el8n8lfuvxolm" class="animable" fill="#263238"/></g><g id="freepik--Device--inject-12" class="animable" style="transform-origin:278.97px 277.95px;animation:1s 1 forwards cubic-bezier(.36,-.01,.5,1.38) slideUp;animation-delay:0s"><path d="M344.55 473.71l-132.81-.61a28.93 28.93 0 01-28.8-29.1l1.4-333a28.94 28.94 0 0129.07-28.81l132.82.62A28.93 28.93 0 01375 111.92l-1.41 333a28.94 28.94 0 01-29.04 28.79z" style="transform-origin:278.97px 277.95px" id="elmalnv7kn2jg" class="animable" fill="#263238"/><path d="M346 94.36l-25.75-.12a6.39 6.39 0 00-6.28 6.51v4.67a6.41 6.41 0 01-6.28 6.51l-50.2-.24a6.39 6.39 0 01-6.22-6.56v-4.67a6.42 6.42 0 00-6.23-6.57h-9.06l-22.53-.11a20.27 20.27 0 00-20.36 20.18l-1.37 325a20.26 20.26 0 0020.17 20.34l132.55.62a20.28 20.28 0 0020.36-20.18l1.37-325A20.26 20.26 0 00346 94.36z" style="transform-origin:278.945px 276.85px" id="elvdbz2pcrgv" class="animable" fill="#fafafa"/><path d="M352.06 130.14a1 1 0 11-.94-.95.95.95 0 01.94.95z" style="transform-origin:351.061px 130.188px" id="el5fp9qrvt3s9" class="animable" fill="#263238"/><path d="M352.05 133.56a.95.95 0 11-.95-.95.95.95 0 01.95.95z" style="transform-origin:351.1px 133.56px" id="elpaxesclt9h" class="animable" fill="#263238"/><path d="M352 137a1 1 0 01-1 1 1 1 0 010-1.9 1 1 0 011 .9z" style="transform-origin:351.156px 137.05px" id="elylxn3foww7" class="animable" fill="#263238"/><rect x="216.7" y="181.41" width="141.29" height="89.64" rx="4.3" style="transform-origin:287.345px 226.23px" id="eldb4rs6s77rb" class="animable" fill="#f5f5f5"/><rect x="212.82" y="175.59" width="141.29" height="89.64" rx="4.3" style="transform-origin:283.465px 220.41px" id="elg9k3hxrpwr4" class="animable" fill="#e0e0e0"/><path d="M319.84 157.39h-1.35l-.25.62h-.69l1.29-2.9h.67l1.3 2.9h-.71zm-.21-.51l-.46-1.11-.46 1.11z" style="transform-origin:319.18px 156.56px" id="el6a454bmyu3h" class="animable" fill="#263238"/><path d="M321.11 155.11h1.32a1.46 1.46 0 110 2.9h-1.32zm1.29 2.35a.9.9 0 100-1.8h-.61v1.8z" style="transform-origin:322.585px 156.56px" id="el59j8xz9il18" class="animable" fill="#263238"/><path d="M324.55 155.11h1.32a1.46 1.46 0 110 2.9h-1.32zm1.28 2.35a.9.9 0 100-1.8h-.61v1.8z" style="transform-origin:326.025px 156.56px" id="elhybl1f4dlm9" class="animable" fill="#263238"/><path d="M331.8 158v-1.74l-.86 1.43h-.3l-.85-1.39v1.7h-.63v-2.9h.55l1.09 1.8 1.07-1.8h.55v2.9z" style="transform-origin:330.79px 156.55px" id="elkt73ohebfyj" class="animable" fill="#263238"/><path d="M332.94 156.56a1.59 1.59 0 111.59 1.5 1.51 1.51 0 01-1.59-1.5zm2.5 0a.91.91 0 10-.91.93.89.89 0 00.91-.93z" style="transform-origin:334.527px 156.471px" id="el547xfpjj5no" class="animable" fill="#263238"/><path d="M338.49 158l-.56-.81h-.62v.81h-.67v-2.9h1.25c.78 0 1.26.4 1.26 1a1 1 0 01-.59.92l.65.93zm-.63-2.36h-.55v1h.55c.41 0 .61-.19.61-.51s-.2-.48-.61-.48z" style="transform-origin:337.925px 156.55px" id="elsv2549ov4rj" class="animable" fill="#263238"/><path d="M341.94 157.47v.53h-2.25v-2.9h2.2v.54h-1.53v.63h1.35v.52h-1.35v.67z" style="transform-origin:340.815px 156.55px" id="el2piabpxqqda" class="animable" fill="#263238"/><path d="M344.29 156.81h-.73v.71H343v-.71h-.72v-.5h.72v-.71h.53v.71h.73z" style="transform-origin:343.285px 156.56px" id="elffdlya7ofss" class="animable" fill="#263238"/><path d="M208.16 134.23a3.65 3.65 0 016.33-2.25l-1 .91a2.09 2.09 0 00-1.66-.78 2.12 2.12 0 100 4.24 2.09 2.09 0 001.66-.78l1 .91a3.65 3.65 0 01-6.33-2.25z" style="transform-origin:211.325px 134.23px" id="eljexon8lcu0d" class="animable" fill="#263238"/><path d="M219.88 134.64v2.91h-1.38v-.64a1.65 1.65 0 01-1.55.71c-1.2 0-1.91-.66-1.91-1.54s.64-1.53 2.19-1.53h1.18c0-.63-.38-1-1.18-1a2.48 2.48 0 00-1.47.47l-.53-1a3.92 3.92 0 012.2-.62c1.57-.03 2.45.7 2.45 2.24zm-1.47 1.3v-.52h-1c-.69 0-.91.25-.91.59s.32.62.84.62a1.1 1.1 0 001.07-.69z" style="transform-origin:217.46px 135.015px" id="eliuhg1bds6yg" class="animable" fill="#263238"/><path d="M224.38 132.37v1.37h-.33a1.26 1.26 0 00-1.36 1.42v2.41h-1.47v-5.1h1.41v.67a2.05 2.05 0 011.75-.77z" style="transform-origin:222.8px 134.967px" id="el6xn85t5rg18" class="animable" fill="#263238"/><path d="M230.4 130.52v7H229V137a1.94 1.94 0 01-1.59.66 2.63 2.63 0 010-5.25 2 2 0 011.53.62v-2.47zM229 135a1.3 1.3 0 10-1.29 1.41A1.28 1.28 0 00229 135z" style="transform-origin:227.671px 134.092px" id="el71v5dwo4z6e" class="animable" fill="#263238"/><path d="M231.27 137.08l.49-1.07a3.46 3.46 0 001.78.5c.68 0 .93-.18.93-.47 0-.83-3.08 0-3.08-2 0-1 .88-1.65 2.36-1.65a4.23 4.23 0 012 .45l-.49 1.05a3 3 0 00-1.47-.38c-.66 0-.94.21-.94.48 0 .87 3.07 0 3.07 2 0 .95-.88 1.62-2.4 1.62a4.41 4.41 0 01-2.25-.53z" style="transform-origin:233.595px 135.001px" id="elexfve36d2lo" class="animable" fill="#263238"/><path d="M266.93 348.79h-1.72v-1.25h5v1.25h-1.71v4.34h-1.58z" style="transform-origin:267.71px 350.335px" id="elxs9tcawswfh" class="animable" fill="#263238"/><path d="M270.44 350.33a3.12 3.12 0 113.11 2.91 2.93 2.93 0 01-3.11-2.91zm4.62 0a1.51 1.51 0 10-1.51 1.6 1.5 1.5 0 001.51-1.6z" style="transform-origin:273.553px 350.123px" id="el602sl20n46d" class="animable" fill="#263238"/><path d="M278.6 348.79h-1.72v-1.25h5v1.25h-1.71v4.34h-1.57z" style="transform-origin:279.38px 350.335px" id="elkmyn2cqwtmp" class="animable" fill="#263238"/><path d="M286 352.05h-2.37l-.44 1.08h-1.61l2.47-5.59h1.56l2.47 5.59h-1.64zm-.47-1.17l-.72-1.79-.72 1.79z" style="transform-origin:284.83px 350.335px" id="el1swwttasf8z" class="animable" fill="#263238"/><path d="M288.48 347.54h1.58v4.34h2.67v1.25h-4.25z" style="transform-origin:290.605px 350.335px" id="elyiy44w4osv" class="animable" fill="#263238"/><path d="M254.1 374.65v1.73h-.75v-1.71a5.66 5.66 0 01-3.61-1.38l.44-.86a5.15 5.15 0 003.17 1.27v-4c-1.66-.41-3.35-.92-3.35-2.91 0-1.45 1-2.7 3.35-2.88v-1.74h.75v1.72a6 6 0 013.06.94l-.38.89a5.56 5.56 0 00-2.68-.88v4c1.7.4 3.5.88 3.5 2.91 0 1.5-1.1 2.76-3.5 2.9zm-.75-6v-3.77c-1.56.14-2.25.94-2.25 1.89 0 1.17 1.01 1.59 2.25 1.91zm3.15 3.17c0-1.2-1.1-1.6-2.4-1.92v3.77c1.66-.09 2.4-.86 2.4-1.82z" style="transform-origin:253.67px 369.275px" id="el66b0bcokgao" class="animable" fill="#263238"/><path d="M266 364v10.55h-1.09V365h-2.49v-1z" style="transform-origin:264.21px 369.275px" id="elwr2f49rkkdb" class="animable" fill="#263238"/><path d="M276.58 371.64c0 1.86-1.58 3-4.1 3s-4.07-1.17-4.07-3a2.65 2.65 0 012-2.6 2.38 2.38 0 01-1.66-2.32c0-1.72 1.46-2.79 3.69-2.79s3.73 1.07 3.73 2.79a2.39 2.39 0 01-1.69 2.32 2.66 2.66 0 012.1 2.6zm-1.11 0c0-1.3-1.12-2.11-3-2.11s-3 .81-3 2.11 1.1 2.13 3 2.13 3-.84 3-2.15zm-3-3c1.65 0 2.63-.74 2.63-1.89s-1-1.91-2.63-1.91-2.61.72-2.61 1.9.98 1.91 2.62 1.91z" style="transform-origin:272.495px 369.285px" id="elbsruteyu20s" class="animable" fill="#263238"/><path d="M278.09 369.3c0-3.36 1.76-5.37 4.2-5.37s4.22 2 4.22 5.37-1.78 5.37-4.22 5.37-4.2-2.01-4.2-5.37zm7.31 0c0-2.82-1.27-4.37-3.11-4.37s-3.1 1.55-3.1 4.37 1.26 4.37 3.1 4.37 3.11-1.55 3.11-4.37z" style="transform-origin:282.3px 369.3px" id="elsuclh78o8le" class="animable" fill="#263238"/><path d="M289.52 373.82a2.51 2.51 0 01-.21.88l-.63 2.08H288l.51-2.19a.76.76 0 01-.54-.77.78.78 0 01.79-.81.79.79 0 01.76.81z" style="transform-origin:288.745px 374.895px" id="elqkcr5n9nhu" class="animable" fill="#263238"/><path d="M298.45 373.61v1H291v-.76l4.39-4.3c1.19-1.18 1.42-1.89 1.42-2.61 0-1.22-.86-2-2.47-2a3.57 3.57 0 00-2.88 1.17l-.77-.66a4.71 4.71 0 013.74-1.51c2.14 0 3.49 1.09 3.49 2.85 0 1-.31 1.91-1.73 3.3l-3.59 3.53z" style="transform-origin:294.57px 369.271px" id="elnxic2bgf8k" class="animable" fill="#263238"/><path d="M299.74 369.3c0-3.36 1.76-5.37 4.2-5.37s4.23 2 4.23 5.37-1.78 5.37-4.23 5.37-4.2-2.01-4.2-5.37zm7.31 0c0-2.82-1.27-4.37-3.11-4.37s-3.1 1.55-3.1 4.37 1.27 4.37 3.1 4.37 3.11-1.55 3.11-4.37z" style="transform-origin:303.955px 369.3px" id="eltsduaeafse" class="animable" fill="#263238"/><rect x="216.68" y="390.76" width="135.1" height="35.46" rx="16.28" style="transform-origin:284.23px 408.49px" id="eldq5fqet2dn" class="animable" fill="#ffc107"/><g style="transform-origin:284.23px 408.49px" class="animable" opacity=".3" id="el8n381g8phyk"><rect x="216.68" y="390.76" width="135.1" height="35.46" rx="16.28" id="elrxa8z25l1w" class="animable" style="transform-origin:284.23px 408.49px"/></g><rect x="211.43" y="390.76" width="135.1" height="35.46" rx="16.28" style="transform-origin:278.98px 408.49px" id="elmwxvpjh41n" class="animable" fill="#ffc107"/><path d="M274.92 406.54c0 1.82-1.31 2.92-3.49 2.92h-2.08V412h-1.19v-8.38h3.27c2.18 0 3.49 1.1 3.49 2.92zm-1.19 0c0-1.2-.81-1.88-2.34-1.88h-2v3.76h2c1.53 0 2.34-.68 2.34-1.88z" style="transform-origin:271.54px 407.81px" id="elcf3tsmd5bgt" class="animable" fill="#fff"/><path d="M281.61 409.91h-4.46l-.92 2.09H275l3.8-8.38h1.2l3.81 8.38h-1.26zm-.42-1l-1.81-4.11-1.81 4.2z" style="transform-origin:279.405px 407.81px" id="eldw03scn5e3v" class="animable" fill="#fff"/><path d="M287.74 409.1v2.9h-1.19v-2.92l-3.33-5.46h1.28l2.69 4.42 2.69-4.42h1.19z" style="transform-origin:287.145px 407.81px" id="elcj605srbdfm" class="animable" fill="#fff"/><path d="M297.92 333.16a9.7 9.7 0 001.87-.32 6.88 6.88 0 004-3.39 7.08 7.08 0 00.61-1.75 10.45 10.45 0 00.11-2.05v-4.71c0-3.39 0-7.24-.08-11.49s-.05-8.92-.08-13.93v-3.82a6.74 6.74 0 00-.89-3.66 6.52 6.52 0 00-2.82-2.63 7.85 7.85 0 00-4-.65l-36.63.14a6.57 6.57 0 00-4.27 1.61 6.45 6.45 0 00-2.16 3.95 14.79 14.79 0 00-.08 2.32V325.65a7.55 7.55 0 00.67 3.74 6.47 6.47 0 002.45 2.7c2.08 1.4 4.64.9 6.94 1H297.8h-1.91l-5.48.07-20.17.15H260a7 7 0 01-3.61-1 6.89 6.89 0 01-2.62-2.88 7.91 7.91 0 01-.73-3.93v-8.22c0-5.63-.05-11.54-.07-17.67v-4.64-2.34a17.72 17.72 0 01.08-2.4 7 7 0 012.34-4.26 7.11 7.11 0 014.61-1.74l36.62-.1a8.2 8.2 0 014.17.71 7 7 0 013 2.82 7.2 7.2 0 01.93 3.89v33.95a10.3 10.3 0 01-.14 2.1 7.89 7.89 0 01-.65 1.79 6.9 6.9 0 01-4.2 3.4 6.41 6.41 0 01-1.41.22z" style="transform-origin:278.844px 308.703px" id="elham8y6c4qfo" class="animable" fill="#ffc107"/><path d="M287.6 316.19h-1.34l-3.67.05-12.35.11h-.1v-.1c-.1-.65-.2-1.34-.3-2-.86-6-1.62-11.32-2.12-14.81l.08.06h-4.17a1.09 1.09 0 01-.31 0h1.18l3.29-.06h.06v.07c.52 3.48 1.31 8.82 2.2 14.8.1.7.2 1.39.3 2l-.12-.1h17.02z" style="transform-origin:275.46px 307.895px" id="el9rygy2eqjhd" class="animable" fill="#ffc107"/><path d="M269.72 312.7h1.34l3.72-.06 12.81-.11-.11.09c.37-2.16.76-4.49 1.17-6.91.22-1.24.42-2.46.62-3.62l.12.13-15.1.05h-5.69 1.21l4.47-.06 15.1-.13h.13v.13c-.2 1.17-.4 2.39-.62 3.63-.41 2.42-.81 4.75-1.18 6.91v.09h-17.9z" style="transform-origin:279.055px 307.46px" id="elb9x2tvszchr" class="animable" fill="#ffc107"/><path d="M274.61 321s0-.15-.1-.41a1.8 1.8 0 00-.64-.9 1.64 1.64 0 10-1.54 2.86 1.68 1.68 0 001.55-.23 1.71 1.71 0 00.63-.9c.08-.26.08-.42.1-.42a.94.94 0 010 .44 1.71 1.71 0 01-.62 1 1.8 1.8 0 01-1.72.3A1.86 1.86 0 01271 321a1.83 1.83 0 011.22-1.73 1.77 1.77 0 012.36 1.28.89.89 0 01.03.45z" style="transform-origin:272.818px 320.997px" id="elajlbqh4kaaw" class="animable" fill="#ffc107"/><path d="M285.78 320.92s0-.16-.1-.42a1.74 1.74 0 00-.64-.89 1.67 1.67 0 00-1.56-.21 1.65 1.65 0 00-1.05 1.54 1.63 1.63 0 001.07 1.52 1.65 1.65 0 001.55-.22 1.86 1.86 0 00.64-.91c.07-.26.07-.41.09-.41a.89.89 0 010 .43 1.71 1.71 0 01-.62 1 1.83 1.83 0 01-3-1.43 1.85 1.85 0 011.22-1.74 1.8 1.8 0 011.73.28 1.74 1.74 0 01.63 1 .94.94 0 01.04.46z" style="transform-origin:283.983px 320.923px" id="el7uj982z17zg" class="animable" fill="#ffc107"/><path d="M293.37 300.29a5 5 0 11-5-4.93 5 5 0 015 4.93z" style="transform-origin:288.37px 300.36px" id="ellm3gxzm74la" class="animable" fill="#ffc107"/><path d="M289 298.41v3.76h-.87v-3.06h-.75v-.7z" style="transform-origin:288.19px 300.29px" id="elv216r061bu" class="animable" fill="#fff"/><rect x="208.34" y="170.75" width="141.29" height="89.64" rx="4.3" style="transform-origin:278.985px 215.57px" id="elywckl7ky3n" class="animable" fill="#ffc107"/><path d="M231.6 191.23c0 1.15-.91 1.81-2.65 1.81h-3.43v-6.63h3.24c1.66 0 2.51.69 2.51 1.72a1.59 1.59 0 01-.88 1.46 1.64 1.64 0 011.21 1.64zm-4.55-3.67v1.57h1.52c.75 0 1.16-.27 1.16-.79s-.41-.78-1.16-.78zm3 3.51c0-.56-.43-.83-1.22-.83h-1.79v1.64h1.79c.8 0 1.23-.24 1.23-.81z" style="transform-origin:228.561px 189.725px" id="elm4sdmsfs9u" class="animable" fill="#fff"/><path d="M237.13 191.62h-3.08l-.59 1.42h-1.57l3-6.63h1.51l3 6.63h-1.61zm-.48-1.17l-1.05-2.54-1 2.54z" style="transform-origin:235.645px 189.725px" id="elrqcctybh7ig" class="animable" fill="#fff"/><path d="M246.1 186.41V193h-1.26l-3.31-4v4H240v-6.63h1.27l3.29 4v-4z" style="transform-origin:243.05px 189.685px" id="el5jjjrz5ubw3" class="animable" fill="#fff"/><path d="M250.08 190.43l-.89.93V193h-1.52v-6.63h1.52v3.09l2.94-3.09h1.7l-2.74 3L254 193h-1.8z" style="transform-origin:250.835px 189.685px" id="eln8p0ocjiy7" class="animable" fill="#fff"/><path d="M230.36 218.81h-1.22v1.6h-.62v-1.6h-3.44v-.45l3.23-4h.7l-3.12 3.93h2.65v-1.41h.6v1.41h1.22z" style="transform-origin:227.72px 217.385px" id="el2rig69e43gg" class="animable" fill="#fff"/><path d="M234.83 218.66c0 1-.74 1.8-2.21 1.8a3.15 3.15 0 01-2.19-.78l.31-.5a2.65 2.65 0 001.88.71c1 0 1.57-.47 1.57-1.23s-.52-1.21-1.65-1.21h-.43V217l1.69-2.11h-3.12v-.56h3.92v.45l-1.72 2.16c1.3.06 1.95.75 1.95 1.72z" style="transform-origin:232.63px 217.396px" id="el7kgck16s91j" class="animable" fill="#fff"/><path d="M239.76 218.62c0 1-.73 1.84-2.21 1.84a3.15 3.15 0 01-2.19-.78l.31-.5a2.62 2.62 0 001.87.71c1 0 1.58-.51 1.58-1.25s-.49-1.27-2-1.27h-1.29l.31-3.05h3.33v.56h-2.78l-.21 1.94h.78c1.8 0 2.5.72 2.5 1.8z" style="transform-origin:237.56px 217.391px" id="el2rxzxlwcpjj" class="animable" fill="#fff"/><path d="M245.12 218.59a1.9 1.9 0 01-2.08 1.87c-1.62 0-2.49-1.12-2.49-3s1.13-3.15 2.78-3.15a2.82 2.82 0 011.44.33l-.25.5a2.2 2.2 0 00-1.18-.28c-1.32 0-2.16.84-2.16 2.49a4.75 4.75 0 000 .5 1.93 1.93 0 011.86-1 1.84 1.84 0 012.08 1.74zm-.62 0c0-.8-.59-1.31-1.53-1.31a1.4 1.4 0 00-1.56 1.33c0 .67.55 1.3 1.6 1.3a1.33 1.33 0 001.49-1.3z" style="transform-origin:242.835px 217.388px" id="el3ccbjo88y1d" class="animable" fill="#fff"/><path d="M258.28 220.41l-1.46-1.91-1.46 1.91h-.69l1.81-2.35-1.73-2.22h.7l1.37 1.79 1.38-1.79h.68l-1.73 2.22 1.83 2.35z" style="transform-origin:256.825px 218.125px" id="elu7keowtmz3" class="animable" fill="#fff"/><path d="M262.92 220.41l-1.45-1.91-1.47 1.91h-.7l1.81-2.35-1.72-2.22h.7l1.37 1.79 1.37-1.79h.68l-1.72 2.22 1.83 2.35z" style="transform-origin:261.46px 218.125px" id="el65vcp55miz" class="animable" fill="#fff"/><path d="M267.57 220.41l-1.46-1.91-1.46 1.91H264l1.81-2.35-1.81-2.22h.7l1.37 1.79 1.38-1.79h.68l-1.73 2.22 1.83 2.35z" style="transform-origin:266.115px 218.125px" id="elw2ybg454co" class="animable" fill="#fff"/><path d="M272.21 220.41l-1.45-1.91-1.46 1.91h-.7l1.81-2.35-1.72-2.22h.69l1.38 1.79 1.37-1.79h.68l-1.72 2.22 1.82 2.35z" style="transform-origin:270.755px 218.125px" id="el72xznnw8jqi" class="animable" fill="#fff"/><path d="M288.25 220.41l-1.46-1.91-1.46 1.91h-.69l1.81-2.35-1.73-2.22h.7l1.37 1.79 1.38-1.79h.68l-1.73 2.22 1.83 2.35z" style="transform-origin:286.795px 218.125px" id="elt5q2mq9t85h" class="animable" fill="#fff"/><path d="M292.89 220.41l-1.45-1.91-1.44 1.91h-.7l1.81-2.35-1.72-2.22h.69l1.38 1.79 1.37-1.79h.68l-1.72 2.22 1.82 2.35z" style="transform-origin:291.455px 218.125px" id="el6cvkbglema6" class="animable" fill="#fff"/><path d="M297.53 220.41l-1.45-1.91-1.46 1.91h-.7l1.81-2.35-1.73-2.22h.7l1.37 1.79 1.38-1.79h.67l-1.72 2.22 1.83 2.35z" style="transform-origin:296.075px 218.125px" id="elgdl6j9so8od" class="animable" fill="#fff"/><path d="M302.18 220.41l-1.45-1.91-1.47 1.91h-.69l1.81-2.35-1.73-2.22h.7l1.38 1.79 1.37-1.79h.68l-1.72 2.22 1.82 2.35z" style="transform-origin:300.725px 218.125px" id="el1l28o8z0m7" class="animable" fill="#fff"/><path d="M316.58 214.32v6.09H316v-5.53h-1.43v-.56z" style="transform-origin:315.575px 217.365px" id="eltl8n0yybh3m" class="animable" fill="#fff"/><path d="M322.06 218.66c0 1-.74 1.8-2.21 1.8a3.15 3.15 0 01-2.19-.78l.3-.5a2.67 2.67 0 001.89.71c1 0 1.56-.47 1.56-1.23s-.51-1.21-1.64-1.21h-.43V217l1.68-2.11h-3.11v-.56h3.91v.45l-1.72 2.16c1.31.06 1.96.75 1.96 1.72z" style="transform-origin:319.86px 217.396px" id="el3n2ny11sd0o" class="animable" fill="#fff"/><path d="M328.11 218.81h-1.22v1.6h-.62v-1.6h-3.44v-.45l3.23-4h.69l-3.11 3.93h2.64v-1.41h.61v1.41h1.22z" style="transform-origin:325.47px 217.385px" id="elyekkwkjvuy" class="animable" fill="#fff"/><path d="M332.81 219.85v.56h-4.27V220l2.53-2.48c.69-.68.82-1.09.82-1.51 0-.7-.5-1.14-1.43-1.14a2.07 2.07 0 00-1.66.68l-.45-.38a2.73 2.73 0 012.16-.87c1.24 0 2 .63 2 1.64a2.49 2.49 0 01-1 1.91l-2.07 2z" style="transform-origin:330.58px 217.353px" id="eldkfduwku86w" class="animable" fill="#fff"/><path d="M222 233.05a1.59 1.59 0 012.77-1l-.43.4a.91.91 0 00-.73-.34.93.93 0 100 1.86.92.92 0 00.73-.35l.43.4a1.47 1.47 0 01-1.2.52 1.49 1.49 0 01-1.57-1.49z" style="transform-origin:223.385px 233.033px" id="el7k0k501yy5n" class="animable" fill="#fff"/><path d="M227 233.88h-1.35l-.26.62h-.69l1.3-2.91h.66l1.3 2.91h-.71zm-.22-.51l-.46-1.12-.46 1.12z" style="transform-origin:226.33px 233.045px" id="elnptn97ti87" class="animable" fill="#fff"/><path d="M230.16 234.5l-.56-.81h-.6v.81h-.67v-2.91h1.25c.78 0 1.27.41 1.27 1.06a1 1 0 01-.6.92l.65.93zm-.63-2.36H229v1h.55c.41 0 .62-.19.62-.5s-.23-.5-.64-.5z" style="transform-origin:229.615px 233.045px" id="ell3notluj8b" class="animable" fill="#fff"/><path d="M231.13 234.21l.23-.5a1.71 1.71 0 001 .3c.4 0 .56-.13.56-.31 0-.55-1.69-.17-1.69-1.25 0-.5.4-.91 1.23-.91a1.91 1.91 0 011 .26l-.2.51a1.69 1.69 0 00-.81-.23c-.4 0-.55.15-.55.34 0 .53 1.69.16 1.69 1.23 0 .48-.4.9-1.23.9a2.1 2.1 0 01-1.23-.34z" style="transform-origin:232.36px 233.046px" id="ellqd14n5wa2" class="animable" fill="#fff"/><path d="M237.85 231.59v2.91h-.67v-1.19h-1.32v1.19h-.67v-2.91h.67v1.15h1.32v-1.15z" style="transform-origin:236.52px 233.045px" id="elbhtiyrcy44c" class="animable" fill="#fff"/><path d="M238.37 233.05a1.59 1.59 0 111.59 1.5 1.5 1.5 0 01-1.59-1.5zm2.49 0a.91.91 0 10-.9.93.88.88 0 00.9-.93z" style="transform-origin:239.957px 232.961px" id="el4hzhy1v3kku" class="animable" fill="#fff"/><path d="M242.06 231.59h.67V234h1.46v.55h-2.13z" style="transform-origin:243.125px 233.07px" id="elbeilad91nq4" class="animable" fill="#fff"/><path d="M244.57 231.59h1.32a1.46 1.46 0 110 2.91h-1.32zm1.28 2.36a.9.9 0 100-1.8h-.61V234z" style="transform-origin:246.02px 233.045px" id="elfn792nvod3n" class="animable" fill="#fff"/><path d="M250.25 234v.54H248v-2.91h2.2v.54h-1.53v.63H250v.53h-1.35v.67z" style="transform-origin:249.125px 233.085px" id="el7jp0ybsugqy" class="animable" fill="#fff"/><path d="M252.64 234.5l-.56-.81h-.62v.81h-.67v-2.91h1.26c.77 0 1.26.41 1.26 1.06a1 1 0 01-.6.92l.65.93zm-.63-2.36h-.55v1h.54c.41 0 .62-.19.62-.5s-.2-.5-.62-.5z" style="transform-origin:252.075px 233.045px" id="eloidh6l4yzb" class="animable" fill="#fff"/><path d="M221.66 244.4l.72-.86a1.27 1.27 0 001 .61c.52 0 .79-.31.79-.92v-2.67h-2v-1h3.25v3.63a1.81 1.81 0 01-2 2.07 2.25 2.25 0 01-1.76-.86z" style="transform-origin:223.55px 242.416px" id="elyd1kwqpk38" class="animable" fill="#fff"/><path d="M226.33 244.4a.75.75 0 01.77-.77.75.75 0 01.78.77.76.76 0 01-.78.78.75.75 0 01-.77-.78z" style="transform-origin:227.105px 244.405px" id="elcklhkr2hzft" class="animable" fill="#fff"/><path d="M237 239.52l-1.83 5.6h-1.4l-1.23-3.79-1.27 3.79h-1.38l-1.84-5.6h1.34l1.27 3.94 1.32-3.94h1.19l1.28 4 1.31-4z" style="transform-origin:232.525px 242.32px" id="elratsihu3gpm" class="animable" fill="#fff"/><path d="M237.52 239.52a.78.78 0 011.55 0 .78.78 0 01-1.55 0zm.15 1.3h1.25v4.3h-1.25z" style="transform-origin:238.295px 241.974px" id="elb5n99gz6zhl" class="animable" fill="#fff"/><path d="M240.08 239.19h1.24v5.93h-1.24z" style="transform-origin:240.7px 242.155px" id="elxcqy8rsiznc" class="animable" fill="#fff"/><path d="M242.48 239.19h1.25v5.93h-1.25z" style="transform-origin:243.105px 242.155px" id="elwybhxlc25og" class="animable" fill="#fff"/><path d="M244.73 239.52a.71.71 0 01.78-.69.7.7 0 01.77.67.78.78 0 01-1.55 0zm.15 1.3h1.25v4.3h-1.25z" style="transform-origin:245.505px 241.973px" id="elh582sxa2zm" class="animable" fill="#fff"/><path d="M251.09 242.67v2.45h-1.16v-.54a1.4 1.4 0 01-1.31.6c-1 0-1.61-.56-1.61-1.3s.53-1.29 1.84-1.29h1c0-.53-.32-.84-1-.84a2 2 0 00-1.23.4l-.45-.88a3.35 3.35 0 011.85-.52c1.31 0 2.07.61 2.07 1.92zm-1.24 1.09v-.44H249c-.58 0-.77.22-.77.51s.27.52.71.52a.94.94 0 00.91-.59z" style="transform-origin:249.05px 242.969px" id="els6u5vbcry5" class="animable" fill="#fff"/><path d="M259.48 242.66v2.46h-1.24v-2.27c0-.7-.32-1-.82-1s-.95.36-.95 1.13v2.16h-1.25v-2.27c0-.7-.29-1-.81-1s-.95.36-.95 1.13v2.16h-1.24v-4.3h1.19v.49a1.77 1.77 0 011.35-.56 1.6 1.6 0 011.41.71 2 2 0 011.56-.71 1.67 1.67 0 011.75 1.87z" style="transform-origin:255.856px 242.974px" id="elnt6plcny4tn" class="animable" fill="#fff"/><path d="M260.18 244.72l.42-.89a3 3 0 001.49.41c.58 0 .79-.15.79-.39 0-.7-2.6 0-2.6-1.7 0-.82.74-1.4 2-1.4a3.53 3.53 0 011.65.38l-.42.89a2.43 2.43 0 00-1.23-.32c-.56 0-.8.17-.8.4 0 .73 2.59 0 2.59 1.72 0 .8-.74 1.36-2 1.36a3.74 3.74 0 01-1.89-.46z" style="transform-origin:262.125px 242.965px" id="el2c5wbaatbpo" class="animable" fill="#fff"/><path d="M310.36 242.49c0-1.85 1-2.89 2.4-2.89s2.4 1 2.4 2.89-1 2.9-2.4 2.9-2.4-1.05-2.4-2.9zm3.49 0c0-1.27-.44-1.8-1.09-1.8s-1.09.53-1.09 1.8.45 1.8 1.09 1.8 1.09-.53 1.09-1.8z" style="transform-origin:312.76px 242.495px" id="elt8r0xeohde" class="animable" fill="#fff"/><path d="M320.4 243.52a1.92 1.92 0 01-2.11 1.87c-1.55 0-2.51-1-2.51-2.78a2.73 2.73 0 012.86-3 3 3 0 011.56.38l-.48 1a1.84 1.84 0 00-1.05-.28 1.49 1.49 0 00-1.58 1.63 1.89 1.89 0 011.39-.5 1.77 1.77 0 011.92 1.68zm-1.25.07a.85.85 0 00-.95-.84.88.88 0 00-1 .84c0 .48.36.83 1 .83a.84.84 0 00.95-.83z" style="transform-origin:318.083px 242.503px" id="el44xg8uc4ady" class="animable" fill="#fff"/><path d="M323 238.56h1.12l-2.64 7.53h-1.11z" style="transform-origin:322.245px 242.325px" id="elcaiixvavny8" class="animable" fill="#fff"/><path d="M328.26 244.23v1.06H324v-.84l2.16-2c.5-.47.59-.76.59-1 0-.44-.31-.7-.9-.7a1.38 1.38 0 00-1.16.56l-.94-.6a2.57 2.57 0 012.22-1c1.25 0 2.08.64 2.08 1.65a2.23 2.23 0 01-.93 1.77l-1.29 1.21z" style="transform-origin:326.005px 242.497px" id="elvlaky4thnbc" class="animable" fill="#fff"/><path d="M333.84 244.11h-.91v1.18h-1.26v-1.18h-3v-.87l2.64-3.55h1.36l-2.45 3.37h1.51V242h1.22v1.05h.91z" style="transform-origin:331.265px 242.49px" id="elqlbykgccx3s" class="animable" fill="#fff"/><g style="transform-origin:301.905px 196.783px" class="animable" opacity=".2" id="elkmvcu58wqz8"><path d="M310.39 195.68a8.76 8.76 0 00-9.21-6.38 11 11 0 00-3.73.88c-2.91 1.3-4.94 4.75-4 7.79.79 2.48 3.2 4.06 5.59 5.1s5.43 1.81 7.9.65a6.87 6.87 0 003.64-6.49 8.15 8.15 0 00-.19-1.55z" style="transform-origin:301.905px 196.783px" id="elivurhu3zr" class="animable" fill="#fff"/></g><g style="transform-origin:278.98px 187.793px" class="animable" opacity=".2" id="el7xpovc9fcjg"><path d="M345 170.75H213a4.68 4.68 0 00-4.68 4.69v23.66c8.33 5.82 19.78 6.84 29.94 4.72 12-2.51 22.81-8.63 34-13.65s23.41-9 35.46-7c11.38 1.95 21.08 9 31.36 14.28a60.88 60.88 0 0010.56 4.26v-26.27a4.69 4.69 0 00-4.64-4.69z" style="transform-origin:278.98px 187.793px" id="eljchpbpl2sqo" class="animable" fill="#fff"/></g></g><g id="freepik--Character--inject-12" class="animable" style="transform-origin:145.554px 277.633px;animation:1s 1 forwards cubic-bezier(.36,-.01,.5,1.38) slideDown;animation-delay:0s"><path d="M57.68 91.57v.3c.24 1.43 2 7.49 2.84 7.54s2.85-1 2.77-1.84S60.84 90 60.84 90s-.45-1-2.33-.79c-1.17.17-.83 2.36-.83 2.36z" style="transform-origin:60.4632px 94.2964px" id="elne6y2q9j7vl" class="animable" fill="#ffbe9d"/><path d="M60.72 88.36a.58.58 0 000 .3c.25 1.44 2 7.49 2.84 7.55s2.86-1 2.78-1.84-2.47-7.55-2.47-7.55-.45-1-2.33-.79c-1.16.15-.82 2.33-.82 2.33z" style="transform-origin:63.5079px 91.1067px" id="elmc0gsbvez1q" class="animable" fill="#ffbe9d"/><path d="M64 86.28v.3c.24 1.43 2 7.49 2.84 7.54s2.86-1 2.78-1.84-2.48-7.55-2.48-7.55-.44-1-2.33-.79c-1.16.15-.81 2.34-.81 2.34z" style="transform-origin:66.7864px 89.0164px" id="elq5ab7f7lup" class="animable" fill="#ffbe9d"/><path d="M67.25 84.26a.58.58 0 000 .3c.24 1.44 2 7.49 2.84 7.55s2.86-1 2.78-1.84-2.47-7.55-2.47-7.55-.45-1-2.34-.8c-1.15.16-.81 2.34-.81 2.34z" style="transform-origin:70.0377px 87.003px" id="elkkd4jx7no7r" class="animable" fill="#ffbe9d"/><path d="M62.85 95.79a12 12 0 01-1.11-2.88A12.17 12.17 0 0161 90a12 12 0 011.11 2.88 12.17 12.17 0 01.74 2.91z" style="transform-origin:61.925px 92.895px" id="elsbfgpf525n" class="animable" fill="#eb996e"/><path d="M66.44 94.81a24.53 24.53 0 01-1.52-4.11 23.76 23.76 0 01-1.13-4.24 25 25 0 011.51 4.12 25.26 25.26 0 011.14 4.23z" style="transform-origin:65.115px 90.635px" id="elltr0axkxja" class="animable" fill="#eb996e"/><g style="transform-origin:68.675px 89.315px" class="animable" opacity=".78" id="elld8ws9rn009"><path d="M70 93.49a23.14 23.14 0 01-1.52-4.11 23.53 23.53 0 01-1.13-4.24 25 25 0 011.51 4.12A25.26 25.26 0 0170 93.49z" style="transform-origin:68.675px 89.315px" id="el1z5keskc3zm" class="animable" fill="#eb996e"/></g><path d="M60.93 103.19c-.1-.36-3.29-12.63-3.29-12.63h15.5c.58 1 1.63 10.82 1.63 10.82L74 104.6s-10.7 4.75-11 4.77-2.07-6.18-2.07-6.18z" style="transform-origin:66.205px 99.965px" id="elcwghgo6bque" class="animable" fill="#ffbe9d"/><path d="M71.48 101.85L73.35 97a8.86 8.86 0 00-.1-6.6l-.67-1.61-11.8 4s2.23 4 5.3 2.26l-2.64 4.06z" style="transform-origin:67.3593px 95.32px" id="elr3aj4njbsjp" class="animable" fill="#ffbe9d"/><path d="M64.37 99.58c.06 0 0-.59.32-1.54a5.63 5.63 0 012.47-3.17l1.13-.67-1.29.22-3 .52h.06A3.38 3.38 0 0161 93.08a2.82 2.82 0 01-.09-.27l-.2.33c3.38-1 6.42-1.91 8.58-2.71 1.07-.4 1.94-.74 2.52-1a3.26 3.26 0 00.89-.46 33.42 33.42 0 00-3.55 1.08c-2.17.69-5.22 1.56-8.61 2.53l-.26.08.06.26a2.23 2.23 0 00.13.39A3.41 3.41 0 0062 95a4.79 4.79 0 002 .5h.06l3-.58-.16-.45A5.71 5.71 0 0064.42 98a2.89 2.89 0 00-.05 1.58z" style="transform-origin:66.49px 94.275px" id="elxsminr73rtp" class="animable" fill="#eb996e"/><path d="M62.17 94.31c-.11 0 0 .62-.24 1.42a1.08 1.08 0 01-1 .77 1.61 1.61 0 01-1.22-1c-.57-1.26-1.15-2.43-1.49-3.26s-.49-1.4-.58-1.38a3 3 0 00.19 1.51 28.06 28.06 0 001.36 3.4A2.09 2.09 0 0061 97a1.48 1.48 0 001.37-1.17 2.49 2.49 0 000-1.16c-.1-.23-.16-.37-.2-.36z" style="transform-origin:60.0263px 93.9297px" id="el94jrxqxjjx" class="animable" fill="#eb996e"/><path d="M155.6 194.6c-.1 0-.75-1.9-2.26-4.8a15 15 0 00-3.45-4.47 9.25 9.25 0 00-2.86-1.64 16.32 16.32 0 00-3.51-.77c-2.46-.31-4.92-.47-7-1.37A9.38 9.38 0 01131 174a5.56 5.56 0 010-1.06c0-.25 0-.37.05-.37s0 .51.17 1.41a9.65 9.65 0 001.34 3.56 9.06 9.06 0 004.2 3.62c2 .83 4.36 1 6.85 1.29a16.56 16.56 0 013.62.81 9.67 9.67 0 013 1.75 14.91 14.91 0 013.47 4.67 31.79 31.79 0 011.51 3.6 7.22 7.22 0 01.39 1.32z" style="transform-origin:143.287px 183.585px" id="ellihs4q341m" class="animable" fill="#263238"/><path d="M112.85 134.38a17.88 17.88 0 0120.59 3.91c2.53 2.8 4.19 6.44 7.28 8.61 3.8 2.65 8.81 2.44 13.44 2.58s9.86 1.09 12.38 5c1.17 1.82 1.56 4 2.19 6.09s1.65 4.2 3.56 5.22a13.44 13.44 0 004.69 1c1.59.21 3.31.72 4.16 2.08a53.83 53.83 0 01-9.72 17.13l-3.25-1.67c.08 1.28.17 2.57.25 3.86a29 29 0 00-7.81 6.35q-3-3.66-6-7.33c-1.76-2.13-3.61-4.34-6.12-5.5-2.33-1.08-5-1.14-7.53-1.43s-5.25-.93-7-2.81c-1.41-1.53-2-3.66-3.23-5.34a8.3 8.3 0 00-7.44-3.26" style="transform-origin:146.995px 163.614px" id="eltvbi8gi14m" class="animable" fill="#263238"/><path d="M125.06 167.38c-.46 2 1 4 2.81 4.8a13.49 13.49 0 005.9.82 12.72 12.72 0 015.89.89c3 1.48 4.4 5 7 7.05a8.86 8.86 0 0014.24-5.66 8.9 8.9 0 01-10.74.06c-2.43-1.9-3.81-5.06-6.58-6.4s-6-.47-9-.21-6.77-.6-7.67-3.51l-.65.11z" style="transform-origin:142.937px 174.028px" id="elfafdeeavm0h" class="animable" fill="#ffc107"/><g style="transform-origin:127.775px 168.644px" class="animable" opacity=".3" id="elowwvnga0lfh"><path d="M125.78 170.45c-.15.23 2.1 2 2.09 1.73 0 0 1.52-.85 1.76-1.7a2.92 2.92 0 00-.44-2.67 4.1 4.1 0 01-2.21-2.73h-.68l-.52 5.37" id="el2zkde004gpw" class="animable" style="transform-origin:127.775px 168.644px"/></g><path d="M131.87 168.65a5.73 5.73 0 01-.23 2.18 10.93 10.93 0 01-.63 2.11 12.92 12.92 0 01.42-2.15c.29-1.17.4-2.14.44-2.14z" style="transform-origin:131.451px 170.795px" id="elakjd8a7598w" class="animable" fill="#fafafa"/><path d="M141.26 168.29a20.51 20.51 0 00-1.74 2.31 14.55 14.55 0 00-1.08 2.68 2.26 2.26 0 01.12-.85 7.27 7.27 0 01.78-1.93 8.58 8.58 0 011.26-1.66 3.09 3.09 0 01.66-.55z" style="transform-origin:139.849px 170.785px" id="elo2p19j7x68" class="animable" fill="#fafafa"/><path d="M149.51 175.12a2.94 2.94 0 01-.55.74 10.45 10.45 0 01-1.64 1.5 10.32 10.32 0 01-1.91 1.13 2.71 2.71 0 01-.86.31 27.46 27.46 0 002.65-1.61 25.31 25.31 0 002.31-2.07z" style="transform-origin:147.03px 176.96px" id="elnii8m9h1nw" class="animable" fill="#fafafa"/><path d="M155.93 181.9c-.06 0 .06-1.09.07-2.42a21.22 21.22 0 010-2.42 10.63 10.63 0 01.17 2.42 7.84 7.84 0 01-.24 2.42z" style="transform-origin:156.048px 179.48px" id="el9v7nvrz47ie" class="animable" fill="#fafafa"/><path style="transform-origin:202.265px 339.345px" id="elcw1y2enw1sf" class="animable" fill="#ffbe9d" d="M187.98 354.36l36.69-13.8-5.11-16.23-39.7 9.19 8.12 20.84z"/><path d="M219.88 342.51l1.08-.32s12.93 16.12 16.47 15.26l-11.22-36.39-12 4.23a21.79 21.79 0 015.67 17.22z" style="transform-origin:225.82px 339.272px" id="elq0qwsrihrg" class="animable" fill="#ffc107"/><g style="transform-origin:220.721px 327.724px" class="animable" opacity=".6" id="el9uunmie1rt"><path d="M219.26 327.78a1.57 1.57 0 011.38-1.55 1.5 1.5 0 011.55 1.36 1.63 1.63 0 01-1.47 1.63c-.76 0-1.6-.84-1.45-1.59" style="transform-origin:220.721px 327.724px" id="elp4lvy9kkdld" class="animable" fill="#fff"/></g><g style="transform-origin:230.385px 339.305px" class="animable" opacity=".6" id="elzap3mjwqk2k"><path d="M226.21 321.06l-2.87 1 11.8 34.5s1.21 1.4 2.29.87z" style="transform-origin:230.385px 339.305px" id="elmdz5vx6lrb" class="animable" fill="#fff"/></g><path d="M221.1 342.28c.18-.06 0-1 .29-2s.9-1.75.78-1.89-1.06.44-1.41 1.72.24 2.26.34 2.17z" style="transform-origin:221.418px 340.328px" id="elq8moyt7cve" class="animable" fill="#263238"/><path d="M223.86 345.61c.18 0 .25-.87.81-1.71s1.31-1.25 1.25-1.43-1.1 0-1.79 1.08-.44 2.11-.27 2.06z" style="transform-origin:224.798px 344.01px" id="eluze7ssdhzn" class="animable" fill="#263238"/><path d="M229.09 346.37c0-.17-1-.15-1.8.61s-1 1.71-.8 1.74.54-.65 1.23-1.26 1.41-.91 1.37-1.09z" style="transform-origin:227.755px 347.502px" id="elutk1tht82ir" class="animable" fill="#263238"/><path style="transform-origin:116.945px 441.815px" id="el41lzny2vu4s" class="animable" fill="#ffbe9d" d="M103.3 426.13l10.7 37.72 16.59-3.74-5.86-40.33-21.43 6.35z"/><path d="M112.45 458.91l.23 1.11s-17.14 11.54-16.57 15.14L133.3 467l-3.22-12.27a21.77 21.77 0 01-17.63 4.18z" style="transform-origin:114.698px 464.945px" id="el15ezi26gk41" class="animable" fill="#ffc107"/><g style="transform-origin:127.12px 460.99px" class="animable" opacity=".6" id="el4rpkfnwwh9s"><path d="M127.18 459.52a1.56 1.56 0 011.43 1.51 1.51 1.51 0 01-1.48 1.43 1.63 1.63 0 01-1.5-1.6 1.54 1.54 0 011.7-1.32" style="transform-origin:127.12px 460.99px" id="eldlt0tjks5u" class="animable" fill="#fff"/></g><g style="transform-origin:114.679px 469.63px" class="animable" opacity=".6" id="eld063cxiyfe"><path d="M133.3 467l-.78-2.95L97.16 473s-1.5 1.09-1 2.21z" style="transform-origin:114.679px 469.63px" id="ellquifule8ab" class="animable" fill="#fff"/></g><path d="M112.58 460.15c0 .18 1 .07 2 .45s1.66 1 1.82.94-.35-1.1-1.6-1.54-2.3 0-2.22.15z" style="transform-origin:114.502px 460.677px" id="elyt138847wf9" class="animable" fill="#263238"/><path d="M109 462.62c0 .19.85.32 1.64 1s1.14 1.4 1.32 1.35.07-1.1-.93-1.86-2.03-.66-2.03-.49z" style="transform-origin:110.516px 463.736px" id="elw1bqczpbqkn" class="animable" fill="#263238"/><path d="M107.84 467.78c.17 0 .22-1-.46-1.86s-1.62-1.1-1.66-.93.59.58 1.15 1.32.78 1.49.97 1.47z" style="transform-origin:106.833px 466.36px" id="el9jr4qqxo127" class="animable" fill="#263238"/><path d="M84 265.6s-1.37 72 5.69 120.66L105.93 439l22-4.44s-8.44-54.61-9.62-76.9-.35-104-.35-104z" style="transform-origin:105.911px 346.33px" id="elj8fssf9nyyo" class="animable" fill="#263238"/><path d="M98.6 259.13l21.34 82.33a30.73 30.73 0 0038.51 21.75l48.73-14.49-7-21-45.59 7.64-6.11-47.51s-8.48-35.48-19.78-35.47c-2.44 0-30.1 6.75-30.1 6.75z" style="transform-origin:152.89px 308.433px" id="el2f7oni0x1dy" class="animable" fill="#263238"/><path d="M73.8 103.85l-.09 4.47S71.9 142.88 72 148.05s17.44 34.83 17.44 34.83l-10.58 17.33-23.9-43a9.46 9.46 0 01-1.13-5.78l5.71-45.94.15-1.21" style="transform-origin:71.599px 152.03px" id="el9g3qb5vu8lk" class="animable" fill="#ffbe9d"/><path d="M72.18 149.1l18.61 24.63c3.51 4.64 9.55 7.27 14.92 9.49 13.35.65 29.55-1.11 36.2 9.74a7.43 7.43 0 01.79 6.06c-2.88 9.45-12.4 40.91-12.76 44.93 0 0 4.15 4.28 3.22 6.92s-4.46 1.51-4.46 1.51l-43.9 13s-2-1-1.79-2.46a70.39 70.39 0 013.15-9.49 33.13 33.13 0 00.92-20.82 73.82 73.82 0 01-2-8.31L84 208.62c-6.1-10.15-19.75-25-26.75-45.69z" style="transform-origin:100.135px 207.24px" id="elmtqy5sl8j" class="animable" fill="#ffc107"/><path d="M128.51 151.73a15.32 15.32 0 00-13.77-17.15c-8.16-.78-15.42 5.3-16.65 13.41-1.07 7.11-2 14.29-2 16.89.1 7.86 4.7 10.92 6.57 11.84a10.2 10.2 0 002.06.52.06.06 0 010 .06l-1.75 9c-.79 5.91 2.51 11.19 8.41 12.05s10.56-3.68 11.46-9.6z" style="transform-origin:112.359px 166.484px" id="el9cmzlnkts34" class="animable" fill="#ffbe9d"/><path d="M99.45 152.59c.13.18 1.17-.38 2.5-.18s2.21 1 2.37.86 0-.37-.41-.74a3.35 3.35 0 00-1.87-.89 3.24 3.24 0 00-2 .34c-.47.25-.66.52-.59.61z" style="transform-origin:101.909px 152.445px" id="elokmyrf9ayja" class="animable" fill="#263238"/><path d="M111.29 155.15c.13.18 1.17-.37 2.5-.17s2.2 1 2.37.86 0-.38-.41-.75a3.42 3.42 0 00-1.87-.89 3.38 3.38 0 00-2 .34c-.47.26-.66.53-.59.61z" style="transform-origin:113.751px 155.012px" id="elg4fz6aqcdzm" class="animable" fill="#263238"/><path d="M106.68 161.44a8.91 8.91 0 00-2.1-.7c-.34-.09-.65-.2-.67-.44a1.79 1.79 0 01.37-1l1.38-2.44a44.34 44.34 0 003.25-6.44 46.65 46.65 0 00-3.76 6.17c-.46.86-.91 1.67-1.34 2.46a2 2 0 00-.37 1.31.88.88 0 00.49.57 2.65 2.65 0 00.56.17 8.37 8.37 0 002.19.34z" style="transform-origin:106.172px 155.93px" id="ela817hboodq9" class="animable" fill="#263238"/><path d="M104.82 177.25s5.07 1.17 12.06-1.76c0 0-3 6.5-12.53 4.19z" style="transform-origin:110.615px 177.833px" id="elyg1jd80rub9" class="animable" fill="#eb996e"/><path d="M106.78 164.73a2.43 2.43 0 012.28-.58 2.21 2.21 0 011.39 1 1.43 1.43 0 01-.12 1.61 1.64 1.64 0 01-1.81.18 5.1 5.1 0 01-1.56-1.26 1.76 1.76 0 01-.32-.45.47.47 0 01.08-.5" style="transform-origin:108.622px 165.601px" id="elf3et35t5u2j" class="animable" fill="#ffc107"/><path d="M110.47 162.93c-.22 0-.43 1.4-1.82 2.25s-2.9.46-2.94.66.3.33 1 .44a3.57 3.57 0 002.44-.47 3.14 3.14 0 001.43-1.89c.09-.6-.01-.98-.11-.99z" style="transform-origin:108.161px 164.629px" id="eleemkhizmhio" class="animable" fill="#263238"/><path d="M112.2 150.82c.08.38 1.44.4 3 .82s2.73 1 3 .73c.11-.14-.06-.51-.51-.94a5.17 5.17 0 00-2.14-1.11 5.07 5.07 0 00-2.4-.07c-.65.15-.98.39-.95.57z" style="transform-origin:115.215px 151.289px" id="ely28g7yzyod" class="animable" fill="#263238"/><path d="M100.79 148.48c.19.34 1.16.16 2.26.31s2 .5 2.27.21c.11-.14 0-.46-.36-.81a3.16 3.16 0 00-1.75-.76 3.08 3.08 0 00-1.89.35c-.44.22-.61.54-.53.7z" style="transform-origin:103.066px 148.257px" id="el1ptpgoau21b" class="animable" fill="#263238"/><path d="M100.5 236.4a11 11 0 01-11-11.09 63.39 63.39 0 012.06-13.7l17 3.77 4.5-7.44s9.48-18.42 18.46-19.63c8.1-1.1 12.6 4.71 10.89 12.77s-13.7 23.72-24 30.08a35.05 35.05 0 01-17.91 5.24z" style="transform-origin:116.135px 212.288px" id="ellekcqdiv8jl" class="animable" fill="#ffc107"/><path d="M132.81 217.33a3.23 3.23 0 01-.36.61q-.39.6-1.17 1.68a55.65 55.65 0 01-4.79 5.8 41 41 0 01-8.64 7.05 30.45 30.45 0 01-12.92 4.34 24.23 24.23 0 01-7.1-.44 13.48 13.48 0 01-6-2.8 10.69 10.69 0 01-3.18-5.09 15.17 15.17 0 01-.54-5.2 29.23 29.23 0 011.61-7.35c.29-.84.53-1.48.69-1.92a3.89 3.89 0 01.28-.66 3.59 3.59 0 01-.18.69c-.15.5-.35 1.15-.59 2a31 31 0 00-1.45 7.3 15.21 15.21 0 00.6 5.06 10.2 10.2 0 003.07 4.85 13.31 13.31 0 005.8 2.67 24.18 24.18 0 006.94.41 30.32 30.32 0 0012.72-4.23 42.23 42.23 0 008.63-6.9 67.5 67.5 0 004.89-5.66l1.24-1.62a4 4 0 01.45-.59z" style="transform-origin:110.442px 225.124px" id="elapwv9ojk514" class="animable" fill="#263238"/><path d="M134.58 217.84a4.92 4.92 0 01-2.05 2.42 5 5 0 01-3 1.16c0-.15 1.29-.6 2.66-1.59s2.26-2.08 2.39-1.99z" style="transform-origin:132.055px 219.627px" id="elwtd5oloxj4e" class="animable" fill="#263238"/><path d="M107.13 222.33a8.11 8.11 0 01.15-3.39 8.22 8.22 0 011-3.24 17.6 17.6 0 01-.54 3.33 17.3 17.3 0 01-.61 3.3z" style="transform-origin:107.649px 219.015px" id="elllxoz875hbb" class="animable" fill="#263238"/><path d="M110.21 223.5a11.62 11.62 0 01-2.13-8.1c.15 0 .22 1.89.81 4.12s1.46 3.91 1.32 3.98z" style="transform-origin:109.116px 219.45px" id="el3gx4vq4yxct" class="animable" fill="#263238"/><path d="M119.35 198a18.69 18.69 0 01-1.49 2.68c-1 1.62-2.35 3.84-3.89 6.27s-3 4.63-4 6.2a19.59 19.59 0 01-1.8 2.49 17.89 17.89 0 011.48-2.68c1-1.63 2.35-3.85 3.9-6.28s3-4.63 4-6.2a18.07 18.07 0 011.8-2.48z" style="transform-origin:113.76px 206.82px" id="elmuomd979xh9" class="animable" fill="#263238"/><path d="M86.84 228a4.46 4.46 0 01-.49-1 29 29 0 01-1-3 37.65 37.65 0 01.07-20.45 27.5 27.5 0 011-3 5.78 5.78 0 01.49-1c.09 0-.5 1.56-1.15 4.1a41.67 41.67 0 00-.08 20.26c.66 2.57 1.25 4.09 1.16 4.09z" style="transform-origin:85.4444px 213.775px" id="ela3wsxr70tah" class="animable" fill="#263238"/><path d="M121.18 241.32a6.26 6.26 0 01-.74 1 29.14 29.14 0 01-2.3 2.55 37.37 37.37 0 01-3.84 3.36 43.82 43.82 0 01-5.26 3.38 44.37 44.37 0 01-5.74 2.49 38 38 0 01-4.93 1.32 27.46 27.46 0 01-3.4.49 5.49 5.49 0 01-1.26 0c0-.1 1.78-.25 4.58-.89a44.22 44.22 0 004.85-1.41 42 42 0 0010.87-5.8 43.8 43.8 0 003.87-3.24c2.12-1.92 3.22-3.31 3.3-3.25z" style="transform-origin:107.445px 248.632px" id="elgv9d5wfuoxi" class="animable" fill="#263238"/><path d="M127.51 237.74a13.29 13.29 0 011.72 3.25 13.11 13.11 0 011.24 3.47 13.25 13.25 0 01-1.72-3.26 13.42 13.42 0 01-1.24-3.46z" style="transform-origin:128.99px 241.1px" id="elwc78b92xsuq" class="animable" fill="#263238"/><path d="M118.78 337c-.14 0-3.46-13.51-7.42-30.24s-7.06-30.32-6.92-30.35 3.46 13.5 7.42 30.23 7.06 30.36 6.92 30.36z" style="transform-origin:111.61px 306.705px" id="el9y8q7wcacd" class="animable" fill="#455a64"/><path d="M138.35 259.15a3 3 0 01-.6.64 13.79 13.79 0 01-1.92 1.45 15.51 15.51 0 01-15.23.68 13.38 13.38 0 01-2-1.27c-.45-.34-.67-.56-.65-.59s1 .7 2.85 1.53a16.25 16.25 0 0014.88-.67c1.69-.98 2.6-1.85 2.67-1.77z" style="transform-origin:128.149px 261.37px" id="ely1e6gfl6f" class="animable" fill="#455a64"/><path d="M107.46 291.12a3.36 3.36 0 01-.95-.81 10.86 10.86 0 01-1.84-2.87 39.85 39.85 0 01-1.67-4.74l-1.81-5.85c-1.28-4.17-2.4-7.94-3.19-10.68-.36-1.29-.67-2.38-.91-3.25a5.38 5.38 0 01-.26-1.22 6.2 6.2 0 01.45 1.16c.29.85.65 1.93 1.07 3.2.88 2.71 2.06 6.47 3.34 10.63.62 2.08 1.22 4.06 1.77 5.87a45.26 45.26 0 001.56 4.73 12.76 12.76 0 002.44 3.83z" style="transform-origin:102.145px 276.41px" id="el13or5hk3a6o9" class="animable" fill="#455a64"/><path d="M101.22 263.18c-.06 0 .2-.49.92-.45a1.31 1.31 0 011 .6 1.28 1.28 0 01-.17 1.48 1.29 1.29 0 01-1.44.42 1.3 1.3 0 01-.76-.94c-.15-.71.28-1 .3-1s-.15.38 0 .88a1.08 1.08 0 00.58.59.83.83 0 00.87-.3.84.84 0 00.16-.91 1 1 0 00-.68-.48c-.43-.07-.73.17-.78.11z" style="transform-origin:102.02px 264.015px" id="elde76dlwp5xr" class="animable" fill="#455a64"/><path d="M104 267.69s.07-.13.32-.18a1.13 1.13 0 01.95.33 1.21 1.21 0 01.11 1.51 1.49 1.49 0 01-1.75.58 1.81 1.81 0 01-1.17-1.41 1.88 1.88 0 01.29-1.45 1 1 0 01.89-.47c.27 0 .33.2.31.21s-.13 0-.31 0a.94.94 0 00-.59.48 1.57 1.57 0 00.75 2.15 1 1 0 001.18-.35.79.79 0 000-1 1 1 0 00-.66-.38c-.22-.02-.32.02-.32-.02z" style="transform-origin:104.007px 268.309px" id="elpmry190puqs" class="animable" fill="#455a64"/><path d="M88.55 266.15a5.3 5.3 0 01.59 2.05 11.85 11.85 0 01-.43 5.12 12 12 0 01-2.54 4.47 5.17 5.17 0 01-1.65 1.35c-.06-.07.56-.59 1.37-1.59a13.59 13.59 0 002.32-4.38 13.26 13.26 0 00.56-4.93c-.09-1.24-.31-2.06-.22-2.09z" style="transform-origin:86.8817px 272.645px" id="ell67281z1r3e" class="animable" fill="#455a64"/><path d="M155.87 334.69a31.86 31.86 0 01-3.81 4.18 30.55 30.55 0 01-4.19 3.82 31.55 31.55 0 013.82-4.18 30.84 30.84 0 014.18-3.82z" style="transform-origin:151.87px 338.69px" id="elt51y0pabekb" class="animable" fill="#455a64"/><path d="M152.51 343.91a33.34 33.34 0 012-8 16.65 16.65 0 01-.73 4.07 16.41 16.41 0 01-1.27 3.93z" style="transform-origin:153.51px 339.91px" id="elupvj6ydahy" class="animable" fill="#455a64"/><g style="transform-origin:107.325px 235.188px" class="animable" opacity=".3" id="elhmou84i9poq"><path d="M92 233.38a10.53 10.53 0 005.38 6.62 15.44 15.44 0 008.58 1.51 20.48 20.48 0 0016.85-12.74c-4.46 3.1-9.39 6-14.73 7.29a21.33 21.33 0 01-16.24-2.37" id="el9zasdhyjgaj" class="animable" style="transform-origin:107.325px 235.188px"/></g><path d="M121.86 188.26l3.32-3a1.24 1.24 0 011-.46c.5.07.7.68.72 1.18a4.47 4.47 0 01-1.58 3.54" style="transform-origin:124.381px 187.16px" id="elkz01qr907lh" class="animable" fill="#ffbe9d"/><path d="M125.28 189.49c-.06-.06.43-.47.86-1.34a4.56 4.56 0 00.46-1.61 3 3 0 000-.95c-.07-.31-.25-.56-.48-.57s-.51.2-.77.44l-.78.69-1.34 1.15c-.77.64-1.27 1-1.32 1s.37-.52 1.07-1.23l1.27-1.23.76-.72a1.62 1.62 0 011.15-.58.93.93 0 01.67.37 1.69 1.69 0 01.27.6 3 3 0 010 1.12 4.4 4.4 0 01-.6 1.73c-.59.86-1.19 1.18-1.22 1.13z" style="transform-origin:124.529px 187.018px" id="elvzgyry21au" class="animable" fill="#eb996e"/><path d="M106.91 191.41l-14.82 20.42 16.42 3.55 6.72-18.73 11.59 1.48 7.37-2.32-6.32-5.69-9.26-2.71a10.71 10.71 0 00-11.7 4z" style="transform-origin:113.14px 201.178px" id="elg3f4cvwha1k" class="animable" fill="#ffbe9d"/><path d="M127.87 190.12a1.69 1.69 0 01-.48-.1l-1.34-.38c-1.16-.34-2.84-.84-4.93-1.41a33.78 33.78 0 00-3.43-.77 13.26 13.26 0 00-4 0 9.18 9.18 0 00-4 1.63 14 14 0 00-3.15 3.5 139.34 139.34 0 01-9.78 13.82c-1.37 1.68-2.52 3-3.34 3.91-.4.45-.72.79-1 1a1.92 1.92 0 01-.35.33 13.76 13.76 0 011.15-1.48c.76-.94 1.87-2.3 3.2-4a165.17 165.17 0 009.64-13.88 14.23 14.23 0 013.28-3.62 9.65 9.65 0 014.24-1.69 13.49 13.49 0 014.12 0 29.22 29.22 0 013.46.85c2.08.61 3.75 1.17 4.89 1.57l1.31.47a2.9 2.9 0 01.51.25z" style="transform-origin:109.97px 199.236px" id="el91zmo6xaghb" class="animable" fill="#eb996e"/><path d="M115.61 195.26a12.1 12.1 0 01-.75 2.7 12.35 12.35 0 01-.89 2.65 9.09 9.09 0 011.64-5.35z" style="transform-origin:114.789px 197.935px" id="elbpbq5110nrg" class="animable" fill="#eb996e"/><path d="M127.52 198a22.53 22.53 0 01-6.34-.08c-1.75-.19-3.29-.59-4.37-.36a5.21 5.21 0 00-1.64.67c-.07 0 .38-.73 1.57-1s2.8 0 4.5.2c3.45.34 6.27.38 6.28.57z" style="transform-origin:121.341px 197.673px" id="elcshmkgjoxm" class="animable" fill="#eb996e"/><path d="M129.58 184.76a2.46 2.46 0 000 2.82c1 1.41 1.79 1.5 1.79 1.5l-.38 1.6 2.35.85 1.13-3.39z" style="transform-origin:131.803px 188.145px" id="ellygmyhp1zw" class="animable" fill="#ffbe9d"/><path d="M129.58 184.76a7.39 7.39 0 011.38.8c.88.56 2.16 1.38 3.65 2.39l.15.1-.06.17-1.11 3.39-.08.26-.25-.09-2.34-.85-.22-.08.06-.21c.13-.56.26-1.09.39-1.6l.2.29a2.47 2.47 0 01-1.09-.66 5.8 5.8 0 01-.71-.81 2.5 2.5 0 01-.56-1.69 1.94 1.94 0 01.6-1.4 4.88 4.88 0 00-.31 1.41 2.25 2.25 0 00.58 1.44 5.87 5.87 0 00.69.73 2.2 2.2 0 00.86.51l.25.06-.05.23c-.12.51-.24 1.05-.36 1.6l-.16-.29 2.35.83-.33.16 1.14-3.38.1.27c-1.39-1-2.55-1.85-3.4-2.49a14 14 0 01-1.37-1.09z" style="transform-origin:131.874px 188.315px" id="eliyfr6se1j0d" class="animable" fill="#eb996e"/><path d="M137.92 199.43s2.82.94 3.13 1.41-1.57 57.68-1.57 57.68l-4.86-5.64z" style="transform-origin:137.852px 228.975px" id="elb7ehj4oeb8s" class="animable" fill="#263238"/><path style="transform-origin:126.21px 224.745px" id="elzy28erlyny" class="animable" fill="#455a64" d="M131.18 196.61l-16.68 51.56 20.12 4.71 3.3-53.45-2.98.47-3.76-3.29z"/><path d="M138.7 251.36a9 9 0 01-1.12-1.31c-.67-.85-1.61-2.09-2.73-3.58l.13.09-6.34-1.17c-3.44-.65-6.54-1.27-8.79-1.74-1.12-.24-2-.44-2.65-.59a3.56 3.56 0 01-1-.29 4.14 4.14 0 011 .09c.63.09 1.55.23 2.68.42 2.26.39 5.38.95 8.82 1.6l6.33 1.24h.09l.05.07c1.08 1.52 2 2.79 2.59 3.69a7.89 7.89 0 01.94 1.48z" style="transform-origin:127.45px 247.064px" id="ellqmceu7pbvd" class="animable" fill="#fafafa"/><path d="M138.7 238.75a5.68 5.68 0 01-.88-1c-.52-.69-1.25-1.69-2.12-2.9l.14.09-5.57-1c-2.88-.55-5.48-1.07-7.36-1.48a17.74 17.74 0 01-3-.76 18.81 18.81 0 013.08.4c1.9.31 4.51.78 7.39 1.32l5.55 1.1h.09l.05.07c.83 1.24 1.51 2.27 2 3a5.28 5.28 0 01.63 1.16z" style="transform-origin:129.305px 235.225px" id="elkrtd3gm4sv" class="animable" fill="#fafafa"/><path d="M138.52 224.74a17.86 17.86 0 01-2.17-2.6l.14.09c-1.33-.22-3-.52-4.75-.85-2.22-.43-4.23-.84-5.68-1.16a11 11 0 01-2.32-.63 11.28 11.28 0 012.39.27c1.47.23 3.49.58 5.71 1 1.77.33 3.41.66 4.72.94h.09v.07a18 18 0 011.87 2.87z" style="transform-origin:131.13px 222.165px" id="eljmf0ox1j4wc" class="animable" fill="#fafafa"/><path d="M138.67 212.37a10.39 10.39 0 01-1.6-1.84l.13.08c-1.06-.16-2.41-.4-3.88-.68a38.59 38.59 0 01-6.21-1.44 40 40 0 016.3.93c1.48.28 2.82.56 3.87.79h.08v.06a9.74 9.74 0 011.31 2.1z" style="transform-origin:132.89px 210.43px" id="elto7ssumoyu" class="animable" fill="#fafafa"/><path d="M134.62 252.88a103.09 103.09 0 01-10.12-2.1 102.8 102.8 0 01-10-2.61 102.28 102.28 0 0110.13 2.1 101.12 101.12 0 019.99 2.61z" style="transform-origin:124.56px 250.525px" id="eld49lbvetce" class="animable" fill="#263238"/><path style="transform-origin:126.99px 253.345px" id="elp1pn3stdhu8" class="animable" fill="#455a64" d="M120.57 255.18l-6.07-7.01 20.12 4.71 4.86 5.64-18.91-3.34z"/><path style="transform-origin:148.965px 229.115px" id="elm2kf4qv4cka" class="animable" fill="#ffc107" d="M159.23 255.7l-20.53 2.82v-58.81l2.35 1.13 18.18 54.86z"/><g style="transform-origin:148.965px 229.115px" class="animable" opacity=".4" id="eld6o0q309an"><path id="elj4vz0vqggxo" class="animable" style="transform-origin:148.965px 229.115px" d="M159.23 255.7l-20.53 2.82v-58.81l2.35 1.13 18.18 54.86z"/></g><path d="M152.49 238.39a11.29 11.29 0 01-1.26.37 13.48 13.48 0 00-3.23 1.44 8.72 8.72 0 00-3.42 3.82 6.87 6.87 0 00.07 6.06 2.6 2.6 0 001.1 1.06 1 1 0 001.2-.25 1.94 1.94 0 00.28-1.35 4.07 4.07 0 00-.47-1.36 4.77 4.77 0 00-4.18-2.47 4.3 4.3 0 00-3 1.45c-.57.61-.78 1-.82 1s0-.11.12-.32a5 5 0 01.55-.83 4.4 4.4 0 013.19-1.68 5.14 5.14 0 014.61 2.61 3.07 3.07 0 01.17 3.25 1.49 1.49 0 01-1.81.42 3.07 3.07 0 01-1.34-1.28 7.27 7.27 0 01-.06-6.52 9 9 0 013.67-3.93 11.59 11.59 0 013.38-1.32 4.29 4.29 0 011.25-.17z" style="transform-origin:145.618px 245.072px" id="els5uu07ojs9" class="animable" fill="#fafafa"/><path d="M148.62 229.64a3.21 3.21 0 01-1.31.94 7.95 7.95 0 01-7.51-.43c-.84-.55-1.23-1-1.19-1.08a11.2 11.2 0 011.37.76 9.3 9.3 0 003.55 1 9.15 9.15 0 003.63-.55 11.85 11.85 0 011.46-.64z" style="transform-origin:143.614px 230.196px" id="elsbw0wpot6an" class="animable" fill="#fafafa"/><path d="M143.26 215.38a11.68 11.68 0 00-1.32 2 5.52 5.52 0 00-.52 2.47A1.49 1.49 0 00142 221a1.19 1.19 0 001.3-.08 1.25 1.25 0 00.54-1.22 1.84 1.84 0 00-.61-1.21 2.77 2.77 0 00-2.32-.5 5.33 5.33 0 00-1.61.65c-.36.21-.56.33-.59.3s.14-.2.48-.47a4.59 4.59 0 011.63-.84 3.08 3.08 0 012.72.5 2.33 2.33 0 01.81 1.52 1.78 1.78 0 01-.75 1.7 1.7 1.7 0 01-1.88.08 1.91 1.91 0 01-.76-1.56 5.36 5.36 0 01.66-2.66 5.55 5.55 0 011.1-1.47c.28-.27.52-.39.54-.36z" style="transform-origin:141.536px 218.525px" id="elyswv0dtdypi" class="animable" fill="#fafafa"/><path style="transform-origin:158.135px 226.935px" id="elf96503bpwvr" class="animable" fill="#ffc107" d="M177.57 244.1l-18.34 10.34-20.53-51.72 6.11-3.29 32.76 44.67z"/><path style="transform-origin:162.99px 220.355px" id="el0fkvoxjwgfm" class="animable" fill="#ffc107" d="M181.17 239.24l-3.6 4.86-32.76-44.67 4.16-2.82 32.2 42.63z"/><path d="M150.57 207.94a.87.87 0 01.27-.25 2.4 2.4 0 011-.36 5.53 5.53 0 013.65.87 8.2 8.2 0 013.41 4.39 6.93 6.93 0 01.37 3.33 3.85 3.85 0 01-2.1 2.92 4.84 4.84 0 01-3.61.25 6.53 6.53 0 01-2.77-1.89 8.24 8.24 0 01-2.07-5.17 5.46 5.46 0 011.23-3.54 4 4 0 01.75-.7c.2-.13.31-.19.32-.17a11.1 11.1 0 00-.91 1 5.48 5.48 0 00-1 3.41 8 8 0 002.06 4.86 5.91 5.91 0 002.57 1.72 4.28 4.28 0 003.21-.23 3.32 3.32 0 001.84-2.54 6.69 6.69 0 00-.32-3.09 8.07 8.07 0 00-3.16-4.23 5.58 5.58 0 00-3.42-1 3.48 3.48 0 00-1.32.42z" style="transform-origin:154.025px 213.311px" id="elpc23coxveud" class="animable" fill="#fafafa"/><path d="M179.87 237.45s-.08.28-.43.65a3.88 3.88 0 01-1.83 1 4.8 4.8 0 01-3.12-.26 6.87 6.87 0 01-2.9-2.49 8.21 8.21 0 01-1.4-3.55 5.87 5.87 0 01.41-3.1 4.62 4.62 0 011.23-1.7c.38-.33.63-.44.65-.41a6.59 6.59 0 00-1.54 2.25 5.7 5.7 0 00-.28 2.89 8.17 8.17 0 001.34 3.37 6.58 6.58 0 002.67 2.34 4.53 4.53 0 002.84.34 4.78 4.78 0 002.36-1.33z" style="transform-origin:175.002px 233.417px" id="el1xmhintdo79" class="animable" fill="#fafafa"/><path d="M154.14 230.8s.07-.11.26-.25a2.38 2.38 0 011-.37 5.61 5.61 0 013.65.88 8.22 8.22 0 013.41 4.38 7 7 0 01.37 3.33 3.87 3.87 0 01-2.1 2.93 4.83 4.83 0 01-3.61.24 6.44 6.44 0 01-2.77-1.89 8.19 8.19 0 01-2.07-5.16 5.51 5.51 0 011.23-3.55 3.9 3.9 0 01.75-.69c.2-.14.31-.19.32-.18a12.5 12.5 0 00-.91 1 5.44 5.44 0 00-1 3.41 8 8 0 002.06 4.85 5.92 5.92 0 002.57 1.73 4.32 4.32 0 003.21-.23 3.35 3.35 0 001.84-2.54 6.67 6.67 0 00-.32-3.09 8 8 0 00-3.16-4.23 5.67 5.67 0 00-3.42-1 3.47 3.47 0 00-1.31.43z" style="transform-origin:157.585px 236.165px" id="ellqch07ck47" class="animable" fill="#fafafa"/><g style="transform-origin:162.99px 220.355px" class="animable" opacity=".2" id="el2dt7qlzc7y7"><path id="elqipvzdx0j49" class="animable" style="transform-origin:162.99px 220.355px" d="M181.17 239.24l-3.6 4.86-32.76-44.67 4.16-2.82 32.2 42.63z"/></g><path d="M129.4 190a1.93 1.93 0 011.92-.39 5.8 5.8 0 011.77 1l11.8 8.8-2.89 1.65a13 13 0 00-6.54-6" style="transform-origin:137.145px 195.282px" id="elee3thkw9flu" class="animable" fill="#455a64"/><path d="M134.7 200.11a10 10 0 00-3.52-6.36 17.24 17.24 0 01-3.26-2.73 1.3 1.3 0 01-.29-1.27 1 1 0 011-.47 2.87 2.87 0 011.11.47 24.18 24.18 0 015.63 4.13 8.26 8.26 0 012.43 6.34" style="transform-origin:132.693px 194.745px" id="eldrk9q3bz8vm" class="animable" fill="#263238"/><path d="M106.05 135.27c-4.38 1.14-9.92 5.65-7.86 12.14 5.38-1.32 10.24-5.21 14.61-8.62.93 5 1.56 7.47 4.08 12.09 1 1.77 9.16 8.94 10.32 9.5s1.77-4.89.69-7c0 .03-5.13-22.44-21.84-18.11z" style="transform-origin:113.099px 147.568px" id="el9oevc5ymq6f" class="animable" fill="#263238"/><path d="M106.05 135.27a24 24 0 0114.51 7.85 34.22 34.22 0 016.8 16.24c4.81-6.07 3-17.11-2-22s-13.24-5.43-19.33-2.1" style="transform-origin:118.102px 146.254px" id="elv9moyn4s14j" class="animable" fill="#ffc107"/><path d="M159.74 145.59a1.65 1.65 0 01.24.53 3.19 3.19 0 010 1.66 4.37 4.37 0 01-1.43 2.21 8 8 0 01-3.15 1.49 29.41 29.41 0 01-4.14.71 15.4 15.4 0 01-4.84-.23 10 10 0 01-4.76-2.47 11.73 11.73 0 01-2.78-5 47.42 47.42 0 00-1.78-5.36 9.55 9.55 0 00-3.22-3.95 14.76 14.76 0 00-8.33-2.49 40.57 40.57 0 00-6 .44l-1.63.22a2.45 2.45 0 01-.57 0 2.28 2.28 0 01.55-.15l1.62-.31a33.73 33.73 0 016-.61 15.06 15.06 0 018.61 2.46 9.94 9.94 0 013.4 4.14 44.61 44.61 0 011.82 5.41 11.37 11.37 0 002.64 4.83 9.52 9.52 0 004.51 2.36 20.55 20.55 0 008.78-.37 7.77 7.77 0 003.06-1.35 4.21 4.21 0 001.41-2.05 3.51 3.51 0 00-.01-2.12z" style="transform-origin:138.72px 142.28px" id="eldqg6y3za319" class="animable" fill="#263238"/><path d="M120.94 153a16.2 16.2 0 002.74 9.71c2 2.75 5.62 4.52 8.95 3.73l-2.63-2.88a6.23 6.23 0 006.43-.39 23.32 23.32 0 01-14.63-11.33" style="transform-origin:128.678px 159.235px" id="elb7c1jx32ta6" class="animable" fill="#263238"/><path d="M123.56 142.16a9.14 9.14 0 011.31 2.14 25.92 25.92 0 012.07 5.69 26.21 26.21 0 01.73 6 9.06 9.06 0 01-.2 2.5 52.57 52.57 0 00-1-8.4 54.26 54.26 0 00-2.91-7.93z" style="transform-origin:125.623px 150.325px" id="elicwu7irup2d" class="animable" fill="#263238"/><path d="M127.66 144.1a7.27 7.27 0 01.46 2.09 34.31 34.31 0 01.35 5.16 35 35 0 01-.38 5.15 7.91 7.91 0 01-.47 2.09c-.16 0 .33-3.25.33-7.25s-.45-7.22-.29-7.24z" style="transform-origin:128.029px 151.345px" id="elnjhxw8k9f9" class="animable" fill="#263238"/><path d="M126.88 139.3a7.14 7.14 0 01-1.13.26c-.7.14-1.66.36-2.7.67s-2 .64-2.63.9a7.86 7.86 0 01-1.09.4 4.94 4.94 0 011-.54 21.86 21.86 0 012.63-1 21.62 21.62 0 012.73-.62 6.8 6.8 0 011.19-.07z" style="transform-origin:123.105px 140.414px" id="ele40qn0p8l4n" class="animable" fill="#fafafa"/><path d="M121.52 134.72a12.72 12.72 0 01-1.26.23 20.94 20.94 0 00-3 .79 21.52 21.52 0 00-2.83 1.21 10.15 10.15 0 01-1.14.59s.09-.09.27-.21.46-.31.8-.51a16.83 16.83 0 012.83-1.28 16.18 16.18 0 013-.73 8.93 8.93 0 01.94-.1c.27-.01.39-.01.39.01z" style="transform-origin:117.405px 136.122px" id="elwcosvyv9j1" class="animable" fill="#fafafa"/><path d="M112.5 133.27c0 .06-1.16.45-2.59 1a19.38 19.38 0 00-1.79.81 4.71 4.71 0 01-.73.37 7.12 7.12 0 012.44-1.37c.72-.29 1.39-.51 1.87-.66a3 3 0 01.8-.15z" style="transform-origin:109.945px 134.36px" id="el8nrv2tzo9nj" class="animable" fill="#fafafa"/><path d="M125.53 147.21a2.3 2.3 0 01-1.06.29 2.48 2.48 0 01-1.1-.05 4.37 4.37 0 011.08-.16 3.78 3.78 0 011.08-.08z" style="transform-origin:124.45px 147.37px" id="elv0mb77lchz" class="animable" fill="#fafafa"/><path d="M127.92 148.9a1.43 1.43 0 01-.71.12c-.4 0-.72 0-.72-.08s.32-.11.71-.12.71.02.72.08z" style="transform-origin:127.205px 148.922px" id="elbeffvfmfpfi" class="animable" fill="#fafafa"/><path d="M129.88 146.87a2.18 2.18 0 01-.9 0 2.09 2.09 0 01-.87-.19 1.85 1.85 0 01.89 0 2 2 0 01.88.19z" style="transform-origin:128.995px 146.771px" id="elh9lbe43qplq" class="animable" fill="#fafafa"/><g style="transform-origin:127.524px 152.068px" class="animable" opacity=".3" id="ely5fgglx772k"><path d="M127.45 159a32 32 0 00-1.79-12 1.73 1.73 0 01-.07-1.5 1.16 1.16 0 011.78.11 3.29 3.29 0 01.52 2 1.32 1.32 0 01.64-1.11 12.77 12.77 0 01-1 12.07" id="el60j9xzjcvg9" class="animable" style="transform-origin:127.524px 152.068px"/></g><rect x="55.37" y="86.29" width="30.24" height="14.75" rx="2.24" style="transform-origin:70.49px 93.665px" class="animable" fill="#263238" transform="rotate(-27.99)" id="elf6eft1hrpr5"/><path d="M85.46 91.51l-.93-1.76a.5.5 0 00-.68-.19l-.32.17a.5.5 0 01-.67-.19L81 86.11a.5.5 0 01.22-.67l.32-.17a.5.5 0 00.22-.66l-.29-.61-.82-1.54a1.58 1.58 0 00-2.12-.65l-22.2 11.8a1.56 1.56 0 00-.65 2.12l4.81 9.06a1.56 1.56 0 002.12.65l22.2-11.81a1.56 1.56 0 00.65-2.12z" style="transform-origin:70.57px 93.6285px" id="el51l7wtmkhy9" class="animable" fill="#fafafa"/><path d="M83.24 93.23a.08.08 0 01-.1 0 .09.09 0 010-.1.07.07 0 01.1 0 .07.07 0 010 .1z" style="transform-origin:83.1929px 93.1783px" id="elc03zngk84mc" class="animable" fill="#263238"/><path d="M83 93.35a.07.07 0 01-.1 0 .08.08 0 010-.1.08.08 0 01.1 0 .07.07 0 010 .1z" style="transform-origin:82.9517px 93.3017px" id="elufyrc9ha0sr" class="animable" fill="#263238"/><path d="M82.78 93.48a.08.08 0 01-.1 0 .07.07 0 010-.1.07.07 0 01.1 0 .08.08 0 010 .1z" style="transform-origin:82.7283px 93.4283px" id="elejkpb2nl2p" class="animable" fill="#263238"/><path d="M80.21 92v-.09h.25l-.15.2v-.05zm0 0l.06-.07h-.07z" style="transform-origin:80.33px 92.01px" id="el5djwuawue3y" class="animable" fill="#263238"/><path d="M80.41 92v.09a.13.13 0 010 .17.12.12 0 01-.16-.06l-.05-.09zm-.11.18a.06.06 0 00.09 0 .07.07 0 000-.1l-.13.07z" style="transform-origin:80.3208px 92.1355px" id="elv7e1tat8c9a" class="animable" fill="#263238"/><path d="M80.54 92.27v.09a.11.11 0 010 .16.1.1 0 01-.15-.06v-.09zm-.12.17a.07.07 0 00.1 0 .05.05 0 000-.09l-.12.07z" style="transform-origin:80.4823px 92.4026px" id="el5x2mm9x38uj" class="animable" fill="#263238"/><path d="M80.6 92.87l.12-.07h-.13l.07-.11-.12.06.19-.11-.08.14h.16l-.19.11z" style="transform-origin:80.675px 92.765px" id="elo5abqeemuh" class="animable" fill="#263238"/><path d="M80.74 92.89a.11.11 0 01.16.06.11.11 0 010 .16.12.12 0 01-.16 0 .12.12 0 010-.22zm.1.17a.08.08 0 000-.09.07.07 0 10-.13.07.08.08 0 00.13.02z" style="transform-origin:80.8012px 93.0077px" id="elq9euzdv0km" class="animable" fill="#263238"/><path d="M80.85 93.32v-.06h-.06l.2-.11v.09a.08.08 0 010 .12.08.08 0 01-.09 0v.08zm.14-.13h-.07s.08.03.08 0z" style="transform-origin:80.9035px 93.295px" id="el8fvwmu7qjqn" class="animable" fill="#263238"/><path d="M81 93.54l-.08-.15.2-.11.08.15v-.11.09-.09z" style="transform-origin:81.06px 93.41px" id="eldayuafh7yi7" class="animable" fill="#263238"/><path d="M81.14 93.68v-.05h-.05.05z" style="transform-origin:81.115px 93.655px" id="el1ptm1yc7nuo" class="animable" fill="#263238"/><path d="M77.69 83.57a.28.28 0 01.39.35h-.1a.16.16 0 000-.15.15.15 0 00-.22-.06.16.16 0 00-.07.22.2.2 0 00.12.08v.1a.25.25 0 01-.18-.14.27.27 0 01.06-.4z" style="transform-origin:77.833px 83.8243px" id="elpr8kqzonyy" class="animable" fill="#263238"/><path d="M78.1 84.38l-.2.11-.05-.09a.14.14 0 01-.11-.08.12.12 0 010-.18c.06 0 .13 0 .18.09V84.19a.3.3 0 00-.08-.08L78 84a.28.28 0 01.12.12c.1.12.08.21-.02.26zm-.15 0v-.07h-.07a.05.05 0 000 .08.07.07 0 00.12-.06z" style="transform-origin:77.9426px 84.245px" id="eldiodremgmgk" class="animable" fill="#263238"/><path d="M78.41 84.61h-.09a.11.11 0 00-.15 0l-.16.09v-.1l.34-.18.06.09a.11.11 0 010 .1z" style="transform-origin:78.216px 84.56px" id="elnsogbwz8ka" class="animable" fill="#263238"/><path d="M78.76 85l-.48.26v-.1a.16.16 0 01-.1-.08.19.19 0 01.08-.27.21.21 0 01.28.07.2.2 0 010 .13l.17-.09zm-.36 0c.06 0 .08-.09 0-.14a.1.1 0 00-.14 0 .1.1 0 000 .14.1.1 0 00.14 0z" style="transform-origin:78.4562px 85.0215px" id="el3amirsrixc1" class="animable" fill="#263238"/><path d="M78.35 85.25h.09a.22.22 0 000 .14c0 .05 0 .06.06.05s-.11-.21 0-.28.14 0 .2.1a.37.37 0 010 .15h-.09a.2.2 0 000-.11c0-.05-.05-.06-.07-.05s.12.21 0 .29-.14 0-.2-.11a.3.3 0 01.01-.18z" style="transform-origin:78.5192px 85.3521px" id="elpolfppwioj" class="animable" fill="#263238"/><path d="M65.22 95.44l-.06-.12h.09l.18.34h-.09l-.06-.12-.28.16-.06-.11z" style="transform-origin:65.185px 95.51px" id="elg8emlvxd5o6" class="animable" fill="#263238"/><path d="M65.25 95.73a.22.22 0 01.31.11.23.23 0 01-.08.32.24.24 0 01-.32-.11.23.23 0 01.09-.32zm.17.32a.13.13 0 000-.17.11.11 0 00-.16 0 .12.12 0 00-.06.16.13.13 0 00.22.01z" style="transform-origin:65.3613px 95.9434px" id="el4j508t26zio" class="animable" fill="#263238"/><path d="M65.65 96.23l-.06-.12h.08l.19.34h-.09l-.06-.12-.3.16v-.11z" style="transform-origin:65.635px 96.3px" id="el9wtgl65h86" class="animable" fill="#263238"/><path d="M65.7 96.85l-.09-.16h-.09l-.06-.11h.47l.06.11-.29.31-.06-.11zm.06-.07l.1-.12h-.15z" style="transform-origin:65.725px 96.79px" id="elh9fw78gx2jw" class="animable" fill="#263238"/><path d="M66.1 96.86l.06.11-.3.15.1.19h-.09l-.15-.29z" style="transform-origin:65.94px 97.085px" id="elhesyvgpl16r" class="animable" fill="#263238"/><path d="M63 95.51l-.12.06.11-.06a.47.47 0 010-.3H63a.41.41 0 000 .26l.27-.14c0-.13-.06-.26.07-.34a.23.23 0 01.32.13l.12-.07-.12.07a.4.4 0 01.05.24h-.01a.51.51 0 000-.22l-.27.15c0 .13.06.27-.07.34s-.27.04-.36-.12zm.38-.27l.26-.14c-.07-.1-.15-.12-.21-.08s-.08.12-.06.22zm-.1.33c.08 0 .07-.13 0-.23l-.25.13c.1.11.18.13.24.1z" style="transform-origin:63.33px 95.3156px" id="el1fs5p7gizj2" class="animable" fill="#263238"/><path d="M64.15 95.93l-.72.38v-.07l.66-.35-.1-.17h.07z" style="transform-origin:63.79px 96.015px" id="ellqgcpwhjqu" class="animable" fill="#263238"/><path d="M64 96.93c-.13.07-.26 0-.36-.17s-.07-.32.06-.39a.2.2 0 01.25 0 .19.19 0 01.1-.2c.12-.06.24 0 .33.15s.06.29-.06.35a.18.18 0 01-.22 0 .2.2 0 01-.1.26zm0-.08c.09 0 .1-.15 0-.28s-.17-.17-.26-.12-.1.15 0 .28.15.17.26.12zm.09-.31c.06.11.15.15.23.11s.09-.14 0-.25-.14-.15-.22-.11-.1.14-.03.25z" style="transform-origin:64.0064px 96.552px" id="el229yw9hhw9z" class="animable" fill="#263238"/><path d="M64.24 97c.22-.13.43-.08.51.09s0 .36-.21.48-.43.08-.52-.09-.02-.41.22-.48zm.26.5c.2-.11.25-.25.19-.38s-.22-.15-.41 0-.26.25-.19.37.22.06.41-.04z" style="transform-origin:64.3814px 97.2828px" id="el3gczahij6k2" class="animable" fill="#263238"/><path d="M64.35 97.89H64.11h.17v-.07a.06.06 0 01.08 0 .05.05 0 01-.01.07z" style="transform-origin:64.24px 97.8474px" id="elxczawj30trq" class="animable" fill="#263238"/><path d="M64.69 98.49h-.07l-.27-.49h.05l.46.14a.29.29 0 00.23 0c.08 0 .1-.13 0-.24a.29.29 0 00-.19-.16v-.07a.36.36 0 01.24.2c.08.14.06.28-.07.34a.3.3 0 01-.28 0l-.38-.11z" style="transform-origin:64.7687px 98.08px" id="ela1vswxsxvin" class="animable" fill="#263238"/><path d="M65 98.42c.23-.12.43-.07.52.09s0 .36-.21.49-.43.07-.52-.09.01-.36.21-.49zm.27.5c.19-.1.25-.25.18-.37s-.22-.16-.41 0-.25.24-.19.37.25.08.45 0z" style="transform-origin:65.1557px 98.7122px" id="el3oib89fxqot" class="animable" fill="#263238"/><rect x="56.56" y="97.43" width="10.45" height="2.74" rx="1.26" style="transform-origin:61.785px 98.8px" class="animable" fill="#ffc107" transform="rotate(61.74)" id="el4lhzew80ec7"/><g style="transform-origin:61.785px 98.8px" class="animable" opacity=".3" id="elta5sa2u0y8"><rect x="56.56" y="97.43" width="10.45" height="2.74" rx="1.26" class="animable" style="transform-origin:61.785px 98.8px" transform="rotate(61.74)" id="el45f3lg6vsuc"/></g><rect x="56.37" y="97.07" width="10.45" height="2.74" rx="1.26" style="transform-origin:61.595px 98.44px" class="animable" fill="#ffc107" transform="rotate(61.74)" id="elsktwvjvvk3"/><path d="M61.58 98.1a.24.24 0 01-.33-.14l-.07-.14-.17.1v-.09l.57-.3.12.22c.03.15.01.25-.12.35zm0-.09c.08 0 .1-.12 0-.22l-.07-.14-.26.14.07.13c.06.08.14.14.22.08z" style="transform-origin:61.3611px 97.8265px" id="elljf8biuy7v" class="animable" fill="#fff"/><path d="M61.6 98.67l-.17-.3h-.17v-.08h.71v.08l-.44.57v-.09zm0-.06l.21-.27h-.35z" style="transform-origin:61.615px 98.615px" id="el2c1iwd83h2e" class="animable" fill="#fff"/><path d="M61.88 99.06l-.2.11v-.08l.19-.11.25-.43.05.09-.2.35h.4v.08z" style="transform-origin:62.025px 98.86px" id="el21a2md59h6j" class="animable" fill="#fff"/><path d="M67.4 96.93l.09.12a.56.56 0 00.37.17.51.51 0 00.29 0l.32-.18.78-.42.94-.51.25-.14a.71.71 0 00.23-.19.55.55 0 000-.58c-.41-.77-.87-1.6-1.34-2.48a.57.57 0 00-.61-.28.56.56 0 00-.16.07l-.16.08-.31.17-1.2.65-.56.3a.68.68 0 00-.23.18.66.66 0 00-.11.26.63.63 0 000 .27c0 .08.08.16.12.24l.25.45c.3.58.55 1 .73 1.37l.2.37v.1-.09l-.21-.37-.74-1.36-.25-.45a1.92 1.92 0 01-.12-.25.48.48 0 010-.29.54.54 0 01.11-.27.58.58 0 01.25-.19l.55-.31 1.2-.64.31-.17.16-.09a.51.51 0 01.17-.07.62.62 0 01.66.3c.47.88.92 1.71 1.34 2.48a.6.6 0 010 .62.66.66 0 01-.24.2l-.26.14-.94.51-.78.41a3.37 3.37 0 01-.32.17.48.48 0 01-.3.06.56.56 0 01-.37-.18.52.52 0 01-.11-.18z" style="transform-origin:68.3769px 94.8409px" id="eljyh0br50zbg" class="animable" fill="#ffc107"/><path d="M68.2 95.65v-.07l-.2-.27-.46-.83.13-.09.94-.69-.12-.23v-.06.06l.12.22-.93.69-.12.1c.18.33.34.62.45.84l.14.25v.07z" style="transform-origin:68.075px 94.53px" id="el9hl499tj1es" class="animable" fill="#ffc107"/><path d="M67.79 94.3v.06l.14.25.47.87.52-.17a1.43 1.43 0 01.27-.09l-.55-1-.17-.3v-.09l.05.08.17.31.56 1-.27.09-.51.18-.47-.84-.14-.25v-.07z" style="transform-origin:68.52px 94.66px" id="el6gu9bs62euu" class="animable" fill="#ffc107"/><path d="M67.4 94.94a.15.15 0 000-.08.11.11 0 000-.11.14.14 0 00-.14 0 .13.13 0 00-.07.13.15.15 0 00.07.1h.12a.15.15 0 01-.09 0 .11.11 0 01-.08-.11.13.13 0 01.07-.14.14.14 0 01.16 0 .15.15 0 010 .12.12.12 0 010 .08z" style="transform-origin:67.3209px 94.8459px" id="el7c1vn5w9mbq" class="animable" fill="#ffc107"/><path d="M67.81 95.7a.29.29 0 000-.08.14.14 0 000-.11.12.12 0 00-.14 0 .12.12 0 00-.06.13.13.13 0 00.07.1h.08a.09.09 0 01-.09 0 .14.14 0 010-.25.13.13 0 01.16 0 .12.12 0 010 .13.12.12 0 010 .08h-.02z" style="transform-origin:67.7211px 95.6072px" id="eln88r3vxup3i" class="animable" fill="#ffc107"/><path d="M69.5 95.46a.38.38 0 11.15-.52.39.39 0 01-.15.52z" style="transform-origin:69.3169px 95.1261px" id="elqwtl6v57viq" class="animable" fill="#ffc107"/><path d="M69.47 95.1l-.26.13v-.06l.21-.11z" style="transform-origin:69.34px 95.145px" id="el3vu7t41eus9" class="animable" fill="#fff"/><rect x="69.28" y="87.91" width="10.93" height="6.94" rx="1.6" style="transform-origin:74.745px 91.38px" class="animable" fill="#ffc107" transform="rotate(61.74)" id="el644mhah5fog"/><path d="M74.67 87.26c-.08 0-.16 0-.22-.12l-.13-.23.45-.24.12.22c.06.11 0 .19 0 .23a.12.12 0 01-.13 0 .13.13 0 01-.09.14zm.08-.45l-.11.06.06.1s.06.07.1 0 0 0 0-.1zm-.13.34v-.12l-.06-.12-.11.06.06.12c.04.06.07.08.11.06z" style="transform-origin:74.6183px 86.965px" id="elgsuidmucic9" class="animable" fill="#fff"/><path d="M74.84 87.65l-.11-.21h-.12v-.11h.56v.1l-.34.45-.06-.11zm.07-.08l.13-.16h-.21z" style="transform-origin:74.89px 87.605px" id="elk8asqpy8rae" class="animable" fill="#fff"/><path d="M75.53 88.07l-.45.24v-.09l.15-.37-.27.15-.06-.1.46-.25v.09l-.15.37.27-.15z" style="transform-origin:75.215px 87.98px" id="el2r8685uu0ol" class="animable" fill="#fff"/><path d="M75.4 88.49h-.1l-.11.06-.06-.1.46-.25v.11l-.21.11.32.09.06.11-.3-.07-.14.33-.07-.12z" style="transform-origin:75.445px 88.54px" id="el60bnjs5cpbe" class="animable" fill="#fff"/><path d="M72.74 88.18v-.08l-.11.06h.11l-.13-.24.39.07v.05l-.38-.07.09.18.1-.05h-.09v.08z" style="transform-origin:72.805px 88.05px" id="elexv42qzuodq" class="animable" fill="#fff"/><path d="M72.92 88.48c-.07 0-.15 0-.21-.08a.23.23 0 010-.18.24.24 0 000 .16.11.11 0 00.14.06s.07-.08 0-.16h.21l-.06-.22.14.27h-.21c.07.05.07.12-.01.15z" style="transform-origin:72.9158px 88.27px" id="eljqogs3ppg7j" class="animable" fill="#fff"/><path d="M73.1 88.81c-.07 0-.15 0-.21-.08a.23.23 0 010-.18.21.21 0 000 .15q.06.11.15.06s.06-.08 0-.18v-.09l.22-.09.12.23-.1-.19h-.14v.06c.06.2.03.28-.04.31z" style="transform-origin:73.1258px 88.605px" id="elwvly4lxar7" class="animable" fill="#fff"/><path d="M73.3 89.18a.14.14 0 01-.2-.07c-.06-.11 0-.21.11-.28a.21.21 0 01.32.07.26.26 0 010 .11.1.1 0 000-.09.17.17 0 00-.25-.06.17.17 0 01.14.09.15.15 0 01-.12.23zm0 0a.1.1 0 000-.15c0-.07-.1-.09-.15-.06s-.07.08 0 .16a.1.1 0 00.12.01z" style="transform-origin:73.3085px 88.991px" id="el06hnkdkxqgcb" class="animable" fill="#fff"/><path d="M73.66 90.14l.07-.17h-.18.23l.09-.19-.07.16.2.06h-.21l-.1.21z" style="transform-origin:73.775px 89.995px" id="elovemwrnmv0o" class="animable" fill="#fff"/><path d="M73.83 90.46l.07-.17h-.18v-.05h.23l.09-.2-.07.16h.18-.21l-.1.21z" style="transform-origin:73.935px 90.25px" id="elpgadd9n0cqo" class="animable" fill="#fff"/><path d="M74 90.78l.07-.17h-.18.23l.09-.2-.07.16h.18v.05h-.21l-.1.21z" style="transform-origin:74.105px 90.62px" id="elpheixlagi8" class="animable" fill="#fff"/><path d="M74.17 91.09l.07-.17h-.18.23l.09-.19-.08.16h.18-.21l-.1.21z" style="transform-origin:74.27px 90.915px" id="elyqldmd9mcx" class="animable" fill="#fff"/><path d="M74.75 92.19l.08-.17h-.18.23l.09-.2-.07.15h.17-.22l-.09.21z" style="transform-origin:74.86px 92.005px" id="elhnnsm2yk6ju" class="animable" fill="#fff"/><path d="M74.92 92.5l.08-.17h-.18.23l.09-.2-.07.16h.17-.22l-.09.21z" style="transform-origin:75.03px 92.315px" id="elb4tl1p0fqas" class="animable" fill="#fff"/><path d="M75.09 92.82l.08-.17h-.18v-.05h.23l.09-.2-.07.16h.17-.22l-.09.21z" style="transform-origin:75.2px 92.61px" id="elfmmrosyf0rm" class="animable" fill="#fff"/><path d="M75.26 93.13l.08-.16h-.18.23l.09-.2-.07.15h.17v.05h-.22l-.09.21z" style="transform-origin:75.37px 92.975px" id="eltktc2521ksa" class="animable" fill="#fff"/><path d="M76.21 93.89l-.42.23v-.05l.38-.2-.06-.1z" style="transform-origin:76px 93.945px" id="el1vvkcs5uxxl" class="animable" fill="#fff"/><path d="M76.11 94.43a.15.15 0 01-.2-.09.3.3 0 010-.18h.05a.17.17 0 000 .15.1.1 0 00.14.06s.06-.08 0-.15h.2l-.08-.22.14.27h-.21a.14.14 0 01-.04.16z" style="transform-origin:76.1281px 94.2208px" id="elgdkyjjk7cz7" class="animable" fill="#fff"/><path d="M76.32 94.84v-.08l-.11.06.11-.06-.13-.24.39.07-.38-.07.09.18h.1-.09v.08z" style="transform-origin:76.385px 94.68px" id="el70dr4618xn4" class="animable" fill="#fff"/><path d="M76.42 95.2l-.16-.29.26.08a.18.18 0 00.13 0 .1.1 0 000-.14.16.16 0 00-.11-.09.19.19 0 01.14.11.13.13 0 010 .2.17.17 0 01-.16 0L76.3 95z" style="transform-origin:76.4935px 94.98px" id="eloyi50j7j6fc" class="animable" fill="#fff"/><path d="M71.47 88.13a.12.12 0 01.16.05v.1a.06.06 0 000-.06.07.07 0 00-.1 0 .06.06 0 000 .09.07.07 0 00.05 0 .13.13 0 01-.08-.07.12.12 0 01-.03-.11z" style="transform-origin:71.5525px 88.2158px" id="elegjcnx9j72" class="animable" fill="#fff"/><path d="M71.59 88.51v-.09h-.06.24l-.15.2zm0 0l.06-.07h-.09z" style="transform-origin:71.65px 88.52px" id="elg2w3ifgghjn" class="animable" fill="#fff"/><path d="M71.67 88.74v-.06h-.06l.2-.11v.09a.08.08 0 010 .12.08.08 0 01-.09 0v.08zm.13-.13h-.06.05c.05 0 .03.03.01 0z" style="transform-origin:71.7235px 88.715px" id="elkap6dymgqs9" class="animable" fill="#fff"/><path d="M71.72 88.8a.19.19 0 000 .07v-.16c0-.04.08 0 .11.05a.19.19 0 010 .08.14.14 0 000-.06v.16c0 .04-.08 0-.11 0a.37.37 0 010-.14z" style="transform-origin:71.7738px 88.8257px" id="eltnfr5422f9r" class="animable" fill="#fff"/><path d="M72.15 89.16l-.2.11h.09l-.04-.18h-.08l.2-.11h-.07v.09h.08z" style="transform-origin:72.035px 89.125px" id="el1lhqwa8vyvq" class="animable" fill="#fff"/><path d="M72.07 89.25a.12.12 0 01.16 0 .13.13 0 010 .17.12.12 0 01-.16-.06.12.12 0 010-.11zm.09.17a.07.07 0 000-.1.08.08 0 00-.1 0 .06.06 0 000 .09.07.07 0 00.1.01z" style="transform-origin:72.1507px 89.328px" id="elrq20ibsfpf8" class="animable" fill="#fff"/><path d="M72.3 89.45l-.17.09.06.1-.08-.15z" style="transform-origin:72.205px 89.545px" id="el97i830mgv2j" class="animable" fill="#fff"/><path d="M72.39 89.62v.09a.11.11 0 010 .16.12.12 0 01-.16-.05v-.09zm-.11.17a.07.07 0 10.12-.06l-.12.07z" style="transform-origin:72.3272px 89.7515px" id="elejoov3pdlk" class="animable" fill="#fff"/><path d="M72.44 90.09l-.12-.09.2-.11.08.15v-.1h-.05l.05.09v-.09h-.05z" style="transform-origin:72.46px 89.99px" id="elgx20jqaieek" class="animable" fill="#fff"/><path d="M72.49 90.28v-.07l.2-.11v.09a.08.08 0 010 .12.06.06 0 01-.08 0v.07zm.14-.13h-.07H72.63z" style="transform-origin:72.6035px 90.24px" id="el7a8y6619q88" class="animable" fill="#fff"/><path d="M70.68 88.53h.09a.12.12 0 000 .1.06.06 0 00.09 0l.19-.1-.05-.1h.07l.12.22-.24.13a.14.14 0 01-.22-.06.16.16 0 01-.05-.19z" style="transform-origin:70.9286px 88.6208px" id="elz4qqulkhts" class="animable" fill="#fff"/><path d="M70.85 88.84a.06.06 0 01.08 0 .05.05 0 010 .08.05.05 0 01-.08 0 .07.07 0 010-.08z" style="transform-origin:70.8937px 88.8824px" id="elfjfjv6ngctn" class="animable" fill="#fff"/><path d="M71.57 89.39l-.44.08-.06-.09.22-.23-.31.06v-.1l.32-.33v.09l-.22.23h.32v.08l-.22.23h.32z" style="transform-origin:71.275px 89.125px" id="elwtlm9ztem" class="animable" fill="#fff"/><path d="M71.59 89.43h.08v.07a.05.05 0 01-.08 0 .07.07 0 010-.07zm-.08.06v.08l-.3.16v-.09z" style="transform-origin:71.44px 89.58px" id="elrnhre5x1x8" class="animable" fill="#fff"/><path d="M71.71 89.59l.05.09-.41.21v-.08z" style="transform-origin:71.555px 89.74px" id="eltz527dk95xe" class="animable" fill="#fff"/><path d="M71.8 89.75v.09l-.4.22v-.09z" style="transform-origin:71.6px 89.905px" id="eldth42bcq9ud" class="animable" fill="#fff"/><path d="M71.86 89.92a.05.05 0 01.07 0 .06.06 0 010 .08.07.07 0 01-.08 0 .05.05 0 01.01-.08zm-.08.06v.08l-.29.16v-.08z" style="transform-origin:71.7176px 90.0629px" id="elhwgvztr4bkl" class="animable" fill="#fff"/><path d="M71.88 90.47l-.17.09v-.08s-.06 0-.09-.07 0-.13 0-.15.11 0 .16.07v-.03a.27.27 0 00-.08-.07v-.06a.22.22 0 01.1.11c.2.07.2.14.08.19zm-.12 0v-.06h-.07c-.02 0 0 0 0 .06s.03-.04.07-.05z" style="transform-origin:71.7843px 90.365px" id="ele5tbwlwqhs" class="animable" fill="#fff"/><path d="M72.18 91l-.16.09v-.08l.16-.09a.07.07 0 000-.09s-.06-.05-.12 0l-.14.08v-.09l.16-.08a.07.07 0 000-.1h-.11l-.14.08v-.08l.29-.16v.08a.13.13 0 01.09.07.13.13 0 010 .12.16.16 0 01.1.08c-.02.09-.04.17-.13.17z" style="transform-origin:72.07px 90.785px" id="elqmlkxx76x7l" class="animable" fill="#fff"/><path d="M72.07 91.16h.08a.18.18 0 000 .12h.06c.06 0-.1-.18 0-.24s.12 0 .17.08a.31.31 0 010 .13h-.07a.12.12 0 000-.09s.09.17 0 .24-.12 0-.16-.09a.31.31 0 01-.08-.15z" style="transform-origin:72.2284px 91.2221px" id="el49vk2xvq16k" class="animable" fill="#fff"/><path d="M74.06 94.5a.19.19 0 01.28.06c.06.09 0 .2-.1.27s-.24 0-.29-.06-.02-.2.11-.27zm.13.24c.08 0 .1-.1.08-.14s-.08-.06-.16 0-.11.1-.09.14.08.05.17 0z" style="transform-origin:74.1455px 94.6607px" id="elocur4tcl5u" class="animable" fill="#fff"/><path d="M74.36 95.22a.15.15 0 01-.21-.07.19.19 0 01.1-.27.2.2 0 01.31.08.27.27 0 010 .12h-.08a.24.24 0 000-.08.12.12 0 00-.17 0s.06 0 .09.08a.13.13 0 01-.04.14zm0-.08a.07.07 0 000-.09s-.06-.06-.09 0 0 0 0 .1a.06.06 0 00.04-.01z" style="transform-origin:74.3465px 95.0375px" id="ellhq67npvfmg" class="animable" fill="#fff"/><path d="M74.79 95.22v.08l-.61.09v-.07z" style="transform-origin:74.485px 95.305px" id="elas3b6h0fcpt" class="animable" fill="#fff"/><path d="M74.6 95.79h-.08l-.15-.28h.06l.22.07h.09c.02 0 0 0 0-.09a.12.12 0 00-.08-.06v-.08a.18.18 0 01.15.11v.2c0 .03-.07 0-.15 0h-.13z" style="transform-origin:74.59px 95.57px" id="eleojyjss3n7q" class="animable" fill="#fff"/><path d="M74.81 96.16v-.06h-.08v-.08h.08l-.11-.2h.4v.09h-.32v.11h.07v.08h-.07v.06z" style="transform-origin:74.9px 95.99px" id="elr1gnbdtkjw" class="animable" fill="#fff"/><g style="transform-origin:76.8905px 92.2541px" class="animable" opacity=".2" id="elz3sckss1ga"><path d="M77.25 92.79a.68.68 0 00.1-.86.61.61 0 00-.2-.22.5.5 0 00-.67 0 .75.75 0 00-.15.57.77.77 0 00.25.56.51.51 0 00.57 0z" style="transform-origin:76.8905px 92.2541px" id="eliwwpgaxcvrf" class="animable" fill="#fff"/></g><g style="transform-origin:76.7599px 90.3584px" class="animable" opacity=".2" id="elc2onfaay2hf"><path d="M80.22 94.23l-4.84-9a.36.36 0 00-.49-.15l-1.61.92a3 3 0 00.78 2.21A12.69 12.69 0 0076.23 90 4.77 4.77 0 0178 92.15a8.76 8.76 0 01.18 2.66 5 5 0 00.1.87l1.79-1a.37.37 0 00.15-.45z" style="transform-origin:76.7599px 90.3584px" id="elftqvjjdhny8" class="animable" fill="#fff"/></g><path d="M70.54 108.3l4.06-3.3a8.83 8.83 0 003.22-5.76l.18-1.71-12.15-2.47s-1.14 3.69 3.45 4.61c-4.07 1.76-5.59 5.45-6.7 9.44z" style="transform-origin:70.3px 102.085px" id="elioy2laakotl" class="animable" fill="#ffbe9d"/><path d="M65.52 102.78c.06 0 .32-.5 1.06-1.18a5.64 5.64 0 013.72-1.5h1.31l-1.23-.45-2.84-1h.06a3.38 3.38 0 01-1.77-3.16 1.84 1.84 0 01.06-.29l-.35.19c3.42.85 6.52 1.56 8.79 2 1.13.19 2 .33 2.69.4a3 3 0 001 0 35 35 0 00-3.6-.84c-2.24-.49-5.31-1.26-8.73-2.11l-.26-.07-.08.26a2 2 0 00-.09.39 3.41 3.41 0 00.53 2.23 4.62 4.62 0 001.52 1.47l2.86 1 .08-.46a5.71 5.71 0 00-3.92 1.78 3.13 3.13 0 00-.81 1.34z" style="transform-origin:71.6298px 98.775px" id="elg0s3lmowj6" class="animable" fill="#eb996e"/></g><g id="freepik--Plant--inject-12" class="animable" style="transform-origin:397.11px 362.945px;animation:1s 1 forwards cubic-bezier(.36,-.01,.5,1.38) lightSpeedRight;animation-delay:0s"><path d="M411.09 392.43a37.38 37.38 0 00-12.48-35.36s-2.9-1.06-2.65 2.18c.15 1.94-1.71 4.68-3.26 3.49-2.69-2.07-1.84-6.29-3-9.48-1.35-3.74-5.33-5.73-9-7.32-6.72-2.95-13.55-5.8-20.77-7.11s-14.92-1-21.51 2.27q2.4 4.83 4.79 9.65a3.37 3.37 0 004.28 2.14l8.74-.64c1.27-.09 2.92.06 3.28 1.27.42 1.38-1.23 2.41-2.58 2.89l-9.17 3.29a29.52 29.52 0 0012.13 10.11A88.59 88.59 0 00375 375a8.93 8.93 0 005 .38c2.67-.86 4.52-4.2 7.3-3.79a11.65 11.65 0 01-4.3 7.89c10.81 4.24 18.35 9.43 28 13" style="transform-origin:375.078px 365.294px" id="elj4i83ufdt3" class="animable" fill="#ffc107"/><path d="M420.36 440.43s0-.09-.08-.28l-.18-.83c-.16-.76-.39-1.83-.67-3.19-.57-2.81-1.37-6.81-2.36-11.75-.49-2.48-1-5.2-1.61-8.11-.28-1.46-.58-3-.89-4.53l-.46-2.36c-.12-.81-.23-1.63-.35-2.46-1-6.58-2.2-13.92-5.41-20.92s-8.44-12.4-13.39-16.82a113.37 113.37 0 00-14.25-10.54c-4.26-2.72-7.8-4.76-10.24-6.2l-2.8-1.66-.73-.44c-.16-.1-.24-.16-.23-.17l.26.12.75.4 2.85 1.57c2.47 1.39 6.05 3.39 10.34 6.07a111.5 111.5 0 0114.37 10.49 70.69 70.69 0 017.4 7.47 43.11 43.11 0 016.15 9.49c3.24 7.09 4.42 14.48 5.4 21.07.12.83.23 1.64.34 2.45s.31 1.59.45 2.37l.87 4.52c.55 2.92 1.07 5.64 1.54 8.13.92 4.94 1.67 9 2.2 11.78.24 1.36.43 2.43.57 3.2.06.35.1.62.14.84a1.27 1.27 0 01.02.29z" style="transform-origin:393.535px 395.3px" id="elgci8ci6w40f" class="animable" fill="#263238"/><path d="M437.32 319.28c-2.36 3.46-8.95 1.78-9.36-2.39s5.73-7.1 8.72-4.15a98.79 98.79 0 00-3.68-36.35 19 19 0 01-3.41 6.64c-1.69 1.85-4.41 3-6.76 2.11-3.17-1.19-4.11-5.54-2.79-8.66s4.18-5.28 6.91-7.29a34.08 34.08 0 00-21.14-16.86c-3.52 5.7-7.09 11.51-8.67 18s-.87 13.92 3.47 19c1.85 2.16 4.29 3.85 5.72 6.31s1.33 6.23-1.19 7.55c-3 1.56-6.31-1.38-8-4.27s-3.4-6.46-6.71-7c-2 23.08 9.95 46.83 29.69 59l-.34-.32a92.43 92.43 0 0017.54-31.32zm-15.2-25.56a15.94 15.94 0 016.15-3.52 2.36 2.36 0 012.65.7 3.48 3.48 0 01.67 2.76 6.56 6.56 0 01-1.17 2.66 8.78 8.78 0 01-3.55 3.13 5.46 5.46 0 01-4.64 0 3.19 3.19 0 01-1.86-2.6 4.36 4.36 0 011.75-3.13z" style="transform-origin:413.766px 301.625px" id="elzb81setqdu" class="animable" fill="#ffc107"/><path d="M424.72 440.43a1.65 1.65 0 010-.36c0-.27 0-.62-.05-1.07 0-1-.09-2.35-.16-4.1-.14-3.6-.34-8.74-.6-15.09-.56-12.74-1.45-30.33-2.89-49.73s-3.09-36.94-4.48-49.61c-.67-6.34-1.3-11.46-1.73-15-.2-1.75-.36-3.12-.47-4.08l-.11-1.06a2.06 2.06 0 010-.37 1.52 1.52 0 01.08.36c0 .26.09.61.16 1.06.13 1 .32 2.32.56 4.06.49 3.54 1.17 8.65 1.89 15 1.49 12.66 3.23 30.2 4.64 49.61s2.27 37 2.74 49.75c.23 6.38.37 11.53.44 15.1 0 1.76 0 3.14.05 4.11v1.06a1.46 1.46 0 01-.07.36z" style="transform-origin:419.506px 370.195px" id="eltm91fxt5wx" class="animable" fill="#263238"/><path style="transform-origin:421.59px 438.725px" id="elu6atvjdcyyr" class="animable" fill="#455a64" d="M387.38 418.98l9.31 39.49h48.79l10.32-39.49h-68.42z"/><path d="M402.72 450.17c0 .75 3.78 23.39 3.78 23.39h29.68l3.27-23.39z" style="transform-origin:421.085px 461.865px" id="elmbbok9py4gr" class="animable" fill="#455a64"/><path d="M444.13 458.29c0 .14-10.65.26-23.78.26s-23.78-.12-23.78-.26 10.64-.26 23.78-.26 23.78.11 23.78.26z" style="transform-origin:420.35px 458.29px" id="elhutyhliq2s" class="animable" fill="#263238"/><path d="M449.21 442.37c0 .14-12.56.26-28 .26s-28.05-.12-28.05-.26 12.56-.26 28.05-.26 28 .11 28 .26z" style="transform-origin:421.185px 442.37px" id="elcw7qwiqbsco" class="animable" fill="#263238"/><path d="M447 447.87c0 .14-11.82.26-26.4.26s-26.4-.12-26.4-.26 11.82-.26 26.4-.26 26.4.11 26.4.26z" style="transform-origin:420.6px 447.87px" id="elm1y3oho1x8m" class="animable" fill="#263238"/><path d="M446.85 453.37c0 .14-11.4.26-25.45.26s-25.46-.12-25.46-.26 11.4-.26 25.46-.26 25.45.11 25.45.26z" style="transform-origin:421.395px 453.37px" id="elih5jbs8ekek" class="animable" fill="#263238"/><path d="M450.62 437c0 .14-13.12.26-29.3.26S392 437.17 392 437s13.12-.27 29.31-.27 29.31.15 29.31.27z" style="transform-origin:421.31px 436.995px" id="el489qkuws0f5" class="animable" fill="#263238"/><path d="M451.56 432.63c0 .14-13.36.26-29.85.26s-29.85-.12-29.85-.26 13.36-.26 29.85-.26 29.85.11 29.85.26z" style="transform-origin:421.71px 432.63px" id="elvipwjsfccm9" class="animable" fill="#263238"/></g><g id="freepik--speech-bubble--inject-12" class="animable" style="transform-origin:129px 86.8245px;animation:1s 1 forwards cubic-bezier(.36,-.01,.5,1.38) slideUp;animation-delay:0s"><path d="M125.62 50.76s.19 0 .57-.06l1.66-.12c.37 0 .78-.07 1.23-.06l1.48.06c.54 0 1.12 0 1.73.09l2 .27a31.51 31.51 0 0119.92 11.74l1.15 1.5c.36.53.69 1.09 1 1.65a32 32 0 011.89 3.53A33.75 33.75 0 01161 82c0 .76 0 1.53-.06 2.3v1.16c0 .39-.11.77-.16 1.16a30.56 30.56 0 01-2.68 9.26 32.09 32.09 0 01-14 14.88 31.2 31.2 0 01-10.4 3.41 30.79 30.79 0 01-11.27-.29c-.48-.1-1-.21-1.43-.33h.2l-14.85 9.25-.52.33.14-.6 3.33-14.9.09.25a31.87 31.87 0 01-11.94-19.71 24.39 24.39 0 01-.45-3.58v-1.76-1.74a31.64 31.64 0 013.14-12.5 31.51 31.51 0 0119.94-16.8l2.36-.59 1.75-.26 1.07-.14a2.47 2.47 0 01.36 0l-.36.08-1.06.12-1.74.29-2.33.63a32.88 32.88 0 00-6.13 2.57 32 32 0 00-13.49 14.26 31.38 31.38 0 00-3 12.35c0 .57-.08 1.14 0 1.72s.07 1.16.1 1.74a23.76 23.76 0 00.42 3.53 31.3 31.3 0 0011.81 19.35l.12.09v.16c-1.07 4.78-2.18 9.76-3.32 14.9l-.39-.27 14.84-9.27H121.3q.69.18 1.41.33a30.19 30.19 0 0011.08.28 30.52 30.52 0 0010.24-3.34 31.73 31.73 0 0013.8-14.63 29.87 29.87 0 002.65-9.12c.05-.38.12-.76.16-1.14l.06-1.15c0-.76.1-1.51.07-2.26a31.85 31.85 0 00-.39-4.41A30.24 30.24 0 00156 66c-.34-.55-.67-1.11-1-1.63l-1.13-1.5a31.49 31.49 0 00-19.66-11.76l-1.94-.3c-.61-.07-1.19-.07-1.72-.11l-1.48-.08h-1.22l-1.67.06c-.36.09-.56.08-.56.08z" style="transform-origin:129px 86.8245px" id="eleh3mtseyxdw" class="animable" fill="#263238"/><path style="transform-origin:129.855px 82.605px" id="eliqwlbx50lad" class="animable" fill="#455a64" d="M119.55 68.17l-3.81 28.87h28.23l-4.11-28.87h-20.31z"/><path d="M137.57 72.36a2.11 2.11 0 01-.16.84 7.93 7.93 0 01-1 2.09 7.6 7.6 0 01-2.52 2.36 8.25 8.25 0 01-4.11 1 8.52 8.52 0 01-4.12-1 6.81 6.81 0 01-2.5-2.4 7.44 7.44 0 01-.91-2.13c-.13-.54-.14-.84-.1-.85a12.64 12.64 0 001.32 2.78 6.66 6.66 0 002.42 2.18 8.35 8.35 0 003.89.85 8 8 0 003.87-.94 7.64 7.64 0 002.46-2.15 15.32 15.32 0 001.46-2.63z" style="transform-origin:129.85px 75.4609px" id="elfs37pgwuph6" class="animable" fill="#fff"/></g><defs><filter id="active" height="200%"><feMorphology in="SourceAlpha" result="DILATED" operator="dilate" radius="2"/><feFlood flood-color="#32DFEC" flood-opacity="1" result="PINK"/><feComposite in="PINK" in2="DILATED" operator="in" result="OUTLINE"/><feMerge><feMergeNode in="OUTLINE"/><feMergeNode in="SourceGraphic"/></feMerge></filter><filter id="hover" height="200%"><feMorphology in="SourceAlpha" result="DILATED" operator="dilate" radius="2"/><feFlood flood-color="red" flood-opacity=".5" result="PINK"/><feComposite in="PINK" in2="DILATED" operator="in" result="OUTLINE"/><feMerge><feMergeNode in="OUTLINE"/><feMergeNode in="SourceGraphic"/></feMerge><feColorMatrix values="0 0 0 0 0 0 1 0 0 0 0 0 0 0 0 0 0 0 1 0"/></filter></defs></svg>