<svg xmlns="http://www.w3.org/2000/svg" width="332" height="261.208" viewBox="0 0 332 261.208"><g transform="translate(-22.312 -65.368)"><g transform="translate(22.312 153.138)"><path d="M70.933,335.437c64.827,33.863,169.94,33.863,234.76,0s64.834-88.778,0-122.641-169.933-33.87-234.76,0S6.106,301.567,70.933,335.437Z" transform="translate(-22.312 -187.396)" fill="#f5f5f5"/></g><g transform="translate(64.155 177.437)"><path d="M354.907,308.976c-8.7-5.035-22.786-5.035-31.482,0s-8.689,13.155,0,18.176,22.786,5.035,31.482,0S363.6,314,354.907,308.976Z" transform="translate(-146.859 -244.768)" fill="#e0e0e0"/><path d="M354.907,308.976c-8.7-5.035-22.786-5.035-31.482,0s-8.689,13.155,0,18.176,22.786,5.035,31.482,0S363.6,314,354.907,308.976Z" transform="translate(-146.859 -244.768)" fill="#e0e0e0"/><path d="M118.48,224.956c-8.689-5.035-22.786-5.035-31.475,0s-8.7,13.155,0,18.176,22.786,5.035,31.475,0S127.176,229.977,118.48,224.956Z" transform="translate(-80.486 -221.18)" fill="#e0e0e0"/><path d="M401.788,252.226c-8.7-5.035-22.793-5.035-31.482,0s-8.7,13.162,0,18.176,22.786,5.035,31.482,0S410.476,257.247,401.788,252.226Z" transform="translate(-160.02 -228.836)" fill="#e0e0e0"/></g><g transform="translate(58.187 149.852)"><path d="M122.559,325.861a64.734,64.734,0,0,0-4.366-18.578c-3.877-9.573-10.6-17.334-19.19-19.154s-11.868,2.668-11.141,7.754,7.912,8.94,12.788,13.206,13.9,14.579,16.406,24.534l4.848.532Z" transform="translate(-76.562 -212.274)" fill="#ffc107"/><path d="M122.559,325.861a64.734,64.734,0,0,0-4.366-18.578c-3.877-9.573-10.6-17.334-19.19-19.154s-11.868,2.668-11.141,7.754,7.912,8.94,12.788,13.206,13.9,14.579,16.406,24.534l4.848.532Z" transform="translate(-76.562 -212.274)" opacity="0.2"/><path d="M122.633,335.125h0a.367.367,0,0,1-.338-.381c1.093-17.075-10.026-35.963-25.318-42.99a.352.352,0,0,1-.18-.475.367.367,0,0,1,.475-.18c15.55,7.149,26.857,26.339,25.742,43.688a.36.36,0,0,1-.381.338Z" transform="translate(-79.089 -213.216)" fill="#f5f5f5"/><path d="M117.863,375.147s-5.035,3.165-12.832,1.82-9.487-6.668-10.156-11.933-4.51-2.877-9.753-5.035-6.107-7.552-4.934-11.594a11.9,11.9,0,0,1,2.654-4.733s-3.7-1.618-7.056-7.236a53.271,53.271,0,0,1-3.6-7.912s4.258-3.251,12.666-1.489a21.24,21.24,0,0,1,7.8,3.517s4.567-5.128,10.8-3.258a7.113,7.113,0,0,1,4.567,4.409,21.235,21.235,0,0,0,1.021,2.553,4.316,4.316,0,0,0,3.194,1.791c2.971.432,5.754-.072,8.487,1.439a8.631,8.631,0,0,1,3.093,3.452C127.882,348.132,117.863,375.147,117.863,375.147Z" transform="translate(-72.19 -223.166)" fill="#ffc107"/><path d="M122.9,365.949a.374.374,0,0,1-.309-.173c-12.227-19.837-31.568-31.3-44.429-35.093a.373.373,0,0,1,.2-.719c12.947,3.826,32.518,15.4,44.839,35.4a.367.367,0,0,1-.3.554Z" transform="translate(-73.79 -224.131)" fill="#f5f5f5"/><path d="M95.4,355.936a.374.374,0,0,1-.273-.122.352.352,0,0,1,0-.5,23.743,23.743,0,0,1,14.033-5.43.353.353,0,0,1,.367.352.36.36,0,0,1-.352.367c-7.682.129-13.515,5.193-13.572,5.251A.374.374,0,0,1,95.4,355.936Z" transform="translate(-78.6 -229.726)" fill="#f5f5f5"/><path d="M108.2,342.225a.367.367,0,0,1-.36-.324,18.471,18.471,0,0,1,1.6-9.3.36.36,0,0,1,.647.316,18.032,18.032,0,0,0-1.525,8.9.367.367,0,0,1-.316.4Z" transform="translate(-82.179 -224.819)" fill="#f5f5f5"/><path d="M409.793,221.871s-2.942-9.595-1.482-18.7,5.754-16.227,11.407-19.226,12.681.316,8.041,6.718-14.083,14.982-13.184,30.986Z" transform="translate(-166.438 -182.828)" fill="#37474f"/><path d="M413.26,222.91a.3.3,0,0,1-.281-.216c-3.143-11.609,1.439-30.209,12.026-36.819a.288.288,0,0,1,.3.489c-10.393,6.473-14.86,24.764-11.774,36.179a.3.3,0,0,1-.2.36Z" transform="translate(-167.59 -183.673)" fill="#f5f5f5"/><path d="M419.811,238.735a6.251,6.251,0,0,0,2.877.762,8.415,8.415,0,0,0,3.474-.525c1.971-.719,3.6-1.87,4.114-4,.388-1.676-.23-3.6.5-5.179s2.927-2.561,4.431-3.035c1.057-.338,2.158-.5,3.2-.892a4.107,4.107,0,0,0,2.453-2.093c.993-2.445-1.719-5.215-.827-7.7a6,6,0,0,1,2.748-2.69c1.108-.7,2.28-1.539,2.582-2.812a3.647,3.647,0,0,0-1.093-3.237c-1.978-2.043-5.294-2.237-7.948-1.223a26.618,26.618,0,0,1-2.51.971c-3.337.87-6.9-1.316-10.257-.525a6.078,6.078,0,0,0-4.438,4.488c-.158.719-.18,1.489-.352,2.223-.424,1.834-2.359,2.223-2.82,4.1-.424,1.7.108,3.481.4,5.157.446,2.575.949,5.136,1.489,7.7q.432,2.086.892,4.157c.281,1.28-.094,2.676.475,3.848a6.381,6.381,0,0,0,.6.5Z" transform="translate(-168.652 -189.198)" fill="#455a64"/><path d="M419.954,230.528h-.05a.3.3,0,0,1-.245-.331c1.439-9.35,14.594-20.427,23.016-21.578a.3.3,0,0,1,.324.252.288.288,0,0,1-.245.324c-8.243,1.136-21.1,11.925-22.513,21.089A.3.3,0,0,1,419.954,230.528Z" transform="translate(-169.737 -190.068)" fill="#f5f5f5"/><path d="M429.344,218.306a.288.288,0,0,1-.28-.266c-.525-5.711-2.6-7.912-2.625-7.912a.29.29,0,0,1,.417-.4c.086.094,2.237,2.359,2.776,8.3a.28.28,0,0,1-.259.309Z" transform="translate(-171.619 -190.354)" fill="#f5f5f5"/><path d="M438.394,227.42a.287.287,0,0,1-.108,0c-.065,0-6.509-2.726-11.911-1.259a.288.288,0,0,1-.151-.554c5.6-1.525,12.012,1.165,12.285,1.28a.288.288,0,0,1,.151.381A.281.281,0,0,1,438.394,227.42Z" transform="translate(-171.527 -194.707)" fill="#f5f5f5"/></g><g transform="translate(138.867 65.368)"><path d="M364.24,119.81l5.963,3.438v10.336l-5.963-3.445Z" transform="translate(-234.859 -80.652)" fill="#263238"/><path d="M309.166,79.611,289.876,90.745v-22.3a2.985,2.985,0,0,0-4.567-2.625l-95.41,55.1c-3.69,2.158-5.538,4.913-5.538,7.7v92.986c0,2.791,1.849,5.581,5.538,7.71l.129.079c7.38,4.258,19.334,4.258,26.713,0l95.388-55.081a3.553,3.553,0,0,0,1.59-2.755V80.416l-1.5-.863a3.416,3.416,0,0,0-3.057.058Z" transform="translate(-184.36 -65.368)" fill="#ffc107"/><path d="M189.908,136.332c-7.351-4.236-7.351-11.177,0-15.414l95.41-55.074a3.4,3.4,0,0,1,3.078-.058c.82.475.777,1.273-.1,1.777l-92.741,53.563c-.878.511-2.316,1.316-3.129,1.928-4.316,3.229-4.69,7.538-.985,10.588a14.938,14.938,0,0,0,3.158,1.849c5.323,2.223,12.947,2,18.607-.554.928-.417,2.345-1.252,3.222-1.755l92.785-53.549a3.416,3.416,0,0,1,3.078-.058c.827.475.784,1.273-.094,1.784L216.751,136.44c-7.351,4.244-19.362,4.244-26.713,0Z" transform="translate(-184.37 -65.39)" fill="#ffc107"/><path d="M189.908,136.332c-7.351-4.236-7.351-11.177,0-15.414l95.41-55.074a3.4,3.4,0,0,1,3.078-.058c.82.475.777,1.273-.1,1.777l-92.741,53.563c-.878.511-2.316,1.316-3.129,1.928-4.316,3.229-4.69,7.538-.985,10.588a14.938,14.938,0,0,0,3.158,1.849c5.323,2.223,12.947,2,18.607-.554.928-.417,2.345-1.252,3.222-1.755l92.785-53.549a3.416,3.416,0,0,1,3.078-.058c.827.475.784,1.273-.094,1.784L216.751,136.44c-7.351,4.244-19.362,4.244-26.713,0Z" transform="translate(-184.37 -65.39)" opacity="0.3"/><path d="M188.1,170.979a.374.374,0,0,1-.237-.086,11.854,11.854,0,0,1-1.3-1.323.36.36,0,1,1,.554-.46,10.988,10.988,0,0,0,1.223,1.237.367.367,0,0,1,.036.511.374.374,0,0,1-.273.122Z" transform="translate(-184.954 -94.455)" fill="#f5f5f5"/><path d="M206.821,157.8a.36.36,0,0,1-.007-.719,32.367,32.367,0,0,0,3.6-.324.36.36,0,0,1,.41.3.367.367,0,0,1-.3.41,33.962,33.962,0,0,1-3.654.331Zm-3.6-.072h0a31.1,31.1,0,0,1-3.6-.489.352.352,0,0,1-.288-.417.367.367,0,0,1,.424-.288,29.641,29.641,0,0,0,3.546.475.36.36,0,0,1,0,.719Zm10.789-1.014a.36.36,0,0,1-.345-.266.352.352,0,0,1,.245-.439,23.577,23.577,0,0,0,3.352-1.223.352.352,0,0,1,.475.173.36.36,0,0,1-.173.482,24.21,24.21,0,0,1-3.46,1.259Zm-17.874-.388a.323.323,0,0,1-.115,0,21.851,21.851,0,0,1-3.381-1.439.36.36,0,0,1,.338-.633,21.882,21.882,0,0,0,3.273,1.439.364.364,0,0,1-.115.719Zm24.455-2.589a.36.36,0,0,1-.18-.669l3.143-1.813a.36.36,0,1,1,.36.619l-3.143,1.813a.324.324,0,0,1-.216.072Zm6.286-3.6a.367.367,0,0,1-.316-.18.36.36,0,0,1,.094-.518l3.136-1.82a.36.36,0,0,1,.489.137.352.352,0,0,1-.129.489l-3.136,1.813a.338.338,0,0,1-.173.05Zm6.279-3.6a.36.36,0,0,1-.309-.18.367.367,0,0,1,.129-.5l3.136-1.813a.374.374,0,0,1,.5.137.36.36,0,0,1-.137.489l-3.136,1.813a.338.338,0,0,1-.209-.007Zm6.279-3.6a.36.36,0,0,1-.309-.18.367.367,0,0,1,.129-.5l3.143-1.813a.352.352,0,0,1,.489.137.36.36,0,0,1-.129.489l-3.158,1.726a.4.4,0,0,1-.2.05Zm6.279-3.6a.345.345,0,0,1-.309-.18.36.36,0,0,1,.129-.489l3.143-1.813a.352.352,0,0,1,.489.129.367.367,0,0,1-.129.5l-3.143,1.813a.389.389,0,0,1-.216-.079Zm6.279-3.6a.36.36,0,0,1-.18-.669l3.143-1.813a.352.352,0,0,1,.489.129.367.367,0,0,1-.129.5l-3.143,1.813a.389.389,0,0,1-.216-.108Zm6.286-3.6a.36.36,0,0,1-.18-.669l3.136-1.813a.36.36,0,0,1,.36.619l-3.136,1.82a.41.41,0,0,1-.216-.137Zm6.279-3.6a.374.374,0,0,1-.316-.18.367.367,0,0,1,.137-.489l3.136-1.813a.36.36,0,1,1,.36.619l-3.136,1.813a.338.338,0,0,1-.216-.158Zm6.279-3.6a.36.36,0,0,1-.18-.669l3.136-1.813a.367.367,0,0,1,.5.129.36.36,0,0,1-.137.489l-3.136,1.813a.338.338,0,0,1-.216-.187Zm6.279-3.6a.36.36,0,0,1-.18-.669l3.143-1.82a.367.367,0,0,1,.489.137.352.352,0,0,1-.129.489l-3.143,1.813a.324.324,0,0,1-.216-.216Zm6.279-3.6a.36.36,0,0,1-.309-.18.367.367,0,0,1,.129-.5l3.136-2.107a.367.367,0,0,1,.489.137.352.352,0,0,1-.129.489l-3.143,1.813a.324.324,0,0,1-.209.05Zm6.279-3.6a.36.36,0,0,1-.309-.18.367.367,0,0,1,.129-.5l3.143-1.813a.352.352,0,0,1,.489.129.367.367,0,0,1-.129.5l-3.143,1.813a.4.4,0,0,1-.216-.273Zm6.286-3.6a.367.367,0,0,1-.316-.18.36.36,0,0,1,.137-.489l3.136-1.813a.352.352,0,0,1,.489.129.367.367,0,0,1-.129.5l-3.136,1.813a.41.41,0,0,1-.216-.316Zm6.279-3.6a.374.374,0,0,1-.316-.18.367.367,0,0,1,.137-.489L305.2,104.5a.361.361,0,0,1,.36.626l-3.136,1.813a.41.41,0,0,1-.245-.345Z" transform="translate(-186.638 -76.34)" fill="#f5f5f5"/><path d="M355.194,102.655a.367.367,0,0,1-.36-.36v-1.18l-1.014.59a.352.352,0,0,1-.489-.129.367.367,0,0,1,.129-.5l1.554-.9a.36.36,0,0,1,.539.316v1.8A.36.36,0,0,1,355.194,102.655Z" transform="translate(-231.783 -75.128)" fill="#f5f5f5"/><path d="M355.8,176.829a.367.367,0,0,1-.36-.36v-3.6a.36.36,0,1,1,.719,0v3.6A.36.36,0,0,1,355.8,176.829Zm0-7.193a.36.36,0,0,1-.36-.36v-3.6a.367.367,0,0,1,.36-.36.36.36,0,0,1,.36.36v3.6a.36.36,0,0,1-.36.345Zm0-7.193a.367.367,0,0,1-.36-.36v-3.6a.36.36,0,1,1,.719,0v3.6a.36.36,0,0,1-.36.338Zm0-7.193a.36.36,0,0,1-.36-.36v-3.6a.36.36,0,1,1,.719,0v3.6a.36.36,0,0,1-.36.324Zm0-7.193a.36.36,0,0,1-.36-.36v-3.6a.367.367,0,0,1,.36-.36.36.36,0,0,1,.36.36v3.6a.36.36,0,0,1-.36.316Zm0-7.193a.367.367,0,0,1-.36-.36v-3.6a.36.36,0,1,1,.719,0v3.6a.36.36,0,0,1-.36.309Zm0-7.193a.36.36,0,0,1-.36-.36v-3.6a.36.36,0,1,1,.719,0v3.6a.36.36,0,0,1-.36.295Zm0-7.193a.367.367,0,0,1-.36-.36v-3.6a.36.36,0,1,1,.719,0v3.6a.36.36,0,0,1-.36.288Zm0-7.193a.36.36,0,0,1-.36-.36v-3.6a.36.36,0,0,1,.719,0v3.6a.36.36,0,0,1-.36.273Zm0-7.193a.36.36,0,0,1-.36-.36v-3.6a.367.367,0,0,1,.36-.36.36.36,0,0,1,.36.36v3.6a.36.36,0,0,1-.36.266Z" transform="translate(-232.389 -77.274)" fill="#f5f5f5"/><path d="M353.641,211.2a.36.36,0,0,1-.18-.669l1.374-.8v-1.59a.367.367,0,0,1,.36-.36.36.36,0,0,1,.36.36v1.8a.36.36,0,0,1-.18.316l-1.575.9a.411.411,0,0,1-.158.043Z" transform="translate(-231.784 -105.348)" fill="#f5f5f5"/><path d="M206.841,267.917a.36.36,0,1,1,0-.719,30.72,30.72,0,0,0,3.6-.331.367.367,0,0,1,.41.3.36.36,0,0,1-.3.41,32.226,32.226,0,0,1-3.654.338Zm-3.6-.072h0a31.527,31.527,0,0,1-3.632-.489.36.36,0,0,1-.288-.417.367.367,0,0,1,.424-.288,30.045,30.045,0,0,0,3.546.475.36.36,0,1,1,0,.719Zm10.789-1.021a.352.352,0,0,1-.345-.259.36.36,0,0,1,.245-.446,23.263,23.263,0,0,0,3.352-1.223.36.36,0,1,1,.3.655,24.109,24.109,0,0,1-3.452,1.259.258.258,0,0,1-.144.014Zm-17.874-.381a.324.324,0,0,1-.115,0A22.24,22.24,0,0,1,192.664,265a.36.36,0,0,1,.338-.633,22.638,22.638,0,0,0,3.273,1.438.364.364,0,0,1-.115.719Zm24.455-2.6a.36.36,0,0,1-.18-.669l3.143-1.813a.36.36,0,0,1,.36.619l-3.186,1.784a.324.324,0,0,1-.18.079Zm6.286-3.6a.36.36,0,0,1-.316-.18.352.352,0,0,1,.137-.489l3.136-1.813a.36.36,0,1,1,.36.619l-3.179,1.784a.338.338,0,0,1-.18.05Zm6.279-3.6a.367.367,0,0,1-.316-.18.36.36,0,0,1,.137-.489l3.136-1.82a.374.374,0,0,1,.5.137.367.367,0,0,1-.137.489l-3.179,1.784a.338.338,0,0,1-.18,0Zm6.279-3.6a.36.36,0,0,1-.309-.18.367.367,0,0,1,.129-.5l3.136-1.813a.367.367,0,0,1,.5.137.36.36,0,0,1-.137.489l-3.165,1.726a.338.338,0,0,1-.194.058Zm6.279-3.6a.36.36,0,0,1-.309-.18.367.367,0,0,1,.129-.5l3.143-1.812a.361.361,0,1,1,.36.626l-3.143,1.813a.4.4,0,0,1-.223-.029Zm6.279-3.632a.345.345,0,0,1-.309-.18.36.36,0,0,1,.129-.489l3.143-1.813a.361.361,0,0,1,.36.626l-3.143,1.813a.388.388,0,0,1-.223-.072Zm6.279-3.6a.359.359,0,0,1-.18-.669l3.143-1.813a.36.36,0,1,1,.36.619l-3.143,1.82a.367.367,0,0,1-.223-.1Zm6.286-3.6a.36.36,0,0,1-.18-.669l3.136-1.813a.36.36,0,1,1,.36.619l-3.136,1.813a.338.338,0,0,1-.223-.122Zm6.279-3.6a.36.36,0,0,1-.18-.669l3.136-1.813a.36.36,0,1,1,.36.619l-3.136,1.813a.338.338,0,0,1-.223-.151Zm6.279-3.6a.36.36,0,0,1-.18-.669l3.143-1.813a.36.36,0,1,1,.36.619l-3.143,1.813a.338.338,0,0,1-.223-.18Zm6.279-3.6a.36.36,0,0,1-.309-.18.367.367,0,0,1,.129-.5l3.143-1.813a.367.367,0,0,1,.489.137.352.352,0,0,1-.129.489L283.6,227.8a.324.324,0,0,1-.223-.209Zm6.279-3.6a.36.36,0,0,1-.309-.18.367.367,0,0,1,.129-.5l3.143-1.813a.361.361,0,1,1,.36.626l-3.143,1.813a.324.324,0,0,1-.223-.237Zm6.279-3.6a.36.36,0,0,1-.309-.18.367.367,0,0,1,.129-.5l3.143-1.813a.352.352,0,0,1,.489.129.367.367,0,0,1-.129.5l-3.143,1.813a.374.374,0,0,1-.223-.266Zm6.286-3.632a.357.357,0,0,1-.18-.669l3.136-1.813a.367.367,0,0,1,.5.129.374.374,0,0,1-.137.5l-3.136,1.813a.41.41,0,0,1-.223-.273Z" transform="translate(-186.644 -107.233)" fill="#f5f5f5"/><path d="M188.1,281.122a.374.374,0,0,1-.237-.086,11.8,11.8,0,0,1-1.3-1.316.374.374,0,0,1,.043-.511.367.367,0,0,1,.511.05,10.988,10.988,0,0,0,1.223,1.237.352.352,0,0,1,.036.5A.345.345,0,0,1,188.1,281.122Z" transform="translate(-184.954 -125.378)" fill="#f5f5f5"/><path d="M291.914,88.737V77.9a2.819,2.819,0,0,0-1.273-2.208.777.777,0,0,1,0,1.439l-99.021,57.2a7.509,7.509,0,0,0,1.856,2.158,15.1,15.1,0,0,0,3.15,1.848,22.513,22.513,0,0,0,9.25,1.51l84.772-48.91a2.82,2.82,0,0,0,1.266-2.2Z" transform="translate(-186.398 -68.265)" fill="#e0e0e0"/><path d="M290.377,75.474l-.439-.252a2.819,2.819,0,0,0-2.539,0L190.7,131.08a5.279,5.279,0,0,0,.655,3.064l99.021-57.2a.777.777,0,0,0,0-1.474Z" transform="translate(-186.134 -68.049)" fill="#ebebeb"/><path d="M298.675,82.465a2.834,2.834,0,0,0-1.273-2.2l-.439-.252a2.834,2.834,0,0,0-2.546,0L194.44,137.754a15.564,15.564,0,0,0,3.014,1.741c5.33,2.223,12.947,2,18.607-.561.928-.417,2.345-1.237,3.222-1.741l79.392-45.86Z" transform="translate(-187.19 -69.394)" fill="#e0e0e0"/><path d="M197.382,139.492,297.4,81.742a.777.777,0,0,0,0-1.439l-.439-.252a2.834,2.834,0,0,0-2.546,0L194.44,137.794A15.759,15.759,0,0,0,197.382,139.492Z" transform="translate(-187.19 -69.405)" fill="#ebebeb"/><path d="M307.339,87.252a2.8,2.8,0,0,0-1.273-2.2l-.439-.259a2.834,2.834,0,0,0-2.546,0L204.06,141.966a25.894,25.894,0,0,0,14.666-1.69c.928-.417,2.345-1.237,3.222-1.741L307.339,89.23Z" transform="translate(-189.891 -70.736)" fill="#e0e0e0"/><path d="M306.066,85.051l-.439-.259a2.834,2.834,0,0,0-2.546,0L204.06,141.966a25.3,25.3,0,0,0,5.308.381l96.7-55.829a.777.777,0,0,0,0-1.467Z" transform="translate(-189.891 -70.736)" fill="#ebebeb"/><path d="M359.866,128.148v21.168a2.82,2.82,0,0,1-1.266,2.2l-38.624,22.3H319.9c-2.92,1.661-5.567,1.877-7.5.878-.59-.3-2.877-1.618-3.409-1.978-1.748-1.129-2.812-3.359-2.812-6.473,0-6.473,4.539-14.335,10.242-17.982h0l36.2-20.895.187-.129c.511-.41.446-.971-.187-1.338l-4.69-2.712V119.74l10.659,6.157a2.819,2.819,0,0,1,1.244,1.949A1.489,1.489,0,0,1,359.866,128.148Z" transform="translate(-218.56 -80.632)" fill="#ffc107"/><path d="M359.866,128.148v21.168a2.82,2.82,0,0,1-1.266,2.2l-38.624,22.3H319.9c-2.92,1.661-5.567,1.877-7.5.878-.59-.3-2.877-1.618-3.409-1.978-1.748-1.129-2.812-3.359-2.812-6.473,0-6.473,4.539-14.335,10.242-17.982h0l36.2-20.895.187-.129c.511-.41.446-.971-.187-1.338l-4.69-2.712V119.74l10.659,6.157a2.819,2.819,0,0,1,1.244,1.949A1.489,1.489,0,0,1,359.866,128.148Z" transform="translate(-218.56 -80.632)" opacity="0.3"/><path d="M361.026,131.057v21.168a2.82,2.82,0,0,1-1.266,2.2l-38.624,22.3h-.072c-3.8,2.158-7.149,1.877-9.063-.36a8.351,8.351,0,0,1-1.676-5.5c0-6.66,4.841-14.846,10.789-18.3l36.912-21.3,1.712-.985c.626-.367,1.144-.151,1.244.482a1.49,1.49,0,0,1,.043.295Z" transform="translate(-219.72 -83.541)" fill="#ffc107"/><path d="M322.77,176.4c0,2.877,2,4.006,4.474,2.582a9.875,9.875,0,0,0,4.474-7.746c0-2.877-2.007-4.013-4.474-2.582A9.868,9.868,0,0,0,322.77,176.4Z" transform="translate(-223.217 -94.189)" fill="#37474f"/><path d="M332.387,169.332l-1.331-.762-6.466,10.868,1.518.878Z" transform="translate(-223.728 -94.341)" fill="#37474f"/><path d="M324.84,177.594c0,2.877,2.007,4.006,4.474,2.582a9.89,9.89,0,0,0,4.474-7.754c0-2.877-2-4.006-4.474-2.582a9.911,9.911,0,0,0-4.474,7.754Z" transform="translate(-223.798 -94.525)" fill="#455a64"/></g><g transform="translate(103.484 149.912)"><path d="M136.659,338.292a3.416,3.416,0,0,1-1.489-2.7V249.722a3.5,3.5,0,0,1,1.59-2.748l110.155-63.6a2.985,2.985,0,0,1,4.574,2.64v85.873a3.524,3.524,0,0,1-1.59,2.755l-110.155,63.6A3.409,3.409,0,0,1,136.659,338.292Z" transform="translate(-135.168 -182.911)" fill="#455a64"/><path d="M141.132,276.762l-5.5-3.172a3.237,3.237,0,0,0-.468,1.561v85.9a2.985,2.985,0,0,0,4.574,2.64l1.388-.806Z" transform="translate(-135.167 -208.368)" fill="#263238"/><path d="M139.32,252.214v85.873c0,1.014.719,1.439,1.59.913l110.155-63.6a3.524,3.524,0,0,0,1.59-2.755V186.775c0-1.014-.719-1.439-1.59-.913l-110.155,63.6A3.51,3.51,0,0,0,139.32,252.214Z" transform="translate(-136.333 -183.676)" fill="#37474f"/><path d="M151.76,304.17v13.551c0,1.014.719,1.439,1.59.913l17.694-10.214a3.5,3.5,0,0,0,1.59-2.755V292.115c0-1.014-.719-1.439-1.59-.913l-17.672,10.213a3.524,3.524,0,0,0-1.611,2.755Z" transform="translate(-139.825 -213.249)" fill="#ffc107"/><path d="M172.639,297.447v-.827L151.78,308.668v.834l5.6-3.237v6.085l-5.6,3.237v.827l20.859-12.048v-.834l-5.6,3.237v-6.085Zm-6.315,9.739-8.228,4.747v-6.085l8.228-4.747Z" transform="translate(-139.831 -214.833)" fill="#f5f5f5"/><path d="M155.878,285.14v1.18a3.6,3.6,0,0,1-1.791,3.258c-1.18.683-1.8.223-1.8-1.187v-4.6a3.6,3.6,0,0,1,1.8-3.258c1.18-.676,1.791-.223,1.791,1.187v.863l-1.136.655v-.949c0-.626-.237-.719-.626-.511a1.3,1.3,0,0,0-.619,1.237v4.769c0,.633.237.719.619.5a1.273,1.273,0,0,0,.626-1.223v-1.244Z" transform="translate(-139.973 -210.23)" fill="#fff"/><path d="M160.817,285.577a2.525,2.525,0,0,1-.108-1.021v-1.388c0-.827-.245-.993-.791-.676l-.41.245v3.6l-1.208.719v-8.833l1.82-1.05c1.244-.719,1.784-.36,1.784,1v.719a3.229,3.229,0,0,1-.791,2.251c.6-.058.8.5.8,1.439v1.367a2.481,2.481,0,0,0,.129,1Zm-1.295-6.8V281.5l.468-.273a1.4,1.4,0,0,0,.719-1.352V279c0-.633-.187-.8-.611-.554Z" transform="translate(-141.661 -209.271)" fill="#fff"/><path d="M165.621,277.527l1.654-.957v1.266l-1.654.957v2.589l2.079-1.2v1.259l-3.28,1.9V274.5l3.294-1.9v1.266l-2.093,1.18Z" transform="translate(-143.379 -208.09)" fill="#fff"/><path d="M170,271.442l1.906-1.093c1.2-.719,1.791-.266,1.791,1.144v4.474a3.5,3.5,0,0,1-1.791,3.222l-1.906,1.1Zm1.208.568v6.322l.676-.4a1.259,1.259,0,0,0,.611-1.208v-4.567c0-.633-.23-.719-.611-.5Z" transform="translate(-144.946 -207.363)" fill="#fff"/><path d="M176.22,268.139l1.2-.719v8.84l-1.2.719Z" transform="translate(-146.692 -206.636)" fill="#fff"/><path d="M178.62,266.158,182.339,264v1.259l-1.259.719v7.581l-1.2.719v-7.559l-1.259.719Z" transform="translate(-147.366 -205.676)" fill="#fff"/><path d="M190.331,265.249v1.18a3.6,3.6,0,0,1-1.791,3.258c-1.18.719-1.791.223-1.791-1.187v-4.6a3.6,3.6,0,0,1,1.791-3.258c1.18-.683,1.791-.223,1.791,1.187v.863l-1.136.655v-.949c0-.626-.237-.719-.619-.511a1.3,1.3,0,0,0-.626,1.237v4.769c0,.633.237.719.626.5a1.28,1.28,0,0,0,.619-1.223v-1.259Z" transform="translate(-149.647 -204.644)" fill="#fff"/><path d="M196.525,264.83l-1.216.719-.209-1.489-1.474.856-.209,1.726-1.108.633,1.223-9.545,1.762-1.021Zm-2.748-1.216,1.158-.669-.575-4.136Z" transform="translate(-151.209 -203.629)" fill="#fff"/><path d="M201.457,262.143a2.6,2.6,0,0,1-.108-1.029v-1.388c0-.82-.237-.985-.791-.669l-.41.237v3.6l-1.208.719v-8.861l1.82-1.05c1.244-.719,1.784-.36,1.784,1.007v.719a3.193,3.193,0,0,1-.791,2.244c.6-.058.8.5.8,1.439v1.359a2.345,2.345,0,0,0,.137,1Zm-1.309-6.826v2.719l.468-.273a1.438,1.438,0,0,0,.719-1.352v-.87c0-.633-.18-.806-.611-.554Z" transform="translate(-153.071 -202.682)" fill="#fff"/><path d="M205.06,251.209l1.906-1.1c1.2-.719,1.791-.266,1.791,1.151v4.474a3.5,3.5,0,0,1-1.791,3.222l-1.906,1.093Zm1.2.568v6.315l.676-.388a1.252,1.252,0,0,0,.619-1.216v-4.6c0-.633-.23-.719-.619-.5Z" transform="translate(-154.789 -201.681)" fill="#fff"/><path d="M151.76,340.089V343.3c0,1.014.719,1.439,1.59.913L171.043,334a3.524,3.524,0,0,0,1.59-2.755v-3.215c0-1.014-.719-1.439-1.59-.921l-17.672,10.221A3.51,3.51,0,0,0,151.76,340.089Z" transform="translate(-139.825 -223.332)" fill="#e0e0e0"/><path d="M186.31,320.13v3.215c0,1.014.719,1.439,1.59.921l17.7-10.221a3.5,3.5,0,0,0,1.59-2.748v-3.222c0-1.014-.719-1.439-1.59-.913l-17.7,10.214a3.524,3.524,0,0,0-1.59,2.755Z" transform="translate(-149.525 -217.729)" fill="#e0e0e0"/><path d="M220.87,300.169v3.215c0,1.014.719,1.439,1.59.921l17.694-10.221a3.5,3.5,0,0,0,1.6-2.784v-3.215c0-1.014-.719-1.439-1.6-.913L222.46,297.385A3.524,3.524,0,0,0,220.87,300.169Z" transform="translate(-159.227 -212.117)" fill="#e0e0e0"/><path d="M255.42,280.229v3.215c0,1.014.719,1.439,1.59.921l17.7-10.221a3.524,3.524,0,0,0,1.59-2.755v-3.215c0-1.014-.719-1.439-1.59-.921l-17.7,10.221A3.51,3.51,0,0,0,255.42,280.229Z" transform="translate(-168.927 -206.527)" fill="#e0e0e0"/><path d="M268.715,290.728l-4.085,2.316a2.115,2.115,0,0,0-.949,1.654v1.244c0,.6.424.849.949.547l4.057-2.345a2.093,2.093,0,0,0,.957-1.647v-1.244C269.664,290.671,269.247,290.419,268.715,290.728Z" transform="translate(-171.246 -213.142)" fill="#ffc107"/><path d="M281.166,283.54l-4.057,2.345a2.107,2.107,0,0,0-.949,1.654v1.237c0,.611.424.856.949.554l4.057-2.345a2.093,2.093,0,0,0,.957-1.654v-1.237C282.123,283.482,281.7,283.237,281.166,283.54Z" transform="translate(-174.749 -211.125)" fill="#ffc107"/><path d="M211.29,325.213,261.8,296.054c.878-.511,1.59-.1,1.59.913v1.5a3.524,3.524,0,0,1-1.59,2.755L211.29,330.377c-.878.511-1.59.094-1.59-.921v-1.489A3.51,3.51,0,0,1,211.29,325.213Z" transform="translate(-156.091 -214.613)" fill="#ffc107"/></g><g transform="translate(66.394 172.412)"><path d="M359.025,312.093a13.04,13.04,0,0,0-4.8-4.438c-7.847-4.524-20.564-4.524-28.4,0a12.947,12.947,0,0,0-4.8,4.438H319.94V316.2h0c.144,2.877,2.093,5.675,5.869,7.854,7.84,4.531,20.556,4.531,28.4,0,3.769-2.158,5.718-5.035,5.862-7.854h0v-4.107Z" transform="translate(-149.95 -239.479)" fill="#ffc107"/><path d="M359.025,312.093a13.04,13.04,0,0,0-4.8-4.438c-7.847-4.524-20.564-4.524-28.4,0a12.947,12.947,0,0,0-4.8,4.438H319.94V316.2h0c.144,2.877,2.093,5.675,5.869,7.854,7.84,4.531,20.556,4.531,28.4,0,3.769-2.158,5.718-5.035,5.862-7.854h0v-4.107Z" transform="translate(-149.95 -239.479)" fill="#f5f5f5" opacity="0.5"/><path d="M354.228,302.426c-7.847-4.524-20.564-4.524-28.4,0s-7.847,11.875,0,16.4,20.556,4.531,28.4,0S362.067,306.957,354.228,302.426Z" transform="translate(-149.95 -238.01)" fill="#ffc107"/><path d="M354.228,302.426c-7.847-4.524-20.564-4.524-28.4,0s-7.847,11.875,0,16.4,20.556,4.531,28.4,0S362.067,306.957,354.228,302.426Z" transform="translate(-149.95 -238.01)" fill="#f5f5f5" opacity="0.6"/><path d="M351.91,307.158a22.614,22.614,0,0,0-18.5,0c-2.625,1.345-4.071,3.194-4.071,5.2s1.439,3.848,4.071,5.193a22.614,22.614,0,0,0,18.5,0c2.625-1.345,4.071-3.194,4.071-5.193S354.536,308.5,351.91,307.158Z" transform="translate(-152.589 -239.736)" fill="#ffc107"/><path d="M351.91,307.158a22.614,22.614,0,0,0-18.5,0c-2.625,1.345-4.071,3.194-4.071,5.2s1.439,3.848,4.071,5.193a22.614,22.614,0,0,0,18.5,0c2.625-1.345,4.071-3.194,4.071-5.193S354.536,308.5,351.91,307.158Z" transform="translate(-152.589 -239.736)" fill="#f5f5f5" opacity="0.6"/><path d="M354.131,303.53a30.517,30.517,0,0,0-27.526,0c-3.517,2.028-5.445,4.668-5.445,7.444s1.928,5.409,5.445,7.437a30.517,30.517,0,0,0,27.526,0c3.51-2.028,5.445-4.668,5.445-7.437S357.641,305.558,354.131,303.53Zm-4.517,12.637a22.614,22.614,0,0,1-18.5,0c-2.625-1.345-4.071-3.194-4.071-5.193s1.439-3.855,4.071-5.2a22.614,22.614,0,0,1,18.5,0c2.625,1.345,4.071,3.194,4.071,5.2S352.239,314.822,349.614,316.167Z" transform="translate(-150.292 -238.352)" fill="#ffc107"/><path d="M354.131,303.53a30.517,30.517,0,0,0-27.526,0c-3.517,2.028-5.445,4.668-5.445,7.444s1.928,5.409,5.445,7.437a30.517,30.517,0,0,0,27.526,0c3.51-2.028,5.445-4.668,5.445-7.437S357.641,305.558,354.131,303.53Zm-4.517,12.637a22.614,22.614,0,0,1-18.5,0c-2.625-1.345-4.071-3.194-4.071-5.193s1.439-3.855,4.071-5.2a22.614,22.614,0,0,1,18.5,0c2.625,1.345,4.071,3.194,4.071,5.2S352.239,314.822,349.614,316.167Z" transform="translate(-150.292 -238.352)" fill="#f5f5f5" opacity="0.7"/><path d="M351.864,317.209c4.934-2.532,4.934-6.639,0-9.171s-12.947-2.532-17.866,0-4.934,6.639,0,9.171S346.93,319.741,351.864,317.209Z" transform="translate(-152.859 -240.006)" fill="#ffc107"/><path d="M351.864,317.209c4.934-2.532,4.934-6.639,0-9.171s-12.947-2.532-17.866,0-4.934,6.639,0,9.171S346.93,319.741,351.864,317.209Z" transform="translate(-152.859 -240.006)" fill="#f5f5f5" opacity="0.5"/><path d="M351.9,310.429c-4.934-2.532-12.947-2.532-17.866,0-2.036,1.043-3.229,2.359-3.6,3.726.352,1.359,1.546,2.676,3.6,3.726,4.934,2.532,12.947,2.532,17.866,0,2.043-1.05,3.229-2.366,3.6-3.726C355.132,312.788,353.945,311.472,351.9,310.429Z" transform="translate(-152.898 -240.677)" fill="#ffc107"/><path d="M351.9,310.429c-4.934-2.532-12.947-2.532-17.866,0-2.036,1.043-3.229,2.359-3.6,3.726.352,1.359,1.546,2.676,3.6,3.726,4.934,2.532,12.947,2.532,17.866,0,2.043-1.05,3.229-2.366,3.6-3.726C355.132,312.788,353.945,311.472,351.9,310.429Z" transform="translate(-152.898 -240.677)" fill="#f5f5f5" opacity="0.6"/><path d="M348.818,308.92v1.848l-.633.669-1.165,1.223v-1.928Z" transform="translate(-157.552 -240.786)" fill="#ffc107"/><path d="M345.574,311.252v1.928H341.92v-2.244S345.308,310.4,345.574,311.252Z" transform="translate(-156.121 -241.306)" fill="#ffc107"/><path d="M352.594,316.229v1.618l-2.028,1.165-1.5-.863a7.639,7.639,0,0,1-5.8.259v-1.6l.921-.913-.921.252a5.905,5.905,0,0,1-4.517-.518c-.913-.525-1.331-1.093-1.331-1.683v-1.561l.165-.676-.583-.338v-1.6l1.5.87a2.33,2.33,0,0,0-1.108,1.719h0c0,.575.446,1.136,1.331,1.647,1.971,1.136,3.92.762,5.711.187,1.661-.539,2.877-1.18,3.834-.626.59.345.41.762-.259,1.151a3.345,3.345,0,0,1-2.877.165l-1.913,1.9a6.741,6.741,0,0,0,1.057.309,7.947,7.947,0,0,0,4.747-.568l1.5.863Z" transform="translate(-154.739 -241.025)" fill="#ffc107"/><path d="M353.77,319.18v1.6l1.5.863v-1.6Z" transform="translate(-159.447 -243.667)" fill="#ffc107"/><g transform="translate(182.261 68.134)" opacity="0.5"><path d="M348.818,308.92v1.848l-.633.669-1.165,1.223v-1.928Z" transform="translate(-339.813 -308.92)" fill="#f5f5f5"/><path d="M345.574,311.252v1.928H341.92v-2.244S345.308,310.4,345.574,311.252Z" transform="translate(-338.381 -309.44)" fill="#f5f5f5"/><path d="M352.594,316.229v1.618l-2.028,1.165-1.5-.863a7.639,7.639,0,0,1-5.8.259v-1.6l.921-.913-.921.252a5.905,5.905,0,0,1-4.517-.518c-.913-.525-1.331-1.093-1.331-1.683v-1.561l.165-.676-.583-.338v-1.6l1.5.87a2.33,2.33,0,0,0-1.108,1.719h0c0,.575.446,1.136,1.331,1.647,1.971,1.136,3.92.762,5.711.187,1.661-.539,2.877-1.18,3.834-.626.59.345.41.762-.259,1.151a3.345,3.345,0,0,1-2.877.165l-1.913,1.9a6.741,6.741,0,0,0,1.057.309,7.947,7.947,0,0,0,4.747-.568l1.5.863Z" transform="translate(-337 -309.159)" fill="#f5f5f5"/><path d="M353.77,319.18v1.6l1.5.863v-1.6Z" transform="translate(-341.708 -311.8)" fill="#f5f5f5"/></g><path d="M352.248,315.6l-1.158-.669a1.971,1.971,0,0,0,1.158-1.777,1.113,1.113,0,0,0,0-.158,2.158,2.158,0,0,0-1.295-1.568h0a5.33,5.33,0,0,0-2.7-.719h-.949a12.035,12.035,0,0,0-1.309.273l-.619.18-.842.273-.345.223a9.687,9.687,0,0,1-1.8.511,1.813,1.813,0,0,1-.77,0,1.64,1.64,0,0,1-.367-.151c-.446-.259-.518-.662.331-1.151a2.963,2.963,0,0,1,2.6-.273l1.8-1.813a7.7,7.7,0,0,0-5.43.3l-1.5-.863L337,309.342l1.5.863a2.3,2.3,0,0,0-1.115,1.719h0c0,.575.439,1.136,1.331,1.647,1.971,1.136,3.92.762,5.711.187,1.661-.547,2.877-1.18,3.826-.626.6.345.417.762-.252,1.144a3.294,3.294,0,0,1-2.877.165l-1.913,1.906a6.742,6.742,0,0,0,1.057.309,7.912,7.912,0,0,0,4.74-.568l1.5.863,2.021-1.165Z" transform="translate(-154.739 -240.59)" fill="#ffc107"/><path d="M352.248,315.6l-1.158-.669a1.971,1.971,0,0,0,1.158-1.777,1.113,1.113,0,0,0,0-.158,2.158,2.158,0,0,0-1.295-1.568h0a5.33,5.33,0,0,0-2.7-.719h-.949a12.035,12.035,0,0,0-1.309.273l-.619.18-.842.273-.345.223a9.687,9.687,0,0,1-1.8.511,1.813,1.813,0,0,1-.77,0,1.64,1.64,0,0,1-.367-.151c-.446-.259-.518-.662.331-1.151a2.963,2.963,0,0,1,2.6-.273l1.8-1.813a7.7,7.7,0,0,0-5.43.3l-1.5-.863L337,309.342l1.5.863a2.3,2.3,0,0,0-1.115,1.719h0c0,.575.439,1.136,1.331,1.647,1.971,1.136,3.92.762,5.711.187,1.661-.547,2.877-1.18,3.826-.626.6.345.417.762-.252,1.144a3.294,3.294,0,0,1-2.877.165l-1.913,1.906a6.742,6.742,0,0,0,1.057.309,7.912,7.912,0,0,0,4.74-.568l1.5.863,2.021-1.165Z" transform="translate(-154.739 -240.59)" fill="#f5f5f5" opacity="0.7"/><path d="M360.685,304.253a13.041,13.041,0,0,0-4.8-4.438c-7.847-4.524-20.564-4.524-28.4,0a13.041,13.041,0,0,0-4.8,4.438H321.6v4.093h0c.144,2.877,2.1,5.675,5.869,7.854,7.84,4.531,20.556,4.531,28.4,0,3.769-2.158,5.754-5.035,5.869-7.854h0v-4.107Z" transform="translate(-150.416 -237.278)" fill="#ffc107"/><path d="M360.685,304.253a13.041,13.041,0,0,0-4.8-4.438c-7.847-4.524-20.564-4.524-28.4,0a13.041,13.041,0,0,0-4.8,4.438H321.6v4.093h0c.144,2.877,2.1,5.675,5.869,7.854,7.84,4.531,20.556,4.531,28.4,0,3.769-2.158,5.754-5.035,5.869-7.854h0v-4.107Z" transform="translate(-150.416 -237.278)" fill="#f5f5f5" opacity="0.5"/><path d="M355.889,294.586c-7.847-4.524-20.564-4.524-28.4,0s-7.84,11.875,0,16.4,20.556,4.531,28.4,0S363.729,299.117,355.889,294.586Z" transform="translate(-150.417 -235.809)" fill="#ffc107"/><path d="M355.889,294.586c-7.847-4.524-20.564-4.524-28.4,0s-7.84,11.875,0,16.4,20.556,4.531,28.4,0S363.729,299.117,355.889,294.586Z" transform="translate(-150.417 -235.809)" fill="#f5f5f5" opacity="0.6"/><path d="M353.57,299.318a22.6,22.6,0,0,0-18.492,0c-2.64,1.374-4.078,3.194-4.078,5.2s1.439,3.848,4.078,5.193a22.6,22.6,0,0,0,18.492,0c2.625-1.345,4.078-3.194,4.078-5.193S356.174,300.692,353.57,299.318Z" transform="translate(-153.055 -237.535)" fill="#ffc107"/><path d="M353.57,299.318a22.6,22.6,0,0,0-18.492,0c-2.64,1.374-4.078,3.194-4.078,5.2s1.439,3.848,4.078,5.193a22.6,22.6,0,0,0,18.492,0c2.625-1.345,4.078-3.194,4.078-5.193S356.174,300.692,353.57,299.318Z" transform="translate(-153.055 -237.535)" fill="#f5f5f5" opacity="0.6"/><path d="M355.791,295.72a30.516,30.516,0,0,0-27.526,0c-3.517,2.028-5.445,4.668-5.445,7.444s1.928,5.409,5.445,7.437a30.517,30.517,0,0,0,27.526,0c3.51-2.028,5.445-4.668,5.445-7.437S359.3,297.727,355.791,295.72Zm-4.517,12.637a22.6,22.6,0,0,1-18.492,0c-2.632-1.345-4.078-3.194-4.078-5.193s1.439-3.855,4.078-5.2a22.6,22.6,0,0,1,18.492,0c2.625,1.345,4.078,3.194,4.078,5.2s-1.475,3.826-4.078,5.171Z" transform="translate(-150.758 -236.16)" fill="#ffc107"/><path d="M355.791,295.72a30.516,30.516,0,0,0-27.526,0c-3.517,2.028-5.445,4.668-5.445,7.444s1.928,5.409,5.445,7.437a30.517,30.517,0,0,0,27.526,0c3.51-2.028,5.445-4.668,5.445-7.437S359.3,297.727,355.791,295.72Zm-4.517,12.637a22.6,22.6,0,0,1-18.492,0c-2.632-1.345-4.078-3.194-4.078-5.193s1.439-3.855,4.078-5.2a22.6,22.6,0,0,1,18.492,0c2.625,1.345,4.078,3.194,4.078,5.2s-1.475,3.826-4.078,5.171Z" transform="translate(-150.758 -236.16)" fill="#f5f5f5" opacity="0.7"/><ellipse cx="12.63" cy="6.481" rx="12.63" ry="6.481" transform="translate(178.636 60.495)" fill="#ffc107"/><ellipse cx="12.63" cy="6.481" rx="12.63" ry="6.481" transform="translate(178.636 60.495)" fill="#f5f5f5" opacity="0.5"/><path d="M353.566,302.589c-4.934-2.532-12.947-2.532-17.859,0-2.043,1.043-3.237,2.359-3.6,3.726.352,1.359,1.546,2.676,3.6,3.726,4.927,2.525,12.947,2.525,17.859,0,2.043-1.05,3.237-2.366,3.6-3.726C356.8,304.948,355.608,303.632,353.566,302.589Z" transform="translate(-153.367 -238.476)" fill="#ffc107"/><path d="M353.566,302.589c-4.934-2.532-12.947-2.532-17.859,0-2.043,1.043-3.237,2.359-3.6,3.726.352,1.359,1.546,2.676,3.6,3.726,4.927,2.525,12.947,2.525,17.859,0,2.043-1.05,3.237-2.366,3.6-3.726C356.8,304.948,355.608,303.632,353.566,302.589Z" transform="translate(-153.367 -238.476)" fill="#f5f5f5" opacity="0.6"/><path d="M350.485,301.08v1.849l-.633.669-1.172,1.223v-1.928Z" transform="translate(-158.018 -238.585)" fill="#ffc107"/><path d="M347.254,303.41v1.928H343.6v-2.258S346.981,302.561,347.254,303.41Z" transform="translate(-156.592 -239.102)" fill="#ffc107"/><path d="M354.265,308.389v1.6l-2.028,1.165-1.5-.863a7.631,7.631,0,0,1-5.8.259v-1.6l.921-.913-.921.252a5.905,5.905,0,0,1-4.517-.518c-.906-.525-1.331-1.093-1.331-1.683v-1.561l.165-.676-.554-.324v-1.6l1.5.87a2.323,2.323,0,0,0-1.115,1.719h0c0,.575.446,1.136,1.331,1.647,1.971,1.136,3.92.762,5.711.187,1.661-.539,2.877-1.18,3.834-.626.6.345.41.762-.252,1.151a3.345,3.345,0,0,1-2.877.165l-1.92,1.9a6.97,6.97,0,0,0,1.057.309,7.912,7.912,0,0,0,4.747-.575l1.5.87Z" transform="translate(-155.217 -238.824)" fill="#ffc107"/><path d="M355.44,311.33v1.6l1.5.863v-1.6Z" transform="translate(-159.916 -241.463)" fill="#ffc107"/><g transform="translate(183.483 62.495)" opacity="0.5"><path d="M350.485,301.08v1.849l-.633.669-1.172,1.223v-1.928Z" transform="translate(-341.502 -301.08)" fill="#f5f5f5"/><path d="M347.254,303.41v1.928H343.6v-2.258S346.981,302.561,347.254,303.41Z" transform="translate(-340.076 -301.597)" fill="#f5f5f5"/><path d="M354.265,308.389v1.6l-2.028,1.165-1.5-.863a7.631,7.631,0,0,1-5.8.259v-1.6l.921-.913-.921.252a5.905,5.905,0,0,1-4.517-.518c-.906-.525-1.331-1.093-1.331-1.683v-1.561l.165-.676-.554-.324v-1.6l1.5.87a2.323,2.323,0,0,0-1.115,1.719h0c0,.575.446,1.136,1.331,1.647,1.971,1.136,3.92.762,5.711.187,1.661-.539,2.877-1.18,3.834-.626.6.345.41.762-.252,1.151a3.345,3.345,0,0,1-2.877.165l-1.92,1.9a6.97,6.97,0,0,0,1.057.309,7.912,7.912,0,0,0,4.747-.575l1.5.87Z" transform="translate(-338.7 -301.319)" fill="#f5f5f5"/><path d="M355.44,311.33v1.6l1.5.863v-1.6Z" transform="translate(-343.4 -303.958)" fill="#f5f5f5"/></g><path d="M353.941,307.718l-1.158-.669a1.971,1.971,0,0,0,1.158-1.777,1.086,1.086,0,0,0,0-.158c-.05-.554-.453-1.086-1.295-1.568h0a5.323,5.323,0,0,0-2.69-.719h-.935a12.393,12.393,0,0,0-1.309.273l-.611.18-.849.273-.324.115a9.544,9.544,0,0,1-1.8.511,1.812,1.812,0,0,1-.77,0,1.589,1.589,0,0,1-.36-.151c-.453-.259-.525-.662.324-1.151a2.963,2.963,0,0,1,2.6-.273l1.805-1.813a7.718,7.718,0,0,0-5.438.3l-1.5-.863-2.043,1.18,1.5.863a2.309,2.309,0,0,0-1.115,1.719h0c0,.575.439,1.136,1.331,1.647,1.971,1.136,3.927.762,5.711.187,1.661-.547,2.877-1.18,3.834-.633.6.352.41.77-.252,1.151a3.294,3.294,0,0,1-2.877.165l-1.92,1.906a6.97,6.97,0,0,0,1.057.309,7.912,7.912,0,0,0,4.747-.575l1.5.87,2.028-1.165Z" transform="translate(-155.231 -238.347)" fill="#ffc107"/><path d="M353.941,307.718l-1.158-.669a1.971,1.971,0,0,0,1.158-1.777,1.086,1.086,0,0,0,0-.158c-.05-.554-.453-1.086-1.295-1.568h0a5.323,5.323,0,0,0-2.69-.719h-.935a12.393,12.393,0,0,0-1.309.273l-.611.18-.849.273-.324.115a9.544,9.544,0,0,1-1.8.511,1.812,1.812,0,0,1-.77,0,1.589,1.589,0,0,1-.36-.151c-.453-.259-.525-.662.324-1.151a2.963,2.963,0,0,1,2.6-.273l1.805-1.813a7.718,7.718,0,0,0-5.438.3l-1.5-.863-2.043,1.18,1.5.863a2.309,2.309,0,0,0-1.115,1.719h0c0,.575.439,1.136,1.331,1.647,1.971,1.136,3.927.762,5.711.187,1.661-.547,2.877-1.18,3.834-.633.6.352.41.77-.252,1.151a3.294,3.294,0,0,1-2.877.165l-1.92,1.906a6.97,6.97,0,0,0,1.057.309,7.912,7.912,0,0,0,4.747-.575l1.5.87,2.028-1.165Z" transform="translate(-155.231 -238.347)" fill="#f5f5f5" opacity="0.7"/><path d="M359.025,312.093a13.04,13.04,0,0,0-4.8-4.438c-7.847-4.524-20.564-4.524-28.4,0a12.947,12.947,0,0,0-4.8,4.438H319.94V316.2h0c.144,2.877,2.093,5.675,5.869,7.854,7.84,4.531,20.556,4.531,28.4,0,3.769-2.158,5.718-5.035,5.862-7.854h0v-4.107Z" transform="translate(-149.95 -239.479)" fill="#ffc107"/><path d="M359.025,312.093a13.04,13.04,0,0,0-4.8-4.438c-7.847-4.524-20.564-4.524-28.4,0a12.947,12.947,0,0,0-4.8,4.438H319.94V316.2h0c.144,2.877,2.093,5.675,5.869,7.854,7.84,4.531,20.556,4.531,28.4,0,3.769-2.158,5.718-5.035,5.862-7.854h0v-4.107Z" transform="translate(-149.95 -239.479)" fill="#f5f5f5" opacity="0.5"/><path d="M354.228,302.426c-7.847-4.524-20.564-4.524-28.4,0s-7.847,11.875,0,16.4,20.556,4.531,28.4,0S362.067,306.957,354.228,302.426Z" transform="translate(-149.95 -238.01)" fill="#ffc107"/><path d="M354.228,302.426c-7.847-4.524-20.564-4.524-28.4,0s-7.847,11.875,0,16.4,20.556,4.531,28.4,0S362.067,306.957,354.228,302.426Z" transform="translate(-149.95 -238.01)" fill="#f5f5f5" opacity="0.6"/><path d="M351.91,307.158a22.614,22.614,0,0,0-18.5,0c-2.625,1.345-4.071,3.194-4.071,5.2s1.439,3.848,4.071,5.193a22.614,22.614,0,0,0,18.5,0c2.625-1.345,4.071-3.194,4.071-5.193S354.536,308.5,351.91,307.158Z" transform="translate(-152.589 -239.736)" fill="#ffc107"/><path d="M351.91,307.158a22.614,22.614,0,0,0-18.5,0c-2.625,1.345-4.071,3.194-4.071,5.2s1.439,3.848,4.071,5.193a22.614,22.614,0,0,0,18.5,0c2.625-1.345,4.071-3.194,4.071-5.193S354.536,308.5,351.91,307.158Z" transform="translate(-152.589 -239.736)" fill="#f5f5f5" opacity="0.6"/><path d="M354.131,303.53a30.517,30.517,0,0,0-27.526,0c-3.517,2.028-5.445,4.668-5.445,7.444s1.928,5.409,5.445,7.437a30.517,30.517,0,0,0,27.526,0c3.51-2.028,5.445-4.668,5.445-7.437S357.641,305.558,354.131,303.53Zm-4.517,12.637a22.614,22.614,0,0,1-18.5,0c-2.625-1.345-4.071-3.194-4.071-5.193s1.439-3.855,4.071-5.2a22.614,22.614,0,0,1,18.5,0c2.625,1.345,4.071,3.194,4.071,5.2S352.239,314.822,349.614,316.167Z" transform="translate(-150.292 -238.352)" fill="#ffc107"/><path d="M354.131,303.53a30.517,30.517,0,0,0-27.526,0c-3.517,2.028-5.445,4.668-5.445,7.444s1.928,5.409,5.445,7.437a30.517,30.517,0,0,0,27.526,0c3.51-2.028,5.445-4.668,5.445-7.437S357.641,305.558,354.131,303.53Zm-4.517,12.637a22.614,22.614,0,0,1-18.5,0c-2.625-1.345-4.071-3.194-4.071-5.193s1.439-3.855,4.071-5.2a22.614,22.614,0,0,1,18.5,0c2.625,1.345,4.071,3.194,4.071,5.2S352.239,314.822,349.614,316.167Z" transform="translate(-150.292 -238.352)" fill="#f5f5f5" opacity="0.7"/><path d="M351.864,317.209c4.934-2.532,4.934-6.639,0-9.171s-12.947-2.532-17.866,0-4.934,6.639,0,9.171S346.93,319.741,351.864,317.209Z" transform="translate(-152.859 -240.006)" fill="#ffc107"/><path d="M351.864,317.209c4.934-2.532,4.934-6.639,0-9.171s-12.947-2.532-17.866,0-4.934,6.639,0,9.171S346.93,319.741,351.864,317.209Z" transform="translate(-152.859 -240.006)" fill="#f5f5f5" opacity="0.5"/><path d="M351.9,310.429c-4.934-2.532-12.947-2.532-17.866,0-2.036,1.043-3.229,2.359-3.6,3.726.352,1.359,1.546,2.676,3.6,3.726,4.934,2.532,12.947,2.532,17.866,0,2.043-1.05,3.229-2.366,3.6-3.726C355.132,312.788,353.945,311.472,351.9,310.429Z" transform="translate(-152.898 -240.677)" fill="#ffc107"/><path d="M351.9,310.429c-4.934-2.532-12.947-2.532-17.866,0-2.036,1.043-3.229,2.359-3.6,3.726.352,1.359,1.546,2.676,3.6,3.726,4.934,2.532,12.947,2.532,17.866,0,2.043-1.05,3.229-2.366,3.6-3.726C355.132,312.788,353.945,311.472,351.9,310.429Z" transform="translate(-152.898 -240.677)" fill="#f5f5f5" opacity="0.6"/><path d="M348.818,308.92v1.848l-.633.669-1.165,1.223v-1.928Z" transform="translate(-157.552 -240.786)" fill="#ffc107"/><path d="M345.574,311.252v1.928H341.92v-2.244S345.308,310.4,345.574,311.252Z" transform="translate(-156.121 -241.306)" fill="#ffc107"/><path d="M352.594,316.229v1.618l-2.028,1.165-1.5-.863a7.639,7.639,0,0,1-5.8.259v-1.6l.921-.913-.921.252a5.905,5.905,0,0,1-4.517-.518c-.913-.525-1.331-1.093-1.331-1.683v-1.561l.165-.676-.583-.338v-1.6l1.5.87a2.33,2.33,0,0,0-1.108,1.719h0c0,.575.446,1.136,1.331,1.647,1.971,1.136,3.92.762,5.711.187,1.661-.539,2.877-1.18,3.834-.626.59.345.41.762-.259,1.151a3.345,3.345,0,0,1-2.877.165l-1.913,1.9a6.741,6.741,0,0,0,1.057.309,7.947,7.947,0,0,0,4.747-.568l1.5.863Z" transform="translate(-154.739 -241.025)" fill="#ffc107"/><path d="M353.77,319.18v1.6l1.5.863v-1.6Z" transform="translate(-159.447 -243.667)" fill="#ffc107"/><g transform="translate(182.261 68.134)" opacity="0.5"><path d="M348.818,308.92v1.848l-.633.669-1.165,1.223v-1.928Z" transform="translate(-339.813 -308.92)" fill="#f5f5f5"/><path d="M345.574,311.252v1.928H341.92v-2.244S345.308,310.4,345.574,311.252Z" transform="translate(-338.381 -309.44)" fill="#f5f5f5"/><path d="M352.594,316.229v1.618l-2.028,1.165-1.5-.863a7.639,7.639,0,0,1-5.8.259v-1.6l.921-.913-.921.252a5.905,5.905,0,0,1-4.517-.518c-.913-.525-1.331-1.093-1.331-1.683v-1.561l.165-.676-.583-.338v-1.6l1.5.87a2.33,2.33,0,0,0-1.108,1.719h0c0,.575.446,1.136,1.331,1.647,1.971,1.136,3.92.762,5.711.187,1.661-.539,2.877-1.18,3.834-.626.59.345.41.762-.259,1.151a3.345,3.345,0,0,1-2.877.165l-1.913,1.9a6.741,6.741,0,0,0,1.057.309,7.947,7.947,0,0,0,4.747-.568l1.5.863Z" transform="translate(-337 -309.159)" fill="#f5f5f5"/><path d="M353.77,319.18v1.6l1.5.863v-1.6Z" transform="translate(-341.708 -311.8)" fill="#f5f5f5"/></g><path d="M352.248,315.6l-1.158-.669a1.971,1.971,0,0,0,1.158-1.777,1.113,1.113,0,0,0,0-.158,2.158,2.158,0,0,0-1.295-1.568h0a5.33,5.33,0,0,0-2.7-.719h-.949a12.035,12.035,0,0,0-1.309.273l-.619.18-.842.273-.345.223a9.687,9.687,0,0,1-1.8.511,1.813,1.813,0,0,1-.77,0,1.64,1.64,0,0,1-.367-.151c-.446-.259-.518-.662.331-1.151a2.963,2.963,0,0,1,2.6-.273l1.8-1.813a7.7,7.7,0,0,0-5.43.3l-1.5-.863L337,309.342l1.5.863a2.3,2.3,0,0,0-1.115,1.719h0c0,.575.439,1.136,1.331,1.647,1.971,1.136,3.92.762,5.711.187,1.661-.547,2.877-1.18,3.826-.626.6.345.417.762-.252,1.144a3.294,3.294,0,0,1-2.877.165l-1.913,1.906a6.742,6.742,0,0,0,1.057.309,7.912,7.912,0,0,0,4.74-.568l1.5.863,2.021-1.165Z" transform="translate(-154.739 -240.59)" fill="#ffc107"/><path d="M352.248,315.6l-1.158-.669a1.971,1.971,0,0,0,1.158-1.777,1.113,1.113,0,0,0,0-.158,2.158,2.158,0,0,0-1.295-1.568h0a5.33,5.33,0,0,0-2.7-.719h-.949a12.035,12.035,0,0,0-1.309.273l-.619.18-.842.273-.345.223a9.687,9.687,0,0,1-1.8.511,1.813,1.813,0,0,1-.77,0,1.64,1.64,0,0,1-.367-.151c-.446-.259-.518-.662.331-1.151a2.963,2.963,0,0,1,2.6-.273l1.8-1.813a7.7,7.7,0,0,0-5.43.3l-1.5-.863L337,309.342l1.5.863a2.3,2.3,0,0,0-1.115,1.719h0c0,.575.439,1.136,1.331,1.647,1.971,1.136,3.92.762,5.711.187,1.661-.547,2.877-1.18,3.826-.626.6.345.417.762-.252,1.144a3.294,3.294,0,0,1-2.877.165l-1.913,1.906a6.742,6.742,0,0,0,1.057.309,7.912,7.912,0,0,0,4.74-.568l1.5.863,2.021-1.165Z" transform="translate(-154.739 -240.59)" fill="#f5f5f5" opacity="0.7"/><path d="M360.685,304.253a13.041,13.041,0,0,0-4.8-4.438c-7.847-4.524-20.564-4.524-28.4,0a13.041,13.041,0,0,0-4.8,4.438H321.6v4.093h0c.144,2.877,2.1,5.675,5.869,7.854,7.84,4.531,20.556,4.531,28.4,0,3.769-2.158,5.754-5.035,5.869-7.854h0v-4.107Z" transform="translate(-150.416 -237.278)" fill="#ffc107"/><path d="M360.685,304.253a13.041,13.041,0,0,0-4.8-4.438c-7.847-4.524-20.564-4.524-28.4,0a13.041,13.041,0,0,0-4.8,4.438H321.6v4.093h0c.144,2.877,2.1,5.675,5.869,7.854,7.84,4.531,20.556,4.531,28.4,0,3.769-2.158,5.754-5.035,5.869-7.854h0v-4.107Z" transform="translate(-150.416 -237.278)" fill="#f5f5f5" opacity="0.5"/><path d="M355.889,294.586c-7.847-4.524-20.564-4.524-28.4,0s-7.84,11.875,0,16.4,20.556,4.531,28.4,0S363.729,299.117,355.889,294.586Z" transform="translate(-150.417 -235.809)" fill="#ffc107"/><path d="M355.889,294.586c-7.847-4.524-20.564-4.524-28.4,0s-7.84,11.875,0,16.4,20.556,4.531,28.4,0S363.729,299.117,355.889,294.586Z" transform="translate(-150.417 -235.809)" fill="#f5f5f5" opacity="0.6"/><path d="M353.57,299.318a22.6,22.6,0,0,0-18.492,0c-2.64,1.374-4.078,3.194-4.078,5.2s1.439,3.848,4.078,5.193a22.6,22.6,0,0,0,18.492,0c2.625-1.345,4.078-3.194,4.078-5.193S356.174,300.692,353.57,299.318Z" transform="translate(-153.055 -237.535)" fill="#ffc107"/><path d="M353.57,299.318a22.6,22.6,0,0,0-18.492,0c-2.64,1.374-4.078,3.194-4.078,5.2s1.439,3.848,4.078,5.193a22.6,22.6,0,0,0,18.492,0c2.625-1.345,4.078-3.194,4.078-5.193S356.174,300.692,353.57,299.318Z" transform="translate(-153.055 -237.535)" fill="#f5f5f5" opacity="0.6"/><path d="M355.791,295.72a30.516,30.516,0,0,0-27.526,0c-3.517,2.028-5.445,4.668-5.445,7.444s1.928,5.409,5.445,7.437a30.517,30.517,0,0,0,27.526,0c3.51-2.028,5.445-4.668,5.445-7.437S359.3,297.727,355.791,295.72Zm-4.517,12.637a22.6,22.6,0,0,1-18.492,0c-2.632-1.345-4.078-3.194-4.078-5.193s1.439-3.855,4.078-5.2a22.6,22.6,0,0,1,18.492,0c2.625,1.345,4.078,3.194,4.078,5.2s-1.475,3.826-4.078,5.171Z" transform="translate(-150.758 -236.16)" fill="#ffc107"/><path d="M355.791,295.72a30.516,30.516,0,0,0-27.526,0c-3.517,2.028-5.445,4.668-5.445,7.444s1.928,5.409,5.445,7.437a30.517,30.517,0,0,0,27.526,0c3.51-2.028,5.445-4.668,5.445-7.437S359.3,297.727,355.791,295.72Zm-4.517,12.637a22.6,22.6,0,0,1-18.492,0c-2.632-1.345-4.078-3.194-4.078-5.193s1.439-3.855,4.078-5.2a22.6,22.6,0,0,1,18.492,0c2.625,1.345,4.078,3.194,4.078,5.2s-1.475,3.826-4.078,5.171Z" transform="translate(-150.758 -236.16)" fill="#f5f5f5" opacity="0.7"/><ellipse cx="12.63" cy="6.481" rx="12.63" ry="6.481" transform="translate(178.636 60.495)" fill="#ffc107"/><ellipse cx="12.63" cy="6.481" rx="12.63" ry="6.481" transform="translate(178.636 60.495)" fill="#f5f5f5" opacity="0.5"/><path d="M353.566,302.589c-4.934-2.532-12.947-2.532-17.859,0-2.043,1.043-3.237,2.359-3.6,3.726.352,1.359,1.546,2.676,3.6,3.726,4.927,2.525,12.947,2.525,17.859,0,2.043-1.05,3.237-2.366,3.6-3.726C356.8,304.948,355.608,303.632,353.566,302.589Z" transform="translate(-153.367 -238.476)" fill="#ffc107"/><path d="M353.566,302.589c-4.934-2.532-12.947-2.532-17.859,0-2.043,1.043-3.237,2.359-3.6,3.726.352,1.359,1.546,2.676,3.6,3.726,4.927,2.525,12.947,2.525,17.859,0,2.043-1.05,3.237-2.366,3.6-3.726C356.8,304.948,355.608,303.632,353.566,302.589Z" transform="translate(-153.367 -238.476)" fill="#f5f5f5" opacity="0.6"/><path d="M350.485,301.08v1.849l-.633.669-1.172,1.223v-1.928Z" transform="translate(-158.018 -238.585)" fill="#ffc107"/><path d="M347.254,303.41v1.928H343.6v-2.258S346.981,302.561,347.254,303.41Z" transform="translate(-156.592 -239.102)" fill="#ffc107"/><path d="M354.265,308.389v1.6l-2.028,1.165-1.5-.863a7.631,7.631,0,0,1-5.8.259v-1.6l.921-.913-.921.252a5.905,5.905,0,0,1-4.517-.518c-.906-.525-1.331-1.093-1.331-1.683v-1.561l.165-.676-.554-.324v-1.6l1.5.87a2.323,2.323,0,0,0-1.115,1.719h0c0,.575.446,1.136,1.331,1.647,1.971,1.136,3.92.762,5.711.187,1.661-.539,2.877-1.18,3.834-.626.6.345.41.762-.252,1.151a3.345,3.345,0,0,1-2.877.165l-1.92,1.9a6.97,6.97,0,0,0,1.057.309,7.912,7.912,0,0,0,4.747-.575l1.5.87Z" transform="translate(-155.217 -238.824)" fill="#ffc107"/><path d="M355.44,311.33v1.6l1.5.863v-1.6Z" transform="translate(-159.916 -241.463)" fill="#ffc107"/><g transform="translate(183.483 62.495)" opacity="0.5"><path d="M350.485,301.08v1.849l-.633.669-1.172,1.223v-1.928Z" transform="translate(-341.502 -301.08)" fill="#f5f5f5"/><path d="M347.254,303.41v1.928H343.6v-2.258S346.981,302.561,347.254,303.41Z" transform="translate(-340.076 -301.597)" fill="#f5f5f5"/><path d="M354.265,308.389v1.6l-2.028,1.165-1.5-.863a7.631,7.631,0,0,1-5.8.259v-1.6l.921-.913-.921.252a5.905,5.905,0,0,1-4.517-.518c-.906-.525-1.331-1.093-1.331-1.683v-1.561l.165-.676-.554-.324v-1.6l1.5.87a2.323,2.323,0,0,0-1.115,1.719h0c0,.575.446,1.136,1.331,1.647,1.971,1.136,3.92.762,5.711.187,1.661-.539,2.877-1.18,3.834-.626.6.345.41.762-.252,1.151a3.345,3.345,0,0,1-2.877.165l-1.92,1.9a6.97,6.97,0,0,0,1.057.309,7.912,7.912,0,0,0,4.747-.575l1.5.87Z" transform="translate(-338.7 -301.319)" fill="#f5f5f5"/><path d="M355.44,311.33v1.6l1.5.863v-1.6Z" transform="translate(-343.4 -303.958)" fill="#f5f5f5"/></g><path d="M353.941,307.718l-1.158-.669a1.971,1.971,0,0,0,1.158-1.777,1.086,1.086,0,0,0,0-.158c-.05-.554-.453-1.086-1.295-1.568h0a5.323,5.323,0,0,0-2.69-.719h-.935a12.393,12.393,0,0,0-1.309.273l-.611.18-.849.273-.324.115a9.544,9.544,0,0,1-1.8.511,1.812,1.812,0,0,1-.77,0,1.589,1.589,0,0,1-.36-.151c-.453-.259-.525-.662.324-1.151a2.963,2.963,0,0,1,2.6-.273l1.805-1.813a7.718,7.718,0,0,0-5.438.3l-1.5-.863-2.043,1.18,1.5.863a2.309,2.309,0,0,0-1.115,1.719h0c0,.575.439,1.136,1.331,1.647,1.971,1.136,3.927.762,5.711.187,1.661-.547,2.877-1.18,3.834-.633.6.352.41.77-.252,1.151a3.294,3.294,0,0,1-2.877.165l-1.92,1.906a6.97,6.97,0,0,0,1.057.309,7.912,7.912,0,0,0,4.747-.575l1.5.87,2.028-1.165Z" transform="translate(-155.231 -238.347)" fill="#ffc107"/><path d="M353.941,307.718l-1.158-.669a1.971,1.971,0,0,0,1.158-1.777,1.086,1.086,0,0,0,0-.158c-.05-.554-.453-1.086-1.295-1.568h0a5.323,5.323,0,0,0-2.69-.719h-.935a12.393,12.393,0,0,0-1.309.273l-.611.18-.849.273-.324.115a9.544,9.544,0,0,1-1.8.511,1.812,1.812,0,0,1-.77,0,1.589,1.589,0,0,1-.36-.151c-.453-.259-.525-.662.324-1.151a2.963,2.963,0,0,1,2.6-.273l1.805-1.813a7.718,7.718,0,0,0-5.438.3l-1.5-.863-2.043,1.18,1.5.863a2.309,2.309,0,0,0-1.115,1.719h0c0,.575.439,1.136,1.331,1.647,1.971,1.136,3.927.762,5.711.187,1.661-.547,2.877-1.18,3.834-.633.6.352.41.77-.252,1.151a3.294,3.294,0,0,1-2.877.165l-1.92,1.906a6.97,6.97,0,0,0,1.057.309,7.912,7.912,0,0,0,4.747-.575l1.5.87,2.028-1.165Z" transform="translate(-155.231 -238.347)" fill="#f5f5f5" opacity="0.7"/><path d="M122.685,227.253a13.04,13.04,0,0,0-4.8-4.438c-7.847-4.524-20.564-4.524-28.4,0a13.04,13.04,0,0,0-4.8,4.438H83.6v4.093h0c.144,2.877,2.1,5.675,5.869,7.854,7.84,4.531,20.556,4.531,28.4,0,3.769-2.158,5.754-5.035,5.869-7.854h0v-4.107Z" transform="translate(-83.6 -215.661)" fill="#ffc107"/><path d="M122.685,227.253a13.04,13.04,0,0,0-4.8-4.438c-7.847-4.524-20.564-4.524-28.4,0a13.04,13.04,0,0,0-4.8,4.438H83.6v4.093h0c.144,2.877,2.1,5.675,5.869,7.854,7.84,4.531,20.556,4.531,28.4,0,3.769-2.158,5.754-5.035,5.869-7.854h0v-4.107Z" transform="translate(-83.6 -215.661)" fill="#f5f5f5" opacity="0.5"/><path d="M117.889,217.586c-7.847-4.524-20.564-4.524-28.4,0s-7.84,11.875,0,16.4,20.556,4.531,28.4,0S125.729,222.117,117.889,217.586Z" transform="translate(-83.601 -214.193)" fill="#ffc107"/><path d="M117.889,217.586c-7.847-4.524-20.564-4.524-28.4,0s-7.84,11.875,0,16.4,20.556,4.531,28.4,0S125.729,222.117,117.889,217.586Z" transform="translate(-83.601 -214.193)" fill="#f5f5f5" opacity="0.6"/><path d="M115.57,222.316a22.6,22.6,0,0,0-18.492,0c-2.64,1.374-4.078,3.194-4.078,5.2s1.439,3.848,4.078,5.193a22.6,22.6,0,0,0,18.492,0c2.625-1.345,4.078-3.194,4.078-5.193S118.174,223.69,115.57,222.316Z" transform="translate(-86.239 -215.917)" fill="#ffc107"/><path d="M115.57,222.316a22.6,22.6,0,0,0-18.492,0c-2.64,1.374-4.078,3.194-4.078,5.2s1.439,3.848,4.078,5.193a22.6,22.6,0,0,0,18.492,0c2.625-1.345,4.078-3.194,4.078-5.193S118.174,223.69,115.57,222.316Z" transform="translate(-86.239 -215.917)" fill="#f5f5f5" opacity="0.6"/><path d="M117.791,218.72a27.994,27.994,0,0,0-13.767-3.28,27.506,27.506,0,0,0-13.759,3.28c-3.517,2.028-5.445,4.668-5.445,7.444s1.928,5.409,5.445,7.437a27.966,27.966,0,0,0,13.759,3.28,28.093,28.093,0,0,0,13.767-3.28c3.51-2.028,5.445-4.668,5.445-7.437S121.3,220.727,117.791,218.72Zm-4.517,12.637a22.6,22.6,0,0,1-18.492,0c-2.64-1.367-4.078-3.215-4.078-5.215s1.439-3.855,4.078-5.2a22.6,22.6,0,0,1,18.492,0c2.625,1.345,4.078,3.194,4.078,5.2s-1.474,3.848-4.078,5.193Z" transform="translate(-83.942 -214.543)" fill="#ffc107"/><path d="M117.791,218.72a27.994,27.994,0,0,0-13.767-3.28,27.506,27.506,0,0,0-13.759,3.28c-3.517,2.028-5.445,4.668-5.445,7.444s1.928,5.409,5.445,7.437a27.966,27.966,0,0,0,13.759,3.28,28.093,28.093,0,0,0,13.767-3.28c3.51-2.028,5.445-4.668,5.445-7.437S121.3,220.727,117.791,218.72Zm-4.517,12.637a22.6,22.6,0,0,1-18.492,0c-2.64-1.367-4.078-3.215-4.078-5.215s1.439-3.855,4.078-5.2a22.6,22.6,0,0,1,18.492,0c2.625,1.345,4.078,3.194,4.078,5.2s-1.474,3.848-4.078,5.193Z" transform="translate(-83.942 -214.543)" fill="#f5f5f5" opacity="0.7"/><ellipse cx="12.63" cy="6.481" rx="12.63" ry="6.481" transform="translate(7.452 5.112)" fill="#ffc107"/><ellipse cx="12.63" cy="6.481" rx="12.63" ry="6.481" transform="translate(7.452 5.112)" fill="#f5f5f5" opacity="0.5"/><path d="M115.566,225.589c-4.934-2.532-12.947-2.532-17.859,0-2.043,1.043-3.237,2.359-3.6,3.726.352,1.359,1.546,2.676,3.6,3.726,4.927,2.525,12.947,2.525,17.859,0,2.043-1.05,3.237-2.366,3.6-3.726C118.8,227.948,117.608,226.632,115.566,225.589Z" transform="translate(-86.551 -216.859)" fill="#ffc107"/><path d="M115.566,225.589c-4.934-2.532-12.947-2.532-17.859,0-2.043,1.043-3.237,2.359-3.6,3.726.352,1.359,1.546,2.676,3.6,3.726,4.927,2.525,12.947,2.525,17.859,0,2.043-1.05,3.237-2.366,3.6-3.726C118.8,227.948,117.608,226.632,115.566,225.589Z" transform="translate(-86.551 -216.859)" fill="#f5f5f5" opacity="0.6"/><path d="M112.485,224.08v1.848l-.633.669-1.172,1.223v-1.928Z" transform="translate(-91.202 -216.968)" fill="#ffc107"/><path d="M109.254,226.41v1.928H105.6v-2.258S108.981,225.561,109.254,226.41Z" transform="translate(-89.776 -217.486)" fill="#ffc107"/><path d="M116.265,231.389v1.6l-2.028,1.165-1.5-.863a7.631,7.631,0,0,1-5.8.259v-1.6l.921-.913-.921.252a5.9,5.9,0,0,1-4.517-.518c-.906-.525-1.331-1.093-1.331-1.683v-1.561l.165-.676-.554-.324v-1.6l1.5.87a2.323,2.323,0,0,0-1.115,1.719h0c0,.575.446,1.136,1.331,1.647,1.971,1.136,3.92.762,5.711.187,1.661-.539,2.877-1.18,3.834-.626.6.345.417.762-.252,1.151a3.345,3.345,0,0,1-2.877.165l-1.92,1.9a6.97,6.97,0,0,0,1.057.309,7.912,7.912,0,0,0,4.747-.575l1.5.87Z" transform="translate(-88.401 -217.207)" fill="#ffc107"/><path d="M117.44,234.34v1.6l1.5.863v-1.6Z" transform="translate(-93.1 -219.849)" fill="#ffc107"/><g transform="translate(12.299 7.112)" opacity="0.5"><path d="M112.485,224.08v1.848l-.633.669-1.172,1.223v-1.928Z" transform="translate(-103.502 -224.08)" fill="#f5f5f5"/><path d="M109.254,226.41v1.928H105.6v-2.258S108.981,225.561,109.254,226.41Z" transform="translate(-102.076 -224.597)" fill="#f5f5f5"/><path d="M116.265,231.389v1.6l-2.028,1.165-1.5-.863a7.631,7.631,0,0,1-5.8.259v-1.6l.921-.913-.921.252a5.9,5.9,0,0,1-4.517-.518c-.906-.525-1.331-1.093-1.331-1.683v-1.561l.165-.676-.554-.324v-1.6l1.5.87a2.323,2.323,0,0,0-1.115,1.719h0c0,.575.446,1.136,1.331,1.647,1.971,1.136,3.92.762,5.711.187,1.661-.539,2.877-1.18,3.834-.626.6.345.417.762-.252,1.151a3.345,3.345,0,0,1-2.877.165l-1.92,1.9a6.97,6.97,0,0,0,1.057.309,7.912,7.912,0,0,0,4.747-.575l1.5.87Z" transform="translate(-100.7 -224.319)" fill="#f5f5f5"/><path d="M117.44,234.34v1.6l1.5.863v-1.6Z" transform="translate(-105.4 -226.96)" fill="#f5f5f5"/></g><path d="M115.941,230.718l-1.158-.669a1.971,1.971,0,0,0,1.158-1.777,1.079,1.079,0,0,0,0-.158c-.05-.554-.453-1.086-1.295-1.568h0a5.323,5.323,0,0,0-2.69-.719h-.935a12.392,12.392,0,0,0-1.309.273l-.611.18-.849.273-.324.115a9.543,9.543,0,0,1-1.8.511,1.813,1.813,0,0,1-.77,0,1.59,1.59,0,0,1-.36-.151c-.453-.259-.525-.662.324-1.151a2.963,2.963,0,0,1,2.6-.273l1.805-1.813a7.718,7.718,0,0,0-5.438.3l-1.5-.863-2.043,1.18,1.5.863a2.309,2.309,0,0,0-1.115,1.719h0c0,.575.439,1.136,1.331,1.647,1.971,1.136,3.927.762,5.711.187,1.661-.547,2.877-1.18,3.834-.633.6.352.41.77-.252,1.151a3.294,3.294,0,0,1-2.877.165l-1.92,1.906a6.97,6.97,0,0,0,1.057.309,7.948,7.948,0,0,0,4.747-.568l1.5.863,2.028-1.165Z" transform="translate(-88.415 -216.73)" fill="#ffc107"/><path d="M115.941,230.718l-1.158-.669a1.971,1.971,0,0,0,1.158-1.777,1.079,1.079,0,0,0,0-.158c-.05-.554-.453-1.086-1.295-1.568h0a5.323,5.323,0,0,0-2.69-.719h-.935a12.392,12.392,0,0,0-1.309.273l-.611.18-.849.273-.324.115a9.543,9.543,0,0,1-1.8.511,1.813,1.813,0,0,1-.77,0,1.59,1.59,0,0,1-.36-.151c-.453-.259-.525-.662.324-1.151a2.963,2.963,0,0,1,2.6-.273l1.805-1.813a7.718,7.718,0,0,0-5.438.3l-1.5-.863-2.043,1.18,1.5.863a2.309,2.309,0,0,0-1.115,1.719h0c0,.575.439,1.136,1.331,1.647,1.971,1.136,3.927.762,5.711.187,1.661-.547,2.877-1.18,3.834-.633.6.352.41.77-.252,1.151a3.294,3.294,0,0,1-2.877.165l-1.92,1.906a6.97,6.97,0,0,0,1.057.309,7.948,7.948,0,0,0,4.747-.568l1.5.863,2.028-1.165Z" transform="translate(-88.415 -216.73)" fill="#f5f5f5" opacity="0.7"/><path d="M405.685,255.253a13.04,13.04,0,0,0-4.8-4.438c-7.847-4.524-20.564-4.524-28.4,0a13.04,13.04,0,0,0-4.8,4.438H366.6v4.093h0c.144,2.877,2.1,5.675,5.869,7.854,7.84,4.531,20.556,4.531,28.4,0,3.769-2.158,5.754-5.035,5.869-7.854h0v-4.107Z" transform="translate(-163.049 -223.521)" fill="#ffc107"/><path d="M405.685,255.253a13.04,13.04,0,0,0-4.8-4.438c-7.847-4.524-20.564-4.524-28.4,0a13.04,13.04,0,0,0-4.8,4.438H366.6v4.093h0c.144,2.877,2.1,5.675,5.869,7.854,7.84,4.531,20.556,4.531,28.4,0,3.769-2.158,5.754-5.035,5.869-7.854h0v-4.107Z" transform="translate(-163.049 -223.521)" fill="#f5f5f5" opacity="0.5"/><path d="M400.889,245.586c-7.847-4.524-20.564-4.524-28.4,0s-7.84,11.875,0,16.4,20.556,4.531,28.4,0S408.729,250.117,400.889,245.586Z" transform="translate(-163.051 -222.053)" fill="#ffc107"/><path d="M400.889,245.586c-7.847-4.524-20.564-4.524-28.4,0s-7.84,11.875,0,16.4,20.556,4.531,28.4,0S408.729,250.117,400.889,245.586Z" transform="translate(-163.051 -222.053)" fill="#f5f5f5" opacity="0.6"/><path d="M398.57,250.318a22.6,22.6,0,0,0-18.492,0c-2.64,1.374-4.078,3.194-4.078,5.2s1.439,3.848,4.078,5.193a22.6,22.6,0,0,0,18.492,0c2.625-1.345,4.078-3.194,4.078-5.193S401.174,251.692,398.57,250.318Z" transform="translate(-165.688 -223.779)" fill="#ffc107"/><path d="M398.57,250.318a22.6,22.6,0,0,0-18.492,0c-2.64,1.374-4.078,3.194-4.078,5.2s1.439,3.848,4.078,5.193a22.6,22.6,0,0,0,18.492,0c2.625-1.345,4.078-3.194,4.078-5.193S401.174,251.692,398.57,250.318Z" transform="translate(-165.688 -223.779)" fill="#f5f5f5" opacity="0.6"/><path d="M400.791,246.72a30.517,30.517,0,0,0-27.526,0c-3.517,2.028-5.445,4.668-5.445,7.444s1.928,5.409,5.445,7.437a30.517,30.517,0,0,0,27.526,0c3.51-2.028,5.445-4.668,5.445-7.437S404.3,248.727,400.791,246.72Zm-4.517,12.637a22.6,22.6,0,0,1-18.492,0c-2.633-1.345-4.078-3.194-4.078-5.193s1.439-3.855,4.078-5.2a22.6,22.6,0,0,1,18.492,0c2.625,1.345,4.078,3.194,4.078,5.2s-1.474,3.826-4.078,5.171Z" transform="translate(-163.392 -222.403)" fill="#ffc107"/><path d="M400.791,246.72a30.517,30.517,0,0,0-27.526,0c-3.517,2.028-5.445,4.668-5.445,7.444s1.928,5.409,5.445,7.437a30.517,30.517,0,0,0,27.526,0c3.51-2.028,5.445-4.668,5.445-7.437S404.3,248.727,400.791,246.72Zm-4.517,12.637a22.6,22.6,0,0,1-18.492,0c-2.633-1.345-4.078-3.194-4.078-5.193s1.439-3.855,4.078-5.2a22.6,22.6,0,0,1,18.492,0c2.625,1.345,4.078,3.194,4.078,5.2s-1.474,3.826-4.078,5.171Z" transform="translate(-163.392 -222.403)" fill="#f5f5f5" opacity="0.7"/><ellipse cx="12.63" cy="6.481" rx="12.63" ry="6.481" transform="translate(211.002 25.251)" fill="#ffc107"/><ellipse cx="12.63" cy="6.481" rx="12.63" ry="6.481" transform="translate(211.002 25.251)" fill="#f5f5f5" opacity="0.5"/><path d="M398.566,253.589c-4.934-2.532-12.947-2.532-17.859,0-2.043,1.043-3.237,2.359-3.6,3.726.352,1.359,1.546,2.676,3.6,3.726,4.927,2.525,12.947,2.525,17.859,0,2.043-1.05,3.237-2.366,3.6-3.726C401.8,255.948,400.608,254.632,398.566,253.589Z" transform="translate(-166 -224.72)" fill="#ffc107"/><path d="M398.566,253.589c-4.934-2.532-12.947-2.532-17.859,0-2.043,1.043-3.237,2.359-3.6,3.726.352,1.359,1.546,2.676,3.6,3.726,4.927,2.525,12.947,2.525,17.859,0,2.043-1.05,3.237-2.366,3.6-3.726C401.8,255.948,400.608,254.632,398.566,253.589Z" transform="translate(-166 -224.72)" fill="#f5f5f5" opacity="0.6"/><path d="M395.485,252.08v1.848l-.633.669-1.172,1.223v-1.928Z" transform="translate(-170.652 -224.829)" fill="#ffc107"/><path d="M392.254,254.41v1.928H388.6v-2.258S391.98,253.561,392.254,254.41Z" transform="translate(-169.225 -225.346)" fill="#ffc107"/><path d="M399.265,259.389v1.6l-2.028,1.165-1.5-.863a7.632,7.632,0,0,1-5.8.259v-1.6l.921-.913-.921.252a5.905,5.905,0,0,1-4.517-.518c-.906-.525-1.331-1.093-1.331-1.683v-1.561l.165-.676-.554-.324v-1.6l1.5.87a2.323,2.323,0,0,0-1.115,1.719h0c0,.575.446,1.136,1.331,1.647,1.971,1.136,3.92.762,5.711.187,1.661-.539,2.877-1.18,3.834-.626.6.345.41.762-.252,1.151a3.345,3.345,0,0,1-2.877.165l-1.92,1.9a6.974,6.974,0,0,0,1.057.309,7.912,7.912,0,0,0,4.747-.575l1.5.87Z" transform="translate(-167.85 -225.068)" fill="#ffc107"/><path d="M400.44,262.33v1.6l1.5.863v-1.6Z" transform="translate(-172.549 -227.707)" fill="#ffc107"/><g transform="translate(215.85 27.251)" opacity="0.5"><path d="M395.485,252.08v1.848l-.633.669-1.172,1.223v-1.928Z" transform="translate(-386.502 -252.08)" fill="#f5f5f5"/><path d="M392.254,254.41v1.928H388.6v-2.258S391.98,253.561,392.254,254.41Z" transform="translate(-385.076 -252.597)" fill="#f5f5f5"/><path d="M399.265,259.389v1.6l-2.028,1.165-1.5-.863a7.632,7.632,0,0,1-5.8.259v-1.6l.921-.913-.921.252a5.905,5.905,0,0,1-4.517-.518c-.906-.525-1.331-1.093-1.331-1.683v-1.561l.165-.676-.554-.324v-1.6l1.5.87a2.323,2.323,0,0,0-1.115,1.719h0c0,.575.446,1.136,1.331,1.647,1.971,1.136,3.92.762,5.711.187,1.661-.539,2.877-1.18,3.834-.626.6.345.41.762-.252,1.151a3.345,3.345,0,0,1-2.877.165l-1.92,1.9a6.974,6.974,0,0,0,1.057.309,7.912,7.912,0,0,0,4.747-.575l1.5.87Z" transform="translate(-383.7 -252.319)" fill="#f5f5f5"/><path d="M400.44,262.33v1.6l1.5.863v-1.6Z" transform="translate(-388.4 -254.958)" fill="#f5f5f5"/></g><path d="M398.941,258.718l-1.158-.669a1.971,1.971,0,0,0,1.158-1.777,1.078,1.078,0,0,0,0-.158c-.05-.554-.453-1.086-1.295-1.568h0a5.323,5.323,0,0,0-2.69-.719h-.935a12.393,12.393,0,0,0-1.309.273l-.611.18-.849.273-.324.115a9.544,9.544,0,0,1-1.8.511,1.813,1.813,0,0,1-.77,0,1.589,1.589,0,0,1-.36-.151c-.453-.259-.525-.662.324-1.151a2.963,2.963,0,0,1,2.6-.273l1.805-1.813a7.718,7.718,0,0,0-5.438.3l-1.5-.863-2.043,1.18,1.5.863a2.309,2.309,0,0,0-1.115,1.719h0c0,.575.439,1.136,1.331,1.647,1.971,1.136,3.927.762,5.711.187,1.661-.547,2.877-1.18,3.834-.633.6.352.41.77-.252,1.151a3.294,3.294,0,0,1-2.877.165l-1.92,1.906a6.974,6.974,0,0,0,1.057.309,7.912,7.912,0,0,0,4.747-.575l1.5.87,2.028-1.165Z" transform="translate(-167.864 -224.59)" fill="#ffc107"/><path d="M398.941,258.718l-1.158-.669a1.971,1.971,0,0,0,1.158-1.777,1.078,1.078,0,0,0,0-.158c-.05-.554-.453-1.086-1.295-1.568h0a5.323,5.323,0,0,0-2.69-.719h-.935a12.393,12.393,0,0,0-1.309.273l-.611.18-.849.273-.324.115a9.544,9.544,0,0,1-1.8.511,1.813,1.813,0,0,1-.77,0,1.589,1.589,0,0,1-.36-.151c-.453-.259-.525-.662.324-1.151a2.963,2.963,0,0,1,2.6-.273l1.805-1.813a7.718,7.718,0,0,0-5.438.3l-1.5-.863-2.043,1.18,1.5.863a2.309,2.309,0,0,0-1.115,1.719h0c0,.575.439,1.136,1.331,1.647,1.971,1.136,3.927.762,5.711.187,1.661-.547,2.877-1.18,3.834-.633.6.352.41.77-.252,1.151a3.294,3.294,0,0,1-2.877.165l-1.92,1.906a6.974,6.974,0,0,0,1.057.309,7.912,7.912,0,0,0,4.747-.575l1.5.87,2.028-1.165Z" transform="translate(-167.864 -224.59)" fill="#f5f5f5" opacity="0.7"/><path d="M407.685,247.253a13.04,13.04,0,0,0-4.8-4.438c-7.847-4.524-20.564-4.524-28.4,0a13.04,13.04,0,0,0-4.8,4.438H368.6v4.093h0c.144,2.877,2.1,5.675,5.869,7.854,7.84,4.531,20.556,4.531,28.4,0,3.769-2.158,5.754-5.035,5.869-7.854h0v-4.107Z" transform="translate(-163.611 -221.276)" fill="#ffc107"/><path d="M407.685,247.253a13.04,13.04,0,0,0-4.8-4.438c-7.847-4.524-20.564-4.524-28.4,0a13.04,13.04,0,0,0-4.8,4.438H368.6v4.093h0c.144,2.877,2.1,5.675,5.869,7.854,7.84,4.531,20.556,4.531,28.4,0,3.769-2.158,5.754-5.035,5.869-7.854h0v-4.107Z" transform="translate(-163.611 -221.276)" fill="#f5f5f5" opacity="0.5"/><path d="M402.889,237.586c-7.847-4.524-20.564-4.524-28.4,0s-7.84,11.875,0,16.4,20.556,4.531,28.4,0S410.729,242.117,402.889,237.586Z" transform="translate(-163.612 -219.807)" fill="#ffc107"/><path d="M402.889,237.586c-7.847-4.524-20.564-4.524-28.4,0s-7.84,11.875,0,16.4,20.556,4.531,28.4,0S410.729,242.117,402.889,237.586Z" transform="translate(-163.612 -219.807)" fill="#f5f5f5" opacity="0.6"/><path d="M400.57,242.318a22.6,22.6,0,0,0-18.492,0c-2.64,1.374-4.078,3.194-4.078,5.2s1.439,3.848,4.078,5.193a22.6,22.6,0,0,0,18.492,0c2.625-1.345,4.078-3.194,4.078-5.193S403.174,243.692,400.57,242.318Z" transform="translate(-166.25 -221.533)" fill="#ffc107"/><path d="M400.57,242.318a22.6,22.6,0,0,0-18.492,0c-2.64,1.374-4.078,3.194-4.078,5.2s1.439,3.848,4.078,5.193a22.6,22.6,0,0,0,18.492,0c2.625-1.345,4.078-3.194,4.078-5.193S403.174,243.692,400.57,242.318Z" transform="translate(-166.25 -221.533)" fill="#f5f5f5" opacity="0.6"/><path d="M402.791,238.72a30.517,30.517,0,0,0-27.526,0c-3.517,2.028-5.445,4.668-5.445,7.444s1.928,5.409,5.445,7.437a30.517,30.517,0,0,0,27.526,0c3.51-2.028,5.445-4.668,5.445-7.437S406.3,240.727,402.791,238.72Zm-4.517,12.637a22.6,22.6,0,0,1-18.492,0c-2.633-1.345-4.078-3.194-4.078-5.193s1.439-3.855,4.078-5.2a22.6,22.6,0,0,1,18.492,0c2.625,1.345,4.078,3.194,4.078,5.2s-1.474,3.826-4.078,5.171Z" transform="translate(-163.953 -220.158)" fill="#ffc107"/><path d="M402.791,238.72a30.517,30.517,0,0,0-27.526,0c-3.517,2.028-5.445,4.668-5.445,7.444s1.928,5.409,5.445,7.437a30.517,30.517,0,0,0,27.526,0c3.51-2.028,5.445-4.668,5.445-7.437S406.3,240.727,402.791,238.72Zm-4.517,12.637a22.6,22.6,0,0,1-18.492,0c-2.633-1.345-4.078-3.194-4.078-5.193s1.439-3.855,4.078-5.2a22.6,22.6,0,0,1,18.492,0c2.625,1.345,4.078,3.194,4.078,5.2s-1.474,3.826-4.078,5.171Z" transform="translate(-163.953 -220.158)" fill="#f5f5f5" opacity="0.7"/><ellipse cx="12.63" cy="6.481" rx="12.63" ry="6.481" transform="translate(212.441 19.497)" fill="#ffc107"/><ellipse cx="12.63" cy="6.481" rx="12.63" ry="6.481" transform="translate(212.441 19.497)" fill="#f5f5f5" opacity="0.5"/><path d="M400.566,245.589c-4.934-2.532-12.947-2.532-17.859,0-2.043,1.043-3.237,2.359-3.6,3.726.352,1.359,1.546,2.676,3.6,3.726,4.927,2.525,12.947,2.525,17.859,0,2.043-1.05,3.237-2.366,3.6-3.726C403.8,247.948,402.608,246.632,400.566,245.589Z" transform="translate(-166.561 -222.474)" fill="#ffc107"/><path d="M400.566,245.589c-4.934-2.532-12.947-2.532-17.859,0-2.043,1.043-3.237,2.359-3.6,3.726.352,1.359,1.546,2.676,3.6,3.726,4.927,2.525,12.947,2.525,17.859,0,2.043-1.05,3.237-2.366,3.6-3.726C403.8,247.948,402.608,246.632,400.566,245.589Z" transform="translate(-166.561 -222.474)" fill="#f5f5f5" opacity="0.6"/><path d="M397.485,244.08v1.849l-.633.669-1.172,1.223v-1.928Z" transform="translate(-171.213 -222.583)" fill="#ffc107"/><path d="M394.254,246.41v1.928H390.6v-2.258S393.981,245.561,394.254,246.41Z" transform="translate(-169.787 -223.1)" fill="#ffc107"/><path d="M401.265,251.389v1.6l-2.028,1.165-1.5-.863a7.632,7.632,0,0,1-5.8.259v-1.6l.921-.913-.921.252a5.905,5.905,0,0,1-4.517-.518c-.906-.525-1.331-1.093-1.331-1.683v-1.561l.165-.676-.554-.324v-1.6l1.5.87a2.323,2.323,0,0,0-1.115,1.719h0c0,.575.446,1.136,1.331,1.647,1.971,1.136,3.92.762,5.711.187,1.661-.539,2.877-1.18,3.834-.626.6.345.41.762-.252,1.151a3.345,3.345,0,0,1-2.877.165l-1.92,1.9a6.975,6.975,0,0,0,1.057.309,7.912,7.912,0,0,0,4.747-.575l1.5.87Z" transform="translate(-168.411 -222.822)" fill="#ffc107"/><path d="M402.44,254.34v1.6l1.5.863v-1.6Z" transform="translate(-173.111 -225.463)" fill="#ffc107"/><g transform="translate(217.289 21.497)" opacity="0.5"><path d="M397.485,244.08v1.849l-.633.669-1.172,1.223v-1.928Z" transform="translate(-388.502 -244.08)" fill="#f5f5f5"/><path d="M394.254,246.41v1.928H390.6v-2.258S393.981,245.561,394.254,246.41Z" transform="translate(-387.076 -244.597)" fill="#f5f5f5"/><path d="M401.265,251.389v1.6l-2.028,1.165-1.5-.863a7.632,7.632,0,0,1-5.8.259v-1.6l.921-.913-.921.252a5.905,5.905,0,0,1-4.517-.518c-.906-.525-1.331-1.093-1.331-1.683v-1.561l.165-.676-.554-.324v-1.6l1.5.87a2.323,2.323,0,0,0-1.115,1.719h0c0,.575.446,1.136,1.331,1.647,1.971,1.136,3.92.762,5.711.187,1.661-.539,2.877-1.18,3.834-.626.6.345.41.762-.252,1.151a3.345,3.345,0,0,1-2.877.165l-1.92,1.9a6.975,6.975,0,0,0,1.057.309,7.912,7.912,0,0,0,4.747-.575l1.5.87Z" transform="translate(-385.7 -244.319)" fill="#f5f5f5"/><path d="M402.44,254.34v1.6l1.5.863v-1.6Z" transform="translate(-390.4 -246.96)" fill="#f5f5f5"/></g><path d="M400.941,250.718l-1.158-.669a1.971,1.971,0,0,0,1.158-1.777,1.086,1.086,0,0,0,0-.158c-.05-.554-.453-1.086-1.295-1.568h0a5.322,5.322,0,0,0-2.69-.719h-.935a12.389,12.389,0,0,0-1.309.273l-.611.18-.849.273-.324.115a9.541,9.541,0,0,1-1.8.511,1.812,1.812,0,0,1-.77,0,1.59,1.59,0,0,1-.36-.151c-.453-.259-.525-.662.324-1.151a2.963,2.963,0,0,1,2.6-.273l1.805-1.813a7.718,7.718,0,0,0-5.438.3l-1.5-.863-2.043,1.18,1.5.863a2.309,2.309,0,0,0-1.115,1.719h0c0,.575.439,1.136,1.331,1.647,1.971,1.136,3.927.762,5.711.187,1.661-.547,2.877-1.18,3.834-.633.6.352.41.77-.252,1.151a3.294,3.294,0,0,1-2.877.165l-1.92,1.906a6.971,6.971,0,0,0,1.057.309,7.912,7.912,0,0,0,4.747-.575l1.5.87,2.028-1.165Z" transform="translate(-168.425 -222.344)" fill="#ffc107"/><path d="M400.941,250.718l-1.158-.669a1.971,1.971,0,0,0,1.158-1.777,1.086,1.086,0,0,0,0-.158c-.05-.554-.453-1.086-1.295-1.568h0a5.322,5.322,0,0,0-2.69-.719h-.935a12.389,12.389,0,0,0-1.309.273l-.611.18-.849.273-.324.115a9.541,9.541,0,0,1-1.8.511,1.812,1.812,0,0,1-.77,0,1.59,1.59,0,0,1-.36-.151c-.453-.259-.525-.662.324-1.151a2.963,2.963,0,0,1,2.6-.273l1.805-1.813a7.718,7.718,0,0,0-5.438.3l-1.5-.863-2.043,1.18,1.5.863a2.309,2.309,0,0,0-1.115,1.719h0c0,.575.439,1.136,1.331,1.647,1.971,1.136,3.927.762,5.711.187,1.661-.547,2.877-1.18,3.834-.633.6.352.41.77-.252,1.151a3.294,3.294,0,0,1-2.877.165l-1.92,1.906a6.971,6.971,0,0,0,1.057.309,7.912,7.912,0,0,0,4.747-.575l1.5.87,2.028-1.165Z" transform="translate(-168.425 -222.344)" fill="#f5f5f5" opacity="0.7"/><path d="M404.685,240.253a13.04,13.04,0,0,0-4.8-4.438c-7.847-4.524-20.564-4.524-28.4,0a13.04,13.04,0,0,0-4.8,4.438H365.6v4.093h0c.144,2.877,2.1,5.675,5.869,7.854,7.84,4.531,20.556,4.531,28.4,0,3.769-2.158,5.754-5.035,5.869-7.854h0v-4.107Z" transform="translate(-162.768 -219.31)" fill="#ffc107"/><path d="M404.685,240.253a13.04,13.04,0,0,0-4.8-4.438c-7.847-4.524-20.564-4.524-28.4,0a13.04,13.04,0,0,0-4.8,4.438H365.6v4.093h0c.144,2.877,2.1,5.675,5.869,7.854,7.84,4.531,20.556,4.531,28.4,0,3.769-2.158,5.754-5.035,5.869-7.854h0v-4.107Z" transform="translate(-162.768 -219.31)" fill="#f5f5f5" opacity="0.5"/><path d="M399.889,230.586c-7.847-4.524-20.564-4.524-28.4,0s-7.84,11.875,0,16.4,20.556,4.531,28.4,0S407.729,235.117,399.889,230.586Z" transform="translate(-162.77 -217.842)" fill="#ffc107"/><path d="M399.889,230.586c-7.847-4.524-20.564-4.524-28.4,0s-7.84,11.875,0,16.4,20.556,4.531,28.4,0S407.729,235.117,399.889,230.586Z" transform="translate(-162.77 -217.842)" fill="#f5f5f5" opacity="0.6"/><path d="M397.57,235.318a22.6,22.6,0,0,0-18.492,0c-2.64,1.374-4.078,3.194-4.078,5.2s1.439,3.848,4.078,5.193a22.6,22.6,0,0,0,18.492,0c2.625-1.345,4.078-3.194,4.078-5.193S400.174,236.692,397.57,235.318Z" transform="translate(-165.407 -219.568)" fill="#ffc107"/><path d="M397.57,235.318a22.6,22.6,0,0,0-18.492,0c-2.64,1.374-4.078,3.194-4.078,5.2s1.439,3.848,4.078,5.193a22.6,22.6,0,0,0,18.492,0c2.625-1.345,4.078-3.194,4.078-5.193S400.174,236.692,397.57,235.318Z" transform="translate(-165.407 -219.568)" fill="#f5f5f5" opacity="0.6"/><path d="M399.791,231.72a30.517,30.517,0,0,0-27.526,0c-3.517,2.028-5.445,4.668-5.445,7.444s1.928,5.409,5.445,7.437a30.517,30.517,0,0,0,27.526,0c3.51-2.028,5.445-4.668,5.445-7.437S403.3,233.727,399.791,231.72Zm-4.517,12.637a22.6,22.6,0,0,1-18.492,0c-2.633-1.345-4.078-3.194-4.078-5.193s1.439-3.855,4.078-5.2a22.6,22.6,0,0,1,18.492,0c2.625,1.345,4.078,3.194,4.078,5.2s-1.474,3.826-4.078,5.171Z" transform="translate(-163.111 -218.192)" fill="#ffc107"/><path d="M399.791,231.72a30.517,30.517,0,0,0-27.526,0c-3.517,2.028-5.445,4.668-5.445,7.444s1.928,5.409,5.445,7.437a30.517,30.517,0,0,0,27.526,0c3.51-2.028,5.445-4.668,5.445-7.437S403.3,233.727,399.791,231.72Zm-4.517,12.637a22.6,22.6,0,0,1-18.492,0c-2.633-1.345-4.078-3.194-4.078-5.193s1.439-3.855,4.078-5.2a22.6,22.6,0,0,1,18.492,0c2.625,1.345,4.078,3.194,4.078,5.2s-1.474,3.826-4.078,5.171Z" transform="translate(-163.111 -218.192)" fill="#f5f5f5" opacity="0.7"/><ellipse cx="12.63" cy="6.481" rx="12.63" ry="6.481" transform="translate(210.283 14.463)" fill="#ffc107"/><ellipse cx="12.63" cy="6.481" rx="12.63" ry="6.481" transform="translate(210.283 14.463)" fill="#f5f5f5" opacity="0.5"/><path d="M397.566,238.589c-4.934-2.532-12.947-2.532-17.859,0-2.043,1.043-3.237,2.359-3.6,3.726.352,1.359,1.546,2.676,3.6,3.726,4.927,2.525,12.947,2.525,17.859,0,2.043-1.05,3.237-2.366,3.6-3.726C400.8,240.948,399.608,239.632,397.566,238.589Z" transform="translate(-165.719 -220.508)" fill="#ffc107"/><path d="M397.566,238.589c-4.934-2.532-12.947-2.532-17.859,0-2.043,1.043-3.237,2.359-3.6,3.726.352,1.359,1.546,2.676,3.6,3.726,4.927,2.525,12.947,2.525,17.859,0,2.043-1.05,3.237-2.366,3.6-3.726C400.8,240.948,399.608,239.632,397.566,238.589Z" transform="translate(-165.719 -220.508)" fill="#f5f5f5" opacity="0.6"/><path d="M394.485,237.08v1.848l-.633.669-1.172,1.223v-1.928Z" transform="translate(-170.371 -220.618)" fill="#ffc107"/><path d="M391.254,239.41v1.928H387.6v-2.258S390.981,238.561,391.254,239.41Z" transform="translate(-168.945 -221.135)" fill="#ffc107"/><path d="M398.265,244.389v1.6l-2.028,1.165-1.5-.863a7.631,7.631,0,0,1-5.8.259v-1.6l.921-.913-.921.252a5.905,5.905,0,0,1-4.517-.518c-.906-.525-1.331-1.093-1.331-1.683v-1.561l.165-.676-.554-.324v-1.6l1.5.87a2.323,2.323,0,0,0-1.115,1.719h0c0,.575.446,1.136,1.331,1.647,1.971,1.136,3.92.762,5.711.187,1.661-.539,2.877-1.18,3.834-.626.6.345.41.762-.252,1.151a3.345,3.345,0,0,1-2.877.165l-1.92,1.9a6.971,6.971,0,0,0,1.057.309,7.912,7.912,0,0,0,4.747-.575l1.5.87Z" transform="translate(-167.569 -220.857)" fill="#ffc107"/><path d="M399.44,247.34v1.6l1.5.863v-1.6Z" transform="translate(-172.269 -223.498)" fill="#ffc107"/><g transform="translate(215.131 16.462)" opacity="0.5"><path d="M394.485,237.08v1.848l-.633.669-1.172,1.223v-1.928Z" transform="translate(-385.502 -237.08)" fill="#f5f5f5"/><path d="M391.254,239.41v1.928H387.6v-2.258S390.981,238.561,391.254,239.41Z" transform="translate(-384.076 -237.597)" fill="#f5f5f5"/><path d="M398.265,244.389v1.6l-2.028,1.165-1.5-.863a7.631,7.631,0,0,1-5.8.259v-1.6l.921-.913-.921.252a5.905,5.905,0,0,1-4.517-.518c-.906-.525-1.331-1.093-1.331-1.683v-1.561l.165-.676-.554-.324v-1.6l1.5.87a2.323,2.323,0,0,0-1.115,1.719h0c0,.575.446,1.136,1.331,1.647,1.971,1.136,3.92.762,5.711.187,1.661-.539,2.877-1.18,3.834-.626.6.345.41.762-.252,1.151a3.345,3.345,0,0,1-2.877.165l-1.92,1.9a6.971,6.971,0,0,0,1.057.309,7.912,7.912,0,0,0,4.747-.575l1.5.87Z" transform="translate(-382.7 -237.319)" fill="#f5f5f5"/><path d="M399.44,247.34v1.6l1.5.863v-1.6Z" transform="translate(-387.4 -239.96)" fill="#f5f5f5"/></g><path d="M397.941,243.717l-1.158-.669a1.971,1.971,0,0,0,1.158-1.777,1.078,1.078,0,0,0,0-.158c-.05-.554-.453-1.086-1.295-1.568h0a5.322,5.322,0,0,0-2.69-.719h-.935a12.383,12.383,0,0,0-1.309.273l-.611.18-.849.273-.324.115a9.546,9.546,0,0,1-1.8.511,1.812,1.812,0,0,1-.77,0,1.589,1.589,0,0,1-.36-.151c-.453-.259-.525-.662.324-1.151a2.963,2.963,0,0,1,2.6-.273l1.805-1.813a7.718,7.718,0,0,0-5.438.3l-1.5-.863-2.043,1.18,1.5.863a2.309,2.309,0,0,0-1.115,1.719h0c0,.575.439,1.136,1.331,1.647,1.971,1.136,3.927.762,5.711.187,1.661-.547,2.877-1.18,3.834-.633.6.352.41.77-.252,1.151a3.294,3.294,0,0,1-2.877.165l-1.92,1.906a6.974,6.974,0,0,0,1.057.309,7.948,7.948,0,0,0,4.747-.568l1.5.863,2.028-1.165Z" transform="translate(-167.583 -220.379)" fill="#ffc107"/><path d="M397.941,243.717l-1.158-.669a1.971,1.971,0,0,0,1.158-1.777,1.078,1.078,0,0,0,0-.158c-.05-.554-.453-1.086-1.295-1.568h0a5.322,5.322,0,0,0-2.69-.719h-.935a12.383,12.383,0,0,0-1.309.273l-.611.18-.849.273-.324.115a9.546,9.546,0,0,1-1.8.511,1.812,1.812,0,0,1-.77,0,1.589,1.589,0,0,1-.36-.151c-.453-.259-.525-.662.324-1.151a2.963,2.963,0,0,1,2.6-.273l1.805-1.813a7.718,7.718,0,0,0-5.438.3l-1.5-.863-2.043,1.18,1.5.863a2.309,2.309,0,0,0-1.115,1.719h0c0,.575.439,1.136,1.331,1.647,1.971,1.136,3.927.762,5.711.187,1.661-.547,2.877-1.18,3.834-.633.6.352.41.77-.252,1.151a3.294,3.294,0,0,1-2.877.165l-1.92,1.906a6.974,6.974,0,0,0,1.057.309,7.948,7.948,0,0,0,4.747-.568l1.5.863,2.028-1.165Z" transform="translate(-167.583 -220.379)" fill="#f5f5f5" opacity="0.7"/><path d="M407.685,231.253a13.04,13.04,0,0,0-4.8-4.438c-7.847-4.524-20.564-4.524-28.4,0a13.04,13.04,0,0,0-4.8,4.438H368.6v4.093h0c.144,2.877,2.1,5.675,5.869,7.854,7.84,4.531,20.556,4.531,28.4,0,3.769-2.158,5.754-5.035,5.869-7.854h0v-4.107Z" transform="translate(-163.611 -216.784)" fill="#ffc107"/><path d="M407.685,231.253a13.04,13.04,0,0,0-4.8-4.438c-7.847-4.524-20.564-4.524-28.4,0a13.04,13.04,0,0,0-4.8,4.438H368.6v4.093h0c.144,2.877,2.1,5.675,5.869,7.854,7.84,4.531,20.556,4.531,28.4,0,3.769-2.158,5.754-5.035,5.869-7.854h0v-4.107Z" transform="translate(-163.611 -216.784)" fill="#f5f5f5" opacity="0.5"/><path d="M402.889,221.586c-7.847-4.524-20.564-4.524-28.4,0s-7.84,11.875,0,16.4,20.556,4.531,28.4,0S410.729,226.117,402.889,221.586Z" transform="translate(-163.612 -215.315)" fill="#ffc107"/><path d="M402.889,221.586c-7.847-4.524-20.564-4.524-28.4,0s-7.84,11.875,0,16.4,20.556,4.531,28.4,0S410.729,226.117,402.889,221.586Z" transform="translate(-163.612 -215.315)" fill="#f5f5f5" opacity="0.6"/><path d="M400.57,226.318a22.6,22.6,0,0,0-18.492,0c-2.64,1.374-4.078,3.194-4.078,5.2s1.439,3.848,4.078,5.193a22.6,22.6,0,0,0,18.492,0c2.625-1.345,4.078-3.194,4.078-5.193S403.174,227.692,400.57,226.318Z" transform="translate(-166.25 -217.041)" fill="#ffc107"/><path d="M400.57,226.318a22.6,22.6,0,0,0-18.492,0c-2.64,1.374-4.078,3.194-4.078,5.2s1.439,3.848,4.078,5.193a22.6,22.6,0,0,0,18.492,0c2.625-1.345,4.078-3.194,4.078-5.193S403.174,227.692,400.57,226.318Z" transform="translate(-166.25 -217.041)" fill="#f5f5f5" opacity="0.6"/><path d="M402.791,222.72a30.517,30.517,0,0,0-27.526,0c-3.517,2.028-5.445,4.668-5.445,7.444s1.928,5.409,5.445,7.437a30.517,30.517,0,0,0,27.526,0c3.51-2.028,5.445-4.668,5.445-7.437S406.3,224.727,402.791,222.72Zm-4.517,12.637a22.6,22.6,0,0,1-18.492,0c-2.633-1.345-4.078-3.194-4.078-5.193s1.439-3.855,4.078-5.2a22.6,22.6,0,0,1,18.492,0c2.625,1.345,4.078,3.194,4.078,5.2s-1.474,3.826-4.078,5.171Z" transform="translate(-163.953 -215.666)" fill="#ffc107"/><path d="M402.791,222.72a30.517,30.517,0,0,0-27.526,0c-3.517,2.028-5.445,4.668-5.445,7.444s1.928,5.409,5.445,7.437a30.517,30.517,0,0,0,27.526,0c3.51-2.028,5.445-4.668,5.445-7.437S406.3,224.727,402.791,222.72Zm-4.517,12.637a22.6,22.6,0,0,1-18.492,0c-2.633-1.345-4.078-3.194-4.078-5.193s1.439-3.855,4.078-5.2a22.6,22.6,0,0,1,18.492,0c2.625,1.345,4.078,3.194,4.078,5.2s-1.474,3.826-4.078,5.171Z" transform="translate(-163.953 -215.666)" fill="#f5f5f5" opacity="0.7"/><ellipse cx="12.63" cy="6.481" rx="12.63" ry="6.481" transform="translate(212.441 7.989)" fill="#ffc107"/><ellipse cx="12.63" cy="6.481" rx="12.63" ry="6.481" transform="translate(212.441 7.989)" fill="#f5f5f5" opacity="0.5"/><path d="M400.566,229.589c-4.934-2.532-12.947-2.532-17.859,0-2.043,1.043-3.237,2.359-3.6,3.726.352,1.359,1.546,2.676,3.6,3.726,4.927,2.525,12.947,2.525,17.859,0,2.043-1.05,3.237-2.366,3.6-3.726C403.8,231.948,402.608,230.632,400.566,229.589Z" transform="translate(-166.561 -217.982)" fill="#ffc107"/><path d="M400.566,229.589c-4.934-2.532-12.947-2.532-17.859,0-2.043,1.043-3.237,2.359-3.6,3.726.352,1.359,1.546,2.676,3.6,3.726,4.927,2.525,12.947,2.525,17.859,0,2.043-1.05,3.237-2.366,3.6-3.726C403.8,231.948,402.608,230.632,400.566,229.589Z" transform="translate(-166.561 -217.982)" fill="#f5f5f5" opacity="0.6"/><path d="M397.485,228.08v1.848l-.633.669-1.172,1.223v-1.928Z" transform="translate(-171.213 -218.091)" fill="#ffc107"/><path d="M394.254,230.41v1.928H390.6v-2.258S393.981,229.561,394.254,230.41Z" transform="translate(-169.787 -218.609)" fill="#ffc107"/><path d="M401.265,235.389v1.6l-2.028,1.165-1.5-.863a7.631,7.631,0,0,1-5.8.259v-1.6l.921-.913-.921.252a5.9,5.9,0,0,1-4.517-.518c-.906-.525-1.331-1.093-1.331-1.683v-1.561l.165-.676-.554-.324v-1.6l1.5.87a2.323,2.323,0,0,0-1.115,1.719h0c0,.575.446,1.136,1.331,1.647,1.971,1.136,3.92.762,5.711.187,1.661-.539,2.877-1.18,3.834-.626.6.345.41.762-.252,1.151a3.345,3.345,0,0,1-2.877.165l-1.92,1.9a6.971,6.971,0,0,0,1.057.309,7.912,7.912,0,0,0,4.747-.575l1.5.87Z" transform="translate(-168.411 -218.33)" fill="#ffc107"/><path d="M402.44,238.34v1.6l1.5.863v-1.6Z" transform="translate(-173.111 -220.972)" fill="#ffc107"/><g transform="translate(217.289 9.989)" opacity="0.5"><path d="M397.485,228.08v1.848l-.633.669-1.172,1.223v-1.928Z" transform="translate(-388.502 -228.08)" fill="#f5f5f5"/><path d="M394.254,230.41v1.928H390.6v-2.258S393.981,229.561,394.254,230.41Z" transform="translate(-387.076 -228.597)" fill="#f5f5f5"/><path d="M401.265,235.389v1.6l-2.028,1.165-1.5-.863a7.631,7.631,0,0,1-5.8.259v-1.6l.921-.913-.921.252a5.9,5.9,0,0,1-4.517-.518c-.906-.525-1.331-1.093-1.331-1.683v-1.561l.165-.676-.554-.324v-1.6l1.5.87a2.323,2.323,0,0,0-1.115,1.719h0c0,.575.446,1.136,1.331,1.647,1.971,1.136,3.92.762,5.711.187,1.661-.539,2.877-1.18,3.834-.626.6.345.41.762-.252,1.151a3.345,3.345,0,0,1-2.877.165l-1.92,1.9a6.971,6.971,0,0,0,1.057.309,7.912,7.912,0,0,0,4.747-.575l1.5.87Z" transform="translate(-385.7 -228.319)" fill="#f5f5f5"/><path d="M402.44,238.34v1.6l1.5.863v-1.6Z" transform="translate(-390.4 -230.96)" fill="#f5f5f5"/></g><path d="M400.941,234.718l-1.158-.669a1.971,1.971,0,0,0,1.158-1.777,1.087,1.087,0,0,0,0-.158c-.05-.554-.453-1.086-1.295-1.568h0a5.322,5.322,0,0,0-2.69-.719h-.935a12.385,12.385,0,0,0-1.309.273l-.611.18-.849.273-.324.115a9.541,9.541,0,0,1-1.8.511,1.812,1.812,0,0,1-.77,0,1.588,1.588,0,0,1-.36-.151c-.453-.259-.525-.662.324-1.151a2.963,2.963,0,0,1,2.6-.273l1.805-1.813a7.718,7.718,0,0,0-5.438.3l-1.5-.863-2.043,1.18,1.5.863a2.309,2.309,0,0,0-1.115,1.719h0c0,.575.439,1.136,1.331,1.647,1.971,1.136,3.927.762,5.711.187,1.661-.547,2.877-1.18,3.834-.633.6.352.41.77-.252,1.151a3.294,3.294,0,0,1-2.877.165l-1.92,1.906a6.971,6.971,0,0,0,1.057.309,7.948,7.948,0,0,0,4.747-.568l1.5.863,2.028-1.165Z" transform="translate(-168.425 -217.853)" fill="#ffc107"/><path d="M400.941,234.718l-1.158-.669a1.971,1.971,0,0,0,1.158-1.777,1.087,1.087,0,0,0,0-.158c-.05-.554-.453-1.086-1.295-1.568h0a5.322,5.322,0,0,0-2.69-.719h-.935a12.385,12.385,0,0,0-1.309.273l-.611.18-.849.273-.324.115a9.541,9.541,0,0,1-1.8.511,1.812,1.812,0,0,1-.77,0,1.588,1.588,0,0,1-.36-.151c-.453-.259-.525-.662.324-1.151a2.963,2.963,0,0,1,2.6-.273l1.805-1.813a7.718,7.718,0,0,0-5.438.3l-1.5-.863-2.043,1.18,1.5.863a2.309,2.309,0,0,0-1.115,1.719h0c0,.575.439,1.136,1.331,1.647,1.971,1.136,3.927.762,5.711.187,1.661-.547,2.877-1.18,3.834-.633.6.352.41.77-.252,1.151a3.294,3.294,0,0,1-2.877.165l-1.92,1.906a6.971,6.971,0,0,0,1.057.309,7.948,7.948,0,0,0,4.747-.568l1.5.863,2.028-1.165Z" transform="translate(-168.425 -217.853)" fill="#f5f5f5" opacity="0.7"/></g></g></svg>