<svg class="animated" id="freepik_stories-plain-credit-card" xmlns="http://www.w3.org/2000/svg" viewBox="0 0 500 500" version="1.1"><style>@keyframes lightSpeedRight{60%{transform:skewX(10deg);opacity:1}80%{transform:skewX(-2deg)}}@keyframes zoomIn{0%{opacity:0;transform:scale(.5)}to{opacity:1;transform:scale(1)}}@keyframes slideRight{0%{opacity:0;transform:translateX(30px)}to{opacity:1;transform:translateX(0)}}@keyframes fadeIn{0%{opacity:0}to{opacity:1}}</style><g id="freepik--Floor--inject-9" class="animable" style="transform-origin:253.105px 307.963px;animation:1s 1 forwards cubic-bezier(.36,-.01,.5,1.38) lightSpeedRight;animation-delay:0s"><path d="M89.91 393.22c90.13 47.08 236.27 47.08 326.39 0s90.14-123.43 0-170.51-236.26-47.09-326.39 0-90.13 123.42 0 170.51z" style="transform-origin:253.105px 307.963px" id="elrom0xvalxz9" class="animable" fill="#f5f5f5"/></g><g id="freepik--Shadows--inject-9" class="animable" style="transform-origin:253.085px 281.071px;animation:1s 1 forwards cubic-bezier(.36,-.01,.5,1.38) lightSpeedRight;animation-delay:0s"><path d="M369.74 310.45c-12.09-7-31.68-7-43.77 0s-12.08 18.29 0 25.27 31.68 7 43.77 0 12.09-18.29 0-25.27z" style="transform-origin:347.857px 323.081px" id="el1ezntkil8xa" class="animable" fill="#e0e0e0"/><path d="M369.74 310.45c-12.09-7-31.68-7-43.77 0s-12.08 18.29 0 25.27 31.68 7 43.77 0 12.09-18.29 0-25.27z" style="transform-origin:347.857px 323.081px" id="elfyja5xksz7u" class="animable" fill="#e0e0e0"/><path d="M133.31 226.43c-12.08-7-31.68-7-43.76 0s-12.09 18.29 0 25.27 31.68 7 43.76 0 12.09-18.29 0-25.27z" style="transform-origin:111.43px 239.061px" id="el860w19xem9n" class="animable" fill="#e0e0e0"/><path d="M416.62 253.7c-12.09-7-31.69-7-43.77 0s-12.09 18.3 0 25.27 31.68 7 43.77 0 12.08-18.29 0-25.27z" style="transform-origin:394.735px 266.329px" id="el0x1kymz33oc" class="animable" fill="#e0e0e0"/></g><g id="freepik--Plants--inject-9" class="animable" style="transform-origin:264.583px 289.976px;animation:1s 1 forwards cubic-bezier(.36,-.01,.5,1.38) zoomIn;animation-delay:0s"><path d="M136.14 340.75a90 90 0 00-6.07-25.83c-5.39-13.31-14.74-24.1-26.68-26.63S86.89 292 87.9 299.07s11 12.43 17.78 18.36 19.32 20.27 22.81 34.11l6.74.74z" style="transform-origin:111.952px 319.998px" id="elf3vsh7lvgqp" class="animable" fill="#ffc107"/><path d="M136.14 340.75a90 90 0 00-6.07-25.83c-5.39-13.31-14.74-24.1-26.68-26.63S86.89 292 87.9 299.07s11 12.43 17.78 18.36 19.32 20.27 22.81 34.11l6.74.74z" style="transform-origin:111.952px 319.998px" class="animable" opacity=".2" id="el7yxm335e196"/><path d="M132.73 352.32a.51.51 0 01-.47-.53c1.52-23.74-13.94-50-35.2-59.77a.49.49 0 01-.25-.66.51.51 0 01.66-.25c21.62 9.94 37.34 36.62 35.79 60.74a.5.5 0 01-.53.47z" style="transform-origin:115.064px 321.695px" id="elj9itpomdcxf" class="animable" fill="#f5f5f5"/><path d="M135.69 394.13s-7 4.4-17.84 2.53-13.19-9.27-14.12-16.59-6.27-4-13.56-7-8.49-10.5-6.86-16.12a16.54 16.54 0 013.69-6.58s-5.15-2.25-9.81-10.06a74.06 74.06 0 01-5-11s5.92-4.52 17.61-2.07a29.53 29.53 0 0110.85 4.89s6.35-7.13 15.01-4.53a9.89 9.89 0 016.35 6.13 29.52 29.52 0 001.42 3.55 6 6 0 004.44 2.49c4.13.6 8-.1 11.8 2a12 12 0 014.3 4.8c5.65 10-8.28 47.56-8.28 47.56z" style="transform-origin:108.754px 361.817px" id="el25kycpnqn1t" class="animable" fill="#ffc107"/><path d="M140.47 380a.52.52 0 01-.43-.24c-17-27.58-43.89-43.52-61.77-48.79a.5.5 0 01.28-1c18 5.32 45.21 21.41 62.34 49.22a.51.51 0 01-.42.77z" style="transform-origin:109.427px 354.976px" id="el3h2fqm589ll" class="animable" fill="#f5f5f5"/><path d="M95.55 358.3a.52.52 0 01-.38-.17.49.49 0 010-.7c.34-.31 8.47-7.36 19.51-7.55a.49.49 0 01.51.49.5.5 0 01-.49.51c-10.68.18-18.79 7.22-18.87 7.3a.52.52 0 01-.28.12z" style="transform-origin:105.107px 354.09px" id="elssg46ckgiy8" class="animable" fill="#f5f5f5"/><path d="M108.37 346.06a.51.51 0 01-.5-.45 25.68 25.68 0 012.22-12.93.5.5 0 11.9.44 25.07 25.07 0 00-2.12 12.38.51.51 0 01-.44.56z" style="transform-origin:109.406px 339.229px" id="elq7sn9bzkzgl" class="animable" fill="#f5f5f5"/><path d="M410.53 237.11s-4.09-13.34-2.06-26 8-22.56 15.86-26.73 17.63.44 11.18 9.34-19.58 20.83-18.33 43.08z" style="transform-origin:422.756px 209.969px" id="elxzgi9pubeba" class="animable" fill="#37474f"/><path d="M413.75 237.38a.41.41 0 01-.39-.3c-4.37-16.14 2-42 16.72-51.19a.4.4 0 01.42.68c-14.45 9-20.66 34.43-16.37 50.3a.41.41 0 01-.28.5z" style="transform-origin:421.34px 211.61px" id="ely2mjxtwp9d" class="animable" fill="#f5f5f5"/><path d="M421.38 251.7a8.69 8.69 0 004 1.06 11.7 11.7 0 004.83-.73c2.74-1 5-2.6 5.72-5.56.54-2.33-.32-5 .7-7.2s4.07-3.56 6.16-4.22c1.47-.47 3-.69 4.45-1.24a5.71 5.71 0 003.41-2.91c1.38-3.4-2.39-7.25-1.15-10.7.61-1.71 2.28-2.76 3.82-3.74s3.17-2.14 3.59-3.91a5.07 5.07 0 00-1.52-4.5c-2.75-2.84-7.36-3.11-11.05-1.7a37 37 0 01-3.49 1.35c-4.64 1.21-9.59-1.83-14.26-.73a8.45 8.45 0 00-6.17 6.24c-.22 1-.25 2.07-.49 3.09-.59 2.55-3.28 3.09-3.92 5.7-.59 2.36.15 4.84.56 7.17.62 3.58 1.32 7.14 2.07 10.7q.6 2.9 1.24 5.78c.39 1.78-.13 3.72.66 5.35a8.87 8.87 0 00.84.7z" style="transform-origin:436.383px 229.15px" id="el1918u4p3h32" class="animable" fill="#455a64"/><path d="M420.07 239.08H420a.41.41 0 01-.34-.46c2-13 20.29-28.4 32-30a.41.41 0 01.45.35.4.4 0 01-.34.45c-11.46 1.58-29.34 16.58-31.3 29.32a.41.41 0 01-.4.34z" style="transform-origin:435.885px 223.849px" id="elekerv9fli6r" class="animable" fill="#f5f5f5"/><path d="M430.51 221.69a.4.4 0 01-.39-.37c-.73-7.94-3.62-11-3.65-11a.4.4 0 11.58-.56c.12.13 3.11 3.28 3.86 11.54a.39.39 0 01-.36.43z" style="transform-origin:428.634px 215.683px" id="eloeaaytxnusi" class="animable" fill="#f5f5f5"/><path d="M443.22 228.31a.4.4 0 01-.15 0c-.09 0-9.05-3.79-16.56-1.75a.4.4 0 01-.21-.77c7.78-2.12 16.7 1.62 17.08 1.78a.4.4 0 01.21.53.39.39 0 01-.37.21z" style="transform-origin:434.828px 226.729px" id="elccl3zjov5oj" class="animable" fill="#f5f5f5"/></g><g id="freepik--Wallet--inject-9" class="animable" style="transform-origin:282.59px 181.619px;animation:1s 1 forwards cubic-bezier(.36,-.01,.5,1.38) slideRight;animation-delay:0s"><path style="transform-origin:368.385px 129.385px" id="elj0w17yrn32p" class="animable" fill="#263238" d="M364.24 119.81l8.29 4.78v14.37l-8.29-4.79v-14.36z"/><path d="M357.88 85.17l-26.82 15.48v-31a4.15 4.15 0 00-6.35-3.65l-132.65 76.61c-5.13 3-7.7 6.83-7.7 10.71V282.6c0 3.88 2.57 7.76 7.7 10.72l.18.11c10.26 5.92 26.88 5.92 37.14 0L362 216.85a4.94 4.94 0 002.21-3.83V86.29l-2.08-1.2a4.75 4.75 0 00-4.25.08z" style="transform-origin:274.285px 181.619px" id="elekbmylqbzm9" class="animable" fill="#ffc107"/><path d="M192.06 164c-10.22-5.89-10.22-15.54 0-21.43L324.71 66a4.72 4.72 0 014.28-.08c1.14.66 1.08 1.77-.14 2.47l-128.94 74.47c-1.22.71-3.22 1.83-4.35 2.68-6 4.49-6.52 10.48-1.37 14.72a20.77 20.77 0 004.39 2.57c7.4 3.09 18 2.78 25.87-.77 1.29-.58 3.26-1.74 4.48-2.44l129-74.45a4.75 4.75 0 014.28-.08c1.15.66 1.09 1.77-.13 2.48l-132.7 76.58c-10.22 5.9-26.92 5.9-37.14 0z" style="transform-origin:273.715px 117.011px" id="el6eb5eskpruj" class="animable" fill="#ffc107"/><path d="M192.06 164c-10.22-5.89-10.22-15.54 0-21.43L324.71 66a4.72 4.72 0 014.28-.08c1.14.66 1.08 1.77-.14 2.47l-128.94 74.47c-1.22.71-3.22 1.83-4.35 2.68-6 4.49-6.52 10.48-1.37 14.72a20.77 20.77 0 004.39 2.57c7.4 3.09 18 2.78 25.87-.77 1.29-.58 3.26-1.74 4.48-2.44l129-74.45a4.75 4.75 0 014.28-.08c1.15.66 1.09 1.77-.13 2.48l-132.7 76.58c-10.22 5.9-26.92 5.9-37.14 0z" style="transform-origin:273.715px 117.011px" class="animable" opacity=".3" id="elksm0mwx7kqc"/><path d="M188.73 171.76a.52.52 0 01-.33-.12 16.48 16.48 0 01-1.81-1.84.5.5 0 01.77-.64 15.28 15.28 0 001.7 1.72.51.51 0 01.05.71.52.52 0 01-.38.17z" style="transform-origin:187.853px 170.37px" id="elx1mve0zmm3r" class="animable" fill="#f5f5f5"/><path d="M212.42 178.62a.5.5 0 01-.5-.48.5.5 0 01.49-.52 45 45 0 005-.45.5.5 0 01.57.42.51.51 0 01-.42.57 47.22 47.22 0 01-5.08.46zm-5-.1a43.24 43.24 0 01-5-.68.49.49 0 01-.4-.58.51.51 0 01.59-.4 41.21 41.21 0 004.93.66.5.5 0 010 1zm15-1.41a.5.5 0 01-.48-.37.49.49 0 01.34-.61 32.78 32.78 0 004.66-1.7.49.49 0 01.66.24.5.5 0 01-.24.67 33.66 33.66 0 01-4.81 1.75zm-24.85-.54a.45.45 0 01-.16 0 30.38 30.38 0 01-4.7-2 .5.5 0 01.47-.88 30.42 30.42 0 004.55 2 .5.5 0 01-.16 1zm34-3.6a.5.5 0 01-.25-.93l4.37-2.52a.5.5 0 11.5.86l-4.37 2.52a.45.45 0 01-.3.1zm8.74-5a.51.51 0 01-.44-.25.5.5 0 01.13-.72l4.36-2.53a.5.5 0 01.68.19.49.49 0 01-.18.68l-4.36 2.52a.47.47 0 01-.24.07zm8.73-5a.5.5 0 01-.43-.25.51.51 0 01.18-.69l4.36-2.52a.52.52 0 01.69.19.5.5 0 01-.19.68l-4.36 2.52a.47.47 0 01-.29-.01zm8.73-5a.5.5 0 01-.43-.25.51.51 0 01.18-.69l4.37-2.52a.49.49 0 01.68.19.5.5 0 01-.18.68l-4.39 2.4a.55.55 0 01-.28.07zm8.73-5a.48.48 0 01-.43-.25.5.5 0 01.18-.68l4.37-2.52a.49.49 0 01.68.18.51.51 0 01-.18.69l-4.37 2.52a.54.54 0 01-.3-.11zm8.73-5a.5.5 0 01-.25-.93l4.37-2.52a.49.49 0 01.68.18.51.51 0 01-.18.69l-4.37 2.52a.54.54 0 01-.3-.15zm8.74-5a.5.5 0 01-.25-.93l4.36-2.52a.5.5 0 01.5.86l-4.36 2.53a.57.57 0 01-.3-.19zm8.73-5a.52.52 0 01-.44-.25.51.51 0 01.19-.68l4.36-2.52a.5.5 0 11.5.86l-4.36 2.52a.47.47 0 01-.3-.22zm8.73-5a.5.5 0 01-.25-.93l4.36-2.52a.51.51 0 01.69.18.5.5 0 01-.19.68l-4.36 2.52a.47.47 0 01-.3-.26zm8.73-5a.5.5 0 01-.25-.93l4.37-2.53a.51.51 0 01.68.19.49.49 0 01-.18.68l-4.37 2.52a.45.45 0 01-.3-.3zm8.73-5a.5.5 0 01-.43-.25.51.51 0 01.18-.69l4.36-2.93a.51.51 0 01.68.19.49.49 0 01-.18.68l-4.37 2.52a.45.45 0 01-.29.07zm8.73-5a.5.5 0 01-.43-.25.51.51 0 01.18-.69l4.37-2.52a.49.49 0 01.68.18.51.51 0 01-.18.69l-4.37 2.52a.55.55 0 01-.3-.38zm8.74-5a.51.51 0 01-.44-.25.5.5 0 01.19-.68l4.36-2.52a.49.49 0 01.68.18.51.51 0 01-.18.69l-4.36 2.52a.57.57 0 01-.3-.44zm8.73-5a.52.52 0 01-.44-.25.51.51 0 01.19-.68l4.36-2.52a.5.5 0 11.5.87l-4.36 2.52a.57.57 0 01-.34-.48z" style="transform-origin:271.213px 141.537px" id="eloeg0ew9v6g" class="animable" fill="#f5f5f5"/><path d="M355.94 103.64a.51.51 0 01-.5-.5v-1.64l-1.41.82a.49.49 0 01-.68-.18.51.51 0 01.18-.69l2.16-1.25a.5.5 0 01.75.44v2.5a.5.5 0 01-.5.5z" style="transform-origin:354.861px 101.886px" id="elkxwk62t8og" class="animable" fill="#f5f5f5"/><path d="M355.94 203.78a.51.51 0 01-.5-.5v-5a.5.5 0 01.5-.5.5.5 0 01.5.5v5a.5.5 0 01-.5.5zm0-10a.5.5 0 01-.5-.5v-5a.51.51 0 01.5-.5.5.5 0 01.5.5v5a.5.5 0 01-.5.48zm0-10a.51.51 0 01-.5-.5v-5a.5.5 0 01.5-.5.5.5 0 01.5.5v5a.5.5 0 01-.5.47zm0-10a.5.5 0 01-.5-.5v-5a.5.5 0 01.5-.5.5.5 0 01.5.5v5a.5.5 0 01-.5.45zm0-10a.5.5 0 01-.5-.5v-5a.51.51 0 01.5-.5.5.5 0 01.5.5v5a.5.5 0 01-.5.44zm0-10a.51.51 0 01-.5-.5v-5a.5.5 0 01.5-.5.5.5 0 01.5.5v5a.5.5 0 01-.5.43zm0-10a.5.5 0 01-.5-.5v-5a.5.5 0 01.5-.5.5.5 0 01.5.5v5a.5.5 0 01-.5.41zm0-10a.51.51 0 01-.5-.5v-5a.5.5 0 01.5-.5.5.5 0 01.5.5v5a.5.5 0 01-.5.4zm0-10a.5.5 0 01-.5-.5v-5a.5.5 0 01.5-.5.5.5 0 01.5.5v5a.5.5 0 01-.5.38zm0-10a.5.5 0 01-.5-.5v-5a.51.51 0 01.5-.5.5.5 0 01.5.5v5a.5.5 0 01-.5.37z" style="transform-origin:355.94px 155.78px" id="elpln7i82dmzd" class="animable" fill="#f5f5f5"/><path d="M353.78 212.53a.5.5 0 01-.25-.93l1.91-1.11v-2.21a.51.51 0 01.5-.5.5.5 0 01.5.5v2.5a.5.5 0 01-.25.44l-2.19 1.25a.57.57 0 01-.22.06z" style="transform-origin:354.863px 210.155px" id="elcwg3zo93sxh" class="animable" fill="#f5f5f5"/><path d="M212.44 288.77a.5.5 0 010-1 42.71 42.71 0 005-.46.51.51 0 01.57.42.5.5 0 01-.42.57 44.8 44.8 0 01-5.08.47zm-5-.1a43.83 43.83 0 01-5.05-.68.5.5 0 01-.4-.58.51.51 0 01.59-.4 41.77 41.77 0 004.93.66.5.5 0 010 1zm15-1.42a.49.49 0 01-.48-.36.5.5 0 01.34-.62 32.34 32.34 0 004.66-1.7.49.49 0 01.66.25.49.49 0 01-.24.66 33.52 33.52 0 01-4.8 1.75.36.36 0 01-.2.02zm-24.85-.53a.45.45 0 01-.16 0 30.92 30.92 0 01-4.7-2 .5.5 0 01.47-.88 31.47 31.47 0 004.55 2 .5.5 0 01-.16 1zm34-3.61a.5.5 0 01-.25-.93l4.37-2.52a.5.5 0 01.5.86l-4.43 2.48a.45.45 0 01-.25.11zm8.74-5a.5.5 0 01-.44-.25.49.49 0 01.19-.68l4.36-2.52a.5.5 0 11.5.86l-4.42 2.48a.47.47 0 01-.25.07zm8.73-5a.51.51 0 01-.44-.25.5.5 0 01.19-.68l4.36-2.53a.52.52 0 01.69.19.51.51 0 01-.19.68l-4.42 2.48a.47.47 0 01-.25 0zm8.73-5a.5.5 0 01-.43-.25.51.51 0 01.18-.69l4.36-2.52a.51.51 0 01.69.19.5.5 0 01-.19.68l-4.4 2.4a.47.47 0 01-.27.08zm8.73-5a.5.5 0 01-.43-.25.51.51 0 01.18-.69l4.37-2.52a.5.5 0 01.5.87l-4.37 2.52a.55.55 0 01-.31-.04zm8.73-5.05a.48.48 0 01-.43-.25.5.5 0 01.18-.68l4.37-2.52a.5.5 0 01.5.87L275.5 258a.54.54 0 01-.31-.1zm8.73-5a.5.5 0 01-.43-.25.5.5 0 01.18-.68l4.37-2.52a.5.5 0 11.5.86l-4.37 2.53a.51.51 0 01-.31-.14zm8.74-5a.5.5 0 01-.25-.93l4.36-2.52a.5.5 0 11.5.86l-4.36 2.52a.47.47 0 01-.31-.17zm8.73-5a.5.5 0 01-.25-.93l4.36-2.52a.5.5 0 11.5.86l-4.36 2.52a.47.47 0 01-.31-.21zm8.73-5a.5.5 0 01-.25-.93l4.37-2.52a.5.5 0 11.5.86l-4.37 2.52a.47.47 0 01-.31-.25zm8.73-5a.5.5 0 01-.43-.25.51.51 0 01.18-.69l4.37-2.52a.51.51 0 01.68.19.49.49 0 01-.18.68l-4.37 2.52a.45.45 0 01-.31-.29zm8.73-5a.5.5 0 01-.43-.25.51.51 0 01.18-.69l4.37-2.52a.5.5 0 01.5.87l-4.37 2.52a.45.45 0 01-.31-.33zm8.73-5a.5.5 0 01-.43-.25.51.51 0 01.18-.69l4.37-2.52a.49.49 0 01.68.18.51.51 0 01-.18.69l-4.37 2.52a.52.52 0 01-.31-.37zm8.74-5.05a.51.51 0 01-.44-.25.51.51 0 01.19-.68l4.36-2.52a.51.51 0 01.69.18.52.52 0 01-.19.69l-4.36 2.52a.57.57 0 01-.31-.38z" style="transform-origin:271.233px 251.631px" id="elgfv3gp81mpt" class="animable" fill="#f5f5f5"/><path d="M188.73 281.9a.52.52 0 01-.33-.12 16.41 16.41 0 01-1.81-1.83.52.52 0 01.06-.71.51.51 0 01.71.07 15.28 15.28 0 001.7 1.72.49.49 0 01.05.7.48.48 0 01-.38.17z" style="transform-origin:187.856px 280.514px" id="elpim6acjjl0q" class="animable" fill="#f5f5f5"/><path d="M331.06 93.83V78.76a3.92 3.92 0 00-1.77-3.07 1.08 1.08 0 010 2l-137.67 79.53a10.44 10.44 0 002.58 3 21 21 0 004.38 2.57 31.3 31.3 0 0012.86 2.1l117.86-68a3.92 3.92 0 001.76-3.06z" style="transform-origin:261.34px 120.308px" id="el1b6cikjdfmh" class="animable" fill="#e0e0e0"/><path d="M329.29 75.69l-.61-.35a3.92 3.92 0 00-3.53 0L190.71 153a7.34 7.34 0 00.91 4.26l137.67-79.52a1.08 1.08 0 000-2.05z" style="transform-origin:260.355px 116.09px" id="elxhsk084yg" class="animable" fill="#ebebeb"/><path d="M339.36 83.54a3.94 3.94 0 00-1.77-3.06l-.61-.35a3.94 3.94 0 00-3.54 0l-139 80.28a21.64 21.64 0 004.19 2.42c7.41 3.09 18 2.78 25.87-.78 1.29-.58 3.26-1.72 4.48-2.42l110.38-63.76z" style="transform-origin:266.9px 122.33px" id="elvhmt3wpvyhh" class="animable" fill="#e0e0e0"/><path d="M198.53 162.81l139.06-80.29a1.08 1.08 0 000-2l-.61-.35a3.94 3.94 0 00-3.54 0l-139 80.28a21.91 21.91 0 004.09 2.36z" style="transform-origin:266.351px 121.28px" id="elpne5nmbhb5h" class="animable" fill="#ebebeb"/><path d="M347.65 88.33a3.89 3.89 0 00-1.77-3.06l-.61-.36a3.94 3.94 0 00-3.54 0L204.06 164.4a36 36 0 0020.39-2.35c1.29-.58 3.26-1.72 4.48-2.42l118.72-68.55z" style="transform-origin:275.855px 124.718px" id="elhu0j9pesf35" class="animable" fill="#e0e0e0"/><path d="M345.88 85.27l-.61-.36a3.94 3.94 0 00-3.54 0L204.06 164.4a35.18 35.18 0 007.38.53l134.44-77.62a1.08 1.08 0 000-2.04z" style="transform-origin:275.333px 124.72px" id="el3h83ensx6p9" class="animable" fill="#ebebeb"/><path d="M380.82 131.43v29.43a3.92 3.92 0 01-1.76 3.06l-53.7 31h-.1c-4.06 2.31-7.74 2.61-10.43 1.22-.82-.42-4-2.25-4.74-2.75-2.43-1.57-3.91-4.67-3.91-9 0-9 6.31-19.93 14.24-25l50.33-29.05.26-.18c.71-.57.62-1.35-.26-1.86l-6.52-3.77v-4.79l14.82 8.56a3.92 3.92 0 011.73 2.71 2.07 2.07 0 01.04.42z" style="transform-origin:343.5px 158.358px" id="elzw7f69mkc4" class="animable" fill="#ffc107"/><path d="M380.82 131.43v29.43a3.92 3.92 0 01-1.76 3.06l-53.7 31h-.1c-4.06 2.31-7.74 2.61-10.43 1.22-.82-.42-4-2.25-4.74-2.75-2.43-1.57-3.91-4.67-3.91-9 0-9 6.31-19.93 14.24-25l50.33-29.05.26-.18c.71-.57.62-1.35-.26-1.86l-6.52-3.77v-4.79l14.82 8.56a3.92 3.92 0 011.73 2.71 2.07 2.07 0 01.04.42z" style="transform-origin:343.5px 158.358px" class="animable" opacity=".3" id="elx0bd06hv7k7"/><path d="M380.82 131.43v29.43a3.92 3.92 0 01-1.76 3.06l-53.7 31h-.1c-5.29 3-9.94 2.61-12.6-.5a11.61 11.61 0 01-2.33-7.64c0-9.26 6.73-20.64 15-25.44l51.32-29.62 2.38-1.37c.87-.51 1.59-.21 1.73.67a2.07 2.07 0 01.06.41z" style="transform-origin:345.566px 163.537px" id="elef02xi0r2dg" class="animable" fill="#ffc107"/><path d="M322.77 179.66c0 4 2.78 5.57 6.22 3.59a13.73 13.73 0 006.22-10.77c0-4-2.79-5.58-6.22-3.59a13.72 13.72 0 00-6.22 10.77z" style="transform-origin:328.99px 176.068px" id="el5f4jr6luf15" class="animable" fill="#37474f"/><path style="transform-origin:330.01px 176.735px" id="ele0skhyr9nlq" class="animable" fill="#37474f" d="M335.43 169.63l-1.85-1.06-8.99 15.11 2.11 1.22 8.73-15.27z"/><path d="M324.84 180.86c0 4 2.79 5.57 6.22 3.59a13.75 13.75 0 006.22-10.78c0-4-2.78-5.57-6.22-3.59a13.78 13.78 0 00-6.22 10.78z" style="transform-origin:331.06px 177.265px" id="eljjbvn13tgdm" class="animable" fill="#455a64"/></g><g id="freepik--Card--inject-9" class="animable" style="transform-origin:216.03px 291.205px;animation:1s 1 forwards cubic-bezier(.36,-.01,.5,1.38) fadeIn;animation-delay:0s"><path d="M137.24 398.94a4.75 4.75 0 01-2.07-3.75V275.8a4.86 4.86 0 012.21-3.82l153.15-88.43a4.15 4.15 0 016.36 3.67v119.39a4.9 4.9 0 01-2.21 3.83l-153.15 88.42a4.74 4.74 0 01-4.29.08z" style="transform-origin:216.032px 291.162px" id="ely4tpmpc3w3c" class="animable" fill="#455a64"/><path d="M143.46 278l-7.64-4.41a4.5 4.5 0 00-.65 2.17v119.43a4.15 4.15 0 006.36 3.67l1.93-1.12z" style="transform-origin:139.313px 336.545px" id="el0mrps3ecnm1f" class="animable" fill="#263238"/><path d="M139.32 278.2v119.39c0 1.41 1 2 2.21 1.27l153.15-88.42a4.9 4.9 0 002.21-3.83V187.22c0-1.41-1-2-2.21-1.27l-153.15 88.42a4.88 4.88 0 00-2.21 3.83z" style="transform-origin:218.105px 292.405px" id="elfgaa257qzb" class="animable" fill="#37474f"/><path d="M151.76 309.32v18.84c0 1.41 1 2 2.21 1.27l24.6-14.2a4.87 4.87 0 002.21-3.83v-18.84c0-1.41-1-2-2.21-1.27L154 305.49a4.9 4.9 0 00-2.24 3.83z" style="transform-origin:166.27px 310.36px" id="ele1sy5mqf43d" class="animable" fill="#ffc107"/><path d="M180.78 297.77v-1.15l-29 16.75v1.16l7.79-4.5v8.46l-7.79 4.5v1.15l29-16.75v-1.16l-7.79 4.5v-8.46zM172 311.31l-11.44 6.6v-8.46l11.44-6.6z" style="transform-origin:166.28px 310.38px" id="eleak0tpvqv9" class="animable" fill="#f5f5f5"/><path d="M157.28 287.06v1.64a5 5 0 01-2.49 4.53c-1.64.95-2.5.31-2.5-1.65v-6.4a5 5 0 012.5-4.53c1.64-.94 2.49-.31 2.49 1.65v1.2l-1.58.91v-1.32c0-.87-.33-1-.87-.71a1.81 1.81 0 00-.86 1.72v6.63c0 .88.33 1 .86.7a1.77 1.77 0 00.87-1.7V288z" style="transform-origin:154.785px 286.942px" id="elwxkk619ifm8" class="animable" fill="#fff"/><path d="M161.8 289a3.51 3.51 0 01-.15-1.42v-1.93c0-1.15-.34-1.38-1.1-.94l-.57.34v5l-1.68 1v-12.28l2.53-1.46c1.73-1 2.48-.5 2.48 1.39v1a4.49 4.49 0 01-1.1 3.13c.84-.08 1.11.69 1.11 2v1.9a3.45 3.45 0 00.18 1.39zm-1.8-9.45v3.78l.65-.38a1.94 1.94 0 001-1.88v-1.21c0-.88-.26-1.11-.85-.77z" style="transform-origin:160.9px 283.928px" id="elyqho675iqq" class="animable" fill="#fff"/><path d="M166.09 279.45l2.3-1.33v1.76l-2.3 1.33v3.6l2.89-1.67v1.75l-4.56 2.64v-12.29l4.58-2.64v1.76l-2.91 1.64z" style="transform-origin:166.71px 280.065px" id="elpj9y2b0tpyb" class="animable" fill="#fff"/><path d="M170 272l2.65-1.52c1.67-1 2.49-.37 2.49 1.59v6.22a4.87 4.87 0 01-2.49 4.48L170 284.3zm1.68.79v8.79l.94-.55a1.75 1.75 0 00.85-1.68V273c0-.88-.32-1-.85-.7z" style="transform-origin:172.573px 277.155px" id="el6cfr5wc978g" class="animable" fill="#fff"/><path d="M176.22 268.42l1.67-1v12.29l-1.67 1z" style="transform-origin:177.055px 274.065px" id="elhvnmoqojrs7" class="animable" fill="#fff"/><path d="M178.62 267l5.17-3v1.75l-1.75 1v10.54l-1.67 1v-10.51l-1.75 1z" style="transform-origin:181.205px 271.145px" id="elikrwqgnn7gq" class="animable" fill="#fff"/><path d="M191.73 267.17v1.64a5 5 0 01-2.49 4.53c-1.64 1-2.49.31-2.49-1.65v-6.4a5 5 0 012.49-4.53c1.64-.95 2.49-.31 2.49 1.65v1.2l-1.58.91v-1.32c0-.87-.33-1-.86-.71a1.8 1.8 0 00-.87 1.72v6.63c0 .88.33 1 .87.7a1.78 1.78 0 00.86-1.7v-1.75z" style="transform-origin:189.24px 267.061px" id="el8v7rrd6c98m" class="animable" fill="#fff"/><path d="M198.17 268l-1.69 1-.29-2.07-2.05 1.19-.29 2.4-1.54.88 1.7-13.27 2.45-1.42zm-3.82-1.69l1.61-.93-.8-5.75z" style="transform-origin:195.24px 264.055px" id="elq26kyxhgdgi" class="animable" fill="#fff"/><path d="M202.44 265.58a3.62 3.62 0 01-.15-1.43v-1.93c0-1.14-.33-1.37-1.1-.93l-.57.33v5l-1.68 1V255.3l2.53-1.46c1.73-1 2.48-.5 2.48 1.4v1a4.44 4.44 0 01-1.1 3.12c.84-.08 1.11.7 1.11 2v1.89a3.26 3.26 0 00.19 1.39zm-1.82-9.49v3.78l.65-.38a2 2 0 001-1.88v-1.21c0-.88-.25-1.12-.85-.77z" style="transform-origin:201.545px 260.478px" id="elczi5qgc379g" class="animable" fill="#fff"/><path d="M205.06 251.77l2.65-1.53c1.67-1 2.49-.37 2.49 1.6v6.22a4.87 4.87 0 01-2.49 4.48l-2.65 1.52zm1.67.79v8.78l.94-.54a1.74 1.74 0 00.86-1.69v-6.39c0-.88-.32-1-.86-.7z" style="transform-origin:207.633px 256.916px" id="el4mjyetqdg6s" class="animable" fill="#fff"/><path d="M151.76 345.24v4.47c0 1.41 1 2 2.21 1.27l24.6-14.2a4.9 4.9 0 002.21-3.83v-4.47c0-1.41-1-2-2.21-1.28L154 341.41a4.88 4.88 0 00-2.24 3.83z" style="transform-origin:166.27px 339.093px" id="elaecoucy4ebr" class="animable" fill="#e0e0e0"/><path d="M186.31 325.28v4.47c0 1.41 1 2 2.21 1.28l24.61-14.21a4.86 4.86 0 002.21-3.82v-4.48c0-1.41-1-2-2.21-1.27l-24.61 14.2a4.9 4.9 0 00-2.21 3.83z" style="transform-origin:200.825px 319.137px" id="el58d8lo563up" class="animable" fill="#e0e0e0"/><path d="M220.87 305.33v4.47c0 1.41 1 2 2.21 1.28l24.6-14.21a4.87 4.87 0 002.22-3.87v-4.47c0-1.41-1-2-2.22-1.27l-24.6 14.2a4.9 4.9 0 00-2.21 3.87z" style="transform-origin:235.385px 299.167px" id="el4cziynih70j" class="animable" fill="#e0e0e0"/><path d="M255.42 285.38v4.47c0 1.41 1 2 2.21 1.28l24.61-14.21a4.9 4.9 0 002.21-3.83v-4.47c0-1.41-1-2-2.21-1.28l-24.61 14.21a4.88 4.88 0 00-2.21 3.83z" style="transform-origin:269.935px 279.235px" id="elue1ts55oba" class="animable" fill="#e0e0e0"/><path d="M270.68 290.78L265 294a2.94 2.94 0 00-1.32 2.3v1.73c0 .84.59 1.18 1.32.76l5.64-3.26a2.91 2.91 0 001.33-2.29v-1.73c.03-.81-.55-1.16-1.29-.73z" style="transform-origin:267.826px 294.782px" id="eld3fq8e11le" class="animable" fill="#ffc107"/><path d="M283.12 283.59l-5.64 3.26a2.93 2.93 0 00-1.32 2.3v1.72c0 .85.59 1.19 1.32.77l5.64-3.26a2.91 2.91 0 001.33-2.3v-1.72c0-.85-.59-1.19-1.33-.77z" style="transform-origin:280.305px 287.615px" id="elmz5mwp2xm5m" class="animable" fill="#ffc107"/><path d="M211.91 336.68l70.22-40.54c1.22-.71 2.21-.14 2.21 1.27v2.08a4.9 4.9 0 01-2.21 3.83l-70.22 40.54c-1.22.71-2.21.13-2.21-1.28v-2.07a4.88 4.88 0 012.21-3.83z" style="transform-origin:247.02px 319.999px" id="elx3h91a01zp" class="animable" fill="#ffc107"/></g><g id="freepik--Coins--inject-9" class="animable" style="transform-origin:254.024px 275.349px;animation:1s 1 forwards cubic-bezier(.36,-.01,.5,1.38) fadeIn;animation-delay:0s"><path d="M374.28 315.15a18.13 18.13 0 00-6.67-6.17c-10.91-6.29-28.59-6.29-39.49 0a18 18 0 00-6.67 6.17h-1.51v5.71c.2 4 2.91 7.89 8.16 10.92 10.9 6.3 28.58 6.3 39.49 0 5.24-3 7.95-7 8.15-10.92v-5.71z" style="transform-origin:347.84px 320.384px" id="elw4dkudu1e" class="animable" fill="#ffc107"/><path d="M374.28 315.15a18.13 18.13 0 00-6.67-6.17c-10.91-6.29-28.59-6.29-39.49 0a18 18 0 00-6.67 6.17h-1.51v5.71c.2 4 2.91 7.89 8.16 10.92 10.9 6.3 28.58 6.3 39.49 0 5.24-3 7.95-7 8.15-10.92v-5.71z" style="transform-origin:347.84px 320.384px" class="animable" fill="#f5f5f5" opacity=".5" id="elp8r6at2443h"/><path d="M367.61 303.75c-10.91-6.29-28.59-6.29-39.49 0s-10.91 16.51 0 22.8 28.58 6.3 39.49 0 10.9-16.5 0-22.8z" style="transform-origin:347.865px 315.152px" id="els0sk3evxqhi" class="animable" fill="#ffc107"/><path d="M367.61 303.75c-10.91-6.29-28.59-6.29-39.49 0s-10.91 16.51 0 22.8 28.58 6.3 39.49 0 10.9-16.5 0-22.8z" style="transform-origin:347.865px 315.152px" class="animable" fill="#f5f5f5" opacity=".6" id="elbek2ybw9cdf"/><path d="M360.72 307.93a31.44 31.44 0 00-25.72 0c-3.65 1.87-5.66 4.44-5.66 7.23s2 5.35 5.66 7.22a31.44 31.44 0 0025.72 0c3.65-1.87 5.66-4.44 5.66-7.22s-2.01-5.36-5.66-7.23z" style="transform-origin:347.86px 315.155px" id="el8uwgogn2589" class="animable" fill="#ffc107"/><path d="M360.72 307.93a31.44 31.44 0 00-25.72 0c-3.65 1.87-5.66 4.44-5.66 7.23s2 5.35 5.66 7.22a31.44 31.44 0 0025.72 0c3.65-1.87 5.66-4.44 5.66-7.22s-2.01-5.36-5.66-7.23z" style="transform-origin:347.86px 315.155px" class="animable" fill="#f5f5f5" opacity=".6" id="elg0d745417y"/><path d="M367 304.81c-5.09-2.94-11.89-4.56-19.14-4.56s-14 1.62-19.13 4.56c-4.89 2.82-7.57 6.49-7.57 10.35s2.68 7.52 7.57 10.34c5.09 2.94 11.88 4.56 19.13 4.56s14.05-1.62 19.14-4.56c4.88-2.82 7.57-6.49 7.57-10.34s-2.69-7.53-7.57-10.35zm-6.28 17.57a31.44 31.44 0 01-25.72 0c-3.65-1.87-5.66-4.44-5.66-7.22s2-5.36 5.66-7.23a31.44 31.44 0 0125.72 0c3.65 1.87 5.66 4.44 5.66 7.23s-2.01 5.35-5.66 7.22z" style="transform-origin:347.865px 315.155px" id="elvwk9f7rqvr" class="animable" fill="#ffc107"/><path d="M367 304.81c-5.09-2.94-11.89-4.56-19.14-4.56s-14 1.62-19.13 4.56c-4.89 2.82-7.57 6.49-7.57 10.35s2.68 7.52 7.57 10.34c5.09 2.94 11.88 4.56 19.13 4.56s14.05-1.62 19.14-4.56c4.88-2.82 7.57-6.49 7.57-10.34s-2.69-7.53-7.57-10.35zm-6.28 17.57a31.44 31.44 0 01-25.72 0c-3.65-1.87-5.66-4.44-5.66-7.22s2-5.36 5.66-7.23a31.44 31.44 0 0125.72 0c3.65 1.87 5.66 4.44 5.66 7.23s-2.01 5.35-5.66 7.22z" style="transform-origin:347.865px 315.155px" class="animable" fill="#f5f5f5" opacity=".7" id="elnkq58xxj6yd"/><path d="M360.28 321.53c6.86-3.52 6.86-9.23 0-12.75s-18-3.52-24.84 0-6.86 9.23 0 12.75 17.98 3.52 24.84 0z" style="transform-origin:347.864px 315.155px" id="elzm59oysvete" class="animable" fill="#ffc107"/><path d="M360.28 321.53c6.86-3.52 6.86-9.23 0-12.75s-18-3.52-24.84 0-6.86 9.23 0 12.75 17.98 3.52 24.84 0z" style="transform-origin:347.864px 315.155px" class="animable" fill="#f5f5f5" opacity=".5" id="elx3b0ayf04af"/><path d="M360.28 311.17c-6.86-3.52-18-3.52-24.84 0-2.83 1.45-4.49 3.28-5 5.18.49 1.89 2.15 3.72 5 5.18 6.86 3.52 18 3.52 24.84 0 2.84-1.46 4.49-3.29 5-5.18-.51-1.9-2.16-3.73-5-5.18z" style="transform-origin:347.86px 316.35px" id="el790559ls1mr" class="animable" fill="#ffc107"/><path d="M360.28 311.17c-6.86-3.52-18-3.52-24.84 0-2.83 1.45-4.49 3.28-5 5.18.49 1.89 2.15 3.72 5 5.18 6.86 3.52 18 3.52 24.84 0 2.84-1.46 4.49-3.29 5-5.18-.51-1.9-2.16-3.73-5-5.18z" style="transform-origin:347.86px 316.35px" class="animable" fill="#f5f5f5" opacity=".6" id="elzjpf7lj8ie"/><path style="transform-origin:348.27px 311.52px" id="el7fog9r2a9a4" class="animable" fill="#ffc107" d="M349.52 308.92v2.57l-.88.93-1.62 1.7v-2.68l2.5-2.52z"/><path d="M347 311.44v2.68h-5.08V311s4.71-.74 5.08.44z" style="transform-origin:344.46px 312.445px" id="el0c7w0ozfj8j" class="animable" fill="#ffc107"/><path d="M358.68 318.75V321l-2.82 1.62-2.08-1.2a10.62 10.62 0 01-8.07.36v-2.22l1.28-1.27-1.28.35a8.21 8.21 0 01-6.28-.72c-1.27-.73-1.85-1.52-1.85-2.34v-2.17l.23-.94-.81-.47v-2.23l2.08 1.21a3.24 3.24 0 00-1.54 2.39c0 .8.62 1.58 1.85 2.29 2.74 1.58 5.45 1.06 7.94.26 2.31-.75 4-1.64 5.33-.87.82.48.57 1.06-.36 1.6a4.65 4.65 0 01-4 .23l-2.66 2.64a9.37 9.37 0 001.47.43 11.05 11.05 0 006.6-.79l2.08 1.2z" style="transform-origin:347.84px 316.195px" id="eluvemyk339d" class="animable" fill="#ffc107"/><path style="transform-origin:354.815px 320.89px" id="el0nr5p17lf72" class="animable" fill="#ffc107" d="M353.77 319.18v2.22l2.09 1.2v-2.22l-2.09-1.2z"/><g style="transform-origin:347.84px 315.77px" class="animable" opacity=".5" id="el6iilzldlkfh"><path style="transform-origin:348.27px 311.52px" id="el1ui48o1rba3" class="animable" fill="#f5f5f5" d="M349.52 308.92v2.57l-.88.93-1.62 1.7v-2.68l2.5-2.52z"/><path d="M347 311.44v2.68h-5.08V311s4.71-.74 5.08.44z" style="transform-origin:344.46px 312.445px" id="elnv73f5v5fkq" class="animable" fill="#f5f5f5"/><path d="M358.68 318.75V321l-2.82 1.62-2.08-1.2a10.62 10.62 0 01-8.07.36v-2.22l1.28-1.27-1.28.35a8.21 8.21 0 01-6.28-.72c-1.27-.73-1.85-1.52-1.85-2.34v-2.17l.23-.94-.81-.47v-2.23l2.08 1.21a3.24 3.24 0 00-1.54 2.39c0 .8.62 1.58 1.85 2.29 2.74 1.58 5.45 1.06 7.94.26 2.31-.75 4-1.64 5.33-.87.82.48.57 1.06-.36 1.6a4.65 4.65 0 01-4 .23l-2.66 2.64a9.37 9.37 0 001.47.43 11.05 11.05 0 006.6-.79l2.08 1.2z" style="transform-origin:347.84px 316.195px" id="elw6mhuf9cdu9" class="animable" fill="#f5f5f5"/><path style="transform-origin:354.815px 320.89px" id="el44ihy6oexyv" class="animable" fill="#f5f5f5" d="M353.77 319.18v2.22l2.09 1.2v-2.22l-2.09-1.2z"/></g><path d="M358.2 318.48l-1.61-.93a2.74 2.74 0 001.61-2.47 1.55 1.55 0 000-.22 3 3 0 00-1.8-2.18 7.41 7.41 0 00-3.75-1h-1.32a16.72 16.72 0 00-1.82.38l-.86.25-1.17.38-.48.31a13.47 13.47 0 01-2.5.71 2.52 2.52 0 01-1.07 0 2.28 2.28 0 01-.51-.21c-.62-.36-.72-.92.46-1.6a4.12 4.12 0 013.62-.38l2.5-2.52a10.71 10.71 0 00-7.55.42l-2.09-1.2-2.86 1.56 2.09 1.2a3.19 3.19 0 00-1.55 2.39c0 .8.61 1.58 1.85 2.29 2.74 1.58 5.45 1.06 7.94.26 2.31-.76 4-1.64 5.32-.87.83.48.58 1.06-.35 1.59a4.58 4.58 0 01-4 .23l-2.66 2.65a9.37 9.37 0 001.47.43 11 11 0 006.59-.79l2.09 1.2 2.81-1.62z" style="transform-origin:347.8px 314.29px" id="el91bg2kuix0i" class="animable" fill="#ffc107"/><path d="M358.2 318.48l-1.61-.93a2.74 2.74 0 001.61-2.47 1.55 1.55 0 000-.22 3 3 0 00-1.8-2.18 7.41 7.41 0 00-3.75-1h-1.32a16.72 16.72 0 00-1.82.38l-.86.25-1.17.38-.48.31a13.47 13.47 0 01-2.5.71 2.52 2.52 0 01-1.07 0 2.28 2.28 0 01-.51-.21c-.62-.36-.72-.92.46-1.6a4.12 4.12 0 013.62-.38l2.5-2.52a10.71 10.71 0 00-7.55.42l-2.09-1.2-2.86 1.56 2.09 1.2a3.19 3.19 0 00-1.55 2.39c0 .8.61 1.58 1.85 2.29 2.74 1.58 5.45 1.06 7.94.26 2.31-.76 4-1.64 5.32-.87.83.48.58 1.06-.35 1.59a4.58 4.58 0 01-4 .23l-2.66 2.65a9.37 9.37 0 001.47.43 11 11 0 006.59-.79l2.09 1.2 2.81-1.62z" style="transform-origin:347.8px 314.29px" class="animable" fill="#f5f5f5" opacity=".7" id="eljxp3n3i6gkt"/><path d="M375.94 307.31a18.13 18.13 0 00-6.67-6.17c-10.91-6.29-28.59-6.29-39.49 0a18.13 18.13 0 00-6.67 6.17h-1.51V313c.2 4 2.92 7.89 8.16 10.92 10.9 6.3 28.58 6.3 39.49 0 5.24-3 8-7 8.16-10.92v-5.71z" style="transform-origin:349.505px 312.534px" id="el6wnq2hrr23v" class="animable" fill="#ffc107"/><path d="M375.94 307.31a18.13 18.13 0 00-6.67-6.17c-10.91-6.29-28.59-6.29-39.49 0a18.13 18.13 0 00-6.67 6.17h-1.51V313c.2 4 2.92 7.89 8.16 10.92 10.9 6.3 28.58 6.3 39.49 0 5.24-3 8-7 8.16-10.92v-5.71z" style="transform-origin:349.505px 312.534px" class="animable" fill="#f5f5f5" opacity=".5" id="elkwspm7s8g0d"/><path d="M369.27 295.91c-10.91-6.29-28.59-6.29-39.49 0s-10.9 16.51 0 22.8 28.58 6.3 39.49 0 10.9-16.5 0-22.8z" style="transform-origin:349.527px 307.312px" id="eltvwnklr1eij" class="animable" fill="#ffc107"/><path d="M369.27 295.91c-10.91-6.29-28.59-6.29-39.49 0s-10.9 16.51 0 22.8 28.58 6.3 39.49 0 10.9-16.5 0-22.8z" style="transform-origin:349.527px 307.312px" class="animable" fill="#f5f5f5" opacity=".6" id="eljv2ilj8fgnr"/><path d="M362.38 300.09a31.42 31.42 0 00-25.71 0C333 302 331 304.53 331 307.32s2 5.35 5.67 7.22a31.42 31.42 0 0025.71 0c3.65-1.87 5.67-4.44 5.67-7.22s-2.05-5.32-5.67-7.23z" style="transform-origin:349.525px 307.315px" id="ele0gwn5b1sfh" class="animable" fill="#ffc107"/><path d="M362.38 300.09a31.42 31.42 0 00-25.71 0C333 302 331 304.53 331 307.32s2 5.35 5.67 7.22a31.42 31.42 0 0025.71 0c3.65-1.87 5.67-4.44 5.67-7.22s-2.05-5.32-5.67-7.23z" style="transform-origin:349.525px 307.315px" class="animable" fill="#f5f5f5" opacity=".6" id="el7scck04dyx5"/><path d="M368.66 297c-5.09-2.94-11.89-4.56-19.14-4.56s-14 1.62-19.13 4.56c-4.89 2.82-7.57 6.49-7.57 10.35s2.68 7.52 7.57 10.34c5.09 2.94 11.88 4.56 19.13 4.56s14.05-1.62 19.14-4.56c4.88-2.82 7.57-6.49 7.57-10.34s-2.69-7.56-7.57-10.35zm-6.28 17.57a31.42 31.42 0 01-25.71 0c-3.66-1.87-5.67-4.44-5.67-7.22s2-5.36 5.67-7.23a31.42 31.42 0 0125.71 0c3.65 1.87 5.67 4.44 5.67 7.23s-2.05 5.32-5.67 7.19z" style="transform-origin:349.525px 307.345px" id="elcznhl5kp629" class="animable" fill="#ffc107"/><path d="M368.66 297c-5.09-2.94-11.89-4.56-19.14-4.56s-14 1.62-19.13 4.56c-4.89 2.82-7.57 6.49-7.57 10.35s2.68 7.52 7.57 10.34c5.09 2.94 11.88 4.56 19.13 4.56s14.05-1.62 19.14-4.56c4.88-2.82 7.57-6.49 7.57-10.34s-2.69-7.56-7.57-10.35zm-6.28 17.57a31.42 31.42 0 01-25.71 0c-3.66-1.87-5.67-4.44-5.67-7.22s2-5.36 5.67-7.23a31.42 31.42 0 0125.71 0c3.65 1.87 5.67 4.44 5.67 7.23s-2.05 5.32-5.67 7.19z" style="transform-origin:349.525px 307.345px" class="animable" fill="#f5f5f5" opacity=".7" id="elukg0agkzeea"/><ellipse cx="349.52" cy="307.31" rx="17.56" ry="9.01" style="transform-origin:349.52px 307.31px" id="ela8o1ninh8fg" class="animable" fill="#ffc107"/><ellipse cx="349.52" cy="307.31" rx="17.56" ry="9.01" style="transform-origin:349.52px 307.31px" class="animable" fill="#f5f5f5" opacity=".5" id="el9yg8bqhbrvt"/><path d="M361.94 303.33c-6.86-3.52-18-3.52-24.83 0-2.84 1.45-4.5 3.28-5 5.18.49 1.89 2.15 3.72 5 5.18 6.85 3.51 18 3.51 24.83 0 2.84-1.46 4.5-3.29 5-5.18-.5-1.9-2.16-3.73-5-5.18z" style="transform-origin:349.525px 308.506px" id="elkd9dr2hct1k" class="animable" fill="#ffc107"/><path d="M361.94 303.33c-6.86-3.52-18-3.52-24.83 0-2.84 1.45-4.5 3.28-5 5.18.49 1.89 2.15 3.72 5 5.18 6.85 3.51 18 3.51 24.83 0 2.84-1.46 4.5-3.29 5-5.18-.5-1.9-2.16-3.73-5-5.18z" style="transform-origin:349.525px 308.506px" class="animable" fill="#f5f5f5" opacity=".6" id="elisghv3194e"/><path style="transform-origin:349.935px 303.68px" id="elsphu9ck0sv" class="animable" fill="#ffc107" d="M351.19 301.08v2.57l-.88.93-1.63 1.7v-2.68l2.51-2.52z"/><path d="M348.68 303.6v2.68h-5.08v-3.14s4.7-.72 5.08.46z" style="transform-origin:346.14px 304.601px" id="el52bv02h5wjw" class="animable" fill="#ffc107"/><path d="M360.34 310.91v2.23l-2.82 1.62-2.08-1.2a10.61 10.61 0 01-8.07.36v-2.22l1.28-1.27-1.28.35a8.21 8.21 0 01-6.28-.72c-1.26-.73-1.85-1.52-1.85-2.34v-2.17l.23-.94-.77-.45v-2.23l2.09 1.21a3.23 3.23 0 00-1.55 2.39c0 .8.62 1.58 1.85 2.29 2.74 1.58 5.45 1.06 7.94.26 2.31-.75 4-1.64 5.33-.87.83.48.57 1.06-.35 1.6a4.65 4.65 0 01-4 .23l-2.67 2.64a9.69 9.69 0 001.47.43 11 11 0 006.6-.8l2.08 1.21z" style="transform-origin:349.52px 308.345px" id="eltqzi4yb496i" class="animable" fill="#ffc107"/><path style="transform-origin:356.48px 313.045px" id="elnybz63p6ve" class="animable" fill="#ffc107" d="M355.44 311.33v2.23l2.08 1.2v-2.22l-2.08-1.21z"/><g style="transform-origin:349.52px 307.92px" class="animable" opacity=".5" id="elubqokcr69z"><path style="transform-origin:349.935px 303.68px" id="el0ushi6umyzd" class="animable" fill="#f5f5f5" d="M351.19 301.08v2.57l-.88.93-1.63 1.7v-2.68l2.51-2.52z"/><path d="M348.68 303.6v2.68h-5.08v-3.14s4.7-.72 5.08.46z" style="transform-origin:346.14px 304.601px" id="elkl69nc4bqre" class="animable" fill="#f5f5f5"/><path d="M360.34 310.91v2.23l-2.82 1.62-2.08-1.2a10.61 10.61 0 01-8.07.36v-2.22l1.28-1.27-1.28.35a8.21 8.21 0 01-6.28-.72c-1.26-.73-1.85-1.52-1.85-2.34v-2.17l.23-.94-.77-.45v-2.23l2.09 1.21a3.23 3.23 0 00-1.55 2.39c0 .8.62 1.58 1.85 2.29 2.74 1.58 5.45 1.06 7.94.26 2.31-.75 4-1.64 5.33-.87.83.48.57 1.06-.35 1.6a4.65 4.65 0 01-4 .23l-2.67 2.64a9.69 9.69 0 001.47.43 11 11 0 006.6-.8l2.08 1.21z" style="transform-origin:349.52px 308.345px" id="elxb7mte6uqbn" class="animable" fill="#f5f5f5"/><path style="transform-origin:356.48px 313.045px" id="elpbtt7bgxy9l" class="animable" fill="#f5f5f5" d="M355.44 311.33v2.23l2.08 1.2v-2.22l-2.08-1.21z"/></g><path d="M359.87 310.64l-1.61-.93a2.74 2.74 0 001.61-2.47 1.5 1.5 0 000-.22c-.07-.77-.63-1.51-1.8-2.18a7.4 7.4 0 00-3.74-1h-1.3a17.23 17.23 0 00-1.82.38l-.85.25-1.18.38-.45.16a13.27 13.27 0 01-2.5.71 2.52 2.52 0 01-1.07 0 2.21 2.21 0 01-.5-.21c-.63-.36-.73-.92.45-1.6a4.12 4.12 0 013.62-.38l2.51-2.52a10.73 10.73 0 00-7.56.42l-2.09-1.2-2.84 1.64 2.09 1.2a3.21 3.21 0 00-1.55 2.39c0 .8.61 1.58 1.85 2.29 2.74 1.58 5.46 1.06 7.94.26 2.31-.76 4-1.64 5.33-.88.83.49.57 1.07-.35 1.6a4.58 4.58 0 01-4 .23l-2.67 2.65a9.69 9.69 0 001.47.43 11 11 0 006.6-.8l2.08 1.21 2.82-1.62z" style="transform-origin:349.555px 306.34px" id="elka5dfq1cvh8" class="animable" fill="#ffc107"/><path d="M359.87 310.64l-1.61-.93a2.74 2.74 0 001.61-2.47 1.5 1.5 0 000-.22c-.07-.77-.63-1.51-1.8-2.18a7.4 7.4 0 00-3.74-1h-1.3a17.23 17.23 0 00-1.82.38l-.85.25-1.18.38-.45.16a13.27 13.27 0 01-2.5.71 2.52 2.52 0 01-1.07 0 2.21 2.21 0 01-.5-.21c-.63-.36-.73-.92.45-1.6a4.12 4.12 0 013.62-.38l2.51-2.52a10.73 10.73 0 00-7.56.42l-2.09-1.2-2.84 1.64 2.09 1.2a3.21 3.21 0 00-1.55 2.39c0 .8.61 1.58 1.85 2.29 2.74 1.58 5.46 1.06 7.94.26 2.31-.76 4-1.64 5.33-.88.83.49.57 1.07-.35 1.6a4.58 4.58 0 01-4 .23l-2.67 2.65a9.69 9.69 0 001.47.43 11 11 0 006.6-.8l2.08 1.21 2.82-1.62z" style="transform-origin:349.555px 306.34px" class="animable" fill="#f5f5f5" opacity=".7" id="elmhz1wp5ydni"/><path d="M374.28 315.15a18.13 18.13 0 00-6.67-6.17c-10.91-6.29-28.59-6.29-39.49 0a18 18 0 00-6.67 6.17h-1.51v5.71c.2 4 2.91 7.89 8.16 10.92 10.9 6.3 28.58 6.3 39.49 0 5.24-3 7.95-7 8.15-10.92v-5.71z" style="transform-origin:347.84px 320.384px" id="elo422sk34tv" class="animable" fill="#ffc107"/><path d="M374.28 315.15a18.13 18.13 0 00-6.67-6.17c-10.91-6.29-28.59-6.29-39.49 0a18 18 0 00-6.67 6.17h-1.51v5.71c.2 4 2.91 7.89 8.16 10.92 10.9 6.3 28.58 6.3 39.49 0 5.24-3 7.95-7 8.15-10.92v-5.71z" style="transform-origin:347.84px 320.384px" class="animable" fill="#f5f5f5" opacity=".5" id="el5qqu87hpng5"/><path d="M367.61 303.75c-10.91-6.29-28.59-6.29-39.49 0s-10.91 16.51 0 22.8 28.58 6.3 39.49 0 10.9-16.5 0-22.8z" style="transform-origin:347.865px 315.152px" id="elqf14e5tu73" class="animable" fill="#ffc107"/><path d="M367.61 303.75c-10.91-6.29-28.59-6.29-39.49 0s-10.91 16.51 0 22.8 28.58 6.3 39.49 0 10.9-16.5 0-22.8z" style="transform-origin:347.865px 315.152px" class="animable" fill="#f5f5f5" opacity=".6" id="eldgmcxzvtxmv"/><path d="M360.72 307.93a31.44 31.44 0 00-25.72 0c-3.65 1.87-5.66 4.44-5.66 7.23s2 5.35 5.66 7.22a31.44 31.44 0 0025.72 0c3.65-1.87 5.66-4.44 5.66-7.22s-2.01-5.36-5.66-7.23z" style="transform-origin:347.86px 315.155px" id="elp8vf6sriq7" class="animable" fill="#ffc107"/><path d="M360.72 307.93a31.44 31.44 0 00-25.72 0c-3.65 1.87-5.66 4.44-5.66 7.23s2 5.35 5.66 7.22a31.44 31.44 0 0025.72 0c3.65-1.87 5.66-4.44 5.66-7.22s-2.01-5.36-5.66-7.23z" style="transform-origin:347.86px 315.155px" class="animable" fill="#f5f5f5" opacity=".6" id="el417gsp7886l"/><path d="M367 304.81c-5.09-2.94-11.89-4.56-19.14-4.56s-14 1.62-19.13 4.56c-4.89 2.82-7.57 6.49-7.57 10.35s2.68 7.52 7.57 10.34c5.09 2.94 11.88 4.56 19.13 4.56s14.05-1.62 19.14-4.56c4.88-2.82 7.57-6.49 7.57-10.34s-2.69-7.53-7.57-10.35zm-6.28 17.57a31.44 31.44 0 01-25.72 0c-3.65-1.87-5.66-4.44-5.66-7.22s2-5.36 5.66-7.23a31.44 31.44 0 0125.72 0c3.65 1.87 5.66 4.44 5.66 7.23s-2.01 5.35-5.66 7.22z" style="transform-origin:347.865px 315.155px" id="eluzrsg1j4wp" class="animable" fill="#ffc107"/><path d="M367 304.81c-5.09-2.94-11.89-4.56-19.14-4.56s-14 1.62-19.13 4.56c-4.89 2.82-7.57 6.49-7.57 10.35s2.68 7.52 7.57 10.34c5.09 2.94 11.88 4.56 19.13 4.56s14.05-1.62 19.14-4.56c4.88-2.82 7.57-6.49 7.57-10.34s-2.69-7.53-7.57-10.35zm-6.28 17.57a31.44 31.44 0 01-25.72 0c-3.65-1.87-5.66-4.44-5.66-7.22s2-5.36 5.66-7.23a31.44 31.44 0 0125.72 0c3.65 1.87 5.66 4.44 5.66 7.23s-2.01 5.35-5.66 7.22z" style="transform-origin:347.865px 315.155px" class="animable" fill="#f5f5f5" opacity=".7" id="elvbm5hok0ico"/><path d="M360.28 321.53c6.86-3.52 6.86-9.23 0-12.75s-18-3.52-24.84 0-6.86 9.23 0 12.75 17.98 3.52 24.84 0z" style="transform-origin:347.864px 315.155px" id="el55rdrf0g1ao" class="animable" fill="#ffc107"/><path d="M360.28 321.53c6.86-3.52 6.86-9.23 0-12.75s-18-3.52-24.84 0-6.86 9.23 0 12.75 17.98 3.52 24.84 0z" style="transform-origin:347.864px 315.155px" class="animable" fill="#f5f5f5" opacity=".5" id="eluvbfvcsugn8"/><path d="M360.28 311.17c-6.86-3.52-18-3.52-24.84 0-2.83 1.45-4.49 3.28-5 5.18.49 1.89 2.15 3.72 5 5.18 6.86 3.52 18 3.52 24.84 0 2.84-1.46 4.49-3.29 5-5.18-.51-1.9-2.16-3.73-5-5.18z" style="transform-origin:347.86px 316.35px" id="el3lnzim60i2b" class="animable" fill="#ffc107"/><path d="M360.28 311.17c-6.86-3.52-18-3.52-24.84 0-2.83 1.45-4.49 3.28-5 5.18.49 1.89 2.15 3.72 5 5.18 6.86 3.52 18 3.52 24.84 0 2.84-1.46 4.49-3.29 5-5.18-.51-1.9-2.16-3.73-5-5.18z" style="transform-origin:347.86px 316.35px" class="animable" fill="#f5f5f5" opacity=".6" id="elj4v5lb8gk4p"/><path style="transform-origin:348.27px 311.52px" id="eld71scprm06q" class="animable" fill="#ffc107" d="M349.52 308.92v2.57l-.88.93-1.62 1.7v-2.68l2.5-2.52z"/><path d="M347 311.44v2.68h-5.08V311s4.71-.74 5.08.44z" style="transform-origin:344.46px 312.445px" id="el7kg983x9cyg" class="animable" fill="#ffc107"/><path d="M358.68 318.75V321l-2.82 1.62-2.08-1.2a10.62 10.62 0 01-8.07.36v-2.22l1.28-1.27-1.28.35a8.21 8.21 0 01-6.28-.72c-1.27-.73-1.85-1.52-1.85-2.34v-2.17l.23-.94-.81-.47v-2.23l2.08 1.21a3.24 3.24 0 00-1.54 2.39c0 .8.62 1.58 1.85 2.29 2.74 1.58 5.45 1.06 7.94.26 2.31-.75 4-1.64 5.33-.87.82.48.57 1.06-.36 1.6a4.65 4.65 0 01-4 .23l-2.66 2.64a9.37 9.37 0 001.47.43 11.05 11.05 0 006.6-.79l2.08 1.2z" style="transform-origin:347.84px 316.195px" id="eldh5tf1tzfnb" class="animable" fill="#ffc107"/><path style="transform-origin:354.815px 320.89px" id="eltbuipi4ktu9" class="animable" fill="#ffc107" d="M353.77 319.18v2.22l2.09 1.2v-2.22l-2.09-1.2z"/><g style="transform-origin:347.84px 315.77px" class="animable" opacity=".5" id="eloesqlar2kus"><path style="transform-origin:348.27px 311.52px" id="elwhkppzkh4e8" class="animable" fill="#f5f5f5" d="M349.52 308.92v2.57l-.88.93-1.62 1.7v-2.68l2.5-2.52z"/><path d="M347 311.44v2.68h-5.08V311s4.71-.74 5.08.44z" style="transform-origin:344.46px 312.445px" id="elwarxssfxtu" class="animable" fill="#f5f5f5"/><path d="M358.68 318.75V321l-2.82 1.62-2.08-1.2a10.62 10.62 0 01-8.07.36v-2.22l1.28-1.27-1.28.35a8.21 8.21 0 01-6.28-.72c-1.27-.73-1.85-1.52-1.85-2.34v-2.17l.23-.94-.81-.47v-2.23l2.08 1.21a3.24 3.24 0 00-1.54 2.39c0 .8.62 1.58 1.85 2.29 2.74 1.58 5.45 1.06 7.94.26 2.31-.75 4-1.64 5.33-.87.82.48.57 1.06-.36 1.6a4.65 4.65 0 01-4 .23l-2.66 2.64a9.37 9.37 0 001.47.43 11.05 11.05 0 006.6-.79l2.08 1.2z" style="transform-origin:347.84px 316.195px" id="eltm1vuat6pw" class="animable" fill="#f5f5f5"/><path style="transform-origin:354.815px 320.89px" id="elzpc2daqm0i7" class="animable" fill="#f5f5f5" d="M353.77 319.18v2.22l2.09 1.2v-2.22l-2.09-1.2z"/></g><path d="M358.2 318.48l-1.61-.93a2.74 2.74 0 001.61-2.47 1.55 1.55 0 000-.22 3 3 0 00-1.8-2.18 7.41 7.41 0 00-3.75-1h-1.32a16.72 16.72 0 00-1.82.38l-.86.25-1.17.38-.48.31a13.47 13.47 0 01-2.5.71 2.52 2.52 0 01-1.07 0 2.28 2.28 0 01-.51-.21c-.62-.36-.72-.92.46-1.6a4.12 4.12 0 013.62-.38l2.5-2.52a10.71 10.71 0 00-7.55.42l-2.09-1.2-2.86 1.56 2.09 1.2a3.19 3.19 0 00-1.55 2.39c0 .8.61 1.58 1.85 2.29 2.74 1.58 5.45 1.06 7.94.26 2.31-.76 4-1.64 5.32-.87.83.48.58 1.06-.35 1.59a4.58 4.58 0 01-4 .23l-2.66 2.65a9.37 9.37 0 001.47.43 11 11 0 006.59-.79l2.09 1.2 2.81-1.62z" style="transform-origin:347.8px 314.29px" id="elmjp8zyg6xi" class="animable" fill="#ffc107"/><path d="M358.2 318.48l-1.61-.93a2.74 2.74 0 001.61-2.47 1.55 1.55 0 000-.22 3 3 0 00-1.8-2.18 7.41 7.41 0 00-3.75-1h-1.32a16.72 16.72 0 00-1.82.38l-.86.25-1.17.38-.48.31a13.47 13.47 0 01-2.5.71 2.52 2.52 0 01-1.07 0 2.28 2.28 0 01-.51-.21c-.62-.36-.72-.92.46-1.6a4.12 4.12 0 013.62-.38l2.5-2.52a10.71 10.71 0 00-7.55.42l-2.09-1.2-2.86 1.56 2.09 1.2a3.19 3.19 0 00-1.55 2.39c0 .8.61 1.58 1.85 2.29 2.74 1.58 5.45 1.06 7.94.26 2.31-.76 4-1.64 5.32-.87.83.48.58 1.06-.35 1.59a4.58 4.58 0 01-4 .23l-2.66 2.65a9.37 9.37 0 001.47.43 11 11 0 006.59-.79l2.09 1.2 2.81-1.62z" style="transform-origin:347.8px 314.29px" class="animable" fill="#f5f5f5" opacity=".7" id="elkrmx7awu5g"/><path d="M375.94 307.31a18.13 18.13 0 00-6.67-6.17c-10.91-6.29-28.59-6.29-39.49 0a18.13 18.13 0 00-6.67 6.17h-1.51V313c.2 4 2.92 7.89 8.16 10.92 10.9 6.3 28.58 6.3 39.49 0 5.24-3 8-7 8.16-10.92v-5.71z" style="transform-origin:349.505px 312.534px" id="elu42x7mitrd" class="animable" fill="#ffc107"/><path d="M375.94 307.31a18.13 18.13 0 00-6.67-6.17c-10.91-6.29-28.59-6.29-39.49 0a18.13 18.13 0 00-6.67 6.17h-1.51V313c.2 4 2.92 7.89 8.16 10.92 10.9 6.3 28.58 6.3 39.49 0 5.24-3 8-7 8.16-10.92v-5.71z" style="transform-origin:349.505px 312.534px" class="animable" fill="#f5f5f5" opacity=".5" id="elfotk8xh7kpl"/><path d="M369.27 295.91c-10.91-6.29-28.59-6.29-39.49 0s-10.9 16.51 0 22.8 28.58 6.3 39.49 0 10.9-16.5 0-22.8z" style="transform-origin:349.527px 307.312px" id="elo8pmonlqskb" class="animable" fill="#ffc107"/><path d="M369.27 295.91c-10.91-6.29-28.59-6.29-39.49 0s-10.9 16.51 0 22.8 28.58 6.3 39.49 0 10.9-16.5 0-22.8z" style="transform-origin:349.527px 307.312px" class="animable" fill="#f5f5f5" opacity=".6" id="el1s3m24v1rme"/><path d="M362.38 300.09a31.42 31.42 0 00-25.71 0C333 302 331 304.53 331 307.32s2 5.35 5.67 7.22a31.42 31.42 0 0025.71 0c3.65-1.87 5.67-4.44 5.67-7.22s-2.05-5.32-5.67-7.23z" style="transform-origin:349.525px 307.315px" id="el7hmqufj6f5t" class="animable" fill="#ffc107"/><path d="M362.38 300.09a31.42 31.42 0 00-25.71 0C333 302 331 304.53 331 307.32s2 5.35 5.67 7.22a31.42 31.42 0 0025.71 0c3.65-1.87 5.67-4.44 5.67-7.22s-2.05-5.32-5.67-7.23z" style="transform-origin:349.525px 307.315px" class="animable" fill="#f5f5f5" opacity=".6" id="elo0b53mns38h"/><path d="M368.66 297c-5.09-2.94-11.89-4.56-19.14-4.56s-14 1.62-19.13 4.56c-4.89 2.82-7.57 6.49-7.57 10.35s2.68 7.52 7.57 10.34c5.09 2.94 11.88 4.56 19.13 4.56s14.05-1.62 19.14-4.56c4.88-2.82 7.57-6.49 7.57-10.34s-2.69-7.56-7.57-10.35zm-6.28 17.57a31.42 31.42 0 01-25.71 0c-3.66-1.87-5.67-4.44-5.67-7.22s2-5.36 5.67-7.23a31.42 31.42 0 0125.71 0c3.65 1.87 5.67 4.44 5.67 7.23s-2.05 5.32-5.67 7.19z" style="transform-origin:349.525px 307.345px" id="elr50tm6p6nro" class="animable" fill="#ffc107"/><path d="M368.66 297c-5.09-2.94-11.89-4.56-19.14-4.56s-14 1.62-19.13 4.56c-4.89 2.82-7.57 6.49-7.57 10.35s2.68 7.52 7.57 10.34c5.09 2.94 11.88 4.56 19.13 4.56s14.05-1.62 19.14-4.56c4.88-2.82 7.57-6.49 7.57-10.34s-2.69-7.56-7.57-10.35zm-6.28 17.57a31.42 31.42 0 01-25.71 0c-3.66-1.87-5.67-4.44-5.67-7.22s2-5.36 5.67-7.23a31.42 31.42 0 0125.71 0c3.65 1.87 5.67 4.44 5.67 7.23s-2.05 5.32-5.67 7.19z" style="transform-origin:349.525px 307.345px" class="animable" fill="#f5f5f5" opacity=".7" id="elnmnirxmw8m"/><ellipse cx="349.52" cy="307.31" rx="17.56" ry="9.01" style="transform-origin:349.52px 307.31px" id="el9ewvtyljrpu" class="animable" fill="#ffc107"/><ellipse cx="349.52" cy="307.31" rx="17.56" ry="9.01" style="transform-origin:349.52px 307.31px" class="animable" fill="#f5f5f5" opacity=".5" id="elpia4jw235em"/><path d="M361.94 303.33c-6.86-3.52-18-3.52-24.83 0-2.84 1.45-4.5 3.28-5 5.18.49 1.89 2.15 3.72 5 5.18 6.85 3.51 18 3.51 24.83 0 2.84-1.46 4.5-3.29 5-5.18-.5-1.9-2.16-3.73-5-5.18z" style="transform-origin:349.525px 308.506px" id="eltw2oct7fbn" class="animable" fill="#ffc107"/><path d="M361.94 303.33c-6.86-3.52-18-3.52-24.83 0-2.84 1.45-4.5 3.28-5 5.18.49 1.89 2.15 3.72 5 5.18 6.85 3.51 18 3.51 24.83 0 2.84-1.46 4.5-3.29 5-5.18-.5-1.9-2.16-3.73-5-5.18z" style="transform-origin:349.525px 308.506px" class="animable" fill="#f5f5f5" opacity=".6" id="elojg5iv9abr"/><path style="transform-origin:349.935px 303.68px" id="eljn2gxinv45j" class="animable" fill="#ffc107" d="M351.19 301.08v2.57l-.88.93-1.63 1.7v-2.68l2.51-2.52z"/><path d="M348.68 303.6v2.68h-5.08v-3.14s4.7-.72 5.08.46z" style="transform-origin:346.14px 304.601px" id="elw4fk52gr5ch" class="animable" fill="#ffc107"/><path d="M360.34 310.91v2.23l-2.82 1.62-2.08-1.2a10.61 10.61 0 01-8.07.36v-2.22l1.28-1.27-1.28.35a8.21 8.21 0 01-6.28-.72c-1.26-.73-1.85-1.52-1.85-2.34v-2.17l.23-.94-.77-.45v-2.23l2.09 1.21a3.23 3.23 0 00-1.55 2.39c0 .8.62 1.58 1.85 2.29 2.74 1.58 5.45 1.06 7.94.26 2.31-.75 4-1.64 5.33-.87.83.48.57 1.06-.35 1.6a4.65 4.65 0 01-4 .23l-2.67 2.64a9.69 9.69 0 001.47.43 11 11 0 006.6-.8l2.08 1.21z" style="transform-origin:349.52px 308.345px" id="elcatycehv86u" class="animable" fill="#ffc107"/><path style="transform-origin:356.48px 313.045px" id="el3b3u8aa5mt7" class="animable" fill="#ffc107" d="M355.44 311.33v2.23l2.08 1.2v-2.22l-2.08-1.21z"/><g style="transform-origin:349.52px 307.92px" class="animable" opacity=".5" id="elaai6zhqxmqq"><path style="transform-origin:349.935px 303.68px" id="el0s0z1eokq20e" class="animable" fill="#f5f5f5" d="M351.19 301.08v2.57l-.88.93-1.63 1.7v-2.68l2.51-2.52z"/><path d="M348.68 303.6v2.68h-5.08v-3.14s4.7-.72 5.08.46z" style="transform-origin:346.14px 304.601px" id="elhm8cbaa1xww" class="animable" fill="#f5f5f5"/><path d="M360.34 310.91v2.23l-2.82 1.62-2.08-1.2a10.61 10.61 0 01-8.07.36v-2.22l1.28-1.27-1.28.35a8.21 8.21 0 01-6.28-.72c-1.26-.73-1.85-1.52-1.85-2.34v-2.17l.23-.94-.77-.45v-2.23l2.09 1.21a3.23 3.23 0 00-1.55 2.39c0 .8.62 1.58 1.85 2.29 2.74 1.58 5.45 1.06 7.94.26 2.31-.75 4-1.64 5.33-.87.83.48.57 1.06-.35 1.6a4.65 4.65 0 01-4 .23l-2.67 2.64a9.69 9.69 0 001.47.43 11 11 0 006.6-.8l2.08 1.21z" style="transform-origin:349.52px 308.345px" id="elrwzwky2l5if" class="animable" fill="#f5f5f5"/><path style="transform-origin:356.48px 313.045px" id="el5m4idh2urby" class="animable" fill="#f5f5f5" d="M355.44 311.33v2.23l2.08 1.2v-2.22l-2.08-1.21z"/></g><path d="M359.87 310.64l-1.61-.93a2.74 2.74 0 001.61-2.47 1.5 1.5 0 000-.22c-.07-.77-.63-1.51-1.8-2.18a7.4 7.4 0 00-3.74-1h-1.3a17.23 17.23 0 00-1.82.38l-.85.25-1.18.38-.45.16a13.27 13.27 0 01-2.5.71 2.52 2.52 0 01-1.07 0 2.21 2.21 0 01-.5-.21c-.63-.36-.73-.92.45-1.6a4.12 4.12 0 013.62-.38l2.51-2.52a10.73 10.73 0 00-7.56.42l-2.09-1.2-2.84 1.64 2.09 1.2a3.21 3.21 0 00-1.55 2.39c0 .8.61 1.58 1.85 2.29 2.74 1.58 5.46 1.06 7.94.26 2.31-.76 4-1.64 5.33-.88.83.49.57 1.07-.35 1.6a4.58 4.58 0 01-4 .23l-2.67 2.65a9.69 9.69 0 001.47.43 11 11 0 006.6-.8l2.08 1.21 2.82-1.62z" style="transform-origin:349.555px 306.34px" id="ele7sdsroyvp" class="animable" fill="#ffc107"/><path d="M359.87 310.64l-1.61-.93a2.74 2.74 0 001.61-2.47 1.5 1.5 0 000-.22c-.07-.77-.63-1.51-1.8-2.18a7.4 7.4 0 00-3.74-1h-1.3a17.23 17.23 0 00-1.82.38l-.85.25-1.18.38-.45.16a13.27 13.27 0 01-2.5.71 2.52 2.52 0 01-1.07 0 2.21 2.21 0 01-.5-.21c-.63-.36-.73-.92.45-1.6a4.12 4.12 0 013.62-.38l2.51-2.52a10.73 10.73 0 00-7.56.42l-2.09-1.2-2.84 1.64 2.09 1.2a3.21 3.21 0 00-1.55 2.39c0 .8.61 1.58 1.85 2.29 2.74 1.58 5.46 1.06 7.94.26 2.31-.76 4-1.64 5.33-.88.83.49.57 1.07-.35 1.6a4.58 4.58 0 01-4 .23l-2.67 2.65a9.69 9.69 0 001.47.43 11 11 0 006.6-.8l2.08 1.21 2.82-1.62z" style="transform-origin:349.555px 306.34px" class="animable" fill="#f5f5f5" opacity=".7" id="elku1cpvx8m8i"/><path d="M137.94 230.31a18.13 18.13 0 00-6.67-6.17c-10.91-6.29-28.59-6.29-39.49 0a18.13 18.13 0 00-6.67 6.17H83.6V236c.2 4 2.92 7.89 8.16 10.92 10.9 6.3 28.58 6.3 39.49 0 5.24-3 8-7 8.16-10.92v-5.71z" style="transform-origin:111.505px 235.534px" id="eloyp0p5bc0k" class="animable" fill="#ffc107"/><path d="M137.94 230.31a18.13 18.13 0 00-6.67-6.17c-10.91-6.29-28.59-6.29-39.49 0a18.13 18.13 0 00-6.67 6.17H83.6V236c.2 4 2.92 7.89 8.16 10.92 10.9 6.3 28.58 6.3 39.49 0 5.24-3 8-7 8.16-10.92v-5.71z" style="transform-origin:111.505px 235.534px" class="animable" fill="#f5f5f5" opacity=".5" id="el6jphjsiyc79"/><path d="M131.27 218.91c-10.91-6.29-28.59-6.29-39.49 0s-10.9 16.51 0 22.8 28.58 6.3 39.49 0 10.9-16.5 0-22.8z" style="transform-origin:111.527px 230.312px" id="elojwfntsr88d" class="animable" fill="#ffc107"/><path d="M131.27 218.91c-10.91-6.29-28.59-6.29-39.49 0s-10.9 16.51 0 22.8 28.58 6.3 39.49 0 10.9-16.5 0-22.8z" style="transform-origin:111.527px 230.312px" class="animable" fill="#f5f5f5" opacity=".6" id="el1b87ji6ck4m"/><path d="M124.38 223.09a28.81 28.81 0 00-12.86-2.75 28.79 28.79 0 00-12.85 2.75C95 225 93 227.53 93 230.32s2 5.35 5.67 7.22a28.79 28.79 0 0012.85 2.75 28.81 28.81 0 0012.86-2.75c3.65-1.87 5.67-4.44 5.67-7.22s-2.05-5.32-5.67-7.23z" style="transform-origin:111.525px 230.315px" id="elsi9y80upe3" class="animable" fill="#ffc107"/><path d="M124.38 223.09a28.81 28.81 0 00-12.86-2.75 28.79 28.79 0 00-12.85 2.75C95 225 93 227.53 93 230.32s2 5.35 5.67 7.22a28.79 28.79 0 0012.85 2.75 28.81 28.81 0 0012.86-2.75c3.65-1.87 5.67-4.44 5.67-7.22s-2.05-5.32-5.67-7.23z" style="transform-origin:111.525px 230.315px" class="animable" fill="#f5f5f5" opacity=".6" id="ellvtunt7q1ro"/><path d="M130.66 220c-5.09-2.94-11.89-4.56-19.14-4.56S97.48 217 92.39 220c-4.89 2.82-7.57 6.49-7.57 10.35s2.68 7.52 7.57 10.34c5.09 2.94 11.88 4.56 19.13 4.56s14-1.62 19.14-4.56c4.88-2.82 7.57-6.49 7.57-10.34s-2.69-7.56-7.57-10.35zm-6.28 17.57a28.81 28.81 0 01-12.86 2.75 28.79 28.79 0 01-12.85-2.75C95 235.67 93 233.1 93 230.32s2-5.36 5.67-7.23a28.79 28.79 0 0112.85-2.75 28.81 28.81 0 0112.86 2.75c3.65 1.87 5.67 4.44 5.67 7.23s-2.05 5.35-5.67 7.22z" style="transform-origin:111.525px 230.345px" id="elbtlipnavobr" class="animable" fill="#ffc107"/><path d="M130.66 220c-5.09-2.94-11.89-4.56-19.14-4.56S97.48 217 92.39 220c-4.89 2.82-7.57 6.49-7.57 10.35s2.68 7.52 7.57 10.34c5.09 2.94 11.88 4.56 19.13 4.56s14-1.62 19.14-4.56c4.88-2.82 7.57-6.49 7.57-10.34s-2.69-7.56-7.57-10.35zm-6.28 17.57a28.81 28.81 0 01-12.86 2.75 28.79 28.79 0 01-12.85-2.75C95 235.67 93 233.1 93 230.32s2-5.36 5.67-7.23a28.79 28.79 0 0112.85-2.75 28.81 28.81 0 0112.86 2.75c3.65 1.87 5.67 4.44 5.67 7.23s-2.05 5.35-5.67 7.22z" style="transform-origin:111.525px 230.345px" class="animable" fill="#f5f5f5" opacity=".7" id="el6b48yncwodg"/><ellipse cx="111.52" cy="230.31" rx="17.56" ry="9.01" style="transform-origin:111.52px 230.31px" id="elmwi5rsfcems" class="animable" fill="#ffc107"/><ellipse cx="111.52" cy="230.31" rx="17.56" ry="9.01" style="transform-origin:111.52px 230.31px" class="animable" fill="#f5f5f5" opacity=".5" id="elhum9bkutfvf"/><path d="M123.94 226.33c-6.86-3.52-18-3.52-24.83 0-2.84 1.45-4.5 3.28-5 5.18.49 1.89 2.15 3.72 5 5.18 6.85 3.51 18 3.51 24.83 0 2.84-1.46 4.5-3.29 5-5.18-.5-1.9-2.16-3.73-5-5.18z" style="transform-origin:111.525px 231.506px" id="elgxtjiqiejqb" class="animable" fill="#ffc107"/><path d="M123.94 226.33c-6.86-3.52-18-3.52-24.83 0-2.84 1.45-4.5 3.28-5 5.18.49 1.89 2.15 3.72 5 5.18 6.85 3.51 18 3.51 24.83 0 2.84-1.46 4.5-3.29 5-5.18-.5-1.9-2.16-3.73-5-5.18z" style="transform-origin:111.525px 231.506px" class="animable" fill="#f5f5f5" opacity=".6" id="elzsrzmwtn8i"/><path style="transform-origin:111.935px 226.68px" id="el701zkuwebwt" class="animable" fill="#ffc107" d="M113.19 224.08v2.57l-.88.93-1.63 1.7v-2.68l2.51-2.52z"/><path d="M110.68 226.6v2.68h-5.08v-3.14s4.7-.72 5.08.46z" style="transform-origin:108.14px 227.601px" id="elm6g9s8zcwbk" class="animable" fill="#ffc107"/><path d="M122.34 233.91v2.23l-2.82 1.62-2.08-1.2a10.61 10.61 0 01-8.07.36v-2.22l1.28-1.27-1.28.35a8.21 8.21 0 01-6.28-.72c-1.26-.73-1.85-1.52-1.85-2.34v-2.17l.23-.94-.77-.45v-2.23l2.09 1.21a3.23 3.23 0 00-1.55 2.39c0 .8.62 1.58 1.85 2.29 2.74 1.58 5.45 1.06 7.94.26 2.31-.75 4-1.64 5.33-.87.83.48.58 1.06-.35 1.6a4.65 4.65 0 01-4 .23l-2.67 2.64a9.69 9.69 0 001.47.43 11 11 0 006.6-.8l2.08 1.21z" style="transform-origin:111.52px 231.345px" id="elwtshwu9ryad" class="animable" fill="#ffc107"/><path style="transform-origin:118.48px 236.05px" id="elm3rad4rzyn" class="animable" fill="#ffc107" d="M117.44 234.34v2.22l2.08 1.2v-2.22l-2.08-1.2z"/><g style="transform-origin:111.52px 230.92px" class="animable" opacity=".5" id="elhewudygsp5"><path style="transform-origin:111.935px 226.68px" id="eldw0v037tf4w" class="animable" fill="#f5f5f5" d="M113.19 224.08v2.57l-.88.93-1.63 1.7v-2.68l2.51-2.52z"/><path d="M110.68 226.6v2.68h-5.08v-3.14s4.7-.72 5.08.46z" style="transform-origin:108.14px 227.601px" id="elsx5tntuqmki" class="animable" fill="#f5f5f5"/><path d="M122.34 233.91v2.23l-2.82 1.62-2.08-1.2a10.61 10.61 0 01-8.07.36v-2.22l1.28-1.27-1.28.35a8.21 8.21 0 01-6.28-.72c-1.26-.73-1.85-1.52-1.85-2.34v-2.17l.23-.94-.77-.45v-2.23l2.09 1.21a3.23 3.23 0 00-1.55 2.39c0 .8.62 1.58 1.85 2.29 2.74 1.58 5.45 1.06 7.94.26 2.31-.75 4-1.64 5.33-.87.83.48.58 1.06-.35 1.6a4.65 4.65 0 01-4 .23l-2.67 2.64a9.69 9.69 0 001.47.43 11 11 0 006.6-.8l2.08 1.21z" style="transform-origin:111.52px 231.345px" id="elog3uvo58nhi" class="animable" fill="#f5f5f5"/><path style="transform-origin:118.48px 236.05px" id="el2h6mg9i54m8" class="animable" fill="#f5f5f5" d="M117.44 234.34v2.22l2.08 1.2v-2.22l-2.08-1.2z"/></g><path d="M121.87 233.64l-1.61-.93a2.74 2.74 0 001.61-2.47 1.5 1.5 0 000-.22c-.07-.77-.63-1.51-1.8-2.18a7.4 7.4 0 00-3.74-1h-1.3a17.23 17.23 0 00-1.82.38l-.85.25-1.18.38-.45.16a13.27 13.27 0 01-2.5.71 2.52 2.52 0 01-1.07 0 2.21 2.21 0 01-.5-.21c-.63-.36-.73-.92.45-1.6a4.12 4.12 0 013.62-.38l2.51-2.52a10.73 10.73 0 00-7.56.42l-2.09-1.2-2.84 1.64 2.09 1.2a3.21 3.21 0 00-1.55 2.39c0 .8.61 1.58 1.85 2.29 2.74 1.58 5.46 1.06 7.94.26 2.31-.76 4-1.64 5.33-.88.83.49.57 1.07-.35 1.6a4.58 4.58 0 01-4 .23l-2.67 2.65a9.69 9.69 0 001.47.43 11.05 11.05 0 006.6-.79l2.08 1.2 2.82-1.62z" style="transform-origin:111.555px 229.34px" id="elhiu19bsgju" class="animable" fill="#ffc107"/><path d="M121.87 233.64l-1.61-.93a2.74 2.74 0 001.61-2.47 1.5 1.5 0 000-.22c-.07-.77-.63-1.51-1.8-2.18a7.4 7.4 0 00-3.74-1h-1.3a17.23 17.23 0 00-1.82.38l-.85.25-1.18.38-.45.16a13.27 13.27 0 01-2.5.71 2.52 2.52 0 01-1.07 0 2.21 2.21 0 01-.5-.21c-.63-.36-.73-.92.45-1.6a4.12 4.12 0 013.62-.38l2.51-2.52a10.73 10.73 0 00-7.56.42l-2.09-1.2-2.84 1.64 2.09 1.2a3.21 3.21 0 00-1.55 2.39c0 .8.61 1.58 1.85 2.29 2.74 1.58 5.46 1.06 7.94.26 2.31-.76 4-1.64 5.33-.88.83.49.57 1.07-.35 1.6a4.58 4.58 0 01-4 .23l-2.67 2.65a9.69 9.69 0 001.47.43 11.05 11.05 0 006.6-.79l2.08 1.2 2.82-1.62z" style="transform-origin:111.555px 229.34px" class="animable" fill="#f5f5f5" opacity=".7" id="el30b4jjfbz6j"/><path d="M420.94 258.31a18.13 18.13 0 00-6.67-6.17c-10.91-6.29-28.59-6.29-39.49 0a18.13 18.13 0 00-6.67 6.17h-1.51V264c.2 4 2.92 7.89 8.16 10.92 10.9 6.3 28.58 6.3 39.49 0 5.24-3 8-7 8.16-10.92v-5.71z" style="transform-origin:394.505px 263.534px" id="elizn9sz8sfz8" class="animable" fill="#ffc107"/><path d="M420.94 258.31a18.13 18.13 0 00-6.67-6.17c-10.91-6.29-28.59-6.29-39.49 0a18.13 18.13 0 00-6.67 6.17h-1.51V264c.2 4 2.92 7.89 8.16 10.92 10.9 6.3 28.58 6.3 39.49 0 5.24-3 8-7 8.16-10.92v-5.71z" style="transform-origin:394.505px 263.534px" class="animable" fill="#f5f5f5" opacity=".5" id="eldef6xhkmx6a"/><path d="M414.27 246.91c-10.91-6.29-28.59-6.29-39.49 0s-10.9 16.51 0 22.8 28.58 6.3 39.49 0 10.9-16.5 0-22.8z" style="transform-origin:394.527px 258.312px" id="elq5kal4h9ma" class="animable" fill="#ffc107"/><path d="M414.27 246.91c-10.91-6.29-28.59-6.29-39.49 0s-10.9 16.51 0 22.8 28.58 6.3 39.49 0 10.9-16.5 0-22.8z" style="transform-origin:394.527px 258.312px" class="animable" fill="#f5f5f5" opacity=".6" id="elvxgae3qwb7i"/><path d="M407.38 251.09a31.42 31.42 0 00-25.71 0C378 253 376 255.53 376 258.32s2 5.35 5.67 7.22a31.42 31.42 0 0025.71 0c3.65-1.87 5.67-4.44 5.67-7.22s-2.05-5.32-5.67-7.23z" style="transform-origin:394.525px 258.315px" id="el5fh4fgmv8b" class="animable" fill="#ffc107"/><path d="M407.38 251.09a31.42 31.42 0 00-25.71 0C378 253 376 255.53 376 258.32s2 5.35 5.67 7.22a31.42 31.42 0 0025.71 0c3.65-1.87 5.67-4.44 5.67-7.22s-2.05-5.32-5.67-7.23z" style="transform-origin:394.525px 258.315px" class="animable" fill="#f5f5f5" opacity=".6" id="elippe839gfl"/><path d="M413.66 248c-5.09-2.94-11.89-4.56-19.14-4.56s-14 1.62-19.13 4.56c-4.89 2.82-7.57 6.49-7.57 10.35s2.68 7.52 7.57 10.34c5.09 2.94 11.88 4.56 19.13 4.56s14.05-1.62 19.14-4.56c4.88-2.82 7.57-6.49 7.57-10.34s-2.69-7.56-7.57-10.35zm-6.28 17.57a31.42 31.42 0 01-25.71 0c-3.66-1.87-5.67-4.44-5.67-7.22s2-5.36 5.67-7.23a31.42 31.42 0 0125.71 0c3.65 1.87 5.67 4.44 5.67 7.23s-2.05 5.32-5.67 7.19z" style="transform-origin:394.525px 258.345px" id="elicwh32b5p58" class="animable" fill="#ffc107"/><path d="M413.66 248c-5.09-2.94-11.89-4.56-19.14-4.56s-14 1.62-19.13 4.56c-4.89 2.82-7.57 6.49-7.57 10.35s2.68 7.52 7.57 10.34c5.09 2.94 11.88 4.56 19.13 4.56s14.05-1.62 19.14-4.56c4.88-2.82 7.57-6.49 7.57-10.34s-2.69-7.56-7.57-10.35zm-6.28 17.57a31.42 31.42 0 01-25.71 0c-3.66-1.87-5.67-4.44-5.67-7.22s2-5.36 5.67-7.23a31.42 31.42 0 0125.71 0c3.65 1.87 5.67 4.44 5.67 7.23s-2.05 5.32-5.67 7.19z" style="transform-origin:394.525px 258.345px" class="animable" fill="#f5f5f5" opacity=".7" id="elayof6592m6i"/><ellipse cx="394.52" cy="258.31" rx="17.56" ry="9.01" style="transform-origin:394.52px 258.31px" id="elqot9xr3c5a" class="animable" fill="#ffc107"/><ellipse cx="394.52" cy="258.31" rx="17.56" ry="9.01" style="transform-origin:394.52px 258.31px" class="animable" fill="#f5f5f5" opacity=".5" id="el7r2evj0nuo5"/><path d="M406.94 254.33c-6.86-3.52-18-3.52-24.83 0-2.84 1.45-4.5 3.28-5 5.18.49 1.89 2.15 3.72 5 5.18 6.85 3.51 18 3.51 24.83 0 2.84-1.46 4.5-3.29 5-5.18-.5-1.9-2.16-3.73-5-5.18z" style="transform-origin:394.525px 259.506px" id="elhhu48qosbd" class="animable" fill="#ffc107"/><path d="M406.94 254.33c-6.86-3.52-18-3.52-24.83 0-2.84 1.45-4.5 3.28-5 5.18.49 1.89 2.15 3.72 5 5.18 6.85 3.51 18 3.51 24.83 0 2.84-1.46 4.5-3.29 5-5.18-.5-1.9-2.16-3.73-5-5.18z" style="transform-origin:394.525px 259.506px" class="animable" fill="#f5f5f5" opacity=".6" id="eldthmmkkgfxs"/><path style="transform-origin:394.935px 254.68px" id="eldmfrziml5m7" class="animable" fill="#ffc107" d="M396.19 252.08v2.57l-.88.93-1.63 1.7v-2.68l2.51-2.52z"/><path d="M393.68 254.6v2.68h-5.08v-3.14s4.7-.72 5.08.46z" style="transform-origin:391.14px 255.601px" id="eld4vo3h42ux8" class="animable" fill="#ffc107"/><path d="M405.34 261.91v2.23l-2.82 1.62-2.08-1.2a10.61 10.61 0 01-8.07.36v-2.22l1.28-1.27-1.28.35a8.21 8.21 0 01-6.28-.72c-1.26-.73-1.85-1.52-1.85-2.34v-2.17l.23-.94-.77-.45v-2.23l2.09 1.21a3.23 3.23 0 00-1.55 2.39c0 .8.62 1.58 1.85 2.29 2.74 1.58 5.45 1.06 7.94.26 2.31-.75 4-1.64 5.33-.87.83.48.57 1.06-.35 1.6a4.65 4.65 0 01-4 .23l-2.67 2.64a9.69 9.69 0 001.47.43 11 11 0 006.6-.8l2.08 1.21z" style="transform-origin:394.52px 259.345px" id="elbf2858u6vh" class="animable" fill="#ffc107"/><path style="transform-origin:401.48px 264.045px" id="eltpuytht3eag" class="animable" fill="#ffc107" d="M400.44 262.33v2.23l2.08 1.2v-2.22l-2.08-1.21z"/><g style="transform-origin:394.52px 258.92px" class="animable" opacity=".5" id="el6nvnz2b8rmv"><path style="transform-origin:394.935px 254.68px" id="el5x1cyxzoqtn" class="animable" fill="#f5f5f5" d="M396.19 252.08v2.57l-.88.93-1.63 1.7v-2.68l2.51-2.52z"/><path d="M393.68 254.6v2.68h-5.08v-3.14s4.7-.72 5.08.46z" style="transform-origin:391.14px 255.601px" id="el3s9netfcmx" class="animable" fill="#f5f5f5"/><path d="M405.34 261.91v2.23l-2.82 1.62-2.08-1.2a10.61 10.61 0 01-8.07.36v-2.22l1.28-1.27-1.28.35a8.21 8.21 0 01-6.28-.72c-1.26-.73-1.85-1.52-1.85-2.34v-2.17l.23-.94-.77-.45v-2.23l2.09 1.21a3.23 3.23 0 00-1.55 2.39c0 .8.62 1.58 1.85 2.29 2.74 1.58 5.45 1.06 7.94.26 2.31-.75 4-1.64 5.33-.87.83.48.57 1.06-.35 1.6a4.65 4.65 0 01-4 .23l-2.67 2.64a9.69 9.69 0 001.47.43 11 11 0 006.6-.8l2.08 1.21z" style="transform-origin:394.52px 259.345px" id="eloip7lb9pm4" class="animable" fill="#f5f5f5"/><path style="transform-origin:401.48px 264.045px" id="eluitsvg5ki1a" class="animable" fill="#f5f5f5" d="M400.44 262.33v2.23l2.08 1.2v-2.22l-2.08-1.21z"/></g><path d="M404.87 261.64l-1.61-.93a2.74 2.74 0 001.61-2.47 1.5 1.5 0 000-.22c-.07-.77-.63-1.51-1.8-2.18a7.4 7.4 0 00-3.74-1h-1.3a17.23 17.23 0 00-1.82.38l-.85.25-1.18.38-.45.16a13.27 13.27 0 01-2.5.71 2.52 2.52 0 01-1.07 0 2.21 2.21 0 01-.5-.21c-.63-.36-.73-.92.45-1.6a4.12 4.12 0 013.62-.38l2.51-2.52a10.73 10.73 0 00-7.56.42l-2.09-1.2-2.84 1.64 2.09 1.2a3.21 3.21 0 00-1.55 2.39c0 .8.61 1.58 1.85 2.29 2.74 1.58 5.46 1.06 7.94.26 2.31-.76 4-1.64 5.33-.88.83.49.57 1.07-.35 1.6a4.58 4.58 0 01-4 .23l-2.67 2.65a9.69 9.69 0 001.47.43 11 11 0 006.6-.8l2.08 1.21 2.82-1.62z" style="transform-origin:394.555px 257.34px" id="el9wnm67o3l0v" class="animable" fill="#ffc107"/><path d="M404.87 261.64l-1.61-.93a2.74 2.74 0 001.61-2.47 1.5 1.5 0 000-.22c-.07-.77-.63-1.51-1.8-2.18a7.4 7.4 0 00-3.74-1h-1.3a17.23 17.23 0 00-1.82.38l-.85.25-1.18.38-.45.16a13.27 13.27 0 01-2.5.71 2.52 2.52 0 01-1.07 0 2.21 2.21 0 01-.5-.21c-.63-.36-.73-.92.45-1.6a4.12 4.12 0 013.62-.38l2.51-2.52a10.73 10.73 0 00-7.56.42l-2.09-1.2-2.84 1.64 2.09 1.2a3.21 3.21 0 00-1.55 2.39c0 .8.61 1.58 1.85 2.29 2.74 1.58 5.46 1.06 7.94.26 2.31-.76 4-1.64 5.33-.88.83.49.57 1.07-.35 1.6a4.58 4.58 0 01-4 .23l-2.67 2.65a9.69 9.69 0 001.47.43 11 11 0 006.6-.8l2.08 1.21 2.82-1.62z" style="transform-origin:394.555px 257.34px" class="animable" fill="#f5f5f5" opacity=".7" id="elq0leodi1oag"/><path d="M422.94 250.31a18.13 18.13 0 00-6.67-6.17c-10.91-6.29-28.59-6.29-39.49 0a18.13 18.13 0 00-6.67 6.17h-1.51V256c.2 4 2.92 7.89 8.16 10.92 10.9 6.3 28.58 6.3 39.49 0 5.24-3 8-7 8.16-10.92v-5.71z" style="transform-origin:396.505px 255.534px" id="elou2w5xyyma" class="animable" fill="#ffc107"/><path d="M422.94 250.31a18.13 18.13 0 00-6.67-6.17c-10.91-6.29-28.59-6.29-39.49 0a18.13 18.13 0 00-6.67 6.17h-1.51V256c.2 4 2.92 7.89 8.16 10.92 10.9 6.3 28.58 6.3 39.49 0 5.24-3 8-7 8.16-10.92v-5.71z" style="transform-origin:396.505px 255.534px" class="animable" fill="#f5f5f5" opacity=".5" id="el4kkksh8srzp"/><path d="M416.27 238.91c-10.91-6.29-28.59-6.29-39.49 0s-10.9 16.51 0 22.8 28.58 6.3 39.49 0 10.9-16.5 0-22.8z" style="transform-origin:396.527px 250.312px" id="eltmulhvyxfmg" class="animable" fill="#ffc107"/><path d="M416.27 238.91c-10.91-6.29-28.59-6.29-39.49 0s-10.9 16.51 0 22.8 28.58 6.3 39.49 0 10.9-16.5 0-22.8z" style="transform-origin:396.527px 250.312px" class="animable" fill="#f5f5f5" opacity=".6" id="elagf8676dxri"/><path d="M409.38 243.09a31.42 31.42 0 00-25.71 0C380 245 378 247.53 378 250.32s2 5.35 5.67 7.22a31.42 31.42 0 0025.71 0c3.65-1.87 5.67-4.44 5.67-7.22s-2.05-5.32-5.67-7.23z" style="transform-origin:396.525px 250.315px" id="el18rbjd9fb3f" class="animable" fill="#ffc107"/><path d="M409.38 243.09a31.42 31.42 0 00-25.71 0C380 245 378 247.53 378 250.32s2 5.35 5.67 7.22a31.42 31.42 0 0025.71 0c3.65-1.87 5.67-4.44 5.67-7.22s-2.05-5.32-5.67-7.23z" style="transform-origin:396.525px 250.315px" class="animable" fill="#f5f5f5" opacity=".6" id="eljpr7fje7ftm"/><path d="M415.66 240c-5.09-2.94-11.89-4.56-19.14-4.56s-14 1.62-19.13 4.56c-4.89 2.82-7.57 6.49-7.57 10.35s2.68 7.52 7.57 10.34c5.09 2.94 11.88 4.56 19.13 4.56s14.05-1.62 19.14-4.56c4.88-2.82 7.57-6.49 7.57-10.34s-2.69-7.56-7.57-10.35zm-6.28 17.57a31.42 31.42 0 01-25.71 0c-3.66-1.87-5.67-4.44-5.67-7.22s2-5.36 5.67-7.23a31.42 31.42 0 0125.71 0c3.65 1.87 5.67 4.44 5.67 7.23s-2.05 5.32-5.67 7.19z" style="transform-origin:396.525px 250.345px" id="elsncht7gfkhk" class="animable" fill="#ffc107"/><path d="M415.66 240c-5.09-2.94-11.89-4.56-19.14-4.56s-14 1.62-19.13 4.56c-4.89 2.82-7.57 6.49-7.57 10.35s2.68 7.52 7.57 10.34c5.09 2.94 11.88 4.56 19.13 4.56s14.05-1.62 19.14-4.56c4.88-2.82 7.57-6.49 7.57-10.34s-2.69-7.56-7.57-10.35zm-6.28 17.57a31.42 31.42 0 01-25.71 0c-3.66-1.87-5.67-4.44-5.67-7.22s2-5.36 5.67-7.23a31.42 31.42 0 0125.71 0c3.65 1.87 5.67 4.44 5.67 7.23s-2.05 5.32-5.67 7.19z" style="transform-origin:396.525px 250.345px" class="animable" fill="#f5f5f5" opacity=".7" id="el7b8rojcmtaj"/><ellipse cx="396.52" cy="250.31" rx="17.56" ry="9.01" style="transform-origin:396.52px 250.31px" id="el2z6vo40dit" class="animable" fill="#ffc107"/><ellipse cx="396.52" cy="250.31" rx="17.56" ry="9.01" style="transform-origin:396.52px 250.31px" class="animable" fill="#f5f5f5" opacity=".5" id="els6ait0tw7b"/><path d="M408.94 246.33c-6.86-3.52-18-3.52-24.83 0-2.84 1.45-4.5 3.28-5 5.18.49 1.89 2.15 3.72 5 5.18 6.85 3.51 18 3.51 24.83 0 2.84-1.46 4.5-3.29 5-5.18-.5-1.9-2.16-3.73-5-5.18z" style="transform-origin:396.525px 251.506px" id="elcbqcbnjg4o" class="animable" fill="#ffc107"/><path d="M408.94 246.33c-6.86-3.52-18-3.52-24.83 0-2.84 1.45-4.5 3.28-5 5.18.49 1.89 2.15 3.72 5 5.18 6.85 3.51 18 3.51 24.83 0 2.84-1.46 4.5-3.29 5-5.18-.5-1.9-2.16-3.73-5-5.18z" style="transform-origin:396.525px 251.506px" class="animable" fill="#f5f5f5" opacity=".6" id="el8xv7t2pps6p"/><path style="transform-origin:396.935px 246.68px" id="ellul966frgd" class="animable" fill="#ffc107" d="M398.19 244.08v2.57l-.88.93-1.63 1.7v-2.68l2.51-2.52z"/><path d="M395.68 246.6v2.68h-5.08v-3.14s4.7-.72 5.08.46z" style="transform-origin:393.14px 247.601px" id="elyl1t6slzq08" class="animable" fill="#ffc107"/><path d="M407.34 253.91v2.23l-2.82 1.62-2.08-1.2a10.61 10.61 0 01-8.07.36v-2.22l1.28-1.27-1.28.35a8.21 8.21 0 01-6.28-.72c-1.26-.73-1.85-1.52-1.85-2.34v-2.17l.23-.94-.77-.45v-2.23l2.09 1.21a3.23 3.23 0 00-1.55 2.39c0 .8.62 1.58 1.85 2.29 2.74 1.58 5.45 1.06 7.94.26 2.31-.75 4-1.64 5.33-.87.83.48.57 1.06-.35 1.6a4.65 4.65 0 01-4 .23l-2.67 2.64a9.69 9.69 0 001.47.43 11 11 0 006.6-.8l2.08 1.21z" style="transform-origin:396.52px 251.345px" id="el09hd5bat89qg" class="animable" fill="#ffc107"/><path style="transform-origin:403.48px 256.05px" id="el1v7tg4sa15u" class="animable" fill="#ffc107" d="M402.44 254.34v2.22l2.08 1.2v-2.22l-2.08-1.2z"/><g style="transform-origin:396.52px 250.92px" class="animable" opacity=".5" id="el2mpqo5w7mxt"><path style="transform-origin:396.935px 246.68px" id="elnwzr2vws3b" class="animable" fill="#f5f5f5" d="M398.19 244.08v2.57l-.88.93-1.63 1.7v-2.68l2.51-2.52z"/><path d="M395.68 246.6v2.68h-5.08v-3.14s4.7-.72 5.08.46z" style="transform-origin:393.14px 247.601px" id="el6ggqx19jkyk" class="animable" fill="#f5f5f5"/><path d="M407.34 253.91v2.23l-2.82 1.62-2.08-1.2a10.61 10.61 0 01-8.07.36v-2.22l1.28-1.27-1.28.35a8.21 8.21 0 01-6.28-.72c-1.26-.73-1.85-1.52-1.85-2.34v-2.17l.23-.94-.77-.45v-2.23l2.09 1.21a3.23 3.23 0 00-1.55 2.39c0 .8.62 1.58 1.85 2.29 2.74 1.58 5.45 1.06 7.94.26 2.31-.75 4-1.64 5.33-.87.83.48.57 1.06-.35 1.6a4.65 4.65 0 01-4 .23l-2.67 2.64a9.69 9.69 0 001.47.43 11 11 0 006.6-.8l2.08 1.21z" style="transform-origin:396.52px 251.345px" id="eld6lg3memwpf" class="animable" fill="#f5f5f5"/><path style="transform-origin:403.48px 256.05px" id="elpkc2fn48y7" class="animable" fill="#f5f5f5" d="M402.44 254.34v2.22l2.08 1.2v-2.22l-2.08-1.2z"/></g><path d="M406.87 253.64l-1.61-.93a2.74 2.74 0 001.61-2.47 1.5 1.5 0 000-.22c-.07-.77-.63-1.51-1.8-2.18a7.4 7.4 0 00-3.74-1h-1.3a17.23 17.23 0 00-1.82.38l-.85.25-1.18.38-.45.16a13.27 13.27 0 01-2.5.71 2.52 2.52 0 01-1.07 0 2.21 2.21 0 01-.5-.21c-.63-.36-.73-.92.45-1.6a4.12 4.12 0 013.62-.38l2.51-2.52a10.73 10.73 0 00-7.56.42l-2.09-1.2-2.84 1.64 2.09 1.2a3.21 3.21 0 00-1.55 2.39c0 .8.61 1.58 1.85 2.29 2.74 1.58 5.46 1.06 7.94.26 2.31-.76 4-1.64 5.33-.88.83.49.57 1.07-.35 1.6a4.58 4.58 0 01-4 .23l-2.67 2.65a9.69 9.69 0 001.47.43 11 11 0 006.6-.8l2.08 1.21 2.82-1.62z" style="transform-origin:396.555px 249.34px" id="elsrq4kttc3mk" class="animable" fill="#ffc107"/><path d="M406.87 253.64l-1.61-.93a2.74 2.74 0 001.61-2.47 1.5 1.5 0 000-.22c-.07-.77-.63-1.51-1.8-2.18a7.4 7.4 0 00-3.74-1h-1.3a17.23 17.23 0 00-1.82.38l-.85.25-1.18.38-.45.16a13.27 13.27 0 01-2.5.71 2.52 2.52 0 01-1.07 0 2.21 2.21 0 01-.5-.21c-.63-.36-.73-.92.45-1.6a4.12 4.12 0 013.62-.38l2.51-2.52a10.73 10.73 0 00-7.56.42l-2.09-1.2-2.84 1.64 2.09 1.2a3.21 3.21 0 00-1.55 2.39c0 .8.61 1.58 1.85 2.29 2.74 1.58 5.46 1.06 7.94.26 2.31-.76 4-1.64 5.33-.88.83.49.57 1.07-.35 1.6a4.58 4.58 0 01-4 .23l-2.67 2.65a9.69 9.69 0 001.47.43 11 11 0 006.6-.8l2.08 1.21 2.82-1.62z" style="transform-origin:396.555px 249.34px" class="animable" fill="#f5f5f5" opacity=".7" id="el8zie51vqkpt"/><path d="M419.94 243.31a18.13 18.13 0 00-6.67-6.17c-10.91-6.29-28.59-6.29-39.49 0a18.13 18.13 0 00-6.67 6.17h-1.51V249c.2 4 2.92 7.89 8.16 10.92 10.9 6.3 28.58 6.3 39.49 0 5.24-3 8-7 8.16-10.92v-5.71z" style="transform-origin:393.505px 248.534px" id="elnf1kd8mx29" class="animable" fill="#ffc107"/><path d="M419.94 243.31a18.13 18.13 0 00-6.67-6.17c-10.91-6.29-28.59-6.29-39.49 0a18.13 18.13 0 00-6.67 6.17h-1.51V249c.2 4 2.92 7.89 8.16 10.92 10.9 6.3 28.58 6.3 39.49 0 5.24-3 8-7 8.16-10.92v-5.71z" style="transform-origin:393.505px 248.534px" class="animable" fill="#f5f5f5" opacity=".5" id="el70pyxwh808a"/><path d="M413.27 231.91c-10.91-6.29-28.59-6.29-39.49 0s-10.9 16.51 0 22.8 28.58 6.3 39.49 0 10.9-16.5 0-22.8z" style="transform-origin:393.527px 243.312px" id="eluxhmogif39k" class="animable" fill="#ffc107"/><path d="M413.27 231.91c-10.91-6.29-28.59-6.29-39.49 0s-10.9 16.51 0 22.8 28.58 6.3 39.49 0 10.9-16.5 0-22.8z" style="transform-origin:393.527px 243.312px" class="animable" fill="#f5f5f5" opacity=".6" id="el5r7a0x7ci0b"/><path d="M406.38 236.09a31.42 31.42 0 00-25.71 0C377 238 375 240.53 375 243.32s2 5.35 5.67 7.22a31.42 31.42 0 0025.71 0c3.65-1.87 5.67-4.44 5.67-7.22s-2.05-5.32-5.67-7.23z" style="transform-origin:393.525px 243.315px" id="el8dijw1qzxj" class="animable" fill="#ffc107"/><path d="M406.38 236.09a31.42 31.42 0 00-25.71 0C377 238 375 240.53 375 243.32s2 5.35 5.67 7.22a31.42 31.42 0 0025.71 0c3.65-1.87 5.67-4.44 5.67-7.22s-2.05-5.32-5.67-7.23z" style="transform-origin:393.525px 243.315px" class="animable" fill="#f5f5f5" opacity=".6" id="elgnn3sizimhe"/><path d="M412.66 233c-5.09-2.94-11.89-4.56-19.14-4.56s-14 1.62-19.13 4.56c-4.89 2.82-7.57 6.49-7.57 10.35s2.68 7.52 7.57 10.34c5.09 2.94 11.88 4.56 19.13 4.56s14.05-1.62 19.14-4.56c4.88-2.82 7.57-6.49 7.57-10.34s-2.69-7.56-7.57-10.35zm-6.28 17.57a31.42 31.42 0 01-25.71 0c-3.66-1.87-5.67-4.44-5.67-7.22s2-5.36 5.67-7.23a31.42 31.42 0 0125.71 0c3.65 1.87 5.67 4.44 5.67 7.23s-2.05 5.32-5.67 7.19z" style="transform-origin:393.525px 243.345px" id="elqpnoo4lyak8" class="animable" fill="#ffc107"/><path d="M412.66 233c-5.09-2.94-11.89-4.56-19.14-4.56s-14 1.62-19.13 4.56c-4.89 2.82-7.57 6.49-7.57 10.35s2.68 7.52 7.57 10.34c5.09 2.94 11.88 4.56 19.13 4.56s14.05-1.62 19.14-4.56c4.88-2.82 7.57-6.49 7.57-10.34s-2.69-7.56-7.57-10.35zm-6.28 17.57a31.42 31.42 0 01-25.71 0c-3.66-1.87-5.67-4.44-5.67-7.22s2-5.36 5.67-7.23a31.42 31.42 0 0125.71 0c3.65 1.87 5.67 4.44 5.67 7.23s-2.05 5.32-5.67 7.19z" style="transform-origin:393.525px 243.345px" class="animable" fill="#f5f5f5" opacity=".7" id="elqzd15p6jvi"/><ellipse cx="393.52" cy="243.31" rx="17.56" ry="9.01" style="transform-origin:393.52px 243.31px" id="elopziurt8x6" class="animable" fill="#ffc107"/><ellipse cx="393.52" cy="243.31" rx="17.56" ry="9.01" style="transform-origin:393.52px 243.31px" class="animable" fill="#f5f5f5" opacity=".5" id="elenwxrfwcfrr"/><path d="M405.94 239.33c-6.86-3.52-18-3.52-24.83 0-2.84 1.45-4.5 3.28-5 5.18.49 1.89 2.15 3.72 5 5.18 6.85 3.51 18 3.51 24.83 0 2.84-1.46 4.5-3.29 5-5.18-.5-1.9-2.16-3.73-5-5.18z" style="transform-origin:393.525px 244.506px" id="elnzb57j9tdho" class="animable" fill="#ffc107"/><path d="M405.94 239.33c-6.86-3.52-18-3.52-24.83 0-2.84 1.45-4.5 3.28-5 5.18.49 1.89 2.15 3.72 5 5.18 6.85 3.51 18 3.51 24.83 0 2.84-1.46 4.5-3.29 5-5.18-.5-1.9-2.16-3.73-5-5.18z" style="transform-origin:393.525px 244.506px" class="animable" fill="#f5f5f5" opacity=".6" id="ellepbmooitos"/><path style="transform-origin:393.935px 239.68px" id="el4zq2irpkien" class="animable" fill="#ffc107" d="M395.19 237.08v2.57l-.88.93-1.63 1.7v-2.68l2.51-2.52z"/><path d="M392.68 239.6v2.68h-5.08v-3.14s4.7-.72 5.08.46z" style="transform-origin:390.14px 240.601px" id="el5rzoc9up2" class="animable" fill="#ffc107"/><path d="M404.34 246.91v2.23l-2.82 1.62-2.08-1.2a10.61 10.61 0 01-8.07.36v-2.22l1.28-1.27-1.28.35a8.21 8.21 0 01-6.28-.72c-1.26-.73-1.85-1.52-1.85-2.34v-2.17l.23-.94-.77-.45v-2.23l2.09 1.21a3.23 3.23 0 00-1.55 2.39c0 .8.62 1.58 1.85 2.29 2.74 1.58 5.45 1.06 7.94.26 2.31-.75 4-1.64 5.33-.87.83.48.57 1.06-.35 1.6a4.65 4.65 0 01-4 .23l-2.67 2.64a9.69 9.69 0 001.47.43 11 11 0 006.6-.8l2.08 1.21z" style="transform-origin:393.52px 244.345px" id="elr2qccmvrhso" class="animable" fill="#ffc107"/><path style="transform-origin:400.48px 249.05px" id="elz6xvc797fw" class="animable" fill="#ffc107" d="M399.44 247.34v2.22l2.08 1.2v-2.22l-2.08-1.2z"/><g style="transform-origin:393.52px 243.92px" class="animable" opacity=".5" id="el3h0gk7wuom"><path style="transform-origin:393.935px 239.68px" id="eliy1b3qu5k7n" class="animable" fill="#f5f5f5" d="M395.19 237.08v2.57l-.88.93-1.63 1.7v-2.68l2.51-2.52z"/><path d="M392.68 239.6v2.68h-5.08v-3.14s4.7-.72 5.08.46z" style="transform-origin:390.14px 240.601px" id="elgjebkvpty69" class="animable" fill="#f5f5f5"/><path d="M404.34 246.91v2.23l-2.82 1.62-2.08-1.2a10.61 10.61 0 01-8.07.36v-2.22l1.28-1.27-1.28.35a8.21 8.21 0 01-6.28-.72c-1.26-.73-1.85-1.52-1.85-2.34v-2.17l.23-.94-.77-.45v-2.23l2.09 1.21a3.23 3.23 0 00-1.55 2.39c0 .8.62 1.58 1.85 2.29 2.74 1.58 5.45 1.06 7.94.26 2.31-.75 4-1.64 5.33-.87.83.48.57 1.06-.35 1.6a4.65 4.65 0 01-4 .23l-2.67 2.64a9.69 9.69 0 001.47.43 11 11 0 006.6-.8l2.08 1.21z" style="transform-origin:393.52px 244.345px" id="eloqp514wml9c" class="animable" fill="#f5f5f5"/><path style="transform-origin:400.48px 249.05px" id="elrniosw85x0o" class="animable" fill="#f5f5f5" d="M399.44 247.34v2.22l2.08 1.2v-2.22l-2.08-1.2z"/></g><path d="M403.87 246.64l-1.61-.93a2.74 2.74 0 001.61-2.47 1.5 1.5 0 000-.22c-.07-.77-.63-1.51-1.8-2.18a7.4 7.4 0 00-3.74-1h-1.3a17.23 17.23 0 00-1.82.38l-.85.25-1.18.38-.45.16a13.27 13.27 0 01-2.5.71 2.52 2.52 0 01-1.07 0 2.21 2.21 0 01-.5-.21c-.63-.36-.73-.92.45-1.6a4.12 4.12 0 013.62-.38l2.51-2.52a10.73 10.73 0 00-7.56.42l-2.09-1.2-2.84 1.64 2.09 1.2a3.21 3.21 0 00-1.55 2.39c0 .8.61 1.58 1.85 2.29 2.74 1.58 5.46 1.06 7.94.26 2.31-.76 4-1.64 5.33-.88.83.49.57 1.07-.35 1.6a4.58 4.58 0 01-4 .23l-2.67 2.65a9.69 9.69 0 001.47.43 11.05 11.05 0 006.6-.79l2.08 1.2 2.82-1.62z" style="transform-origin:393.555px 242.34px" id="eljx65w1exj6" class="animable" fill="#ffc107"/><path d="M403.87 246.64l-1.61-.93a2.74 2.74 0 001.61-2.47 1.5 1.5 0 000-.22c-.07-.77-.63-1.51-1.8-2.18a7.4 7.4 0 00-3.74-1h-1.3a17.23 17.23 0 00-1.82.38l-.85.25-1.18.38-.45.16a13.27 13.27 0 01-2.5.71 2.52 2.52 0 01-1.07 0 2.21 2.21 0 01-.5-.21c-.63-.36-.73-.92.45-1.6a4.12 4.12 0 013.62-.38l2.51-2.52a10.73 10.73 0 00-7.56.42l-2.09-1.2-2.84 1.64 2.09 1.2a3.21 3.21 0 00-1.55 2.39c0 .8.61 1.58 1.85 2.29 2.74 1.58 5.46 1.06 7.94.26 2.31-.76 4-1.64 5.33-.88.83.49.57 1.07-.35 1.6a4.58 4.58 0 01-4 .23l-2.67 2.65a9.69 9.69 0 001.47.43 11.05 11.05 0 006.6-.79l2.08 1.2 2.82-1.62z" style="transform-origin:393.555px 242.34px" class="animable" fill="#f5f5f5" opacity=".7" id="elsbw9wu324ei"/><path d="M422.94 234.31a18.13 18.13 0 00-6.67-6.17c-10.91-6.29-28.59-6.29-39.49 0a18.13 18.13 0 00-6.67 6.17h-1.51V240c.2 4 2.92 7.89 8.16 10.92 10.9 6.3 28.58 6.3 39.49 0 5.24-3 8-7 8.16-10.92v-5.71z" style="transform-origin:396.505px 239.534px" id="el5yocvvgzyp2" class="animable" fill="#ffc107"/><path d="M422.94 234.31a18.13 18.13 0 00-6.67-6.17c-10.91-6.29-28.59-6.29-39.49 0a18.13 18.13 0 00-6.67 6.17h-1.51V240c.2 4 2.92 7.89 8.16 10.92 10.9 6.3 28.58 6.3 39.49 0 5.24-3 8-7 8.16-10.92v-5.71z" style="transform-origin:396.505px 239.534px" class="animable" fill="#f5f5f5" opacity=".5" id="eltj94mjo0dj"/><path d="M416.27 222.91c-10.91-6.29-28.59-6.29-39.49 0s-10.9 16.51 0 22.8 28.58 6.3 39.49 0 10.9-16.5 0-22.8z" style="transform-origin:396.527px 234.312px" id="elybzup72pvaa" class="animable" fill="#ffc107"/><path d="M416.27 222.91c-10.91-6.29-28.59-6.29-39.49 0s-10.9 16.51 0 22.8 28.58 6.3 39.49 0 10.9-16.5 0-22.8z" style="transform-origin:396.527px 234.312px" class="animable" fill="#f5f5f5" opacity=".6" id="eliof0th3z94"/><path d="M409.38 227.09a31.42 31.42 0 00-25.71 0C380 229 378 231.53 378 234.32s2 5.35 5.67 7.22a31.42 31.42 0 0025.71 0c3.65-1.87 5.67-4.44 5.67-7.22s-2.05-5.32-5.67-7.23z" style="transform-origin:396.525px 234.315px" id="elwi2juee1y6" class="animable" fill="#ffc107"/><path d="M409.38 227.09a31.42 31.42 0 00-25.71 0C380 229 378 231.53 378 234.32s2 5.35 5.67 7.22a31.42 31.42 0 0025.71 0c3.65-1.87 5.67-4.44 5.67-7.22s-2.05-5.32-5.67-7.23z" style="transform-origin:396.525px 234.315px" class="animable" fill="#f5f5f5" opacity=".6" id="eli8wr00e5jgd"/><path d="M415.66 224c-5.09-2.94-11.89-4.56-19.14-4.56s-14 1.62-19.13 4.56c-4.89 2.82-7.57 6.49-7.57 10.35s2.68 7.52 7.57 10.34c5.09 2.94 11.88 4.56 19.13 4.56s14.05-1.62 19.14-4.56c4.88-2.82 7.57-6.49 7.57-10.34s-2.69-7.56-7.57-10.35zm-6.28 17.57a31.42 31.42 0 01-25.71 0c-3.66-1.87-5.67-4.44-5.67-7.22s2-5.36 5.67-7.23a31.42 31.42 0 0125.71 0c3.65 1.87 5.67 4.44 5.67 7.23s-2.05 5.32-5.67 7.19z" style="transform-origin:396.525px 234.345px" id="elgyea23184da" class="animable" fill="#ffc107"/><path d="M415.66 224c-5.09-2.94-11.89-4.56-19.14-4.56s-14 1.62-19.13 4.56c-4.89 2.82-7.57 6.49-7.57 10.35s2.68 7.52 7.57 10.34c5.09 2.94 11.88 4.56 19.13 4.56s14.05-1.62 19.14-4.56c4.88-2.82 7.57-6.49 7.57-10.34s-2.69-7.56-7.57-10.35zm-6.28 17.57a31.42 31.42 0 01-25.71 0c-3.66-1.87-5.67-4.44-5.67-7.22s2-5.36 5.67-7.23a31.42 31.42 0 0125.71 0c3.65 1.87 5.67 4.44 5.67 7.23s-2.05 5.32-5.67 7.19z" style="transform-origin:396.525px 234.345px" class="animable" fill="#f5f5f5" opacity=".7" id="elu2ae8w7dvrc"/><ellipse cx="396.52" cy="234.31" rx="17.56" ry="9.01" style="transform-origin:396.52px 234.31px" id="el3k3xsv7iu1" class="animable" fill="#ffc107"/><ellipse cx="396.52" cy="234.31" rx="17.56" ry="9.01" style="transform-origin:396.52px 234.31px" class="animable" fill="#f5f5f5" opacity=".5" id="el8imt0366f1"/><path d="M408.94 230.33c-6.86-3.52-18-3.52-24.83 0-2.84 1.45-4.5 3.28-5 5.18.49 1.89 2.15 3.72 5 5.18 6.85 3.51 18 3.51 24.83 0 2.84-1.46 4.5-3.29 5-5.18-.5-1.9-2.16-3.73-5-5.18z" style="transform-origin:396.525px 235.506px" id="elginfvqe9vb8" class="animable" fill="#ffc107"/><path d="M408.94 230.33c-6.86-3.52-18-3.52-24.83 0-2.84 1.45-4.5 3.28-5 5.18.49 1.89 2.15 3.72 5 5.18 6.85 3.51 18 3.51 24.83 0 2.84-1.46 4.5-3.29 5-5.18-.5-1.9-2.16-3.73-5-5.18z" style="transform-origin:396.525px 235.506px" class="animable" fill="#f5f5f5" opacity=".6" id="ele3p9yhyri7d"/><path style="transform-origin:396.935px 230.68px" id="elrs3s8xpn1i" class="animable" fill="#ffc107" d="M398.19 228.08v2.57l-.88.93-1.63 1.7v-2.68l2.51-2.52z"/><path d="M395.68 230.6v2.68h-5.08v-3.14s4.7-.72 5.08.46z" style="transform-origin:393.14px 231.601px" id="elftxbu901drm" class="animable" fill="#ffc107"/><path d="M407.34 237.91v2.23l-2.82 1.62-2.08-1.2a10.61 10.61 0 01-8.07.36v-2.22l1.28-1.27-1.28.35a8.21 8.21 0 01-6.28-.72c-1.26-.73-1.85-1.52-1.85-2.34v-2.17l.23-.94-.77-.45v-2.23l2.09 1.21a3.23 3.23 0 00-1.55 2.39c0 .8.62 1.58 1.85 2.29 2.74 1.58 5.45 1.06 7.94.26 2.31-.75 4-1.64 5.33-.87.83.48.57 1.06-.35 1.6a4.65 4.65 0 01-4 .23l-2.67 2.64a9.69 9.69 0 001.47.43 11 11 0 006.6-.8l2.08 1.21z" style="transform-origin:396.52px 235.345px" id="elhhre3held0b" class="animable" fill="#ffc107"/><path style="transform-origin:403.48px 240.05px" id="ell61kf61k339" class="animable" fill="#ffc107" d="M402.44 238.34v2.22l2.08 1.2v-2.22l-2.08-1.2z"/><g style="transform-origin:396.52px 234.92px" class="animable" opacity=".5" id="elfzut9l5g2in"><path style="transform-origin:396.935px 230.68px" id="elkxrkahde00s" class="animable" fill="#f5f5f5" d="M398.19 228.08v2.57l-.88.93-1.63 1.7v-2.68l2.51-2.52z"/><path d="M395.68 230.6v2.68h-5.08v-3.14s4.7-.72 5.08.46z" style="transform-origin:393.14px 231.601px" id="el6q7elhyzucj" class="animable" fill="#f5f5f5"/><path d="M407.34 237.91v2.23l-2.82 1.62-2.08-1.2a10.61 10.61 0 01-8.07.36v-2.22l1.28-1.27-1.28.35a8.21 8.21 0 01-6.28-.72c-1.26-.73-1.85-1.52-1.85-2.34v-2.17l.23-.94-.77-.45v-2.23l2.09 1.21a3.23 3.23 0 00-1.55 2.39c0 .8.62 1.58 1.85 2.29 2.74 1.58 5.45 1.06 7.94.26 2.31-.75 4-1.64 5.33-.87.83.48.57 1.06-.35 1.6a4.65 4.65 0 01-4 .23l-2.67 2.64a9.69 9.69 0 001.47.43 11 11 0 006.6-.8l2.08 1.21z" style="transform-origin:396.52px 235.345px" id="elbf7c91mo3ti" class="animable" fill="#f5f5f5"/><path style="transform-origin:403.48px 240.05px" id="el4y4589227b4" class="animable" fill="#f5f5f5" d="M402.44 238.34v2.22l2.08 1.2v-2.22l-2.08-1.2z"/></g><path d="M406.87 237.64l-1.61-.93a2.74 2.74 0 001.61-2.47 1.5 1.5 0 000-.22c-.07-.77-.63-1.51-1.8-2.18a7.4 7.4 0 00-3.74-1h-1.3a17.23 17.23 0 00-1.82.38l-.85.25-1.18.38-.45.16a13.27 13.27 0 01-2.5.71 2.52 2.52 0 01-1.07 0 2.21 2.21 0 01-.5-.21c-.63-.36-.73-.92.45-1.6a4.12 4.12 0 013.62-.38l2.51-2.52a10.73 10.73 0 00-7.56.42l-2.09-1.2-2.84 1.64 2.09 1.2a3.21 3.21 0 00-1.55 2.39c0 .8.61 1.58 1.85 2.29 2.74 1.58 5.46 1.06 7.94.26 2.31-.76 4-1.64 5.33-.88.83.49.57 1.07-.35 1.6a4.58 4.58 0 01-4 .23l-2.67 2.65a9.69 9.69 0 001.47.43 11.05 11.05 0 006.6-.79l2.08 1.2 2.82-1.62z" style="transform-origin:396.555px 233.34px" id="el0oofkdye688m" class="animable" fill="#ffc107"/><path d="M406.87 237.64l-1.61-.93a2.74 2.74 0 001.61-2.47 1.5 1.5 0 000-.22c-.07-.77-.63-1.51-1.8-2.18a7.4 7.4 0 00-3.74-1h-1.3a17.23 17.23 0 00-1.82.38l-.85.25-1.18.38-.45.16a13.27 13.27 0 01-2.5.71 2.52 2.52 0 01-1.07 0 2.21 2.21 0 01-.5-.21c-.63-.36-.73-.92.45-1.6a4.12 4.12 0 013.62-.38l2.51-2.52a10.73 10.73 0 00-7.56.42l-2.09-1.2-2.84 1.64 2.09 1.2a3.21 3.21 0 00-1.55 2.39c0 .8.61 1.58 1.85 2.29 2.74 1.58 5.46 1.06 7.94.26 2.31-.76 4-1.64 5.33-.88.83.49.57 1.07-.35 1.6a4.58 4.58 0 01-4 .23l-2.67 2.65a9.69 9.69 0 001.47.43 11.05 11.05 0 006.6-.79l2.08 1.2 2.82-1.62z" style="transform-origin:396.555px 233.34px" class="animable" fill="#f5f5f5" opacity=".7" id="elngqagtgw597"/></g><defs><filter id="active" height="200%"><feMorphology in="SourceAlpha" result="DILATED" operator="dilate" radius="2"/><feFlood flood-color="#32DFEC" flood-opacity="1" result="PINK"/><feComposite in="PINK" in2="DILATED" operator="in" result="OUTLINE"/><feMerge><feMergeNode in="OUTLINE"/><feMergeNode in="SourceGraphic"/></feMerge></filter><filter id="hover" height="200%"><feMorphology in="SourceAlpha" result="DILATED" operator="dilate" radius="2"/><feFlood flood-color="red" flood-opacity=".5" result="PINK"/><feComposite in="PINK" in2="DILATED" operator="in" result="OUTLINE"/><feMerge><feMergeNode in="OUTLINE"/><feMergeNode in="SourceGraphic"/></feMerge><feColorMatrix values="0 0 0 0 0 0 1 0 0 0 0 0 0 0 0 0 0 0 1 0"/></filter></defs></svg>