<svg class="animated" id="freepik_stories-book-lover" xmlns="http://www.w3.org/2000/svg" viewBox="0 0 500 500" version="1.1"><style>@keyframes lightSpeedRight{60%{transform:skewX(10deg);opacity:1}80%{transform:skewX(-2deg)}}@keyframes zoomIn{0%{opacity:0;transform:scale(.5)}to{opacity:1;transform:scale(1)}}@keyframes fadeIn{0%{opacity:0}to{opacity:1}}@keyframes zoomOut{0%{opacity:0;transform:scale(1.5)}to{opacity:1;transform:scale(1)}}svg#freepik_stories-book-lover:not(.animated)</style><g id="freepik--Floor--inject-2" class="animable" style="transform-origin:246.385px 477.46px;animation:1s 1 forwards cubic-bezier(.36,-.01,.5,1.38) lightSpeedRight;animation-delay:0s"><path d="M454.47 477.46c0 .14-93.17.26-208.07.26s-208.1-.12-208.1-.26 93.15-.26 208.1-.26 208.07.11 208.07.26z" style="transform-origin:246.385px 477.46px" id="eljoc7cmtfijj" class="animable" fill="#263238"/></g><g id="freepik--big-books--inject-2" class="animable" style="transform-origin:256.37px 384.3px;animation:1s 1 forwards cubic-bezier(.36,-.01,.5,1.38) zoomIn;animation-delay:0s"><path style="transform-origin:354.22px 320.65px" id="elm0acqrkg8n" class="animable" fill="#f5f5f5" d="M332.3 294.59h43.84v52.12H332.3z"/><path style="transform-origin:234.745px 320.6px" id="elf0av2m8jdpa" class="animable" fill="#ffc107" d="M135.68 291.2h198.13V350H135.68z"/><path d="M377.47 296.14h-49v-4.94h49a2.46 2.46 0 012.47 2.47 2.47 2.47 0 01-2.47 2.47z" style="transform-origin:354.205px 293.67px" id="ele2e5iugiwb" class="animable" fill="#ffc107"/><path d="M377.47 350h-49v-4.94h49a2.47 2.47 0 012.47 2.47 2.46 2.46 0 01-2.47 2.47z" style="transform-origin:354.205px 347.53px" id="elqg2p0iq3f4p" class="animable" fill="#ffc107"/><g style="transform-origin:306.535px 320.6px" class="animable" opacity=".4" id="el74np5bumfaa"><path id="elcz3ycotdzxn" class="animable" style="transform-origin:306.535px 320.6px" d="M294.83 291.2h23.41V350h-23.41z"/></g><g style="transform-origin:164.965px 320.6px" class="animable" opacity=".4" id="elozol9lny4zp"><path id="elh5ztuyehrtj" class="animable" style="transform-origin:164.965px 320.6px" d="M153.26 291.2h23.41V350h-23.41z"/></g><path d="M376.14 303.22c0 .14-9.49.26-21.19.26s-21.19-.12-21.19-.26 9.49-.22 21.24-.22 21.14.07 21.14.22z" style="transform-origin:354.95px 303.24px" id="ely2veedg9xz" class="animable" fill="#e0e0e0"/><path d="M376.14 311c0 .15-9.49.26-21.19.26s-21.19-.11-21.19-.26 9.49-.26 21.19-.26 21.19.15 21.19.26z" style="transform-origin:354.95px 311px" id="elc2y65fceulv" class="animable" fill="#e0e0e0"/><path d="M376.14 320.65c0 .15-9.49.27-21.19.27s-21.19-.12-21.19-.27 9.49-.26 21.19-.26 21.19.12 21.19.26z" style="transform-origin:354.95px 320.655px" id="elnux246pmdre" class="animable" fill="#e0e0e0"/><path d="M376.14 330.28c0 .14-9.49.26-21.19.26s-21.19-.12-21.19-.26 9.49-.28 21.24-.28 21.14.13 21.14.28z" style="transform-origin:354.95px 330.27px" id="elvmn3t2htkvb" class="animable" fill="#e0e0e0"/><path d="M376.14 339.9c0 .15-9.49.26-21.19.26s-21.19-.11-21.19-.26 9.49-.26 21.19-.26 21.19.12 21.19.26z" style="transform-origin:354.95px 339.9px" id="elx2oldrgn08i" class="animable" fill="#e0e0e0"/><g style="transform-origin:237.67px 320.655px" class="animable" opacity=".2" id="elm3lva2tesvn"><path id="elpm8kt8eaf7c" class="animable" style="transform-origin:237.67px 320.655px" d="M193.1 315.36h89.14v10.59H193.1z"/></g><path style="transform-origin:353.435px 367.03px" id="ela4uvllyqclh" class="animable" fill="#fafafa" d="M331.18 351.15h44.51v31.76h-44.51z"/><path style="transform-origin:236.96px 367.02px" id="el4idcik4oiiv" class="animable" fill="#455a64" d="M142.24 349.99h189.44v34.06H142.24z"/><path d="M330.3 352.3h47.85a1.15 1.15 0 001.15-1.15 1.15 1.15 0 00-1.15-1.16H330.3z" style="transform-origin:354.8px 351.145px" id="elgep099rtn2c" class="animable" fill="#455a64"/><path d="M330.3 381.75h47.85a1.15 1.15 0 011.15 1.15 1.15 1.15 0 01-1.15 1.15H330.3v-2.3z" style="transform-origin:354.8px 382.9px" id="el59vb0y2akls" class="animable" fill="#455a64"/><path d="M375.7 357.18c0 .14-9.86.26-22 .26s-22-.12-22-.26 9.85-.26 22-.26 22 .08 22 .26z" style="transform-origin:353.7px 357.18px" id="el3d9qx4ox714" class="animable" fill="#e0e0e0"/><path d="M375.7 363.19c0 .14-9.86.26-22 .26s-22-.12-22-.26 9.85-.26 22-.26 22 .07 22 .26z" style="transform-origin:353.7px 363.19px" id="elxx321oz45j" class="animable" fill="#e0e0e0"/><path d="M375.7 369.19c0 .15-9.86.26-22 .26s-22-.11-22-.26 9.85-.26 22-.26 22 .12 22 .26z" style="transform-origin:353.7px 369.19px" id="elfpjh6ahldx" class="animable" fill="#e0e0e0"/><path d="M375.7 375.2c0 .15-9.86.26-22 .26s-22-.11-22-.26 9.85-.26 22-.26 22 .12 22 .26z" style="transform-origin:353.7px 375.2px" id="eljttjtse5a0c" class="animable" fill="#e0e0e0"/><path style="transform-origin:237.09px 366.635px" id="elwiuh9ipwx9f" class="animable" fill="#263238" d="M171.77 362.19h130.64v8.89H171.77z"/><path style="transform-origin:359.73px 430.125px" id="elte2dy9nnujf" class="animable" fill="#ebebeb" d="M337.01 387.08h45.44v86.09h-45.44z"/><path style="transform-origin:230.375px 430.73px" id="el9ln64jhtn47" class="animable" fill="#ffc107" d="M123.74 384.06h213.27v93.34H123.74z"/><path d="M386 477.4h-54.82v-6H386a3 3 0 013 3 3 3 0 01-3 3z" style="transform-origin:360.09px 474.4px" id="elzxxyh6a9c5k" class="animable" fill="#ffc107"/><path d="M331.18 384.06H386a3 3 0 013 3 3 3 0 01-3 3h-54.82v-6.05.05z" style="transform-origin:360.09px 387.035px" id="elsuwpw8jtkar" class="animable" fill="#ffc107"/><g style="transform-origin:286.495px 430.73px" class="animable" opacity=".4" id="elik7qhjgjqfq"><path style="transform-origin:286.495px 430.73px" id="el9gcawbx5ofj" class="animable" fill="#fff" d="M291.14 384.06l-44.86 93.34h37.9l42.53-93.34h-35.57z"/></g><g style="transform-origin:215.735px 430.73px" class="animable" opacity=".4" id="elmww48tjubdm"><path style="transform-origin:215.735px 430.73px" id="el8t9exadsf2j" class="animable" fill="#fff" d="M220.38 384.06l-44.86 93.34h37.89l42.54-93.34h-35.57z"/></g><path d="M382.45 398.62c0 .15-10.17.26-22.72.26s-22.72-.11-22.72-.26 10.17-.26 22.72-.26 22.72.12 22.72.26z" style="transform-origin:359.73px 398.62px" id="elzhxbusvbvr" class="animable" fill="#e0e0e0"/><path d="M382.45 409.66c0 .15-10.17.26-22.72.26s-22.72-.11-22.72-.26 10.17-.26 22.72-.26 22.72.12 22.72.26z" style="transform-origin:359.73px 409.66px" id="elry3hn6l5kd" class="animable" fill="#e0e0e0"/><path d="M382.45 420.71c0 .14-10.17.26-22.72.26s-22.72-.12-22.72-.26 10.17-.26 22.72-.26 22.72.11 22.72.26z" style="transform-origin:359.73px 420.71px" id="elb8m4xflqdg" class="animable" fill="#e0e0e0"/><path d="M382.45 431.75c0 .14-10.17.26-22.72.26s-22.72-.12-22.72-.26 10.17-.26 22.72-.26 22.72.11 22.72.26z" style="transform-origin:359.73px 431.75px" id="el9cisnusseq" class="animable" fill="#e0e0e0"/><path d="M382.45 442.79c0 .14-10.17.26-22.72.26s-22.72-.12-22.72-.26 10.17-.26 22.72-.26 22.72.12 22.72.26z" style="transform-origin:359.73px 442.79px" id="elgu0qvl3z8cw" class="animable" fill="#e0e0e0"/><path d="M382.45 453.83c0 .14-10.17.26-22.72.26S337 454 337 453.83s10.17-.26 22.72-.26 22.73.12 22.73.26z" style="transform-origin:359.725px 453.83px" id="el95tt2u54qao" class="animable" fill="#e0e0e0"/><path d="M382.45 464.87c0 .15-10.17.26-22.72.26S337 465 337 464.87s10.17-.26 22.72-.26 22.73.12 22.73.26z" style="transform-origin:359.725px 464.87px" id="el9ycv3x3kmb8" class="animable" fill="#e0e0e0"/></g><g id="freepik--Character--inject-2" class="animable" style="transform-origin:269.78px 279.515px;animation:1s 1 forwards cubic-bezier(.36,-.01,.5,1.38) zoomIn;animation-delay:0s"><path d="M355.41 133.27l-13.92-22.34a.79.79 0 00-1.34 0l-13.66 23.62z" style="transform-origin:340.95px 122.554px" id="elqdsswagr5di" class="animable" fill="#ffc107"/><g style="transform-origin:340.95px 122.554px" class="animable" opacity=".3" id="ele4tmvqg92qs"><path d="M355.41 133.27l-13.92-22.34a.79.79 0 00-1.34 0l-13.66 23.62z" id="ellqo3wkmxol" class="animable" style="transform-origin:340.95px 122.554px"/></g><path style="transform-origin:342.22px 122.585px" id="el3ojgilfembo" class="animable" fill="#ebebeb" d="M341.49 111.99l13.01 21.19-3.31-.52-21.25-3.35 7.92-16.66 3.63-.66z"/><path d="M342.88 153.65l12.53-20.38-32.45-6a2.55 2.55 0 00-2.67 1.22l-18.3 31a1.59 1.59 0 001.09 2.37l30.5 5.41z" style="transform-origin:328.591px 147.248px" id="elgv6nbylzl9q" class="animable" fill="#ffc107"/><path style="transform-origin:339.155px 123.02px" id="elj88ugcy51cf" class="animable" fill="#ebebeb" d="M334.22 113.27l18.01 19.5-26.15-4.9 8.14-14.6z"/><path d="M326.08 127.87a1.07 1.07 0 01.12-.29l.4-.79 1.6-3c1.44-2.61 3.44-6.26 5.83-10.63l.15-.27.21.23 11.74 12.66 6.28 6.82-.39.31c-4.1-5.81-7.66-10.84-10.23-14.47l-2.93-4.24-.76-1.14a2.52 2.52 0 01-.25-.41s.12.11.32.36l.83 1.1 3.05 4.14 10.38 14.37-.39.32-6.29-6.8-11.69-12.72h.36c-2.46 4.33-4.51 8-6 10.54l-1.71 2.94-.46.76c-.1.13-.16.22-.17.21z" style="transform-origin:339.255px 122.795px" id="elcmevcwsinck" class="animable" fill="#263238"/><g style="transform-origin:329.945px 147.045px" class="animable" opacity=".3" id="eliqnqu20t0n"><path d="M326.44 136.35c-.28.42-10.92 18.15-10.92 18.15l17.34 3.24 11.51-18.39z" style="transform-origin:329.945px 147.045px" id="el61ygdy5cc6v" class="animable" fill="#fff"/></g><path d="M196 438.8l9.53-12.45.5-.64 16.24 12.08-15 16.52.55 16.72c8.37 2.17 9.63 6.35 9.63 6.35h-17.41l-15.89-30.48z" style="transform-origin:203.21px 451.545px" id="elunaf7b6xho" class="animable" fill="#455a64"/><path d="M184.15 446.9L200 477.36h17.41a7.19 7.19 0 00-2-2.62l-14.16-.74-14.59-28.79z" style="transform-origin:200.78px 461.285px" id="elr7oi9mh8qg" class="animable" fill="#ebebeb"/><path d="M207.63 463.37c-.13.18-1.13-.39-2.48-.36s-2.33.6-2.47.42.82-1.17 2.46-1.18 2.65.98 2.49 1.12z" style="transform-origin:205.157px 462.858px" id="elvs3orfkeeqg" class="animable" fill="#263238"/><path d="M207.35 459.22c-.17.12-.95-.9-2.34-1.18s-2.49.37-2.61.19.15-.37.63-.64a3.24 3.24 0 012.14-.3 3.3 3.3 0 011.85 1.1c.34.44.42.78.33.83z" style="transform-origin:204.878px 458.227px" id="elvqsj04lh6p" class="animable" fill="#263238"/><path d="M207.47 453.89c-.19.1-.78-.91-2-1.33s-2.3 0-2.39-.22.18-.33.66-.51a3 3 0 012 0 3.05 3.05 0 011.55 1.24c.25.46.27.79.18.82z" style="transform-origin:205.291px 452.778px" id="elem8xwvjcaaf" class="animable" fill="#263238"/><path d="M212.13 449.77c-.21.07-.69-.92-1.77-1.62s-2.17-.81-2.18-1 1.29-.5 2.6.38 1.56 2.21 1.35 2.24z" style="transform-origin:210.188px 448.356px" id="eltnm0825g9el" class="animable" fill="#263238"/><path d="M214.41 446.19c-.09.06-.67-.64-1.52-1.82l-1.47-2.09a5.29 5.29 0 01-.81-1.41 1.42 1.42 0 01.11-1.06 1.08 1.08 0 011.05-.55 3.14 3.14 0 011.62.85 5.45 5.45 0 011.06 1.21 5.87 5.87 0 01.91 2.51 3.26 3.26 0 01-.39 2.38 20.84 20.84 0 00-.14-2.29 5.64 5.64 0 00-1.92-3.24 2.8 2.8 0 00-1.2-.65.3.3 0 00-.33.15.75.75 0 000 .5 5.78 5.78 0 00.68 1.21c.45.74.89 1.47 1.33 2.18a8 8 0 011.02 2.12z" style="transform-origin:212.995px 442.732px" id="eldj4c7cydcym" class="animable" fill="#263238"/><path d="M215 446.71c-.08 0 0-.92.93-2a4.36 4.36 0 015.16-.92.8.8 0 01.27.62 1 1 0 01-.21.55 3 3 0 01-.63.55 8 8 0 01-1.23.7 7.31 7.31 0 01-2.29.64 3.61 3.61 0 01-2.15-.2 18.78 18.78 0 012.06-.34 8.32 8.32 0 002.08-.74 8.1 8.1 0 001.1-.67 2.68 2.68 0 00.45-.39c.08-.16.06-.11 0-.16a1.39 1.39 0 00-.5-.19 4.87 4.87 0 00-.65-.1 4.59 4.59 0 00-1.24.09 4.33 4.33 0 00-1.88.95c-.87.9-1.13 1.66-1.27 1.61z" style="transform-origin:218.105px 445.125px" id="el0nihpo9pjqhk" class="animable" fill="#263238"/><path d="M198 446.38a2.07 2.07 0 11-2.07-2.07 2.07 2.07 0 012.07 2.07z" style="transform-origin:195.93px 446.38px" id="elnwtcftdyt2p" class="animable" fill="#ebebeb"/><g style="transform-origin:212.01px 434.885px" class="animable" opacity=".3" id="el29menpsva8h"><path id="elsixes0cqu5q" class="animable" style="transform-origin:212.01px 434.885px" d="M220.71 439.45l-3.34 3.67-14.06-13.92 1.96-2.55 15.44 12.8z"/></g><path d="M264.11 445.13l-1.78 21.17s20.92 7.14 21 11.08l-41.17-.19 1.42-33.1z" style="transform-origin:262.745px 460.735px" id="elf73cfzl2l8g" class="animable" fill="#455a64"/><path d="M249.68 463.9a1.68 1.68 0 00-1.25 1.87 1.62 1.62 0 001.83 1.26 1.78 1.78 0 001.32-2 1.68 1.68 0 00-2.06-1.1" style="transform-origin:250.007px 465.457px" id="elkhx12t1cx7" class="animable" fill="#ebebeb"/><path d="M242.13 477.19l.14-3.3 39 .93s2.07 1.66 2.05 2.56z" style="transform-origin:262.725px 475.635px" id="el9v2lrky6wp7" class="animable" fill="#ebebeb"/><path d="M263 466.12c0 .2-1 .25-2 .85s-1.59 1.41-1.77 1.33.17-1.24 1.42-1.94 2.41-.42 2.35-.24z" style="transform-origin:261.094px 467.108px" id="elm15ffh3gh9q" class="animable" fill="#263238"/><path d="M267.24 468.12c0 .19-.86.49-1.58 1.31s-1 1.71-1.16 1.69-.28-1.16.64-2.16 2.1-1.04 2.1-.84z" style="transform-origin:265.815px 469.572px" id="el8xj5kkobua6" class="animable" fill="#263238"/><path d="M269.44 473.4c-.19 0-.42-1 .15-2.06s1.53-1.47 1.61-1.3-.53.74-1 1.63-.56 1.72-.76 1.73z" style="transform-origin:270.218px 471.701px" id="eljilsnfr31x9" class="animable" fill="#263238"/><path d="M262.87 461.25c-.09.18-1-.14-2.14-.12s-2 .34-2.14.16.79-.85 2.13-.86 2.28.67 2.15.82z" style="transform-origin:260.729px 460.887px" id="elmhxhj4lsu1" class="animable" fill="#263238"/><path d="M263.15 457a4 4 0 01-2.06-.11 9.52 9.52 0 01-2.12-.77 8.84 8.84 0 01-1.16-.69 2.63 2.63 0 01-.6-.51.88.88 0 010-1.07 1.1 1.1 0 01.91-.42 2.71 2.71 0 01.76.14 8.07 8.07 0 011.26.5 7.55 7.55 0 011.85 1.34c.91.93 1.2 1.7 1.13 1.74s-.53-.59-1.47-1.37a8.5 8.5 0 00-1.79-1.13 7.93 7.93 0 00-1.16-.42c-.43-.13-.81-.15-.93 0s-.05.11 0 .24a2.18 2.18 0 00.44.37 10.47 10.47 0 001.06.68 11.23 11.23 0 002 .86 12.52 12.52 0 011.88.62z" style="transform-origin:260.089px 455.29px" id="elcwvpzp5aohn" class="animable" fill="#263238"/><path d="M262.88 457.25c-.08 0-.44-.71-.45-2a6.77 6.77 0 01.39-2.24 7.58 7.58 0 01.58-1.23 1.77 1.77 0 011.37-1 1 1 0 01.83.62 2.74 2.74 0 01.18.77 4.58 4.58 0 01-.07 1.39 4.64 4.64 0 01-1 2.08c-.86 1-1.71 1.23-1.72 1.16s.66-.46 1.32-1.45a4.81 4.81 0 00.75-1.91 4.29 4.29 0 000-1.19c-.05-.44-.19-.8-.36-.77s-.57.3-.75.65a6.31 6.31 0 00-.57 1.09 7.65 7.65 0 00-.5 2c-.07 1.24.12 2.01 0 2.03z" style="transform-origin:264.117px 454.015px" id="elc0v41koi6qb" class="animable" fill="#263238"/><path d="M347.6 160.31a5.1 5.1 0 00-.14-3.63c-1.7-4-5.7-13-7.15-12.75-1.28.23-2.22 2.67-.76 5.36l-4.71-4a1.36 1.36 0 00-2.23 1.24 7.26 7.26 0 00.58 1.75c1.46 3.1 5.52 6 5.52 6l-8.2.05s-1.53 2.14 1.28 3.58a5.74 5.74 0 002 .56l4.24.43s-7.66 8.47-7.92 9.26a17.31 17.31 0 00-.68 3.9l-14.7 16.35 3.93 24.86 26.56-46z" style="transform-origin:331.299px 178.597px" id="el2wth1ckcdw5" class="animable" fill="#b78876"/><path d="M345.47 156.57c-.07.05-.34-.34-.92-.78a6.17 6.17 0 00-2.59-1.08 14.58 14.58 0 00-2.89-.16 3.39 3.39 0 01-1.24-.07c0-.07.45-.19 1.21-.3a9.78 9.78 0 013 0 5.33 5.33 0 012.74 1.31c.58.58.74 1.06.69 1.08z" style="transform-origin:341.654px 155.319px" id="elez0pj8d2uf6" class="animable" fill="#aa6550"/><path d="M345.6 154a15.66 15.66 0 01-3.33-2.29 15.41 15.41 0 01-3-2.71 16.35 16.35 0 013.34 2.3 16.06 16.06 0 012.99 2.7z" style="transform-origin:342.435px 151.5px" id="el67atvbcv7dr" class="animable" fill="#aa6550"/><path d="M273.1 276.6c.22 0 1 49 1.32 71.07a38.36 38.36 0 01-5.18 19.81l-47.85 84.06-27.49-22.87 44.45-75.12L222 274.37l32.4-27.86z" style="transform-origin:234.162px 349.025px" id="el2knf3g0kjhd" class="animable" fill="#263238"/><path d="M296.35 266.59c-.14 2.82-26 184.54-26 184.54l-32-2.28 11.74-183.39z" style="transform-origin:267.35px 358.295px" id="elsf7oun885f" class="animable" fill="#263238"/><path d="M269.55 279.34s0 .17.06.48.08.8.14 1.4c.1 1.26.26 3.07.45 5.4.37 4.71.91 11.48 1.56 19.84s1.36 18.37 2.18 29.45q.27 4.17.56 8.52c.08 1.45.21 2.93.16 4.42a32.79 32.79 0 01-.44 4.51 33.86 33.86 0 01-2.78 8.84c-.66 1.43-1.45 2.79-2.22 4.18l-2.33 4.17-32.08 57.33c-4.12 7.3-7.46 13.22-9.77 17.34-1.16 2-2.06 3.61-2.69 4.7l-.7 1.22-.26.4s.06-.15.21-.43l.66-1.24 2.6-4.75 9.63-17.42c8.18-14.71 19.47-35 31.95-57.4.78-1.4 1.55-2.8 2.33-4.18s1.56-2.74 2.2-4.14a33.77 33.77 0 002.75-8.71 31.63 31.63 0 00.43-4.43c.06-1.47-.07-2.93-.14-4.38q-.28-4.35-.55-8.51c-.78-11.09-1.48-21.07-2.06-29.46s-1.07-15.14-1.4-19.86c-.15-2.32-.27-4.14-.36-5.4 0-.6-.06-1.07-.08-1.41s-.01-.48-.01-.48z" style="transform-origin:248.031px 365.44px" id="elvf7zceg1kk" class="animable" fill="#455a64"/><path d="M247.68 365.28a1.85 1.85 0 01-.65-.11 8.59 8.59 0 01-1.68-.62 12.64 12.64 0 01-6.85-9.16 8.92 8.92 0 01-.12-1.79c0-.42 0-.65.08-.65s.09.93.4 2.37a13.7 13.7 0 006.66 8.9c1.29.71 2.18.97 2.16 1.06z" style="transform-origin:243.028px 359.115px" id="eljt2xnggogx" class="animable" fill="#455a64"/><path d="M251.3 359.81a6.14 6.14 0 01-2.33 0 14.27 14.27 0 01-5.31-1.84 14.47 14.47 0 01-4.2-3.73 6.27 6.27 0 01-1.15-2c.08 0 .53.72 1.44 1.8a16.19 16.19 0 009.28 5.44c1.38.22 2.27.24 2.27.33z" style="transform-origin:244.805px 356.081px" id="elf8jroh111f" class="animable" fill="#455a64"/><path d="M228.74 282s.22.28.77.53a2.89 2.89 0 002.44-.17 22.05 22.05 0 003.15-2.25c1.15-.92 2.37-2 3.61-3.13a62.7 62.7 0 005.87-6.41c1.38-1.74 2.17-2.88 2.23-2.83a3.39 3.39 0 01-.46.86c-.32.53-.82 1.29-1.48 2.2a48.76 48.76 0 01-5.8 6.56 53.11 53.11 0 01-3.67 3.13 19.67 19.67 0 01-3.3 2.2 3 3 0 01-2.68 0c-.58-.34-.7-.69-.68-.69z" style="transform-origin:237.774px 275.372px" id="elcb2me833vz" class="animable" fill="#455a64"/><path d="M246.56 280.49a13.65 13.65 0 01-1.27 2.82 19.49 19.49 0 01-4.6 5.89 11.26 11.26 0 01-7 2.66 7.35 7.35 0 01-2.26-.32 2.13 2.13 0 01-.77-.34 14.62 14.62 0 003 .29 11.57 11.57 0 006.64-2.69 21.78 21.78 0 004.61-5.67 27.53 27.53 0 011.65-2.64z" style="transform-origin:238.61px 286.175px" id="ele9gz8a4sy5c" class="animable" fill="#455a64"/><path d="M296.35 266.59s-24.7 11.53-33.56 7.56-14.66-13.13-21.07-11-16.19 4-19.55 13.13a8 8 0 01-2.13-5.75c0-3.56 3-8.39 3-8.39l-4-41.26.17-69.38s6.88-10.25 25.51-9.64l25.73 3.7s13.13 4 16.79 10.69 2.14 54.48 2.14 54.48 8.14 46.36 8.14 50a13.93 13.93 0 01-1.15 5.87" style="transform-origin:258.282px 209.057px" id="elbbh4w9jswic" class="animable" fill="#ffc107"/><path d="M311 187.73l-10.61 9.46-13.14-40.93-11 24.65 4.44 40a15.34 15.34 0 0011.62 13.21 15.36 15.36 0 0013.79-3.43l11.2-9.58a6 6 0 002.05-5.55l-4.17-26.32a2.52 2.52 0 00-4.18-1.51z" style="transform-origin:297.839px 195.405px" id="ellby69ddc6v" class="animable" fill="#ffc107"/><path d="M230.64 176.65c0 .91-4.93 45.59-4.93 45.59l20.89 45.19c-2 4.26-5.92 8.13-10.23 11.91 0 0-5.34-4.88-5.65-15.27 0 0-23.74-27.89-26.18-35.22s4.28-57.39 4.28-57.39z" style="transform-origin:225.303px 225.4px" id="el51vmfnv7xec" class="animable" fill="#b78876"/><path d="M283.71 184.43a3.61 3.61 0 01-.43.91c-.31.57-.77 1.38-1.35 2.38a38.68 38.68 0 01-2.14 3.46 6.32 6.32 0 01-1.79 1.69 5.46 5.46 0 01-2.56.75 7.78 7.78 0 01-4.79-1.52 12.73 12.73 0 01-2.83-3 23.49 23.49 0 01-1.45-2.33 3.81 3.81 0 01-.44-.9c.08-.05.81 1.18 2.18 3a13.53 13.53 0 002.81 2.8 7.5 7.5 0 004.5 1.39 4.86 4.86 0 002.31-.67 6.06 6.06 0 001.68-1.54c.9-1.19 1.57-2.41 2.21-3.37s1.13-1.75 1.49-2.28a3.84 3.84 0 01.6-.77z" style="transform-origin:274.82px 189.026px" id="elugjvcgkshv" class="animable" fill="#263238"/><path d="M299.1 221.49a3.82 3.82 0 01-.4-.9 21.71 21.71 0 01-.79-2.59 30.73 30.73 0 01.89-17.64 23.4 23.4 0 011.05-2.49 3.79 3.79 0 01.49-.86c.09 0-.51 1.31-1.19 3.47a35.06 35.06 0 00-1.57 8.66 35.48 35.48 0 00.68 8.78c.47 2.21.93 3.54.84 3.57z" style="transform-origin:298.685px 209.25px" id="elj8g52839tlk" class="animable" fill="#263238"/><path d="M304.69 213.3a9.54 9.54 0 01-1.29-2.15 30.22 30.22 0 01-3.11-11.64 9.62 9.62 0 010-2.5 15.45 15.45 0 01.32 2.47 41.25 41.25 0 001.1 5.88 42.58 42.58 0 002 5.64 16.39 16.39 0 01.98 2.3z" style="transform-origin:302.449px 205.155px" id="eliqvafwovwih" class="animable" fill="#263238"/><path d="M283 192.81s.1.15.23.44a12.23 12.23 0 01.5 1.34 14.61 14.61 0 01.66 5.2 11.62 11.62 0 01-2.93 7.15 10 10 0 01-3.81 2.67 8.85 8.85 0 01-5 .42 8.18 8.18 0 01-4.39-2.38 9.25 9.25 0 01-2.11-4.14 25.61 25.61 0 01-.6-4.12c-.1-1.29-.2-2.49-.29-3.6-.15-2.13-.27-3.89-.37-5.2 0-.57-.05-1-.07-1.42a1.82 1.82 0 010-.5 2.25 2.25 0 01.09.49c0 .38.11.85.17 1.41.14 1.31.32 3.06.54 5.19.11 1.11.22 2.31.35 3.59a26.33 26.33 0 00.63 4 8.79 8.79 0 002 3.91 7.74 7.74 0 004.12 2.22 8.42 8.42 0 004.68-.39 9.61 9.61 0 003.63-2.51 11.41 11.41 0 002.92-6.86 15.28 15.28 0 00-.48-5.12c-.23-1.14-.47-1.77-.47-1.79z" style="transform-origin:274.607px 199.441px" id="el99y1zxj5oc" class="animable" fill="#263238"/><g style="transform-origin:231.899px 209.275px" class="animable" opacity=".2" id="eltckzgayv7k8"><path d="M232.41 236.72a38 38 0 012.38-9.5c1.44-3.79 3.32-7.55 3.38-11.61a26.55 26.55 0 00-1.34-7.51l-7.29-26.27q-.42 10.18-.83 20.38a8.65 8.65 0 00.76 4.84c1.08 1.76 3.29 2.53 4.52 4.18a4.91 4.91 0 01.67 4.51c-.54 1.49-1.88 1.87-3.41 2.24a19.42 19.42 0 01-2.12.43c-1 .16-2.56-.07-3 .88-1.21 2.36.08 3.79.59 4.92 2.32 5.15 5.73 12.51 5.73 12.51" id="ely3gehfkviu" class="animable" style="transform-origin:231.899px 209.275px"/></g><path d="M223.49 148S202 158.86 199 216.94a6.18 6.18 0 007.31 6.4c8.83-1.68 22.21-4.28 22.12-4.64-.12-.53 5-51.11 5-51.11z" style="transform-origin:216.211px 185.723px" id="elv8t3yn4ulr" class="animable" fill="#ffc107"/><path d="M233 166.69v3c0 1.93-.16 4.73-.39 8.18s-.58 7.55-1.06 12.09c-.25 2.27-.52 4.65-.79 7.12-.15 1.24-.3 2.49-.46 3.77s-.54 2.57-.74 3.83a5.06 5.06 0 000 1.86 3.49 3.49 0 00.86 1.56c.82.9 2 1.37 3 2.28a6 6 0 011.64 3.38 6.31 6.31 0 010 1.84 2.46 2.46 0 01-2.42 2.38l-1.62.31-3.08.61-5.46 1.1-8 1.67-1.26.25-.5.1h-.08v-.12h.3a3.7 3.7 0 01.77-.12 4.05 4.05 0 01-.74.22h-.31v-.12h.06l.5-.12 1.25-.3 8-1.83 5.52-1.2 3.08-.64 1.62-.33A2.48 2.48 0 00234 217a3.72 3.72 0 00.55-3.12 5.53 5.53 0 00-1.5-3.09c-.85-.82-2.08-1.3-3-2.3a4 4 0 01-1-1.8 5.44 5.44 0 010-2.05c.21-1.34.63-2.55.74-3.82s.31-2.53.46-3.76c.29-2.46.56-4.84.83-7.11.5-4.54.89-8.63 1.16-12.07s.45-6.23.56-8.16l.12-2.22a3.68 3.68 0 01.08-.81z" style="transform-origin:223.884px 194.359px" id="el47tdyb478of" class="animable" fill="#263238"/><path d="M224.17 202.3a2.2 2.2 0 01-.13.69 4.17 4.17 0 01-.26.78 8.38 8.38 0 01-.46 1 10.93 10.93 0 01-1.64 2.34 13.44 13.44 0 01-2.69 2.22 13.22 13.22 0 01-3.2 1.4 11 11 0 01-2.82.4 7.57 7.57 0 01-1.1 0 5 5 0 01-.81-.12 2.31 2.31 0 01-.68-.2c0-.1 1 .1 2.57 0a12.61 12.61 0 002.7-.49 14.71 14.71 0 003.07-1.38 14.47 14.47 0 002.61-2.11 12.26 12.26 0 001.67-2.19c.81-1.41 1.07-2.37 1.17-2.34z" style="transform-origin:217.275px 206.725px" id="eldn7rr1sgct" class="animable" fill="#263238"/><g style="transform-origin:268.482px 254.663px" class="animable" opacity=".2" id="eljahocko5fv"><path d="M247.37 254.12c10 5.93 22.26 7.35 33.77 5.6a16.54 16.54 0 005.49-1.59 6.6 6.6 0 003.44-4.36 4.17 4.17 0 00-2.46-4.67c-1.83-.62-3.77.38-5.5 1.25a50 50 0 01-35.3 3.56" id="elak08zst87z9" class="animable" style="transform-origin:268.482px 254.663px"/></g><path d="M294 255a2.34 2.34 0 01-.43.33c-.3.2-.72.53-1.32.87a28.21 28.21 0 01-5.24 2.46 41.34 41.34 0 01-18.89 1.67 84.63 84.63 0 01-18.39-4.94c-2.28-.86-4.11-1.59-5.37-2.11l-1.45-.61a2.66 2.66 0 01-.49-.25 3.06 3.06 0 01.53.15l1.48.52 5.43 1.95a90.81 90.81 0 0018.33 4.77 42.39 42.39 0 0018.7-1.5 32 32 0 005.26-2.29c1.19-.63 1.85-1.02 1.85-1.02z" style="transform-origin:268.21px 256.587px" id="elu14ibvo1tq" class="animable" fill="#263238"/><g style="transform-origin:292.285px 210px" class="animable" opacity=".2" id="el34zp2ijmw7r"><path d="M293.43 234.29c3-3 3-8.41 2.4-12.62s-2.23-8.25-2.8-12.48c-.54-4-.15-8.09-.33-12.14s-1.05-8.27-3.68-11.34a132.34 132.34 0 004.41 48.58" id="eljtvqyo5c1x" class="animable" style="transform-origin:292.285px 210px"/></g><g style="transform-origin:272.169px 203.119px" class="animable" opacity=".2" id="elvgc1tid454j"><path d="M265 190.35c-.46 2.66 0 5.45-.23 8.17a35.43 35.43 0 000 8.17 12 12 0 003.57 7.2 7.37 7.37 0 007.6 1.54 6.86 6.86 0 003.84-6.74 11.18 11.18 0 01-5.82 1.1 8.19 8.19 0 01-5.27-2.54 13.15 13.15 0 01-2.93-8.11c-.19-2.92-.55-5.91-.79-8.79" id="eltboq8934zhg" class="animable" style="transform-origin:272.169px 203.119px"/></g><path d="M231.62 182.85a4.15 4.15 0 01-1.08.24c-.7.11-1.71.26-3 .41a37.36 37.36 0 01-9.92 0 18.56 18.56 0 01-9.09-3.91 12.43 12.43 0 01-2.08-2.2 4 4 0 01-.57-.95 22.57 22.57 0 002.88 2.87 19.49 19.49 0 008.94 3.68 42.74 42.74 0 009.8.12l3-.24a4.83 4.83 0 011.12-.02z" style="transform-origin:218.75px 180.135px" id="eleciy3pxo0bo" class="animable" fill="#fafafa"/><path d="M230.21 190.53a4.89 4.89 0 01-1.06.38 11.66 11.66 0 01-1.28.33c-.5.1-1.07.24-1.72.32a27.8 27.8 0 01-4.55.3 31.53 31.53 0 01-5.55-.64 31 31 0 01-5.32-1.71 27.32 27.32 0 01-4-2.15c-.55-.33-1-.7-1.43-1a10.51 10.51 0 01-1-.83 4.6 4.6 0 01-.81-.78c.07-.08 1.27 1 3.47 2.3a30.39 30.39 0 004 2 30.37 30.37 0 0010.7 2.31 30.69 30.69 0 004.48-.19c2.51-.28 4.04-.74 4.07-.64z" style="transform-origin:216.85px 188.305px" id="el5oqfznog7so" class="animable" fill="#fafafa"/><path d="M264.19 189.28c0 .14-7.26.07-16.2-.16s-16.2-.53-16.19-.68 7.25-.07 16.2.16 16.19.53 16.19.68z" style="transform-origin:247.995px 188.858px" id="elpud8qna34yl" class="animable" fill="#fafafa"/><path d="M265.23 197.35a6.71 6.71 0 01-1.33.42c-.86.24-2.12.53-3.7.84a69.66 69.66 0 01-12.45 1.25 70.54 70.54 0 01-12.48-1c-1.58-.28-2.85-.54-3.71-.77a6.85 6.85 0 01-1.34-.39 8.39 8.39 0 011.38.19c.87.17 2.15.38 3.73.6a80.64 80.64 0 0024.81-.26c1.57-.26 2.84-.5 3.72-.68a8.14 8.14 0 011.37-.2z" style="transform-origin:247.725px 198.606px" id="el9milvexuz4d" class="animable" fill="#fafafa"/><path d="M284 195.87a2.23 2.23 0 01-.33.74 6.27 6.27 0 01-1.47 1.67 9.71 9.71 0 01-6.95 1.89 17.56 17.56 0 01-6.82-2.43 12.8 12.8 0 01-2.49-1.67 23.32 23.32 0 012.66 1.35 19.58 19.58 0 006.71 2.24A9.79 9.79 0 00282 198a11.21 11.21 0 002-2.13z" style="transform-origin:274.97px 198.052px" id="el29sjszxyka2" class="animable" fill="#fafafa"/><path d="M288.52 189.73a7.32 7.32 0 01-2.58.81 7.07 7.07 0 01-2.68.3 7.22 7.22 0 012.58-.81 7.07 7.07 0 012.68-.3z" style="transform-origin:285.89px 190.285px" id="elp5ikec0kojh" class="animable" fill="#fafafa"/><path d="M298.19 190.05a16.56 16.56 0 01-4.65 2.3 16.74 16.74 0 01-5 1.24c0-.15 2.2-.75 4.86-1.73s4.72-1.94 4.79-1.81z" style="transform-origin:293.365px 191.814px" id="eloskbp9b1vxc" class="animable" fill="#fafafa"/><path d="M295 180.47a16.73 16.73 0 01-3.07.9 16 16 0 01-3.09.83 10.84 10.84 0 016.16-1.73z" style="transform-origin:291.92px 181.333px" id="eld0640ei2pzq" class="animable" fill="#fafafa"/><path d="M289.55 176.81a2.63 2.63 0 010 .59l-.15 1.68c-.07.73-.15 1.62-.22 2.66s-.18 2.22-.23 3.52c-.17 2.62-.25 5.73-.27 9.19s.11 7.27.35 11.25.66 7.77 1.09 11.21.95 6.51 1.45 9.08c.23 1.29.48 2.44.69 3.46s.39 1.9.56 2.61.26 1.22.36 1.65a2.14 2.14 0 01.09.58 2.4 2.4 0 01-.19-.56l-.46-1.62c-.2-.71-.42-1.58-.65-2.6s-.51-2.17-.76-3.45c-.55-2.57-1.06-5.65-1.56-9.09s-.87-7.24-1.14-11.23-.33-7.82-.31-11.29.16-6.59.38-9.21c.08-1.31.21-2.49.31-3.53s.21-1.93.31-2.65.18-1.24.24-1.67a2.23 2.23 0 01.11-.58z" style="transform-origin:290.733px 205.55px" id="elph9t9tq2kbb" class="animable" fill="#263238"/><g style="transform-origin:274.063px 190.844px" class="animable" opacity=".2" id="elknyhymawcj"><path d="M267.73 188.55a10.8 10.8 0 0010.22.75 4.67 4.67 0 011.2-.44 1.17 1.17 0 011.13.43 1.48 1.48 0 01-.32 1.62 6.32 6.32 0 01-6.5 2 9.72 9.72 0 01-5.55-4.33" id="el7ekdgmyaybi" class="animable" style="transform-origin:274.063px 190.844px"/></g><path d="M249 103.13a35 35 0 01-1.14-6.95 11.91 11.91 0 011.6-6.77 7.26 7.26 0 015.78-3.53c1.45 0 2.91.47 4.34.21 1.65-.3 2.94-1.55 4.35-2.46a12.16 12.16 0 017.49-1.95 7.17 7.17 0 013.82 1.32 4.07 4.07 0 011.76 3.5 19.64 19.64 0 015.07-.32 6.57 6.57 0 014.44 2.21 4 4 0 01.29 4.72 3.24 3.24 0 013.88 1.89 4.21 4.21 0 01-1 4.41 7.87 7.87 0 01-5.06 1.84 11.42 11.42 0 01-4.85-1" style="transform-origin:269.381px 92.3905px" id="elzx61j2mdx9n" class="animable" fill="#263238"/><path d="M254.55 156.12A11.83 11.83 0 00269 145.76c.38-3.81.71-7 .78-7.51 0 0 9.57.18 11.32-9.11s3.88-31 3.88-31a32.86 32.86 0 00-33.24-1.61l-1.57.82-4.71 46a11.83 11.83 0 009.09 12.77z" style="transform-origin:265.187px 124.602px" id="eljf5l0y2lpj" class="animable" fill="#b78876"/><path d="M269.79 138.12a21.93 21.93 0 01-11.53-5.58s1.69 7.21 11.13 8z" style="transform-origin:264.025px 136.54px" id="el9os3v0g0zct" class="animable" fill="#aa6550"/><path d="M249.6 107.24c-.15-.1-6.07-3-7 3.39s5.7 6 5.74 5.81 1.26-9.2 1.26-9.2z" style="transform-origin:246.055px 111.51px" id="eli14gwkk9drk" class="animable" fill="#b78876"/><path d="M246.75 113.74s-.12.06-.32.12a1.14 1.14 0 01-.84-.1 2.78 2.78 0 01-.92-2.66 3.54 3.54 0 01.54-1.55 1.3 1.3 0 011-.74.57.57 0 01.61.4c.06.19 0 .32 0 .33s.15-.09.13-.36a.7.7 0 00-.19-.44.89.89 0 00-.59-.25 1.61 1.61 0 00-1.31.83 3.71 3.71 0 00-.64 1.73 2.93 2.93 0 001.23 3 1.2 1.2 0 001.05 0c.22-.16.27-.3.25-.31z" style="transform-origin:245.558px 111.33px" id="elyubpx8h2uc" class="animable" fill="#aa6550"/><path d="M280.27 112.45a1.35 1.35 0 01-1.52 1.11 1.28 1.28 0 01-1.16-1.43 1.35 1.35 0 011.51-1.13 1.3 1.3 0 011.17 1.45z" style="transform-origin:278.93px 112.281px" id="elr601bbtxhgg" class="animable" fill="#263238"/><path d="M280.89 111c-.2.15-1.07-.78-2.51-1s-2.6.28-2.73.08.16-.38.68-.63a3.72 3.72 0 012.22-.28 3.57 3.57 0 012 1c.34.4.45.74.34.83z" style="transform-origin:278.275px 110.063px" id="elrauhg2fte6" class="animable" fill="#263238"/><path d="M266.39 110a1.36 1.36 0 01-1.52 1.12 1.29 1.29 0 01-1.16-1.44 1.35 1.35 0 011.51-1.12 1.3 1.3 0 011.17 1.44z" style="transform-origin:265.049px 109.84px" id="elq8gvp9qdpqf" class="animable" fill="#263238"/><path d="M266.77 108.77c-.19.15-1.07-.77-2.5-1s-2.61.28-2.73.08.16-.37.67-.62a3.67 3.67 0 012.23-.29 3.54 3.54 0 011.95 1c.38.43.48.77.38.83z" style="transform-origin:264.159px 107.833px" id="el7a11vhbg81o" class="animable" fill="#263238"/><path d="M270.11 120.3a9.17 9.17 0 012.4 0c.37 0 .73 0 .83-.23a1.82 1.82 0 000-1.12c-.19-1-.39-1.94-.59-3-.81-4.22-1.33-7.67-1.16-7.7s1 3.37 1.77 7.59c.19 1 .38 2 .55 3a2.2 2.2 0 01-.06 1.47.92.92 0 01-.7.43 2.53 2.53 0 01-.63 0 9.76 9.76 0 01-2.41-.44z" style="transform-origin:272.059px 114.505px" id="elioybootz82" class="animable" fill="#263238"/><path d="M265.72 120.55c.24 0 0 1.58 1.11 2.92s2.82 1.45 2.79 1.67-.42.24-1.12.13a3.87 3.87 0 01-2.35-1.31 3.46 3.46 0 01-.83-2.42c.06-.66.3-1.02.4-.99z" style="transform-origin:267.468px 122.942px" id="elbqrfcarh2ak" class="animable" fill="#263238"/><path d="M280.8 108.36c-.31.28-1.23-.23-2.41-.45s-2.23-.17-2.4-.55c-.08-.18.14-.48.63-.71a3.56 3.56 0 013.88.8c.36.41.44.77.3.91z" style="transform-origin:278.419px 107.415px" id="elrxp32i1pe0p" class="animable" fill="#263238"/><path d="M265.82 103.27c-.19.15-.55 0-1-.16a11.69 11.69 0 00-1.72-.55 12.14 12.14 0 00-1.8-.19c-.49 0-.87 0-1-.25s.1-.58.67-.9a3.83 3.83 0 014.6 1c.43.48.43.92.25 1.05z" style="transform-origin:263.099px 102.087px" id="elyluxsa4u2b" class="animable" fill="#263238"/><path d="M284.91 101.12a22.26 22.26 0 01-13.47-3.07c-4.5-2.67-9.87-4.21-11.14-3.36s-1.87 5.65-6.6 6.72c0 0-.35 9.21-4 8.62s-.32-14.66-.32-14.66l9.28-3.73 9.92-1.13 9.16.67 8.33 3.24z" style="transform-origin:267.03px 100.284px" id="elitmruu2mt99" class="animable" fill="#263238"/></g><g id="freepik--Plants--inject-2" class="animable" style="transform-origin:244.788px 396.409px;animation:1s 1 forwards cubic-bezier(.36,-.01,.5,1.38) fadeIn;animation-delay:0s"><path d="M81.38 361.93c-7.95-12.16-6.79-29.54 2.7-40.54 3-3.41 7.07-6.38 11.57-6s8.31 4.34 9.71 8.74.91 9.17.09 13.71c-1.15 6.36-3.08 12.87-7.5 17.6s-10.9 9.58-16.57 6.48" style="transform-origin:91.1771px 339.127px" id="elq3woujkxl6c" class="animable" fill="#ffc107"/><path d="M85.78 420.48a18.16 18.16 0 015.06-20.64c1.83-1.5 4.22-2.65 6.5-2s3.89 3 4.21 5.39a14.94 14.94 0 01-1.19 7.07c-1.17 3.17-2.75 6.35-5.46 8.39s-6.48 3.95-9.12 1.84" style="transform-origin:93.023px 409.552px" id="elms3ka9fwfu" class="animable" fill="#ffc107"/><path d="M66.6 416.3a26.31 26.31 0 00-13.26-27.76c-3-1.57-6.76-2.51-9.81-1s-4.63 5.38-4.38 8.87 1.92 6.71 3.77 9.67c2.6 4.16 5.78 8.2 10.21 10.29s10.35 3.68 13.47-.09" style="transform-origin:53.0719px 402.667px" id="el5cyp3xq6qdl" class="animable" fill="#ffc107"/><path d="M68 387.14c3.8-12.28-2.65-27.18-13.41-34.23-3.34-2.19-7.57-3.71-11.3-2.29s-6 5.72-6.13 9.8 1.45 8 3.26 11.7c2.52 5.13 5.75 10.2 10.66 13.15s12.82 5.89 16.92 1.87" style="transform-origin:53.1252px 369.585px" id="elsvo8z8j4i6l" class="animable" fill="#ffc107"/><path d="M75.62 447.2a3.5 3.5 0 01-.12-.6c-.07-.45-.15-1-.26-1.71 0-.38-.11-.79-.17-1.24s-.18-.94-.28-1.46c-.2-1.05-.41-2.25-.75-3.55-.16-.65-.32-1.33-.49-2.05s-.43-1.43-.65-2.19c-.41-1.52-1-3.1-1.58-4.78a92.72 92.72 0 00-4.74-10.52 94.23 94.23 0 00-6.15-9.77c-1.08-1.4-2.06-2.77-3.11-4-.51-.6-1-1.18-1.47-1.75l-1.43-1.54c-.9-1-1.78-1.84-2.54-2.59-.38-.37-.74-.71-1.06-1s-.66-.57-.94-.83l-1.29-1.16a2.69 2.69 0 01-.43-.43 2.53 2.53 0 01.5.35l1.34 1.09 1 .8 1.1 1c.78.73 1.69 1.55 2.6 2.55l1.47 1.53 1.5 1.73c1.07 1.18 2.07 2.56 3.17 4a88.86 88.86 0 016.16 9.78 88.31 88.31 0 014.73 10.59c.56 1.7 1.15 3.29 1.55 4.83.21.76.42 1.5.61 2.21s.32 1.41.47 2.07c.32 1.31.5 2.52.68 3.58.08.52.16 1 .24 1.47s.09.87.13 1.25c.06.71.11 1.28.15 1.73a2.58 2.58 0 01.06.61z" style="transform-origin:61.8903px 421.615px" id="elk6bqyxcoq3k" class="animable" fill="#263238"/><path d="M75.34 449.4a.73.73 0 010-.24c0-.19 0-.43.06-.71.06-.67.14-1.58.25-2.73.06-.6.12-1.26.19-2s.08-1.51.12-2.35c.06-1.69.22-3.61.17-5.74v-3.34c0-1.16-.12-2.36-.18-3.61-.08-2.5-.42-5.15-.73-7.94a124.68 124.68 0 00-3.76-17.87 124.51 124.51 0 00-6.59-17c-1.27-2.51-2.43-4.92-3.72-7.06-.63-1.08-1.19-2.15-1.82-3.13l-1.8-2.8c-1.11-1.82-2.29-3.34-3.27-4.72-.49-.68-.94-1.33-1.38-1.91l-1.23-1.54-1.7-2.15-.45-.56c-.1-.13-.15-.2-.14-.21l.18.17c.12.15.28.32.47.54l1.77 2.09 1.28 1.52c.45.57.91 1.21 1.42 1.89 1 1.37 2.2 2.88 3.34 4.69.58.89 1.2 1.82 1.84 2.79s1.2 2 1.85 3.13c1.31 2.14 2.49 4.55 3.78 7.06a120.29 120.29 0 016.64 17.1 120.29 120.29 0 013.75 17.95c.29 2.81.61 5.47.68 8 0 1.25.15 2.46.15 3.63v3.34c0 2.14-.15 4.06-.24 5.75-.06.85-.09 1.64-.16 2.36s-.17 1.37-.24 2c-.15 1.15-.26 2.06-.35 2.72 0 .29-.08.52-.1.71s-.07.18-.08.17z" style="transform-origin:62.9344px 405.597px" id="el995jl0hqfpt" class="animable" fill="#263238"/><path d="M96.05 330.08a1.08 1.08 0 01-.11.23l-.34.64-1.36 2.43c-.29.52-.64 1.1-1 1.75l-1.06 2.14c-.39.77-.79 1.59-1.23 2.45s-.81 1.83-1.24 2.82-.91 2-1.35 3.11-.86 2.24-1.32 3.42c-.23.59-.46 1.19-.69 1.81s-.43 1.25-.64 1.89c-.44 1.28-.88 2.6-1.34 4-1.68 5.45-3.28 11.52-4.63 18s-2.22 12.67-2.9 18.34-1 10.8-1.12 15.12c-.11 2.15-.13 4.11-.14 5.82s0 3.19 0 4.4v3.51a.64.64 0 010 .24 1.48 1.48 0 010-.24v-.72c0-.68-.08-1.61-.14-2.78s-.09-2.69-.09-4.41 0-3.67.06-5.83c.07-4.33.46-9.47 1-15.16s1.55-11.92 2.86-18.39 3-12.55 4.69-18l1.35-3.95c.22-.64.44-1.28.66-1.9s.47-1.21.71-1.8c.46-1.19.92-2.33 1.35-3.43s.94-2.11 1.38-3.1.86-1.93 1.28-2.81l1.27-2.44L93 335c.36-.65.72-1.21 1-1.73l1.44-2.39c.16-.24.29-.44.39-.61a1.18 1.18 0 01.22-.19z" style="transform-origin:85.7px 376.14px" id="elma4hr2858af" class="animable" fill="#263238"/><path d="M93.34 404.72a10.26 10.26 0 01-.84 1.48c-.58.93-1.38 2.31-2.32 4s-2 3.81-3 6.18a82.72 82.72 0 00-2.92 7.89 81.65 81.65 0 00-2 8.16c-.48 2.55-.81 4.86-1 6.81s-.31 3.53-.36 4.63a9.44 9.44 0 01-.14 1.7 12.82 12.82 0 01-.06-1.71c0-1.1 0-2.69.19-4.65a68.92 68.92 0 01.9-6.86 70.56 70.56 0 015-16.17 68.26 68.26 0 013.13-6.16c1-1.71 1.83-3.06 2.47-4a10.48 10.48 0 01.95-1.3z" style="transform-origin:87.0168px 425.145px" id="elthfmc7g1s08" class="animable" fill="#263238"/><path style="transform-origin:77.475px 459.56px" id="elk6oudgg83ko" class="animable" fill="#455a64" d="M60.01 441.72h34.93l-4.23 35.68H64.36l-4.35-35.68z"/><path style="transform-origin:77.52px 475.475px" id="el83to8yazkyu" class="animable" fill="#263238" d="M61.28 473.55l2.97 3.85h26.46l3.05-3.73-32.48-.12z"/><path d="M93.58 452.21c0 .15-7.25.27-16.19.27s-16.19-.12-16.19-.27 7.24-.26 16.19-.26 16.19.12 16.19.26z" style="transform-origin:77.39px 452.215px" id="el2k0b0pdbyqo" class="animable" fill="#fafafa"/><path d="M93.58 454.59c0 .14-7.25.26-16.19.26s-16.19-.12-16.19-.26 7.24-.26 16.19-.26 16.19.12 16.19.26z" style="transform-origin:77.39px 454.59px" id="elldfmg85ul5" class="animable" fill="#fafafa"/><path d="M93.14 456.89c0 .14-7 .26-15.62.26s-15.63-.12-15.63-.26 7-.26 15.63-.26 15.62.12 15.62.26z" style="transform-origin:77.515px 456.89px" id="eluo4ztq8pgcn" class="animable" fill="#fafafa"/><path d="M436.72 451.27a15.81 15.81 0 019.84-1.2 8.24 8.24 0 014.86 2.17c1.21 1.34 1.44 3.7.05 4.85a4.66 4.66 0 01-3.07.78c-2.6 0-5.49-.49-7.56 1.08-1.19.89-2 2.37-3.4 2.81a3.33 3.33 0 01-3.68-1.64 5.7 5.7 0 01-.42-4.22 6.44 6.44 0 013.38-4.63z" style="transform-origin:442.769px 455.805px" id="eloyn1kc5mvb" class="animable" fill="#ffc107"/><path d="M429.86 438c1.83 2.61 5.39 1.75 7 .15s2.35-3.91 3-6.11c1.45-5 2.91-10.32 1.83-15.45a8.64 8.64 0 00-2-4.21 4.52 4.52 0 00-4.26-1.41c-1.79.47-2.9 2.23-3.71 3.9a36.84 36.84 0 00-3.64 15.81c0 2.55.29 5.22 1.73 7.32" style="transform-origin:435.072px 425.272px" id="elrt78tjeezqk" class="animable" fill="#ffc107"/><path d="M424.83 441.78a9.49 9.49 0 001.48-8.75 16.8 16.8 0 00-5.18-7.52 27.86 27.86 0 00-9.28-5.48 10 10 0 00-4.18-.71 4.4 4.4 0 00-3.5 2.12c-1 1.86 0 4.12 1 6a71.37 71.37 0 006.1 9.28c1.83 2.36 3.92 4.68 6.7 5.75s5.68.94 7.16-1" style="transform-origin:415.272px 431.224px" id="el7q8kyljtqi9" class="animable" fill="#ffc107"/><path d="M429.73 477.46a5.38 5.38 0 00.17-1.19c.08-.86.19-1.95.32-3.24s.35-3 .72-4.75a36.82 36.82 0 011.73-5.62 20.9 20.9 0 012.87-5.07 10.66 10.66 0 013.62-3 10.45 10.45 0 013-.95 4.68 4.68 0 001.18-.17 5.83 5.83 0 00-1.2 0 9.5 9.5 0 00-3.18.83 10.69 10.69 0 00-3.82 3 20.12 20.12 0 00-3 5.18 34.43 34.43 0 00-1.72 5.7 40.56 40.56 0 00-.63 4.82c-.1 1.37-.14 2.49-.16 3.26a5.9 5.9 0 00.1 1.2z" style="transform-origin:436.484px 465.45px" id="el9vdaleunwcc" class="animable" fill="#263238"/><path d="M430 475a2.61 2.61 0 000-.55v-1.57c0-1.37 0-3.35.07-5.79.12-4.89.54-10.15 1.35-17.57.77-7 1.8-15.09 2.89-20.37.24-1.2.47-2.28.7-3.22s.39-1.77.56-2.43.27-1.13.37-1.53a3.08 3.08 0 00.1-.54 1.74 1.74 0 00-.2.51l-.45 1.51c-.21.66-.41 1.47-.65 2.41s-.51 2-.76 3.22a178.26 178.26 0 00-3.05 18.9c-.81 7.43-1.18 14.2-1.21 19.1 0 2.45 0 4.43.08 5.8 0 .64.08 1.16.1 1.58a2 2 0 00.1.54z" style="transform-origin:432.88px 448.215px" id="elwfcl9kcme8" class="animable" fill="#263238"/><path d="M430 461.91a10.81 10.81 0 000-1.64c-.06-1.06-.21-2.59-.5-4.46a58.38 58.38 0 00-1.46-6.5 52.7 52.7 0 00-2.71-7.69 41.17 41.17 0 00-8-12.43 19.16 19.16 0 00-1.88-1.74c-.29-.25-.54-.49-.8-.68l-.73-.5a10.43 10.43 0 00-1.39-.89 49.83 49.83 0 014.55 4.05 43.49 43.49 0 017.78 12.38 62.49 62.49 0 012.73 7.62 64.82 64.82 0 011.54 6.44c.34 1.85.54 3.36.66 4.41a11.87 11.87 0 00.21 1.63z" style="transform-origin:421.281px 443.645px" id="el19im9jsu3bl" class="animable" fill="#263238"/></g><g id="freepik--Books--inject-2" class="animable" style="transform-origin:267.305px 138.019px;animation:1s 1 forwards cubic-bezier(.36,-.01,.5,1.38) lightSpeedRight;animation-delay:0s"><path d="M137 213l1.94 2.47s9.6-15.37 20.74-16.95a2.19 2.19 0 002-.07l3.6-2.09a2.18 2.18 0 001-2.25s5.37-9.53 16.82-11l4.18-.79L158.55 156l-44.73 18.19z" style="transform-origin:150.55px 185.735px" id="elj28n6ghd10f" class="animable" fill="#ffc107"/><path d="M132.23 210.94l3.39 4.53s7.81-17.61 27.24-18.85l-19.12-19.76s-13.8 28.65-11.51 34.08z" style="transform-origin:147.417px 196.165px" id="el61ima3d4y59" class="animable" fill="#ebebeb"/><path d="M106.05 179.3s7.41-23.91 32-15.17l24.85 32.49S137.41 192 131.42 213z" style="transform-origin:134.475px 187.604px" id="eljxbbce8cob" class="animable" fill="#f5f5f5"/><path d="M162.86 196.62s7.68-18.78 24.45-16.47l-24.45-28.42-24 13.52z" style="transform-origin:163.085px 174.175px" id="elw8teumm8chi" class="animable" fill="#ebebeb"/><path d="M138 164.17s-2.79-14.2 8.18-20.39l7.19-3.74 25.15 28.16s-17.37 9.49-15.67 28.46z" style="transform-origin:158.101px 168.35px" id="elliclh5w3mgh" class="animable" fill="#f5f5f5"/><path d="M162.86 196.62a8.15 8.15 0 01-1-1.22c-.7-.88-1.6-2-2.7-3.44-2.3-3-5.39-7-8.8-11.4l-8.83-11.39-2.69-3.44a9.2 9.2 0 01-.94-1.3 12.45 12.45 0 011.1 1.17c.68.77 1.64 1.92 2.82 3.34 2.35 2.84 5.52 6.84 8.95 11.3s6.5 8.53 8.69 11.5l2.56 3.54a9.7 9.7 0 01.84 1.34z" style="transform-origin:150.38px 180.525px" id="el6as05g3y5a7" class="animable" fill="#263238"/><path d="M153.92 148.32a25.7 25.7 0 00-2.88 1.34 19.52 19.52 0 00-5.55 5.18 19 19 0 00-3.27 6.86c-.43 1.91-.37 3.15-.48 3.15a3.22 3.22 0 01-.08-.87 10.63 10.63 0 01.2-2.36 17.57 17.57 0 013.21-7.09 17.92 17.92 0 015.79-5.19 10 10 0 012.2-.89 2.89 2.89 0 01.86-.13z" style="transform-origin:147.788px 156.585px" id="el1yy8uuo2hos" class="animable" fill="#263238"/><path d="M166.31 160.2c0 .1-1.13.61-2.79 1.81a20.42 20.42 0 00-2.69 2.34 22.18 22.18 0 00-2.69 3.45 22.71 22.71 0 00-1.9 3.93 20.83 20.83 0 00-.9 3.45c-.34 2-.29 3.3-.39 3.3a3.31 3.31 0 01-.1-.9 9.4 9.4 0 010-1.05 10.59 10.59 0 01.11-1.4 18.55 18.55 0 01.82-3.56 21.66 21.66 0 011.91-4 21.09 21.09 0 012.78-3.5 18.35 18.35 0 012.83-2.31 13.37 13.37 0 011.2-.73 7.48 7.48 0 011-.47 3.07 3.07 0 01.81-.36z" style="transform-origin:160.573px 169.34px" id="elelw6d8uezat" class="animable" fill="#263238"/><path d="M170.32 163.59c0 .1-1.24.66-3 2a24.47 24.47 0 00-2.92 2.58 30.74 30.74 0 00-3 3.71 29.06 29.06 0 00-2.28 4.18 21 21 0 00-1.2 3.7c-.48 2.16-.41 3.56-.51 3.56a3.13 3.13 0 01-.09-1 7.87 7.87 0 010-1.15 10.15 10.15 0 01.2-1.51 19.2 19.2 0 011.11-3.81 26.55 26.55 0 012.3-4.29 27.74 27.74 0 013.07-3.76 22.56 22.56 0 013-2.54 13.79 13.79 0 011.29-.81 8.49 8.49 0 011-.53 4 4 0 011.03-.33z" style="transform-origin:163.81px 173.455px" id="elptmimt61yut" class="animable" fill="#263238"/><path d="M172.83 166.81c0 .09-1.24.65-3 2a23.26 23.26 0 00-2.86 2.66 29.17 29.17 0 00-2.87 3.83 29.56 29.56 0 00-2.16 4.27 23.38 23.38 0 00-1.12 3.74c-.45 2.18-.38 3.58-.49 3.58a4 4 0 01-.08-1 6.61 6.61 0 010-1.15 10.2 10.2 0 01.18-1.52 20.83 20.83 0 011-3.85 28.48 28.48 0 012.16-4.37 27.32 27.32 0 013-3.87 20 20 0 013-2.63 10.29 10.29 0 011.28-.84 7.39 7.39 0 011-.54 3.08 3.08 0 01.96-.31z" style="transform-origin:166.527px 176.85px" id="el82dg11xvh64" class="animable" fill="#263238"/><path d="M152.08 191.37c0 .09-1.39-.39-3.68-.59a19.26 19.26 0 00-8.75 1.31 19.06 19.06 0 00-7.15 5.21c-1.49 1.75-2.13 3-2.22 3a3.14 3.14 0 01.41-.93 15.27 15.27 0 011.52-2.3 17.82 17.82 0 0116.23-6.65 15.54 15.54 0 012.7.57 3.39 3.39 0 01.94.38z" style="transform-origin:141.18px 195.29px" id="eloimol9vijnr" class="animable" fill="#263238"/><path d="M148.79 187.27c0 .09-1.39-.39-3.68-.59a18.6 18.6 0 00-15.91 6.52c-1.49 1.75-2.13 3.05-2.21 3a3.14 3.14 0 01.41-.93 15.27 15.27 0 011.52-2.3 17.82 17.82 0 0116.23-6.65 15.54 15.54 0 012.7.57 3.39 3.39 0 01.94.38z" style="transform-origin:137.89px 191.19px" id="elgxjb5w4ppct" class="animable" fill="#263238"/><path d="M145.5 183.16c0 .1-1.39-.38-3.68-.58a18.6 18.6 0 00-15.91 6.52c-1.49 1.75-2.13 3-2.21 3a3.12 3.12 0 01.4-.93 15.48 15.48 0 011.53-2.31 17.84 17.84 0 0116.23-6.64 15.54 15.54 0 012.7.57 3.62 3.62 0 01.94.37z" style="transform-origin:134.6px 187.09px" id="elk37j06556t" class="animable" fill="#263238"/><path d="M142.21 179.06c0 .1-1.4-.38-3.68-.58a18.57 18.57 0 00-15.91 6.52c-1.49 1.75-2.13 3-2.22 3a4.08 4.08 0 01.41-.92 14.72 14.72 0 011.53-2.31 17.84 17.84 0 0116.22-6.64 14.79 14.79 0 012.71.57 3.62 3.62 0 01.94.36z" style="transform-origin:131.305px 182.995px" id="elzidwntdqgv" class="animable" fill="#263238"/><path d="M138.91 175c0 .1-1.39-.38-3.68-.58a18.57 18.57 0 00-15.9 6.52c-1.49 1.74-2.13 3-2.22 3a3.56 3.56 0 01.41-.92 15.27 15.27 0 011.52-2.31 17.88 17.88 0 0116.23-6.71 15.39 15.39 0 012.7.58 3.07 3.07 0 01.94.42z" style="transform-origin:128.01px 178.904px" id="el1er52yvovz6" class="animable" fill="#263238"/><path d="M135.62 170.86c0 .09-1.39-.38-3.68-.58A18.57 18.57 0 00116 176.8c-1.49 1.74-2.13 3-2.22 3a3.26 3.26 0 01.41-.93 15.8 15.8 0 011.52-2.3 17.82 17.82 0 0116.29-6.66 15.39 15.39 0 012.7.58 3.23 3.23 0 01.92.37z" style="transform-origin:124.7px 174.782px" id="el80ubyz42i53" class="animable" fill="#263238"/><path d="M144.76 165.83l6.86 7.62s2.14-10.54 11.47-14.54l-7.25-7.73a18 18 0 00-11.08 14.65z" style="transform-origin:153.925px 162.315px" id="eltbrvfl3ygmb" class="animable" fill="#ebebeb"/><path d="M169.4 88.76l-1 2.23s14.09 1.15 19.18 8.31a1.68 1.68 0 00.78 1.39l2.74 1.75a1.69 1.69 0 001.92-.11 18.78 18.78 0 0113.66 7.72l2.05 2.61 9.09-30.34L188 58.81z" style="transform-origin:193.11px 85.735px" id="el19m8utxzou8h" class="animable" fill="#ffc107"/><path d="M169.13 84.73l-1.93 4s15-.89 22.82 12.13l6.86-20.33s-24.81.67-27.75 4.2z" style="transform-origin:182.04px 90.695px" id="el56fobdeovxu" class="animable" fill="#ebebeb"/><path d="M181.69 55.26s19.23-3.43 22 16.72L190 100.84s-5.93-19.28-22.61-15.93z" style="transform-origin:185.54px 77.9394px" id="elg9j6d36ar4" class="animable" fill="#f5f5f5"/><path d="M190 100.84s15.78-1.4 20.18 11l11-27.13-18-11.71z" style="transform-origin:205.59px 92.42px" id="elzsp7v2bsm8" class="animable" fill="#ebebeb"/><path d="M203.62 72s8.85-7 17.07-1.63l5.16 3.63-10.51 27.51s-12.8-8.63-25.34-.66z" style="transform-origin:207.925px 84.9266px" id="elqwgz2xvoomh" class="animable" fill="#f5f5f5"/><path d="M190 100.84a6 6 0 01.46-1.17c.37-.83.84-1.87 1.4-3.1l4.74-10.2 4.75-10.19 1.43-3.09a5.55 5.55 0 01.59-1.11 6 6 0 01-.4 1.19c-.28.76-.73 1.83-1.29 3.16-1.12 2.65-2.75 6.28-4.61 10.26s-3.59 7.56-4.88 10.14c-.64 1.28-1.17 2.32-1.55 3a5.11 5.11 0 01-.64 1.11z" style="transform-origin:196.685px 86.41px" id="elz6lkrrbn12" class="animable" fill="#263238"/><path d="M220.67 76.76c-.06.07-.84-.54-2.27-1.25a16.29 16.29 0 00-12-1c-1.51.47-2.39 1-2.43.87s.18-.17.57-.41a10.89 10.89 0 011.74-.81 14.64 14.64 0 016.27-.85 14.93 14.93 0 016.06 1.82 10.87 10.87 0 011.59 1.08c.31.35.49.52.47.55z" style="transform-origin:212.318px 75.0125px" id="elk8xx305qsk" class="animable" fill="#263238"/><path d="M219.87 80.08c-.06.07-.85-.54-2.27-1.25a16.29 16.29 0 00-12-1c-1.52.47-2.39 1-2.44.87s.19-.17.58-.41a10.48 10.48 0 011.74-.81 14.59 14.59 0 016.27-.85 14.83 14.83 0 016.05 1.82 10.34 10.34 0 011.59 1.08c.32.35.5.52.48.55z" style="transform-origin:211.512px 78.3321px" id="ell6l8t1ajjwh" class="animable" fill="#263238"/><path d="M218.37 83.38c-.05.08-.84-.54-2.26-1.25a16.69 16.69 0 00-5.93-1.63 16.44 16.44 0 00-6.11.68c-1.51.48-2.39 1-2.43.88s.19-.18.58-.41a9.63 9.63 0 011.74-.82 14.88 14.88 0 016.26-.85 14.72 14.72 0 016.06 1.83 10.13 10.13 0 011.59 1.08c.35.29.53.46.5.49z" style="transform-origin:210.004px 81.6603px" id="elsjb9f1cr0kr" class="animable" fill="#263238"/><path d="M217.44 86.68c-.06.08-.85-.54-2.27-1.25a16.29 16.29 0 00-12-1c-1.52.48-2.39 1-2.44.88s.19-.18.58-.41a9.63 9.63 0 011.74-.82 14.9 14.9 0 016.27-.85 14.67 14.67 0 016.05 1.83 9.67 9.67 0 011.59 1.08c.32.34.5.51.48.54z" style="transform-origin:209.082px 84.9351px" id="el4ymjeh2bwhv" class="animable" fill="#263238"/><path d="M216.5 90.19c-.05.07-.84-.54-2.26-1.25a16.63 16.63 0 00-5.93-1.63 16.36 16.36 0 00-6.1.68c-1.52.47-2.39 1-2.44.87s.19-.17.58-.41a10.48 10.48 0 011.74-.81 14.9 14.9 0 016.27-.85 14.67 14.67 0 016 1.83A9.67 9.67 0 01216 89.7c.35.3.53.46.5.49z" style="transform-origin:208.133px 88.4694px" id="elaioso1hmhoh" class="animable" fill="#263238"/><path d="M215.59 94.18c-.06.08-.91-.59-2.47-1.33a19.34 19.34 0 00-2.83-1.09 24.51 24.51 0 00-3.63-.73 22.32 22.32 0 00-3.71-.09 17.2 17.2 0 00-3 .48c-1.67.43-2.62 1-2.67.88a2.46 2.46 0 01.64-.43 5.14 5.14 0 01.81-.39 8.36 8.36 0 011.12-.41 15.23 15.23 0 013-.61 21.16 21.16 0 013.8.05 21.55 21.55 0 013.72.79 16.56 16.56 0 012.85 1.22 8.5 8.5 0 011 .61 5.4 5.4 0 01.72.53c.48.34.67.5.65.52z" style="transform-origin:206.436px 92.2921px" id="elgsfyr87814h" class="animable" fill="#263238"/><path d="M214.26 97.07c-.06.08-.91-.6-2.49-1.31a18.83 18.83 0 00-2.87-1 24 24 0 00-3.67-.61 22.91 22.91 0 00-3.72 0 17.83 17.83 0 00-3 .55c-1.67.45-2.62 1-2.67.9s.21-.18.64-.43a6.11 6.11 0 01.81-.4 9.81 9.81 0 011.12-.43 16.27 16.27 0 013-.67 20.77 20.77 0 013.81-.07 20.51 20.51 0 013.76.67 15.49 15.49 0 012.9 1.15 9.64 9.64 0 011 .59 5.57 5.57 0 01.73.53c.48.32.68.51.65.53z" style="transform-origin:205.048px 95.3102px" id="elgrt023lckjg" class="animable" fill="#263238"/><path d="M189.81 91.49c-.09 0-.27-1.1-.95-2.75a15.21 15.21 0 00-4-5.57 14.92 14.92 0 00-6.15-3.09c-1.74-.42-2.86-.42-2.86-.51a2.18 2.18 0 01.79-.07 11.82 11.82 0 012.15.22 13.86 13.86 0 0110.45 8.89 10.7 10.7 0 01.55 2.09 2.27 2.27 0 01.02.79z" style="transform-origin:182.843px 85.4901px" id="el8pyzsge3kkq" class="animable" fill="#263238"/><path d="M191.47 87.74c-.09 0-.26-1.1-.95-2.75a14.6 14.6 0 00-10.18-8.67c-1.74-.41-2.87-.41-2.87-.5a2.18 2.18 0 01.79-.07 12.59 12.59 0 012.15.21 13.86 13.86 0 0110.45 8.9 11.66 11.66 0 01.56 2.09 2.09 2.09 0 01.05.79z" style="transform-origin:184.478px 81.7401px" id="elt2yfveeterd" class="animable" fill="#263238"/><path d="M193.14 84c-.09 0-.27-1.1-1-2.75A14.6 14.6 0 00182 72.57c-1.74-.41-2.87-.41-2.86-.5a2.18 2.18 0 01.79-.07 12.59 12.59 0 012.15.21 13.91 13.91 0 016.4 3.07 14.06 14.06 0 014.05 5.83 11.48 11.48 0 01.55 2.09 2.27 2.27 0 01.06.8z" style="transform-origin:186.146px 77.9951px" id="elerwpmjjsz4r" class="animable" fill="#263238"/><path d="M194.8 80.24c-.09 0-.26-1.1-1-2.75a14.59 14.59 0 00-10.19-8.67c-1.73-.41-2.86-.41-2.86-.5a2.18 2.18 0 01.79-.07 11.64 11.64 0 012.15.21 13.81 13.81 0 0110.45 8.9 11.82 11.82 0 01.56 2.08 2.14 2.14 0 01.1.8z" style="transform-origin:187.777px 74.2401px" id="elukyl05oytxj" class="animable" fill="#263238"/><path d="M196.47 76.49c-.09 0-.27-1.1-1-2.75a14.6 14.6 0 00-10.18-8.67c-1.74-.41-2.87-.41-2.86-.5a2.18 2.18 0 01.79-.07 10.82 10.82 0 012.15.21 13.85 13.85 0 0110.45 8.9 12.56 12.56 0 01.55 2.08 2.32 2.32 0 01.1.8z" style="transform-origin:189.451px 70.4901px" id="el31b3wq8a3hw" class="animable" fill="#263238"/><path d="M198.13 72.73c-.09 0-.26-1.09-.95-2.74A14.59 14.59 0 00187 61.32c-1.74-.42-2.86-.41-2.86-.5a2.18 2.18 0 01.79-.07 10.82 10.82 0 012.15.21 13.85 13.85 0 0110.45 8.9 10.82 10.82 0 01.55 2.08 2.26 2.26 0 01.05.79z" style="transform-origin:191.142px 66.7351px" id="elg81po2mndeh" class="animable" fill="#263238"/><path d="M354.3 183.7l-1.68 2.66s17.68 3.93 22.89 13.91a2.2 2.2 0 00.75 1.91l3.17 2.7a2.16 2.16 0 002.45.2s10.77 1.89 16 12.19L400 221l16.88-37-33.68-35z" style="transform-origin:384.75px 185px" id="elqelfvvap1nd" class="animable" fill="#ffc107"/><path d="M354.67 178.55l-3.15 4.71s19.21 1.5 26.85 19.4l12.26-24.61s-31.63-3.47-35.96.5z" style="transform-origin:371.075px 189.653px" id="elj9adg6asth" class="animable" fill="#ebebeb"/><path d="M375.78 143.33s25-1 25 25.08l-22.36 34.25s-4.16-25.52-25.91-24.18z" style="transform-origin:376.645px 172.992px" id="elgmk6l4s87m5" class="animable" fill="#f5f5f5"/><path d="M378.37 202.66s20.27 1 23.67 17.57l18.66-32.52-20.7-18.12z" style="transform-origin:399.535px 194.91px" id="eleyo83y4jkag" class="animable" fill="#ebebeb"/><path d="M400.69 168.43s12.46-7.37 21.95.92l5.92 5.53L410.39 208s-14.74-13.21-32.06-5.29z" style="transform-origin:403.445px 186.705px" id="elxs5pof7awzc" class="animable" fill="#f5f5f5"/><path d="M378.37 202.66a8.93 8.93 0 01.8-1.39l2.34-3.68c2.06-3.17 4.8-7.41 7.83-12.1l7.8-12.12 2.34-3.68a9.56 9.56 0 01.91-1.32 9.48 9.48 0 01-.73 1.42c-.5.91-1.26 2.19-2.21 3.78-1.9 3.16-4.61 7.48-7.67 12.2s-5.88 9-8 12l-2.48 3.6a9.48 9.48 0 01-.93 1.29z" style="transform-origin:389.38px 185.515px" id="elh5oz2q6dey" class="animable" fill="#263238"/><path d="M421.5 177.46c-.07.07-.95-.86-2.63-2a20.26 20.26 0 00-3.11-1.76 22.58 22.58 0 00-4.14-1.38 22.81 22.81 0 00-4.34-.49 20.41 20.41 0 00-3.56.3c-2 .35-3.2.83-3.23.73a2.88 2.88 0 01.81-.39 8.66 8.66 0 011-.35 13.07 13.07 0 011.35-.35 18.41 18.41 0 013.63-.42 21.57 21.57 0 014.45.46 21.08 21.08 0 014.24 1.45 19 19 0 013.12 1.9c.42.3.76.62 1.08.89a7.55 7.55 0 01.75.74 3.27 3.27 0 01.58.67z" style="transform-origin:410.995px 174.407px" id="elww5g6omxe7a" class="animable" fill="#263238"/><path d="M419.9 181.54c-.08.07-1-.86-2.63-2a20.26 20.26 0 00-3.11-1.76 20.67 20.67 0 00-8.48-1.86 20.4 20.4 0 00-3.56.29c-2 .35-3.2.83-3.24.74a2.91 2.91 0 01.82-.39 5.58 5.58 0 011-.35 11.52 11.52 0 011.36-.36 18.47 18.47 0 013.63-.41 20.92 20.92 0 014.45.45 21.2 21.2 0 014.23 1.46 17.58 17.58 0 013.12 1.89 12.22 12.22 0 011.08.9 6.81 6.81 0 01.76.73 3.15 3.15 0 01.57.67z" style="transform-origin:409.39px 178.492px" id="eluvbswz8zri" class="animable" fill="#263238"/><path d="M417.42 185.47c-.07.07-.95-.86-2.63-2a21.13 21.13 0 00-3.11-1.76 23.36 23.36 0 00-4.14-1.38 22.76 22.76 0 00-4.34-.48 21.61 21.61 0 00-3.56.29c-2 .36-3.2.83-3.23.74a3.09 3.09 0 01.81-.39 7.1 7.1 0 011-.35 12.91 12.91 0 011.35-.36 18.56 18.56 0 013.63-.41 21.46 21.46 0 014.45.45 21.73 21.73 0 014.24 1.46 18.58 18.58 0 013.12 1.9 10.7 10.7 0 011.08.89 7.82 7.82 0 01.76.73c.39.4.6.64.57.67z" style="transform-origin:406.916px 182.422px" id="elz01olr92gre" class="animable" fill="#263238"/><path d="M379.73 190.75c-.09 0-.1-1.44-.67-3.66a18.57 18.57 0 00-11.45-12.83c-2.14-.82-3.58-1-3.56-1.09a3.51 3.51 0 011 .07 16.62 16.62 0 012.68.67A17.8 17.8 0 01379.41 187a14.37 14.37 0 01.36 2.74 3.08 3.08 0 01-.04 1.01z" style="transform-origin:371.922px 181.955px" id="elx4lof10prrm" class="animable" fill="#263238"/><path d="M382.5 186.28c-.09 0-.1-1.44-.67-3.66a18.58 18.58 0 00-11.44-12.83c-2.15-.82-3.59-1-3.57-1.09a3.51 3.51 0 011 .07 16.62 16.62 0 012.68.67 17.8 17.8 0 0111.67 13.09 14.37 14.37 0 01.36 2.74 2.77 2.77 0 01-.03 1.01z" style="transform-origin:374.691px 177.485px" id="elokbo6uf9vn" class="animable" fill="#263238"/><path d="M385.27 181.81c-.09 0-.1-1.44-.67-3.66a18.58 18.58 0 00-11.44-12.83c-2.15-.82-3.59-1-3.57-1.09a3.51 3.51 0 011 .07 16.62 16.62 0 012.68.67A17.84 17.84 0 01385 178.06a16.21 16.21 0 01.36 2.74 2.88 2.88 0 01-.09 1.01z" style="transform-origin:377.48px 173.015px" id="elrcmkrgzsc6" class="animable" fill="#263238"/><path d="M388.05 177.34c-.1 0-.11-1.44-.68-3.66a18.58 18.58 0 00-11.44-12.83c-2.15-.82-3.58-1-3.57-1.09a3.51 3.51 0 011 .07 16.62 16.62 0 012.68.67 17.84 17.84 0 0111.68 13.09 16.21 16.21 0 01.36 2.74 3.48 3.48 0 01-.03 1.01z" style="transform-origin:380.232px 168.545px" id="elebn6c6c2iq" class="animable" fill="#263238"/><path d="M390.82 172.87c-.1 0-.11-1.44-.68-3.66a18.58 18.58 0 00-11.44-12.83c-2.15-.82-3.58-1-3.57-1.09a3.51 3.51 0 011 .07 16.37 16.37 0 012.68.67 17.84 17.84 0 0111.68 13.09 16.21 16.21 0 01.36 2.74 3.48 3.48 0 01-.03 1.01z" style="transform-origin:383.002px 164.075px" id="elzfj55ifbk8" class="animable" fill="#263238"/><path d="M393.59 168.4c-.1 0-.11-1.44-.68-3.66a18.58 18.58 0 00-11.44-12.83c-2.15-.82-3.58-1-3.57-1.09a3.51 3.51 0 011 .07 16.37 16.37 0 012.68.67 17.84 17.84 0 0111.68 13.09 16.21 16.21 0 01.36 2.74 3.48 3.48 0 01-.03 1.01z" style="transform-origin:385.772px 159.605px" id="elfkdhpbzvwed" class="animable" fill="#263238"/><path d="M395.63 185.47l-6.52 9.44s10-1.17 18.7 4.37l6-10.11s-9.24-7.26-18.22-3.7" style="transform-origin:401.46px 191.884px" id="elzy1vmwnh9di" class="animable" fill="#ebebeb"/></g><g id="freepik--Hearts--inject-2" class="animable" style="transform-origin:265.411px 157.31px;animation:1s 1 forwards cubic-bezier(.36,-.01,.5,1.38) zoomOut;animation-delay:0s"><path d="M335.18 72.83a7.42 7.42 0 00-.58-4.4 7.1 7.1 0 00-2.82-3.3 5.87 5.87 0 00-4.53-.54 5.79 5.79 0 00-2.37 1.41 5.68 5.68 0 00-1.06-2.28 5.79 5.79 0 00-4-2.21 7.16 7.16 0 00-4.22 1 7.41 7.41 0 00-3 3.24 8.93 8.93 0 00-.63 5.6 12.62 12.62 0 002.91 5.25c2.19 2.52 5.11 5.73 5.11 5.73s3.77-1.29 7-2a12.79 12.79 0 005.43-2.56 9.06 9.06 0 002.76-4.94z" style="transform-origin:323.533px 71.9099px" id="ela1ayanvv33s" class="animable" fill="#ffc107"/><path d="M313.39 99.46a3.45 3.45 0 00-1.3-1.67 3.31 3.31 0 00-1.95-.67 2.7 2.7 0 00-2.62 2 2.75 2.75 0 00-3.16-.63 3.4 3.4 0 00-1.48 1.45 3.46 3.46 0 00-.46 2.06 4.23 4.23 0 001.09 2.45 6 6 0 002.46 1.45c1.51.5 3.49 1.11 3.49 1.11s1.23-1.43 2.38-2.53a6.07 6.07 0 001.61-2.37 4.24 4.24 0 00-.06-2.65z" style="transform-origin:308.02px 102.065px" id="elt578qo7ulei" class="animable" fill="#ffc107"/><path d="M171.57 247.13a3.52 3.52 0 00-.22-2.1 3.44 3.44 0 00-1.3-1.61 2.74 2.74 0 00-3.3.33 2.75 2.75 0 00-2.35-2.19 3.33 3.33 0 00-2 .44 3.54 3.54 0 00-1.49 1.5 4.23 4.23 0 00-.36 2.66 6.07 6.07 0 001.32 2.54c1 1.22 2.37 2.79 2.37 2.79s1.81-.57 3.36-.9a6.07 6.07 0 002.62-1.15 4.33 4.33 0 001.35-2.31z" style="transform-origin:166.058px 246.517px" id="elo25qx1k91gd" class="animable" fill="#ffc107"/><path d="M370.2 248.35a2.28 2.28 0 00-.82-1 2.19 2.19 0 00-1.23-.42 1.26 1.26 0 01-2.26.85 1.72 1.72 0 00-1.37 0 2.13 2.13 0 00-.93.9 2.19 2.19 0 00-.29 1.3 2.69 2.69 0 00.69 1.54 3.79 3.79 0 001.55.91l2.19.7s.77-.91 1.49-1.6a3.73 3.73 0 001-1.48 2.71 2.71 0 00-.02-1.7z" style="transform-origin:366.819px 250.03px" id="elmx0kwkprl2h" class="animable" fill="#ffc107"/><path d="M182.58 214.77a2.18 2.18 0 00-.82-1.05 2.05 2.05 0 00-1.23-.42 1.7 1.7 0 00-1.25.55 1.76 1.76 0 00-.4.72 1.82 1.82 0 00-.62-.43 1.74 1.74 0 00-1.36 0 2.1 2.1 0 00-.93.91 2.16 2.16 0 00-.29 1.29 2.66 2.66 0 00.69 1.54 3.69 3.69 0 001.55.91c.94.32 2.19.7 2.19.7s.77-.9 1.49-1.59a3.8 3.8 0 001-1.49 2.68 2.68 0 00-.02-1.64z" style="transform-origin:179.195px 216.395px" id="elmjkhmjm8858" class="animable" fill="#ffc107"/><path d="M357.88 88.86a2.23 2.23 0 00-.82-1 2.19 2.19 0 00-1.23-.42 1.76 1.76 0 00-1.25.55 1.69 1.69 0 00-.39.72 1.84 1.84 0 00-.62-.42 1.76 1.76 0 00-1.37 0 2.31 2.31 0 00-1.2 2.19 2.69 2.69 0 00.69 1.54 3.79 3.79 0 001.55.91l2.19.7s.77-.91 1.49-1.6a3.73 3.73 0 001-1.48 2.71 2.71 0 00-.04-1.69z" style="transform-origin:354.515px 90.535px" id="elox89n9mtg2c" class="animable" fill="#ffc107"/><path d="M355.89 224.64a6.41 6.41 0 00-.93-3.74 6.18 6.18 0 00-2.77-2.56 5 5 0 00-5.87 1.44 5.11 5.11 0 00-1.14-1.86 5.05 5.05 0 00-3.67-1.5 6.1 6.1 0 00-3.53 1.31 6.39 6.39 0 00-2.3 3.1 7.89 7.89 0 000 4.9 11.07 11.07 0 003 4.23c2.15 2 5 4.43 5 4.43s3.12-1.49 5.85-2.47a11.11 11.11 0 004.43-2.76 7.82 7.82 0 001.93-4.52z" style="transform-origin:345.596px 225.405px" id="el39np6thy3c" class="animable" fill="#ffc107"/></g><defs><filter id="active" height="200%"><feMorphology in="SourceAlpha" result="DILATED" operator="dilate" radius="2"/><feFlood flood-color="#32DFEC" flood-opacity="1" result="PINK"/><feComposite in="PINK" in2="DILATED" operator="in" result="OUTLINE"/><feMerge><feMergeNode in="OUTLINE"/><feMergeNode in="SourceGraphic"/></feMerge></filter><filter id="hover" height="200%"><feMorphology in="SourceAlpha" result="DILATED" operator="dilate" radius="2"/><feFlood flood-color="red" flood-opacity=".5" result="PINK"/><feComposite in="PINK" in2="DILATED" operator="in" result="OUTLINE"/><feMerge><feMergeNode in="OUTLINE"/><feMergeNode in="SourceGraphic"/></feMerge><feColorMatrix values="0 0 0 0 0 0 1 0 0 0 0 0 0 0 0 0 0 0 1 0"/></filter></defs></svg>