<svg xmlns="http://www.w3.org/2000/svg" width="28.571" height="28.571" viewBox="0 0 28.571 28.571"><ellipse cx="1.134" cy="1.259" rx="1.134" ry="1.259" transform="translate(7.193 16.275)" fill="#ffc107"/><ellipse cx="1.134" cy="1.259" rx="1.134" ry="1.259" transform="translate(19.109 16.275)" fill="#ffc107"/><path d="M28.571,36.132a3.632,3.632,0,0,0-2.755-3.654v-.55c0-7.055-5.173-12.8-11.53-12.8s-11.53,5.74-11.53,12.8v.55a3.8,3.8,0,0,0,.04,7.316,7.539,7.539,0,0,0,3.465,6.2c1.85,1.152,4.475,1.713,8.025,1.713s6.175-.56,8.025-1.713a7.539,7.539,0,0,0,3.465-6.2A3.626,3.626,0,0,0,28.571,36.132Zm-27.39,0a2.382,2.382,0,0,1,1.574-2.311v4.621A2.382,2.382,0,0,1,1.181,36.132Zm23.454,2.63c0,2.878-.949,4.869-2.9,6.086-1.669,1.04-4.1,1.545-7.447,1.545s-5.778-.505-7.447-1.545c-1.953-1.217-2.9-3.208-2.9-6.086V31.928a11.416,11.416,0,0,1,7.376-11,4.871,4.871,0,0,1,4.976,4.53,2.5,2.5,0,0,1-2.357,2.616,1.875,1.875,0,0,1-1.768-1.962,1.374,1.374,0,0,1,1.3-1.438.659.659,0,0,0,0-1.311,2.627,2.627,0,0,0-2.477,2.749,3.127,3.127,0,0,0,2.949,3.272,3.752,3.752,0,0,0,3.539-3.927,5.893,5.893,0,0,0-1.647-3.915,6.056,6.056,0,0,0-1.394-1.1c5.641.085,10.207,5.2,10.207,11.483v6.834Zm1.181-.32V33.821a2.483,2.483,0,0,1,0,4.621Z" transform="translate(0 -19.132)"/><path d="M154.5,253.052a3.012,3.012,0,0,1-4.568,0,.55.55,0,0,0-.835,0,.707.707,0,0,0,0,.927,4.114,4.114,0,0,0,6.238,0,.707.707,0,0,0,0-.927A.55.55,0,0,0,154.5,253.052Z" transform="translate(-137.929 -233.713)" fill="#ffc107"/></svg>