<svg xmlns="http://www.w3.org/2000/svg" width="22.857" height="22.857" viewBox="0 0 22.857 22.857"><path d="M22.82,8.642c-.334-3.95-2.933-6.815-6.186-6.815a6.082,6.082,0,0,0-5.268,3.265A5.872,5.872,0,0,0,6.224,1.826C2.971,1.826.372,4.692.038,8.641a7.544,7.544,0,0,0,.194,2.59A11.3,11.3,0,0,0,3.4,16.911l7.963,7.772,8.1-7.772a11.3,11.3,0,0,0,3.165-5.68A7.561,7.561,0,0,0,22.82,8.642Zm-1.051,2.373a10.33,10.33,0,0,1-2.9,5.194l-7.506,7.2-7.378-7.2a10.337,10.337,0,0,1-2.9-5.2A6.592,6.592,0,0,1,.906,8.792l.007-.048C1.2,5.284,3.432,2.772,6.224,2.772a5.179,5.179,0,0,1,4.735,3.553l.4,1.032.4-1.032a5.327,5.327,0,0,1,4.866-3.553c2.792,0,5.026,2.512,5.317,6.017A6.584,6.584,0,0,1,21.769,11.015Z" transform="translate(0 -1.826)"/><path d="M10.395,7.9A4.576,4.576,0,0,0,6,12.632a.441.441,0,1,0,.879,0A3.661,3.661,0,0,1,10.395,8.85a.474.474,0,0,0,0-.946Z" transform="translate(-3.362 -5.03)" fill="#ffc107"/></svg>