<svg xmlns="http://www.w3.org/2000/svg" width="28.894" height="28.894" viewBox="0 0 28.894 28.894"><g transform="translate(21.855 0)"><path d="M382.852,12.575a.448.448,0,0,0,.466-.429v-.957h.225a.449.449,0,0,0,.466-.429v-1.8a.449.449,0,0,0-.466-.429h-.225v-2.8a.407.407,0,0,0-.085-.247L380.955,2.5V.448A.458.458,0,0,0,380.5,0a.45.45,0,0,0-.48.429V2.5l-2.278,2.978a.407.407,0,0,0-.085.247v2.8h-.225a.449.449,0,0,0-.466.429v1.8a.449.449,0,0,0,.466.429h.225V26.233h-.225a.449.449,0,0,0-.466.429v1.8a.449.449,0,0,0,.466.429h6.107a.449.449,0,0,0,.466-.429v-1.8a.449.449,0,0,0-.466-.429h-.225V14.148a.467.467,0,0,0-.931,0V26.233h-3.794V11.188h3.794v.957A.448.448,0,0,0,382.852,12.575Zm-4.259-6.71h0l1.9-2.481,1.9,2.481V8.527h-.344V7.342A.418.418,0,0,0,381.862,7l-1.088-.775a.5.5,0,0,0-.57,0L379.117,7a.418.418,0,0,0-.181.339V8.527h-.344V5.865Zm2.519,1.688v.974h-1.244V7.553l.622-.443Zm1.741,19.538h.225v.945H377.9v-.945h4.951ZM377.9,10.33V9.385h5.176v.945Z" transform="translate(-376.97 0)"/></g><g transform="translate(14.864 18.944)"><path d="M266.751,336.924l-1.594-1.136a.5.5,0,0,0-.57,0l-1.594,1.136a.418.418,0,0,0-.181.339v2.365a.449.449,0,0,0,.466.429h3.189a.449.449,0,0,0,.466-.429v-2.365A.418.418,0,0,0,266.751,336.924Zm-3.008,2.275v-1.725l1.129-.8,1.129.8V339.2Z" transform="translate(-262.812 -335.698)" fill="#ffc107"/></g><g transform="translate(2.25 18.945)"><path d="M60.785,336.925l-1.594-1.136a.5.5,0,0,0-.57,0l-1.594,1.136a.418.418,0,0,0-.181.339v2.365a.449.449,0,0,0,.466.429H60.5a.449.449,0,0,0,.466-.429v-2.365A.418.418,0,0,0,60.785,336.925Zm-.751,2.275H57.777v-1.725l1.129-.8,1.129.8Z" transform="translate(-56.846 -335.699)" fill="#ffc107"/></g><g transform="translate(0 0.076)"><path d="M41.2,19.876l-2.068-1.888a5.15,5.15,0,0,0,.883-1.607.411.411,0,0,0,.013-.053l.157-.908a.4.4,0,0,0,.006-.063,3.075,3.075,0,0,0-.427-1.6c-1.137-1.943-7.217-4.509-8.578-5.065v-.74A3.529,3.529,0,0,0,34.267,5.38a.415.415,0,0,0-.206-.46.5.5,0,0,0-.539.028,2.344,2.344,0,0,1-1.4.453A2.168,2.168,0,0,1,29.872,3.33a1.95,1.95,0,0,1,.492-1.292.4.4,0,0,0,.031-.5.484.484,0,0,0-.5-.19,3.412,3.412,0,0,0-2.825,3.272,3.471,3.471,0,0,0,3.179,3.33V8.7c-.6.247-2.078.87-3.628,1.636-2.75,1.36-4.416,2.513-4.951,3.43a3.075,3.075,0,0,0-.426,1.6.4.4,0,0,0,.006.063l.157.908a.412.412,0,0,0,.013.053,5.15,5.15,0,0,0,.883,1.607l-2.068,1.888a.413.413,0,0,0-.138.3V29.73a.449.449,0,0,0,.466.429h20.3a.449.449,0,0,0,.466-.429V20.181A.413.413,0,0,0,41.2,19.876ZM28,4.624a2.423,2.423,0,0,1,1.022-1.959,2.7,2.7,0,0,0-.084.665A3.066,3.066,0,0,0,32.12,6.26a3.425,3.425,0,0,0,.722-.077,2.793,2.793,0,0,1-2.126.942A2.616,2.616,0,0,1,28,4.624ZM33.059,29.3H28.373V24.822l2.343-2.2,2.343,2.2Zm7.343,0H33.99V24.646a.412.412,0,0,0-.134-.3l-2.8-2.627a.487.487,0,0,0-.161-.1.5.5,0,0,0-.511.1l-2.809,2.634a.412.412,0,0,0-.134.3V29.3H21.03V20.36l2.091-1.91h4.263a.431.431,0,1,0,0-.858H23.148a4.425,4.425,0,0,1-.824-1.426l-.147-.848a2.246,2.246,0,0,1,.315-1.152c.881-1.508,6.062-3.849,8.222-4.723.507.206,2.13.881,3.84,1.737,1.393.7,3.815,2.011,4.385,2.985a2.247,2.247,0,0,1,.316,1.153l-.147.848a4.426,4.426,0,0,1-.824,1.426H29.559a.431.431,0,1,0,0,.858H38.31L40.4,20.36Z" transform="translate(-20.099 -1.341)"/></g></svg>