<svg xmlns="http://www.w3.org/2000/svg" width="28.571" height="28.572" viewBox="0 0 28.571 28.572"><path d="M53.814,50.25a3.324,3.324,0,1,0,3.564,3.315A3.446,3.446,0,0,0,53.814,50.25Zm0,5.787a2.478,2.478,0,1,1,2.657-2.471A2.569,2.569,0,0,1,53.814,56.037Z" transform="translate(-39.48 -39.28)" fill="#ffc107"/><path d="M66.49,62.25a.439.439,0,0,0-.454.422,1.019,1.019,0,0,1-.549.886.406.406,0,0,0-.163.577.473.473,0,0,0,.62.152,1.857,1.857,0,0,0,1-1.615A.439.439,0,0,0,66.49,62.25Z" transform="translate(-50.601 -48.386)" fill="#ffc107"/><path d="M34.752,18.05a2.165,2.165,0,0,0,.506.062,2.016,2.016,0,0,0,1.855-1.154,1.775,1.775,0,0,0-.434-2.036c-.033-.03-.068-.058-.1-.086a3.5,3.5,0,0,0-.247-2.943c-1.089-1.755-3.947-2.33-7.869-1.6C27.17,6.766,25.2,4.75,23.029,4.75s-4.14,2.016-5.431,5.539c-3.923-.727-6.781-.152-7.869,1.6a3.506,3.506,0,0,0-.264,2.879,1.785,1.785,0,0,0-.543,2.334,2.07,2.07,0,0,0,2.368.924c.269.333.564.67.881,1.007-2.636,2.8-3.53,5.388-2.442,7.141.781,1.26,2.473,1.914,4.816,1.914a16.994,16.994,0,0,0,3.052-.312c1.29,3.524,3.256,5.54,5.431,5.54a4.175,4.175,0,0,0,2.823-1.235,2.1,2.1,0,0,0,2.464-.657,1.771,1.771,0,0,0-.238-2.374c-.033-.031-.068-.058-.1-.086.17-.373.332-.772.486-1.188a16.956,16.956,0,0,0,3.051.312c2.343,0,4.035-.654,4.816-1.914,1.089-1.753.194-4.344-2.442-7.141C34.194,18.713,34.482,18.382,34.752,18.05Zm1.285-1.082a1.162,1.162,0,0,1-1.557,0h0a.975.975,0,0,1,0-1.448,1.16,1.16,0,0,1,1.557,0,.975.975,0,0,1,0,1.448Zm-.494-4.653a2.66,2.66,0,0,1,.21,2.122,2.07,2.07,0,0,0-2.239.885,1.771,1.771,0,0,0,.323,2.243c.033.031.068.058.1.086q-.316.382-.667.759a26.933,26.933,0,0,0-3.619-2.932,24.22,24.22,0,0,0-.918-4.381c3.418-.615,5.946-.171,6.807,1.217ZM27.847,26.8a27.391,27.391,0,0,1-3.7-1.119c.774-.348,1.544-.726,2.3-1.132s1.5-.842,2.2-1.289a22.7,22.7,0,0,1-.8,3.54Zm-9.636,0a22.7,22.7,0,0,1-.8-3.54c.706.447,1.443.88,2.2,1.289s1.525.785,2.3,1.132a27.393,27.393,0,0,1-3.7,1.119Zm0-15.519a27.38,27.38,0,0,1,3.7,1.119c-.774.348-1.544.726-2.3,1.133s-1.5.842-2.2,1.289a22.691,22.691,0,0,1,.8-3.541ZM16.29,21.455A25.078,25.078,0,0,1,13.4,19.036a25.108,25.108,0,0,1,2.893-2.419c-.064.8-.1,1.607-.1,2.419S16.226,20.658,16.29,21.455Zm3.776,2.358c-.982-.527-1.921-1.093-2.8-1.682a29.049,29.049,0,0,1,0-6.19c.879-.588,1.819-1.155,2.8-1.682s1.968-1,2.964-1.417c1,.42,1.992.895,2.964,1.417s1.921,1.093,2.8,1.682a29.115,29.115,0,0,1,.165,3.1,29.119,29.119,0,0,1-.165,3.1c-.879.588-1.819,1.155-2.8,1.682s-1.968,1-2.964,1.417c-1-.42-1.993-.895-2.965-1.417Zm7.782-12.538a22.7,22.7,0,0,1,.8,3.54c-.706-.447-1.443-.88-2.2-1.289s-1.527-.784-2.3-1.131a27.393,27.393,0,0,1,3.7-1.119Zm1.92,5.341a25.078,25.078,0,0,1,2.893,2.419,25.107,25.107,0,0,1-2.893,2.419c.064-.8.1-1.607.1-2.419S29.833,17.413,29.768,16.616ZM23.029,5.594c1.72,0,3.4,1.815,4.54,4.876a29.266,29.266,0,0,0-4.54,1.447A29.243,29.243,0,0,0,18.49,10.47C19.631,7.409,21.309,5.594,23.029,5.594ZM9.922,16.968h0a.973.973,0,0,1-.139-1.3,1.15,1.15,0,0,1,1.339-.379,1.013,1.013,0,0,1,.661,1.148,1.086,1.086,0,0,1-1.082.827,1.137,1.137,0,0,1-.779-.3Zm2.2-2.046a2.109,2.109,0,0,0-1.82-.508,2.627,2.627,0,0,1,.214-2.1c.861-1.389,3.389-1.832,6.807-1.217a24.236,24.236,0,0,0-.918,4.381,26.915,26.915,0,0,0-3.619,2.929q-.379-.407-.708-.808l.044-.037a1.779,1.779,0,0,0,0-2.643ZM10.514,25.757c-.859-1.387-.008-3.646,2.272-6.094A26.925,26.925,0,0,0,16.4,22.593a24.22,24.22,0,0,0,.918,4.381c-3.418.614-5.946.171-6.807-1.217ZM27.437,31.1a1.166,1.166,0,0,1-1.393.13.988.988,0,0,1-.408-1.246,1.122,1.122,0,0,1,1.234-.615,1.048,1.048,0,0,1,.889,1.007.991.991,0,0,1-.322.725Zm-.778-2.593a2.023,2.023,0,0,0-1.82,1.079,1.765,1.765,0,0,0,.282,1.99,3.152,3.152,0,0,1-2.091.9c-1.72,0-3.4-1.815-4.54-4.876a29.266,29.266,0,0,0,4.54-1.447,29.247,29.247,0,0,0,4.54,1.447c-.127.339-.259.663-.4.97a2.157,2.157,0,0,0-.516-.063Zm8.886-2.752c-.861,1.389-3.389,1.832-6.807,1.217a24.236,24.236,0,0,0,.918-4.381,26.911,26.911,0,0,0,3.616-2.93c2.281,2.448,3.131,4.707,2.272,6.094Z" transform="translate(-8.695 -4.75)"/></svg>