<svg xmlns="http://www.w3.org/2000/svg" width="10.79" height="10.79" viewBox="0 0 10.79 10.79"><path d="M2.416,11.282a.556.556,0,0,1-.336-.114.612.612,0,0,1-.223-.618L2.551,7.36.2,5.205A.615.615,0,0,1,.029,4.57a.579.579,0,0,1,.493-.411l3.115-.3L4.868.856a.564.564,0,0,1,1.055,0L7.154,3.863l3.114.3a.578.578,0,0,1,.494.411.615.615,0,0,1-.168.636L8.241,7.359l.694,3.191a.611.611,0,0,1-.223.618.553.553,0,0,1-.63.029L5.4,9.522,2.71,11.2a.557.557,0,0,1-.294.085ZM5.4,8.8a.557.557,0,0,1,.294.085l2.535,1.582L7.569,7.455a.614.614,0,0,1,.182-.583L9.974,4.838,7.033,4.559A.576.576,0,0,1,6.556,4.2L5.4,1.359,4.233,4.2a.574.574,0,0,1-.475.361L.817,4.837,3.04,6.871a.613.613,0,0,1,.182.584l-.655,3.011L5.1,8.885A.557.557,0,0,1,5.4,8.8ZM3.613,3.921h0Zm3.564,0h0Zm0,0" transform="translate(-0.001 -0.492)" fill="#ffc107"/></svg>