<svg xmlns="http://www.w3.org/2000/svg" width="19.5" height="16.853" viewBox="0 0 19.5 16.853"><g transform="translate(-6.224 -2)"><g transform="translate(6.224 2)"><g transform="translate(0)"><path d="M7.452,146.286a2.228,2.228,0,1,0,2.228,2.228A2.228,2.228,0,0,0,7.452,146.286Zm0,3.546h0a1.318,1.318,0,1,1,1.318-1.318A1.319,1.319,0,0,1,7.452,149.832Z" transform="translate(-5.224 -140.087)" fill="#ffc107"/><path d="M141.369,187.037h-8.3c-.2,0-.367.246-.367.548s.164.548.367.548h8.3c.2,0,.367-.246.367-.548S141.572,187.037,141.369,187.037Z" transform="translate(-126.734 -178.699)" fill="#ffc107"/><path d="M7.452,0A2.228,2.228,0,1,0,9.68,2.228,2.228,2.228,0,0,0,7.452,0Zm0,3.546A1.318,1.318,0,1,1,8.77,2.228,1.318,1.318,0,0,1,7.452,3.546Z" transform="translate(-5.224)"/><path d="M133.252,41.848h12.432a.549.549,0,1,0,0-1.1H133.252a.549.549,0,1,0,0,1.1Z" transform="translate(-126.734 -38.612)"/><path d="M7.452,292.571A2.228,2.228,0,1,0,9.68,294.8,2.228,2.228,0,0,0,7.452,292.571ZM8.77,294.8a1.318,1.318,0,0,1-1.318,1.318h0A1.318,1.318,0,1,1,8.77,294.8Z" transform="translate(-5.224 -280.173)"/><path d="M145.684,333.322H133.252a.549.549,0,1,0,0,1.1h12.432a.549.549,0,1,0,0-1.1Z" transform="translate(-126.734 -318.785)"/></g></g></g></svg>