<svg xmlns="http://www.w3.org/2000/svg" width="16.255" height="20.441" viewBox="0 0 16.255 20.441"><g transform="translate(-125 -643.18)"><path d="M15.2,0H.644C.288,0,0,.4,0,.884s.288.884.644.884H15.2c.356,0,.644-.4.644-.884S15.558,0,15.2,0Z" transform="translate(131.052 647.688) rotate(90)" fill="#ffc107"/><path d="M15.291,0,.663.278C.306.285.009.684,0,1.17s.274.874.632.868L15.26,1.76c.357-.007.654-.406.663-.892S15.648-.007,15.291,0Z" transform="translate(138.217 647.602) rotate(79)" fill="#ffc107"/><path d="M.817,1.768H19.288a.853.853,0,0,0,.817-.884A.853.853,0,0,0,19.288,0H.817A.852.852,0,0,0,0,.884.852.852,0,0,0,.817,1.768Z" transform="translate(126.768 643.18) rotate(90)"/><path d="M19.288,0H.817A.853.853,0,0,0,0,.884a.852.852,0,0,0,.817.884H19.288a.853.853,0,0,0,.817-.884A.853.853,0,0,0,19.288,0Z" transform="translate(135.335 643.18) rotate(90)"/></g></svg>