<svg xmlns="http://www.w3.org/2000/svg" width="23.108" height="23.108" viewBox="0 0 23.108 23.108"><g transform="translate(0 0)"><path d="M2.6,2.641A8.846,8.846,0,0,1,15.435,14.815l.676.676a1.4,1.4,0,0,1,1.977,0h0L22.7,20.1a1.4,1.4,0,0,1,0,1.977h0l-.659.659a1.4,1.4,0,0,1-1.976,0l-4.612-4.613a1.4,1.4,0,0,1,0-1.977h0l-.676-.676A8.846,8.846,0,0,1,2.6,2.641ZM16.11,17.467l4.612,4.613a.466.466,0,0,0,.659,0l.659-.659a.466.466,0,0,0,0-.658L17.428,16.15a.477.477,0,0,0-.659,0l-.659.659A.466.466,0,0,0,16.11,17.467ZM3.262,14.5a7.921,7.921,0,1,0,0-11.2A7.919,7.919,0,0,0,3.262,14.5Z" transform="translate(0 -0.041)"/></g><g transform="translate(1.878 3.918)"><path d="M320.211,67.3h0l.659.659a6.066,6.066,0,0,0,0,8.567l-.659.659A7,7,0,0,1,320.211,67.3Z" transform="translate(-318.167 -67.303)" fill="#ffc107"/></g></svg>