<svg xmlns="http://www.w3.org/2000/svg" width="18.392" height="22.978" viewBox="0 0 18.392 22.978"><g transform="translate(-326 -771.633)"><g transform="translate(326 771.633)"><path d="M67.187,19.863,65.871,5.047a.633.633,0,0,0-.63-.578H62.535a4.54,4.54,0,0,0-9.078,0H50.75a.63.63,0,0,0-.63.578L48.8,19.863c0,.019,0,.038,0,.056a3.274,3.274,0,0,0,3.449,3.059H63.743a3.274,3.274,0,0,0,3.449-3.059A.229.229,0,0,0,67.187,19.863ZM58,1.269a3.274,3.274,0,0,1,3.27,3.2H54.725A3.274,3.274,0,0,1,58,1.269Zm5.747,20.441H52.249a2.024,2.024,0,0,1-2.18-1.762L51.328,5.742h2.124V7.669a.634.634,0,1,0,1.269,0V5.742h6.546V7.669a.634.634,0,0,0,1.269,0V5.742h2.124l1.264,14.205A2.027,2.027,0,0,1,63.743,21.709Z" transform="translate(-48.8)"/></g><path d="M0,0A3.611,3.611,0,0,0,3.852,3.6,3.611,3.611,0,0,0,7.7,0" transform="translate(331.408 781.735)" fill="none" stroke="#ffc107" stroke-width="1"/><circle cx="1" cy="1" r="1" transform="translate(336.53 779.768)" fill="#ffc107"/><circle cx="1" cy="1" r="1" transform="translate(332.096 779.768)" fill="#ffc107"/></g></svg>