<svg xmlns="http://www.w3.org/2000/svg" width="250" height="250"><path d="M35.846 228.829c47.8 28.222 125.293 28.222 173.085 0s47.8-74.006 0-102.2-125.287-28.222-173.085 0-47.792 73.989 0 102.2z" fill="#f5f5f5"/><path d="M192.161 183.752c2.622 1.748 7.771 1.144 11.5-1.343l21.5-14.422c3.732-2.488 4.626-5.92 2-7.674s-7.765-1.132-11.5 1.356L194.175 176.1c-3.732 2.472-4.631 5.9-2.014 7.652zM62.695 197.055l-21.874-14.584 21.874-14.583zM124.52 205.78l-35.256-23.52 35.261-23.477z" fill="#ebebeb"/><path d="M33.104 162.956c.065-5.908-3.511-18.2-8.74-25.946s-13.532-13.47-19.456-11.213c-5.547 2.108-5.035 10.479 1.615 16.12s16.643 12.743 19.489 22.389l6.054 11.816z" fill="#ffc107"/><path d="M33.104 162.956c.065-5.908-3.511-18.2-8.74-25.946s-13.532-13.47-19.456-11.213c-5.547 2.108-5.035 10.479 1.615 16.12s16.643 12.743 19.489 22.389l6.054 11.816z" opacity="0.1"/><path d="M33.401 171.047a.4.4 0 01-.334-.354c-3.231-20.218-17.178-36.81-25.595-40.548a.416.416 0 01-.271-.338.471.471 0 01.143-.43.336.336 0 01.4-.041c8.578 3.812 22.795 20.678 26.058 41.2a.484.484 0 01-.057.323.372.372 0 01-.239.181z" fill="#fff"/><path d="M30.66 183.921c-.786-3.333-4.243-8.862-9.876-13.47-6.236-5.093-14.163-7.506-15.956-11.43-2.154-4.714 1.309-9.092 7.754-8.085s17.69 11.356 19.348 26.692z" fill="#ffc107"/><path d="M31.947 180.45a.39.39 0 01-.323-.286c-5.175-17.357-16.527-23.582-21.8-24.447a.424.424 0 01-.318-.485.386.386 0 01.42-.367c5.837.958 17.13 7.3 22.412 25.013a.462.462 0 01-.232.553.348.348 0 01-.156.019z" fill="#fff"/><g><path d="M224.041 146.122s.716-12.438 7.071-21.7 5.967-13.06 1.583-14.926-14.539 9.3-12.3 24.192 3.646 12.434 3.646 12.434z" fill="#ffc107"/><path d="M224.041 146.122s.716-12.438 7.071-21.7 5.967-13.06 1.583-14.926-14.539 9.3-12.3 24.192 3.646 12.434 3.646 12.434z" opacity="0.1"/><path d="M222.096 139.019a.271.271 0 01-.253-.267c-.738-13.719 7.647-24.975 10.77-27.525a.218.218 0 01.185-.051.242.242 0 01.16.119.322.322 0 01-.059.4c-3.08 2.488-11.308 13.539-10.576 27.015a.281.281 0 01-.232.3z" fill="#fff"/><path d="M222.312 156.42a50.512 50.512 0 008.767 2.438c4.922.9 7.1-1.822 7.1-1.822s-1.939-5.33-4.733-6.841a25.609 25.609 0 018.541 4.049s3 .056 4.2-5.243c0 0-1.777-3.19-7.754-4.913a17.123 17.123 0 018.874.485c.393.18 2.068-6.667 2.574-9.826s-.592-3.109-2.725-3.787-9.2-2.488-10.538-1.138-2.014 5.989-2.014 5.989a12.561 12.561 0 01-.2-5.871 7.141 7.141 0 00-4.9.137c-2.434.815-2.552 2.73-2.445 4.894a23.857 23.857 0 001.077 5.5s-1.9-2.811-1.96-8.912a12.879 12.879 0 00-5.837 8.582c-.494 3.101-1.156 12.2 1.973 16.279z" fill="#ffc107"/><path d="M223.248 155.313a.284.284 0 00.253-.18c3.969-9.534 18.74-20.61 24.028-21.8a.275.275 0 00.178-.133.357.357 0 00.043-.24.29.29 0 00-.328-.255c-5.385 1.213-20.388 12.438-24.421 22.146a.347.347 0 00.129.429.283.283 0 00.118.033z" fill="#fff"/></g><g><path d="M31.177 188.323c-.609 0-.975-.578-.975-1.555V82.159L141.149 8.197v104.186a5.78 5.78 0 01-2.154 4.353L32.06 188.006a1.629 1.629 0 01-.883.317z" fill="#fafafa"/><path d="M140.815 8.825v103.559a5.462 5.462 0 01-2.019 4.036L31.904 187.689a1.36 1.36 0 01-.727.274c-.6 0-.662-.84-.662-1.194v-104.4l110.3-73.546m.63-1.244L29.884 81.948v104.821c0 1.244.539 1.922 1.292 1.922a1.914 1.914 0 001.039-.367l106.9-71.276a6.191 6.191 0 002.332-4.664V7.563z" fill="#e0e0e0"/><path d="M29.889 81.948v17.506l111.556-74.385V7.563z" fill="#ffc107"/><path d="M38.635 82.88v2.488c0 .51.318.721.7.466l34.3-22.867v-4.353l-34.3 22.867a1.881 1.881 0 00-.7 1.4z" fill="#fafafa"/><path d="M77.312 56.164c.388-.261.7-.05.7.466v2.488a1.868 1.868 0 01-.7 1.4l-3.678 2.45v-4.353zM29.884 76.307a6.192 6.192 0 012.332-4.664L139.116.367c1.287-.858 2.332-.162 2.332 1.555v5.639L29.884 81.948z" fill="#455a64"/><path d="M129.046 10.014a2.894 2.894 0 00-1.077 2.183c0 .808.49 1.132 1.077.734a2.909 2.909 0 001.077-2.189c.023-.816-.471-1.133-1.077-.728zM132.533 7.699a2.894 2.894 0 00-1.077 2.186c0 .808.49 1.132 1.077.734a2.922 2.922 0 001.077-2.189c0-.812-.495-1.135-1.077-.731zM135.974 5.386a2.894 2.894 0 00-1.077 2.183c0 .808.49 1.132 1.077.734a2.922 2.922 0 001.077-2.189c.016-.809-.474-1.132-1.077-.728z" fill="#ffc107"/><g opacity="0.1"><path d="M106.443 36.462a6.35 6.35 0 00-2.386 4.789c0 1.76 1.077 2.488 2.386 1.592a6.333 6.333 0 002.391-4.782c.003-1.76-1.072-2.476-2.391-1.599zM95.51 43.757a6.333 6.333 0 00-2.391 4.782c0 1.76 1.077 2.488 2.391 1.6a6.35 6.35 0 002.386-4.789c0-1.761-1.066-2.466-2.386-1.593zM117.38 29.205a6.335 6.335 0 00-2.386 4.782c0 1.76 1.077 2.488 2.386 1.592a6.327 6.327 0 002.391-4.782c-.001-1.791-1.067-2.506-2.391-1.592zM128.322 21.867a6.333 6.333 0 00-2.391 4.782c0 1.76 1.077 2.488 2.391 1.592a6.333 6.333 0 002.391-4.782c0-1.762-1.072-2.475-2.391-1.592z"/></g><path d="M40.986 100.816l25.961-17.314c1.287-.858 2.332-.162 2.332 1.555v28.788a6.191 6.191 0 01-2.332 4.664l-25.961 17.307c-1.287.858-2.332.162-2.332-1.555V105.48a6.191 6.191 0 012.332-4.664zM78.143 76.021l54.388-36.244c1.287-.864 2.332-.168 2.332 1.555v28.781a6.192 6.192 0 01-2.332 4.664l-54.388 36.245c-1.287.858-2.332.162-2.332-1.555V80.686a6.192 6.192 0 012.332-4.665zM40.986 144.566l41.271-27.519c1.292-.858 2.337-.249 2.337 1.362a5.967 5.967 0 01-2.332 4.471L40.986 150.4c-1.287.858-2.332.249-2.332-1.362a5.968 5.968 0 012.332-4.472zM40.986 154.779l41.271-27.519c1.292-.858 2.337-.249 2.337 1.362a5.967 5.967 0 01-2.332 4.471l-41.276 27.519c-1.287.858-2.332.249-2.332-1.362a5.967 5.967 0 012.332-4.471zM40.986 164.983l41.271-27.519c1.292-.858 2.337-.249 2.337 1.362a5.967 5.967 0 01-2.332 4.471l-41.276 27.524c-1.287.858-2.332.249-2.332-1.362a5.967 5.967 0 012.332-4.476z" fill="#e0e0e0"/></g><g><path d="M60.509 130.369a3.729 3.729 0 011.4-2.8l71.572-47.721a2.725 2.725 0 012.8 0l1.578 1.051a3.711 3.711 0 011.395 2.8v63.359a3.724 3.724 0 01-1.395 2.8l-71.561 47.72a2.725 2.725 0 01-2.8 0l-1.578-1.051a3.722 3.722 0 01-1.4-2.8z" fill="#ffc107"/><path d="M60.913 128.777l3.974 2.649 73.952-49.316a3.256 3.256 0 00-.985-1.213l-1.551-1.049a2.706 2.706 0 00-2.789 0l-71.601 47.723a3.192 3.192 0 00-1 1.206z" fill="#fff" opacity="0.4"/><path d="M60.509 130.367v63.359a3.722 3.722 0 001.4 2.8l1.578 1.051a1.938 1.938 0 00.382.2 2.765 2.765 0 00.576.156 2.993 2.993 0 001.1-.05 1.825 1.825 0 00.275-.081l.167-.075a.747.747 0 01-.673 0 1.192 1.192 0 01-.425-1.063v-63.372a1.461 1.461 0 01.727-1.381l-.727-.485-3.98-2.649a3.7 3.7 0 00-.4 1.59z" opacity="0.1"/><path d="M64.892 131.427l33.145 14.3a5.024 5.024 0 006.392-2.432l5.32-9.416 29.359-51.943-28.3 52.3 28.444 12.855a3.715 3.715 0 01-.436 1.611l-28.083-14.3-6.2 11.412a5.016 5.016 0 01-6.742 2.388l-4.4-2.245-28.073 51.782a1.192 1.192 0 01-.425-1.063v-1.051l28.368-49.708z" opacity="0.2"/></g><g><path d="M123.944 58.689v145.462c0 1.716 1.045 2.413 2.332 1.555l56.586-37.73a6.191 6.191 0 002.332-4.664V17.849c0-1.716-1.045-2.413-2.332-1.555l-56.586 37.73a6.178 6.178 0 00-2.332 4.664z" fill="#fafafa" stroke="#e0e0e0" stroke-miterlimit="10" stroke-width="1.17"/><path d="M127.223 61.399a1.528 1.528 0 01.608-1.132l6.462-4.3c.334-.224.6-.075.6.33a1.524 1.524 0 01-.6 1.132l-6.462 4.3c-.333.219-.608.07-.608-.33zM127.223 64.293a1.522 1.522 0 01.608-1.132l6.462-4.3c.334-.224.6-.075.6.323a1.525 1.525 0 01-.6 1.138l-6.462 4.291c-.333.224-.608.084-.608-.32zM127.223 67.191a1.522 1.522 0 01.608-1.132l6.462-4.3c.334-.224.6-.081.6.323a1.511 1.511 0 01-.6 1.132l-6.462 4.3c-.333.249-.608.081-.608-.323z" fill="#455a64"/><path d="M180.821 29.889v-1.163a.085.085 0 00-.033-.071.062.062 0 00-.07 0l-.775.4a.081.081 0 01-.079 0 .1.1 0 01-.05-.07 2.065 2.065 0 00-.172-.442.277.277 0 010-.218l.539-1.206a.141.141 0 00-.048-.174l-.539-.373a.109.109 0 00-.151.044l-.646 1.119a.191.191 0 01-.167.093 1.67 1.67 0 00-.42.05.081.081 0 01-.079-.014.11.11 0 01-.04-.08l-.087-.971c0-.068-.054-.1-.1-.062l-.872.578a.275.275 0 00-.1.187l-.086 1.119a.431.431 0 01-.092.211 5.41 5.41 0 00-.485.622.148.148 0 01-.172.056l-.539-.224a.127.127 0 00-.156.068l-.641 1.281a.181.181 0 00.027.187l.452.448a.221.221 0 01.043.2 7 7 0 00-.2.784.4.4 0 01-.108.193l-.8.622a.288.288 0 00-.092.2v1.157a.08.08 0 00.029.078.058.058 0 00.074 0l.775-.4a.085.085 0 01.079 0 .11.11 0 01.05.071 2.066 2.066 0 00.172.442.276.276 0 010 .218l-.539 1.2a.155.155 0 00.048.18l.539.373a.109.109 0 00.151-.044l.646-1.119a.191.191 0 01.167-.093 1.67 1.67 0 00.42-.05.081.081 0 01.079.014.11.11 0 01.04.08l.086.976c0 .068.048.1.1.062l.872-.578a.3.3 0 00.1-.193l.086-1.119a.389.389 0 01.092-.205 5.4 5.4 0 00.485-.622.148.148 0 01.172-.056l.539.224a.127.127 0 00.156-.068l.641-1.281a.18.18 0 00-.032-.193l-.447-.442a.221.221 0 01-.043-.2 7 7 0 00.2-.784.344.344 0 01.11-.198l.8-.622a.3.3 0 00.091-.202zm-3.409 3.669c-.813.547-1.47.106-1.47-.976a3.878 3.878 0 011.47-2.948c.813-.541 1.47-.1 1.47.983a3.877 3.877 0 01-1.47 2.941z" fill="#37474f"/><path d="M154.569 58.559c6.613-4.409 11.971-.833 11.971 7.985s-5.358 19.534-11.971 23.943-11.971.833-11.971-7.979 5.358-19.54 11.971-23.949z" fill="#455a64"/><path d="M154.488 65.499c2.154-1.43 3.883-.274 3.883 2.587a10.3 10.3 0 01-3.883 7.761c-2.154 1.43-3.888.274-3.888-2.587a10.292 10.292 0 013.888-7.761zM162.15 80.748c0-4.7-2.859-6.6-6.381-4.254l-2.235 1.468c-3.522 2.351-6.381 8.085-6.381 12.768v1.287a5.875 5.875 0 002.057.367 9.83 9.83 0 005.337-1.866 25.67 25.67 0 007.6-8.675zM143.766 103.602l21.615-14.409c.641-.429 1.163-.124 1.163.684a2.988 2.988 0 01-1.163 2.233l-21.61 14.409c-.646.435-1.169.124-1.169-.678a2.982 2.982 0 011.164-2.239z" fill="#ffc107"/><path d="M141.446 113.914l26.251-17.544c.646-.429 1.169-.124 1.169.684a2.979 2.979 0 01-1.169 2.234l-26.246 17.544c-.646.429-1.169.124-1.169-.684a2.979 2.979 0 011.164-2.234z" fill="#455a64"/><path d="M168.392 110.512l7.351-4.9c.388-.255.7-.137.7.267a1.646 1.646 0 01-.7 1.194l-7.351 4.9c-.382.255-.7.137-.7-.261a1.667 1.667 0 01.7-1.2z" fill="#37474f"/><path d="M131.668 132.086l10.8-7.2c.641-.429 1.163-.081 1.163.777v8.557a3.1 3.1 0 01-1.163 2.332l-10.8 7.2c-.641.429-1.163.081-1.163-.777v-8.557a3.1 3.1 0 011.163-2.332z" fill="#ffc107"/><path d="M133.395 133.28l7.351-4.9c.388-.255.7-.137.7.261a1.648 1.648 0 01-.7 1.2l-7.351 4.9c-.388.255-.7.137-.7-.261a1.648 1.648 0 01.7-1.2zM132.695 137.595v2.488c0 .516.312.721.7.466l7.351-4.9a1.855 1.855 0 00.7-1.4v-2.487c0-.516-.312-.721-.7-.466l-7.351 4.875a1.872 1.872 0 00-.7 1.424z" fill="#fafafa"/><path d="M149.17 120.419l10.77-7.2c.646-.429 1.169-.081 1.169.777v8.557a3.088 3.088 0 01-1.169 2.332l-10.77 7.2c-.646.429-1.163.081-1.163-.777v-8.557a3.084 3.084 0 011.163-2.332z" fill="#ffc107"/><path d="M150.896 121.613l7.351-4.9c.382-.255.695-.137.695.261a1.663 1.663 0 01-.695 1.2l-7.351 4.9c-.388.255-.7.137-.7-.267a1.646 1.646 0 01.7-1.194zM150.196 125.928v2.488c0 .516.312.721.7.466l7.35-4.9a1.87 1.87 0 00.695-1.4v-2.487c0-.516-.318-.721-.7-.466l-7.35 4.9a1.857 1.857 0 00-.695 1.399z" fill="#fafafa"/><path d="M166.675 108.752l10.77-7.2c.641-.429 1.163-.081 1.163.777v8.564a3.1 3.1 0 01-1.163 2.332l-10.77 7.2c-.646.429-1.169.081-1.169-.777v-8.557a3.088 3.088 0 011.169-2.332z" fill="#ffc107"/><path d="M168.392 109.946l7.351-4.869c.388-.261.7-.143.7.261a1.627 1.627 0 01-.7 1.194l-7.351 4.9c-.382.261-.7.143-.7-.261a1.653 1.653 0 01.7-1.225zM167.692 114.262v2.488c0 .51.318.721.7.466l7.351-4.907a1.848 1.848 0 00.7-1.4v-2.488c0-.516-.312-.728-.7-.466l-7.351 4.9a1.862 1.862 0 00-.7 1.407z" fill="#fafafa"/><path d="M132.84 151.719l43.457-28.974c1.292-.858 2.332-.249 2.332 1.362a5.948 5.948 0 01-2.332 4.471l-43.457 28.974c-1.287.858-2.332.249-2.332-1.362a5.968 5.968 0 012.332-4.471zM132.84 163.392l43.457-28.974c1.292-.858 2.332-.249 2.332 1.362a5.948 5.948 0 01-2.332 4.471l-43.457 28.98c-1.287.858-2.332.249-2.332-1.368a5.967 5.967 0 012.332-4.471z" fill="#e0e0e0"/><path d="M146.987 168.547l15.161-10.112c.646-.429 1.169-.081 1.169.777v5.641a3.088 3.088 0 01-1.169 2.332l-15.161 10.112c-.646.429-1.169.081-1.169-.777v-5.641a3.088 3.088 0 011.169-2.332z" fill="#ffc107"/><path d="M133.788 152.583a2.908 2.908 0 00-1.077 2.189c0 .8.49 1.132 1.077.728a2.909 2.909 0 001.077-2.189c.016-.803-.474-1.132-1.077-.728zM137.256 150.27a2.9 2.9 0 00-1.077 2.189c0 .8.485 1.132 1.077.728a2.909 2.909 0 001.077-2.189c.016-.803-.474-1.145-1.077-.728zM140.718 147.987a2.909 2.909 0 00-1.077 2.189c0 .8.49 1.132 1.077.728a2.908 2.908 0 001.077-2.189c.016-.834-.474-1.163-1.077-.728zM144.186 145.643a2.9 2.9 0 00-1.077 2.189c0 .8.49 1.132 1.077.728a2.908 2.908 0 001.077-2.189c.016-.803-.474-1.132-1.077-.728zM147.649 143.324a2.909 2.909 0 00-1.077 2.189c0 .8.49 1.132 1.077.728a2.909 2.909 0 001.077-2.189c.016-.798-.474-1.128-1.077-.728zM151.111 141.016a2.908 2.908 0 00-1.077 2.189c0 .8.49 1.132 1.077.728a2.9 2.9 0 001.077-2.189c.016-.803-.469-1.132-1.077-.728zM154.579 138.702a2.909 2.909 0 00-1.077 2.189c0 .8.49 1.132 1.077.728a2.908 2.908 0 001.077-2.189c.032-.771-.474-1.132-1.077-.728zM133.788 164.263a2.922 2.922 0 00-1.077 2.189c0 .808.49 1.132 1.077.728a2.894 2.894 0 001.077-2.183c.016-.809-.474-1.132-1.077-.734zM137.256 161.949a2.9 2.9 0 00-1.077 2.189c0 .808.485 1.132 1.077.728a2.894 2.894 0 001.077-2.183c.016-.809-.474-1.132-1.077-.734zM140.718 159.635a2.922 2.922 0 00-1.077 2.189c0 .808.49 1.132 1.077.728a2.894 2.894 0 001.077-2.183c.016-.809-.474-1.138-1.077-.734zM144.186 157.319a2.909 2.909 0 00-1.077 2.189c0 .808.49 1.132 1.077.728a2.894 2.894 0 001.077-2.183c.016-.805-.474-1.134-1.077-.734zM147.649 155.009a2.909 2.909 0 00-1.077 2.189c0 .808.49 1.132 1.077.728a2.894 2.894 0 001.077-2.183c.016-.809-.474-1.138-1.077-.734zM151.111 152.695a2.908 2.908 0 00-1.077 2.189c0 .808.49 1.132 1.077.728a2.882 2.882 0 001.077-2.189c.016-.803-.469-1.132-1.077-.728zM154.579 150.382a2.909 2.909 0 00-1.077 2.189c0 .808.49 1.132 1.077.728a2.9 2.9 0 001.077-2.189c.032-.803-.474-1.132-1.077-.728z" fill="#fafafa"/></g><g><path d="M203.179 176.675a9.411 9.411 0 01-5.3-1.617c-3.883-2.593-6.107-8-6.107-14.863 0-12.052 6.634-25.914 15.078-31.561 4.561-3.041 9.09-3.371 12.757-.927 3.877 2.587 6.107 8 6.107 14.857 0 12.052-6.634 25.921-15.1 31.568a13.6 13.6 0 01-7.426 2.544zm11.125-41.9a7.247 7.247 0 00-3.689 1.4c-6.139 4.073-11.308 15.087-11.308 24.024 0 3.619.878 6.368 2.348 7.345 1.675 1.119 4.006-.1 5.24-.927 6.155-4.1 11.346-15.112 11.346-24.049 0-3.619-.878-6.362-2.348-7.345a2.737 2.737 0 00-1.589-.448z" fill="#455a64"/><path d="M219.56 144.492c0-6.772-3.694-9.272-3.694-9.272 1.47.983 2.348 3.731 2.348 7.345 0 8.937-5.191 19.95-11.346 24.049-1.233.827-3.559 2.046-5.24.927 0 0 3.118 2.239 7.426-.479 6.236-3.925 10.506-13.633 10.506-22.57zM213.637 59.858a3.907 3.907 0 10-7.771 0v71.338a2.258 2.258 0 001.136 1.866 5.368 5.368 0 005.493 0 2.25 2.25 0 001.142-1.866V59.87z" fill="#37474f"/><path d="M210.535 75.803a5.958 5.958 0 00-2.246-4.49 1.389 1.389 0 00-1.616-.162l-9.575 6.374-.232.155a.356.356 0 00-.1.068 3.512 3.512 0 00-.458.429 4.1 4.1 0 00-.31 4.783 2.916 2.916 0 004.052 1.05l.183-.124 9.645-6.412a1.947 1.947 0 00.657-1.671zM210.535 93.664a5.957 5.957 0 00-2.246-4.484 1.381 1.381 0 00-1.615-.168l-11.233 7.463-.232.155a.414.414 0 00-.1.068 3.2 3.2 0 00-.458.429 4.045 4.045 0 00-.907 3.122 3.723 3.723 0 001.618 2.711 2.891 2.891 0 001.519.435 2.835 2.835 0 001.513-.435c.065-.037.124-.087.183-.124l11.309-7.463a1.952 1.952 0 00.649-1.709z" fill="#455a64"/></g></svg>