<svg xmlns="http://www.w3.org/2000/svg" width="29.023" height="29.021" viewBox="0 0 29.023 29.021"><g transform="translate(-1.48 -1.49)"><path d="M30.16,12.88a14.51,14.51,0,1,0-11,17.28,14.51,14.51,0,0,0,11-17.28ZM18.9,29.18A13.5,13.5,0,1,1,13.1,2.81,13.69,13.69,0,0,1,16,2.5a13.5,13.5,0,0,1,2.9,26.68Z"/><path d="M21.76,10.31a1.56,1.56,0,0,0-1.59,0l-7.05,4.32A1.55,1.55,0,0,0,12.36,16a1.57,1.57,0,0,0,.76,1.34l7.05,4.31a1.55,1.55,0,0,0,.82.23,1.5,1.5,0,0,0,.77-.2,1.55,1.55,0,0,0,.8-1.37V11.69a1.58,1.58,0,0,0-.8-1.38Zm-.2,10a.57.57,0,0,1-.87.49l-7-4.31a.57.57,0,0,1-.28-.49.55.55,0,0,1,.28-.49l7.05-4.31a.56.56,0,0,1,.58,0,.55.55,0,0,1,.29.5Z"/><path d="M11,10.84a.5.5,0,0,0-.5.5v9.32a.5.5,0,0,0,1,0V11.34A.5.5,0,0,0,11,10.84Z"/></g></svg>