<svg xmlns="http://www.w3.org/2000/svg" width="11.905" height="15" viewBox="0 0 11.905 15"><g transform="translate(0.003 0.002)"><path d="M222.741,154.7a.347.347,0,0,0-.343.351v6.639a.343.343,0,1,0,.687,0v-6.639A.347.347,0,0,0,222.741,154.7Zm0,0" transform="translate(-214.767 -149.27)" fill="#ffc107"/><path d="M104.741,154.7a.347.347,0,0,0-.343.351v6.639a.343.343,0,1,0,.687,0v-6.639A.347.347,0,0,0,104.741,154.7Zm0,0" transform="translate(-100.818 -149.27)" fill="#ffc107"/><path d="M.972,4.464v8.655a1.963,1.963,0,0,0,.5,1.337A1.672,1.672,0,0,0,2.7,15H9.2a1.672,1.672,0,0,0,1.227-.543,1.963,1.963,0,0,0,.5-1.337V4.464a1.342,1.342,0,0,0,.964-1.471,1.322,1.322,0,0,0-1.3-1.168H8.833V1.386A1.4,1.4,0,0,0,8.436.4,1.333,1.333,0,0,0,7.473,0H4.425a1.333,1.333,0,0,0-.963.4,1.4,1.4,0,0,0-.4.985v.439H1.308a1.322,1.322,0,0,0-1.3,1.168A1.342,1.342,0,0,0,.972,4.464ZM9.2,14.3H2.7a1.1,1.1,0,0,1-1.043-1.177V4.5H10.24v8.624A1.1,1.1,0,0,1,9.2,14.3ZM3.752,1.386A.684.684,0,0,1,3.947.9.653.653,0,0,1,4.425.7H7.473a.653.653,0,0,1,.478.2.684.684,0,0,1,.195.488v.439H3.752ZM1.308,2.528H10.59a.632.632,0,0,1,0,1.265H1.308a.632.632,0,0,1,0-1.265Zm0,0" transform="translate(0 0)" fill="#ffc107"/><path d="M163.741,154.7a.347.347,0,0,0-.343.351v6.639a.343.343,0,1,0,.687,0v-6.639A.347.347,0,0,0,163.741,154.7Zm0,0" transform="translate(-157.792 -149.27)" fill="#ffc107"/></g></svg>