<svg xmlns="http://www.w3.org/2000/svg" width="25.665" height="20.2" viewBox="0 0 25.665 20.2"><g transform="translate(0 -44.8)"><g transform="translate(0 44.8)"><g transform="translate(0 0)"><path d="M24.811,47.947a2.759,2.759,0,0,0-2.025-.854h-4.05v-.049a2.19,2.19,0,0,0-.659-1.586,2.232,2.232,0,0,0-1.586-.659H9.173A2.249,2.249,0,0,0,6.9,47.044v.049H2.879a2.759,2.759,0,0,0-2.025.854A2.9,2.9,0,0,0,0,49.972V62.121a2.759,2.759,0,0,0,.854,2.025A2.9,2.9,0,0,0,2.879,65H22.786a2.759,2.759,0,0,0,2.025-.854,2.9,2.9,0,0,0,.854-2.025V49.972A2.759,2.759,0,0,0,24.811,47.947ZM24.4,62.121h-.024a1.583,1.583,0,0,1-1.586,1.586H2.879a1.583,1.583,0,0,1-1.586-1.586V49.972a1.583,1.583,0,0,1,1.586-1.586H7.587a.656.656,0,0,0,.659-.659V47.02a.918.918,0,0,1,.951-.951h7.294a.918.918,0,0,1,.951.951v.707a.656.656,0,0,0,.659.659H22.81A1.583,1.583,0,0,1,24.4,49.972Z" transform="translate(0 -44.8)"/><path d="M118,130.8a6,6,0,1,0,4.245,1.757A6.012,6.012,0,0,0,118,130.8Zm3.318,9.344a4.712,4.712,0,0,1-6.636,0,4.664,4.664,0,0,1-1.366-3.318,4.767,4.767,0,0,1,1.366-3.318A4.664,4.664,0,0,1,118,132.142a4.768,4.768,0,0,1,3.318,1.366,4.664,4.664,0,0,1,1.366,3.318A4.565,4.565,0,0,1,121.319,140.144Z" transform="translate(-105.169 -125.555)"/><circle cx="1.195" cy="1.195" r="1.195" transform="translate(20.322 5.221)" fill="#ffc107"/></g></g></g></svg>