<svg xmlns="http://www.w3.org/2000/svg" width="13.313" height="12.759" viewBox="0 0 13.313 12.759"><g transform="translate(0 0)"><g transform="translate(0 0)"><path d="M13.313,15.8a1.232,1.232,0,0,1-.361.873,1.377,1.377,0,0,1,.355,1.059,1.434,1.434,0,0,1-1.447,1.258H8.434a7.976,7.976,0,0,1,.442,2.219,2.267,2.267,0,0,1-1.664,2.219,1.742,1.742,0,0,1-1.005-.338.278.278,0,0,1-.1-.217V20.99L4.5,17.529,4.438,17.5V17.6a.277.277,0,0,1-.277.277H1.387A1.388,1.388,0,0,1,0,16.492V12.054a1.388,1.388,0,0,1,1.387-1.387H3.051a1.39,1.39,0,0,1,1.305.917,3.616,3.616,0,0,1,1.468-.362h5.092a1.276,1.276,0,0,1,1.257.969,1.252,1.252,0,0,1-.1.834,1.243,1.243,0,0,1,.555,1.664A1.243,1.243,0,0,1,13.313,15.8Zm-1.17-.685a.277.277,0,0,1-.159-.478.687.687,0,0,0-.4-1.187.277.277,0,0,1-.159-.478.686.686,0,0,0,.2-.662.718.718,0,0,0-.715-.534H5.825a2.629,2.629,0,0,0-1.468.474.278.278,0,0,1-.474-.2.833.833,0,0,0-.832-.832H1.387a.833.833,0,0,0-.832.832v4.438a.833.833,0,0,0,.832.832h2.5v-.277a.279.279,0,0,1,.132-.236.283.283,0,0,1,.27-.012l.555.277a.277.277,0,0,1,.128.131l1.664,3.606a.283.283,0,0,1,.026.116v1.791a1.17,1.17,0,0,0,.555.15,1.831,1.831,0,0,0,1.109-1.664,8.638,8.638,0,0,0-.536-2.4.277.277,0,0,1,.259-.376h3.817a.876.876,0,0,0,.894-.754.829.829,0,0,0-.395-.785.278.278,0,0,1,.019-.483.687.687,0,0,0-.235-1.3Z" transform="translate(0 -10.667)" fill="#ff074b"/></g><g transform="translate(3.883 1.109)"><g transform="translate(0 0)"><path d="M149.61,250.88a.277.277,0,0,1-.277-.277V245.61a.277.277,0,1,1,.555,0V250.6A.277.277,0,0,1,149.61,250.88Z" transform="translate(-149.333 -245.333)" fill="#ff074b"/></g></g></g></svg>