<svg xmlns="http://www.w3.org/2000/svg" width="16.74" height="9.658" viewBox="0 0 16.74 9.658"><g transform="translate(-3 -102.641)"><path d="M8.37,98.725A10.532,10.532,0,0,0,.131,103.17a.625.625,0,0,0,0,.766,10.527,10.527,0,0,0,8.239,4.448,10.532,10.532,0,0,0,8.239-4.445.625.625,0,0,0,0-.766A10.527,10.527,0,0,0,8.37,98.725Zm.229,8.23a3.41,3.41,0,1,1-.459-6.8,3.41,3.41,0,1,1,.459,6.8Zm-.106-1.571a1.836,1.836,0,1,1,1.77-1.714A1.863,1.863,0,0,1,8.493,105.384Z" transform="translate(3 3.916)" fill="#fff"/></g></svg>