<svg xmlns="http://www.w3.org/2000/svg" width="16.233" height="14.872" viewBox="0 0 16.233 14.872"><g transform="translate(-5186.267 -4542.334)"><path d="M79.865,81.694H70.194a1.995,1.995,0,0,0-3.782,0H64.9a.635.635,0,0,0,0,1.27h1.51a1.995,1.995,0,0,0,3.782,0h9.671a.635.635,0,1,0,0-1.27ZM68.3,83.055a.725.725,0,1,1,.725-.725A.726.726,0,0,1,68.3,83.055Z" transform="translate(5122 4462)"/><path d="M79.865,210.227h-1.51a1.995,1.995,0,0,0-3.782,0H64.9a.635.635,0,0,0,0,1.27h9.671a1.995,1.995,0,0,0,3.782,0h1.51a.635.635,0,1,0,0-1.27Zm-3.4,1.36a.725.725,0,1,1,.725-.725A.726.726,0,0,1,76.464,211.588Z" transform="translate(5122 4338.908)" fill="#ffc107"/><path d="M79.865,338.76H72.914a1.995,1.995,0,0,0-3.782,0H64.9a.635.635,0,1,0,0,1.27h4.23a1.995,1.995,0,0,0,3.782,0h6.951a.635.635,0,1,0,0-1.27Zm-8.842,1.36a.725.725,0,1,1,.725-.725A.726.726,0,0,1,71.023,340.121Z" transform="translate(5122 4215.816)"/></g></svg>