<svg xmlns="http://www.w3.org/2000/svg" width="12.108" height="18.5" viewBox="0 0 12.108 18.5"><g transform="translate(-88.456 0)"><path d="M100.025,10.091C98.937,7.57,95.892,3.207,97.338.268a.184.184,0,0,0-.226-.257C95.856.455,92.5,2.035,93.544,6a6.429,6.429,0,0,0-1.819-1.5.184.184,0,0,0-.254.185c.182,2.4-1.525,3.685-2.512,5.712a5.3,5.3,0,0,0,.4,5.172,6.329,6.329,0,0,0,2.859,2.606q-.11-.1-.212-.218a3.544,3.544,0,0,1-.863-2.764,6.394,6.394,0,0,1,1.527-2.861c.833-1.093,1.619-2.125,1.229-3.025a.549.549,0,0,1,.754-.708,4.321,4.321,0,0,1,1.521,1.475,4.9,4.9,0,0,1,.677,3.164l.033-.005a.549.549,0,0,1,.568.309,4.367,4.367,0,0,1-.137,4.115,3.108,3.108,0,0,1-.77.838C100.1,17.4,101.4,13.284,100.025,10.091Z" transform="translate(0 0)" fill="#ffc107"/><path d="M195.439,287.042a7.347,7.347,0,0,1-1.5,2.631,5.744,5.744,0,0,0-1.309,2.32,2.444,2.444,0,0,0,.592,1.907,2.34,2.34,0,0,0,1.771.785,2,2,0,0,0,1.789-.94,3.071,3.071,0,0,0,.375-2.056,1.775,1.775,0,0,1-.749.291.549.549,0,0,1-.583-.724A4.252,4.252,0,0,0,195.439,287.042Z" transform="translate(-100.395 -276.67)" fill="#f7991c"/></g></svg>