<svg xmlns="http://www.w3.org/2000/svg" width="29.023" height="29.021" viewBox="0 0 29.023 29.021"><g transform="translate(-1.48 -1.49)"><path d="M30.16,12.88a14.51,14.51,0,1,0-11,17.28,14.51,14.51,0,0,0,11-17.28ZM18.9,29.18A13.5,13.5,0,1,1,13.1,2.81,13.69,13.69,0,0,1,16,2.5a13.5,13.5,0,0,1,2.9,26.68Z"/><path d="M20,14.66l-7.06-4.32a1.57,1.57,0,0,0-2.39,1.35v8.62a1.57,1.57,0,0,0,1.57,1.57,1.5,1.5,0,0,0,.82-.23L20,17.34A1.56,1.56,0,0,0,20.7,16,1.54,1.54,0,0,0,20,14.66Zm-.52,1.83L12.37,20.8a.57.57,0,0,1-.87-.49V11.69a.55.55,0,0,1,.29-.5.59.59,0,0,1,.29-.08.49.49,0,0,1,.29.09l7.06,4.31a.57.57,0,0,1,.27.49.58.58,0,0,1-.27.49Z"/><path d="M22.06,10.84a.5.5,0,0,0-.5.5v9.32a.51.51,0,0,0,.5.5.5.5,0,0,0,.5-.5V11.34A.5.5,0,0,0,22.06,10.84Z"/></g></svg>