<svg id="gift" xmlns="http://www.w3.org/2000/svg" width="29" height="29" viewBox="0 0 29 29">
  <g id="Group_35" data-name="Group 35" transform="translate(0 0)">
    <path id="Path_1388" data-name="Path 1388" d="M26.451,6.8H22.994A4.246,4.246,0,0,0,19.6,0a3.813,3.813,0,0,0-3.274,1.591A16.5,16.5,0,0,0,14.5,5.369a16.493,16.493,0,0,0-1.823-3.778A3.813,3.813,0,0,0,9.4,0a4.246,4.246,0,0,0-3.4,6.8H2.549A2.552,2.552,0,0,0,0,9.346v1.7a2.553,2.553,0,0,0,1.7,2.4v13A2.552,2.552,0,0,0,4.248,29h20.5A2.552,2.552,0,0,0,27.3,26.451v-13a2.553,2.553,0,0,0,1.7-2.4v-1.7A2.552,2.552,0,0,0,26.451,6.8ZM16.06,6.046c1.3-3.3,1.8-4.347,3.538-4.347a2.549,2.549,0,1,1,0,5.1H15.762C15.866,6.535,15.966,6.284,16.06,6.046ZM9.4,1.7c1.742,0,2.237,1.045,3.538,4.347.094.238.193.49.3.751H9.4a2.549,2.549,0,1,1,0-5.1Zm1.7,25.6H4.248a.851.851,0,0,1-.85-.85V13.594h7.7Zm0-15.406H2.549a.851.851,0,0,1-.85-.85v-1.7a.851.851,0,0,1,.85-.85H11.1ZM16.2,27.3H12.8V8.5h3.4Zm9.4-.85a.851.851,0,0,1-.85.85H17.9V13.594h7.7Zm1.7-15.406a.851.851,0,0,1-.85.85H17.9V8.5h8.553a.851.851,0,0,1,.85.85Z" transform="translate(0 0)" fill="#ffc107"/>
  </g>
</svg>
