<svg xmlns="http://www.w3.org/2000/svg" width="30" height="30" viewBox="0 0 30 30"><g transform="translate(0 -12.339)"><path d="M168.444,313.652a5.732,5.732,0,0,0,0,11.451,5.21,5.21,0,0,0,1.489-.216.465.465,0,0,0,.3-.569.436.436,0,0,0-.542-.318,4.377,4.377,0,0,1-1.249.181,4.809,4.809,0,1,1,4.572-4.8,4.887,4.887,0,0,1-1.679,3.72.477.477,0,0,0-.062.649.425.425,0,0,0,.618.065,5.824,5.824,0,0,0,2-4.434A5.6,5.6,0,0,0,168.444,313.652Z" transform="translate(-153.445 -282.764)" fill="#ffc107"/><path d="M27.787,26.383v-.61c0-7.408-5.736-13.434-12.787-13.434A12.148,12.148,0,0,0,9.809,13.5a12.8,12.8,0,0,0-4.172,3.136.478.478,0,0,0,.023.652.424.424,0,0,0,.62-.024,11.69,11.69,0,0,1,8.72-4c6.563,0,11.9,5.607,11.909,12.5a1.4,1.4,0,0,0-1.354-1.225H24.436a10.144,10.144,0,0,0-3.014-6.128,9.16,9.16,0,0,0-12.882.037,10.142,10.142,0,0,0-2.976,6.09H4.446a1.4,1.4,0,0,0-1.354,1.225A12.886,12.886,0,0,1,5.1,18.819a.476.476,0,0,0-.12-.64.426.426,0,0,0-.609.126,13.839,13.839,0,0,0-2.162,7.468v.61A2.445,2.445,0,0,0,0,28.868v7.388a2.435,2.435,0,0,0,2.37,2.49h.706v.4a1.407,1.407,0,0,0,1.37,1.439h1.91a1.407,1.407,0,0,0,1.37-1.439V25.978a1.413,1.413,0,0,0-1.277-1.435A8.833,8.833,0,0,1,15,16.7a8.854,8.854,0,0,1,8.552,7.837,1.413,1.413,0,0,0-1.277,1.435V39.146a1.407,1.407,0,0,0,1.37,1.439h1.91a1.407,1.407,0,0,0,1.37-1.439v-.4h.706A2.435,2.435,0,0,0,30,36.256V28.868a2.445,2.445,0,0,0-2.213-2.484ZM2.37,37.824A1.533,1.533,0,0,1,.878,36.256V28.868A1.533,1.533,0,0,1,2.37,27.3h.706V37.824ZM6.848,25.978V39.146a.505.505,0,0,1-.492.517H4.446a.505.505,0,0,1-.492-.517V25.978a.505.505,0,0,1,.492-.517h1.91A.505.505,0,0,1,6.848,25.978ZM29.122,36.256a1.533,1.533,0,0,1-1.492,1.568h-.706v-7.2a.439.439,0,1,0-.878,0v8.52a.505.505,0,0,1-.492.517h-1.91a.505.505,0,0,1-.492-.517V25.978a.505.505,0,0,1,.492-.517h1.91a.505.505,0,0,1,.492.517V28.44a.439.439,0,1,0,.878,0V27.3h.706a1.533,1.533,0,0,1,1.492,1.568Z" transform="translate(0 0)" fill="#ffc107"/><path d="M189,202.905a.45.45,0,0,0,.439-.461v-3.737a.439.439,0,1,0-.878,0v3.737A.45.45,0,0,0,189,202.905Z" transform="translate(-177.51 -174.462)" fill="#ffc107"/><path d="M338.875,208.717a.45.45,0,0,0-.439.461v2.448a.439.439,0,1,0,.878,0v-2.448A.45.45,0,0,0,338.875,208.717Z" transform="translate(-318.606 -184.289)" fill="#ffc107"/><path d="M219.412,187.659v-5.813a.439.439,0,1,0-.878,0v5.813a.439.439,0,1,0,.878,0Z" transform="translate(-205.729 -158.639)" fill="#ffc107"/><path d="M249.387,195.052v-4.775a.439.439,0,1,0-.878,0v4.775a.439.439,0,1,0,.878,0Z" transform="translate(-233.948 -166.551)" fill="#ffc107"/><path d="M309.339,187.659v-5.813a.439.439,0,1,0-.878,0v5.813a.439.439,0,1,0,.878,0Z" transform="translate(-290.387 -158.639)" fill="#ffc107"/><path d="M279.363,220.808V219.65a.439.439,0,1,0-.878,0v1.158a.439.439,0,1,0,.878,0Z" transform="translate(-262.168 -194.116)" fill="#ffc107"/><path d="M159.461,220.808V219.65a.439.439,0,1,0-.878,0v1.158a.439.439,0,1,0,.878,0Z" transform="translate(-149.291 -194.116)" fill="#ffc107"/><path d="M224.112,361.5l-3.435-2.084a.75.75,0,0,0-.79,0,.83.83,0,0,0-.4.719V364.3a.83.83,0,0,0,.4.719.75.75,0,0,0,.79,0l3.435-2.084a.852.852,0,0,0,0-1.438Zm-3.742,2.643v-3.848l3.172,1.924Z" transform="translate(-206.631 -325.605)" fill="#ffc107"/></g></svg>