<svg xmlns="http://www.w3.org/2000/svg" width="13.313" height="12.759" viewBox="0 0 13.313 12.759"><g transform="translate(0 -10.667)"><g transform="translate(0 10.667)"><path d="M13.313,18.294a1.232,1.232,0,0,0-.361-.873,1.377,1.377,0,0,0,.355-1.059A1.434,1.434,0,0,0,11.861,15.1H8.434a7.976,7.976,0,0,0,.442-2.219,2.267,2.267,0,0,0-1.664-2.219A1.742,1.742,0,0,0,6.206,11a.278.278,0,0,0-.1.217V13.1L4.5,16.564l-.066.034v-.106a.277.277,0,0,0-.277-.277H1.387A1.388,1.388,0,0,0,0,17.6v4.438a1.388,1.388,0,0,0,1.387,1.387H3.051a1.39,1.39,0,0,0,1.305-.917,3.616,3.616,0,0,0,1.468.362h5.092a1.276,1.276,0,0,0,1.257-.969,1.252,1.252,0,0,0-.1-.834,1.243,1.243,0,0,0,.555-1.664A1.243,1.243,0,0,0,13.313,18.294Zm-1.17.685a.277.277,0,0,0-.159.478.687.687,0,0,1-.4,1.187.277.277,0,0,0-.159.478.686.686,0,0,1,.2.662.718.718,0,0,1-.715.534H5.825a2.63,2.63,0,0,1-1.468-.474.278.278,0,0,0-.474.2.833.833,0,0,1-.832.832H1.387a.833.833,0,0,1-.832-.832V17.6a.833.833,0,0,1,.832-.832h2.5v.277a.279.279,0,0,0,.132.236.283.283,0,0,0,.27.012l.555-.277a.277.277,0,0,0,.128-.131L6.631,13.28a.283.283,0,0,0,.026-.116V11.372a1.17,1.17,0,0,1,.555-.15,1.831,1.831,0,0,1,1.109,1.664,8.638,8.638,0,0,1-.536,2.4.277.277,0,0,0,.259.376h3.817a.876.876,0,0,1,.894.754.829.829,0,0,1-.395.785.278.278,0,0,0,.019.483.687.687,0,0,1-.235,1.3Z" transform="translate(0 -10.667)" fill="#18ff07"/></g><g transform="translate(3.883 16.769)"><g transform="translate(0 0)"><path d="M149.61,245.333a.277.277,0,0,0-.277.277V250.6a.277.277,0,1,0,.555,0V245.61A.277.277,0,0,0,149.61,245.333Z" transform="translate(-149.333 -245.333)" fill="#18ff07"/></g></g></g></svg>