<svg xmlns="http://www.w3.org/2000/svg" width="38" height="25" viewBox="0 0 38 25"><g transform="translate(-23.27 -130)"><path d="M329.784,148.3h-7.82a1.31,1.31,0,0,1,0-2.62h7.82a4.173,4.173,0,0,0,0-8.346h-6.04a3.577,3.577,0,0,1,0-7.154h9.216a1.311,1.311,0,0,1,0,2.621h-9.216a.955.955,0,0,0,0,1.909h6.04a6.793,6.793,0,0,1,0,13.586Z" transform="translate(-275.262 -0.171)" fill="#ffc107"/><path d="M38.309,155a1.306,1.306,0,0,1-1.3-1.31v-5.557H31.44a8.208,8.208,0,0,1-8.17-8.225v-1.684a8.17,8.17,0,1,1,16.339,0V153.69A1.306,1.306,0,0,1,38.309,155ZM31.44,132.62a5.592,5.592,0,0,0-5.568,5.6v1.682a5.592,5.592,0,0,0,5.568,5.605h5.568v-7.288a5.592,5.592,0,0,0-5.568-5.6Z" transform="translate(0 0)" fill="#ffc107"/><path d="M270.351,148.133a1.306,1.306,0,0,1-1.3-1.31V131.31a1.3,1.3,0,1,1,2.6,0v15.513A1.306,1.306,0,0,1,270.351,148.133Z" transform="translate(-227.852)" fill="#ffc107"/><path d="M347.5,241.877h-8.506a.693.693,0,0,1-.639-.335.7.7,0,0,1,0-.725.693.693,0,0,1,.639-.335H347.5a.7.7,0,0,1,0,1.4Z" transform="translate(-292.007 -102.367)" fill="#ffc107"/><path d="M348.924,276.017h-9.931a.693.693,0,0,1-.639-.335.7.7,0,0,1,0-.725.693.693,0,0,1,.639-.335h9.931a.7.7,0,0,1,0,1.4Z" transform="translate(-292.007 -134)" fill="#ffc107"/><path d="M347.5,309.317h-8.506a.693.693,0,0,1-.639-.335.7.7,0,0,1,0-.725.693.693,0,0,1,.639-.335H347.5a.7.7,0,0,1,0,1.4Z" transform="translate(-292.007 -164.854)" fill="#ffc107"/><path d="M270.338,388.94a1.31,1.31,0,1,0-1.3-1.31A1.319,1.319,0,0,0,270.338,388.94Z" transform="translate(-227.838 -237.497)" fill="#ffc107"/><path d="M270.338,437.38a1.31,1.31,0,1,0-1.3-1.31A1.32,1.32,0,0,0,270.338,437.38Z" transform="translate(-227.838 -282.38)" fill="#ffc107"/></g></svg>