<svg xmlns="http://www.w3.org/2000/svg" width="9" height="7.199" viewBox="0 0 9 7.199"><g transform="translate(0 0)"><g transform="translate(0 0)"><path d="M224.352,50.767l2.4-2.4a1.2,1.2,0,1,1,1.7,1.7L226.9,51.615l1.552,1.552a1.2,1.2,0,1,1-1.7,1.7l-2.4-2.4a1.2,1.2,0,0,1,0-1.7Zm.424,1.273,2.4,2.4a.614.614,0,0,0,.848,0,.6.6,0,0,0,0-.848l-1.976-1.976,1.976-1.976a.6.6,0,0,0-.848-.849l-2.4,2.4a.6.6,0,0,0,0,.849Z" transform="translate(-224 -48.016)" fill="#ffc107"/></g></g><g transform="translate(4.2 0)"><g transform="translate(0 0)"><path d="M.352,50.767l2.4-2.4a1.2,1.2,0,1,1,1.7,1.7L2.9,51.615l1.552,1.552a1.2,1.2,0,1,1-1.7,1.7l-2.4-2.4a1.2,1.2,0,0,1,0-1.7ZM.776,52.04l2.4,2.4a.614.614,0,0,0,.848,0,.6.6,0,0,0,0-.848L2.048,51.615,4.024,49.64a.6.6,0,0,0-.848-.849l-2.4,2.4a.6.6,0,0,0,0,.849Z" transform="translate(0 -48.016)" fill="#ffc107"/></g></g></svg>