<svg xmlns="http://www.w3.org/2000/svg" width="30" height="30" viewBox="0 0 30 30"><g transform="translate(-324 -417)"><circle cx="15" cy="15" r="15" transform="translate(324 417)" fill="#ffc107"/><g transform="translate(326.521 419.298)"><path d="M12.972,10.5A1.472,1.472,0,0,0,11.5,11.972v7.851a1.472,1.472,0,0,0,2.944,0V11.972A1.472,1.472,0,0,0,12.972,10.5Zm.491,9.323a.491.491,0,1,1-.981,0V11.972a.491.491,0,1,1,.981,0Z" transform="translate(-3.112 -2.798)" fill="#fff"/><path d="M18.972,10.5A1.472,1.472,0,0,0,17.5,11.972v7.851a1.472,1.472,0,0,0,2.944,0V11.972A1.472,1.472,0,0,0,18.972,10.5Zm.491,9.323a.491.491,0,0,1-.981,0V11.972a.491.491,0,0,1,.981,0Z" transform="translate(-3.224 -2.798)" fill="#fff"/></g></g></svg>