<svg xmlns="http://www.w3.org/2000/svg" width="43.67" height="43.667" viewBox="0 0 43.67 43.667"><g transform="translate(-1.48 -1.49)"><path d="M44.634,18.628a21.833,21.833,0,1,0-16.551,26,21.833,21.833,0,0,0,16.551-26ZM27.692,43.154A20.313,20.313,0,1,1,18.964,3.476a20.6,20.6,0,0,1,4.364-.466,20.313,20.313,0,0,1,4.364,40.144Z" transform="translate(0 0)" fill="#ffc107"/><path d="M13.757,10.5A2.257,2.257,0,0,0,11.5,12.757V24.794a2.257,2.257,0,0,0,4.514,0V12.757A2.257,2.257,0,0,0,13.757,10.5Zm.752,14.294a.752.752,0,0,1-1.5,0V12.757a.752.752,0,0,1,1.5,0Z" transform="translate(5.057 4.547)" fill="#ffc107"/><path d="M19.757,10.5A2.257,2.257,0,0,0,17.5,12.757V24.794a2.257,2.257,0,0,0,4.514,0V12.757A2.257,2.257,0,0,0,19.757,10.5Zm.752,14.294a.752.752,0,0,1-1.5,0V12.757a.752.752,0,1,1,1.5,0Z" transform="translate(8.085 4.547)" fill="#ffc107"/></g></svg>