<svg xmlns="http://www.w3.org/2000/svg" width="43.665" height="43.665" viewBox="0 0 43.665 43.665"><g transform="translate(-1.496 -1.506)"><path d="M44.646,18.644a21.828,21.828,0,1,0-16.559,26,21.828,21.828,0,0,0,16.559-26ZM27.7,43.181a20.323,20.323,0,1,1-8.731-39.7A19.886,19.886,0,0,1,23.33,3,20.323,20.323,0,0,1,27.7,43.181Z" transform="translate(0 0)" fill="#ffc107"/><path d="M26.8,17.027l-11.4-6.91a2.409,2.409,0,0,0-2.5,0,2.439,2.439,0,0,0-1.28,2.168V26.21a2.484,2.484,0,0,0,3.779,1.972l11.4-6.97a2.484,2.484,0,0,0,0-4.245Zm-.783,3.011-11.4,6.955a.948.948,0,0,1-.978,0,.979.979,0,0,1-.512-.858V12.195a.978.978,0,0,1,.512-.858.9.9,0,0,1,.467-.12,1.009,1.009,0,0,1,.512.135l11.4,6.97a.933.933,0,0,1,.467.828.963.963,0,0,1-.467.843Z" transform="translate(5.121 4.176)" fill="#ffc107"/></g></svg>