<svg xmlns="http://www.w3.org/2000/svg" width="30" height="30" viewBox="0 0 30 30"><g transform="translate(-1.496 -1.506)"><path d="M31.142,13.28A15,15,0,1,0,19.765,31.142,15,15,0,0,0,31.142,13.28ZM19.5,30.138a13.963,13.963,0,1,1-6-27.273,13.663,13.663,0,0,1,3-.331,13.963,13.963,0,0,1,3,27.6Z" transform="translate(0)" fill="#ffc107"/><path d="M22.055,14.755l-7.829-4.747a1.655,1.655,0,0,0-1.717,0A1.676,1.676,0,0,0,11.63,11.5v9.567a1.707,1.707,0,0,0,2.6,1.355l7.829-4.789a1.707,1.707,0,0,0,0-2.917Zm-.538,2.069L13.688,21.6a.652.652,0,0,1-.672,0,.672.672,0,0,1-.352-.59V11.435a.672.672,0,0,1,.352-.59.621.621,0,0,1,.321-.083.693.693,0,0,1,.352.093l7.829,4.789a.641.641,0,0,1,.321.569.662.662,0,0,1-.321.579Z" transform="translate(0.347 0.283)" fill="#ffc107"/></g></svg>