<svg xmlns="http://www.w3.org/2000/svg" width="41" height="41" viewBox="0 0 41 41"><g transform="translate(0)"><path d="M376.939,0H371.2a1.2,1.2,0,1,0,0,2.4h5.738a2.032,2.032,0,0,1,2.029,2.029V10.17a1.2,1.2,0,1,0,2.4,0V4.432A4.437,4.437,0,0,0,376.939,0Z" transform="translate(-340.371)"/><path d="M1.2,11.371a1.2,1.2,0,0,0,1.2-1.2V4.432A2.032,2.032,0,0,1,4.432,2.4H10.17a1.2,1.2,0,1,0,0-2.4H4.432A4.437,4.437,0,0,0,0,4.432V10.17a1.2,1.2,0,0,0,1.2,1.2Z"/><path d="M10.17,378.969H4.432A2.032,2.032,0,0,1,2.4,376.94V371.2a1.2,1.2,0,1,0-2.4,0v5.738a4.437,4.437,0,0,0,4.432,4.431H10.17a1.2,1.2,0,1,0,0-2.4Z" transform="translate(0 -340.371)"/><path d="M380.17,370a1.2,1.2,0,0,0-1.2,1.2v5.738a2.032,2.032,0,0,1-2.029,2.029H371.2a1.2,1.2,0,1,0,0,2.4h5.738a4.437,4.437,0,0,0,4.432-4.431V371.2A1.2,1.2,0,0,0,380.17,370Z" transform="translate(-340.371 -340.371)"/><path d="M272.215,271.014V258.2a1.2,1.2,0,0,0-1.2-1.2H258.2a1.2,1.2,0,0,0-1.2,1.2v12.813a1.2,1.2,0,0,0,1.2,1.2h12.813A1.2,1.2,0,0,0,272.215,271.014Zm-2.4-1.2H259.4V259.4h10.41Z" transform="translate(-236.42 -236.42)"/><path d="M298.2,92.371h8.969a1.2,1.2,0,0,0,1.2-1.2V82.2a1.2,1.2,0,0,0-1.2-1.2H298.2a1.2,1.2,0,0,0-1.2,1.2V91.17A1.2,1.2,0,0,0,298.2,92.371Zm1.2-8.969h6.566v6.566H299.4Z" transform="translate(-273.217 -74.514)" fill="#ffc107"/><path d="M77.732,65H66.2A1.2,1.2,0,0,0,65,66.2V77.732a1.2,1.2,0,0,0,1.2,1.2H77.732a1.2,1.2,0,0,0,1.2-1.2V66.2A1.2,1.2,0,0,0,77.732,65Zm-1.2,11.531H67.4V67.4h9.129Z" transform="translate(-59.795 -59.795)"/><path d="M76.451,284.531H67.4V274.2a1.2,1.2,0,0,0-2.4,0v11.531a1.2,1.2,0,0,0,1.2,1.2h10.25a1.2,1.2,0,0,0,0-2.4Z" transform="translate(-59.795 -251.139)"/><path d="M131.4,280.607V274.2a1.2,1.2,0,0,0-2.4,0v6.406a1.2,1.2,0,0,0,2.4,0Z" transform="translate(-118.67 -251.139)" fill="#ffc107"/><path d="M194.2,273a1.2,1.2,0,0,0-1.2,1.2v6.406a1.2,1.2,0,0,0,2.4,0V274.2A1.2,1.2,0,0,0,194.2,273Z" transform="translate(-177.545 -251.139)" fill="#ffc107"/><path d="M322.2,339.4h2.563a1.2,1.2,0,0,0,0-2.4H322.2a1.2,1.2,0,0,0,0,2.4Z" transform="translate(-295.295 -310.014)" fill="#ffc107"/><path d="M138.2,132.684a1.2,1.2,0,0,0,1.2-1.2V130.2a1.2,1.2,0,1,0-2.4,0v1.281A1.2,1.2,0,0,0,138.2,132.684Z" transform="translate(-126.029 -118.67)" fill="#ffc107"/></g></svg>