<svg xmlns="http://www.w3.org/2000/svg" width="15.306" height="14.023" viewBox="0 0 15.306 14.023"><g transform="translate(-5186.267 -4542.334)"><path d="M78.974,81.617H69.855a1.881,1.881,0,0,0-3.566,0H64.866a.6.6,0,0,0,0,1.2h1.423a1.881,1.881,0,0,0,3.566,0h9.119a.6.6,0,1,0,0-1.2ZM68.072,82.9a.684.684,0,1,1,.684-.684A.685.685,0,0,1,68.072,82.9Z" transform="translate(5122 4462)"/><path d="M78.974,210.15H77.551a1.881,1.881,0,0,0-3.566,0H64.866a.6.6,0,1,0,0,1.2h9.119a1.881,1.881,0,0,0,3.566,0h1.423a.6.6,0,1,0,0-1.2Zm-3.206,1.283a.684.684,0,1,1,.684-.684A.685.685,0,0,1,75.768,211.432Z" transform="translate(5122 4338.597)" fill="#ffc107"/><path d="M78.974,338.683H72.42a1.881,1.881,0,0,0-3.566,0H64.866a.6.6,0,1,0,0,1.2h3.989a1.881,1.881,0,0,0,3.566,0h6.554a.6.6,0,1,0,0-1.2Zm-8.337,1.283a.684.684,0,1,1,.684-.684A.685.685,0,0,1,70.637,339.965Z" transform="translate(5122 4215.195)"/></g></svg>