<svg xmlns="http://www.w3.org/2000/svg" width="18" height="19.2" viewBox="0 0 18 19.2"><path d="M30.625,12.45a3.372,3.372,0,0,0-2.714,1.371l-5.3-2.707A3.375,3.375,0,0,0,22.5,8.9l5.552-3.336a3.361,3.361,0,1,0-.577-.966L21.912,7.94a3.375,3.375,0,1,0,.207,4.186l5.282,2.7a3.375,3.375,0,1,0,3.224-2.374Zm0-11.325a2.25,2.25,0,1,1-2.25,2.25A2.253,2.253,0,0,1,30.625,1.125ZM19.375,12.412a2.25,2.25,0,1,1,2.25-2.25A2.253,2.253,0,0,1,19.375,12.412Zm11.25,5.662a2.25,2.25,0,1,1,2.25-2.25A2.253,2.253,0,0,1,30.625,18.075Z" transform="translate(-16)" fill="#ffc107"/></svg>